ISO-10303-21;
HEADER;
FILE_DESCRIPTION(('Open CASCADE Model'),'2;1');
FILE_NAME('Open CASCADE Shape Model','2026-09-21T19:50:22',('Author'),(
    'Open CASCADE'),'Open CASCADE STEP processor 7.9','Open CASCADE 7.9'
  ,'Unknown');
FILE_SCHEMA(('AUTOMOTIVE_DESIGN { 1 0 10303 214 1 1 1 1 }'));
ENDSEC;
DATA;
#1 = APPLICATION_PROTOCOL_DEFINITION('international standard',
  'automotive_design',2000,#2);
#2 = APPLICATION_CONTEXT(
  'core data for automotive mechanical design processes');
#3 = SHAPE_DEFINITION_REPRESENTATION(#4,#10);
#4 = PRODUCT_DEFINITION_SHAPE('','',#5);
#5 = PRODUCT_DEFINITION('design','',#6,#9);
#6 = PRODUCT_DEFINITION_FORMATION('','',#7);
#7 = PRODUCT('Open CASCADE STEP translator 7.9 18',
  'Open CASCADE STEP translator 7.9 18','',(#8));
#8 = PRODUCT_CONTEXT('',#2,'mechanical');
#9 = PRODUCT_DEFINITION_CONTEXT('part definition',#2,'design');
#10 = ADVANCED_BREP_SHAPE_REPRESENTATION('',(#11,#15),#1373);
#11 = AXIS2_PLACEMENT_3D('',#12,#13,#14);
#12 = CARTESIAN_POINT('',(0.,0.,0.));
#13 = DIRECTION('',(0.,0.,1.));
#14 = DIRECTION('',(1.,0.,-0.));
#15 = MANIFOLD_SOLID_BREP('',#16);
#16 = CLOSED_SHELL('',(#17,#367,#580,#627,#751,#796,#850,#885,#909,#964,
    #989,#996,#1051,#1161,#1165,#1241,#1290,#1339,#1366));
#17 = ADVANCED_FACE('',(#18),#33,.T.);
#18 = FACE_BOUND('',#19,.F.);
#19 = EDGE_LOOP('',(#20,#56,#84,#133,#159,#208,#231,#258,#259));
#20 = ORIENTED_EDGE('',*,*,#21,.F.);
#21 = EDGE_CURVE('',#22,#24,#26,.T.);
#22 = VERTEX_POINT('',#23);
#23 = CARTESIAN_POINT('',(8.,60.,159.));
#24 = VERTEX_POINT('',#25);
#25 = CARTESIAN_POINT('',(2.972394471332E-02,52.000055219746,159.));
#26 = SURFACE_CURVE('',#27,(#32,#44),.PCURVE_S1.);
#27 = CIRCLE('',#28,8.);
#28 = AXIS2_PLACEMENT_3D('',#29,#30,#31);
#29 = CARTESIAN_POINT('',(0.,60.,159.));
#30 = DIRECTION('',(0.,0.,1.));
#31 = DIRECTION('',(1.,0.,0.));
#32 = PCURVE('',#33,#38);
#33 = CYLINDRICAL_SURFACE('',#34,8.);
#34 = AXIS2_PLACEMENT_3D('',#35,#36,#37);
#35 = CARTESIAN_POINT('',(0.,60.,159.));
#36 = DIRECTION('',(-0.,-0.,-1.));
#37 = DIRECTION('',(1.,0.,0.));
#38 = DEFINITIONAL_REPRESENTATION('',(#39),#43);
#39 = LINE('',#40,#41);
#40 = CARTESIAN_POINT('',(-0.,0.));
#41 = VECTOR('',#42,1.);
#42 = DIRECTION('',(-1.,0.));
#43 = ( GEOMETRIC_REPRESENTATION_CONTEXT(2) 
PARAMETRIC_REPRESENTATION_CONTEXT() REPRESENTATION_CONTEXT('2D SPACE',''
  ) );
#44 = PCURVE('',#45,#50);
#45 = PLANE('',#46);
#46 = AXIS2_PLACEMENT_3D('',#47,#48,#49);
#47 = CARTESIAN_POINT('',(-6.837200662697E-16,60.,159.));
#48 = DIRECTION('',(0.,0.,1.));
#49 = DIRECTION('',(1.,0.,-0.));
#50 = DEFINITIONAL_REPRESENTATION('',(#51),#55);
#51 = CIRCLE('',#52,8.);
#52 = AXIS2_PLACEMENT_2D('',#53,#54);
#53 = CARTESIAN_POINT('',(6.837200662697E-16,7.105427357601E-15));
#54 = DIRECTION('',(1.,0.));
#55 = ( GEOMETRIC_REPRESENTATION_CONTEXT(2) 
PARAMETRIC_REPRESENTATION_CONTEXT() REPRESENTATION_CONTEXT('2D SPACE',''
  ) );
#56 = ORIENTED_EDGE('',*,*,#57,.T.);
#57 = EDGE_CURVE('',#22,#58,#60,.T.);
#58 = VERTEX_POINT('',#59);
#59 = CARTESIAN_POINT('',(8.,60.,165.64989250302));
#60 = SURFACE_CURVE('',#61,(#65,#72),.PCURVE_S1.);
#61 = LINE('',#62,#63);
#62 = CARTESIAN_POINT('',(8.,60.,159.));
#63 = VECTOR('',#64,1.);
#64 = DIRECTION('',(0.,0.,1.));
#65 = PCURVE('',#33,#66);
#66 = DEFINITIONAL_REPRESENTATION('',(#67),#71);
#67 = LINE('',#68,#69);
#68 = CARTESIAN_POINT('',(-0.,0.));
#69 = VECTOR('',#70,1.);
#70 = DIRECTION('',(-0.,-1.));
#71 = ( GEOMETRIC_REPRESENTATION_CONTEXT(2) 
PARAMETRIC_REPRESENTATION_CONTEXT() REPRESENTATION_CONTEXT('2D SPACE',''
  ) );
#72 = PCURVE('',#73,#78);
#73 = CYLINDRICAL_SURFACE('',#74,8.);
#74 = AXIS2_PLACEMENT_3D('',#75,#76,#77);
#75 = CARTESIAN_POINT('',(0.,60.,159.));
#76 = DIRECTION('',(-0.,-0.,-1.));
#77 = DIRECTION('',(1.,0.,0.));
#78 = DEFINITIONAL_REPRESENTATION('',(#79),#83);
#79 = LINE('',#80,#81);
#80 = CARTESIAN_POINT('',(-6.28318530718,0.));
#81 = VECTOR('',#82,1.);
#82 = DIRECTION('',(-0.,-1.));
#83 = ( GEOMETRIC_REPRESENTATION_CONTEXT(2) 
PARAMETRIC_REPRESENTATION_CONTEXT() REPRESENTATION_CONTEXT('2D SPACE',''
  ) );
#84 = ORIENTED_EDGE('',*,*,#85,.T.);
#85 = EDGE_CURVE('',#58,#86,#88,.T.);
#86 = VERTEX_POINT('',#87);
#87 = CARTESIAN_POINT('',(7.88228173285,61.367345853827,167.02984894019)
  );
#88 = SURFACE_CURVE('',#89,(#96,#106),.PCURVE_S1.);
#89 = B_SPLINE_CURVE_WITH_KNOTS('',5,(#90,#91,#92,#93,#94,#95),
  .UNSPECIFIED.,.F.,.F.,(6,6),(0.,1.),.PIECEWISE_BEZIER_KNOTS.);
#90 = CARTESIAN_POINT('',(8.,60.,165.64989250302));
#91 = CARTESIAN_POINT('',(8.,60.274818165575,165.92588393924));
#92 = CARTESIAN_POINT('',(7.988199214015,60.549636549389,166.20187552518
    ));
#93 = CARTESIAN_POINT('',(7.964597610896,60.823778989843,166.47786670394
    ));
#94 = CARTESIAN_POINT('',(7.929253333962,61.096570619916,166.75385811671
    ));
#95 = CARTESIAN_POINT('',(7.88228173285,61.367345853827,167.02984894019)
  );
#96 = PCURVE('',#33,#97);
#97 = DEFINITIONAL_REPRESENTATION('',(#98),#105);
#98 = B_SPLINE_CURVE_WITH_KNOTS('',5,(#99,#100,#101,#102,#103,#104),
  .UNSPECIFIED.,.F.,.F.,(6,6),(0.,1.),.PIECEWISE_BEZIER_KNOTS.);
#99 = CARTESIAN_POINT('',(0.,-6.649892503027));
#100 = CARTESIAN_POINT('',(-3.435227069693E-02,-6.925883939248));
#101 = CARTESIAN_POINT('',(-6.870456859018E-02,-7.201875525185));
#102 = CARTESIAN_POINT('',(-0.103056829035,-7.477866703948));
#103 = CARTESIAN_POINT('',(-0.137409146793,-7.753858116712));
#104 = CARTESIAN_POINT('',(-0.171761539043,-8.029848940196));
#105 = ( GEOMETRIC_REPRESENTATION_CONTEXT(2) 
PARAMETRIC_REPRESENTATION_CONTEXT() REPRESENTATION_CONTEXT('2D SPACE',''
  ) );
#106 = PCURVE('',#107,#124);
#107 = B_SPLINE_SURFACE_WITH_KNOTS('',1,7,(
    (#108,#109,#110,#111,#112,#113,#114,#115)
    ,(#116,#117,#118,#119,#120,#121,#122,#123
  )),.UNSPECIFIED.,.F.,.F.,.F.,(2,2),(8,8),(0.,26.818650227034),(0.,
    14.108029872948),.PIECEWISE_BEZIER_KNOTS.);
#108 = CARTESIAN_POINT('',(1.135092020377E-13,52.8,153.));
#109 = CARTESIAN_POINT('',(1.792343837036,52.800025712512,155.0000000857
    ));
#110 = CARTESIAN_POINT('',(3.584681999339,53.320504674552,
    156.99999986631));
#111 = CARTESIAN_POINT('',(5.195678928231,54.361595949366,
    159.00000020761));
#112 = CARTESIAN_POINT('',(6.443538848289,55.844483224566,160.9999998185
    ));
#113 = CARTESIAN_POINT('',(7.193809736318,57.609681300369,
    163.00000016091));
#114 = CARTESIAN_POINT('',(7.400415113898,59.464642218087,
    164.99999994082));
#115 = CARTESIAN_POINT('',(7.094046064499,61.230607799892,167.0000000266
    ));
#116 = CARTESIAN_POINT('',(5.324629626102E-13,26.,154.));
#117 = CARTESIAN_POINT('',(8.464124892739,26.000017141675,
    155.99977038727));
#118 = CARTESIAN_POINT('',(16.927177674765,28.458258352611,
    158.00035884555));
#119 = CARTESIAN_POINT('',(24.535656579764,33.374104795959,
    159.99944337948));
#120 = CARTESIAN_POINT('',(30.427777150221,40.376296507913,
    162.00048537997));
#121 = CARTESIAN_POINT('',(33.970741368719,48.713010217446,
    163.9995699149));
#122 = CARTESIAN_POINT('',(34.946387437659,57.471716138692,
    166.00015837253));
#123 = CARTESIAN_POINT('',(33.499680256637,65.811287382587,
    167.99992875988));
#124 = DEFINITIONAL_REPRESENTATION('',(#125),#132);
#125 = B_SPLINE_CURVE_WITH_KNOTS('',5,(#126,#127,#128,#129,#130,#131),
  .UNSPECIFIED.,.F.,.F.,(6,6),(0.,1.),.PIECEWISE_BEZIER_KNOTS.);
#126 = CARTESIAN_POINT('',(0.800558156602,12.717423791987));
#127 = CARTESIAN_POINT('',(0.800558345179,12.99554484808));
#128 = CARTESIAN_POINT('',(0.8005587151,13.273666122223));
#129 = CARTESIAN_POINT('',(0.800559478347,13.551787116398));
#130 = CARTESIAN_POINT('',(0.800561111572,13.829908579));
#131 = CARTESIAN_POINT('',(0.800564626934,14.108029872948));
#132 = ( GEOMETRIC_REPRESENTATION_CONTEXT(2) 
PARAMETRIC_REPRESENTATION_CONTEXT() REPRESENTATION_CONTEXT('2D SPACE',''
  ) );
#133 = ORIENTED_EDGE('',*,*,#134,.F.);
#134 = EDGE_CURVE('',#135,#86,#137,.T.);
#135 = VERTEX_POINT('',#136);
#136 = CARTESIAN_POINT('',(7.882281732854,61.367345853804,
    172.97014744768));
#137 = SURFACE_CURVE('',#138,(#142,#148),.PCURVE_S1.);
#138 = LINE('',#139,#140);
#139 = CARTESIAN_POINT('',(7.882281732845,61.367345853858,159.));
#140 = VECTOR('',#141,1.);
#141 = DIRECTION('',(-0.,-0.,-1.));
#142 = PCURVE('',#33,#143);
#143 = DEFINITIONAL_REPRESENTATION('',(#144),#147);
#144 = B_SPLINE_CURVE_WITH_KNOTS('',1,(#145,#146),.UNSPECIFIED.,.F.,.F.,
  (2,2),(-14.60000002657,-7.400000026605),.PIECEWISE_BEZIER_KNOTS.);
#145 = CARTESIAN_POINT('',(-0.171761539047,-14.60000002657));
#146 = CARTESIAN_POINT('',(-0.171761539047,-7.400000026605));
#147 = ( GEOMETRIC_REPRESENTATION_CONTEXT(2) 
PARAMETRIC_REPRESENTATION_CONTEXT() REPRESENTATION_CONTEXT('2D SPACE',''
  ) );
#148 = PCURVE('',#149,#154);
#149 = PLANE('',#150);
#150 = AXIS2_PLACEMENT_3D('',#151,#152,#153);
#151 = CARTESIAN_POINT('',(19.881930180266,63.448967686591,
    169.99996551312));
#152 = DIRECTION('',(0.170920862993,-0.985284760155,-3.931063986846E-12)
  );
#153 = DIRECTION('',(0.985284760155,0.170920862993,0.));
#154 = DEFINITIONAL_REPRESENTATION('',(#155),#158);
#155 = B_SPLINE_CURVE_WITH_KNOTS('',1,(#156,#157),.UNSPECIFIED.,.F.,.F.,
  (2,2),(-14.60000002657,-7.400000026605),.PIECEWISE_BEZIER_KNOTS.);
#156 = CARTESIAN_POINT('',(-12.17886334253,3.600034513453));
#157 = CARTESIAN_POINT('',(-12.17886334253,-3.599965486521));
#158 = ( GEOMETRIC_REPRESENTATION_CONTEXT(2) 
PARAMETRIC_REPRESENTATION_CONTEXT() REPRESENTATION_CONTEXT('2D SPACE',''
  ) );
#159 = ORIENTED_EDGE('',*,*,#160,.F.);
#160 = EDGE_CURVE('',#161,#135,#163,.T.);
#161 = VERTEX_POINT('',#162);
#162 = CARTESIAN_POINT('',(8.,60.,171.59018979844));
#163 = SURFACE_CURVE('',#164,(#171,#181),.PCURVE_S1.);
#164 = B_SPLINE_CURVE_WITH_KNOTS('',5,(#165,#166,#167,#168,#169,#170),
  .UNSPECIFIED.,.F.,.F.,(6,6),(0.,1.),.PIECEWISE_BEZIER_KNOTS.);
#165 = CARTESIAN_POINT('',(8.,60.,171.59018979844));
#166 = CARTESIAN_POINT('',(8.000000000001,60.274817998677,
    171.86618152626));
#167 = CARTESIAN_POINT('',(7.988199227097,60.549636302215,
    172.14217337703));
#168 = CARTESIAN_POINT('',(7.964597643203,60.823778805714,
    172.41816477855));
#169 = CARTESIAN_POINT('',(7.929253330712,61.096570638645,
    172.69415637079));
#170 = CARTESIAN_POINT('',(7.882281732854,61.367345853804,
    172.97014744768));
#171 = PCURVE('',#33,#172);
#172 = DEFINITIONAL_REPRESENTATION('',(#173),#180);
#173 = B_SPLINE_CURVE_WITH_KNOTS('',5,(#174,#175,#176,#177,#178,#179),
  .UNSPECIFIED.,.F.,.F.,(6,6),(0.,1.),.PIECEWISE_BEZIER_KNOTS.);
#174 = CARTESIAN_POINT('',(0.,-12.59018979844));
#175 = CARTESIAN_POINT('',(-3.435224983463E-02,-12.86618152626));
#176 = CARTESIAN_POINT('',(-6.870453774553E-02,-13.14217337703));
#177 = CARTESIAN_POINT('',(-0.103056805704,-13.41816477855));
#178 = CARTESIAN_POINT('',(-0.137409149169,-13.69415637079));
#179 = CARTESIAN_POINT('',(-0.17176153904,-13.97014744768));
#180 = ( GEOMETRIC_REPRESENTATION_CONTEXT(2) 
PARAMETRIC_REPRESENTATION_CONTEXT() REPRESENTATION_CONTEXT('2D SPACE',''
  ) );
#181 = PCURVE('',#182,#199);
#182 = B_SPLINE_SURFACE_WITH_KNOTS('',1,7,(
    (#183,#184,#185,#186,#187,#188,#189,#190)
    ,(#191,#192,#193,#194,#195,#196,#197,#198
  )),.UNSPECIFIED.,.F.,.F.,.F.,(2,2),(8,8),(0.,26.818650227034),(0.,
    14.108029872948),.PIECEWISE_BEZIER_KNOTS.);
#183 = CARTESIAN_POINT('',(5.36015676289E-13,26.,158.));
#184 = CARTESIAN_POINT('',(8.464126216691,25.999982858326,
    159.99977038727));
#185 = CARTESIAN_POINT('',(16.927190279833,28.458312700668,
    162.0003588452));
#186 = CARTESIAN_POINT('',(24.535665024993,33.374055643186,
    163.99944337969));
#187 = CARTESIAN_POINT('',(30.427736796531,40.376290288503,
    166.00048538038));
#188 = CARTESIAN_POINT('',(33.97080339028,48.713028395017,167.9995699144
    ));
#189 = CARTESIAN_POINT('',(34.946364365392,57.471710792522,
    170.0001583726));
#190 = CARTESIAN_POINT('',(33.499690736939,65.811289200626,
    171.99992875987));
#191 = CARTESIAN_POINT('',(1.143973804574E-13,52.8,159.));
#192 = CARTESIAN_POINT('',(1.792345822964,52.799974287488,161.0000000857
    ));
#193 = CARTESIAN_POINT('',(3.584700906941,53.320586196637,
    162.99999986579));
#194 = CARTESIAN_POINT('',(5.195691596074,54.361522220206,
    165.00000020792));
#195 = CARTESIAN_POINT('',(6.443478317754,55.844473895451,
    166.99999981913));
#196 = CARTESIAN_POINT('',(7.19390276866,57.609708566725,169.00000016016
    ));
#197 = CARTESIAN_POINT('',(7.400380505498,59.464634198832,
    170.99999994094));
#198 = CARTESIAN_POINT('',(7.094061784951,61.230610526951,
    173.00000002658));
#199 = DEFINITIONAL_REPRESENTATION('',(#200),#207);
#200 = B_SPLINE_CURVE_WITH_KNOTS('',5,(#201,#202,#203,#204,#205,#206),
  .UNSPECIFIED.,.F.,.F.,(6,6),(0.,1.),.PIECEWISE_BEZIER_KNOTS.);
#201 = CARTESIAN_POINT('',(26.01809680933,12.717422500255));
#202 = CARTESIAN_POINT('',(26.018096092623,12.9955438842));
#203 = CARTESIAN_POINT('',(26.018095766327,13.273665451468));
#204 = CARTESIAN_POINT('',(26.018096199081,13.551786682411));
#205 = CARTESIAN_POINT('',(26.018097892212,13.829908323657));
#206 = CARTESIAN_POINT('',(26.018101407568,14.108029872948));
#207 = ( GEOMETRIC_REPRESENTATION_CONTEXT(2) 
PARAMETRIC_REPRESENTATION_CONTEXT() REPRESENTATION_CONTEXT('2D SPACE',''
  ) );
#208 = ORIENTED_EDGE('',*,*,#209,.T.);
#209 = EDGE_CURVE('',#161,#210,#212,.T.);
#210 = VERTEX_POINT('',#211);
#211 = CARTESIAN_POINT('',(8.,60.,233.));
#212 = SEAM_CURVE('',#213,(#217,#224),.PCURVE_S1.);
#213 = LINE('',#214,#215);
#214 = CARTESIAN_POINT('',(8.,60.,159.));
#215 = VECTOR('',#216,1.);
#216 = DIRECTION('',(0.,0.,1.));
#217 = PCURVE('',#33,#218);
#218 = DEFINITIONAL_REPRESENTATION('',(#219),#223);
#219 = LINE('',#220,#221);
#220 = CARTESIAN_POINT('',(-0.,0.));
#221 = VECTOR('',#222,1.);
#222 = DIRECTION('',(-0.,-1.));
#223 = ( GEOMETRIC_REPRESENTATION_CONTEXT(2) 
PARAMETRIC_REPRESENTATION_CONTEXT() REPRESENTATION_CONTEXT('2D SPACE',''
  ) );
#224 = PCURVE('',#33,#225);
#225 = DEFINITIONAL_REPRESENTATION('',(#226),#230);
#226 = LINE('',#227,#228);
#227 = CARTESIAN_POINT('',(-6.28318530718,0.));
#228 = VECTOR('',#229,1.);
#229 = DIRECTION('',(-0.,-1.));
#230 = ( GEOMETRIC_REPRESENTATION_CONTEXT(2) 
PARAMETRIC_REPRESENTATION_CONTEXT() REPRESENTATION_CONTEXT('2D SPACE',''
  ) );
#231 = ORIENTED_EDGE('',*,*,#232,.T.);
#232 = EDGE_CURVE('',#210,#210,#233,.T.);
#233 = SURFACE_CURVE('',#234,(#239,#246),.PCURVE_S1.);
#234 = CIRCLE('',#235,8.);
#235 = AXIS2_PLACEMENT_3D('',#236,#237,#238);
#236 = CARTESIAN_POINT('',(0.,60.,233.));
#237 = DIRECTION('',(0.,0.,1.));
#238 = DIRECTION('',(1.,0.,0.));
#239 = PCURVE('',#33,#240);
#240 = DEFINITIONAL_REPRESENTATION('',(#241),#245);
#241 = LINE('',#242,#243);
#242 = CARTESIAN_POINT('',(-0.,-74.));
#243 = VECTOR('',#244,1.);
#244 = DIRECTION('',(-1.,0.));
#245 = ( GEOMETRIC_REPRESENTATION_CONTEXT(2) 
PARAMETRIC_REPRESENTATION_CONTEXT() REPRESENTATION_CONTEXT('2D SPACE',''
  ) );
#246 = PCURVE('',#247,#252);
#247 = PLANE('',#248);
#248 = AXIS2_PLACEMENT_3D('',#249,#250,#251);
#249 = CARTESIAN_POINT('',(-6.837200662697E-16,60.,233.));
#250 = DIRECTION('',(0.,0.,1.));
#251 = DIRECTION('',(1.,0.,-0.));
#252 = DEFINITIONAL_REPRESENTATION('',(#253),#257);
#253 = CIRCLE('',#254,8.);
#254 = AXIS2_PLACEMENT_2D('',#255,#256);
#255 = CARTESIAN_POINT('',(6.837200662697E-16,7.105427357601E-15));
#256 = DIRECTION('',(1.,0.));
#257 = ( GEOMETRIC_REPRESENTATION_CONTEXT(2) 
PARAMETRIC_REPRESENTATION_CONTEXT() REPRESENTATION_CONTEXT('2D SPACE',''
  ) );
#258 = ORIENTED_EDGE('',*,*,#209,.F.);
#259 = ORIENTED_EDGE('',*,*,#260,.F.);
#260 = EDGE_CURVE('',#24,#161,#261,.T.);
#261 = SURFACE_CURVE('',#262,(#295,#331),.PCURVE_S1.);
#262 = B_SPLINE_CURVE_WITH_KNOTS('',7,(#263,#264,#265,#266,#267,#268,
    #269,#270,#271,#272,#273,#274,#275,#276,#277,#278,#279,#280,#281,
    #282,#283,#284,#285,#286,#287,#288,#289,#290,#291,#292,#293,#294),
  .UNSPECIFIED.,.F.,.F.,(8,6,6,6,6,8),(0.,3.988504104554E-02,
    0.152197096116,0.196677128249,0.599210465477,1.),.UNSPECIFIED.);
#263 = CARTESIAN_POINT('',(2.972334726491E-02,52.000055217526,
    158.9999994));
#264 = CARTESIAN_POINT('',(0.101153774745,52.000320613283,
    159.07173489077));
#265 = CARTESIAN_POINT('',(0.172581392947,52.001330100274,
    159.14347040619));
#266 = CARTESIAN_POINT('',(0.243996905363,52.003083642293,
    159.21520594227));
#267 = CARTESIAN_POINT('',(0.315391019363,52.005581058233,
    159.28694149554));
#268 = CARTESIAN_POINT('',(0.386754446199,52.008822022085,
    159.35867706313));
#269 = CARTESIAN_POINT('',(0.458077901005,52.012806062936,
    159.43041264267));
#270 = CARTESIAN_POINT('',(0.730052713016,52.030841894565,
    159.70414806211));
#271 = CARTESIAN_POINT('',(0.930362896664,52.050038399629,
    159.90614807222));
#272 = CARTESIAN_POINT('',(1.130075338839,52.075108326233,
    160.10814804883));
#273 = CARTESIAN_POINT('',(1.328983476059,52.106028804683,
    160.31014799821));
#274 = CARTESIAN_POINT('',(1.526881915499,52.142767907785,
    160.51214800692));
#275 = CARTESIAN_POINT('',(1.723566854234,52.185284709122,
    160.71414810201));
#276 = CARTESIAN_POINT('',(1.996171028998,52.252636130786,160.9961481335
    ));
#277 = CARTESIAN_POINT('',(2.073283592025,52.272641320196,
    161.07614815818));
#278 = CARTESIAN_POINT('',(2.150161656416,52.293541813119,
    161.15614818528));
#279 = CARTESIAN_POINT('',(2.226792752606,52.315334296868,
    161.23614821479));
#280 = CARTESIAN_POINT('',(2.303164472606,52.338015242502,
    161.31614824669));
#281 = CARTESIAN_POINT('',(2.379264470003,52.361580904831,
    161.39614828099));
#282 = CARTESIAN_POINT('',(3.141196498786,52.607261381357,
    162.20012894908));
#283 = CARTESIAN_POINT('',(3.804108908786,52.900645580598,
    162.92416861442));
#284 = CARTESIAN_POINT('',(4.434611707499,53.263234864125,
    163.64816361734));
#285 = CARTESIAN_POINT('',(5.024095190323,53.690621517872,
    164.37213373799));
#286 = CARTESIAN_POINT('',(5.564746759527,54.177142194059,
    165.09612833662));
#287 = CARTESIAN_POINT('',(6.049699288814,54.715982719192,
    165.82016773499));
#288 = CARTESIAN_POINT('',(6.895048969784,55.880108398079,
    167.26499240179));
#289 = CARTESIAN_POINT('',(7.256044363021,56.505102271235,167.9858940076
    ));
#290 = CARTESIAN_POINT('',(7.550654698247,57.16658467537,168.70675157348
    ));
#291 = CARTESIAN_POINT('',(7.774575720922,57.856032373177,
    169.42758506685));
#292 = CARTESIAN_POINT('',(7.924865795755,58.564385961099,170.1484432126
    ));
#293 = CARTESIAN_POINT('',(7.999999999999,59.282221285841,
    170.86934549978));
#294 = CARTESIAN_POINT('',(8.,60.,171.59018979844));
#295 = PCURVE('',#33,#296);
#296 = DEFINITIONAL_REPRESENTATION('',(#297),#330);
#297 = B_SPLINE_CURVE_WITH_KNOTS('',7,(#298,#299,#300,#301,#302,#303,
    #304,#305,#306,#307,#308,#309,#310,#311,#312,#313,#314,#315,#316,
    #317,#318,#319,#320,#321,#322,#323,#324,#325,#326,#327,#328,#329),
  .UNSPECIFIED.,.F.,.F.,(8,6,6,6,6,8),(0.,3.988504104554E-02,
    0.152197096116,0.196677128249,0.599210465477,1.),.UNSPECIFIED.);
#298 = CARTESIAN_POINT('',(-4.716104407341,5.999999999062E-07));
#299 = CARTESIAN_POINT('',(-4.725033272405,-7.173489077695E-02));
#300 = CARTESIAN_POINT('',(-4.733962131699,-0.143470406199));
#301 = CARTESIAN_POINT('',(-4.742890986293,-0.215205942271));
#302 = CARTESIAN_POINT('',(-4.7518198371,-0.286941495547));
#303 = CARTESIAN_POINT('',(-4.760748684885,-0.35867706313));
#304 = CARTESIAN_POINT('',(-4.769677530255,-0.43041264267));
#305 = CARTESIAN_POINT('',(-4.803749051903,-0.704148062116));
#306 = CARTESIAN_POINT('',(-4.828891727354,-0.906148072221));
#307 = CARTESIAN_POINT('',(-4.854034388964,-1.108148048835));
#308 = CARTESIAN_POINT('',(-4.879177043898,-1.310147998215));
#309 = CARTESIAN_POINT('',(-4.904319703462,-1.512148006921));
#310 = CARTESIAN_POINT('',(-4.929462368999,-1.714148102017));
#311 = CARTESIAN_POINT('',(-4.964562504794,-1.9961481335));
#312 = CARTESIAN_POINT('',(-4.97451999112,-2.076148158183));
#313 = CARTESIAN_POINT('',(-4.984477476654,-2.156148185288));
#314 = CARTESIAN_POINT('',(-4.994434961274,-2.236148214797));
#315 = CARTESIAN_POINT('',(-5.004392444865,-2.316148246699));
#316 = CARTESIAN_POINT('',(-5.014349927321,-2.396148280992));
#317 = CARTESIAN_POINT('',(-5.114420161487,-3.200128949086));
#318 = CARTESIAN_POINT('',(-5.204540140062,-3.924168614425));
#319 = CARTESIAN_POINT('',(-5.294654349802,-4.64816361734));
#320 = CARTESIAN_POINT('',(-5.384765396428,-5.372133737999));
#321 = CARTESIAN_POINT('',(-5.474879746022,-6.096128336625));
#322 = CARTESIAN_POINT('',(-5.564999804245,-6.820167734998));
#323 = CARTESIAN_POINT('',(-5.744835001342,-8.264992401798));
#324 = CARTESIAN_POINT('',(-5.83456461508,-8.985894007605));
#325 = CARTESIAN_POINT('',(-5.92428872627,-9.70675157349));
#326 = CARTESIAN_POINT('',(-6.014009630186,-10.42758506685));
#327 = CARTESIAN_POINT('',(-6.103733554519,-11.1484432126));
#328 = CARTESIAN_POINT('',(-6.19346296791,-11.86934549978));
#329 = CARTESIAN_POINT('',(-6.28318530718,-12.59018979844));
#330 = ( GEOMETRIC_REPRESENTATION_CONTEXT(2) 
PARAMETRIC_REPRESENTATION_CONTEXT() REPRESENTATION_CONTEXT('2D SPACE',''
  ) );
#331 = PCURVE('',#182,#332);
#332 = DEFINITIONAL_REPRESENTATION('',(#333),#366);
#333 = B_SPLINE_CURVE_WITH_KNOTS('',7,(#334,#335,#336,#337,#338,#339,
    #340,#341,#342,#343,#344,#345,#346,#347,#348,#349,#350,#351,#352,
    #353,#354,#355,#356,#357,#358,#359,#360,#361,#362,#363,#364,#365),
  .UNSPECIFIED.,.F.,.F.,(8,6,6,6,6,8),(0.,3.988504104554E-02,
    0.152197096116,0.196677128249,0.599210465477,1.),.UNSPECIFIED.);
#334 = CARTESIAN_POINT('',(26.018093875131,3.008056805093E-02));
#335 = CARTESIAN_POINT('',(26.018094747258,0.102369800944));
#336 = CARTESIAN_POINT('',(26.018095504995,0.174659032678));
#337 = CARTESIAN_POINT('',(26.018096161698,0.246948261781));
#338 = CARTESIAN_POINT('',(26.018096729594,0.319237487143));
#339 = CARTESIAN_POINT('',(26.018097219784,0.391526708021));
#340 = CARTESIAN_POINT('',(26.018097642237,0.463815924035));
#341 = CARTESIAN_POINT('',(26.01809902954,0.739663904311));
#342 = CARTESIAN_POINT('',(26.018099585961,0.943222735353));
#343 = CARTESIAN_POINT('',(26.018099871878,1.146781452674));
#344 = CARTESIAN_POINT('',(26.018100015462,1.350340091904));
#345 = CARTESIAN_POINT('',(26.018100091774,1.553898761175));
#346 = CARTESIAN_POINT('',(26.018100138317,1.757457502364));
#347 = CARTESIAN_POINT('',(26.018100183345,2.041633458169));
#348 = CARTESIAN_POINT('',(26.018100193927,2.122250765729));
#349 = CARTESIAN_POINT('',(26.018100203115,2.202868075611));
#350 = CARTESIAN_POINT('',(26.018100211328,2.283485388322));
#351 = CARTESIAN_POINT('',(26.01810021861,2.364102704286));
#352 = CARTESIAN_POINT('',(26.018100224624,2.444720023846));
#353 = CARTESIAN_POINT('',(26.01810026518,3.254904271458));
#354 = CARTESIAN_POINT('',(26.018100141448,3.984530803236));
#355 = CARTESIAN_POINT('',(26.01809945773,4.714112641547));
#356 = CARTESIAN_POINT('',(26.018096221739,5.443669423464));
#357 = CARTESIAN_POINT('',(26.018093841749,6.1732507563));
#358 = CARTESIAN_POINT('',(26.018093401305,6.902877153768));
#359 = CARTESIAN_POINT('',(26.018095586709,8.358850633215));
#360 = CARTESIAN_POINT('',(26.018098198629,9.085314950583));
#361 = CARTESIAN_POINT('',(26.018101900031,9.811734894827));
#362 = CARTESIAN_POINT('',(26.018104765926,10.538130639239));
#363 = CARTESIAN_POINT('',(26.018103036307,11.264551233433));
#364 = CARTESIAN_POINT('',(26.018098681247,11.991015895489));
#365 = CARTESIAN_POINT('',(26.01809680933,12.717422500255));
#366 = ( GEOMETRIC_REPRESENTATION_CONTEXT(2) 
PARAMETRIC_REPRESENTATION_CONTEXT() REPRESENTATION_CONTEXT('2D SPACE',''
  ) );
#367 = ADVANCED_FACE('',(#368,#545),#45,.F.);
#368 = FACE_BOUND('',#369,.F.);
#369 = EDGE_LOOP('',(#370,#394,#395,#424,#509));
#370 = ORIENTED_EDGE('',*,*,#371,.T.);
#371 = EDGE_CURVE('',#372,#22,#374,.T.);
#372 = VERTEX_POINT('',#373);
#373 = CARTESIAN_POINT('',(5.412563537084,54.108976663005,159.));
#374 = SURFACE_CURVE('',#375,(#380,#387),.PCURVE_S1.);
#375 = CIRCLE('',#376,8.);
#376 = AXIS2_PLACEMENT_3D('',#377,#378,#379);
#377 = CARTESIAN_POINT('',(0.,60.,159.));
#378 = DIRECTION('',(0.,0.,1.));
#379 = DIRECTION('',(1.,0.,0.));
#380 = PCURVE('',#45,#381);
#381 = DEFINITIONAL_REPRESENTATION('',(#382),#386);
#382 = CIRCLE('',#383,8.);
#383 = AXIS2_PLACEMENT_2D('',#384,#385);
#384 = CARTESIAN_POINT('',(6.837200662697E-16,7.105427357601E-15));
#385 = DIRECTION('',(1.,0.));
#386 = ( GEOMETRIC_REPRESENTATION_CONTEXT(2) 
PARAMETRIC_REPRESENTATION_CONTEXT() REPRESENTATION_CONTEXT('2D SPACE',''
  ) );
#387 = PCURVE('',#73,#388);
#388 = DEFINITIONAL_REPRESENTATION('',(#389),#393);
#389 = LINE('',#390,#391);
#390 = CARTESIAN_POINT('',(-0.,0.));
#391 = VECTOR('',#392,1.);
#392 = DIRECTION('',(-1.,0.));
#393 = ( GEOMETRIC_REPRESENTATION_CONTEXT(2) 
PARAMETRIC_REPRESENTATION_CONTEXT() REPRESENTATION_CONTEXT('2D SPACE',''
  ) );
#394 = ORIENTED_EDGE('',*,*,#21,.T.);
#395 = ORIENTED_EDGE('',*,*,#396,.F.);
#396 = EDGE_CURVE('',#397,#24,#399,.T.);
#397 = VERTEX_POINT('',#398);
#398 = CARTESIAN_POINT('',(1.143973804574E-13,52.8,159.));
#399 = SURFACE_CURVE('',#400,(#406,#415),.PCURVE_S1.);
#400 = B_SPLINE_CURVE_WITH_KNOTS('',4,(#401,#402,#403,#404,#405),
  .UNSPECIFIED.,.F.,.F.,(5,5),(0.,1.),.PIECEWISE_BEZIER_KNOTS.);
#401 = CARTESIAN_POINT('',(1.119104808822E-13,52.8,159.));
#402 = CARTESIAN_POINT('',(6.688530913294E-03,52.59997975854,159.));
#403 = CARTESIAN_POINT('',(1.38724560361E-02,52.399971931929,159.));
#404 = CARTESIAN_POINT('',(2.15517065533E-02,52.199978151778,159.));
#405 = CARTESIAN_POINT('',(2.972620191351E-02,52.,159.));
#406 = PCURVE('',#45,#407);
#407 = DEFINITIONAL_REPRESENTATION('',(#408),#414);
#408 = B_SPLINE_CURVE_WITH_KNOTS('',4,(#409,#410,#411,#412,#413),
  .UNSPECIFIED.,.F.,.F.,(5,5),(0.,1.),.PIECEWISE_BEZIER_KNOTS.);
#409 = CARTESIAN_POINT('',(1.125942009485E-13,-7.2));
#410 = CARTESIAN_POINT('',(6.688530913295E-03,-7.40002024146));
#411 = CARTESIAN_POINT('',(1.38724560361E-02,-7.600028068071));
#412 = CARTESIAN_POINT('',(2.15517065533E-02,-7.800021848222));
#413 = CARTESIAN_POINT('',(2.972620191351E-02,-8.));
#414 = ( GEOMETRIC_REPRESENTATION_CONTEXT(2) 
PARAMETRIC_REPRESENTATION_CONTEXT() REPRESENTATION_CONTEXT('2D SPACE',''
  ) );
#415 = PCURVE('',#182,#416);
#416 = DEFINITIONAL_REPRESENTATION('',(#417),#423);
#417 = B_SPLINE_CURVE_WITH_KNOTS('',4,(#418,#419,#420,#421,#422),
  .UNSPECIFIED.,.F.,.F.,(5,5),(0.,1.),.PIECEWISE_BEZIER_KNOTS.);
#418 = CARTESIAN_POINT('',(26.818650227034,0.));
#419 = CARTESIAN_POINT('',(26.618490886708,7.521028963454E-03));
#420 = CARTESIAN_POINT('',(26.418335689118,1.504191944212E-02));
#421 = CARTESIAN_POINT('',(26.218184841463,2.25626631257E-02));
#422 = CARTESIAN_POINT('',(26.018038599865,3.008324974634E-02));
#423 = ( GEOMETRIC_REPRESENTATION_CONTEXT(2) 
PARAMETRIC_REPRESENTATION_CONTEXT() REPRESENTATION_CONTEXT('2D SPACE',''
  ) );
#424 = ORIENTED_EDGE('',*,*,#425,.T.);
#425 = EDGE_CURVE('',#397,#426,#428,.T.);
#426 = VERTEX_POINT('',#427);
#427 = CARTESIAN_POINT('',(4.890967102104,54.716218340972,159.));
#428 = SURFACE_CURVE('',#429,(#448,#470),.PCURVE_S1.);
#429 = B_SPLINE_CURVE_WITH_KNOTS('',5,(#430,#431,#432,#433,#434,#435,
    #436,#437,#438,#439,#440,#441,#442,#443,#444,#445,#446,#447),
  .UNSPECIFIED.,.F.,.F.,(6,4,4,4,6),(0.,0.251000086893,0.501000127957,
    0.75100001676,1.),.UNSPECIFIED.);
#430 = CARTESIAN_POINT('',(1.127986523139E-13,52.8,159.));
#431 = CARTESIAN_POINT('',(0.269927298166,52.799996127695,159.));
#432 = CARTESIAN_POINT('',(0.539855067597,52.812644926393,159.));
#433 = CARTESIAN_POINT('',(0.808992067277,52.837943943356,159.));
#434 = CARTESIAN_POINT('',(1.076548879213,52.875818364554,159.));
#435 = CARTESIAN_POINT('',(1.605890719678,52.976222275476,159.));
#436 = CARTESIAN_POINT('',(1.867695048557,53.038653038168,159.));
#437 = CARTESIAN_POINT('',(2.12639290068,53.113266968098,159.));
#438 = CARTESIAN_POINT('',(2.381231608488,53.199847243507,159.));
#439 = CARTESIAN_POINT('',(2.88173515612,53.396369145787,159.));
#440 = CARTESIAN_POINT('',(3.127400540128,53.506310971496,159.));
#441 = CARTESIAN_POINT('',(3.367751874513,53.627648103345,159.));
#442 = CARTESIAN_POINT('',(3.602089992123,53.760027577788,159.));
#443 = CARTESIAN_POINT('',(4.056505311641,54.045467335203,159.));
#444 = CARTESIAN_POINT('',(4.276636288525,54.198443091075,159.));
#445 = CARTESIAN_POINT('',(4.489491818095,54.361549758369,159.));
#446 = CARTESIAN_POINT('',(4.694457700102,54.534316460835,159.));
#447 = CARTESIAN_POINT('',(4.890967102104,54.716218340972,159.));
#448 = PCURVE('',#45,#449);
#449 = DEFINITIONAL_REPRESENTATION('',(#450),#469);
#450 = B_SPLINE_CURVE_WITH_KNOTS('',5,(#451,#452,#453,#454,#455,#456,
    #457,#458,#459,#460,#461,#462,#463,#464,#465,#466,#467,#468),
  .UNSPECIFIED.,.F.,.F.,(6,4,4,4,6),(0.,0.251000086893,0.501000127957,
    0.75100001676,1.),.UNSPECIFIED.);
#451 = CARTESIAN_POINT('',(1.134823723802E-13,-7.2));
#452 = CARTESIAN_POINT('',(0.269927298166,-7.200003872305));
#453 = CARTESIAN_POINT('',(0.539855067597,-7.187355073607));
#454 = CARTESIAN_POINT('',(0.808992067277,-7.162056056644));
#455 = CARTESIAN_POINT('',(1.076548879213,-7.124181635446));
#456 = CARTESIAN_POINT('',(1.605890719678,-7.023777724524));
#457 = CARTESIAN_POINT('',(1.867695048557,-6.961346961832));
#458 = CARTESIAN_POINT('',(2.12639290068,-6.886733031902));
#459 = CARTESIAN_POINT('',(2.381231608488,-6.800152756493));
#460 = CARTESIAN_POINT('',(2.88173515612,-6.603630854213));
#461 = CARTESIAN_POINT('',(3.127400540128,-6.493689028504));
#462 = CARTESIAN_POINT('',(3.367751874513,-6.372351896655));
#463 = CARTESIAN_POINT('',(3.602089992123,-6.239972422212));
#464 = CARTESIAN_POINT('',(4.056505311641,-5.954532664797));
#465 = CARTESIAN_POINT('',(4.276636288525,-5.801556908925));
#466 = CARTESIAN_POINT('',(4.489491818095,-5.638450241631));
#467 = CARTESIAN_POINT('',(4.694457700102,-5.465683539165));
#468 = CARTESIAN_POINT('',(4.890967102104,-5.283781659028));
#469 = ( GEOMETRIC_REPRESENTATION_CONTEXT(2) 
PARAMETRIC_REPRESENTATION_CONTEXT() REPRESENTATION_CONTEXT('2D SPACE',''
  ) );
#470 = PCURVE('',#471,#488);
#471 = B_SPLINE_SURFACE_WITH_KNOTS('',1,7,(
    (#472,#473,#474,#475,#476,#477,#478,#479)
    ,(#480,#481,#482,#483,#484,#485,#486,#487
  )),.UNSPECIFIED.,.F.,.F.,.F.,(2,2),(8,8),(0.,6.),(0.,14.108029872948),
  .PIECEWISE_BEZIER_KNOTS.);
#472 = CARTESIAN_POINT('',(1.143973804574E-13,52.8,159.));
#473 = CARTESIAN_POINT('',(1.792345822964,52.799974287488,161.0000000857
    ));
#474 = CARTESIAN_POINT('',(3.584700906941,53.320586196637,
    162.99999986579));
#475 = CARTESIAN_POINT('',(5.195691596074,54.361522220206,
    165.00000020792));
#476 = CARTESIAN_POINT('',(6.443478317754,55.844473895451,
    166.99999981913));
#477 = CARTESIAN_POINT('',(7.19390276866,57.609708566725,169.00000016016
    ));
#478 = CARTESIAN_POINT('',(7.400380505498,59.464634198832,
    170.99999994094));
#479 = CARTESIAN_POINT('',(7.094061784951,61.230610526951,
    173.00000002658));
#480 = CARTESIAN_POINT('',(1.12621023618E-13,52.8,153.));
#481 = CARTESIAN_POINT('',(1.792343837036,52.800025712512,155.0000000857
    ));
#482 = CARTESIAN_POINT('',(3.584681999339,53.320504674552,
    156.99999986631));
#483 = CARTESIAN_POINT('',(5.195678928231,54.361595949366,
    159.00000020761));
#484 = CARTESIAN_POINT('',(6.443538848289,55.844483224566,160.9999998185
    ));
#485 = CARTESIAN_POINT('',(7.193809736318,57.609681300369,
    163.00000016091));
#486 = CARTESIAN_POINT('',(7.400415113898,59.464642218087,
    164.99999994082));
#487 = CARTESIAN_POINT('',(7.094046064499,61.230607799892,167.0000000266
    ));
#488 = DEFINITIONAL_REPRESENTATION('',(#489),#508);
#489 = B_SPLINE_CURVE_WITH_KNOTS('',5,(#490,#491,#492,#493,#494,#495,
    #496,#497,#498,#499,#500,#501,#502,#503,#504,#505,#506,#507),
  .UNSPECIFIED.,.F.,.F.,(6,4,4,4,6),(0.,0.251000086893,0.501000127957,
    0.75100001676,1.),.UNSPECIFIED.);
#490 = CARTESIAN_POINT('',(0.,0.));
#491 = CARTESIAN_POINT('',(0.301200032131,0.303524204924));
#492 = CARTESIAN_POINT('',(0.60240037111,0.607048726546));
#493 = CARTESIAN_POINT('',(0.903599969946,0.910572505997));
#494 = CARTESIAN_POINT('',(1.204800128157,1.214096851004));
#495 = CARTESIAN_POINT('',(1.805999817635,1.819935651209));
#496 = CARTESIAN_POINT('',(2.10599997895,2.122250741312));
#497 = CARTESIAN_POINT('',(2.405999609738,2.424565296643));
#498 = CARTESIAN_POINT('',(2.705999936196,2.726880552672));
#499 = CARTESIAN_POINT('',(3.305999880953,3.331510350377));
#500 = CARTESIAN_POINT('',(3.606000145841,3.633825543633));
#501 = CARTESIAN_POINT('',(3.905999823599,3.93614014486));
#502 = CARTESIAN_POINT('',(4.206000095092,4.238455344209));
#503 = CARTESIAN_POINT('',(4.804800017952,4.841875858106));
#504 = CARTESIAN_POINT('',(5.103600312485,5.142981820784));
#505 = CARTESIAN_POINT('',(5.402399946869,5.444087118241));
#506 = CARTESIAN_POINT('',(5.701200135819,5.745192974617));
#507 = CARTESIAN_POINT('',(6.,6.046298503782));
#508 = ( GEOMETRIC_REPRESENTATION_CONTEXT(2) 
PARAMETRIC_REPRESENTATION_CONTEXT() REPRESENTATION_CONTEXT('2D SPACE',''
  ) );
#509 = ORIENTED_EDGE('',*,*,#510,.F.);
#510 = EDGE_CURVE('',#372,#426,#511,.T.);
#511 = SURFACE_CURVE('',#512,(#521,#533),.PCURVE_S1.);
#512 = B_SPLINE_CURVE_WITH_KNOTS('',4,(#513,#514,#515,#516,#517,#518,
    #519,#520),.UNSPECIFIED.,.F.,.F.,(5,3,5),(0.,5.350443003971E-02,1.),
  .UNSPECIFIED.);
#513 = CARTESIAN_POINT('',(7.164724697477,52.,159.));
#514 = CARTESIAN_POINT('',(7.13490452355,52.036835244129,159.));
#515 = CARTESIAN_POINT('',(7.105062881534,52.073652907997,159.));
#516 = CARTESIAN_POINT('',(7.075200089257,52.110452598206,159.));
#517 = CARTESIAN_POINT('',(6.516663518353,52.797909893392,159.));
#518 = CARTESIAN_POINT('',(5.981338533366,53.443027024963,159.));
#519 = CARTESIAN_POINT('',(5.439414205453,54.082493237471,159.));
#520 = CARTESIAN_POINT('',(4.890967102104,54.716218340972,159.));
#521 = PCURVE('',#45,#522);
#522 = DEFINITIONAL_REPRESENTATION('',(#523),#532);
#523 = B_SPLINE_CURVE_WITH_KNOTS('',4,(#524,#525,#526,#527,#528,#529,
    #530,#531),.UNSPECIFIED.,.F.,.F.,(5,3,5),(0.,5.350443003971E-02,1.),
  .UNSPECIFIED.);
#524 = CARTESIAN_POINT('',(7.164724697477,-8.));
#525 = CARTESIAN_POINT('',(7.13490452355,-7.963164755871));
#526 = CARTESIAN_POINT('',(7.105062881534,-7.926347092003));
#527 = CARTESIAN_POINT('',(7.075200089257,-7.889547401794));
#528 = CARTESIAN_POINT('',(6.516663518353,-7.202090106608));
#529 = CARTESIAN_POINT('',(5.981338533366,-6.556972975037));
#530 = CARTESIAN_POINT('',(5.439414205453,-5.917506762529));
#531 = CARTESIAN_POINT('',(4.890967102104,-5.283781659028));
#532 = ( GEOMETRIC_REPRESENTATION_CONTEXT(2) 
PARAMETRIC_REPRESENTATION_CONTEXT() REPRESENTATION_CONTEXT('2D SPACE',''
  ) );
#533 = PCURVE('',#107,#534);
#534 = DEFINITIONAL_REPRESENTATION('',(#535),#544);
#535 = B_SPLINE_CURVE_WITH_KNOTS('',4,(#536,#537,#538,#539,#540,#541,
    #542,#543),.UNSPECIFIED.,.F.,.F.,(5,3,5),(0.,5.350443003971E-02,1.),
  .UNSPECIFIED.);
#536 = CARTESIAN_POINT('',(3.541800810764,5.913219249986));
#537 = CARTESIAN_POINT('',(3.494433921443,5.91499900884));
#538 = CARTESIAN_POINT('',(3.44706687627,5.916778773537));
#539 = CARTESIAN_POINT('',(3.399699194343,5.918558562149));
#540 = CARTESIAN_POINT('',(2.514390893766,5.951823048753));
#541 = CARTESIAN_POINT('',(1.676344357887,5.983311722904));
#542 = CARTESIAN_POINT('',(0.838208445204,6.014803752091));
#543 = CARTESIAN_POINT('',(0.,6.046298503782));
#544 = ( GEOMETRIC_REPRESENTATION_CONTEXT(2) 
PARAMETRIC_REPRESENTATION_CONTEXT() REPRESENTATION_CONTEXT('2D SPACE',''
  ) );
#545 = FACE_BOUND('',#546,.F.);
#546 = EDGE_LOOP('',(#547));
#547 = ORIENTED_EDGE('',*,*,#548,.T.);
#548 = EDGE_CURVE('',#549,#549,#551,.T.);
#549 = VERTEX_POINT('',#550);
#550 = CARTESIAN_POINT('',(7.,60.,159.));
#551 = SURFACE_CURVE('',#552,(#557,#568),.PCURVE_S1.);
#552 = CIRCLE('',#553,7.);
#553 = AXIS2_PLACEMENT_3D('',#554,#555,#556);
#554 = CARTESIAN_POINT('',(0.,60.,159.));
#555 = DIRECTION('',(0.,0.,-1.));
#556 = DIRECTION('',(1.,0.,0.));
#557 = PCURVE('',#45,#558);
#558 = DEFINITIONAL_REPRESENTATION('',(#559),#567);
#559 = ( BOUNDED_CURVE() B_SPLINE_CURVE(2,(#560,#561,#562,#563,#564,#565
,#566),.UNSPECIFIED.,.T.,.F.) B_SPLINE_CURVE_WITH_KNOTS((1,2,2,2,2,1),(
    -2.094395102393,0.,2.094395102393,4.188790204786,6.28318530718,
8.377580409573),.UNSPECIFIED.) CURVE() GEOMETRIC_REPRESENTATION_ITEM() 
RATIONAL_B_SPLINE_CURVE((1.,0.5,1.,0.5,1.,0.5,1.)) REPRESENTATION_ITEM(
  '') );
#560 = CARTESIAN_POINT('',(7.,7.105427357601E-15));
#561 = CARTESIAN_POINT('',(7.,-12.12435565298));
#562 = CARTESIAN_POINT('',(-3.5,-6.062177826491));
#563 = CARTESIAN_POINT('',(-14.,5.390921838795E-15));
#564 = CARTESIAN_POINT('',(-3.5,6.062177826491));
#565 = CARTESIAN_POINT('',(7.,12.124355652982));
#566 = CARTESIAN_POINT('',(7.,7.105427357601E-15));
#567 = ( GEOMETRIC_REPRESENTATION_CONTEXT(2) 
PARAMETRIC_REPRESENTATION_CONTEXT() REPRESENTATION_CONTEXT('2D SPACE',''
  ) );
#568 = PCURVE('',#569,#574);
#569 = CYLINDRICAL_SURFACE('',#570,7.);
#570 = AXIS2_PLACEMENT_3D('',#571,#572,#573);
#571 = CARTESIAN_POINT('',(0.,60.,156.));
#572 = DIRECTION('',(-0.,-0.,-1.));
#573 = DIRECTION('',(1.,0.,0.));
#574 = DEFINITIONAL_REPRESENTATION('',(#575),#579);
#575 = LINE('',#576,#577);
#576 = CARTESIAN_POINT('',(-6.28318530718,-3.));
#577 = VECTOR('',#578,1.);
#578 = DIRECTION('',(1.,-0.));
#579 = ( GEOMETRIC_REPRESENTATION_CONTEXT(2) 
PARAMETRIC_REPRESENTATION_CONTEXT() REPRESENTATION_CONTEXT('2D SPACE',''
  ) );
#580 = ADVANCED_FACE('',(#581),#73,.T.);
#581 = FACE_BOUND('',#582,.F.);
#582 = EDGE_LOOP('',(#583,#584,#626));
#583 = ORIENTED_EDGE('',*,*,#371,.F.);
#584 = ORIENTED_EDGE('',*,*,#585,.T.);
#585 = EDGE_CURVE('',#372,#58,#586,.T.);
#586 = SURFACE_CURVE('',#587,(#598,#612),.PCURVE_S1.);
#587 = B_SPLINE_CURVE_WITH_KNOTS('',5,(#588,#589,#590,#591,#592,#593,
    #594,#595,#596,#597),.UNSPECIFIED.,.F.,.F.,(6,4,6),(0.,
    0.499527949101,1.),.UNSPECIFIED.);
#588 = CARTESIAN_POINT('',(5.412563097136,54.108976258788,158.9999994));
#589 = CARTESIAN_POINT('',(5.899701687388,54.556550139427,
    159.66435733177));
#590 = CARTESIAN_POINT('',(6.340587428963,55.05448728748,160.32873008016
    ));
#591 = CARTESIAN_POINT('',(6.728246771542,55.596383667916,
    160.99307495166));
#592 = CARTESIAN_POINT('',(7.057112127882,56.174455283907,
    161.65744826241));
#593 = CARTESIAN_POINT('',(7.590142326507,57.386760784978,
    162.98742087064));
#594 = CARTESIAN_POINT('',(7.794082234248,58.021125868563,
    163.65305001288));
#595 = CARTESIAN_POINT('',(7.931361516226,58.674417386785,164.3186504));
#596 = CARTESIAN_POINT('',(8.,59.337216097351,164.9842790025));
#597 = CARTESIAN_POINT('',(8.,60.,165.64989250302));
#598 = PCURVE('',#73,#599);
#599 = DEFINITIONAL_REPRESENTATION('',(#600),#611);
#600 = B_SPLINE_CURVE_WITH_KNOTS('',5,(#601,#602,#603,#604,#605,#606,
    #607,#608,#609,#610),.UNSPECIFIED.,.F.,.F.,(6,4,6),(0.,
    0.499527949101,1.),.UNSPECIFIED.);
#601 = CARTESIAN_POINT('',(-5.455484182022,5.999999999062E-07));
#602 = CARTESIAN_POINT('',(-5.538175851866,-0.664357331779));
#603 = CARTESIAN_POINT('',(-5.62086935904,-1.328730080166));
#604 = CARTESIAN_POINT('',(-5.703559266244,-1.993074951668));
#605 = CARTESIAN_POINT('',(-5.786252551339,-2.657448262411));
#606 = CARTESIAN_POINT('',(-5.951791718748,-3.987420870649));
#607 = CARTESIAN_POINT('',(-6.034641296621,-4.653050012883));
#608 = CARTESIAN_POINT('',(-6.117487482969,-5.3186504));
#609 = CARTESIAN_POINT('',(-6.200337319348,-5.984279002501));
#610 = CARTESIAN_POINT('',(-6.28318530718,-6.649892503027));
#611 = ( GEOMETRIC_REPRESENTATION_CONTEXT(2) 
PARAMETRIC_REPRESENTATION_CONTEXT() REPRESENTATION_CONTEXT('2D SPACE',''
  ) );
#612 = PCURVE('',#107,#613);
#613 = DEFINITIONAL_REPRESENTATION('',(#614),#625);
#614 = B_SPLINE_CURVE_WITH_KNOTS('',5,(#615,#616,#617,#618,#619,#620,
    #621,#622,#623,#624),.UNSPECIFIED.,.F.,.F.,(6,4,6),(0.,
    0.499527949101,1.),.UNSPECIFIED.);
#615 = CARTESIAN_POINT('',(0.800562698745,6.0162176436));
#616 = CARTESIAN_POINT('',(0.800564394663,6.685701998301));
#617 = CARTESIAN_POINT('',(0.800565034756,7.355201297144));
#618 = CARTESIAN_POINT('',(0.800563375237,8.024672576047));
#619 = CARTESIAN_POINT('',(0.800561378152,8.694172606948));
#620 = CARTESIAN_POINT('',(0.800558442175,10.034408030072));
#621 = CARTESIAN_POINT('',(0.800557359892,10.705173492668));
#622 = CARTESIAN_POINT('',(0.800558177583,11.375909869395));
#623 = CARTESIAN_POINT('',(0.800557701808,12.046674248992));
#624 = CARTESIAN_POINT('',(0.800558156602,12.717423791987));
#625 = ( GEOMETRIC_REPRESENTATION_CONTEXT(2) 
PARAMETRIC_REPRESENTATION_CONTEXT() REPRESENTATION_CONTEXT('2D SPACE',''
  ) );
#626 = ORIENTED_EDGE('',*,*,#57,.F.);
#627 = ADVANCED_FACE('',(#628),#107,.F.);
#628 = FACE_BOUND('',#629,.F.);
#629 = EDGE_LOOP('',(#630,#658,#684,#729,#748,#749,#750));
#630 = ORIENTED_EDGE('',*,*,#631,.F.);
#631 = EDGE_CURVE('',#632,#426,#634,.T.);
#632 = VERTEX_POINT('',#633);
#633 = CARTESIAN_POINT('',(1.12621023618E-13,52.8,153.));
#634 = SURFACE_CURVE('',#635,(#644,#651),.PCURVE_S1.);
#635 = B_SPLINE_CURVE_WITH_KNOTS('',7,(#636,#637,#638,#639,#640,#641,
    #642,#643),.UNSPECIFIED.,.F.,.F.,(8,8),(0.,14.108029872948),
  .PIECEWISE_BEZIER_KNOTS.);
#636 = CARTESIAN_POINT('',(1.135092020377E-13,52.8,153.));
#637 = CARTESIAN_POINT('',(1.792343837036,52.800025712512,155.0000000857
    ));
#638 = CARTESIAN_POINT('',(3.584681999339,53.320504674552,
    156.99999986631));
#639 = CARTESIAN_POINT('',(5.195678928231,54.361595949366,
    159.00000020761));
#640 = CARTESIAN_POINT('',(6.443538848289,55.844483224566,160.9999998185
    ));
#641 = CARTESIAN_POINT('',(7.193809736318,57.609681300369,
    163.00000016091));
#642 = CARTESIAN_POINT('',(7.400415113898,59.464642218087,
    164.99999994082));
#643 = CARTESIAN_POINT('',(7.094046064499,61.230607799892,167.0000000266
    ));
#644 = PCURVE('',#107,#645);
#645 = DEFINITIONAL_REPRESENTATION('',(#646),#650);
#646 = LINE('',#647,#648);
#647 = CARTESIAN_POINT('',(0.,0.));
#648 = VECTOR('',#649,1.);
#649 = DIRECTION('',(0.,1.));
#650 = ( GEOMETRIC_REPRESENTATION_CONTEXT(2) 
PARAMETRIC_REPRESENTATION_CONTEXT() REPRESENTATION_CONTEXT('2D SPACE',''
  ) );
#651 = PCURVE('',#471,#652);
#652 = DEFINITIONAL_REPRESENTATION('',(#653),#657);
#653 = LINE('',#654,#655);
#654 = CARTESIAN_POINT('',(6.,0.));
#655 = VECTOR('',#656,1.);
#656 = DIRECTION('',(0.,1.));
#657 = ( GEOMETRIC_REPRESENTATION_CONTEXT(2) 
PARAMETRIC_REPRESENTATION_CONTEXT() REPRESENTATION_CONTEXT('2D SPACE',''
  ) );
#658 = ORIENTED_EDGE('',*,*,#659,.T.);
#659 = EDGE_CURVE('',#632,#660,#662,.T.);
#660 = VERTEX_POINT('',#661);
#661 = CARTESIAN_POINT('',(5.36015676289E-13,26.,154.));
#662 = SURFACE_CURVE('',#663,(#666,#673),.PCURVE_S1.);
#663 = B_SPLINE_CURVE_WITH_KNOTS('',1,(#664,#665),.UNSPECIFIED.,.F.,.F.,
  (2,2),(0.,26.818650227034),.PIECEWISE_BEZIER_KNOTS.);
#664 = CARTESIAN_POINT('',(1.135092020377E-13,52.8,153.));
#665 = CARTESIAN_POINT('',(5.324629626102E-13,26.,154.));
#666 = PCURVE('',#107,#667);
#667 = DEFINITIONAL_REPRESENTATION('',(#668),#672);
#668 = LINE('',#669,#670);
#669 = CARTESIAN_POINT('',(0.,0.));
#670 = VECTOR('',#671,1.);
#671 = DIRECTION('',(1.,0.));
#672 = ( GEOMETRIC_REPRESENTATION_CONTEXT(2) 
PARAMETRIC_REPRESENTATION_CONTEXT() REPRESENTATION_CONTEXT('2D SPACE',''
  ) );
#673 = PCURVE('',#674,#679);
#674 = PLANE('',#675);
#675 = AXIS2_PLACEMENT_3D('',#676,#677,#678);
#676 = CARTESIAN_POINT('',(3.177850024095E-13,39.821136657413,156.));
#677 = DIRECTION('',(-1.,-1.576516694968E-14,4.190151400618E-16));
#678 = DIRECTION('',(-4.190151400618E-16,-6.605843637517E-30,-1.));
#679 = DEFINITIONAL_REPRESENTATION('',(#680),#683);
#680 = B_SPLINE_CURVE_WITH_KNOTS('',1,(#681,#682),.UNSPECIFIED.,.F.,.F.,
  (2,2),(0.,26.818650227034),.PIECEWISE_BEZIER_KNOTS.);
#681 = CARTESIAN_POINT('',(3.,-12.97886334258));
#682 = CARTESIAN_POINT('',(2.,13.821136657413));
#683 = ( GEOMETRIC_REPRESENTATION_CONTEXT(2) 
PARAMETRIC_REPRESENTATION_CONTEXT() REPRESENTATION_CONTEXT('2D SPACE',''
  ) );
#684 = ORIENTED_EDGE('',*,*,#685,.T.);
#685 = EDGE_CURVE('',#660,#686,#688,.T.);
#686 = VERTEX_POINT('',#687);
#687 = CARTESIAN_POINT('',(33.499680256637,65.811287382587,
    167.99992875988));
#688 = SURFACE_CURVE('',#689,(#698,#705),.PCURVE_S1.);
#689 = B_SPLINE_CURVE_WITH_KNOTS('',7,(#690,#691,#692,#693,#694,#695,
    #696,#697),.UNSPECIFIED.,.F.,.F.,(8,8),(0.,14.108029872948),
  .PIECEWISE_BEZIER_KNOTS.);
#690 = CARTESIAN_POINT('',(5.324629626102E-13,26.,154.));
#691 = CARTESIAN_POINT('',(8.464124892739,26.000017141675,
    155.99977038727));
#692 = CARTESIAN_POINT('',(16.927177674765,28.458258352611,
    158.00035884555));
#693 = CARTESIAN_POINT('',(24.535656579764,33.374104795959,
    159.99944337948));
#694 = CARTESIAN_POINT('',(30.427777150221,40.376296507913,
    162.00048537997));
#695 = CARTESIAN_POINT('',(33.970741368719,48.713010217446,
    163.9995699149));
#696 = CARTESIAN_POINT('',(34.946387437659,57.471716138692,
    166.00015837253));
#697 = CARTESIAN_POINT('',(33.499680256637,65.811287382587,
    167.99992875988));
#698 = PCURVE('',#107,#699);
#699 = DEFINITIONAL_REPRESENTATION('',(#700),#704);
#700 = LINE('',#701,#702);
#701 = CARTESIAN_POINT('',(26.818650227034,0.));
#702 = VECTOR('',#703,1.);
#703 = DIRECTION('',(0.,1.));
#704 = ( GEOMETRIC_REPRESENTATION_CONTEXT(2) 
PARAMETRIC_REPRESENTATION_CONTEXT() REPRESENTATION_CONTEXT('2D SPACE',''
  ) );
#705 = PCURVE('',#706,#723);
#706 = B_SPLINE_SURFACE_WITH_KNOTS('',1,7,(
    (#707,#708,#709,#710,#711,#712,#713,#714)
    ,(#715,#716,#717,#718,#719,#720,#721,#722
  )),.UNSPECIFIED.,.F.,.F.,.F.,(2,2),(8,8),(0.,4.),(0.,14.108029872948),
  .PIECEWISE_BEZIER_KNOTS.);
#707 = CARTESIAN_POINT('',(5.36015676289E-13,26.,154.));
#708 = CARTESIAN_POINT('',(8.464124892739,26.000017141675,
    155.99977038727));
#709 = CARTESIAN_POINT('',(16.927177674766,28.458258352612,
    158.00035884555));
#710 = CARTESIAN_POINT('',(24.535656579764,33.374104795959,
    159.99944337948));
#711 = CARTESIAN_POINT('',(30.427777150221,40.376296507913,
    162.00048537997));
#712 = CARTESIAN_POINT('',(33.970741368719,48.713010217446,
    163.9995699149));
#713 = CARTESIAN_POINT('',(34.946387437659,57.471716138692,
    166.00015837253));
#714 = CARTESIAN_POINT('',(33.499680256637,65.811287382587,
    167.99992875988));
#715 = CARTESIAN_POINT('',(5.431211036466E-13,26.,158.));
#716 = CARTESIAN_POINT('',(8.464126216691,25.999982858326,
    159.99977038727));
#717 = CARTESIAN_POINT('',(16.927190279834,28.458312700668,
    162.0003588452));
#718 = CARTESIAN_POINT('',(24.535665024993,33.374055643185,
    163.99944337969));
#719 = CARTESIAN_POINT('',(30.427736796531,40.376290288503,
    166.00048538038));
#720 = CARTESIAN_POINT('',(33.97080339028,48.713028395017,167.9995699144
    ));
#721 = CARTESIAN_POINT('',(34.946364365392,57.471710792522,
    170.0001583726));
#722 = CARTESIAN_POINT('',(33.499690736939,65.811289200626,
    171.99992875987));
#723 = DEFINITIONAL_REPRESENTATION('',(#724),#728);
#724 = LINE('',#725,#726);
#725 = CARTESIAN_POINT('',(0.,0.));
#726 = VECTOR('',#727,1.);
#727 = DIRECTION('',(0.,1.));
#728 = ( GEOMETRIC_REPRESENTATION_CONTEXT(2) 
PARAMETRIC_REPRESENTATION_CONTEXT() REPRESENTATION_CONTEXT('2D SPACE',''
  ) );
#729 = ORIENTED_EDGE('',*,*,#730,.F.);
#730 = EDGE_CURVE('',#86,#686,#731,.T.);
#731 = SURFACE_CURVE('',#732,(#735,#742),.PCURVE_S1.);
#732 = B_SPLINE_CURVE_WITH_KNOTS('',1,(#733,#734),.UNSPECIFIED.,.F.,.F.,
  (2,2),(0.,26.818650227034),.PIECEWISE_BEZIER_KNOTS.);
#733 = CARTESIAN_POINT('',(7.094046064499,61.230607799892,167.0000000266
    ));
#734 = CARTESIAN_POINT('',(33.499680256637,65.811287382587,
    167.99992875988));
#735 = PCURVE('',#107,#736);
#736 = DEFINITIONAL_REPRESENTATION('',(#737),#741);
#737 = LINE('',#738,#739);
#738 = CARTESIAN_POINT('',(0.,14.108029872948));
#739 = VECTOR('',#740,1.);
#740 = DIRECTION('',(1.,0.));
#741 = ( GEOMETRIC_REPRESENTATION_CONTEXT(2) 
PARAMETRIC_REPRESENTATION_CONTEXT() REPRESENTATION_CONTEXT('2D SPACE',''
  ) );
#742 = PCURVE('',#149,#743);
#743 = DEFINITIONAL_REPRESENTATION('',(#744),#747);
#744 = B_SPLINE_CURVE_WITH_KNOTS('',1,(#745,#746),.UNSPECIFIED.,.F.,.F.,
  (2,2),(0.,26.818650227034),.PIECEWISE_BEZIER_KNOTS.);
#745 = CARTESIAN_POINT('',(-12.97887132015,-2.999965486523));
#746 = CARTESIAN_POINT('',(13.821131338953,-2.000036753237));
#747 = ( GEOMETRIC_REPRESENTATION_CONTEXT(2) 
PARAMETRIC_REPRESENTATION_CONTEXT() REPRESENTATION_CONTEXT('2D SPACE',''
  ) );
#748 = ORIENTED_EDGE('',*,*,#85,.F.);
#749 = ORIENTED_EDGE('',*,*,#585,.F.);
#750 = ORIENTED_EDGE('',*,*,#510,.T.);
#751 = ADVANCED_FACE('',(#752),#149,.F.);
#752 = FACE_BOUND('',#753,.F.);
#753 = EDGE_LOOP('',(#754,#755,#756,#777));
#754 = ORIENTED_EDGE('',*,*,#134,.T.);
#755 = ORIENTED_EDGE('',*,*,#730,.T.);
#756 = ORIENTED_EDGE('',*,*,#757,.T.);
#757 = EDGE_CURVE('',#686,#758,#760,.T.);
#758 = VERTEX_POINT('',#759);
#759 = CARTESIAN_POINT('',(33.499690736939,65.811289200626,
    171.99992875987));
#760 = SURFACE_CURVE('',#761,(#764,#770),.PCURVE_S1.);
#761 = B_SPLINE_CURVE_WITH_KNOTS('',1,(#762,#763),.UNSPECIFIED.,.F.,.F.,
  (2,2),(0.,4.),.PIECEWISE_BEZIER_KNOTS.);
#762 = CARTESIAN_POINT('',(33.499680256637,65.811287382587,
    167.99992875988));
#763 = CARTESIAN_POINT('',(33.499690736939,65.811289200626,
    171.99992875987));
#764 = PCURVE('',#149,#765);
#765 = DEFINITIONAL_REPRESENTATION('',(#766),#769);
#766 = B_SPLINE_CURVE_WITH_KNOTS('',1,(#767,#768),.UNSPECIFIED.,.F.,.F.,
  (2,2),(0.,4.),.PIECEWISE_BEZIER_KNOTS.);
#767 = CARTESIAN_POINT('',(13.821131338953,-2.000036753237));
#768 = CARTESIAN_POINT('',(13.821141975775,1.999963246749));
#769 = ( GEOMETRIC_REPRESENTATION_CONTEXT(2) 
PARAMETRIC_REPRESENTATION_CONTEXT() REPRESENTATION_CONTEXT('2D SPACE',''
  ) );
#770 = PCURVE('',#706,#771);
#771 = DEFINITIONAL_REPRESENTATION('',(#772),#776);
#772 = LINE('',#773,#774);
#773 = CARTESIAN_POINT('',(0.,14.108029872948));
#774 = VECTOR('',#775,1.);
#775 = DIRECTION('',(1.,0.));
#776 = ( GEOMETRIC_REPRESENTATION_CONTEXT(2) 
PARAMETRIC_REPRESENTATION_CONTEXT() REPRESENTATION_CONTEXT('2D SPACE',''
  ) );
#777 = ORIENTED_EDGE('',*,*,#778,.T.);
#778 = EDGE_CURVE('',#758,#135,#779,.T.);
#779 = SURFACE_CURVE('',#780,(#783,#789),.PCURVE_S1.);
#780 = B_SPLINE_CURVE_WITH_KNOTS('',1,(#781,#782),.UNSPECIFIED.,.F.,.F.,
  (2,2),(0.,26.818650227034),.PIECEWISE_BEZIER_KNOTS.);
#781 = CARTESIAN_POINT('',(33.499690736939,65.811289200626,
    171.99992875987));
#782 = CARTESIAN_POINT('',(7.094061784951,61.230610526951,
    173.00000002658));
#783 = PCURVE('',#149,#784);
#784 = DEFINITIONAL_REPRESENTATION('',(#785),#788);
#785 = B_SPLINE_CURVE_WITH_KNOTS('',1,(#786,#787),.UNSPECIFIED.,.F.,.F.,
  (2,2),(0.,26.818650227034),.PIECEWISE_BEZIER_KNOTS.);
#786 = CARTESIAN_POINT('',(13.821141975775,1.999963246749));
#787 = CARTESIAN_POINT('',(-12.97885536492,3.000034513455));
#788 = ( GEOMETRIC_REPRESENTATION_CONTEXT(2) 
PARAMETRIC_REPRESENTATION_CONTEXT() REPRESENTATION_CONTEXT('2D SPACE',''
  ) );
#789 = PCURVE('',#182,#790);
#790 = DEFINITIONAL_REPRESENTATION('',(#791),#795);
#791 = LINE('',#792,#793);
#792 = CARTESIAN_POINT('',(0.,14.108029872948));
#793 = VECTOR('',#794,1.);
#794 = DIRECTION('',(1.,0.));
#795 = ( GEOMETRIC_REPRESENTATION_CONTEXT(2) 
PARAMETRIC_REPRESENTATION_CONTEXT() REPRESENTATION_CONTEXT('2D SPACE',''
  ) );
#796 = ADVANCED_FACE('',(#797),#182,.F.);
#797 = FACE_BOUND('',#798,.F.);
#798 = EDGE_LOOP('',(#799,#827,#846,#847,#848,#849));
#799 = ORIENTED_EDGE('',*,*,#800,.F.);
#800 = EDGE_CURVE('',#801,#758,#803,.T.);
#801 = VERTEX_POINT('',#802);
#802 = CARTESIAN_POINT('',(5.36015676289E-13,26.,158.));
#803 = SURFACE_CURVE('',#804,(#813,#820),.PCURVE_S1.);
#804 = B_SPLINE_CURVE_WITH_KNOTS('',7,(#805,#806,#807,#808,#809,#810,
    #811,#812),.UNSPECIFIED.,.F.,.F.,(8,8),(0.,14.108029872948),
  .PIECEWISE_BEZIER_KNOTS.);
#805 = CARTESIAN_POINT('',(5.431211036466E-13,26.,158.));
#806 = CARTESIAN_POINT('',(8.464126216691,25.999982858326,
    159.99977038727));
#807 = CARTESIAN_POINT('',(16.927190279834,28.458312700668,
    162.0003588452));
#808 = CARTESIAN_POINT('',(24.535665024993,33.374055643185,
    163.99944337969));
#809 = CARTESIAN_POINT('',(30.427736796531,40.376290288503,
    166.00048538038));
#810 = CARTESIAN_POINT('',(33.97080339028,48.713028395017,167.9995699144
    ));
#811 = CARTESIAN_POINT('',(34.946364365392,57.471710792522,
    170.0001583726));
#812 = CARTESIAN_POINT('',(33.499690736939,65.811289200626,
    171.99992875987));
#813 = PCURVE('',#182,#814);
#814 = DEFINITIONAL_REPRESENTATION('',(#815),#819);
#815 = LINE('',#816,#817);
#816 = CARTESIAN_POINT('',(0.,0.));
#817 = VECTOR('',#818,1.);
#818 = DIRECTION('',(0.,1.));
#819 = ( GEOMETRIC_REPRESENTATION_CONTEXT(2) 
PARAMETRIC_REPRESENTATION_CONTEXT() REPRESENTATION_CONTEXT('2D SPACE',''
  ) );
#820 = PCURVE('',#706,#821);
#821 = DEFINITIONAL_REPRESENTATION('',(#822),#826);
#822 = LINE('',#823,#824);
#823 = CARTESIAN_POINT('',(4.,0.));
#824 = VECTOR('',#825,1.);
#825 = DIRECTION('',(0.,1.));
#826 = ( GEOMETRIC_REPRESENTATION_CONTEXT(2) 
PARAMETRIC_REPRESENTATION_CONTEXT() REPRESENTATION_CONTEXT('2D SPACE',''
  ) );
#827 = ORIENTED_EDGE('',*,*,#828,.T.);
#828 = EDGE_CURVE('',#801,#397,#829,.T.);
#829 = SURFACE_CURVE('',#830,(#833,#840),.PCURVE_S1.);
#830 = B_SPLINE_CURVE_WITH_KNOTS('',1,(#831,#832),.UNSPECIFIED.,.F.,.F.,
  (2,2),(0.,26.818650227034),.PIECEWISE_BEZIER_KNOTS.);
#831 = CARTESIAN_POINT('',(5.36015676289E-13,26.,158.));
#832 = CARTESIAN_POINT('',(1.143973804574E-13,52.8,159.));
#833 = PCURVE('',#182,#834);
#834 = DEFINITIONAL_REPRESENTATION('',(#835),#839);
#835 = LINE('',#836,#837);
#836 = CARTESIAN_POINT('',(0.,0.));
#837 = VECTOR('',#838,1.);
#838 = DIRECTION('',(1.,0.));
#839 = ( GEOMETRIC_REPRESENTATION_CONTEXT(2) 
PARAMETRIC_REPRESENTATION_CONTEXT() REPRESENTATION_CONTEXT('2D SPACE',''
  ) );
#840 = PCURVE('',#674,#841);
#841 = DEFINITIONAL_REPRESENTATION('',(#842),#845);
#842 = B_SPLINE_CURVE_WITH_KNOTS('',1,(#843,#844),.UNSPECIFIED.,.F.,.F.,
  (2,2),(0.,26.818650227034),.PIECEWISE_BEZIER_KNOTS.);
#843 = CARTESIAN_POINT('',(-2.,13.821136657413));
#844 = CARTESIAN_POINT('',(-3.,-12.97886334258));
#845 = ( GEOMETRIC_REPRESENTATION_CONTEXT(2) 
PARAMETRIC_REPRESENTATION_CONTEXT() REPRESENTATION_CONTEXT('2D SPACE',''
  ) );
#846 = ORIENTED_EDGE('',*,*,#396,.T.);
#847 = ORIENTED_EDGE('',*,*,#260,.T.);
#848 = ORIENTED_EDGE('',*,*,#160,.T.);
#849 = ORIENTED_EDGE('',*,*,#778,.F.);
#850 = ADVANCED_FACE('',(#851,#854),#247,.T.);
#851 = FACE_BOUND('',#852,.T.);
#852 = EDGE_LOOP('',(#853));
#853 = ORIENTED_EDGE('',*,*,#232,.T.);
#854 = FACE_BOUND('',#855,.T.);
#855 = EDGE_LOOP('',(#856));
#856 = ORIENTED_EDGE('',*,*,#857,.F.);
#857 = EDGE_CURVE('',#858,#858,#860,.T.);
#858 = VERTEX_POINT('',#859);
#859 = CARTESIAN_POINT('',(6.,60.,233.));
#860 = SURFACE_CURVE('',#861,(#866,#873),.PCURVE_S1.);
#861 = CIRCLE('',#862,6.);
#862 = AXIS2_PLACEMENT_3D('',#863,#864,#865);
#863 = CARTESIAN_POINT('',(0.,60.,233.));
#864 = DIRECTION('',(0.,0.,1.));
#865 = DIRECTION('',(1.,0.,0.));
#866 = PCURVE('',#247,#867);
#867 = DEFINITIONAL_REPRESENTATION('',(#868),#872);
#868 = CIRCLE('',#869,6.);
#869 = AXIS2_PLACEMENT_2D('',#870,#871);
#870 = CARTESIAN_POINT('',(6.837200662697E-16,7.105427357601E-15));
#871 = DIRECTION('',(1.,0.));
#872 = ( GEOMETRIC_REPRESENTATION_CONTEXT(2) 
PARAMETRIC_REPRESENTATION_CONTEXT() REPRESENTATION_CONTEXT('2D SPACE',''
  ) );
#873 = PCURVE('',#874,#879);
#874 = CYLINDRICAL_SURFACE('',#875,6.);
#875 = AXIS2_PLACEMENT_3D('',#876,#877,#878);
#876 = CARTESIAN_POINT('',(0.,60.,233.));
#877 = DIRECTION('',(-0.,-0.,-1.));
#878 = DIRECTION('',(1.,0.,0.));
#879 = DEFINITIONAL_REPRESENTATION('',(#880),#884);
#880 = LINE('',#881,#882);
#881 = CARTESIAN_POINT('',(-0.,0.));
#882 = VECTOR('',#883,1.);
#883 = DIRECTION('',(-1.,0.));
#884 = ( GEOMETRIC_REPRESENTATION_CONTEXT(2) 
PARAMETRIC_REPRESENTATION_CONTEXT() REPRESENTATION_CONTEXT('2D SPACE',''
  ) );
#885 = ADVANCED_FACE('',(#886),#471,.F.);
#886 = FACE_BOUND('',#887,.F.);
#887 = EDGE_LOOP('',(#888,#889,#908));
#888 = ORIENTED_EDGE('',*,*,#425,.F.);
#889 = ORIENTED_EDGE('',*,*,#890,.T.);
#890 = EDGE_CURVE('',#397,#632,#891,.T.);
#891 = SURFACE_CURVE('',#892,(#895,#902),.PCURVE_S1.);
#892 = B_SPLINE_CURVE_WITH_KNOTS('',1,(#893,#894),.UNSPECIFIED.,.F.,.F.,
  (2,2),(0.,6.),.PIECEWISE_BEZIER_KNOTS.);
#893 = CARTESIAN_POINT('',(1.143973804574E-13,52.8,159.));
#894 = CARTESIAN_POINT('',(1.12621023618E-13,52.8,153.));
#895 = PCURVE('',#471,#896);
#896 = DEFINITIONAL_REPRESENTATION('',(#897),#901);
#897 = LINE('',#898,#899);
#898 = CARTESIAN_POINT('',(0.,0.));
#899 = VECTOR('',#900,1.);
#900 = DIRECTION('',(1.,0.));
#901 = ( GEOMETRIC_REPRESENTATION_CONTEXT(2) 
PARAMETRIC_REPRESENTATION_CONTEXT() REPRESENTATION_CONTEXT('2D SPACE',''
  ) );
#902 = PCURVE('',#674,#903);
#903 = DEFINITIONAL_REPRESENTATION('',(#904),#907);
#904 = B_SPLINE_CURVE_WITH_KNOTS('',1,(#905,#906),.UNSPECIFIED.,.F.,.F.,
  (2,2),(0.,6.),.PIECEWISE_BEZIER_KNOTS.);
#905 = CARTESIAN_POINT('',(-3.,-12.97886334258));
#906 = CARTESIAN_POINT('',(3.,-12.97886334258));
#907 = ( GEOMETRIC_REPRESENTATION_CONTEXT(2) 
PARAMETRIC_REPRESENTATION_CONTEXT() REPRESENTATION_CONTEXT('2D SPACE',''
  ) );
#908 = ORIENTED_EDGE('',*,*,#631,.T.);
#909 = ADVANCED_FACE('',(#910),#569,.T.);
#910 = FACE_BOUND('',#911,.F.);
#911 = EDGE_LOOP('',(#912,#941,#962,#963));
#912 = ORIENTED_EDGE('',*,*,#913,.F.);
#913 = EDGE_CURVE('',#914,#914,#916,.T.);
#914 = VERTEX_POINT('',#915);
#915 = CARTESIAN_POINT('',(7.,60.,156.));
#916 = SURFACE_CURVE('',#917,(#922,#929),.PCURVE_S1.);
#917 = CIRCLE('',#918,7.);
#918 = AXIS2_PLACEMENT_3D('',#919,#920,#921);
#919 = CARTESIAN_POINT('',(0.,60.,156.));
#920 = DIRECTION('',(0.,0.,1.));
#921 = DIRECTION('',(1.,0.,0.));
#922 = PCURVE('',#569,#923);
#923 = DEFINITIONAL_REPRESENTATION('',(#924),#928);
#924 = LINE('',#925,#926);
#925 = CARTESIAN_POINT('',(-0.,0.));
#926 = VECTOR('',#927,1.);
#927 = DIRECTION('',(-1.,0.));
#928 = ( GEOMETRIC_REPRESENTATION_CONTEXT(2) 
PARAMETRIC_REPRESENTATION_CONTEXT() REPRESENTATION_CONTEXT('2D SPACE',''
  ) );
#929 = PCURVE('',#930,#935);
#930 = PLANE('',#931);
#931 = AXIS2_PLACEMENT_3D('',#932,#933,#934);
#932 = CARTESIAN_POINT('',(1.953485903628E-16,60.,156.));
#933 = DIRECTION('',(0.,0.,1.));
#934 = DIRECTION('',(1.,0.,-0.));
#935 = DEFINITIONAL_REPRESENTATION('',(#936),#940);
#936 = CIRCLE('',#937,7.);
#937 = AXIS2_PLACEMENT_2D('',#938,#939);
#938 = CARTESIAN_POINT('',(-1.953485903628E-16,0.));
#939 = DIRECTION('',(1.,0.));
#940 = ( GEOMETRIC_REPRESENTATION_CONTEXT(2) 
PARAMETRIC_REPRESENTATION_CONTEXT() REPRESENTATION_CONTEXT('2D SPACE',''
  ) );
#941 = ORIENTED_EDGE('',*,*,#942,.T.);
#942 = EDGE_CURVE('',#914,#549,#943,.T.);
#943 = SEAM_CURVE('',#944,(#948,#955),.PCURVE_S1.);
#944 = LINE('',#945,#946);
#945 = CARTESIAN_POINT('',(7.,60.,156.));
#946 = VECTOR('',#947,1.);
#947 = DIRECTION('',(0.,0.,1.));
#948 = PCURVE('',#569,#949);
#949 = DEFINITIONAL_REPRESENTATION('',(#950),#954);
#950 = LINE('',#951,#952);
#951 = CARTESIAN_POINT('',(-6.28318530718,0.));
#952 = VECTOR('',#953,1.);
#953 = DIRECTION('',(-0.,-1.));
#954 = ( GEOMETRIC_REPRESENTATION_CONTEXT(2) 
PARAMETRIC_REPRESENTATION_CONTEXT() REPRESENTATION_CONTEXT('2D SPACE',''
  ) );
#955 = PCURVE('',#569,#956);
#956 = DEFINITIONAL_REPRESENTATION('',(#957),#961);
#957 = LINE('',#958,#959);
#958 = CARTESIAN_POINT('',(-0.,0.));
#959 = VECTOR('',#960,1.);
#960 = DIRECTION('',(-0.,-1.));
#961 = ( GEOMETRIC_REPRESENTATION_CONTEXT(2) 
PARAMETRIC_REPRESENTATION_CONTEXT() REPRESENTATION_CONTEXT('2D SPACE',''
  ) );
#962 = ORIENTED_EDGE('',*,*,#548,.F.);
#963 = ORIENTED_EDGE('',*,*,#942,.F.);
#964 = ADVANCED_FACE('',(#965),#706,.F.);
#965 = FACE_BOUND('',#966,.F.);
#966 = EDGE_LOOP('',(#967,#968,#987,#988));
#967 = ORIENTED_EDGE('',*,*,#685,.F.);
#968 = ORIENTED_EDGE('',*,*,#969,.T.);
#969 = EDGE_CURVE('',#660,#801,#970,.T.);
#970 = SURFACE_CURVE('',#971,(#974,#981),.PCURVE_S1.);
#971 = B_SPLINE_CURVE_WITH_KNOTS('',1,(#972,#973),.UNSPECIFIED.,.F.,.F.,
  (2,2),(0.,4.),.PIECEWISE_BEZIER_KNOTS.);
#972 = CARTESIAN_POINT('',(5.36015676289E-13,26.,154.));
#973 = CARTESIAN_POINT('',(5.431211036466E-13,26.,158.));
#974 = PCURVE('',#706,#975);
#975 = DEFINITIONAL_REPRESENTATION('',(#976),#980);
#976 = LINE('',#977,#978);
#977 = CARTESIAN_POINT('',(0.,0.));
#978 = VECTOR('',#979,1.);
#979 = DIRECTION('',(1.,0.));
#980 = ( GEOMETRIC_REPRESENTATION_CONTEXT(2) 
PARAMETRIC_REPRESENTATION_CONTEXT() REPRESENTATION_CONTEXT('2D SPACE',''
  ) );
#981 = PCURVE('',#674,#982);
#982 = DEFINITIONAL_REPRESENTATION('',(#983),#986);
#983 = B_SPLINE_CURVE_WITH_KNOTS('',1,(#984,#985),.UNSPECIFIED.,.F.,.F.,
  (2,2),(0.,4.),.PIECEWISE_BEZIER_KNOTS.);
#984 = CARTESIAN_POINT('',(2.,13.821136657413));
#985 = CARTESIAN_POINT('',(-2.,13.821136657413));
#986 = ( GEOMETRIC_REPRESENTATION_CONTEXT(2) 
PARAMETRIC_REPRESENTATION_CONTEXT() REPRESENTATION_CONTEXT('2D SPACE',''
  ) );
#987 = ORIENTED_EDGE('',*,*,#800,.T.);
#988 = ORIENTED_EDGE('',*,*,#757,.F.);
#989 = ADVANCED_FACE('',(#990),#674,.T.);
#990 = FACE_BOUND('',#991,.T.);
#991 = EDGE_LOOP('',(#992,#993,#994,#995));
#992 = ORIENTED_EDGE('',*,*,#659,.T.);
#993 = ORIENTED_EDGE('',*,*,#969,.T.);
#994 = ORIENTED_EDGE('',*,*,#828,.T.);
#995 = ORIENTED_EDGE('',*,*,#890,.T.);
#996 = ADVANCED_FACE('',(#997),#874,.T.);
#997 = FACE_BOUND('',#998,.F.);
#998 = EDGE_LOOP('',(#999,#1022,#1049,#1050));
#999 = ORIENTED_EDGE('',*,*,#1000,.T.);
#1000 = EDGE_CURVE('',#858,#1001,#1003,.T.);
#1001 = VERTEX_POINT('',#1002);
#1002 = CARTESIAN_POINT('',(6.,60.,253.));
#1003 = SEAM_CURVE('',#1004,(#1008,#1015),.PCURVE_S1.);
#1004 = LINE('',#1005,#1006);
#1005 = CARTESIAN_POINT('',(6.,60.,233.));
#1006 = VECTOR('',#1007,1.);
#1007 = DIRECTION('',(0.,0.,1.));
#1008 = PCURVE('',#874,#1009);
#1009 = DEFINITIONAL_REPRESENTATION('',(#1010),#1014);
#1010 = LINE('',#1011,#1012);
#1011 = CARTESIAN_POINT('',(-0.,0.));
#1012 = VECTOR('',#1013,1.);
#1013 = DIRECTION('',(-0.,-1.));
#1014 = ( GEOMETRIC_REPRESENTATION_CONTEXT(2) 
PARAMETRIC_REPRESENTATION_CONTEXT() REPRESENTATION_CONTEXT('2D SPACE',''
  ) );
#1015 = PCURVE('',#874,#1016);
#1016 = DEFINITIONAL_REPRESENTATION('',(#1017),#1021);
#1017 = LINE('',#1018,#1019);
#1018 = CARTESIAN_POINT('',(-6.28318530718,0.));
#1019 = VECTOR('',#1020,1.);
#1020 = DIRECTION('',(-0.,-1.));
#1021 = ( GEOMETRIC_REPRESENTATION_CONTEXT(2) 
PARAMETRIC_REPRESENTATION_CONTEXT() REPRESENTATION_CONTEXT('2D SPACE',''
  ) );
#1022 = ORIENTED_EDGE('',*,*,#1023,.T.);
#1023 = EDGE_CURVE('',#1001,#1001,#1024,.T.);
#1024 = SURFACE_CURVE('',#1025,(#1030,#1037),.PCURVE_S1.);
#1025 = CIRCLE('',#1026,6.);
#1026 = AXIS2_PLACEMENT_3D('',#1027,#1028,#1029);
#1027 = CARTESIAN_POINT('',(0.,60.,253.));
#1028 = DIRECTION('',(0.,0.,1.));
#1029 = DIRECTION('',(1.,0.,0.));
#1030 = PCURVE('',#874,#1031);
#1031 = DEFINITIONAL_REPRESENTATION('',(#1032),#1036);
#1032 = LINE('',#1033,#1034);
#1033 = CARTESIAN_POINT('',(-0.,-20.));
#1034 = VECTOR('',#1035,1.);
#1035 = DIRECTION('',(-1.,0.));
#1036 = ( GEOMETRIC_REPRESENTATION_CONTEXT(2) 
PARAMETRIC_REPRESENTATION_CONTEXT() REPRESENTATION_CONTEXT('2D SPACE',''
  ) );
#1037 = PCURVE('',#1038,#1043);
#1038 = PLANE('',#1039);
#1039 = AXIS2_PLACEMENT_3D('',#1040,#1041,#1042);
#1040 = CARTESIAN_POINT('',(-4.558133775131E-16,60.,253.));
#1041 = DIRECTION('',(0.,0.,1.));
#1042 = DIRECTION('',(1.,0.,-0.));
#1043 = DEFINITIONAL_REPRESENTATION('',(#1044),#1048);
#1044 = CIRCLE('',#1045,6.);
#1045 = AXIS2_PLACEMENT_2D('',#1046,#1047);
#1046 = CARTESIAN_POINT('',(4.558133775131E-16,0.));
#1047 = DIRECTION('',(1.,0.));
#1048 = ( GEOMETRIC_REPRESENTATION_CONTEXT(2) 
PARAMETRIC_REPRESENTATION_CONTEXT() REPRESENTATION_CONTEXT('2D SPACE',''
  ) );
#1049 = ORIENTED_EDGE('',*,*,#1000,.F.);
#1050 = ORIENTED_EDGE('',*,*,#857,.F.);
#1051 = ADVANCED_FACE('',(#1052,#1055),#930,.F.);
#1052 = FACE_BOUND('',#1053,.F.);
#1053 = EDGE_LOOP('',(#1054));
#1054 = ORIENTED_EDGE('',*,*,#913,.T.);
#1055 = FACE_BOUND('',#1056,.F.);
#1056 = EDGE_LOOP('',(#1057,#1085,#1111,#1137));
#1057 = ORIENTED_EDGE('',*,*,#1058,.T.);
#1058 = EDGE_CURVE('',#1059,#1061,#1063,.T.);
#1059 = VERTEX_POINT('',#1060);
#1060 = CARTESIAN_POINT('',(4.15,64.15,156.));
#1061 = VERTEX_POINT('',#1062);
#1062 = CARTESIAN_POINT('',(4.15,55.85,156.));
#1063 = SURFACE_CURVE('',#1064,(#1068,#1074),.PCURVE_S1.);
#1064 = LINE('',#1065,#1066);
#1065 = CARTESIAN_POINT('',(4.15,57.925,156.));
#1066 = VECTOR('',#1067,1.);
#1067 = DIRECTION('',(0.,-1.,0.));
#1068 = PCURVE('',#930,#1069);
#1069 = DEFINITIONAL_REPRESENTATION('',(#1070),#1073);
#1070 = B_SPLINE_CURVE_WITH_KNOTS('',1,(#1071,#1072),.UNSPECIFIED.,.F.,
  .F.,(2,2),(-6.225,2.075),.PIECEWISE_BEZIER_KNOTS.);
#1071 = CARTESIAN_POINT('',(4.15,4.15));
#1072 = CARTESIAN_POINT('',(4.15,-4.15));
#1073 = ( GEOMETRIC_REPRESENTATION_CONTEXT(2) 
PARAMETRIC_REPRESENTATION_CONTEXT() REPRESENTATION_CONTEXT('2D SPACE',''
  ) );
#1074 = PCURVE('',#1075,#1080);
#1075 = PLANE('',#1076);
#1076 = AXIS2_PLACEMENT_3D('',#1077,#1078,#1079);
#1077 = CARTESIAN_POINT('',(4.15,55.85,154.));
#1078 = DIRECTION('',(-1.,0.,0.));
#1079 = DIRECTION('',(0.,1.,0.));
#1080 = DEFINITIONAL_REPRESENTATION('',(#1081),#1084);
#1081 = B_SPLINE_CURVE_WITH_KNOTS('',1,(#1082,#1083),.UNSPECIFIED.,.F.,
  .F.,(2,2),(-6.225,2.075),.PIECEWISE_BEZIER_KNOTS.);
#1082 = CARTESIAN_POINT('',(8.3,-2.));
#1083 = CARTESIAN_POINT('',(0.,-2.));
#1084 = ( GEOMETRIC_REPRESENTATION_CONTEXT(2) 
PARAMETRIC_REPRESENTATION_CONTEXT() REPRESENTATION_CONTEXT('2D SPACE',''
  ) );
#1085 = ORIENTED_EDGE('',*,*,#1086,.T.);
#1086 = EDGE_CURVE('',#1061,#1087,#1089,.T.);
#1087 = VERTEX_POINT('',#1088);
#1088 = CARTESIAN_POINT('',(-4.15,55.85,156.));
#1089 = SURFACE_CURVE('',#1090,(#1094,#1100),.PCURVE_S1.);
#1090 = LINE('',#1091,#1092);
#1091 = CARTESIAN_POINT('',(-2.075,55.85,156.));
#1092 = VECTOR('',#1093,1.);
#1093 = DIRECTION('',(-1.,0.,0.));
#1094 = PCURVE('',#930,#1095);
#1095 = DEFINITIONAL_REPRESENTATION('',(#1096),#1099);
#1096 = B_SPLINE_CURVE_WITH_KNOTS('',1,(#1097,#1098),.UNSPECIFIED.,.F.,
  .F.,(2,2),(-6.225,2.075),.PIECEWISE_BEZIER_KNOTS.);
#1097 = CARTESIAN_POINT('',(4.15,-4.15));
#1098 = CARTESIAN_POINT('',(-4.15,-4.15));
#1099 = ( GEOMETRIC_REPRESENTATION_CONTEXT(2) 
PARAMETRIC_REPRESENTATION_CONTEXT() REPRESENTATION_CONTEXT('2D SPACE',''
  ) );
#1100 = PCURVE('',#1101,#1106);
#1101 = PLANE('',#1102);
#1102 = AXIS2_PLACEMENT_3D('',#1103,#1104,#1105);
#1103 = CARTESIAN_POINT('',(-4.15,55.85,154.));
#1104 = DIRECTION('',(0.,1.,0.));
#1105 = DIRECTION('',(1.,0.,0.));
#1106 = DEFINITIONAL_REPRESENTATION('',(#1107),#1110);
#1107 = B_SPLINE_CURVE_WITH_KNOTS('',1,(#1108,#1109),.UNSPECIFIED.,.F.,
  .F.,(2,2),(-6.225,2.075),.PIECEWISE_BEZIER_KNOTS.);
#1108 = CARTESIAN_POINT('',(8.3,-2.));
#1109 = CARTESIAN_POINT('',(0.,-2.));
#1110 = ( GEOMETRIC_REPRESENTATION_CONTEXT(2) 
PARAMETRIC_REPRESENTATION_CONTEXT() REPRESENTATION_CONTEXT('2D SPACE',''
  ) );
#1111 = ORIENTED_EDGE('',*,*,#1112,.T.);
#1112 = EDGE_CURVE('',#1087,#1113,#1115,.T.);
#1113 = VERTEX_POINT('',#1114);
#1114 = CARTESIAN_POINT('',(-4.15,64.15,156.));
#1115 = SURFACE_CURVE('',#1116,(#1120,#1126),.PCURVE_S1.);
#1116 = LINE('',#1117,#1118);
#1117 = CARTESIAN_POINT('',(-4.15,62.075,156.));
#1118 = VECTOR('',#1119,1.);
#1119 = DIRECTION('',(-0.,1.,0.));
#1120 = PCURVE('',#930,#1121);
#1121 = DEFINITIONAL_REPRESENTATION('',(#1122),#1125);
#1122 = B_SPLINE_CURVE_WITH_KNOTS('',1,(#1123,#1124),.UNSPECIFIED.,.F.,
  .F.,(2,2),(-6.225,2.075),.PIECEWISE_BEZIER_KNOTS.);
#1123 = CARTESIAN_POINT('',(-4.15,-4.15));
#1124 = CARTESIAN_POINT('',(-4.15,4.15));
#1125 = ( GEOMETRIC_REPRESENTATION_CONTEXT(2) 
PARAMETRIC_REPRESENTATION_CONTEXT() REPRESENTATION_CONTEXT('2D SPACE',''
  ) );
#1126 = PCURVE('',#1127,#1132);
#1127 = PLANE('',#1128);
#1128 = AXIS2_PLACEMENT_3D('',#1129,#1130,#1131);
#1129 = CARTESIAN_POINT('',(-4.15,64.15,154.));
#1130 = DIRECTION('',(1.,0.,-0.));
#1131 = DIRECTION('',(0.,-1.,0.));
#1132 = DEFINITIONAL_REPRESENTATION('',(#1133),#1136);
#1133 = B_SPLINE_CURVE_WITH_KNOTS('',1,(#1134,#1135),.UNSPECIFIED.,.F.,
  .F.,(2,2),(-6.225,2.075),.PIECEWISE_BEZIER_KNOTS.);
#1134 = CARTESIAN_POINT('',(8.3,-2.));
#1135 = CARTESIAN_POINT('',(0.,-2.));
#1136 = ( GEOMETRIC_REPRESENTATION_CONTEXT(2) 
PARAMETRIC_REPRESENTATION_CONTEXT() REPRESENTATION_CONTEXT('2D SPACE',''
  ) );
#1137 = ORIENTED_EDGE('',*,*,#1138,.T.);
#1138 = EDGE_CURVE('',#1113,#1059,#1139,.T.);
#1139 = SURFACE_CURVE('',#1140,(#1144,#1150),.PCURVE_S1.);
#1140 = LINE('',#1141,#1142);
#1141 = CARTESIAN_POINT('',(2.075,64.15,156.));
#1142 = VECTOR('',#1143,1.);
#1143 = DIRECTION('',(1.,0.,-0.));
#1144 = PCURVE('',#930,#1145);
#1145 = DEFINITIONAL_REPRESENTATION('',(#1146),#1149);
#1146 = B_SPLINE_CURVE_WITH_KNOTS('',1,(#1147,#1148),.UNSPECIFIED.,.F.,
  .F.,(2,2),(-6.225,2.075),.PIECEWISE_BEZIER_KNOTS.);
#1147 = CARTESIAN_POINT('',(-4.15,4.15));
#1148 = CARTESIAN_POINT('',(4.15,4.15));
#1149 = ( GEOMETRIC_REPRESENTATION_CONTEXT(2) 
PARAMETRIC_REPRESENTATION_CONTEXT() REPRESENTATION_CONTEXT('2D SPACE',''
  ) );
#1150 = PCURVE('',#1151,#1156);
#1151 = PLANE('',#1152);
#1152 = AXIS2_PLACEMENT_3D('',#1153,#1154,#1155);
#1153 = CARTESIAN_POINT('',(4.15,64.15,154.));
#1154 = DIRECTION('',(0.,-1.,0.));
#1155 = DIRECTION('',(-1.,0.,0.));
#1156 = DEFINITIONAL_REPRESENTATION('',(#1157),#1160);
#1157 = B_SPLINE_CURVE_WITH_KNOTS('',1,(#1158,#1159),.UNSPECIFIED.,.F.,
  .F.,(2,2),(-6.225,2.075),.PIECEWISE_BEZIER_KNOTS.);
#1158 = CARTESIAN_POINT('',(8.3,-2.));
#1159 = CARTESIAN_POINT('',(0.,-2.));
#1160 = ( GEOMETRIC_REPRESENTATION_CONTEXT(2) 
PARAMETRIC_REPRESENTATION_CONTEXT() REPRESENTATION_CONTEXT('2D SPACE',''
  ) );
#1161 = ADVANCED_FACE('',(#1162),#1038,.T.);
#1162 = FACE_BOUND('',#1163,.T.);
#1163 = EDGE_LOOP('',(#1164));
#1164 = ORIENTED_EDGE('',*,*,#1023,.T.);
#1165 = ADVANCED_FACE('',(#1166),#1075,.T.);
#1166 = FACE_BOUND('',#1167,.T.);
#1167 = EDGE_LOOP('',(#1168,#1169,#1192,#1220));
#1168 = ORIENTED_EDGE('',*,*,#1058,.T.);
#1169 = ORIENTED_EDGE('',*,*,#1170,.T.);
#1170 = EDGE_CURVE('',#1061,#1171,#1173,.T.);
#1171 = VERTEX_POINT('',#1172);
#1172 = CARTESIAN_POINT('',(4.15,55.85,232.));
#1173 = SURFACE_CURVE('',#1174,(#1178,#1185),.PCURVE_S1.);
#1174 = LINE('',#1175,#1176);
#1175 = CARTESIAN_POINT('',(4.15,55.85,154.));
#1176 = VECTOR('',#1177,1.);
#1177 = DIRECTION('',(0.,0.,1.));
#1178 = PCURVE('',#1075,#1179);
#1179 = DEFINITIONAL_REPRESENTATION('',(#1180),#1184);
#1180 = LINE('',#1181,#1182);
#1181 = CARTESIAN_POINT('',(0.,0.));
#1182 = VECTOR('',#1183,1.);
#1183 = DIRECTION('',(0.,-1.));
#1184 = ( GEOMETRIC_REPRESENTATION_CONTEXT(2) 
PARAMETRIC_REPRESENTATION_CONTEXT() REPRESENTATION_CONTEXT('2D SPACE',''
  ) );
#1185 = PCURVE('',#1101,#1186);
#1186 = DEFINITIONAL_REPRESENTATION('',(#1187),#1191);
#1187 = LINE('',#1188,#1189);
#1188 = CARTESIAN_POINT('',(8.3,0.));
#1189 = VECTOR('',#1190,1.);
#1190 = DIRECTION('',(0.,-1.));
#1191 = ( GEOMETRIC_REPRESENTATION_CONTEXT(2) 
PARAMETRIC_REPRESENTATION_CONTEXT() REPRESENTATION_CONTEXT('2D SPACE',''
  ) );
#1192 = ORIENTED_EDGE('',*,*,#1193,.T.);
#1193 = EDGE_CURVE('',#1171,#1194,#1196,.T.);
#1194 = VERTEX_POINT('',#1195);
#1195 = CARTESIAN_POINT('',(4.15,64.15,232.));
#1196 = SURFACE_CURVE('',#1197,(#1201,#1208),.PCURVE_S1.);
#1197 = LINE('',#1198,#1199);
#1198 = CARTESIAN_POINT('',(4.15,55.85,232.));
#1199 = VECTOR('',#1200,1.);
#1200 = DIRECTION('',(0.,1.,0.));
#1201 = PCURVE('',#1075,#1202);
#1202 = DEFINITIONAL_REPRESENTATION('',(#1203),#1207);
#1203 = LINE('',#1204,#1205);
#1204 = CARTESIAN_POINT('',(0.,-78.));
#1205 = VECTOR('',#1206,1.);
#1206 = DIRECTION('',(1.,0.));
#1207 = ( GEOMETRIC_REPRESENTATION_CONTEXT(2) 
PARAMETRIC_REPRESENTATION_CONTEXT() REPRESENTATION_CONTEXT('2D SPACE',''
  ) );
#1208 = PCURVE('',#1209,#1214);
#1209 = PLANE('',#1210);
#1210 = AXIS2_PLACEMENT_3D('',#1211,#1212,#1213);
#1211 = CARTESIAN_POINT('',(0.,60.,232.));
#1212 = DIRECTION('',(0.,0.,1.));
#1213 = DIRECTION('',(1.,0.,-0.));
#1214 = DEFINITIONAL_REPRESENTATION('',(#1215),#1219);
#1215 = LINE('',#1216,#1217);
#1216 = CARTESIAN_POINT('',(4.15,-4.15));
#1217 = VECTOR('',#1218,1.);
#1218 = DIRECTION('',(0.,1.));
#1219 = ( GEOMETRIC_REPRESENTATION_CONTEXT(2) 
PARAMETRIC_REPRESENTATION_CONTEXT() REPRESENTATION_CONTEXT('2D SPACE',''
  ) );
#1220 = ORIENTED_EDGE('',*,*,#1221,.F.);
#1221 = EDGE_CURVE('',#1059,#1194,#1222,.T.);
#1222 = SURFACE_CURVE('',#1223,(#1227,#1234),.PCURVE_S1.);
#1223 = LINE('',#1224,#1225);
#1224 = CARTESIAN_POINT('',(4.15,64.15,154.));
#1225 = VECTOR('',#1226,1.);
#1226 = DIRECTION('',(0.,0.,1.));
#1227 = PCURVE('',#1075,#1228);
#1228 = DEFINITIONAL_REPRESENTATION('',(#1229),#1233);
#1229 = LINE('',#1230,#1231);
#1230 = CARTESIAN_POINT('',(8.3,0.));
#1231 = VECTOR('',#1232,1.);
#1232 = DIRECTION('',(0.,-1.));
#1233 = ( GEOMETRIC_REPRESENTATION_CONTEXT(2) 
PARAMETRIC_REPRESENTATION_CONTEXT() REPRESENTATION_CONTEXT('2D SPACE',''
  ) );
#1234 = PCURVE('',#1151,#1235);
#1235 = DEFINITIONAL_REPRESENTATION('',(#1236),#1240);
#1236 = LINE('',#1237,#1238);
#1237 = CARTESIAN_POINT('',(0.,-0.));
#1238 = VECTOR('',#1239,1.);
#1239 = DIRECTION('',(0.,-1.));
#1240 = ( GEOMETRIC_REPRESENTATION_CONTEXT(2) 
PARAMETRIC_REPRESENTATION_CONTEXT() REPRESENTATION_CONTEXT('2D SPACE',''
  ) );
#1241 = ADVANCED_FACE('',(#1242),#1151,.T.);
#1242 = FACE_BOUND('',#1243,.T.);
#1243 = EDGE_LOOP('',(#1244,#1245,#1246,#1269));
#1244 = ORIENTED_EDGE('',*,*,#1138,.T.);
#1245 = ORIENTED_EDGE('',*,*,#1221,.T.);
#1246 = ORIENTED_EDGE('',*,*,#1247,.T.);
#1247 = EDGE_CURVE('',#1194,#1248,#1250,.T.);
#1248 = VERTEX_POINT('',#1249);
#1249 = CARTESIAN_POINT('',(-4.15,64.15,232.));
#1250 = SURFACE_CURVE('',#1251,(#1255,#1262),.PCURVE_S1.);
#1251 = LINE('',#1252,#1253);
#1252 = CARTESIAN_POINT('',(4.15,64.15,232.));
#1253 = VECTOR('',#1254,1.);
#1254 = DIRECTION('',(-1.,0.,0.));
#1255 = PCURVE('',#1151,#1256);
#1256 = DEFINITIONAL_REPRESENTATION('',(#1257),#1261);
#1257 = LINE('',#1258,#1259);
#1258 = CARTESIAN_POINT('',(0.,-78.));
#1259 = VECTOR('',#1260,1.);
#1260 = DIRECTION('',(1.,0.));
#1261 = ( GEOMETRIC_REPRESENTATION_CONTEXT(2) 
PARAMETRIC_REPRESENTATION_CONTEXT() REPRESENTATION_CONTEXT('2D SPACE',''
  ) );
#1262 = PCURVE('',#1209,#1263);
#1263 = DEFINITIONAL_REPRESENTATION('',(#1264),#1268);
#1264 = LINE('',#1265,#1266);
#1265 = CARTESIAN_POINT('',(4.15,4.15));
#1266 = VECTOR('',#1267,1.);
#1267 = DIRECTION('',(-1.,0.));
#1268 = ( GEOMETRIC_REPRESENTATION_CONTEXT(2) 
PARAMETRIC_REPRESENTATION_CONTEXT() REPRESENTATION_CONTEXT('2D SPACE',''
  ) );
#1269 = ORIENTED_EDGE('',*,*,#1270,.F.);
#1270 = EDGE_CURVE('',#1113,#1248,#1271,.T.);
#1271 = SURFACE_CURVE('',#1272,(#1276,#1283),.PCURVE_S1.);
#1272 = LINE('',#1273,#1274);
#1273 = CARTESIAN_POINT('',(-4.15,64.15,154.));
#1274 = VECTOR('',#1275,1.);
#1275 = DIRECTION('',(0.,0.,1.));
#1276 = PCURVE('',#1151,#1277);
#1277 = DEFINITIONAL_REPRESENTATION('',(#1278),#1282);
#1278 = LINE('',#1279,#1280);
#1279 = CARTESIAN_POINT('',(8.3,0.));
#1280 = VECTOR('',#1281,1.);
#1281 = DIRECTION('',(0.,-1.));
#1282 = ( GEOMETRIC_REPRESENTATION_CONTEXT(2) 
PARAMETRIC_REPRESENTATION_CONTEXT() REPRESENTATION_CONTEXT('2D SPACE',''
  ) );
#1283 = PCURVE('',#1127,#1284);
#1284 = DEFINITIONAL_REPRESENTATION('',(#1285),#1289);
#1285 = LINE('',#1286,#1287);
#1286 = CARTESIAN_POINT('',(0.,0.));
#1287 = VECTOR('',#1288,1.);
#1288 = DIRECTION('',(0.,-1.));
#1289 = ( GEOMETRIC_REPRESENTATION_CONTEXT(2) 
PARAMETRIC_REPRESENTATION_CONTEXT() REPRESENTATION_CONTEXT('2D SPACE',''
  ) );
#1290 = ADVANCED_FACE('',(#1291),#1127,.T.);
#1291 = FACE_BOUND('',#1292,.T.);
#1292 = EDGE_LOOP('',(#1293,#1294,#1295,#1318));
#1293 = ORIENTED_EDGE('',*,*,#1112,.T.);
#1294 = ORIENTED_EDGE('',*,*,#1270,.T.);
#1295 = ORIENTED_EDGE('',*,*,#1296,.T.);
#1296 = EDGE_CURVE('',#1248,#1297,#1299,.T.);
#1297 = VERTEX_POINT('',#1298);
#1298 = CARTESIAN_POINT('',(-4.15,55.85,232.));
#1299 = SURFACE_CURVE('',#1300,(#1304,#1311),.PCURVE_S1.);
#1300 = LINE('',#1301,#1302);
#1301 = CARTESIAN_POINT('',(-4.15,64.15,232.));
#1302 = VECTOR('',#1303,1.);
#1303 = DIRECTION('',(0.,-1.,0.));
#1304 = PCURVE('',#1127,#1305);
#1305 = DEFINITIONAL_REPRESENTATION('',(#1306),#1310);
#1306 = LINE('',#1307,#1308);
#1307 = CARTESIAN_POINT('',(0.,-78.));
#1308 = VECTOR('',#1309,1.);
#1309 = DIRECTION('',(1.,0.));
#1310 = ( GEOMETRIC_REPRESENTATION_CONTEXT(2) 
PARAMETRIC_REPRESENTATION_CONTEXT() REPRESENTATION_CONTEXT('2D SPACE',''
  ) );
#1311 = PCURVE('',#1209,#1312);
#1312 = DEFINITIONAL_REPRESENTATION('',(#1313),#1317);
#1313 = LINE('',#1314,#1315);
#1314 = CARTESIAN_POINT('',(-4.15,4.15));
#1315 = VECTOR('',#1316,1.);
#1316 = DIRECTION('',(0.,-1.));
#1317 = ( GEOMETRIC_REPRESENTATION_CONTEXT(2) 
PARAMETRIC_REPRESENTATION_CONTEXT() REPRESENTATION_CONTEXT('2D SPACE',''
  ) );
#1318 = ORIENTED_EDGE('',*,*,#1319,.F.);
#1319 = EDGE_CURVE('',#1087,#1297,#1320,.T.);
#1320 = SURFACE_CURVE('',#1321,(#1325,#1332),.PCURVE_S1.);
#1321 = LINE('',#1322,#1323);
#1322 = CARTESIAN_POINT('',(-4.15,55.85,154.));
#1323 = VECTOR('',#1324,1.);
#1324 = DIRECTION('',(0.,0.,1.));
#1325 = PCURVE('',#1127,#1326);
#1326 = DEFINITIONAL_REPRESENTATION('',(#1327),#1331);
#1327 = LINE('',#1328,#1329);
#1328 = CARTESIAN_POINT('',(8.3,0.));
#1329 = VECTOR('',#1330,1.);
#1330 = DIRECTION('',(0.,-1.));
#1331 = ( GEOMETRIC_REPRESENTATION_CONTEXT(2) 
PARAMETRIC_REPRESENTATION_CONTEXT() REPRESENTATION_CONTEXT('2D SPACE',''
  ) );
#1332 = PCURVE('',#1101,#1333);
#1333 = DEFINITIONAL_REPRESENTATION('',(#1334),#1338);
#1334 = LINE('',#1335,#1336);
#1335 = CARTESIAN_POINT('',(0.,0.));
#1336 = VECTOR('',#1337,1.);
#1337 = DIRECTION('',(0.,-1.));
#1338 = ( GEOMETRIC_REPRESENTATION_CONTEXT(2) 
PARAMETRIC_REPRESENTATION_CONTEXT() REPRESENTATION_CONTEXT('2D SPACE',''
  ) );
#1339 = ADVANCED_FACE('',(#1340),#1101,.T.);
#1340 = FACE_BOUND('',#1341,.T.);
#1341 = EDGE_LOOP('',(#1342,#1343,#1344,#1365));
#1342 = ORIENTED_EDGE('',*,*,#1086,.T.);
#1343 = ORIENTED_EDGE('',*,*,#1319,.T.);
#1344 = ORIENTED_EDGE('',*,*,#1345,.T.);
#1345 = EDGE_CURVE('',#1297,#1171,#1346,.T.);
#1346 = SURFACE_CURVE('',#1347,(#1351,#1358),.PCURVE_S1.);
#1347 = LINE('',#1348,#1349);
#1348 = CARTESIAN_POINT('',(-4.15,55.85,232.));
#1349 = VECTOR('',#1350,1.);
#1350 = DIRECTION('',(1.,0.,0.));
#1351 = PCURVE('',#1101,#1352);
#1352 = DEFINITIONAL_REPRESENTATION('',(#1353),#1357);
#1353 = LINE('',#1354,#1355);
#1354 = CARTESIAN_POINT('',(0.,-78.));
#1355 = VECTOR('',#1356,1.);
#1356 = DIRECTION('',(1.,0.));
#1357 = ( GEOMETRIC_REPRESENTATION_CONTEXT(2) 
PARAMETRIC_REPRESENTATION_CONTEXT() REPRESENTATION_CONTEXT('2D SPACE',''
  ) );
#1358 = PCURVE('',#1209,#1359);
#1359 = DEFINITIONAL_REPRESENTATION('',(#1360),#1364);
#1360 = LINE('',#1361,#1362);
#1361 = CARTESIAN_POINT('',(-4.15,-4.15));
#1362 = VECTOR('',#1363,1.);
#1363 = DIRECTION('',(1.,0.));
#1364 = ( GEOMETRIC_REPRESENTATION_CONTEXT(2) 
PARAMETRIC_REPRESENTATION_CONTEXT() REPRESENTATION_CONTEXT('2D SPACE',''
  ) );
#1365 = ORIENTED_EDGE('',*,*,#1170,.F.);
#1366 = ADVANCED_FACE('',(#1367),#1209,.F.);
#1367 = FACE_BOUND('',#1368,.F.);
#1368 = EDGE_LOOP('',(#1369,#1370,#1371,#1372));
#1369 = ORIENTED_EDGE('',*,*,#1345,.T.);
#1370 = ORIENTED_EDGE('',*,*,#1193,.T.);
#1371 = ORIENTED_EDGE('',*,*,#1247,.T.);
#1372 = ORIENTED_EDGE('',*,*,#1296,.T.);
#1373 = ( GEOMETRIC_REPRESENTATION_CONTEXT(3) 
GLOBAL_UNCERTAINTY_ASSIGNED_CONTEXT((#1377)) 
GLOBAL_UNIT_ASSIGNED_CONTEXT((#1374,#1375,#1376)) REPRESENTATION_CONTEXT
('Context #1','3D Context with UNIT and UNCERTAINTY') );
#1374 = ( LENGTH_UNIT() NAMED_UNIT(*) SI_UNIT(.MILLI.,.METRE.) );
#1375 = ( NAMED_UNIT(*) PLANE_ANGLE_UNIT() SI_UNIT($,.RADIAN.) );
#1376 = ( NAMED_UNIT(*) SI_UNIT($,.STERADIAN.) SOLID_ANGLE_UNIT() );
#1377 = UNCERTAINTY_MEASURE_WITH_UNIT(LENGTH_MEASURE(5.E-06),#1374,
  'distance_accuracy_value','confusion accuracy');
#1378 = PRODUCT_RELATED_PRODUCT_CATEGORY('part',$,(#7));
ENDSEC;
END-ISO-10303-21;
