ISO-10303-21;
HEADER;
FILE_DESCRIPTION(('Open CASCADE Model'),'2;1');
FILE_NAME('Open CASCADE Shape Model','2026-09-21T19:50:22',('Author'),(
    'Open CASCADE'),'Open CASCADE STEP processor 7.9','Open CASCADE 7.9'
  ,'Unknown');
FILE_SCHEMA(('AUTOMOTIVE_DESIGN { 1 0 10303 214 1 1 1 1 }'));
ENDSEC;
DATA;
#1 = APPLICATION_PROTOCOL_DEFINITION('international standard',
  'automotive_design',2000,#2);
#2 = APPLICATION_CONTEXT(
  'core data for automotive mechanical design processes');
#3 = SHAPE_DEFINITION_REPRESENTATION(#4,#10);
#4 = PRODUCT_DEFINITION_SHAPE('','',#5);
#5 = PRODUCT_DEFINITION('design','',#6,#9);
#6 = PRODUCT_DEFINITION_FORMATION('','',#7);
#7 = PRODUCT('Open CASCADE STEP translator 7.9 14',
  'Open CASCADE STEP translator 7.9 14','',(#8));
#8 = PRODUCT_CONTEXT('',#2,'mechanical');
#9 = PRODUCT_DEFINITION_CONTEXT('part definition',#2,'design');
#10 = ADVANCED_BREP_SHAPE_REPRESENTATION('',(#11,#15),#1441);
#11 = AXIS2_PLACEMENT_3D('',#12,#13,#14);
#12 = CARTESIAN_POINT('',(0.,0.,0.));
#13 = DIRECTION('',(0.,0.,1.));
#14 = DIRECTION('',(1.,0.,-0.));
#15 = MANIFOLD_SOLID_BREP('',#16);
#16 = CLOSED_SHELL('',(#17,#523,#558,#896,#949,#1004,#1094,#1098,#1137,
    #1190,#1225,#1280,#1284,#1339,#1343,#1382,#1437));
#17 = ADVANCED_FACE('',(#18),#31,.T.);
#18 = FACE_BOUND('',#19,.F.);
#19 = EDGE_LOOP('',(#20,#58,#81,#178,#273,#296,#323,#324,#522));
#20 = ORIENTED_EDGE('',*,*,#21,.T.);
#21 = EDGE_CURVE('',#22,#22,#24,.T.);
#22 = VERTEX_POINT('',#23);
#23 = CARTESIAN_POINT('',(-41.,340.,165.5));
#24 = SURFACE_CURVE('',#25,(#30,#42),.PCURVE_S1.);
#25 = CIRCLE('',#26,7.);
#26 = AXIS2_PLACEMENT_3D('',#27,#28,#29);
#27 = CARTESIAN_POINT('',(-48.,340.,165.5));
#28 = DIRECTION('',(0.,0.,-1.));
#29 = DIRECTION('',(1.,0.,0.));
#30 = PCURVE('',#31,#36);
#31 = CYLINDRICAL_SURFACE('',#32,7.);
#32 = AXIS2_PLACEMENT_3D('',#33,#34,#35);
#33 = CARTESIAN_POINT('',(-48.,340.,162.5));
#34 = DIRECTION('',(-0.,-0.,-1.));
#35 = DIRECTION('',(1.,0.,0.));
#36 = DEFINITIONAL_REPRESENTATION('',(#37),#41);
#37 = LINE('',#38,#39);
#38 = CARTESIAN_POINT('',(-6.28318530718,-3.));
#39 = VECTOR('',#40,1.);
#40 = DIRECTION('',(1.,-0.));
#41 = ( GEOMETRIC_REPRESENTATION_CONTEXT(2) 
PARAMETRIC_REPRESENTATION_CONTEXT() REPRESENTATION_CONTEXT('2D SPACE',''
  ) );
#42 = PCURVE('',#43,#48);
#43 = PLANE('',#44);
#44 = AXIS2_PLACEMENT_3D('',#45,#46,#47);
#45 = CARTESIAN_POINT('',(-48.,340.,165.5));
#46 = DIRECTION('',(0.,0.,1.));
#47 = DIRECTION('',(1.,0.,-0.));
#48 = DEFINITIONAL_REPRESENTATION('',(#49),#57);
#49 = ( BOUNDED_CURVE() B_SPLINE_CURVE(2,(#50,#51,#52,#53,#54,#55,#56),
.UNSPECIFIED.,.T.,.F.) B_SPLINE_CURVE_WITH_KNOTS((1,2,2,2,2,1),(
    -2.094395102393,0.,2.094395102393,4.188790204786,6.28318530718,
8.377580409573),.UNSPECIFIED.) CURVE() GEOMETRIC_REPRESENTATION_ITEM() 
RATIONAL_B_SPLINE_CURVE((1.,0.5,1.,0.5,1.,0.5,1.)) REPRESENTATION_ITEM(
  '') );
#50 = CARTESIAN_POINT('',(7.,-5.684341886081E-14));
#51 = CARTESIAN_POINT('',(7.,-12.12435565298));
#52 = CARTESIAN_POINT('',(-3.5,-6.062177826491));
#53 = CARTESIAN_POINT('',(-14.,-5.855792437961E-14));
#54 = CARTESIAN_POINT('',(-3.5,6.062177826491));
#55 = CARTESIAN_POINT('',(7.,12.124355652982));
#56 = CARTESIAN_POINT('',(7.,-5.684341886081E-14));
#57 = ( GEOMETRIC_REPRESENTATION_CONTEXT(2) 
PARAMETRIC_REPRESENTATION_CONTEXT() REPRESENTATION_CONTEXT('2D SPACE',''
  ) );
#58 = ORIENTED_EDGE('',*,*,#59,.T.);
#59 = EDGE_CURVE('',#22,#60,#62,.T.);
#60 = VERTEX_POINT('',#61);
#61 = CARTESIAN_POINT('',(-41.,340.,194.5));
#62 = SEAM_CURVE('',#63,(#67,#74),.PCURVE_S1.);
#63 = LINE('',#64,#65);
#64 = CARTESIAN_POINT('',(-41.,340.,162.5));
#65 = VECTOR('',#66,1.);
#66 = DIRECTION('',(0.,0.,1.));
#67 = PCURVE('',#31,#68);
#68 = DEFINITIONAL_REPRESENTATION('',(#69),#73);
#69 = LINE('',#70,#71);
#70 = CARTESIAN_POINT('',(-6.28318530718,0.));
#71 = VECTOR('',#72,1.);
#72 = DIRECTION('',(-0.,-1.));
#73 = ( GEOMETRIC_REPRESENTATION_CONTEXT(2) 
PARAMETRIC_REPRESENTATION_CONTEXT() REPRESENTATION_CONTEXT('2D SPACE',''
  ) );
#74 = PCURVE('',#31,#75);
#75 = DEFINITIONAL_REPRESENTATION('',(#76),#80);
#76 = LINE('',#77,#78);
#77 = CARTESIAN_POINT('',(-0.,0.));
#78 = VECTOR('',#79,1.);
#79 = DIRECTION('',(-0.,-1.));
#80 = ( GEOMETRIC_REPRESENTATION_CONTEXT(2) 
PARAMETRIC_REPRESENTATION_CONTEXT() REPRESENTATION_CONTEXT('2D SPACE',''
  ) );
#81 = ORIENTED_EDGE('',*,*,#82,.T.);
#82 = EDGE_CURVE('',#60,#83,#85,.T.);
#83 = VERTEX_POINT('',#84);
#84 = CARTESIAN_POINT('',(-43.10102051443,345.,199.5));
#85 = SURFACE_CURVE('',#86,(#113,#143),.PCURVE_S1.);
#86 = B_SPLINE_CURVE_WITH_KNOTS('',7,(#87,#88,#89,#90,#91,#92,#93,#94,
    #95,#96,#97,#98,#99,#100,#101,#102,#103,#104,#105,#106,#107,#108,
    #109,#110,#111,#112),.UNSPECIFIED.,.F.,.F.,(8,6,6,6,8),(0.,
    0.203073623207,0.57347394543,0.802684067744,1.),.UNSPECIFIED.);
#87 = CARTESIAN_POINT('',(-41.,340.,194.5));
#88 = CARTESIAN_POINT('',(-41.,340.2910832182,194.5));
#89 = CARTESIAN_POINT('',(-41.01412199387,340.57989352112,
    194.51977050106));
#90 = CARTESIAN_POINT('',(-41.04196675549,340.86362527607,
    194.55875418254));
#91 = CARTESIAN_POINT('',(-41.08250978282,341.13953844804,
    194.61575427755));
#92 = CARTESIAN_POINT('',(-41.13411955981,341.40501807398,
    194.68893552442));
#93 = CARTESIAN_POINT('',(-41.19462317292,341.65762433368,
    194.77579048123));
#94 = CARTESIAN_POINT('',(-41.38325342342,342.32834244316,
    195.05050838261));
#95 = CARTESIAN_POINT('',(-41.52794556036,342.71815952194,
    195.26543021083));
#96 = CARTESIAN_POINT('',(-41.68605824695,343.06650854181,
    195.50761061243));
#97 = CARTESIAN_POINT('',(-41.85044234831,343.37665532082,
    195.77030853052));
#98 = CARTESIAN_POINT('',(-42.01592545423,343.6522011581,196.0495868602)
  );
#99 = CARTESIAN_POINT('',(-42.17856075645,343.89629841207,
    196.34389720058));
#100 = CARTESIAN_POINT('',(-42.43061969803,344.24369201391,
    196.8456633291));
#101 = CARTESIAN_POINT('',(-42.52422747404,344.36506490742,
    197.0432803564));
#102 = CARTESIAN_POINT('',(-42.61387144096,344.47515548949,
    197.24631773709));
#103 = CARTESIAN_POINT('',(-42.6982941824,344.5740072587,197.45446674034
    ));
#104 = CARTESIAN_POINT('',(-42.77618915611,344.66158471252,
    197.66750242757));
#105 = CARTESIAN_POINT('',(-42.84621489116,344.7377587745,
    197.88528632118));
#106 = CARTESIAN_POINT('',(-42.95938902744,344.85778397755,
    198.29929217546));
#107 = CARTESIAN_POINT('',(-43.00498107541,344.90472110742,
    198.49451600355));
#108 = CARTESIAN_POINT('',(-43.04269967969,344.9426196894,
    198.69258176166));
#109 = CARTESIAN_POINT('',(-43.0716526238,344.97122556555,
    198.89276254239));
#110 = CARTESIAN_POINT('',(-43.09120899394,344.99038666645,
    199.0944301273));
#111 = CARTESIAN_POINT('',(-43.10102051443,345.,199.29702089537));
#112 = CARTESIAN_POINT('',(-43.10102051443,345.,199.5));
#113 = PCURVE('',#31,#114);
#114 = DEFINITIONAL_REPRESENTATION('',(#115),#142);
#115 = B_SPLINE_CURVE_WITH_KNOTS('',7,(#116,#117,#118,#119,#120,#121,
    #122,#123,#124,#125,#126,#127,#128,#129,#130,#131,#132,#133,#134,
    #135,#136,#137,#138,#139,#140,#141),.UNSPECIFIED.,.F.,.F.,(8,6,6,6,8
    ),(0.,0.203073623207,0.57347394543,0.802684067744,1.),
  .UNSPECIFIED.);
#116 = CARTESIAN_POINT('',(0.,-32.));
#117 = CARTESIAN_POINT('',(-4.158331688574E-02,-32.));
#118 = CARTESIAN_POINT('',(-8.284198614638E-02,-32.01977050106));
#119 = CARTESIAN_POINT('',(-0.123492353348,-32.05875418254));
#120 = CARTESIAN_POINT('',(-0.163252835599,-32.11575427755));
#121 = CARTESIAN_POINT('',(-0.201829560009,-32.18893552442));
#122 = CARTESIAN_POINT('',(-0.238908586553,-32.27579048123));
#123 = CARTESIAN_POINT('',(-0.338442618655,-32.55050838261));
#124 = CARTESIAN_POINT('',(-0.397647207515,-32.76543021083));
#125 = CARTESIAN_POINT('',(-0.4521020221,-33.00761061243));
#126 = CARTESIAN_POINT('',(-0.502105039651,-33.27030853052));
#127 = CARTESIAN_POINT('',(-0.547937745996,-33.5495868602));
#128 = CARTESIAN_POINT('',(-0.589806451028,-33.84389720058));
#129 = CARTESIAN_POINT('',(-0.651121300019,-34.3456633291));
#130 = CARTESIAN_POINT('',(-0.673008623741,-34.5432803564));
#131 = CARTESIAN_POINT('',(-0.693279833378,-34.74631773709));
#132 = CARTESIAN_POINT('',(-0.711843143028,-34.95446674034));
#133 = CARTESIAN_POINT('',(-0.728583185656,-35.16750242757));
#134 = CARTESIAN_POINT('',(-0.743363473226,-35.38528632118));
#135 = CARTESIAN_POINT('',(-0.766930327539,-35.79929217546));
#136 = CARTESIAN_POINT('',(-0.776277126068,-35.99451600355));
#137 = CARTESIAN_POINT('',(-0.78391504011,-36.19258176166));
#138 = CARTESIAN_POINT('',(-0.78972934798,-36.39276254239));
#139 = CARTESIAN_POINT('',(-0.793640660792,-36.5944301273));
#140 = CARTESIAN_POINT('',(-0.795602953485,-36.79702089537));
#141 = CARTESIAN_POINT('',(-0.795602953485,-37.));
#142 = ( GEOMETRIC_REPRESENTATION_CONTEXT(2) 
PARAMETRIC_REPRESENTATION_CONTEXT() REPRESENTATION_CONTEXT('2D SPACE',''
  ) );
#143 = PCURVE('',#144,#149);
#144 = CYLINDRICAL_SURFACE('',#145,5.);
#145 = AXIS2_PLACEMENT_3D('',#146,#147,#148);
#146 = CARTESIAN_POINT('',(-48.,340.,199.5));
#147 = DIRECTION('',(-1.,-0.,-0.));
#148 = DIRECTION('',(0.,1.,0.));
#149 = DEFINITIONAL_REPRESENTATION('',(#150),#177);
#150 = B_SPLINE_CURVE_WITH_KNOTS('',7,(#151,#152,#153,#154,#155,#156,
    #157,#158,#159,#160,#161,#162,#163,#164,#165,#166,#167,#168,#169,
    #170,#171,#172,#173,#174,#175,#176),.UNSPECIFIED.,.F.,.F.,(8,6,6,6,8
    ),(0.,0.203073623207,0.57347394543,0.802684067744,1.),
  .UNSPECIFIED.);
#151 = CARTESIAN_POINT('',(-4.712388980385,-7.));
#152 = CARTESIAN_POINT('',(-4.770605624025,-7.));
#153 = CARTESIAN_POINT('',(-4.828367674322,-6.985878006121));
#154 = CARTESIAN_POINT('',(-4.88543635243,-6.958033244504));
#155 = CARTESIAN_POINT('',(-4.941562966933,-6.917490217174));
#156 = CARTESIAN_POINT('',(-4.996465642595,-6.865880440185));
#157 = CARTESIAN_POINT('',(-5.049801346464,-6.805376827073));
#158 = CARTESIAN_POINT('',(-5.19476102468,-6.616746576571));
#159 = CARTESIAN_POINT('',(-5.283199581361,-6.472054439639));
#160 = CARTESIAN_POINT('',(-5.367369487809,-6.313941753047));
#161 = CARTESIAN_POINT('',(-5.448040128317,-6.149557651689));
#162 = CARTESIAN_POINT('',(-5.526033935163,-5.984074545763));
#163 = CARTESIAN_POINT('',(-5.602218415344,-5.821439243547));
#164 = CARTESIAN_POINT('',(-5.724276034907,-5.569380301962));
#165 = CARTESIAN_POINT('',(-5.770589187289,-5.475772525954));
#166 = CARTESIAN_POINT('',(-5.816674907686,-5.386128559035));
#167 = CARTESIAN_POINT('',(-5.862642815597,-5.301705817591));
#168 = CARTESIAN_POINT('',(-5.908604293325,-5.223810843888));
#169 = CARTESIAN_POINT('',(-5.954680603075,-5.153785108834));
#170 = CARTESIAN_POINT('',(-6.040891251313,-5.040610972555));
#171 = CARTESIAN_POINT('',(-6.081005725369,-4.995018924586));
#172 = CARTESIAN_POINT('',(-6.121266529653,-4.957300320307));
#173 = CARTESIAN_POINT('',(-6.161628445062,-4.928347376194));
#174 = CARTESIAN_POINT('',(-6.202071371831,-4.908791006052));
#175 = CARTESIAN_POINT('',(-6.242589486255,-4.898979485566));
#176 = CARTESIAN_POINT('',(-6.28318530718,-4.898979485566));
#177 = ( GEOMETRIC_REPRESENTATION_CONTEXT(2) 
PARAMETRIC_REPRESENTATION_CONTEXT() REPRESENTATION_CONTEXT('2D SPACE',''
  ) );
#178 = ORIENTED_EDGE('',*,*,#179,.T.);
#179 = EDGE_CURVE('',#83,#180,#182,.T.);
#180 = VERTEX_POINT('',#181);
#181 = CARTESIAN_POINT('',(-41.,340.,204.5));
#182 = SURFACE_CURVE('',#183,(#211,#242),.PCURVE_S1.);
#183 = B_SPLINE_CURVE_WITH_KNOTS('',6,(#184,#185,#186,#187,#188,#189,
    #190,#191,#192,#193,#194,#195,#196,#197,#198,#199,#200,#201,#202,
    #203,#204,#205,#206,#207,#208,#209,#210),.UNSPECIFIED.,.F.,.F.,(7,5,
    5,5,5,7),(0.,0.198297978195,0.426329872618,0.692316335875,
    0.871668947822,1.),.UNSPECIFIED.);
#184 = CARTESIAN_POINT('',(-43.10102051443,345.,199.5));
#185 = CARTESIAN_POINT('',(-43.10102051443,345.,199.73800689458));
#186 = CARTESIAN_POINT('',(-43.0871450676,344.98640482729,
    199.97545745799));
#187 = CARTESIAN_POINT('',(-43.05951415405,344.95933247793,
    200.21140600216));
#188 = CARTESIAN_POINT('',(-43.01891655782,344.91898838815,
    200.44483788053));
#189 = CARTESIAN_POINT('',(-42.96681334644,344.86570752492,
    200.6745416706));
#190 = CARTESIAN_POINT('',(-42.83430641685,344.72507052129,
    201.15710191195));
#191 = CARTESIAN_POINT('',(-42.75071447504,344.63367952443,
    201.40868933674));
#192 = CARTESIAN_POINT('',(-42.65671103037,344.52658258285,201.653673685
    ));
#193 = CARTESIAN_POINT('',(-42.55460763233,344.40391856091,
    201.89176573135));
#194 = CARTESIAN_POINT('',(-42.44659333765,344.26566772468,
    202.12248003014));
#195 = CARTESIAN_POINT('',(-42.20432708035,343.931856097,202.60487839215
    ));
#196 = CARTESIAN_POINT('',(-42.06869923319,343.7305852072,
    202.85366274266));
#197 = CARTESIAN_POINT('',(-41.93067920967,343.50664426216,
    203.09150248722));
#198 = CARTESIAN_POINT('',(-41.79294763078,343.25817876614,
    203.31734930046));
#199 = CARTESIAN_POINT('',(-41.65887455515,342.98300392273,
    203.52879789466));
#200 = CARTESIAN_POINT('',(-41.4481040675,342.47423682272,
    203.85167131429));
#201 = CARTESIAN_POINT('',(-41.36666367629,342.25561984171,
    203.97367015438));
#202 = CARTESIAN_POINT('',(-41.29035539439,342.02313199632,
    204.08584886487));
#203 = CARTESIAN_POINT('',(-41.22102503101,341.77676502433,
    204.18626098773));
#204 = CARTESIAN_POINT('',(-41.16065204357,341.51671592311,
    204.27275289695));
#205 = CARTESIAN_POINT('',(-41.07603154383,341.04792077606,
    204.39311903267));
#206 = CARTESIAN_POINT('',(-41.04639452089,340.84563503189,
    204.43495955391));
#207 = CARTESIAN_POINT('',(-41.02342064533,340.63810512786,
    204.46721105824));
#208 = CARTESIAN_POINT('',(-41.00782617171,340.42690903597,
    204.48904336982));
#209 = CARTESIAN_POINT('',(-41.,340.21366443212,204.5));
#210 = CARTESIAN_POINT('',(-41.,340.,204.5));
#211 = PCURVE('',#31,#212);
#212 = DEFINITIONAL_REPRESENTATION('',(#213),#241);
#213 = B_SPLINE_CURVE_WITH_KNOTS('',6,(#214,#215,#216,#217,#218,#219,
    #220,#221,#222,#223,#224,#225,#226,#227,#228,#229,#230,#231,#232,
    #233,#234,#235,#236,#237,#238,#239,#240),.UNSPECIFIED.,.F.,.F.,(7,5,
    5,5,5,7),(0.,0.198297978195,0.426329872618,0.692316335875,
    0.871668947822,1.),.UNSPECIFIED.);
#214 = CARTESIAN_POINT('',(-0.795602953485,-37.));
#215 = CARTESIAN_POINT('',(-0.795602953485,-37.23800689458));
#216 = CARTESIAN_POINT('',(-0.792827880679,-37.47545745799));
#217 = CARTESIAN_POINT('',(-0.787301619309,-37.71140600216));
#218 = CARTESIAN_POINT('',(-0.779125707834,-37.94483788053));
#219 = CARTESIAN_POINT('',(-0.768481509396,-38.1745416706));
#220 = CARTESIAN_POINT('',(-0.740877585843,-38.65710191195));
#221 = CARTESIAN_POINT('',(-0.723186013659,-38.90868933674));
#222 = CARTESIAN_POINT('',(-0.702835709057,-39.153673685));
#223 = CARTESIAN_POINT('',(-0.680050044752,-39.39176573135));
#224 = CARTESIAN_POINT('',(-0.65500241222,-39.62248003014));
#225 = CARTESIAN_POINT('',(-0.596079574023,-40.10487839215));
#226 = CARTESIAN_POINT('',(-0.56142869282,-40.35366274266));
#227 = CARTESIAN_POINT('',(-0.523898714166,-40.59150248722));
#228 = CARTESIAN_POINT('',(-0.483389051347,-40.81734930046));
#229 = CARTESIAN_POINT('',(-0.439740884529,-41.02879789466));
#230 = CARTESIAN_POINT('',(-0.361069758103,-41.35167131429));
#231 = CARTESIAN_POINT('',(-0.327763870896,-41.47367015438));
#232 = CARTESIAN_POINT('',(-0.292850675793,-41.58584886487));
#233 = CARTESIAN_POINT('',(-0.256343418339,-41.68626098773));
#234 = CARTESIAN_POINT('',(-0.218252303269,-41.77275289695));
#235 = CARTESIAN_POINT('',(-0.150199274894,-41.89311903267));
#236 = CARTESIAN_POINT('',(-0.121008805349,-41.93495955391));
#237 = CARTESIAN_POINT('',(-9.120904207569E-02,-41.96721105824));
#238 = CARTESIAN_POINT('',(-6.098701092464E-02,-41.98904336982));
#239 = CARTESIAN_POINT('',(-3.052349030379E-02,-42.));
#240 = CARTESIAN_POINT('',(0.,-42.));
#241 = ( GEOMETRIC_REPRESENTATION_CONTEXT(2) 
PARAMETRIC_REPRESENTATION_CONTEXT() REPRESENTATION_CONTEXT('2D SPACE',''
  ) );
#242 = PCURVE('',#144,#243);
#243 = DEFINITIONAL_REPRESENTATION('',(#244),#272);
#244 = B_SPLINE_CURVE_WITH_KNOTS('',6,(#245,#246,#247,#248,#249,#250,
    #251,#252,#253,#254,#255,#256,#257,#258,#259,#260,#261,#262,#263,
    #264,#265,#266,#267,#268,#269,#270,#271),.UNSPECIFIED.,.F.,.F.,(7,5,
    5,5,5,7),(0.,0.198297978195,0.426329872618,0.692316335875,
    0.871668947822,1.),.UNSPECIFIED.);
#245 = CARTESIAN_POINT('',(0.,-4.898979485566));
#246 = CARTESIAN_POINT('',(-4.760137891666E-02,-4.898979485566));
#247 = CARTESIAN_POINT('',(-9.50914350321E-02,-4.912854932394));
#248 = CARTESIAN_POINT('',(-0.142475563336,-4.940485845941));
#249 = CARTESIAN_POINT('',(-0.189739131389,-4.981083442172));
#250 = CARTESIAN_POINT('',(-0.236826487541,-5.03318665356));
#251 = CARTESIAN_POINT('',(-0.337353728291,-5.165693583147));
#252 = CARTESIAN_POINT('',(-0.390775747139,-5.249285524957));
#253 = CARTESIAN_POINT('',(-0.444088241697,-5.343288969627));
#254 = CARTESIAN_POINT('',(-0.497491173447,-5.445392367662));
#255 = CARTESIAN_POINT('',(-0.551169055952,-5.553406662344));
#256 = CARTESIAN_POINT('',(-0.668495673981,-5.795672919648));
#257 = CARTESIAN_POINT('',(-0.732317577704,-5.931300766803));
#258 = CARTESIAN_POINT('',(-0.797372270371,-6.069320790326));
#259 = CARTESIAN_POINT('',(-0.864202799566,-6.207052369215));
#260 = CARTESIAN_POINT('',(-0.933330519082,-6.341125444845));
#261 = CARTESIAN_POINT('',(-1.05384461903,-6.551895932496));
#262 = CARTESIAN_POINT('',(-1.103835267666,-6.633336323707));
#263 = CARTESIAN_POINT('',(-1.155322710439,-6.709644605602));
#264 = CARTESIAN_POINT('',(-1.208364778842,-6.77897496899));
#265 = CARTESIAN_POINT('',(-1.263042889721,-6.839347956423));
#266 = CARTESIAN_POINT('',(-1.359843074954,-6.923968456161));
#267 = CARTESIAN_POINT('',(-1.401110249928,-6.953605479103));
#268 = CARTESIAN_POINT('',(-1.443034834795,-6.976579354663));
#269 = CARTESIAN_POINT('',(-1.485414520273,-6.992173828288));
#270 = CARTESIAN_POINT('',(-1.52806344037,-7.));
#271 = CARTESIAN_POINT('',(-1.570796326795,-7.));
#272 = ( GEOMETRIC_REPRESENTATION_CONTEXT(2) 
PARAMETRIC_REPRESENTATION_CONTEXT() REPRESENTATION_CONTEXT('2D SPACE',''
  ) );
#273 = ORIENTED_EDGE('',*,*,#274,.T.);
#274 = EDGE_CURVE('',#180,#275,#277,.T.);
#275 = VERTEX_POINT('',#276);
#276 = CARTESIAN_POINT('',(-41.,340.,207.));
#277 = SEAM_CURVE('',#278,(#282,#289),.PCURVE_S1.);
#278 = LINE('',#279,#280);
#279 = CARTESIAN_POINT('',(-41.,340.,162.5));
#280 = VECTOR('',#281,1.);
#281 = DIRECTION('',(0.,0.,1.));
#282 = PCURVE('',#31,#283);
#283 = DEFINITIONAL_REPRESENTATION('',(#284),#288);
#284 = LINE('',#285,#286);
#285 = CARTESIAN_POINT('',(-6.28318530718,0.));
#286 = VECTOR('',#287,1.);
#287 = DIRECTION('',(-0.,-1.));
#288 = ( GEOMETRIC_REPRESENTATION_CONTEXT(2) 
PARAMETRIC_REPRESENTATION_CONTEXT() REPRESENTATION_CONTEXT('2D SPACE',''
  ) );
#289 = PCURVE('',#31,#290);
#290 = DEFINITIONAL_REPRESENTATION('',(#291),#295);
#291 = LINE('',#292,#293);
#292 = CARTESIAN_POINT('',(-0.,0.));
#293 = VECTOR('',#294,1.);
#294 = DIRECTION('',(-0.,-1.));
#295 = ( GEOMETRIC_REPRESENTATION_CONTEXT(2) 
PARAMETRIC_REPRESENTATION_CONTEXT() REPRESENTATION_CONTEXT('2D SPACE',''
  ) );
#296 = ORIENTED_EDGE('',*,*,#297,.T.);
#297 = EDGE_CURVE('',#275,#275,#298,.T.);
#298 = SURFACE_CURVE('',#299,(#304,#311),.PCURVE_S1.);
#299 = CIRCLE('',#300,7.);
#300 = AXIS2_PLACEMENT_3D('',#301,#302,#303);
#301 = CARTESIAN_POINT('',(-48.,340.,207.));
#302 = DIRECTION('',(0.,0.,1.));
#303 = DIRECTION('',(1.,0.,-0.));
#304 = PCURVE('',#31,#305);
#305 = DEFINITIONAL_REPRESENTATION('',(#306),#310);
#306 = LINE('',#307,#308);
#307 = CARTESIAN_POINT('',(-0.,-44.5));
#308 = VECTOR('',#309,1.);
#309 = DIRECTION('',(-1.,0.));
#310 = ( GEOMETRIC_REPRESENTATION_CONTEXT(2) 
PARAMETRIC_REPRESENTATION_CONTEXT() REPRESENTATION_CONTEXT('2D SPACE',''
  ) );
#311 = PCURVE('',#312,#317);
#312 = CONICAL_SURFACE('',#313,7.,0.785398163397);
#313 = AXIS2_PLACEMENT_3D('',#314,#315,#316);
#314 = CARTESIAN_POINT('',(-48.,340.,207.));
#315 = DIRECTION('',(-0.,-0.,-1.));
#316 = DIRECTION('',(1.,0.,0.));
#317 = DEFINITIONAL_REPRESENTATION('',(#318),#322);
#318 = LINE('',#319,#320);
#319 = CARTESIAN_POINT('',(-0.,-0.));
#320 = VECTOR('',#321,1.);
#321 = DIRECTION('',(-1.,-0.));
#322 = ( GEOMETRIC_REPRESENTATION_CONTEXT(2) 
PARAMETRIC_REPRESENTATION_CONTEXT() REPRESENTATION_CONTEXT('2D SPACE',''
  ) );
#323 = ORIENTED_EDGE('',*,*,#274,.F.);
#324 = ORIENTED_EDGE('',*,*,#325,.T.);
#325 = EDGE_CURVE('',#180,#60,#326,.T.);
#326 = SURFACE_CURVE('',#327,(#390,#456),.PCURVE_S1.);
#327 = B_SPLINE_CURVE_WITH_KNOTS('',7,(#328,#329,#330,#331,#332,#333,
    #334,#335,#336,#337,#338,#339,#340,#341,#342,#343,#344,#345,#346,
    #347,#348,#349,#350,#351,#352,#353,#354,#355,#356,#357,#358,#359,
    #360,#361,#362,#363,#364,#365,#366,#367,#368,#369,#370,#371,#372,
    #373,#374,#375,#376,#377,#378,#379,#380,#381,#382,#383,#384,#385,
    #386,#387,#388,#389),.UNSPECIFIED.,.F.,.F.,(8,6,6,6,6,6,6,6,6,6,8),(
    0.,0.101614710852,0.286956957903,0.401649944245,0.500383600865,
    0.565207500802,0.599541742119,0.713445975988,0.846308900256,
    0.935897344104,1.),.UNSPECIFIED.);
#328 = CARTESIAN_POINT('',(-41.,340.,204.5));
#329 = CARTESIAN_POINT('',(-41.,339.7089167818,204.5));
#330 = CARTESIAN_POINT('',(-41.01412199387,339.42010647887,
    204.48022949894));
#331 = CARTESIAN_POINT('',(-41.04196675549,339.13637472393,
    204.44124581745));
#332 = CARTESIAN_POINT('',(-41.08250978282,338.86046155195,
    204.38424572244));
#333 = CARTESIAN_POINT('',(-41.13411955981,338.59498192601,
    204.31106447558));
#334 = CARTESIAN_POINT('',(-41.19462317292,338.34237566631,
    204.22420951876));
#335 = CARTESIAN_POINT('',(-41.38325342343,337.67165755683,
    203.94949161738));
#336 = CARTESIAN_POINT('',(-41.52794556036,337.28184047805,
    203.73456978916));
#337 = CARTESIAN_POINT('',(-41.68605824695,336.93349145818,
    203.49238938756));
#338 = CARTESIAN_POINT('',(-41.85044234831,336.62334467917,
    203.22969146947));
#339 = CARTESIAN_POINT('',(-42.01592545423,336.34779884189,
    202.95041313979));
#340 = CARTESIAN_POINT('',(-42.17856075645,336.10370158792,
    202.65610279941));
#341 = CARTESIAN_POINT('',(-42.43061969799,335.75630798614,
    202.15433667097));
#342 = CARTESIAN_POINT('',(-42.52422747403,335.63493509258,
    201.95671964362));
#343 = CARTESIAN_POINT('',(-42.613871441,335.52484451046,201.75368226283
    ));
#344 = CARTESIAN_POINT('',(-42.69829418244,335.42599274125,
    201.54553325955));
#345 = CARTESIAN_POINT('',(-42.7761891561,335.33841528748,
    201.33249757241));
#346 = CARTESIAN_POINT('',(-42.84621489113,335.26224122552,
    201.11471367894));
#347 = CARTESIAN_POINT('',(-42.95938902744,335.14221602245,
    200.70070782453));
#348 = CARTESIAN_POINT('',(-43.00498107541,335.09527889257,
    200.50548399644));
#349 = CARTESIAN_POINT('',(-43.04269967969,335.05738031059,
    200.30741823833));
#350 = CARTESIAN_POINT('',(-43.0716526238,335.02877443444,200.1072374576
    ));
#351 = CARTESIAN_POINT('',(-43.09120899394,335.00961333354,
    199.90556987269));
#352 = CARTESIAN_POINT('',(-43.10102051443,335.,199.70297910462));
#353 = CARTESIAN_POINT('',(-43.10102051443,335.,199.36673341575));
#354 = CARTESIAN_POINT('',(-43.09679124477,335.00414432475,
    199.2335218394));
#355 = CARTESIAN_POINT('',(-43.08833829344,335.01242556095,
    199.10056216797));
#356 = CARTESIAN_POINT('',(-43.07572932591,335.02482395975,
    198.96805436724));
#357 = CARTESIAN_POINT('',(-43.05909224146,335.04130218156,
    198.83620753547));
#358 = CARTESIAN_POINT('',(-43.03861332948,335.06180004077,
    198.7052459672));
#359 = CARTESIAN_POINT('',(-43.00178246649,335.09916828036,
    198.50664983406));
#360 = CARTESIAN_POINT('',(-42.98801692978,335.11321282019,
    198.43818648087));
#361 = CARTESIAN_POINT('',(-42.97327034105,335.12835463929,
    198.37004118898));
#362 = CARTESIAN_POINT('',(-42.95757641669,335.14458483825,
    198.3022312689));
#363 = CARTESIAN_POINT('',(-42.94097106402,335.16189384891,
    198.23477531017));
#364 = CARTESIAN_POINT('',(-42.92349238136,335.18027143438,
    198.16769318134));
#365 = CARTESIAN_POINT('',(-42.84443130843,335.26418336589,
    197.87977065114));
#366 = CARTESIAN_POINT('',(-42.77459788698,335.34020876217,
    197.66319278463));
#367 = CARTESIAN_POINT('',(-42.69699822095,335.42751872788,
    197.45131960713));
#368 = CARTESIAN_POINT('',(-42.61295243122,335.52598771225,
    197.24428686657));
#369 = CARTESIAN_POINT('',(-42.52374640528,335.63558167801,
    197.04231589755));
#370 = CARTESIAN_POINT('',(-42.43061809741,335.75634409407,
    196.84571021718));
#371 = CARTESIAN_POINT('',(-42.22296130544,336.04246834636,
    196.4322259069));
#372 = CARTESIAN_POINT('',(-42.10745004667,336.21190882428,
    196.21741850033));
#373 = CARTESIAN_POINT('',(-41.98983064832,336.3973810471,
    196.01042883187));
#374 = CARTESIAN_POINT('',(-41.87165139015,336.59984095041,
    195.81170602138));
#375 = CARTESIAN_POINT('',(-41.75464103774,336.82044261768,
    195.62223681547));
#376 = CARTESIAN_POINT('',(-41.64089079539,337.06040606981,
    195.44365328635));
#377 = CARTESIAN_POINT('',(-41.46023037488,337.49649216165,
    195.16690463708));
#378 = CARTESIAN_POINT('',(-41.38993236179,337.68191815516,
    195.06118666047));
#379 = CARTESIAN_POINT('',(-41.32305894583,337.87723035072,
    194.96222772846));
#380 = CARTESIAN_POINT('',(-41.26064237981,338.08245385722,
    194.87111736574));
#381 = CARTESIAN_POINT('',(-41.20377560352,338.29753472715,
    194.78902703446));
#382 = CARTESIAN_POINT('',(-41.15360542603,338.52232213643,
    194.71722383296));
#383 = CARTESIAN_POINT('',(-41.08107356729,338.92414655825,
    194.6140528569));
#384 = CARTESIAN_POINT('',(-41.05486224173,339.09656904119,
    194.57699488072));
#385 = CARTESIAN_POINT('',(-41.033266592,339.27295348469,194.54661101503
    ));
#386 = CARTESIAN_POINT('',(-41.01673729949,339.45240748294,
    194.52343223679));
#387 = CARTESIAN_POINT('',(-41.00559012265,339.63401799369,
    194.5078261644));
#388 = CARTESIAN_POINT('',(-41.,339.81685905817,194.5));
#389 = CARTESIAN_POINT('',(-41.,340.,194.5));
#390 = PCURVE('',#31,#391);
#391 = DEFINITIONAL_REPRESENTATION('',(#392),#455);
#392 = B_SPLINE_CURVE_WITH_KNOTS('',7,(#393,#394,#395,#396,#397,#398,
    #399,#400,#401,#402,#403,#404,#405,#406,#407,#408,#409,#410,#411,
    #412,#413,#414,#415,#416,#417,#418,#419,#420,#421,#422,#423,#424,
    #425,#426,#427,#428,#429,#430,#431,#432,#433,#434,#435,#436,#437,
    #438,#439,#440,#441,#442,#443,#444,#445,#446,#447,#448,#449,#450,
    #451,#452,#453,#454),.UNSPECIFIED.,.F.,.F.,(8,6,6,6,6,6,6,6,6,6,8),(
    0.,0.101614710852,0.286956957903,0.401649944245,0.500383600865,
    0.565207500802,0.599541742119,0.713445975988,0.846308900256,
    0.935897344104,1.),.UNSPECIFIED.);
#393 = CARTESIAN_POINT('',(-6.28318530718,-42.));
#394 = CARTESIAN_POINT('',(-6.241601990294,-42.));
#395 = CARTESIAN_POINT('',(-6.200343321033,-41.98022949894));
#396 = CARTESIAN_POINT('',(-6.159692953831,-41.94124581745));
#397 = CARTESIAN_POINT('',(-6.119932471581,-41.88424572244));
#398 = CARTESIAN_POINT('',(-6.081355747171,-41.81106447558));
#399 = CARTESIAN_POINT('',(-6.044276720627,-41.72420951876));
#400 = CARTESIAN_POINT('',(-5.944742688524,-41.44949161738));
#401 = CARTESIAN_POINT('',(-5.885538099664,-41.23456978916));
#402 = CARTESIAN_POINT('',(-5.831083285079,-40.99238938756));
#403 = CARTESIAN_POINT('',(-5.781080267529,-40.72969146947));
#404 = CARTESIAN_POINT('',(-5.735247561184,-40.45041313979));
#405 = CARTESIAN_POINT('',(-5.693378856152,-40.15610279941));
#406 = CARTESIAN_POINT('',(-5.632064007171,-39.65433667097));
#407 = CARTESIAN_POINT('',(-5.61017668344,-39.45671964362));
#408 = CARTESIAN_POINT('',(-5.589905473793,-39.25368226283));
#409 = CARTESIAN_POINT('',(-5.571342164144,-39.04553325955));
#410 = CARTESIAN_POINT('',(-5.554602121526,-38.83249757241));
#411 = CARTESIAN_POINT('',(-5.539821833961,-38.61471367894));
#412 = CARTESIAN_POINT('',(-5.516254979641,-38.20070782453));
#413 = CARTESIAN_POINT('',(-5.506908181112,-38.00548399644));
#414 = CARTESIAN_POINT('',(-5.49927026707,-37.80741823833));
#415 = CARTESIAN_POINT('',(-5.493455959199,-37.6072374576));
#416 = CARTESIAN_POINT('',(-5.489544646387,-37.40556987269));
#417 = CARTESIAN_POINT('',(-5.487582353695,-37.20297910462));
#418 = CARTESIAN_POINT('',(-5.487582353695,-36.86673341575));
#419 = CARTESIAN_POINT('',(-5.488428250852,-36.7335218394));
#420 = CARTESIAN_POINT('',(-5.490118762244,-36.60056216797));
#421 = CARTESIAN_POINT('',(-5.492644970436,-36.46805436724));
#422 = CARTESIAN_POINT('',(-5.495990099347,-36.33620753547));
#423 = CARTESIAN_POINT('',(-5.500129290128,-36.2052459672));
#424 = CARTESIAN_POINT('',(-5.507624727922,-36.00664983406));
#425 = CARTESIAN_POINT('',(-5.510434104063,-35.93818648087));
#426 = CARTESIAN_POINT('',(-5.51345352615,-35.87004118898));
#427 = CARTESIAN_POINT('',(-5.516678759701,-35.8022312689));
#428 = CARTESIAN_POINT('',(-5.520105315056,-35.73477531017));
#429 = CARTESIAN_POINT('',(-5.523728447378,-35.66769318134));
#430 = CARTESIAN_POINT('',(-5.540198497812,-35.37977065114));
#431 = CARTESIAN_POINT('',(-5.554944558611,-35.16319278463));
#432 = CARTESIAN_POINT('',(-5.571628039005,-34.95131960713));
#433 = CARTESIAN_POINT('',(-5.590114882823,-34.74428686657));
#434 = CARTESIAN_POINT('',(-5.610291728866,-34.54231589755));
#435 = CARTESIAN_POINT('',(-5.63206831634,-34.34571021718));
#436 = CARTESIAN_POINT('',(-5.682573606222,-33.9322259069));
#437 = CARTESIAN_POINT('',(-5.711856362588,-33.71741850033));
#438 = CARTESIAN_POINT('',(-5.743202316448,-33.51042883187));
#439 = CARTESIAN_POINT('',(-5.776647877079,-33.31170602138));
#440 = CARTESIAN_POINT('',(-5.812267160638,-33.12223681547));
#441 = CARTESIAN_POINT('',(-5.85015694988,-32.94365328635));
#442 = CARTESIAN_POINT('',(-5.917589344904,-32.66690463708));
#443 = CARTESIAN_POINT('',(-5.94590546724,-32.56118666047));
#444 = CARTESIAN_POINT('',(-5.975371832724,-32.46222772846));
#445 = CARTESIAN_POINT('',(-6.005980600095,-32.37111736574));
#446 = CARTESIAN_POINT('',(-6.037725065817,-32.28902703446));
#447 = CARTESIAN_POINT('',(-6.070599995539,-32.21722383296));
#448 = CARTESIAN_POINT('',(-6.128931164179,-32.1140528569));
#449 = CARTESIAN_POINT('',(-6.153836367675,-32.07699488072));
#450 = CARTESIAN_POINT('',(-6.179204937987,-32.04661101503));
#451 = CARTESIAN_POINT('',(-6.204928564169,-32.02343223679));
#452 = CARTESIAN_POINT('',(-6.230902159289,-32.0078261644));
#453 = CARTESIAN_POINT('',(-6.257022315491,-32.));
#454 = CARTESIAN_POINT('',(-6.28318530718,-32.));
#455 = ( GEOMETRIC_REPRESENTATION_CONTEXT(2) 
PARAMETRIC_REPRESENTATION_CONTEXT() REPRESENTATION_CONTEXT('2D SPACE',''
  ) );
#456 = PCURVE('',#144,#457);
#457 = DEFINITIONAL_REPRESENTATION('',(#458),#521);
#458 = B_SPLINE_CURVE_WITH_KNOTS('',7,(#459,#460,#461,#462,#463,#464,
    #465,#466,#467,#468,#469,#470,#471,#472,#473,#474,#475,#476,#477,
    #478,#479,#480,#481,#482,#483,#484,#485,#486,#487,#488,#489,#490,
    #491,#492,#493,#494,#495,#496,#497,#498,#499,#500,#501,#502,#503,
    #504,#505,#506,#507,#508,#509,#510,#511,#512,#513,#514,#515,#516,
    #517,#518,#519,#520),.UNSPECIFIED.,.F.,.F.,(8,6,6,6,6,6,6,6,6,6,8),(
    0.,0.101614710852,0.286956957903,0.401649944245,0.500383600865,
    0.565207500802,0.599541742119,0.713445975988,0.846308900256,
    0.935897344104,1.),.UNSPECIFIED.);
#459 = CARTESIAN_POINT('',(-1.570796326795,-7.));
#460 = CARTESIAN_POINT('',(-1.629012970435,-7.));
#461 = CARTESIAN_POINT('',(-1.686775020732,-6.985878006121));
#462 = CARTESIAN_POINT('',(-1.74384369884,-6.958033244504));
#463 = CARTESIAN_POINT('',(-1.799970313343,-6.917490217174));
#464 = CARTESIAN_POINT('',(-1.854872989006,-6.865880440185));
#465 = CARTESIAN_POINT('',(-1.908208692875,-6.805376827073));
#466 = CARTESIAN_POINT('',(-2.053168371091,-6.61674657657));
#467 = CARTESIAN_POINT('',(-2.141606927771,-6.47205443964));
#468 = CARTESIAN_POINT('',(-2.225776834219,-6.313941753046));
#469 = CARTESIAN_POINT('',(-2.306447474727,-6.14955765169));
#470 = CARTESIAN_POINT('',(-2.384441281573,-5.984074545763));
#471 = CARTESIAN_POINT('',(-2.460625761754,-5.821439243547));
#472 = CARTESIAN_POINT('',(-2.582683381297,-5.569380302005));
#473 = CARTESIAN_POINT('',(-2.628996533694,-5.475772525964));
#474 = CARTESIAN_POINT('',(-2.675082254112,-5.386128559));
#475 = CARTESIAN_POINT('',(-2.721050162028,-5.301705817556));
#476 = CARTESIAN_POINT('',(-2.767011639736,-5.223810843896));
#477 = CARTESIAN_POINT('',(-2.813087949459,-5.153785108868));
#478 = CARTESIAN_POINT('',(-2.899298597723,-5.040610972555));
#479 = CARTESIAN_POINT('',(-2.939413071779,-4.995018924586));
#480 = CARTESIAN_POINT('',(-2.979673876063,-4.957300320307));
#481 = CARTESIAN_POINT('',(-3.020035791472,-4.928347376194));
#482 = CARTESIAN_POINT('',(-3.060478718241,-4.908791006052));
#483 = CARTESIAN_POINT('',(-3.100996832665,-4.898979485566));
#484 = CARTESIAN_POINT('',(-3.168245970438,-4.898979485566));
#485 = CARTESIAN_POINT('',(-3.194888308994,-4.903208755226));
#486 = CARTESIAN_POINT('',(-3.221511131217,-4.911661706557));
#487 = CARTESIAN_POINT('',(-3.248105342245,-4.924270674084));
#488 = CARTESIAN_POINT('',(-3.27465952884,-4.940907758534));
#489 = CARTESIAN_POINT('',(-3.301158197831,-4.961386670519));
#490 = CARTESIAN_POINT('',(-3.341574436859,-4.998217533505));
#491 = CARTESIAN_POINT('',(-3.355550379642,-5.011983070218));
#492 = CARTESIAN_POINT('',(-3.369508865142,-5.026729658946));
#493 = CARTESIAN_POINT('',(-3.383450587045,-5.042423583309));
#494 = CARTESIAN_POINT('',(-3.397375910475,-5.059028935973));
#495 = CARTESIAN_POINT('',(-3.411284871999,-5.076507618639));
#496 = CARTESIAN_POINT('',(-3.471265067278,-5.15556869157));
#497 = CARTESIAN_POINT('',(-3.517104966772,-5.225402113012));
#498 = CARTESIAN_POINT('',(-3.562832683328,-5.303001779045));
#499 = CARTESIAN_POINT('',(-3.608567866034,-5.387047568778));
#500 = CARTESIAN_POINT('',(-3.654420364897,-5.476253594718));
#501 = CARTESIAN_POINT('',(-3.70049832516,-5.569381902587));
#502 = CARTESIAN_POINT('',(-3.801063997751,-5.777038694553));
#503 = CARTESIAN_POINT('',(-3.855675401659,-5.89254995333));
#504 = CARTESIAN_POINT('',(-3.911084341389,-6.010169351673));
#505 = CARTESIAN_POINT('',(-3.96760657933,-6.12834860985));
#506 = CARTESIAN_POINT('',(-4.02554623016,-6.245358962252));
#507 = CARTESIAN_POINT('',(-4.085205905539,-6.359109204602));
#508 = CARTESIAN_POINT('',(-4.188503706942,-6.53976962512));
#509 = CARTESIAN_POINT('',(-4.231144876931,-6.610067638206));
#510 = CARTESIAN_POINT('',(-4.274849315962,-6.67694105417));
#511 = CARTESIAN_POINT('',(-4.319647680815,-6.739357620186));
#512 = CARTESIAN_POINT('',(-4.365579751662,-6.796224396475));
#513 = CARTESIAN_POINT('',(-4.412696401915,-6.846394573966));
#514 = CARTESIAN_POINT('',(-4.495667991337,-6.918926432702));
#515 = CARTESIAN_POINT('',(-4.530912282097,-6.945137758263));
#516 = CARTESIAN_POINT('',(-4.566659809156,-6.966733407995));
#517 = CARTESIAN_POINT('',(-4.602790210732,-6.983262700503));
#518 = CARTESIAN_POINT('',(-4.639192579605,-6.994409877349));
#519 = CARTESIAN_POINT('',(-4.67576079202,-7.));
#520 = CARTESIAN_POINT('',(-4.712388980385,-7.));
#521 = ( GEOMETRIC_REPRESENTATION_CONTEXT(2) 
PARAMETRIC_REPRESENTATION_CONTEXT() REPRESENTATION_CONTEXT('2D SPACE',''
  ) );
#522 = ORIENTED_EDGE('',*,*,#59,.F.);
#523 = ADVANCED_FACE('',(#524,#555),#43,.T.);
#524 = FACE_BOUND('',#525,.T.);
#525 = EDGE_LOOP('',(#526));
#526 = ORIENTED_EDGE('',*,*,#527,.T.);
#527 = EDGE_CURVE('',#528,#528,#530,.T.);
#528 = VERTEX_POINT('',#529);
#529 = CARTESIAN_POINT('',(-38.,340.,165.5));
#530 = SURFACE_CURVE('',#531,(#536,#543),.PCURVE_S1.);
#531 = CIRCLE('',#532,10.);
#532 = AXIS2_PLACEMENT_3D('',#533,#534,#535);
#533 = CARTESIAN_POINT('',(-48.,340.,165.5));
#534 = DIRECTION('',(0.,0.,1.));
#535 = DIRECTION('',(1.,0.,0.));
#536 = PCURVE('',#43,#537);
#537 = DEFINITIONAL_REPRESENTATION('',(#538),#542);
#538 = CIRCLE('',#539,10.);
#539 = AXIS2_PLACEMENT_2D('',#540,#541);
#540 = CARTESIAN_POINT('',(7.105427357601E-15,-5.684341886081E-14));
#541 = DIRECTION('',(1.,0.));
#542 = ( GEOMETRIC_REPRESENTATION_CONTEXT(2) 
PARAMETRIC_REPRESENTATION_CONTEXT() REPRESENTATION_CONTEXT('2D SPACE',''
  ) );
#543 = PCURVE('',#544,#549);
#544 = CYLINDRICAL_SURFACE('',#545,10.);
#545 = AXIS2_PLACEMENT_3D('',#546,#547,#548);
#546 = CARTESIAN_POINT('',(-48.,340.,162.5));
#547 = DIRECTION('',(-0.,-0.,-1.));
#548 = DIRECTION('',(1.,0.,0.));
#549 = DEFINITIONAL_REPRESENTATION('',(#550),#554);
#550 = LINE('',#551,#552);
#551 = CARTESIAN_POINT('',(-0.,-3.));
#552 = VECTOR('',#553,1.);
#553 = DIRECTION('',(-1.,0.));
#554 = ( GEOMETRIC_REPRESENTATION_CONTEXT(2) 
PARAMETRIC_REPRESENTATION_CONTEXT() REPRESENTATION_CONTEXT('2D SPACE',''
  ) );
#555 = FACE_BOUND('',#556,.T.);
#556 = EDGE_LOOP('',(#557));
#557 = ORIENTED_EDGE('',*,*,#21,.T.);
#558 = ADVANCED_FACE('',(#559),#144,.T.);
#559 = FACE_BOUND('',#560,.F.);
#560 = EDGE_LOOP('',(#561,#562,#585,#893,#894,#895));
#561 = ORIENTED_EDGE('',*,*,#179,.F.);
#562 = ORIENTED_EDGE('',*,*,#563,.T.);
#563 = EDGE_CURVE('',#83,#564,#566,.T.);
#564 = VERTEX_POINT('',#565);
#565 = CARTESIAN_POINT('',(43.101020514434,345.,199.5));
#566 = SEAM_CURVE('',#567,(#571,#578),.PCURVE_S1.);
#567 = LINE('',#568,#569);
#568 = CARTESIAN_POINT('',(-48.,345.,199.5));
#569 = VECTOR('',#570,1.);
#570 = DIRECTION('',(1.,0.,0.));
#571 = PCURVE('',#144,#572);
#572 = DEFINITIONAL_REPRESENTATION('',(#573),#577);
#573 = LINE('',#574,#575);
#574 = CARTESIAN_POINT('',(-6.28318530718,0.));
#575 = VECTOR('',#576,1.);
#576 = DIRECTION('',(-0.,-1.));
#577 = ( GEOMETRIC_REPRESENTATION_CONTEXT(2) 
PARAMETRIC_REPRESENTATION_CONTEXT() REPRESENTATION_CONTEXT('2D SPACE',''
  ) );
#578 = PCURVE('',#144,#579);
#579 = DEFINITIONAL_REPRESENTATION('',(#580),#584);
#580 = LINE('',#581,#582);
#581 = CARTESIAN_POINT('',(-0.,0.));
#582 = VECTOR('',#583,1.);
#583 = DIRECTION('',(-0.,-1.));
#584 = ( GEOMETRIC_REPRESENTATION_CONTEXT(2) 
PARAMETRIC_REPRESENTATION_CONTEXT() REPRESENTATION_CONTEXT('2D SPACE',''
  ) );
#585 = ORIENTED_EDGE('',*,*,#586,.T.);
#586 = EDGE_CURVE('',#564,#564,#587,.T.);
#587 = SURFACE_CURVE('',#588,(#686,#787),.PCURVE_S1.);
#588 = B_SPLINE_CURVE_WITH_KNOTS('',6,(#589,#590,#591,#592,#593,#594,
    #595,#596,#597,#598,#599,#600,#601,#602,#603,#604,#605,#606,#607,
    #608,#609,#610,#611,#612,#613,#614,#615,#616,#617,#618,#619,#620,
    #621,#622,#623,#624,#625,#626,#627,#628,#629,#630,#631,#632,#633,
    #634,#635,#636,#637,#638,#639,#640,#641,#642,#643,#644,#645,#646,
    #647,#648,#649,#650,#651,#652,#653,#654,#655,#656,#657,#658,#659,
    #660,#661,#662,#663,#664,#665,#666,#667,#668,#669,#670,#671,#672,
    #673,#674,#675,#676,#677,#678,#679,#680,#681,#682,#683,#684,#685),
  .UNSPECIFIED.,.T.,.F.,(7,5,5,5,5,5,5,5,5,5,5,5,5,5,5,5,5,5,5,7),(0.,
    4.964264870825E-02,0.106728995872,0.174754718535,0.22842304849,
    0.28230472773,0.326847039813,0.393726625356,0.451092730023,
    0.500476440948,0.532899475252,0.550072466773,0.607044060326,
    0.6749330393,0.728493486456,0.782266854026,0.826719625895,
    0.893464771194,0.950715559439,1.),.UNSPECIFIED.);
#589 = CARTESIAN_POINT('',(43.101020514434,345.,199.5));
#590 = CARTESIAN_POINT('',(43.101020514434,345.,199.73800689458));
#591 = CARTESIAN_POINT('',(43.087145067606,344.98640482729,
    199.97545745799));
#592 = CARTESIAN_POINT('',(43.059514154059,344.95933247794,
    200.21140600216));
#593 = CARTESIAN_POINT('',(43.018916557828,344.91898838815,
    200.44483788053));
#594 = CARTESIAN_POINT('',(42.96681334644,344.86570752492,200.6745416706
    ));
#595 = CARTESIAN_POINT('',(42.834306416879,344.72507052131,
    201.15710191186));
#596 = CARTESIAN_POINT('',(42.750714475043,344.63367952443,
    201.40868933678));
#597 = CARTESIAN_POINT('',(42.656711030335,344.52658258281,
    201.65367368508));
#598 = CARTESIAN_POINT('',(42.554607632329,344.40391856089,
    201.89176573136));
#599 = CARTESIAN_POINT('',(42.446593337692,344.26566772473,
    202.12248003006));
#600 = CARTESIAN_POINT('',(42.201510786411,343.92797560751,
    202.61048617096));
#601 = CARTESIAN_POINT('',(42.062850878278,343.72189871946,
    202.86437928414));
#602 = CARTESIAN_POINT('',(41.921758719747,343.49214311905,203.106853915
    ));
#603 = CARTESIAN_POINT('',(41.781081586183,343.23670449154,
    203.33677529284));
#604 = CARTESIAN_POINT('',(41.644445194892,342.95323141235,
    203.55151519952));
#605 = CARTESIAN_POINT('',(41.416026149707,342.39220640391,
    203.90025197652));
#606 = CARTESIAN_POINT('',(41.320146540277,342.12427235221,
    204.0428182089));
#607 = CARTESIAN_POINT('',(41.232430702713,341.83612517426,
    204.17041896097));
#608 = CARTESIAN_POINT('',(41.15634706422,341.5284468566,204.27933222078
    ));
#609 = CARTESIAN_POINT('',(41.095396872401,341.20238211819,
    204.36572951546));
#610 = CARTESIAN_POINT('',(41.01040565121,340.51554639368,
    204.48560153881));
#611 = CARTESIAN_POINT('',(40.98684015001,340.15729240467,
    204.51840152508));
#612 = CARTESIAN_POINT('',(40.985978762502,339.79344329908,
    204.51949817323));
#613 = CARTESIAN_POINT('',(41.008585071258,339.43292075634,
    204.48816756544));
#614 = CARTESIAN_POINT('',(41.052123298153,339.08453022087,
    204.42712666857));
#615 = CARTESIAN_POINT('',(41.160266503049,338.48541996037,
    204.27330129862));
#616 = CARTESIAN_POINT('',(41.220085031944,338.22728363397,
    204.18760759217));
#617 = CARTESIAN_POINT('',(41.288742147338,337.98260525465,
    204.0881853694));
#618 = CARTESIAN_POINT('',(41.364301387328,337.75158947017,
    203.97714250553));
#619 = CARTESIAN_POINT('',(41.444952714972,337.53424128784,
    203.85639052631));
#620 = CARTESIAN_POINT('',(41.655286383285,337.0243991692,
    203.53445083866));
#621 = CARTESIAN_POINT('',(41.789892035583,336.74738193047,
    203.32234681307));
#622 = CARTESIAN_POINT('',(41.928245732027,336.49735435577,
    203.09567196679));
#623 = CARTESIAN_POINT('',(42.066925502358,336.27209648882,
    202.85687659268));
#624 = CARTESIAN_POINT('',(42.203211939332,336.06972674396,
    202.60703043357));
#625 = CARTESIAN_POINT('',(42.446678585754,335.73417524676,
    202.12236872773));
#626 = CARTESIAN_POINT('',(42.555247029359,335.5952390309,
    201.89046000994));
#627 = CARTESIAN_POINT('',(42.657839749676,335.47204862019,
    201.65109895261));
#628 = CARTESIAN_POINT('',(42.752233426065,335.36458490273,
    201.40477900233));
#629 = CARTESIAN_POINT('',(42.836078481227,335.27299124931,
    201.15179399764));
#630 = CARTESIAN_POINT('',(42.968114973558,335.13296184575,
    200.66878716763));
#631 = CARTESIAN_POINT('',(43.019727516157,335.08020571129,
    200.44016272797));
#632 = CARTESIAN_POINT('',(43.059928802346,335.04026126005,
    200.2078598711));
#633 = CARTESIAN_POINT('',(43.087284385753,335.01345866696,
    199.97307423961));
#634 = CARTESIAN_POINT('',(43.101020514434,335.,199.73680895539));
#635 = CARTESIAN_POINT('',(43.101020514434,335.,199.34452231838));
#636 = CARTESIAN_POINT('',(43.09509953691,335.00580205466,
    199.18912164781));
#637 = CARTESIAN_POINT('',(43.083267360843,335.01739319066,
    199.0341425581));
#638 = CARTESIAN_POINT('',(43.06567861268,335.03473165186,
    198.87993677943));
#639 = CARTESIAN_POINT('',(43.042626313432,335.05772850582,
    198.72688442556));
#640 = CARTESIAN_POINT('',(42.999656973281,335.10132478534,
    198.49518893689));
#641 = CARTESIAN_POINT('',(42.983360912382,335.11796803413,
    198.41538549846));
#642 = CARTESIAN_POINT('',(42.965702412559,335.13614459316,
    198.33603295687));
#643 = CARTESIAN_POINT('',(42.946741755533,335.15583849837,
    198.25716235161));
#644 = CARTESIAN_POINT('',(42.926544335264,335.17703222528,
    198.17880770657));
#645 = CARTESIAN_POINT('',(42.834306416889,335.27492947867,
    197.84289808817));
#646 = CARTESIAN_POINT('',(42.75071447504,335.36632047556,
    197.59131066319));
#647 = CARTESIAN_POINT('',(42.65671103032,335.4734174172,197.34632631488
    ));
#648 = CARTESIAN_POINT('',(42.55460763233,335.5960814391,197.10823426864
    ));
#649 = CARTESIAN_POINT('',(42.446593337703,335.73433227524,
    196.87751996995));
#650 = CARTESIAN_POINT('',(42.201510786411,336.07202439248,
    196.38951382903));
#651 = CARTESIAN_POINT('',(42.062850878278,336.27810128053,
    196.13562071585));
#652 = CARTESIAN_POINT('',(41.921758719747,336.50785688094,
    195.89314608499));
#653 = CARTESIAN_POINT('',(41.781081586183,336.76329550845,
    195.66322470715));
#654 = CARTESIAN_POINT('',(41.644445194892,337.04676858764,
    195.44848480047));
#655 = CARTESIAN_POINT('',(41.416026149706,337.60779359608,
    195.09974802347));
#656 = CARTESIAN_POINT('',(41.32014654028,337.87572764778,
    194.95718179109));
#657 = CARTESIAN_POINT('',(41.232430702712,338.16387482573,
    194.82958103902));
#658 = CARTESIAN_POINT('',(41.156347064219,338.4715531434,
    194.72066777921));
#659 = CARTESIAN_POINT('',(41.095396872402,338.79761788179,
    194.63427048454));
#660 = CARTESIAN_POINT('',(41.01040565121,339.48445360631,
    194.51439846118));
#661 = CARTESIAN_POINT('',(40.98684015001,339.84270759532,
    194.48159847491));
#662 = CARTESIAN_POINT('',(40.985978762501,340.20655670091,
    194.48050182676));
#663 = CARTESIAN_POINT('',(41.008585071258,340.56707924365,
    194.51183243455));
#664 = CARTESIAN_POINT('',(41.052123298153,340.91546977912,
    194.57287333142));
#665 = CARTESIAN_POINT('',(41.160266500497,341.51458002548,
    194.72669869774));
#666 = CARTESIAN_POINT('',(41.22008503705,341.77271638523,
    194.81239241536));
#667 = CARTESIAN_POINT('',(41.288742146789,342.01739474782,
    194.91181462962));
#668 = CARTESIAN_POINT('',(41.364301381976,342.2484105119,
    195.02285748647));
#669 = CARTESIAN_POINT('',(41.444952718737,342.46575872128,
    195.14360947944));
#670 = CARTESIAN_POINT('',(41.655286383286,342.97560083079,
    195.46554916134));
#671 = CARTESIAN_POINT('',(41.789892035582,343.25261806952,
    195.67765318692));
#672 = CARTESIAN_POINT('',(41.928245732028,343.50264564422,
    195.9043280332));
#673 = CARTESIAN_POINT('',(42.066925502357,343.72790351117,
    196.14312340731));
#674 = CARTESIAN_POINT('',(42.203211939332,343.93027325603,
    196.39296956642));
#675 = CARTESIAN_POINT('',(42.446678585712,344.26582475317,
    196.87763127218));
#676 = CARTESIAN_POINT('',(42.555247029367,344.40476096911,
    197.10953999006));
#677 = CARTESIAN_POINT('',(42.657839749721,344.52795137985,
    197.34890104747));
#678 = CARTESIAN_POINT('',(42.752233426067,344.63541509726,
    197.59522099771));
#679 = CARTESIAN_POINT('',(42.836078481196,344.72700875065,
    197.84820600224));
#680 = CARTESIAN_POINT('',(42.968114973558,344.86703815424,
    198.33121283237));
#681 = CARTESIAN_POINT('',(43.019727516156,344.9197942887,
    198.55983727202));
#682 = CARTESIAN_POINT('',(43.059928802346,344.95973873994,
    198.7921401289));
#683 = CARTESIAN_POINT('',(43.087284385753,344.98654133303,
    199.02692576038));
#684 = CARTESIAN_POINT('',(43.101020514434,345.,199.2631910446));
#685 = CARTESIAN_POINT('',(43.101020514434,345.,199.5));
#686 = PCURVE('',#144,#687);
#687 = DEFINITIONAL_REPRESENTATION('',(#688),#786);
#688 = B_SPLINE_CURVE_WITH_KNOTS('',6,(#689,#690,#691,#692,#693,#694,
    #695,#696,#697,#698,#699,#700,#701,#702,#703,#704,#705,#706,#707,
    #708,#709,#710,#711,#712,#713,#714,#715,#716,#717,#718,#719,#720,
    #721,#722,#723,#724,#725,#726,#727,#728,#729,#730,#731,#732,#733,
    #734,#735,#736,#737,#738,#739,#740,#741,#742,#743,#744,#745,#746,
    #747,#748,#749,#750,#751,#752,#753,#754,#755,#756,#757,#758,#759,
    #760,#761,#762,#763,#764,#765,#766,#767,#768,#769,#770,#771,#772,
    #773,#774,#775,#776,#777,#778,#779,#780,#781,#782,#783,#784,#785),
  .UNSPECIFIED.,.F.,.F.,(7,5,5,5,5,5,5,5,5,5,5,5,5,5,5,5,5,5,5,7),(0.,
    4.964264870825E-02,0.106728995872,0.174754718535,0.22842304849,
    0.28230472773,0.326847039813,0.393726625356,0.451092730023,
    0.500476440948,0.532899475252,0.550072466773,0.607044060326,
    0.6749330393,0.728493486456,0.782266854026,0.826719625895,
    0.893464771194,0.950715559439,1.),.UNSPECIFIED.);
#689 = CARTESIAN_POINT('',(0.,-91.10102051443));
#690 = CARTESIAN_POINT('',(-4.760137891665E-02,-91.10102051443));
#691 = CARTESIAN_POINT('',(-9.509143503206E-02,-91.0871450676));
#692 = CARTESIAN_POINT('',(-0.142475563336,-91.05951415405));
#693 = CARTESIAN_POINT('',(-0.189739131389,-91.01891655782));
#694 = CARTESIAN_POINT('',(-0.236826487541,-90.96681334644));
#695 = CARTESIAN_POINT('',(-0.337353728271,-90.83430641687));
#696 = CARTESIAN_POINT('',(-0.390775747147,-90.75071447504));
#697 = CARTESIAN_POINT('',(-0.444088241714,-90.65671103033));
#698 = CARTESIAN_POINT('',(-0.497491173451,-90.55460763232));
#699 = CARTESIAN_POINT('',(-0.551169055935,-90.44659333769));
#700 = CARTESIAN_POINT('',(-0.669859571071,-90.20151078641));
#701 = CARTESIAN_POINT('',(-0.735068657896,-90.06285087827));
#702 = CARTESIAN_POINT('',(-0.801577255047,-89.92175871974));
#703 = CARTESIAN_POINT('',(-0.8699657302,-89.78108158618));
#704 = CARTESIAN_POINT('',(-0.940789499748,-89.64444519489));
#705 = CARTESIAN_POINT('',(-1.072905569887,-89.4160261497));
#706 = CARTESIAN_POINT('',(-1.133469282105,-89.32014654027));
#707 = CARTESIAN_POINT('',(-1.196241914519,-89.23243070271));
#708 = CARTESIAN_POINT('',(-1.261212479334,-89.15634706422));
#709 = CARTESIAN_POINT('',(-1.328425262759,-89.0953968724));
#710 = CARTESIAN_POINT('',(-1.467868816136,-89.01040565121));
#711 = CARTESIAN_POINT('',(-1.53958050687,-88.98684015001));
#712 = CARTESIAN_POINT('',(-1.611918334672,-88.9859787625));
#713 = CARTESIAN_POINT('',(-1.683875092378,-89.00858507125));
#714 = CARTESIAN_POINT('',(-1.754400146547,-89.05212329815));
#715 = CARTESIAN_POINT('',(-1.878108731322,-89.16026650304));
#716 = CARTESIAN_POINT('',(-1.9323765835,-89.22008503194));
#717 = CARTESIAN_POINT('',(-1.985034831499,-89.28874214733));
#718 = CARTESIAN_POINT('',(-2.036161290645,-89.36430138732));
#719 = CARTESIAN_POINT('',(-2.085810512057,-89.44495271497));
#720 = CARTESIAN_POINT('',(-2.206406390664,-89.65528638328));
#721 = CARTESIAN_POINT('',(-2.275901425118,-89.78989203558));
#722 = CARTESIAN_POINT('',(-2.34306973197,-89.92824573202));
#723 = CARTESIAN_POINT('',(-2.408440141465,-90.06692550235));
#724 = CARTESIAN_POINT('',(-2.472562909005,-90.20321193933));
#725 = CARTESIAN_POINT('',(-2.590459775185,-90.44667858575));
#726 = CARTESIAN_POINT('',(-2.644411237103,-90.55524702935));
#727 = CARTESIAN_POINT('',(-2.698085516844,-90.65783974967));
#728 = CARTESIAN_POINT('',(-2.751669688898,-90.75223342606));
#729 = CARTESIAN_POINT('',(-2.805366516829,-90.83607848122));
#730 = CARTESIAN_POINT('',(-2.905945606445,-90.96811497355));
#731 = CARTESIAN_POINT('',(-2.952800057913,-91.01972751615));
#732 = CARTESIAN_POINT('',(-2.999829239676,-91.05992880234));
#733 = CARTESIAN_POINT('',(-3.046977860533,-91.08728438575));
#734 = CARTESIAN_POINT('',(-3.094230862511,-91.10102051443));
#735 = CARTESIAN_POINT('',(-3.172688189913,-91.10102051443));
#736 = CARTESIAN_POINT('',(-3.203768356627,-91.09509953691));
#737 = CARTESIAN_POINT('',(-3.23481821216,-91.08326736084));
#738 = CARTESIAN_POINT('',(-3.265821515692,-91.06567861268));
#739 = CARTESIAN_POINT('',(-3.296754561711,-91.04262631343));
#740 = CARTESIAN_POINT('',(-3.343906840577,-90.99965697328));
#741 = CARTESIAN_POINT('',(-3.360207795268,-90.98336091238));
#742 = CARTESIAN_POINT('',(-3.376484667548,-90.96570241255));
#743 = CARTESIAN_POINT('',(-3.392738479708,-90.94674175553));
#744 = CARTESIAN_POINT('',(-3.408969487395,-90.92654433526));
#745 = CARTESIAN_POINT('',(-3.478946381853,-90.83430641688));
#746 = CARTESIAN_POINT('',(-3.532368400741,-90.75071447504));
#747 = CARTESIAN_POINT('',(-3.58568089531,-90.65671103032));
#748 = CARTESIAN_POINT('',(-3.63908382704,-90.55460763233));
#749 = CARTESIAN_POINT('',(-3.692761709519,-90.4465933377));
#750 = CARTESIAN_POINT('',(-3.811452224661,-90.20151078641));
#751 = CARTESIAN_POINT('',(-3.876661311486,-90.06285087827));
#752 = CARTESIAN_POINT('',(-3.943169908637,-89.92175871974));
#753 = CARTESIAN_POINT('',(-4.01155838379,-89.78108158618));
#754 = CARTESIAN_POINT('',(-4.082382153338,-89.64444519489));
#755 = CARTESIAN_POINT('',(-4.214498223478,-89.4160261497));
#756 = CARTESIAN_POINT('',(-4.275061935693,-89.32014654028));
#757 = CARTESIAN_POINT('',(-4.337834568109,-89.23243070271));
#758 = CARTESIAN_POINT('',(-4.402805132926,-89.15634706421));
#759 = CARTESIAN_POINT('',(-4.470017916348,-89.0953968724));
#760 = CARTESIAN_POINT('',(-4.609461469725,-89.01040565121));
#761 = CARTESIAN_POINT('',(-4.681173160459,-88.98684015001));
#762 = CARTESIAN_POINT('',(-4.753510988262,-88.9859787625));
#763 = CARTESIAN_POINT('',(-4.825467745968,-89.00858507125));
#764 = CARTESIAN_POINT('',(-4.895992800137,-89.05212329815));
#765 = CARTESIAN_POINT('',(-5.019701381993,-89.16026650049));
#766 = CARTESIAN_POINT('',(-5.073969241258,-89.22008503705));
#767 = CARTESIAN_POINT('',(-5.126627485471,-89.28874214678));
#768 = CARTESIAN_POINT('',(-5.177753940272,-89.36430138197));
#769 = CARTESIAN_POINT('',(-5.227403167805,-89.44495271873));
#770 = CARTESIAN_POINT('',(-5.347999044254,-89.65528638328));
#771 = CARTESIAN_POINT('',(-5.417494078707,-89.78989203558));
#772 = CARTESIAN_POINT('',(-5.48466238556,-89.92824573202));
#773 = CARTESIAN_POINT('',(-5.550032795055,-90.06692550235));
#774 = CARTESIAN_POINT('',(-5.614155562595,-90.20321193933));
#775 = CARTESIAN_POINT('',(-5.732052428754,-90.44667858571));
#776 = CARTESIAN_POINT('',(-5.786003890696,-90.55524702936));
#777 = CARTESIAN_POINT('',(-5.839678170454,-90.65783974972));
#778 = CARTESIAN_POINT('',(-5.893262342498,-90.75223342606));
#779 = CARTESIAN_POINT('',(-5.946959170395,-90.83607848119));
#780 = CARTESIAN_POINT('',(-6.047538260035,-90.96811497355));
#781 = CARTESIAN_POINT('',(-6.094392711502,-91.01972751615));
#782 = CARTESIAN_POINT('',(-6.141421893266,-91.05992880234));
#783 = CARTESIAN_POINT('',(-6.188570514123,-91.08728438575));
#784 = CARTESIAN_POINT('',(-6.2358235161,-91.10102051443));
#785 = CARTESIAN_POINT('',(-6.28318530718,-91.10102051443));
#786 = ( GEOMETRIC_REPRESENTATION_CONTEXT(2) 
PARAMETRIC_REPRESENTATION_CONTEXT() REPRESENTATION_CONTEXT('2D SPACE',''
  ) );
#787 = PCURVE('',#788,#793);
#788 = CYLINDRICAL_SURFACE('',#789,7.);
#789 = AXIS2_PLACEMENT_3D('',#790,#791,#792);
#790 = CARTESIAN_POINT('',(48.,340.,162.5));
#791 = DIRECTION('',(-0.,-0.,-1.));
#792 = DIRECTION('',(1.,0.,0.));
#793 = DEFINITIONAL_REPRESENTATION('',(#794),#892);
#794 = B_SPLINE_CURVE_WITH_KNOTS('',6,(#795,#796,#797,#798,#799,#800,
    #801,#802,#803,#804,#805,#806,#807,#808,#809,#810,#811,#812,#813,
    #814,#815,#816,#817,#818,#819,#820,#821,#822,#823,#824,#825,#826,
    #827,#828,#829,#830,#831,#832,#833,#834,#835,#836,#837,#838,#839,
    #840,#841,#842,#843,#844,#845,#846,#847,#848,#849,#850,#851,#852,
    #853,#854,#855,#856,#857,#858,#859,#860,#861,#862,#863,#864,#865,
    #866,#867,#868,#869,#870,#871,#872,#873,#874,#875,#876,#877,#878,
    #879,#880,#881,#882,#883,#884,#885,#886,#887,#888,#889,#890,#891),
  .UNSPECIFIED.,.T.,.F.,(7,5,5,5,5,5,5,5,5,5,5,5,5,5,5,5,5,5,5,7),(0.,
    4.964264870825E-02,0.106728995872,0.174754718535,0.22842304849,
    0.28230472773,0.326847039813,0.393726625356,0.451092730023,
    0.500476440948,0.532899475252,0.550072466773,0.607044060326,
    0.6749330393,0.728493486456,0.782266854026,0.826719625895,
    0.893464771194,0.950715559439,1.),.UNSPECIFIED.);
#795 = CARTESIAN_POINT('',(-2.345989700105,-37.));
#796 = CARTESIAN_POINT('',(-2.345989700105,-37.23800689458));
#797 = CARTESIAN_POINT('',(-2.348764772911,-37.47545745799));
#798 = CARTESIAN_POINT('',(-2.354291034281,-37.71140600216));
#799 = CARTESIAN_POINT('',(-2.362466945756,-37.94483788053));
#800 = CARTESIAN_POINT('',(-2.373111144194,-38.1745416706));
#801 = CARTESIAN_POINT('',(-2.400715067741,-38.65710191186));
#802 = CARTESIAN_POINT('',(-2.418406639931,-38.90868933678));
#803 = CARTESIAN_POINT('',(-2.43875694454,-39.15367368508));
#804 = CARTESIAN_POINT('',(-2.46154260884,-39.39176573136));
#805 = CARTESIAN_POINT('',(-2.486590241361,-39.62248003006));
#806 = CARTESIAN_POINT('',(-2.546198045084,-40.11048617096));
#807 = CARTESIAN_POINT('',(-2.581659003914,-40.36437928414));
#808 = CARTESIAN_POINT('',(-2.620122828606,-40.606853915));
#809 = CARTESIAN_POINT('',(-2.661701994831,-40.83677529284));
#810 = CARTESIAN_POINT('',(-2.706569220002,-41.05151519952));
#811 = CARTESIAN_POINT('',(-2.793103903422,-41.40025197652));
#812 = CARTESIAN_POINT('',(-2.833719546294,-41.5428182089));
#813 = CARTESIAN_POINT('',(-2.876669874478,-41.67041896097));
#814 = CARTESIAN_POINT('',(-2.921842150803,-41.77933222078));
#815 = CARTESIAN_POINT('',(-2.969139541732,-41.86572951546));
#816 = CARTESIAN_POINT('',(-3.068007297165,-41.98560153881));
#817 = CARTESIAN_POINT('',(-3.119212762284,-42.01840152508));
#818 = CARTESIAN_POINT('',(-3.171030206001,-42.01949817323));
#819 = CARTESIAN_POINT('',(-3.222480893011,-41.98816756544));
#820 = CARTESIAN_POINT('',(-3.272564571909,-41.92712666857));
#821 = CARTESIAN_POINT('',(-3.359534899596,-41.77330129862));
#822 = CARTESIAN_POINT('',(-3.397343034185,-41.68760759217));
#823 = CARTESIAN_POINT('',(-3.433593207856,-41.5881853694));
#824 = CARTESIAN_POINT('',(-3.468274047999,-41.47714250553));
#825 = CARTESIAN_POINT('',(-3.501371133165,-41.35639052631));
#826 = CARTESIAN_POINT('',(-3.58016034277,-41.03445083866));
#827 = CARTESIAN_POINT('',(-3.624076872171,-40.82234681307));
#828 = CARTESIAN_POINT('',(-3.664823530019,-40.59567196679));
#829 = CARTESIAN_POINT('',(-3.702562312515,-40.35687659268));
#830 = CARTESIAN_POINT('',(-3.737395652672,-40.10703043357));
#831 = CARTESIAN_POINT('',(-3.796620374342,-39.62236872773));
#832 = CARTESIAN_POINT('',(-3.821793638526,-39.39046000994));
#833 = CARTESIAN_POINT('',(-3.844681623301,-39.15109895261));
#834 = CARTESIAN_POINT('',(-3.86510802771,-38.90477900233));
#835 = CARTESIAN_POINT('',(-3.882845368085,-38.65179399764));
#836 = CARTESIAN_POINT('',(-3.910340031451,-38.16878716763));
#837 = CARTESIAN_POINT('',(-3.920881678941,-37.94016272797));
#838 = CARTESIAN_POINT('',(-3.928977204768,-37.7078598711));
#839 = CARTESIAN_POINT('',(-3.934448397305,-37.47307423961));
#840 = CARTESIAN_POINT('',(-3.937195607074,-37.23680895539));
#841 = CARTESIAN_POINT('',(-3.937195607074,-36.84452231838));
#842 = CARTESIAN_POINT('',(-3.936011351055,-36.68912164781));
#843 = CARTESIAN_POINT('',(-3.933645084128,-36.5341425581));
#844 = CARTESIAN_POINT('',(-3.930116865275,-36.37993677943));
#845 = CARTESIAN_POINT('',(-3.925465351792,-36.22688442556));
#846 = CARTESIAN_POINT('',(-3.916720674366,-35.99518893689));
#847 = CARTESIAN_POINT('',(-3.913393129643,-35.91538549846));
#848 = CARTESIAN_POINT('',(-3.909772913351,-35.83603295687));
#849 = CARTESIAN_POINT('',(-3.90586758469,-35.75716235161));
#850 = CARTESIAN_POINT('',(-3.901685298271,-35.67880770657));
#851 = CARTESIAN_POINT('',(-3.88247023944,-35.34289808817));
#852 = CARTESIAN_POINT('',(-3.864778667249,-35.09131066319));
#853 = CARTESIAN_POINT('',(-3.844428362636,-34.84632631488));
#854 = CARTESIAN_POINT('',(-3.821642698339,-34.60823426864));
#855 = CARTESIAN_POINT('',(-3.796595065822,-34.37751996995));
#856 = CARTESIAN_POINT('',(-3.736987262095,-33.88951382903));
#857 = CARTESIAN_POINT('',(-3.701526303266,-33.63562071585));
#858 = CARTESIAN_POINT('',(-3.663062478573,-33.39314608499));
#859 = CARTESIAN_POINT('',(-3.621483312349,-33.16322470715));
#860 = CARTESIAN_POINT('',(-3.576616087178,-32.94848480047));
#861 = CARTESIAN_POINT('',(-3.490081403757,-32.59974802347));
#862 = CARTESIAN_POINT('',(-3.449465760886,-32.45718179109));
#863 = CARTESIAN_POINT('',(-3.406515432702,-32.32958103902));
#864 = CARTESIAN_POINT('',(-3.361343156375,-32.22066777921));
#865 = CARTESIAN_POINT('',(-3.314045765448,-32.13427048454));
#866 = CARTESIAN_POINT('',(-3.215178010015,-32.01439846118));
#867 = CARTESIAN_POINT('',(-3.163972544896,-31.98159847491));
#868 = CARTESIAN_POINT('',(-3.112155101179,-31.98050182676));
#869 = CARTESIAN_POINT('',(-3.060704414168,-32.01183243455));
#870 = CARTESIAN_POINT('',(-3.010620735271,-32.07287333142));
#871 = CARTESIAN_POINT('',(-2.923650409636,-32.22669869774));
#872 = CARTESIAN_POINT('',(-2.885842270143,-32.31239241536));
#873 = CARTESIAN_POINT('',(-2.849592099005,-32.41181462962));
#874 = CARTESIAN_POINT('',(-2.814911261864,-32.52285748647));
#875 = CARTESIAN_POINT('',(-2.781814172605,-32.64360947944));
#876 = CARTESIAN_POINT('',(-2.703024964409,-32.96554916134));
#877 = CARTESIAN_POINT('',(-2.659108435009,-33.17765318692));
#878 = CARTESIAN_POINT('',(-2.61836177716,-33.4043280332));
#879 = CARTESIAN_POINT('',(-2.580622994664,-33.64312340731));
#880 = CARTESIAN_POINT('',(-2.545789654508,-33.89296956642));
#881 = CARTESIAN_POINT('',(-2.486564932848,-34.37763127218));
#882 = CARTESIAN_POINT('',(-2.461391668651,-34.60953999006));
#883 = CARTESIAN_POINT('',(-2.438503683869,-34.84890104747));
#884 = CARTESIAN_POINT('',(-2.418077279469,-35.09522099771));
#885 = CARTESIAN_POINT('',(-2.400339939102,-35.34820600224));
#886 = CARTESIAN_POINT('',(-2.372845275729,-35.83121283237));
#887 = CARTESIAN_POINT('',(-2.362303628239,-36.05983727202));
#888 = CARTESIAN_POINT('',(-2.354208102411,-36.2921401289));
#889 = CARTESIAN_POINT('',(-2.348736909874,-36.52692576038));
#890 = CARTESIAN_POINT('',(-2.345989700105,-36.7631910446));
#891 = CARTESIAN_POINT('',(-2.345989700105,-37.));
#892 = ( GEOMETRIC_REPRESENTATION_CONTEXT(2) 
PARAMETRIC_REPRESENTATION_CONTEXT() REPRESENTATION_CONTEXT('2D SPACE',''
  ) );
#893 = ORIENTED_EDGE('',*,*,#563,.F.);
#894 = ORIENTED_EDGE('',*,*,#82,.F.);
#895 = ORIENTED_EDGE('',*,*,#325,.F.);
#896 = ADVANCED_FACE('',(#897),#312,.T.);
#897 = FACE_BOUND('',#898,.T.);
#898 = EDGE_LOOP('',(#899,#920,#921,#922));
#899 = ORIENTED_EDGE('',*,*,#900,.F.);
#900 = EDGE_CURVE('',#275,#901,#903,.T.);
#901 = VERTEX_POINT('',#902);
#902 = CARTESIAN_POINT('',(-42.5,340.,208.5));
#903 = SEAM_CURVE('',#904,(#908,#914),.PCURVE_S1.);
#904 = LINE('',#905,#906);
#905 = CARTESIAN_POINT('',(-41.,340.,207.));
#906 = VECTOR('',#907,1.);
#907 = DIRECTION('',(-0.707106781187,0.,0.707106781187));
#908 = PCURVE('',#312,#909);
#909 = DEFINITIONAL_REPRESENTATION('',(#910),#913);
#910 = B_SPLINE_CURVE_WITH_KNOTS('',1,(#911,#912),.UNSPECIFIED.,.F.,.F.,
  (2,2),(0.,2.12132034356),.PIECEWISE_BEZIER_KNOTS.);
#911 = CARTESIAN_POINT('',(0.,0.));
#912 = CARTESIAN_POINT('',(0.,-1.5));
#913 = ( GEOMETRIC_REPRESENTATION_CONTEXT(2) 
PARAMETRIC_REPRESENTATION_CONTEXT() REPRESENTATION_CONTEXT('2D SPACE',''
  ) );
#914 = PCURVE('',#312,#915);
#915 = DEFINITIONAL_REPRESENTATION('',(#916),#919);
#916 = B_SPLINE_CURVE_WITH_KNOTS('',1,(#917,#918),.UNSPECIFIED.,.F.,.F.,
  (2,2),(0.,2.12132034356),.PIECEWISE_BEZIER_KNOTS.);
#917 = CARTESIAN_POINT('',(-6.28318530718,0.));
#918 = CARTESIAN_POINT('',(-6.28318530718,-1.5));
#919 = ( GEOMETRIC_REPRESENTATION_CONTEXT(2) 
PARAMETRIC_REPRESENTATION_CONTEXT() REPRESENTATION_CONTEXT('2D SPACE',''
  ) );
#920 = ORIENTED_EDGE('',*,*,#297,.T.);
#921 = ORIENTED_EDGE('',*,*,#900,.T.);
#922 = ORIENTED_EDGE('',*,*,#923,.F.);
#923 = EDGE_CURVE('',#901,#901,#924,.T.);
#924 = SURFACE_CURVE('',#925,(#930,#937),.PCURVE_S1.);
#925 = CIRCLE('',#926,5.5);
#926 = AXIS2_PLACEMENT_3D('',#927,#928,#929);
#927 = CARTESIAN_POINT('',(-48.,340.,208.5));
#928 = DIRECTION('',(0.,0.,1.));
#929 = DIRECTION('',(1.,0.,-0.));
#930 = PCURVE('',#312,#931);
#931 = DEFINITIONAL_REPRESENTATION('',(#932),#936);
#932 = LINE('',#933,#934);
#933 = CARTESIAN_POINT('',(-0.,-1.5));
#934 = VECTOR('',#935,1.);
#935 = DIRECTION('',(-1.,-0.));
#936 = ( GEOMETRIC_REPRESENTATION_CONTEXT(2) 
PARAMETRIC_REPRESENTATION_CONTEXT() REPRESENTATION_CONTEXT('2D SPACE',''
  ) );
#937 = PCURVE('',#938,#943);
#938 = PLANE('',#939);
#939 = AXIS2_PLACEMENT_3D('',#940,#941,#942);
#940 = CARTESIAN_POINT('',(-48.,340.,208.5));
#941 = DIRECTION('',(0.,0.,1.));
#942 = DIRECTION('',(1.,0.,-0.));
#943 = DEFINITIONAL_REPRESENTATION('',(#944),#948);
#944 = CIRCLE('',#945,5.5);
#945 = AXIS2_PLACEMENT_2D('',#946,#947);
#946 = CARTESIAN_POINT('',(0.,0.));
#947 = DIRECTION('',(1.,0.));
#948 = ( GEOMETRIC_REPRESENTATION_CONTEXT(2) 
PARAMETRIC_REPRESENTATION_CONTEXT() REPRESENTATION_CONTEXT('2D SPACE',''
  ) );
#949 = ADVANCED_FACE('',(#950),#544,.T.);
#950 = FACE_BOUND('',#951,.F.);
#951 = EDGE_LOOP('',(#952,#975,#976,#977));
#952 = ORIENTED_EDGE('',*,*,#953,.T.);
#953 = EDGE_CURVE('',#954,#528,#956,.T.);
#954 = VERTEX_POINT('',#955);
#955 = CARTESIAN_POINT('',(-38.,340.,162.5));
#956 = SEAM_CURVE('',#957,(#961,#968),.PCURVE_S1.);
#957 = LINE('',#958,#959);
#958 = CARTESIAN_POINT('',(-38.,340.,162.5));
#959 = VECTOR('',#960,1.);
#960 = DIRECTION('',(0.,0.,1.));
#961 = PCURVE('',#544,#962);
#962 = DEFINITIONAL_REPRESENTATION('',(#963),#967);
#963 = LINE('',#964,#965);
#964 = CARTESIAN_POINT('',(-0.,0.));
#965 = VECTOR('',#966,1.);
#966 = DIRECTION('',(-0.,-1.));
#967 = ( GEOMETRIC_REPRESENTATION_CONTEXT(2) 
PARAMETRIC_REPRESENTATION_CONTEXT() REPRESENTATION_CONTEXT('2D SPACE',''
  ) );
#968 = PCURVE('',#544,#969);
#969 = DEFINITIONAL_REPRESENTATION('',(#970),#974);
#970 = LINE('',#971,#972);
#971 = CARTESIAN_POINT('',(-6.28318530718,0.));
#972 = VECTOR('',#973,1.);
#973 = DIRECTION('',(-0.,-1.));
#974 = ( GEOMETRIC_REPRESENTATION_CONTEXT(2) 
PARAMETRIC_REPRESENTATION_CONTEXT() REPRESENTATION_CONTEXT('2D SPACE',''
  ) );
#975 = ORIENTED_EDGE('',*,*,#527,.T.);
#976 = ORIENTED_EDGE('',*,*,#953,.F.);
#977 = ORIENTED_EDGE('',*,*,#978,.F.);
#978 = EDGE_CURVE('',#954,#954,#979,.T.);
#979 = SURFACE_CURVE('',#980,(#985,#992),.PCURVE_S1.);
#980 = CIRCLE('',#981,10.);
#981 = AXIS2_PLACEMENT_3D('',#982,#983,#984);
#982 = CARTESIAN_POINT('',(-48.,340.,162.5));
#983 = DIRECTION('',(0.,0.,1.));
#984 = DIRECTION('',(1.,0.,0.));
#985 = PCURVE('',#544,#986);
#986 = DEFINITIONAL_REPRESENTATION('',(#987),#991);
#987 = LINE('',#988,#989);
#988 = CARTESIAN_POINT('',(-0.,0.));
#989 = VECTOR('',#990,1.);
#990 = DIRECTION('',(-1.,0.));
#991 = ( GEOMETRIC_REPRESENTATION_CONTEXT(2) 
PARAMETRIC_REPRESENTATION_CONTEXT() REPRESENTATION_CONTEXT('2D SPACE',''
  ) );
#992 = PCURVE('',#993,#998);
#993 = PLANE('',#994);
#994 = AXIS2_PLACEMENT_3D('',#995,#996,#997);
#995 = CARTESIAN_POINT('',(-48.,340.,162.5));
#996 = DIRECTION('',(0.,0.,1.));
#997 = DIRECTION('',(1.,0.,-0.));
#998 = DEFINITIONAL_REPRESENTATION('',(#999),#1003);
#999 = CIRCLE('',#1000,10.);
#1000 = AXIS2_PLACEMENT_2D('',#1001,#1002);
#1001 = CARTESIAN_POINT('',(0.,0.));
#1002 = DIRECTION('',(1.,0.));
#1003 = ( GEOMETRIC_REPRESENTATION_CONTEXT(2) 
PARAMETRIC_REPRESENTATION_CONTEXT() REPRESENTATION_CONTEXT('2D SPACE',''
  ) );
#1004 = ADVANCED_FACE('',(#1005,#1091),#788,.T.);
#1005 = FACE_BOUND('',#1006,.F.);
#1006 = EDGE_LOOP('',(#1007,#1036,#1059,#1090));
#1007 = ORIENTED_EDGE('',*,*,#1008,.T.);
#1008 = EDGE_CURVE('',#1009,#1009,#1011,.T.);
#1009 = VERTEX_POINT('',#1010);
#1010 = CARTESIAN_POINT('',(55.,340.,207.));
#1011 = SURFACE_CURVE('',#1012,(#1017,#1024),.PCURVE_S1.);
#1012 = CIRCLE('',#1013,7.);
#1013 = AXIS2_PLACEMENT_3D('',#1014,#1015,#1016);
#1014 = CARTESIAN_POINT('',(48.,340.,207.));
#1015 = DIRECTION('',(0.,0.,1.));
#1016 = DIRECTION('',(1.,0.,-0.));
#1017 = PCURVE('',#788,#1018);
#1018 = DEFINITIONAL_REPRESENTATION('',(#1019),#1023);
#1019 = LINE('',#1020,#1021);
#1020 = CARTESIAN_POINT('',(-0.,-44.5));
#1021 = VECTOR('',#1022,1.);
#1022 = DIRECTION('',(-1.,0.));
#1023 = ( GEOMETRIC_REPRESENTATION_CONTEXT(2) 
PARAMETRIC_REPRESENTATION_CONTEXT() REPRESENTATION_CONTEXT('2D SPACE',''
  ) );
#1024 = PCURVE('',#1025,#1030);
#1025 = CONICAL_SURFACE('',#1026,7.,0.785398163397);
#1026 = AXIS2_PLACEMENT_3D('',#1027,#1028,#1029);
#1027 = CARTESIAN_POINT('',(48.,340.,207.));
#1028 = DIRECTION('',(-0.,-0.,-1.));
#1029 = DIRECTION('',(1.,0.,0.));
#1030 = DEFINITIONAL_REPRESENTATION('',(#1031),#1035);
#1031 = LINE('',#1032,#1033);
#1032 = CARTESIAN_POINT('',(-0.,-0.));
#1033 = VECTOR('',#1034,1.);
#1034 = DIRECTION('',(-1.,-0.));
#1035 = ( GEOMETRIC_REPRESENTATION_CONTEXT(2) 
PARAMETRIC_REPRESENTATION_CONTEXT() REPRESENTATION_CONTEXT('2D SPACE',''
  ) );
#1036 = ORIENTED_EDGE('',*,*,#1037,.F.);
#1037 = EDGE_CURVE('',#1038,#1009,#1040,.T.);
#1038 = VERTEX_POINT('',#1039);
#1039 = CARTESIAN_POINT('',(55.,340.,165.5));
#1040 = SEAM_CURVE('',#1041,(#1045,#1052),.PCURVE_S1.);
#1041 = LINE('',#1042,#1043);
#1042 = CARTESIAN_POINT('',(55.,340.,162.5));
#1043 = VECTOR('',#1044,1.);
#1044 = DIRECTION('',(0.,0.,1.));
#1045 = PCURVE('',#788,#1046);
#1046 = DEFINITIONAL_REPRESENTATION('',(#1047),#1051);
#1047 = LINE('',#1048,#1049);
#1048 = CARTESIAN_POINT('',(-0.,0.));
#1049 = VECTOR('',#1050,1.);
#1050 = DIRECTION('',(-0.,-1.));
#1051 = ( GEOMETRIC_REPRESENTATION_CONTEXT(2) 
PARAMETRIC_REPRESENTATION_CONTEXT() REPRESENTATION_CONTEXT('2D SPACE',''
  ) );
#1052 = PCURVE('',#788,#1053);
#1053 = DEFINITIONAL_REPRESENTATION('',(#1054),#1058);
#1054 = LINE('',#1055,#1056);
#1055 = CARTESIAN_POINT('',(-6.28318530718,0.));
#1056 = VECTOR('',#1057,1.);
#1057 = DIRECTION('',(-0.,-1.));
#1058 = ( GEOMETRIC_REPRESENTATION_CONTEXT(2) 
PARAMETRIC_REPRESENTATION_CONTEXT() REPRESENTATION_CONTEXT('2D SPACE',''
  ) );
#1059 = ORIENTED_EDGE('',*,*,#1060,.T.);
#1060 = EDGE_CURVE('',#1038,#1038,#1061,.T.);
#1061 = SURFACE_CURVE('',#1062,(#1067,#1074),.PCURVE_S1.);
#1062 = CIRCLE('',#1063,7.);
#1063 = AXIS2_PLACEMENT_3D('',#1064,#1065,#1066);
#1064 = CARTESIAN_POINT('',(48.,340.,165.5));
#1065 = DIRECTION('',(0.,0.,-1.));
#1066 = DIRECTION('',(1.,0.,0.));
#1067 = PCURVE('',#788,#1068);
#1068 = DEFINITIONAL_REPRESENTATION('',(#1069),#1073);
#1069 = LINE('',#1070,#1071);
#1070 = CARTESIAN_POINT('',(-6.28318530718,-3.));
#1071 = VECTOR('',#1072,1.);
#1072 = DIRECTION('',(1.,-0.));
#1073 = ( GEOMETRIC_REPRESENTATION_CONTEXT(2) 
PARAMETRIC_REPRESENTATION_CONTEXT() REPRESENTATION_CONTEXT('2D SPACE',''
  ) );
#1074 = PCURVE('',#1075,#1080);
#1075 = PLANE('',#1076);
#1076 = AXIS2_PLACEMENT_3D('',#1077,#1078,#1079);
#1077 = CARTESIAN_POINT('',(48.,340.,165.5));
#1078 = DIRECTION('',(0.,0.,1.));
#1079 = DIRECTION('',(1.,0.,-0.));
#1080 = DEFINITIONAL_REPRESENTATION('',(#1081),#1089);
#1081 = ( BOUNDED_CURVE() B_SPLINE_CURVE(2,(#1082,#1083,#1084,#1085,
#1086,#1087,#1088),.UNSPECIFIED.,.T.,.F.) B_SPLINE_CURVE_WITH_KNOTS((1,2
    ,2,2,2,1),(-2.094395102393,0.,2.094395102393,4.188790204786,
6.28318530718,8.377580409573),.UNSPECIFIED.) CURVE() 
GEOMETRIC_REPRESENTATION_ITEM() RATIONAL_B_SPLINE_CURVE((1.,0.5,1.,0.5,
1.,0.5,1.)) REPRESENTATION_ITEM('') );
#1082 = CARTESIAN_POINT('',(7.,-5.684341886081E-14));
#1083 = CARTESIAN_POINT('',(7.,-12.12435565298));
#1084 = CARTESIAN_POINT('',(-3.5,-6.062177826491));
#1085 = CARTESIAN_POINT('',(-14.,-5.855792437961E-14));
#1086 = CARTESIAN_POINT('',(-3.5,6.062177826491));
#1087 = CARTESIAN_POINT('',(7.,12.124355652982));
#1088 = CARTESIAN_POINT('',(7.,-5.684341886081E-14));
#1089 = ( GEOMETRIC_REPRESENTATION_CONTEXT(2) 
PARAMETRIC_REPRESENTATION_CONTEXT() REPRESENTATION_CONTEXT('2D SPACE',''
  ) );
#1090 = ORIENTED_EDGE('',*,*,#1037,.T.);
#1091 = FACE_BOUND('',#1092,.F.);
#1092 = EDGE_LOOP('',(#1093));
#1093 = ORIENTED_EDGE('',*,*,#586,.F.);
#1094 = ADVANCED_FACE('',(#1095),#938,.T.);
#1095 = FACE_BOUND('',#1096,.T.);
#1096 = EDGE_LOOP('',(#1097));
#1097 = ORIENTED_EDGE('',*,*,#923,.T.);
#1098 = ADVANCED_FACE('',(#1099,#1102),#993,.F.);
#1099 = FACE_BOUND('',#1100,.F.);
#1100 = EDGE_LOOP('',(#1101));
#1101 = ORIENTED_EDGE('',*,*,#978,.T.);
#1102 = FACE_BOUND('',#1103,.F.);
#1103 = EDGE_LOOP('',(#1104));
#1104 = ORIENTED_EDGE('',*,*,#1105,.T.);
#1105 = EDGE_CURVE('',#1106,#1106,#1108,.T.);
#1106 = VERTEX_POINT('',#1107);
#1107 = CARTESIAN_POINT('',(-45.,340.,162.5));
#1108 = SURFACE_CURVE('',#1109,(#1114,#1125),.PCURVE_S1.);
#1109 = CIRCLE('',#1110,3.);
#1110 = AXIS2_PLACEMENT_3D('',#1111,#1112,#1113);
#1111 = CARTESIAN_POINT('',(-48.,340.,162.5));
#1112 = DIRECTION('',(0.,0.,-1.));
#1113 = DIRECTION('',(1.,0.,0.));
#1114 = PCURVE('',#993,#1115);
#1115 = DEFINITIONAL_REPRESENTATION('',(#1116),#1124);
#1116 = ( BOUNDED_CURVE() B_SPLINE_CURVE(2,(#1117,#1118,#1119,#1120,
#1121,#1122,#1123),.UNSPECIFIED.,.T.,.F.) B_SPLINE_CURVE_WITH_KNOTS((1,2
    ,2,2,2,1),(-2.094395102393,0.,2.094395102393,4.188790204786,
6.28318530718,8.377580409573),.UNSPECIFIED.) CURVE() 
GEOMETRIC_REPRESENTATION_ITEM() RATIONAL_B_SPLINE_CURVE((1.,0.5,1.,0.5,
1.,0.5,1.)) REPRESENTATION_ITEM('') );
#1117 = CARTESIAN_POINT('',(3.,0.));
#1118 = CARTESIAN_POINT('',(3.,-5.196152422707));
#1119 = CARTESIAN_POINT('',(-1.5,-2.598076211353));
#1120 = CARTESIAN_POINT('',(-6.,-7.347880794884E-16));
#1121 = CARTESIAN_POINT('',(-1.5,2.598076211353));
#1122 = CARTESIAN_POINT('',(3.,5.196152422707));
#1123 = CARTESIAN_POINT('',(3.,0.));
#1124 = ( GEOMETRIC_REPRESENTATION_CONTEXT(2) 
PARAMETRIC_REPRESENTATION_CONTEXT() REPRESENTATION_CONTEXT('2D SPACE',''
  ) );
#1125 = PCURVE('',#1126,#1131);
#1126 = CYLINDRICAL_SURFACE('',#1127,3.);
#1127 = AXIS2_PLACEMENT_3D('',#1128,#1129,#1130);
#1128 = CARTESIAN_POINT('',(-48.,340.,161.5));
#1129 = DIRECTION('',(-0.,-0.,-1.));
#1130 = DIRECTION('',(1.,0.,0.));
#1131 = DEFINITIONAL_REPRESENTATION('',(#1132),#1136);
#1132 = LINE('',#1133,#1134);
#1133 = CARTESIAN_POINT('',(-6.28318530718,-1.));
#1134 = VECTOR('',#1135,1.);
#1135 = DIRECTION('',(1.,-0.));
#1136 = ( GEOMETRIC_REPRESENTATION_CONTEXT(2) 
PARAMETRIC_REPRESENTATION_CONTEXT() REPRESENTATION_CONTEXT('2D SPACE',''
  ) );
#1137 = ADVANCED_FACE('',(#1138),#1025,.T.);
#1138 = FACE_BOUND('',#1139,.T.);
#1139 = EDGE_LOOP('',(#1140,#1161,#1162,#1163));
#1140 = ORIENTED_EDGE('',*,*,#1141,.F.);
#1141 = EDGE_CURVE('',#1009,#1142,#1144,.T.);
#1142 = VERTEX_POINT('',#1143);
#1143 = CARTESIAN_POINT('',(53.5,340.,208.5));
#1144 = SEAM_CURVE('',#1145,(#1149,#1155),.PCURVE_S1.);
#1145 = LINE('',#1146,#1147);
#1146 = CARTESIAN_POINT('',(55.,340.,207.));
#1147 = VECTOR('',#1148,1.);
#1148 = DIRECTION('',(-0.707106781187,0.,0.707106781187));
#1149 = PCURVE('',#1025,#1150);
#1150 = DEFINITIONAL_REPRESENTATION('',(#1151),#1154);
#1151 = B_SPLINE_CURVE_WITH_KNOTS('',1,(#1152,#1153),.UNSPECIFIED.,.F.,
  .F.,(2,2),(0.,2.12132034356),.PIECEWISE_BEZIER_KNOTS.);
#1152 = CARTESIAN_POINT('',(0.,0.));
#1153 = CARTESIAN_POINT('',(0.,-1.5));
#1154 = ( GEOMETRIC_REPRESENTATION_CONTEXT(2) 
PARAMETRIC_REPRESENTATION_CONTEXT() REPRESENTATION_CONTEXT('2D SPACE',''
  ) );
#1155 = PCURVE('',#1025,#1156);
#1156 = DEFINITIONAL_REPRESENTATION('',(#1157),#1160);
#1157 = B_SPLINE_CURVE_WITH_KNOTS('',1,(#1158,#1159),.UNSPECIFIED.,.F.,
  .F.,(2,2),(0.,2.12132034356),.PIECEWISE_BEZIER_KNOTS.);
#1158 = CARTESIAN_POINT('',(-6.28318530718,0.));
#1159 = CARTESIAN_POINT('',(-6.28318530718,-1.5));
#1160 = ( GEOMETRIC_REPRESENTATION_CONTEXT(2) 
PARAMETRIC_REPRESENTATION_CONTEXT() REPRESENTATION_CONTEXT('2D SPACE',''
  ) );
#1161 = ORIENTED_EDGE('',*,*,#1008,.T.);
#1162 = ORIENTED_EDGE('',*,*,#1141,.T.);
#1163 = ORIENTED_EDGE('',*,*,#1164,.F.);
#1164 = EDGE_CURVE('',#1142,#1142,#1165,.T.);
#1165 = SURFACE_CURVE('',#1166,(#1171,#1178),.PCURVE_S1.);
#1166 = CIRCLE('',#1167,5.5);
#1167 = AXIS2_PLACEMENT_3D('',#1168,#1169,#1170);
#1168 = CARTESIAN_POINT('',(48.,340.,208.5));
#1169 = DIRECTION('',(0.,0.,1.));
#1170 = DIRECTION('',(1.,0.,-0.));
#1171 = PCURVE('',#1025,#1172);
#1172 = DEFINITIONAL_REPRESENTATION('',(#1173),#1177);
#1173 = LINE('',#1174,#1175);
#1174 = CARTESIAN_POINT('',(-0.,-1.5));
#1175 = VECTOR('',#1176,1.);
#1176 = DIRECTION('',(-1.,-0.));
#1177 = ( GEOMETRIC_REPRESENTATION_CONTEXT(2) 
PARAMETRIC_REPRESENTATION_CONTEXT() REPRESENTATION_CONTEXT('2D SPACE',''
  ) );
#1178 = PCURVE('',#1179,#1184);
#1179 = PLANE('',#1180);
#1180 = AXIS2_PLACEMENT_3D('',#1181,#1182,#1183);
#1181 = CARTESIAN_POINT('',(48.,340.,208.5));
#1182 = DIRECTION('',(0.,0.,1.));
#1183 = DIRECTION('',(1.,0.,-0.));
#1184 = DEFINITIONAL_REPRESENTATION('',(#1185),#1189);
#1185 = CIRCLE('',#1186,5.5);
#1186 = AXIS2_PLACEMENT_2D('',#1187,#1188);
#1187 = CARTESIAN_POINT('',(0.,0.));
#1188 = DIRECTION('',(1.,0.));
#1189 = ( GEOMETRIC_REPRESENTATION_CONTEXT(2) 
PARAMETRIC_REPRESENTATION_CONTEXT() REPRESENTATION_CONTEXT('2D SPACE',''
  ) );
#1190 = ADVANCED_FACE('',(#1191,#1222),#1075,.T.);
#1191 = FACE_BOUND('',#1192,.T.);
#1192 = EDGE_LOOP('',(#1193));
#1193 = ORIENTED_EDGE('',*,*,#1194,.T.);
#1194 = EDGE_CURVE('',#1195,#1195,#1197,.T.);
#1195 = VERTEX_POINT('',#1196);
#1196 = CARTESIAN_POINT('',(58.,340.,165.5));
#1197 = SURFACE_CURVE('',#1198,(#1203,#1210),.PCURVE_S1.);
#1198 = CIRCLE('',#1199,10.);
#1199 = AXIS2_PLACEMENT_3D('',#1200,#1201,#1202);
#1200 = CARTESIAN_POINT('',(48.,340.,165.5));
#1201 = DIRECTION('',(0.,0.,1.));
#1202 = DIRECTION('',(1.,0.,0.));
#1203 = PCURVE('',#1075,#1204);
#1204 = DEFINITIONAL_REPRESENTATION('',(#1205),#1209);
#1205 = CIRCLE('',#1206,10.);
#1206 = AXIS2_PLACEMENT_2D('',#1207,#1208);
#1207 = CARTESIAN_POINT('',(-7.105427357601E-15,-5.684341886081E-14));
#1208 = DIRECTION('',(1.,0.));
#1209 = ( GEOMETRIC_REPRESENTATION_CONTEXT(2) 
PARAMETRIC_REPRESENTATION_CONTEXT() REPRESENTATION_CONTEXT('2D SPACE',''
  ) );
#1210 = PCURVE('',#1211,#1216);
#1211 = CYLINDRICAL_SURFACE('',#1212,10.);
#1212 = AXIS2_PLACEMENT_3D('',#1213,#1214,#1215);
#1213 = CARTESIAN_POINT('',(48.,340.,162.5));
#1214 = DIRECTION('',(-0.,-0.,-1.));
#1215 = DIRECTION('',(1.,0.,0.));
#1216 = DEFINITIONAL_REPRESENTATION('',(#1217),#1221);
#1217 = LINE('',#1218,#1219);
#1218 = CARTESIAN_POINT('',(-0.,-3.));
#1219 = VECTOR('',#1220,1.);
#1220 = DIRECTION('',(-1.,0.));
#1221 = ( GEOMETRIC_REPRESENTATION_CONTEXT(2) 
PARAMETRIC_REPRESENTATION_CONTEXT() REPRESENTATION_CONTEXT('2D SPACE',''
  ) );
#1222 = FACE_BOUND('',#1223,.T.);
#1223 = EDGE_LOOP('',(#1224));
#1224 = ORIENTED_EDGE('',*,*,#1060,.T.);
#1225 = ADVANCED_FACE('',(#1226),#1126,.F.);
#1226 = FACE_BOUND('',#1227,.T.);
#1227 = EDGE_LOOP('',(#1228,#1229,#1252,#1279));
#1228 = ORIENTED_EDGE('',*,*,#1105,.T.);
#1229 = ORIENTED_EDGE('',*,*,#1230,.T.);
#1230 = EDGE_CURVE('',#1106,#1231,#1233,.T.);
#1231 = VERTEX_POINT('',#1232);
#1232 = CARTESIAN_POINT('',(-45.,340.,176.5));
#1233 = SEAM_CURVE('',#1234,(#1238,#1245),.PCURVE_S1.);
#1234 = LINE('',#1235,#1236);
#1235 = CARTESIAN_POINT('',(-45.,340.,161.5));
#1236 = VECTOR('',#1237,1.);
#1237 = DIRECTION('',(0.,0.,1.));
#1238 = PCURVE('',#1126,#1239);
#1239 = DEFINITIONAL_REPRESENTATION('',(#1240),#1244);
#1240 = LINE('',#1241,#1242);
#1241 = CARTESIAN_POINT('',(-6.28318530718,0.));
#1242 = VECTOR('',#1243,1.);
#1243 = DIRECTION('',(-0.,-1.));
#1244 = ( GEOMETRIC_REPRESENTATION_CONTEXT(2) 
PARAMETRIC_REPRESENTATION_CONTEXT() REPRESENTATION_CONTEXT('2D SPACE',''
  ) );
#1245 = PCURVE('',#1126,#1246);
#1246 = DEFINITIONAL_REPRESENTATION('',(#1247),#1251);
#1247 = LINE('',#1248,#1249);
#1248 = CARTESIAN_POINT('',(-0.,0.));
#1249 = VECTOR('',#1250,1.);
#1250 = DIRECTION('',(-0.,-1.));
#1251 = ( GEOMETRIC_REPRESENTATION_CONTEXT(2) 
PARAMETRIC_REPRESENTATION_CONTEXT() REPRESENTATION_CONTEXT('2D SPACE',''
  ) );
#1252 = ORIENTED_EDGE('',*,*,#1253,.T.);
#1253 = EDGE_CURVE('',#1231,#1231,#1254,.T.);
#1254 = SURFACE_CURVE('',#1255,(#1260,#1267),.PCURVE_S1.);
#1255 = CIRCLE('',#1256,3.);
#1256 = AXIS2_PLACEMENT_3D('',#1257,#1258,#1259);
#1257 = CARTESIAN_POINT('',(-48.,340.,176.5));
#1258 = DIRECTION('',(0.,0.,1.));
#1259 = DIRECTION('',(1.,0.,0.));
#1260 = PCURVE('',#1126,#1261);
#1261 = DEFINITIONAL_REPRESENTATION('',(#1262),#1266);
#1262 = LINE('',#1263,#1264);
#1263 = CARTESIAN_POINT('',(-0.,-15.));
#1264 = VECTOR('',#1265,1.);
#1265 = DIRECTION('',(-1.,0.));
#1266 = ( GEOMETRIC_REPRESENTATION_CONTEXT(2) 
PARAMETRIC_REPRESENTATION_CONTEXT() REPRESENTATION_CONTEXT('2D SPACE',''
  ) );
#1267 = PCURVE('',#1268,#1273);
#1268 = PLANE('',#1269);
#1269 = AXIS2_PLACEMENT_3D('',#1270,#1271,#1272);
#1270 = CARTESIAN_POINT('',(-48.,340.,176.5));
#1271 = DIRECTION('',(0.,0.,1.));
#1272 = DIRECTION('',(1.,0.,-0.));
#1273 = DEFINITIONAL_REPRESENTATION('',(#1274),#1278);
#1274 = CIRCLE('',#1275,3.);
#1275 = AXIS2_PLACEMENT_2D('',#1276,#1277);
#1276 = CARTESIAN_POINT('',(0.,5.684341886081E-14));
#1277 = DIRECTION('',(1.,0.));
#1278 = ( GEOMETRIC_REPRESENTATION_CONTEXT(2) 
PARAMETRIC_REPRESENTATION_CONTEXT() REPRESENTATION_CONTEXT('2D SPACE',''
  ) );
#1279 = ORIENTED_EDGE('',*,*,#1230,.F.);
#1280 = ADVANCED_FACE('',(#1281),#1179,.T.);
#1281 = FACE_BOUND('',#1282,.T.);
#1282 = EDGE_LOOP('',(#1283));
#1283 = ORIENTED_EDGE('',*,*,#1164,.T.);
#1284 = ADVANCED_FACE('',(#1285),#1211,.T.);
#1285 = FACE_BOUND('',#1286,.F.);
#1286 = EDGE_LOOP('',(#1287,#1310,#1311,#1312));
#1287 = ORIENTED_EDGE('',*,*,#1288,.T.);
#1288 = EDGE_CURVE('',#1289,#1195,#1291,.T.);
#1289 = VERTEX_POINT('',#1290);
#1290 = CARTESIAN_POINT('',(58.,340.,162.5));
#1291 = SEAM_CURVE('',#1292,(#1296,#1303),.PCURVE_S1.);
#1292 = LINE('',#1293,#1294);
#1293 = CARTESIAN_POINT('',(58.,340.,162.5));
#1294 = VECTOR('',#1295,1.);
#1295 = DIRECTION('',(0.,0.,1.));
#1296 = PCURVE('',#1211,#1297);
#1297 = DEFINITIONAL_REPRESENTATION('',(#1298),#1302);
#1298 = LINE('',#1299,#1300);
#1299 = CARTESIAN_POINT('',(-0.,0.));
#1300 = VECTOR('',#1301,1.);
#1301 = DIRECTION('',(-0.,-1.));
#1302 = ( GEOMETRIC_REPRESENTATION_CONTEXT(2) 
PARAMETRIC_REPRESENTATION_CONTEXT() REPRESENTATION_CONTEXT('2D SPACE',''
  ) );
#1303 = PCURVE('',#1211,#1304);
#1304 = DEFINITIONAL_REPRESENTATION('',(#1305),#1309);
#1305 = LINE('',#1306,#1307);
#1306 = CARTESIAN_POINT('',(-6.28318530718,0.));
#1307 = VECTOR('',#1308,1.);
#1308 = DIRECTION('',(-0.,-1.));
#1309 = ( GEOMETRIC_REPRESENTATION_CONTEXT(2) 
PARAMETRIC_REPRESENTATION_CONTEXT() REPRESENTATION_CONTEXT('2D SPACE',''
  ) );
#1310 = ORIENTED_EDGE('',*,*,#1194,.T.);
#1311 = ORIENTED_EDGE('',*,*,#1288,.F.);
#1312 = ORIENTED_EDGE('',*,*,#1313,.F.);
#1313 = EDGE_CURVE('',#1289,#1289,#1314,.T.);
#1314 = SURFACE_CURVE('',#1315,(#1320,#1327),.PCURVE_S1.);
#1315 = CIRCLE('',#1316,10.);
#1316 = AXIS2_PLACEMENT_3D('',#1317,#1318,#1319);
#1317 = CARTESIAN_POINT('',(48.,340.,162.5));
#1318 = DIRECTION('',(0.,0.,1.));
#1319 = DIRECTION('',(1.,0.,0.));
#1320 = PCURVE('',#1211,#1321);
#1321 = DEFINITIONAL_REPRESENTATION('',(#1322),#1326);
#1322 = LINE('',#1323,#1324);
#1323 = CARTESIAN_POINT('',(-0.,0.));
#1324 = VECTOR('',#1325,1.);
#1325 = DIRECTION('',(-1.,0.));
#1326 = ( GEOMETRIC_REPRESENTATION_CONTEXT(2) 
PARAMETRIC_REPRESENTATION_CONTEXT() REPRESENTATION_CONTEXT('2D SPACE',''
  ) );
#1327 = PCURVE('',#1328,#1333);
#1328 = PLANE('',#1329);
#1329 = AXIS2_PLACEMENT_3D('',#1330,#1331,#1332);
#1330 = CARTESIAN_POINT('',(48.,340.,162.5));
#1331 = DIRECTION('',(0.,0.,1.));
#1332 = DIRECTION('',(1.,0.,-0.));
#1333 = DEFINITIONAL_REPRESENTATION('',(#1334),#1338);
#1334 = CIRCLE('',#1335,10.);
#1335 = AXIS2_PLACEMENT_2D('',#1336,#1337);
#1336 = CARTESIAN_POINT('',(0.,0.));
#1337 = DIRECTION('',(1.,0.));
#1338 = ( GEOMETRIC_REPRESENTATION_CONTEXT(2) 
PARAMETRIC_REPRESENTATION_CONTEXT() REPRESENTATION_CONTEXT('2D SPACE',''
  ) );
#1339 = ADVANCED_FACE('',(#1340),#1268,.F.);
#1340 = FACE_BOUND('',#1341,.F.);
#1341 = EDGE_LOOP('',(#1342));
#1342 = ORIENTED_EDGE('',*,*,#1253,.T.);
#1343 = ADVANCED_FACE('',(#1344,#1347),#1328,.F.);
#1344 = FACE_BOUND('',#1345,.F.);
#1345 = EDGE_LOOP('',(#1346));
#1346 = ORIENTED_EDGE('',*,*,#1313,.T.);
#1347 = FACE_BOUND('',#1348,.F.);
#1348 = EDGE_LOOP('',(#1349));
#1349 = ORIENTED_EDGE('',*,*,#1350,.T.);
#1350 = EDGE_CURVE('',#1351,#1351,#1353,.T.);
#1351 = VERTEX_POINT('',#1352);
#1352 = CARTESIAN_POINT('',(51.,340.,162.5));
#1353 = SURFACE_CURVE('',#1354,(#1359,#1370),.PCURVE_S1.);
#1354 = CIRCLE('',#1355,3.);
#1355 = AXIS2_PLACEMENT_3D('',#1356,#1357,#1358);
#1356 = CARTESIAN_POINT('',(48.,340.,162.5));
#1357 = DIRECTION('',(0.,0.,-1.));
#1358 = DIRECTION('',(1.,0.,0.));
#1359 = PCURVE('',#1328,#1360);
#1360 = DEFINITIONAL_REPRESENTATION('',(#1361),#1369);
#1361 = ( BOUNDED_CURVE() B_SPLINE_CURVE(2,(#1362,#1363,#1364,#1365,
#1366,#1367,#1368),.UNSPECIFIED.,.T.,.F.) B_SPLINE_CURVE_WITH_KNOTS((1,2
    ,2,2,2,1),(-2.094395102393,0.,2.094395102393,4.188790204786,
6.28318530718,8.377580409573),.UNSPECIFIED.) CURVE() 
GEOMETRIC_REPRESENTATION_ITEM() RATIONAL_B_SPLINE_CURVE((1.,0.5,1.,0.5,
1.,0.5,1.)) REPRESENTATION_ITEM('') );
#1362 = CARTESIAN_POINT('',(3.,0.));
#1363 = CARTESIAN_POINT('',(3.,-5.196152422707));
#1364 = CARTESIAN_POINT('',(-1.5,-2.598076211353));
#1365 = CARTESIAN_POINT('',(-6.,-7.347880794884E-16));
#1366 = CARTESIAN_POINT('',(-1.5,2.598076211353));
#1367 = CARTESIAN_POINT('',(3.,5.196152422707));
#1368 = CARTESIAN_POINT('',(3.,0.));
#1369 = ( GEOMETRIC_REPRESENTATION_CONTEXT(2) 
PARAMETRIC_REPRESENTATION_CONTEXT() REPRESENTATION_CONTEXT('2D SPACE',''
  ) );
#1370 = PCURVE('',#1371,#1376);
#1371 = CYLINDRICAL_SURFACE('',#1372,3.);
#1372 = AXIS2_PLACEMENT_3D('',#1373,#1374,#1375);
#1373 = CARTESIAN_POINT('',(48.,340.,161.5));
#1374 = DIRECTION('',(-0.,-0.,-1.));
#1375 = DIRECTION('',(1.,0.,0.));
#1376 = DEFINITIONAL_REPRESENTATION('',(#1377),#1381);
#1377 = LINE('',#1378,#1379);
#1378 = CARTESIAN_POINT('',(-6.28318530718,-1.));
#1379 = VECTOR('',#1380,1.);
#1380 = DIRECTION('',(1.,-0.));
#1381 = ( GEOMETRIC_REPRESENTATION_CONTEXT(2) 
PARAMETRIC_REPRESENTATION_CONTEXT() REPRESENTATION_CONTEXT('2D SPACE',''
  ) );
#1382 = ADVANCED_FACE('',(#1383),#1371,.F.);
#1383 = FACE_BOUND('',#1384,.T.);
#1384 = EDGE_LOOP('',(#1385,#1386,#1409,#1436));
#1385 = ORIENTED_EDGE('',*,*,#1350,.T.);
#1386 = ORIENTED_EDGE('',*,*,#1387,.T.);
#1387 = EDGE_CURVE('',#1351,#1388,#1390,.T.);
#1388 = VERTEX_POINT('',#1389);
#1389 = CARTESIAN_POINT('',(51.,340.,176.5));
#1390 = SEAM_CURVE('',#1391,(#1395,#1402),.PCURVE_S1.);
#1391 = LINE('',#1392,#1393);
#1392 = CARTESIAN_POINT('',(51.,340.,161.5));
#1393 = VECTOR('',#1394,1.);
#1394 = DIRECTION('',(0.,0.,1.));
#1395 = PCURVE('',#1371,#1396);
#1396 = DEFINITIONAL_REPRESENTATION('',(#1397),#1401);
#1397 = LINE('',#1398,#1399);
#1398 = CARTESIAN_POINT('',(-6.28318530718,0.));
#1399 = VECTOR('',#1400,1.);
#1400 = DIRECTION('',(-0.,-1.));
#1401 = ( GEOMETRIC_REPRESENTATION_CONTEXT(2) 
PARAMETRIC_REPRESENTATION_CONTEXT() REPRESENTATION_CONTEXT('2D SPACE',''
  ) );
#1402 = PCURVE('',#1371,#1403);
#1403 = DEFINITIONAL_REPRESENTATION('',(#1404),#1408);
#1404 = LINE('',#1405,#1406);
#1405 = CARTESIAN_POINT('',(-0.,0.));
#1406 = VECTOR('',#1407,1.);
#1407 = DIRECTION('',(-0.,-1.));
#1408 = ( GEOMETRIC_REPRESENTATION_CONTEXT(2) 
PARAMETRIC_REPRESENTATION_CONTEXT() REPRESENTATION_CONTEXT('2D SPACE',''
  ) );
#1409 = ORIENTED_EDGE('',*,*,#1410,.T.);
#1410 = EDGE_CURVE('',#1388,#1388,#1411,.T.);
#1411 = SURFACE_CURVE('',#1412,(#1417,#1424),.PCURVE_S1.);
#1412 = CIRCLE('',#1413,3.);
#1413 = AXIS2_PLACEMENT_3D('',#1414,#1415,#1416);
#1414 = CARTESIAN_POINT('',(48.,340.,176.5));
#1415 = DIRECTION('',(0.,0.,1.));
#1416 = DIRECTION('',(1.,0.,0.));
#1417 = PCURVE('',#1371,#1418);
#1418 = DEFINITIONAL_REPRESENTATION('',(#1419),#1423);
#1419 = LINE('',#1420,#1421);
#1420 = CARTESIAN_POINT('',(-0.,-15.));
#1421 = VECTOR('',#1422,1.);
#1422 = DIRECTION('',(-1.,0.));
#1423 = ( GEOMETRIC_REPRESENTATION_CONTEXT(2) 
PARAMETRIC_REPRESENTATION_CONTEXT() REPRESENTATION_CONTEXT('2D SPACE',''
  ) );
#1424 = PCURVE('',#1425,#1430);
#1425 = PLANE('',#1426);
#1426 = AXIS2_PLACEMENT_3D('',#1427,#1428,#1429);
#1427 = CARTESIAN_POINT('',(48.,340.,176.5));
#1428 = DIRECTION('',(0.,0.,1.));
#1429 = DIRECTION('',(1.,0.,-0.));
#1430 = DEFINITIONAL_REPRESENTATION('',(#1431),#1435);
#1431 = CIRCLE('',#1432,3.);
#1432 = AXIS2_PLACEMENT_2D('',#1433,#1434);
#1433 = CARTESIAN_POINT('',(0.,5.684341886081E-14));
#1434 = DIRECTION('',(1.,0.));
#1435 = ( GEOMETRIC_REPRESENTATION_CONTEXT(2) 
PARAMETRIC_REPRESENTATION_CONTEXT() REPRESENTATION_CONTEXT('2D SPACE',''
  ) );
#1436 = ORIENTED_EDGE('',*,*,#1387,.F.);
#1437 = ADVANCED_FACE('',(#1438),#1425,.F.);
#1438 = FACE_BOUND('',#1439,.F.);
#1439 = EDGE_LOOP('',(#1440));
#1440 = ORIENTED_EDGE('',*,*,#1410,.T.);
#1441 = ( GEOMETRIC_REPRESENTATION_CONTEXT(3) 
GLOBAL_UNCERTAINTY_ASSIGNED_CONTEXT((#1445)) 
GLOBAL_UNIT_ASSIGNED_CONTEXT((#1442,#1443,#1444)) REPRESENTATION_CONTEXT
('Context #1','3D Context with UNIT and UNCERTAINTY') );
#1442 = ( LENGTH_UNIT() NAMED_UNIT(*) SI_UNIT(.MILLI.,.METRE.) );
#1443 = ( NAMED_UNIT(*) PLANE_ANGLE_UNIT() SI_UNIT($,.RADIAN.) );
#1444 = ( NAMED_UNIT(*) SI_UNIT($,.STERADIAN.) SOLID_ANGLE_UNIT() );
#1445 = UNCERTAINTY_MEASURE_WITH_UNIT(LENGTH_MEASURE(1.E-07),#1442,
  'distance_accuracy_value','confusion accuracy');
#1446 = PRODUCT_RELATED_PRODUCT_CATEGORY('part',$,(#7));
ENDSEC;
END-ISO-10303-21;
