<svg xmlns="http://www.w3.org/2000/svg" viewBox="0 0 1500 1320" width="1500" height="1320"><rect width="1500" height="1320" fill="#ffffff"/><text x="110.0" y="54.0" text-anchor="start" font-size="17" fill="#111" font-family="Arial" font-weight="bold">İSTASYON 2 — PRES · DETAY ÇİZİMİ v2</text><text x="110.0" y="78.0" text-anchor="start" font-size="11" fill="#555" font-family="Arial">Kabin önerisi: 70 → 100 cm (PZP-400 zeminde 64 en + çöp kolonu 30 + üstte robot uç istasyonu) — hat toplamı 415 → 445</text><text x="110.0" y="96.0" text-anchor="start" font-size="11" fill="#555" font-family="Arial">İsimler: 1 KİLER · 2 PRES · 3 DOLUM · 4 FIRIN · 5 PAKET · 6 TESLİM (+SERVİS) — öneri</text><text x="360.0" y="132.0" text-anchor="middle" font-size="12.5" fill="#111" font-family="Arial" font-weight="bold">ÖN GÖRÜNÜŞ (robot tarafı — cephe açık)</text><rect x="110.0" y="150.0" width="500.0" height="925.0" rx="5" fill="none" stroke="#111" stroke-width="2.2"/><rect x="122.0" y="1075.0" width="12.0" height="60.0" rx="0" fill="none" stroke="#111" stroke-width="1.4"/><rect x="586.0" y="1075.0" width="12.0" height="60.0" rx="0" fill="none" stroke="#111" stroke-width="1.4"/><line x1="70.0" y1="1135.0" x2="650.0" y2="1135.0" stroke="#111" stroke-width="2"/><line x1="440.0" y1="180.0" x2="440.0" y2="1069.0" stroke="#111" stroke-width="1.2" stroke-dasharray="7,5"/><rect x="130.0" y="185.0" width="140.0" height="75.0" rx="3" fill="none" stroke="#111" stroke-width="1.2"/><text x="200.0" y="227.5" text-anchor="middle" font-size="9.5" fill="#111" font-family="Arial">PLC I/O + valf</text><text x="275.0" y="227.5" text-anchor="middle" font-size="10" fill="#555" font-family="Arial">· pnömatik hat (uç kilidi için)</text><rect x="150.0" y="300.0" width="250.0" height="180.0" rx="4" fill="none" stroke="#111" stroke-width="1.6"/><text x="275.0" y="322.5" text-anchor="middle" font-size="10" fill="#111" font-family="Arial" font-weight="bold">ROBOT UÇ İSTASYONU (dock) — GERÇEK BOYUT ~50×35</text><rect x="185.0" y="345.0" width="55.0" height="18.0" rx="2" fill="none" stroke="#111" stroke-width="1.2"/><line x1="192.5" y1="363.0" x2="192.5" y2="377.5" stroke="#111" stroke-width="1.1"/><line x1="232.5" y1="363.0" x2="232.5" y2="377.5" stroke="#111" stroke-width="1.1"/><rect x="162.5" y="384.0" width="100.0" height="11.0" rx="2" fill="none" stroke="#111" stroke-width="1.3"/><text x="212.5" y="415.0" text-anchor="middle" font-size="10" fill="#555" font-family="Arial">CEP 1: kürek ucu</text><rect x="310.0" y="345.0" width="55.0" height="18.0" rx="2" fill="none" stroke="#111" stroke-width="1.2"/><line x1="317.5" y1="363.0" x2="317.5" y2="377.5" stroke="#111" stroke-width="1.1"/><line x1="357.5" y1="363.0" x2="357.5" y2="377.5" stroke="#111" stroke-width="1.1"/><line x1="322.5" y1="384.0" x2="337.5" y2="412.5" stroke="#111" stroke-width="1.3"/><line x1="352.5" y1="384.0" x2="337.5" y2="412.5" stroke="#111" stroke-width="1.3"/><text x="337.5" y="430.0" text-anchor="middle" font-size="10" fill="#555" font-family="Arial">CEP 2: yedek el</text><text x="275.0" y="455.0" text-anchor="middle" font-size="10" fill="#555" font-family="Arial">kilit plakası Ø7-8 · pin+burç · "uç var" sensörü — robot takar/bırakır</text><text x="275.0" y="530.0" text-anchor="middle" font-size="10" fill="#555" font-family="Arial">BOŞ — büyüme payı (3. cep eklenebilir)</text><rect x="115.0" y="600.0" width="320.0" height="475.0" rx="3" fill="none" stroke="#111" stroke-width="1.8"/><text x="275.0" y="630.0" text-anchor="middle" font-size="10.5" fill="#111" font-family="Arial" font-weight="bold">FERSAH PZP-400 (zeminde — 170 kg)</text><rect x="210.0" y="650.0" width="130.0" height="60.0" rx="3" fill="none" stroke="#111" stroke-width="1.4"/><line x1="275.0" y1="710.0" x2="275.0" y2="755.0" stroke="#111" stroke-width="1.6"/><rect x="185.0" y="755.0" width="180.0" height="20.0" rx="2" fill="none" stroke="#111" stroke-width="1.4"/><text x="275.0" y="795.0" text-anchor="middle" font-size="10" fill="#555" font-family="Arial">ısıtmalı ÜST PLAKA (~90 °C · yapışmaz)</text><ellipse cx="275.0" cy="845.0" rx="90.0" ry="11.0" fill="none" stroke="#111" stroke-width="1.4"/><text x="275.0" y="835.0" text-anchor="middle" font-size="9.5" fill="#111" font-family="Arial">tabla Ø28 — zeminden ~90</text><rect x="140.0" y="900.0" width="270.0" height="150.0" rx="3" fill="none" stroke="#111" stroke-width="1.2"/><text x="275.0" y="980.0" text-anchor="middle" font-size="10" fill="#555" font-family="Arial">motor + rezistans gövdesi · 3,5 kW · 220 V</text><text x="525.0" y="315.0" text-anchor="middle" font-size="11" fill="#111" font-family="Arial" font-weight="bold">ÇÖP</text><line x1="460.0" y1="360.0" x2="510.0" y2="430.0" stroke="#111" stroke-width="1.6"/><line x1="590.0" y1="360.0" x2="540.0" y2="430.0" stroke="#111" stroke-width="1.6"/><line x1="460.0" y1="360.0" x2="590.0" y2="360.0" stroke="#111" stroke-width="1.6"/><text x="525.0" y="347.5" text-anchor="middle" font-size="10" fill="#555" font-family="Arial">huni ağzı ~Ø26 — robot bırakır, durmaz</text><line x1="510.0" y1="430.0" x2="510.0" y2="725.0" stroke="#111" stroke-width="1" stroke-dasharray="5,4"/><line x1="540.0" y1="430.0" x2="540.0" y2="725.0" stroke="#111" stroke-width="1" stroke-dasharray="5,4"/><rect x="470.0" y="740.0" width="110.0" height="280.0" rx="4" fill="none" stroke="#111" stroke-width="1.6"/><line x1="470.0" y1="770.0" x2="580.0" y2="770.0" stroke="#111" stroke-width="1"/><text x="525.0" y="730.0" text-anchor="middle" font-size="10" fill="#555" font-family="Arial">poşet kelepçesi</text><text x="525.0" y="890.0" text-anchor="middle" font-size="10.5" fill="#111" font-family="Arial" font-weight="bold">KOVA 30 L</text><text x="525.0" y="930.0" text-anchor="middle" font-size="10" fill="#555" font-family="Arial">3 günde ~5 L dolar</text><text x="525.0" y="950.0" text-anchor="middle" font-size="10" fill="#555" font-family="Arial">boşaltma: fırıncı ziyaretinde</text><line x1="465.0" y1="1045.0" x2="585.0" y2="1045.0" stroke="#111" stroke-width="1.6"/><text x="525.0" y="1065.0" text-anchor="middle" font-size="10" fill="#555" font-family="Arial">öne çekilir — MOTORSUZ</text><line x1="110.0" y1="162.0" x2="440.0" y2="162.0" stroke="#111" stroke-width="1"/><line x1="110.0" y1="157.0" x2="110.0" y2="167.0" stroke="#111" stroke-width="1"/><line x1="440.0" y1="157.0" x2="440.0" y2="167.0" stroke="#111" stroke-width="1"/><text x="275.0" y="156.0" text-anchor="middle" font-size="11" fill="#111" font-family="Arial">66</text><line x1="440.0" y1="162.0" x2="610.0" y2="162.0" stroke="#111" stroke-width="1"/><line x1="440.0" y1="157.0" x2="440.0" y2="167.0" stroke="#111" stroke-width="1"/><line x1="610.0" y1="157.0" x2="610.0" y2="167.0" stroke="#111" stroke-width="1"/><text x="525.0" y="156.0" text-anchor="middle" font-size="11" fill="#111" font-family="Arial">34</text><line x1="110.0" y1="1165.0" x2="610.0" y2="1165.0" stroke="#111" stroke-width="1"/><line x1="110.0" y1="1160.0" x2="110.0" y2="1170.0" stroke="#111" stroke-width="1"/><line x1="610.0" y1="1160.0" x2="610.0" y2="1170.0" stroke="#111" stroke-width="1"/><text x="360.0" y="1159.0" text-anchor="middle" font-size="11" fill="#111" font-family="Arial">100 (öneri — eski 70)</text><line x1="76.0" y1="150.0" x2="76.0" y2="1075.0" stroke="#111" stroke-width="1"/><line x1="71.0" y1="150.0" x2="81.0" y2="150.0" stroke="#111" stroke-width="1"/><line x1="71.0" y1="1075.0" x2="81.0" y2="1075.0" stroke="#111" stroke-width="1"/><text x="67.0" y="612.5" text-anchor="middle" font-size="11" fill="#111" font-family="Arial" transform="rotate(-90 67.0 612.5)">185</text><line x1="76.0" y1="1075.0" x2="76.0" y2="1135.0" stroke="#111" stroke-width="1"/><line x1="71.0" y1="1075.0" x2="81.0" y2="1075.0" stroke="#111" stroke-width="1"/><line x1="71.0" y1="1135.0" x2="81.0" y2="1135.0" stroke="#111" stroke-width="1"/><text x="67.0" y="1105.0" text-anchor="middle" font-size="11" fill="#111" font-family="Arial" transform="rotate(-90 67.0 1105.0)">12</text><line x1="40.0" y1="150.0" x2="40.0" y2="1135.0" stroke="#111" stroke-width="1"/><line x1="35.0" y1="150.0" x2="45.0" y2="150.0" stroke="#111" stroke-width="1"/><line x1="35.0" y1="1135.0" x2="45.0" y2="1135.0" stroke="#111" stroke-width="1"/><text x="31.0" y="642.5" text-anchor="middle" font-size="11" fill="#111" font-family="Arial" transform="rotate(-90 31.0 642.5)">197</text><text x="990.0" y="132.0" text-anchor="middle" font-size="12.5" fill="#111" font-family="Arial" font-weight="bold">YAN KESİT (PZP hizasından)</text><rect x="780.0" y="150.0" width="420.0" height="925.0" rx="5" fill="none" stroke="#111" stroke-width="2.2"/><rect x="792.0" y="1075.0" width="12.0" height="60.0" rx="0" fill="none" stroke="#111" stroke-width="1.4"/><rect x="1176.0" y="1075.0" width="12.0" height="60.0" rx="0" fill="none" stroke="#111" stroke-width="1.4"/><line x1="740.0" y1="1135.0" x2="1240.0" y2="1135.0" stroke="#111" stroke-width="2"/><rect x="790.0" y="600.0" width="400.0" height="475.0" rx="3" fill="none" stroke="#111" stroke-width="1.6"/><text x="990.0" y="650.0" text-anchor="middle" font-size="10" fill="#111" font-family="Arial" font-weight="bold">PZP-400</text><text x="990.0" y="661.0" text-anchor="middle" font-size="9.5" fill="#111" font-family="Arial">derinlik 80</text><ellipse cx="930.0" cy="845.0" rx="85.0" ry="10.0" fill="none" stroke="#111" stroke-width="1.4"/><text x="930.0" y="832.5" text-anchor="middle" font-size="9" fill="#111" font-family="Arial">tabla</text><rect x="840.0" y="300.0" width="200.0" height="180.0" rx="4" fill="none" stroke="#111" stroke-width="1.4"/><text x="940.0" y="395.0" text-anchor="middle" font-size="9.5" fill="#111" font-family="Arial">uç istasyonu</text><line x1="780.0" y1="275.0" x2="780.0" y2="1075.0" stroke="#2a6a9a" stroke-width="3"/><text x="766.0" y="650.0" text-anchor="middle" font-size="9" fill="#111" font-family="Arial"></text><text x="764.0" y="675.0" text-anchor="middle" font-size="10" fill="#2a6a9a" font-family="Arial" font-weight="bold" transform="rotate(-90 764.0 675.0)">ROBOT CEPHESİ — AÇIK</text><line x1="780.0" y1="1165.0" x2="1200.0" y2="1165.0" stroke="#111" stroke-width="1"/><line x1="780.0" y1="1160.0" x2="780.0" y2="1170.0" stroke="#111" stroke-width="1"/><line x1="1200.0" y1="1160.0" x2="1200.0" y2="1170.0" stroke="#111" stroke-width="1"/><text x="990.0" y="1159.0" text-anchor="middle" font-size="11" fill="#111" font-family="Arial">84</text><line x1="1234.0" y1="150.0" x2="1234.0" y2="1135.0" stroke="#111" stroke-width="1"/><line x1="1229.0" y1="150.0" x2="1239.0" y2="150.0" stroke="#111" stroke-width="1"/><line x1="1229.0" y1="1135.0" x2="1239.0" y2="1135.0" stroke="#111" stroke-width="1"/><text x="1225.0" y="642.5" text-anchor="middle" font-size="11" fill="#111" font-family="Arial" transform="rotate(-90 1225.0 642.5)">197</text><text x="1320.0" y="160.0" text-anchor="start" font-size="12.5" fill="#111" font-family="Arial" font-weight="bold">KARARLAR / SORULAR:</text><text x="1320.0" y="184.0" text-anchor="start" font-size="10.5" fill="#333" font-family="Arial">· PZP-400 TEYİT: 64×80×95 · 170 kg</text><text x="1320.0" y="204.0" text-anchor="start" font-size="10.5" fill="#666" font-family="Arial">  3,5 kW · 220 V · 500-700 ad/saat</text><text x="1320.0" y="224.0" text-anchor="start" font-size="10.5" fill="#666" font-family="Arial">  (Fersah resmî sayfası)</text><text x="1320.0" y="244.0" text-anchor="start" font-size="10.5" fill="#333" font-family="Arial">· UN GEREKMEZ — ısıtmalı pres,</text><text x="1320.0" y="264.0" text-anchor="start" font-size="10.5" fill="#666" font-family="Arial">  yapışmaz plaka; gerekirse hafif</text><text x="1320.0" y="284.0" text-anchor="start" font-size="10.5" fill="#666" font-family="Arial">  yağ. Plaka kaplaması Fersah&apos;a</text><text x="1320.0" y="304.0" text-anchor="start" font-size="10.5" fill="#666" font-family="Arial">  sorulacak (teflon/krom?)</text><text x="1320.0" y="324.0" text-anchor="start" font-size="10.5" fill="#333" font-family="Arial">· Temizlik: ziyarette İNSAN siler;</text><text x="1320.0" y="344.0" text-anchor="start" font-size="10.5" fill="#666" font-family="Arial">  uçlar sökülüp yıkanır (COP) —</text><text x="1320.0" y="364.0" text-anchor="start" font-size="10.5" fill="#666" font-family="Arial">  otomatik yıkama GEREKSİZ</text><text x="1320.0" y="384.0" text-anchor="start" font-size="10.5" fill="#333" font-family="Arial">· Uç istasyonu: robot ucu kendisi</text><text x="1320.0" y="404.0" text-anchor="start" font-size="10.5" fill="#666" font-family="Arial">  takar/bırakır (pnömatik kilit,</text><text x="1320.0" y="424.0" text-anchor="start" font-size="10.5" fill="#666" font-family="Arial">  hazır kit: SMARTSHIFT / RSP /</text><text x="1320.0" y="444.0" text-anchor="start" font-size="10.5" fill="#666" font-family="Arial">  TripleA Wingman sınıfı)</text><text x="1320.0" y="464.0" text-anchor="start" font-size="10.5" fill="#333" font-family="Arial">· Çöp: 30 L · motorsuz · poşetli</text><text x="1320.0" y="484.0" text-anchor="start" font-size="10.5" fill="#666" font-family="Arial">  huniden bırak-geç · 3 günde bir</text><text x="1320.0" y="504.0" text-anchor="start" font-size="10.5" fill="#666" font-family="Arial">  boşaltma (fırıncı ziyareti)</text><text x="1320.0" y="524.0" text-anchor="start" font-size="10.5" fill="#333" font-family="Arial" font-weight="bold">· KABİN 70→100 ONAY BEKLİYOR</text><text x="1320.0" y="544.0" text-anchor="start" font-size="10.5" fill="#666" font-family="Arial">  (hat 415 → 445)</text><text x="1476.0" y="1306.0" text-anchor="end" font-size="10" fill="#999" font-family="Arial">AUTOKITCH · ist2_pres_detay_v2</text></svg>