ISO-10303-21;
HEADER;
FILE_DESCRIPTION(('Open CASCADE Model'),'2;1');
FILE_NAME('Open CASCADE Shape Model','2026-09-21T19:48:45',('Author'),(
    'Open CASCADE'),'Open CASCADE STEP processor 7.9','Open CASCADE 7.9'
  ,'Unknown');
FILE_SCHEMA(('AUTOMOTIVE_DESIGN { 1 0 10303 214 1 1 1 1 }'));
ENDSEC;
DATA;
#1 = APPLICATION_PROTOCOL_DEFINITION('international standard',
  'automotive_design',2000,#2);
#2 = APPLICATION_CONTEXT(
  'core data for automotive mechanical design processes');
#3 = SHAPE_DEFINITION_REPRESENTATION(#4,#10);
#4 = PRODUCT_DEFINITION_SHAPE('','',#5);
#5 = PRODUCT_DEFINITION('design','',#6,#9);
#6 = PRODUCT_DEFINITION_FORMATION('','',#7);
#7 = PRODUCT('Open CASCADE STEP translator 7.9 39',
  'Open CASCADE STEP translator 7.9 39','',(#8));
#8 = PRODUCT_CONTEXT('',#2,'mechanical');
#9 = PRODUCT_DEFINITION_CONTEXT('part definition',#2,'design');
#10 = ADVANCED_BREP_SHAPE_REPRESENTATION('',(#11,#15),#1505);
#11 = AXIS2_PLACEMENT_3D('',#12,#13,#14);
#12 = CARTESIAN_POINT('',(0.,0.,0.));
#13 = DIRECTION('',(0.,0.,1.));
#14 = DIRECTION('',(1.,0.,-0.));
#15 = MANIFOLD_SOLID_BREP('',#16);
#16 = CLOSED_SHELL('',(#17,#105,#140,#175,#230,#289,#399,#434,#508,#555,
    #602,#627,#682,#720,#754,#1478));
#17 = ADVANCED_FACE('',(#18),#32,.T.);
#18 = FACE_BOUND('',#19,.F.);
#19 = EDGE_LOOP('',(#20,#50,#77,#78));
#20 = ORIENTED_EDGE('',*,*,#21,.T.);
#21 = EDGE_CURVE('',#22,#24,#26,.T.);
#22 = VERTEX_POINT('',#23);
#23 = CARTESIAN_POINT('',(16.,195.,151.5));
#24 = VERTEX_POINT('',#25);
#25 = CARTESIAN_POINT('',(16.,195.,154.5));
#26 = SEAM_CURVE('',#27,(#31,#43),.PCURVE_S1.);
#27 = LINE('',#28,#29);
#28 = CARTESIAN_POINT('',(16.,195.,151.5));
#29 = VECTOR('',#30,1.);
#30 = DIRECTION('',(0.,0.,1.));
#31 = PCURVE('',#32,#37);
#32 = CYLINDRICAL_SURFACE('',#33,16.);
#33 = AXIS2_PLACEMENT_3D('',#34,#35,#36);
#34 = CARTESIAN_POINT('',(0.,195.,151.5));
#35 = DIRECTION('',(-0.,-0.,-1.));
#36 = DIRECTION('',(1.,0.,0.));
#37 = DEFINITIONAL_REPRESENTATION('',(#38),#42);
#38 = LINE('',#39,#40);
#39 = CARTESIAN_POINT('',(-0.,0.));
#40 = VECTOR('',#41,1.);
#41 = DIRECTION('',(-0.,-1.));
#42 = ( GEOMETRIC_REPRESENTATION_CONTEXT(2) 
PARAMETRIC_REPRESENTATION_CONTEXT() REPRESENTATION_CONTEXT('2D SPACE',''
  ) );
#43 = PCURVE('',#32,#44);
#44 = DEFINITIONAL_REPRESENTATION('',(#45),#49);
#45 = LINE('',#46,#47);
#46 = CARTESIAN_POINT('',(-6.28318530718,0.));
#47 = VECTOR('',#48,1.);
#48 = DIRECTION('',(-0.,-1.));
#49 = ( GEOMETRIC_REPRESENTATION_CONTEXT(2) 
PARAMETRIC_REPRESENTATION_CONTEXT() REPRESENTATION_CONTEXT('2D SPACE',''
  ) );
#50 = ORIENTED_EDGE('',*,*,#51,.T.);
#51 = EDGE_CURVE('',#24,#24,#52,.T.);
#52 = SURFACE_CURVE('',#53,(#58,#65),.PCURVE_S1.);
#53 = CIRCLE('',#54,16.);
#54 = AXIS2_PLACEMENT_3D('',#55,#56,#57);
#55 = CARTESIAN_POINT('',(0.,195.,154.5));
#56 = DIRECTION('',(0.,0.,1.));
#57 = DIRECTION('',(1.,0.,0.));
#58 = PCURVE('',#32,#59);
#59 = DEFINITIONAL_REPRESENTATION('',(#60),#64);
#60 = LINE('',#61,#62);
#61 = CARTESIAN_POINT('',(-0.,-3.));
#62 = VECTOR('',#63,1.);
#63 = DIRECTION('',(-1.,0.));
#64 = ( GEOMETRIC_REPRESENTATION_CONTEXT(2) 
PARAMETRIC_REPRESENTATION_CONTEXT() REPRESENTATION_CONTEXT('2D SPACE',''
  ) );
#65 = PCURVE('',#66,#71);
#66 = PLANE('',#67);
#67 = AXIS2_PLACEMENT_3D('',#68,#69,#70);
#68 = CARTESIAN_POINT('',(-2.393020231944E-15,195.,154.5));
#69 = DIRECTION('',(0.,0.,1.));
#70 = DIRECTION('',(1.,0.,-0.));
#71 = DEFINITIONAL_REPRESENTATION('',(#72),#76);
#72 = CIRCLE('',#73,16.);
#73 = AXIS2_PLACEMENT_2D('',#74,#75);
#74 = CARTESIAN_POINT('',(2.393020231944E-15,2.84217094304E-14));
#75 = DIRECTION('',(1.,0.));
#76 = ( GEOMETRIC_REPRESENTATION_CONTEXT(2) 
PARAMETRIC_REPRESENTATION_CONTEXT() REPRESENTATION_CONTEXT('2D SPACE',''
  ) );
#77 = ORIENTED_EDGE('',*,*,#21,.F.);
#78 = ORIENTED_EDGE('',*,*,#79,.F.);
#79 = EDGE_CURVE('',#22,#22,#80,.T.);
#80 = SURFACE_CURVE('',#81,(#86,#93),.PCURVE_S1.);
#81 = CIRCLE('',#82,16.);
#82 = AXIS2_PLACEMENT_3D('',#83,#84,#85);
#83 = CARTESIAN_POINT('',(0.,195.,151.5));
#84 = DIRECTION('',(0.,0.,1.));
#85 = DIRECTION('',(1.,0.,0.));
#86 = PCURVE('',#32,#87);
#87 = DEFINITIONAL_REPRESENTATION('',(#88),#92);
#88 = LINE('',#89,#90);
#89 = CARTESIAN_POINT('',(-0.,0.));
#90 = VECTOR('',#91,1.);
#91 = DIRECTION('',(-1.,0.));
#92 = ( GEOMETRIC_REPRESENTATION_CONTEXT(2) 
PARAMETRIC_REPRESENTATION_CONTEXT() REPRESENTATION_CONTEXT('2D SPACE',''
  ) );
#93 = PCURVE('',#94,#99);
#94 = PLANE('',#95);
#95 = AXIS2_PLACEMENT_3D('',#96,#97,#98);
#96 = CARTESIAN_POINT('',(-2.393020231944E-15,195.,151.5));
#97 = DIRECTION('',(0.,0.,1.));
#98 = DIRECTION('',(1.,0.,-0.));
#99 = DEFINITIONAL_REPRESENTATION('',(#100),#104);
#100 = CIRCLE('',#101,16.);
#101 = AXIS2_PLACEMENT_2D('',#102,#103);
#102 = CARTESIAN_POINT('',(2.393020231944E-15,2.84217094304E-14));
#103 = DIRECTION('',(1.,0.));
#104 = ( GEOMETRIC_REPRESENTATION_CONTEXT(2) 
PARAMETRIC_REPRESENTATION_CONTEXT() REPRESENTATION_CONTEXT('2D SPACE',''
  ) );
#105 = ADVANCED_FACE('',(#106,#109),#94,.F.);
#106 = FACE_BOUND('',#107,.F.);
#107 = EDGE_LOOP('',(#108));
#108 = ORIENTED_EDGE('',*,*,#79,.T.);
#109 = FACE_BOUND('',#110,.F.);
#110 = EDGE_LOOP('',(#111));
#111 = ORIENTED_EDGE('',*,*,#112,.F.);
#112 = EDGE_CURVE('',#113,#113,#115,.T.);
#113 = VERTEX_POINT('',#114);
#114 = CARTESIAN_POINT('',(14.2,195.,151.5));
#115 = SURFACE_CURVE('',#116,(#121,#128),.PCURVE_S1.);
#116 = CIRCLE('',#117,14.2);
#117 = AXIS2_PLACEMENT_3D('',#118,#119,#120);
#118 = CARTESIAN_POINT('',(0.,195.,151.5));
#119 = DIRECTION('',(0.,0.,1.));
#120 = DIRECTION('',(1.,0.,0.));
#121 = PCURVE('',#94,#122);
#122 = DEFINITIONAL_REPRESENTATION('',(#123),#127);
#123 = CIRCLE('',#124,14.2);
#124 = AXIS2_PLACEMENT_2D('',#125,#126);
#125 = CARTESIAN_POINT('',(2.393020231944E-15,2.84217094304E-14));
#126 = DIRECTION('',(1.,0.));
#127 = ( GEOMETRIC_REPRESENTATION_CONTEXT(2) 
PARAMETRIC_REPRESENTATION_CONTEXT() REPRESENTATION_CONTEXT('2D SPACE',''
  ) );
#128 = PCURVE('',#129,#134);
#129 = CYLINDRICAL_SURFACE('',#130,14.2);
#130 = AXIS2_PLACEMENT_3D('',#131,#132,#133);
#131 = CARTESIAN_POINT('',(0.,195.,151.5));
#132 = DIRECTION('',(-0.,-0.,-1.));
#133 = DIRECTION('',(1.,0.,0.));
#134 = DEFINITIONAL_REPRESENTATION('',(#135),#139);
#135 = LINE('',#136,#137);
#136 = CARTESIAN_POINT('',(-0.,0.));
#137 = VECTOR('',#138,1.);
#138 = DIRECTION('',(-1.,0.));
#139 = ( GEOMETRIC_REPRESENTATION_CONTEXT(2) 
PARAMETRIC_REPRESENTATION_CONTEXT() REPRESENTATION_CONTEXT('2D SPACE',''
  ) );
#140 = ADVANCED_FACE('',(#141,#144),#66,.T.);
#141 = FACE_BOUND('',#142,.T.);
#142 = EDGE_LOOP('',(#143));
#143 = ORIENTED_EDGE('',*,*,#51,.T.);
#144 = FACE_BOUND('',#145,.T.);
#145 = EDGE_LOOP('',(#146));
#146 = ORIENTED_EDGE('',*,*,#147,.F.);
#147 = EDGE_CURVE('',#148,#148,#150,.T.);
#148 = VERTEX_POINT('',#149);
#149 = CARTESIAN_POINT('',(11.,195.,154.5));
#150 = SURFACE_CURVE('',#151,(#156,#163),.PCURVE_S1.);
#151 = CIRCLE('',#152,11.);
#152 = AXIS2_PLACEMENT_3D('',#153,#154,#155);
#153 = CARTESIAN_POINT('',(0.,195.,154.5));
#154 = DIRECTION('',(0.,0.,1.));
#155 = DIRECTION('',(1.,0.,0.));
#156 = PCURVE('',#66,#157);
#157 = DEFINITIONAL_REPRESENTATION('',(#158),#162);
#158 = CIRCLE('',#159,11.);
#159 = AXIS2_PLACEMENT_2D('',#160,#161);
#160 = CARTESIAN_POINT('',(2.393020231944E-15,2.84217094304E-14));
#161 = DIRECTION('',(1.,0.));
#162 = ( GEOMETRIC_REPRESENTATION_CONTEXT(2) 
PARAMETRIC_REPRESENTATION_CONTEXT() REPRESENTATION_CONTEXT('2D SPACE',''
  ) );
#163 = PCURVE('',#164,#169);
#164 = CYLINDRICAL_SURFACE('',#165,11.);
#165 = AXIS2_PLACEMENT_3D('',#166,#167,#168);
#166 = CARTESIAN_POINT('',(0.,195.,154.5));
#167 = DIRECTION('',(-0.,-0.,-1.));
#168 = DIRECTION('',(1.,0.,0.));
#169 = DEFINITIONAL_REPRESENTATION('',(#170),#174);
#170 = LINE('',#171,#172);
#171 = CARTESIAN_POINT('',(-0.,0.));
#172 = VECTOR('',#173,1.);
#173 = DIRECTION('',(-1.,0.));
#174 = ( GEOMETRIC_REPRESENTATION_CONTEXT(2) 
PARAMETRIC_REPRESENTATION_CONTEXT() REPRESENTATION_CONTEXT('2D SPACE',''
  ) );
#175 = ADVANCED_FACE('',(#176),#129,.F.);
#176 = FACE_BOUND('',#177,.T.);
#177 = EDGE_LOOP('',(#178,#201,#228,#229));
#178 = ORIENTED_EDGE('',*,*,#179,.T.);
#179 = EDGE_CURVE('',#113,#180,#182,.T.);
#180 = VERTEX_POINT('',#181);
#181 = CARTESIAN_POINT('',(14.2,195.,153.5));
#182 = SEAM_CURVE('',#183,(#187,#194),.PCURVE_S1.);
#183 = LINE('',#184,#185);
#184 = CARTESIAN_POINT('',(14.2,195.,151.5));
#185 = VECTOR('',#186,1.);
#186 = DIRECTION('',(0.,0.,1.));
#187 = PCURVE('',#129,#188);
#188 = DEFINITIONAL_REPRESENTATION('',(#189),#193);
#189 = LINE('',#190,#191);
#190 = CARTESIAN_POINT('',(-0.,0.));
#191 = VECTOR('',#192,1.);
#192 = DIRECTION('',(-0.,-1.));
#193 = ( GEOMETRIC_REPRESENTATION_CONTEXT(2) 
PARAMETRIC_REPRESENTATION_CONTEXT() REPRESENTATION_CONTEXT('2D SPACE',''
  ) );
#194 = PCURVE('',#129,#195);
#195 = DEFINITIONAL_REPRESENTATION('',(#196),#200);
#196 = LINE('',#197,#198);
#197 = CARTESIAN_POINT('',(-6.28318530718,0.));
#198 = VECTOR('',#199,1.);
#199 = DIRECTION('',(-0.,-1.));
#200 = ( GEOMETRIC_REPRESENTATION_CONTEXT(2) 
PARAMETRIC_REPRESENTATION_CONTEXT() REPRESENTATION_CONTEXT('2D SPACE',''
  ) );
#201 = ORIENTED_EDGE('',*,*,#202,.T.);
#202 = EDGE_CURVE('',#180,#180,#203,.T.);
#203 = SURFACE_CURVE('',#204,(#209,#216),.PCURVE_S1.);
#204 = CIRCLE('',#205,14.2);
#205 = AXIS2_PLACEMENT_3D('',#206,#207,#208);
#206 = CARTESIAN_POINT('',(0.,195.,153.5));
#207 = DIRECTION('',(0.,0.,1.));
#208 = DIRECTION('',(1.,0.,0.));
#209 = PCURVE('',#129,#210);
#210 = DEFINITIONAL_REPRESENTATION('',(#211),#215);
#211 = LINE('',#212,#213);
#212 = CARTESIAN_POINT('',(-0.,-2.));
#213 = VECTOR('',#214,1.);
#214 = DIRECTION('',(-1.,0.));
#215 = ( GEOMETRIC_REPRESENTATION_CONTEXT(2) 
PARAMETRIC_REPRESENTATION_CONTEXT() REPRESENTATION_CONTEXT('2D SPACE',''
  ) );
#216 = PCURVE('',#217,#222);
#217 = PLANE('',#218);
#218 = AXIS2_PLACEMENT_3D('',#219,#220,#221);
#219 = CARTESIAN_POINT('',(-1.540777614129E-15,195.,153.5));
#220 = DIRECTION('',(0.,0.,1.));
#221 = DIRECTION('',(1.,0.,-0.));
#222 = DEFINITIONAL_REPRESENTATION('',(#223),#227);
#223 = CIRCLE('',#224,14.2);
#224 = AXIS2_PLACEMENT_2D('',#225,#226);
#225 = CARTESIAN_POINT('',(1.540777614129E-15,0.));
#226 = DIRECTION('',(1.,0.));
#227 = ( GEOMETRIC_REPRESENTATION_CONTEXT(2) 
PARAMETRIC_REPRESENTATION_CONTEXT() REPRESENTATION_CONTEXT('2D SPACE',''
  ) );
#228 = ORIENTED_EDGE('',*,*,#179,.F.);
#229 = ORIENTED_EDGE('',*,*,#112,.F.);
#230 = ADVANCED_FACE('',(#231),#164,.T.);
#231 = FACE_BOUND('',#232,.F.);
#232 = EDGE_LOOP('',(#233,#256,#257,#258));
#233 = ORIENTED_EDGE('',*,*,#234,.F.);
#234 = EDGE_CURVE('',#148,#235,#237,.T.);
#235 = VERTEX_POINT('',#236);
#236 = CARTESIAN_POINT('',(11.,195.,156.85));
#237 = SEAM_CURVE('',#238,(#242,#249),.PCURVE_S1.);
#238 = LINE('',#239,#240);
#239 = CARTESIAN_POINT('',(11.,195.,154.5));
#240 = VECTOR('',#241,1.);
#241 = DIRECTION('',(0.,0.,1.));
#242 = PCURVE('',#164,#243);
#243 = DEFINITIONAL_REPRESENTATION('',(#244),#248);
#244 = LINE('',#245,#246);
#245 = CARTESIAN_POINT('',(-6.28318530718,0.));
#246 = VECTOR('',#247,1.);
#247 = DIRECTION('',(-0.,-1.));
#248 = ( GEOMETRIC_REPRESENTATION_CONTEXT(2) 
PARAMETRIC_REPRESENTATION_CONTEXT() REPRESENTATION_CONTEXT('2D SPACE',''
  ) );
#249 = PCURVE('',#164,#250);
#250 = DEFINITIONAL_REPRESENTATION('',(#251),#255);
#251 = LINE('',#252,#253);
#252 = CARTESIAN_POINT('',(-0.,0.));
#253 = VECTOR('',#254,1.);
#254 = DIRECTION('',(-0.,-1.));
#255 = ( GEOMETRIC_REPRESENTATION_CONTEXT(2) 
PARAMETRIC_REPRESENTATION_CONTEXT() REPRESENTATION_CONTEXT('2D SPACE',''
  ) );
#256 = ORIENTED_EDGE('',*,*,#147,.F.);
#257 = ORIENTED_EDGE('',*,*,#234,.T.);
#258 = ORIENTED_EDGE('',*,*,#259,.F.);
#259 = EDGE_CURVE('',#235,#235,#260,.T.);
#260 = SURFACE_CURVE('',#261,(#266,#273),.PCURVE_S1.);
#261 = CIRCLE('',#262,11.);
#262 = AXIS2_PLACEMENT_3D('',#263,#264,#265);
#263 = CARTESIAN_POINT('',(0.,195.,156.85));
#264 = DIRECTION('',(0.,0.,-1.));
#265 = DIRECTION('',(1.,0.,0.));
#266 = PCURVE('',#164,#267);
#267 = DEFINITIONAL_REPRESENTATION('',(#268),#272);
#268 = LINE('',#269,#270);
#269 = CARTESIAN_POINT('',(-6.28318530718,-2.35));
#270 = VECTOR('',#271,1.);
#271 = DIRECTION('',(1.,-0.));
#272 = ( GEOMETRIC_REPRESENTATION_CONTEXT(2) 
PARAMETRIC_REPRESENTATION_CONTEXT() REPRESENTATION_CONTEXT('2D SPACE',''
  ) );
#273 = PCURVE('',#274,#279);
#274 = PLANE('',#275);
#275 = AXIS2_PLACEMENT_3D('',#276,#277,#278);
#276 = CARTESIAN_POINT('',(4.375808424126E-16,195.,156.85));
#277 = DIRECTION('',(0.,0.,1.));
#278 = DIRECTION('',(1.,0.,-0.));
#279 = DEFINITIONAL_REPRESENTATION('',(#280),#288);
#280 = ( BOUNDED_CURVE() B_SPLINE_CURVE(2,(#281,#282,#283,#284,#285,#286
,#287),.UNSPECIFIED.,.T.,.F.) B_SPLINE_CURVE_WITH_KNOTS((1,2,2,2,2,1),(
    -2.094395102393,0.,2.094395102393,4.188790204786,6.28318530718,
8.377580409573),.UNSPECIFIED.) CURVE() GEOMETRIC_REPRESENTATION_ITEM() 
RATIONAL_B_SPLINE_CURVE((1.,0.5,1.,0.5,1.,0.5,1.)) REPRESENTATION_ITEM(
  '') );
#281 = CARTESIAN_POINT('',(11.,2.84217094304E-14));
#282 = CARTESIAN_POINT('',(11.,-19.05255888325));
#283 = CARTESIAN_POINT('',(-5.5,-9.526279441629));
#284 = CARTESIAN_POINT('',(-22.,2.572748647228E-14));
#285 = CARTESIAN_POINT('',(-5.5,9.526279441629));
#286 = CARTESIAN_POINT('',(11.,19.052558883258));
#287 = CARTESIAN_POINT('',(11.,2.84217094304E-14));
#288 = ( GEOMETRIC_REPRESENTATION_CONTEXT(2) 
PARAMETRIC_REPRESENTATION_CONTEXT() REPRESENTATION_CONTEXT('2D SPACE',''
  ) );
#289 = ADVANCED_FACE('',(#290,#293),#217,.F.);
#290 = FACE_BOUND('',#291,.F.);
#291 = EDGE_LOOP('',(#292));
#292 = ORIENTED_EDGE('',*,*,#202,.T.);
#293 = FACE_BOUND('',#294,.F.);
#294 = EDGE_LOOP('',(#295,#323,#349,#375));
#295 = ORIENTED_EDGE('',*,*,#296,.F.);
#296 = EDGE_CURVE('',#297,#299,#301,.T.);
#297 = VERTEX_POINT('',#298);
#298 = CARTESIAN_POINT('',(4.15,190.85,153.5));
#299 = VERTEX_POINT('',#300);
#300 = CARTESIAN_POINT('',(4.15,199.15,153.5));
#301 = SURFACE_CURVE('',#302,(#306,#312),.PCURVE_S1.);
#302 = LINE('',#303,#304);
#303 = CARTESIAN_POINT('',(4.15,192.925,153.5));
#304 = VECTOR('',#305,1.);
#305 = DIRECTION('',(0.,1.,-0.));
#306 = PCURVE('',#217,#307);
#307 = DEFINITIONAL_REPRESENTATION('',(#308),#311);
#308 = B_SPLINE_CURVE_WITH_KNOTS('',1,(#309,#310),.UNSPECIFIED.,.F.,.F.,
  (2,2),(-2.075,6.225),.PIECEWISE_BEZIER_KNOTS.);
#309 = CARTESIAN_POINT('',(4.15,-4.15));
#310 = CARTESIAN_POINT('',(4.15,4.15));
#311 = ( GEOMETRIC_REPRESENTATION_CONTEXT(2) 
PARAMETRIC_REPRESENTATION_CONTEXT() REPRESENTATION_CONTEXT('2D SPACE',''
  ) );
#312 = PCURVE('',#313,#318);
#313 = PLANE('',#314);
#314 = AXIS2_PLACEMENT_3D('',#315,#316,#317);
#315 = CARTESIAN_POINT('',(4.15,190.85,150.5));
#316 = DIRECTION('',(-1.,0.,0.));
#317 = DIRECTION('',(0.,1.,0.));
#318 = DEFINITIONAL_REPRESENTATION('',(#319),#322);
#319 = B_SPLINE_CURVE_WITH_KNOTS('',1,(#320,#321),.UNSPECIFIED.,.F.,.F.,
  (2,2),(-2.075,6.225),.PIECEWISE_BEZIER_KNOTS.);
#320 = CARTESIAN_POINT('',(0.,-3.));
#321 = CARTESIAN_POINT('',(8.3,-3.));
#322 = ( GEOMETRIC_REPRESENTATION_CONTEXT(2) 
PARAMETRIC_REPRESENTATION_CONTEXT() REPRESENTATION_CONTEXT('2D SPACE',''
  ) );
#323 = ORIENTED_EDGE('',*,*,#324,.F.);
#324 = EDGE_CURVE('',#325,#297,#327,.T.);
#325 = VERTEX_POINT('',#326);
#326 = CARTESIAN_POINT('',(-4.15,190.85,153.5));
#327 = SURFACE_CURVE('',#328,(#332,#338),.PCURVE_S1.);
#328 = LINE('',#329,#330);
#329 = CARTESIAN_POINT('',(-2.075,190.85,153.5));
#330 = VECTOR('',#331,1.);
#331 = DIRECTION('',(1.,0.,0.));
#332 = PCURVE('',#217,#333);
#333 = DEFINITIONAL_REPRESENTATION('',(#334),#337);
#334 = B_SPLINE_CURVE_WITH_KNOTS('',1,(#335,#336),.UNSPECIFIED.,.F.,.F.,
  (2,2),(-2.075,6.225),.PIECEWISE_BEZIER_KNOTS.);
#335 = CARTESIAN_POINT('',(-4.15,-4.15));
#336 = CARTESIAN_POINT('',(4.15,-4.15));
#337 = ( GEOMETRIC_REPRESENTATION_CONTEXT(2) 
PARAMETRIC_REPRESENTATION_CONTEXT() REPRESENTATION_CONTEXT('2D SPACE',''
  ) );
#338 = PCURVE('',#339,#344);
#339 = PLANE('',#340);
#340 = AXIS2_PLACEMENT_3D('',#341,#342,#343);
#341 = CARTESIAN_POINT('',(-4.15,190.85,150.5));
#342 = DIRECTION('',(0.,1.,0.));
#343 = DIRECTION('',(1.,0.,0.));
#344 = DEFINITIONAL_REPRESENTATION('',(#345),#348);
#345 = B_SPLINE_CURVE_WITH_KNOTS('',1,(#346,#347),.UNSPECIFIED.,.F.,.F.,
  (2,2),(-2.075,6.225),.PIECEWISE_BEZIER_KNOTS.);
#346 = CARTESIAN_POINT('',(0.,-3.));
#347 = CARTESIAN_POINT('',(8.3,-3.));
#348 = ( GEOMETRIC_REPRESENTATION_CONTEXT(2) 
PARAMETRIC_REPRESENTATION_CONTEXT() REPRESENTATION_CONTEXT('2D SPACE',''
  ) );
#349 = ORIENTED_EDGE('',*,*,#350,.F.);
#350 = EDGE_CURVE('',#351,#325,#353,.T.);
#351 = VERTEX_POINT('',#352);
#352 = CARTESIAN_POINT('',(-4.15,199.15,153.5));
#353 = SURFACE_CURVE('',#354,(#358,#364),.PCURVE_S1.);
#354 = LINE('',#355,#356);
#355 = CARTESIAN_POINT('',(-4.15,197.075,153.5));
#356 = VECTOR('',#357,1.);
#357 = DIRECTION('',(0.,-1.,0.));
#358 = PCURVE('',#217,#359);
#359 = DEFINITIONAL_REPRESENTATION('',(#360),#363);
#360 = B_SPLINE_CURVE_WITH_KNOTS('',1,(#361,#362),.UNSPECIFIED.,.F.,.F.,
  (2,2),(-2.075,6.225),.PIECEWISE_BEZIER_KNOTS.);
#361 = CARTESIAN_POINT('',(-4.15,4.15));
#362 = CARTESIAN_POINT('',(-4.15,-4.15));
#363 = ( GEOMETRIC_REPRESENTATION_CONTEXT(2) 
PARAMETRIC_REPRESENTATION_CONTEXT() REPRESENTATION_CONTEXT('2D SPACE',''
  ) );
#364 = PCURVE('',#365,#370);
#365 = PLANE('',#366);
#366 = AXIS2_PLACEMENT_3D('',#367,#368,#369);
#367 = CARTESIAN_POINT('',(-4.15,199.15,150.5));
#368 = DIRECTION('',(1.,0.,-0.));
#369 = DIRECTION('',(0.,-1.,0.));
#370 = DEFINITIONAL_REPRESENTATION('',(#371),#374);
#371 = B_SPLINE_CURVE_WITH_KNOTS('',1,(#372,#373),.UNSPECIFIED.,.F.,.F.,
  (2,2),(-2.075,6.225),.PIECEWISE_BEZIER_KNOTS.);
#372 = CARTESIAN_POINT('',(0.,-3.));
#373 = CARTESIAN_POINT('',(8.3,-3.));
#374 = ( GEOMETRIC_REPRESENTATION_CONTEXT(2) 
PARAMETRIC_REPRESENTATION_CONTEXT() REPRESENTATION_CONTEXT('2D SPACE',''
  ) );
#375 = ORIENTED_EDGE('',*,*,#376,.F.);
#376 = EDGE_CURVE('',#299,#351,#377,.T.);
#377 = SURFACE_CURVE('',#378,(#382,#388),.PCURVE_S1.);
#378 = LINE('',#379,#380);
#379 = CARTESIAN_POINT('',(2.075,199.15,153.5));
#380 = VECTOR('',#381,1.);
#381 = DIRECTION('',(-1.,0.,0.));
#382 = PCURVE('',#217,#383);
#383 = DEFINITIONAL_REPRESENTATION('',(#384),#387);
#384 = B_SPLINE_CURVE_WITH_KNOTS('',1,(#385,#386),.UNSPECIFIED.,.F.,.F.,
  (2,2),(-2.075,6.225),.PIECEWISE_BEZIER_KNOTS.);
#385 = CARTESIAN_POINT('',(4.15,4.15));
#386 = CARTESIAN_POINT('',(-4.15,4.15));
#387 = ( GEOMETRIC_REPRESENTATION_CONTEXT(2) 
PARAMETRIC_REPRESENTATION_CONTEXT() REPRESENTATION_CONTEXT('2D SPACE',''
  ) );
#388 = PCURVE('',#389,#394);
#389 = PLANE('',#390);
#390 = AXIS2_PLACEMENT_3D('',#391,#392,#393);
#391 = CARTESIAN_POINT('',(4.15,199.15,150.5));
#392 = DIRECTION('',(0.,-1.,0.));
#393 = DIRECTION('',(-1.,0.,0.));
#394 = DEFINITIONAL_REPRESENTATION('',(#395),#398);
#395 = B_SPLINE_CURVE_WITH_KNOTS('',1,(#396,#397),.UNSPECIFIED.,.F.,.F.,
  (2,2),(-2.075,6.225),.PIECEWISE_BEZIER_KNOTS.);
#396 = CARTESIAN_POINT('',(0.,-3.));
#397 = CARTESIAN_POINT('',(8.3,-3.));
#398 = ( GEOMETRIC_REPRESENTATION_CONTEXT(2) 
PARAMETRIC_REPRESENTATION_CONTEXT() REPRESENTATION_CONTEXT('2D SPACE',''
  ) );
#399 = ADVANCED_FACE('',(#400,#403),#274,.T.);
#400 = FACE_BOUND('',#401,.T.);
#401 = EDGE_LOOP('',(#402));
#402 = ORIENTED_EDGE('',*,*,#259,.F.);
#403 = FACE_BOUND('',#404,.T.);
#404 = EDGE_LOOP('',(#405));
#405 = ORIENTED_EDGE('',*,*,#406,.F.);
#406 = EDGE_CURVE('',#407,#407,#409,.T.);
#407 = VERTEX_POINT('',#408);
#408 = CARTESIAN_POINT('',(9.,195.,156.85));
#409 = SURFACE_CURVE('',#410,(#415,#422),.PCURVE_S1.);
#410 = CIRCLE('',#411,9.);
#411 = AXIS2_PLACEMENT_3D('',#412,#413,#414);
#412 = CARTESIAN_POINT('',(5.940137270954E-14,195.,156.85));
#413 = DIRECTION('',(0.,0.,1.));
#414 = DIRECTION('',(1.,0.,0.));
#415 = PCURVE('',#274,#416);
#416 = DEFINITIONAL_REPRESENTATION('',(#417),#421);
#417 = CIRCLE('',#418,9.);
#418 = AXIS2_PLACEMENT_2D('',#419,#420);
#419 = CARTESIAN_POINT('',(5.896379186713E-14,2.84217094304E-14));
#420 = DIRECTION('',(1.,0.));
#421 = ( GEOMETRIC_REPRESENTATION_CONTEXT(2) 
PARAMETRIC_REPRESENTATION_CONTEXT() REPRESENTATION_CONTEXT('2D SPACE',''
  ) );
#422 = PCURVE('',#423,#428);
#423 = CYLINDRICAL_SURFACE('',#424,9.);
#424 = AXIS2_PLACEMENT_3D('',#425,#426,#427);
#425 = CARTESIAN_POINT('',(5.940137270954E-14,195.,156.85));
#426 = DIRECTION('',(-0.,-0.,-1.));
#427 = DIRECTION('',(1.,0.,0.));
#428 = DEFINITIONAL_REPRESENTATION('',(#429),#433);
#429 = LINE('',#430,#431);
#430 = CARTESIAN_POINT('',(-0.,0.));
#431 = VECTOR('',#432,1.);
#432 = DIRECTION('',(-1.,0.));
#433 = ( GEOMETRIC_REPRESENTATION_CONTEXT(2) 
PARAMETRIC_REPRESENTATION_CONTEXT() REPRESENTATION_CONTEXT('2D SPACE',''
  ) );
#434 = ADVANCED_FACE('',(#435),#313,.T.);
#435 = FACE_BOUND('',#436,.T.);
#436 = EDGE_LOOP('',(#437,#460,#461,#484));
#437 = ORIENTED_EDGE('',*,*,#438,.F.);
#438 = EDGE_CURVE('',#299,#439,#441,.T.);
#439 = VERTEX_POINT('',#440);
#440 = CARTESIAN_POINT('',(4.15,199.15,176.5));
#441 = SURFACE_CURVE('',#442,(#446,#453),.PCURVE_S1.);
#442 = LINE('',#443,#444);
#443 = CARTESIAN_POINT('',(4.15,199.15,150.5));
#444 = VECTOR('',#445,1.);
#445 = DIRECTION('',(0.,0.,1.));
#446 = PCURVE('',#313,#447);
#447 = DEFINITIONAL_REPRESENTATION('',(#448),#452);
#448 = LINE('',#449,#450);
#449 = CARTESIAN_POINT('',(8.3,0.));
#450 = VECTOR('',#451,1.);
#451 = DIRECTION('',(0.,-1.));
#452 = ( GEOMETRIC_REPRESENTATION_CONTEXT(2) 
PARAMETRIC_REPRESENTATION_CONTEXT() REPRESENTATION_CONTEXT('2D SPACE',''
  ) );
#453 = PCURVE('',#389,#454);
#454 = DEFINITIONAL_REPRESENTATION('',(#455),#459);
#455 = LINE('',#456,#457);
#456 = CARTESIAN_POINT('',(0.,-0.));
#457 = VECTOR('',#458,1.);
#458 = DIRECTION('',(0.,-1.));
#459 = ( GEOMETRIC_REPRESENTATION_CONTEXT(2) 
PARAMETRIC_REPRESENTATION_CONTEXT() REPRESENTATION_CONTEXT('2D SPACE',''
  ) );
#460 = ORIENTED_EDGE('',*,*,#296,.F.);
#461 = ORIENTED_EDGE('',*,*,#462,.T.);
#462 = EDGE_CURVE('',#297,#463,#465,.T.);
#463 = VERTEX_POINT('',#464);
#464 = CARTESIAN_POINT('',(4.15,190.85,176.5));
#465 = SURFACE_CURVE('',#466,(#470,#477),.PCURVE_S1.);
#466 = LINE('',#467,#468);
#467 = CARTESIAN_POINT('',(4.15,190.85,150.5));
#468 = VECTOR('',#469,1.);
#469 = DIRECTION('',(0.,0.,1.));
#470 = PCURVE('',#313,#471);
#471 = DEFINITIONAL_REPRESENTATION('',(#472),#476);
#472 = LINE('',#473,#474);
#473 = CARTESIAN_POINT('',(0.,0.));
#474 = VECTOR('',#475,1.);
#475 = DIRECTION('',(0.,-1.));
#476 = ( GEOMETRIC_REPRESENTATION_CONTEXT(2) 
PARAMETRIC_REPRESENTATION_CONTEXT() REPRESENTATION_CONTEXT('2D SPACE',''
  ) );
#477 = PCURVE('',#339,#478);
#478 = DEFINITIONAL_REPRESENTATION('',(#479),#483);
#479 = LINE('',#480,#481);
#480 = CARTESIAN_POINT('',(8.3,0.));
#481 = VECTOR('',#482,1.);
#482 = DIRECTION('',(0.,-1.));
#483 = ( GEOMETRIC_REPRESENTATION_CONTEXT(2) 
PARAMETRIC_REPRESENTATION_CONTEXT() REPRESENTATION_CONTEXT('2D SPACE',''
  ) );
#484 = ORIENTED_EDGE('',*,*,#485,.F.);
#485 = EDGE_CURVE('',#439,#463,#486,.T.);
#486 = SURFACE_CURVE('',#487,(#491,#497),.PCURVE_S1.);
#487 = LINE('',#488,#489);
#488 = CARTESIAN_POINT('',(4.15,192.925,176.5));
#489 = VECTOR('',#490,1.);
#490 = DIRECTION('',(0.,-1.,0.));
#491 = PCURVE('',#313,#492);
#492 = DEFINITIONAL_REPRESENTATION('',(#493),#496);
#493 = B_SPLINE_CURVE_WITH_KNOTS('',1,(#494,#495),.UNSPECIFIED.,.F.,.F.,
  (2,2),(-6.225,2.075),.PIECEWISE_BEZIER_KNOTS.);
#494 = CARTESIAN_POINT('',(8.3,-26.));
#495 = CARTESIAN_POINT('',(0.,-26.));
#496 = ( GEOMETRIC_REPRESENTATION_CONTEXT(2) 
PARAMETRIC_REPRESENTATION_CONTEXT() REPRESENTATION_CONTEXT('2D SPACE',''
  ) );
#497 = PCURVE('',#498,#503);
#498 = PLANE('',#499);
#499 = AXIS2_PLACEMENT_3D('',#500,#501,#502);
#500 = CARTESIAN_POINT('',(4.972509572871E-16,195.,176.5));
#501 = DIRECTION('',(0.,0.,1.));
#502 = DIRECTION('',(1.,0.,-0.));
#503 = DEFINITIONAL_REPRESENTATION('',(#504),#507);
#504 = B_SPLINE_CURVE_WITH_KNOTS('',1,(#505,#506),.UNSPECIFIED.,.F.,.F.,
  (2,2),(-6.225,2.075),.PIECEWISE_BEZIER_KNOTS.);
#505 = CARTESIAN_POINT('',(4.15,4.15));
#506 = CARTESIAN_POINT('',(4.15,-4.15));
#507 = ( GEOMETRIC_REPRESENTATION_CONTEXT(2) 
PARAMETRIC_REPRESENTATION_CONTEXT() REPRESENTATION_CONTEXT('2D SPACE',''
  ) );
#508 = ADVANCED_FACE('',(#509),#389,.T.);
#509 = FACE_BOUND('',#510,.T.);
#510 = EDGE_LOOP('',(#511,#534,#535,#536));
#511 = ORIENTED_EDGE('',*,*,#512,.F.);
#512 = EDGE_CURVE('',#351,#513,#515,.T.);
#513 = VERTEX_POINT('',#514);
#514 = CARTESIAN_POINT('',(-4.15,199.15,176.5));
#515 = SURFACE_CURVE('',#516,(#520,#527),.PCURVE_S1.);
#516 = LINE('',#517,#518);
#517 = CARTESIAN_POINT('',(-4.15,199.15,150.5));
#518 = VECTOR('',#519,1.);
#519 = DIRECTION('',(0.,0.,1.));
#520 = PCURVE('',#389,#521);
#521 = DEFINITIONAL_REPRESENTATION('',(#522),#526);
#522 = LINE('',#523,#524);
#523 = CARTESIAN_POINT('',(8.3,0.));
#524 = VECTOR('',#525,1.);
#525 = DIRECTION('',(0.,-1.));
#526 = ( GEOMETRIC_REPRESENTATION_CONTEXT(2) 
PARAMETRIC_REPRESENTATION_CONTEXT() REPRESENTATION_CONTEXT('2D SPACE',''
  ) );
#527 = PCURVE('',#365,#528);
#528 = DEFINITIONAL_REPRESENTATION('',(#529),#533);
#529 = LINE('',#530,#531);
#530 = CARTESIAN_POINT('',(0.,0.));
#531 = VECTOR('',#532,1.);
#532 = DIRECTION('',(0.,-1.));
#533 = ( GEOMETRIC_REPRESENTATION_CONTEXT(2) 
PARAMETRIC_REPRESENTATION_CONTEXT() REPRESENTATION_CONTEXT('2D SPACE',''
  ) );
#534 = ORIENTED_EDGE('',*,*,#376,.F.);
#535 = ORIENTED_EDGE('',*,*,#438,.T.);
#536 = ORIENTED_EDGE('',*,*,#537,.F.);
#537 = EDGE_CURVE('',#513,#439,#538,.T.);
#538 = SURFACE_CURVE('',#539,(#543,#549),.PCURVE_S1.);
#539 = LINE('',#540,#541);
#540 = CARTESIAN_POINT('',(2.075,199.15,176.5));
#541 = VECTOR('',#542,1.);
#542 = DIRECTION('',(1.,0.,-0.));
#543 = PCURVE('',#389,#544);
#544 = DEFINITIONAL_REPRESENTATION('',(#545),#548);
#545 = B_SPLINE_CURVE_WITH_KNOTS('',1,(#546,#547),.UNSPECIFIED.,.F.,.F.,
  (2,2),(-6.225,2.075),.PIECEWISE_BEZIER_KNOTS.);
#546 = CARTESIAN_POINT('',(8.3,-26.));
#547 = CARTESIAN_POINT('',(0.,-26.));
#548 = ( GEOMETRIC_REPRESENTATION_CONTEXT(2) 
PARAMETRIC_REPRESENTATION_CONTEXT() REPRESENTATION_CONTEXT('2D SPACE',''
  ) );
#549 = PCURVE('',#498,#550);
#550 = DEFINITIONAL_REPRESENTATION('',(#551),#554);
#551 = B_SPLINE_CURVE_WITH_KNOTS('',1,(#552,#553),.UNSPECIFIED.,.F.,.F.,
  (2,2),(-6.225,2.075),.PIECEWISE_BEZIER_KNOTS.);
#552 = CARTESIAN_POINT('',(-4.15,4.15));
#553 = CARTESIAN_POINT('',(4.15,4.15));
#554 = ( GEOMETRIC_REPRESENTATION_CONTEXT(2) 
PARAMETRIC_REPRESENTATION_CONTEXT() REPRESENTATION_CONTEXT('2D SPACE',''
  ) );
#555 = ADVANCED_FACE('',(#556),#365,.T.);
#556 = FACE_BOUND('',#557,.T.);
#557 = EDGE_LOOP('',(#558,#581,#582,#583));
#558 = ORIENTED_EDGE('',*,*,#559,.F.);
#559 = EDGE_CURVE('',#325,#560,#562,.T.);
#560 = VERTEX_POINT('',#561);
#561 = CARTESIAN_POINT('',(-4.15,190.85,176.5));
#562 = SURFACE_CURVE('',#563,(#567,#574),.PCURVE_S1.);
#563 = LINE('',#564,#565);
#564 = CARTESIAN_POINT('',(-4.15,190.85,150.5));
#565 = VECTOR('',#566,1.);
#566 = DIRECTION('',(0.,0.,1.));
#567 = PCURVE('',#365,#568);
#568 = DEFINITIONAL_REPRESENTATION('',(#569),#573);
#569 = LINE('',#570,#571);
#570 = CARTESIAN_POINT('',(8.3,0.));
#571 = VECTOR('',#572,1.);
#572 = DIRECTION('',(0.,-1.));
#573 = ( GEOMETRIC_REPRESENTATION_CONTEXT(2) 
PARAMETRIC_REPRESENTATION_CONTEXT() REPRESENTATION_CONTEXT('2D SPACE',''
  ) );
#574 = PCURVE('',#339,#575);
#575 = DEFINITIONAL_REPRESENTATION('',(#576),#580);
#576 = LINE('',#577,#578);
#577 = CARTESIAN_POINT('',(0.,0.));
#578 = VECTOR('',#579,1.);
#579 = DIRECTION('',(0.,-1.));
#580 = ( GEOMETRIC_REPRESENTATION_CONTEXT(2) 
PARAMETRIC_REPRESENTATION_CONTEXT() REPRESENTATION_CONTEXT('2D SPACE',''
  ) );
#581 = ORIENTED_EDGE('',*,*,#350,.F.);
#582 = ORIENTED_EDGE('',*,*,#512,.T.);
#583 = ORIENTED_EDGE('',*,*,#584,.F.);
#584 = EDGE_CURVE('',#560,#513,#585,.T.);
#585 = SURFACE_CURVE('',#586,(#590,#596),.PCURVE_S1.);
#586 = LINE('',#587,#588);
#587 = CARTESIAN_POINT('',(-4.15,197.075,176.5));
#588 = VECTOR('',#589,1.);
#589 = DIRECTION('',(-0.,1.,0.));
#590 = PCURVE('',#365,#591);
#591 = DEFINITIONAL_REPRESENTATION('',(#592),#595);
#592 = B_SPLINE_CURVE_WITH_KNOTS('',1,(#593,#594),.UNSPECIFIED.,.F.,.F.,
  (2,2),(-6.225,2.075),.PIECEWISE_BEZIER_KNOTS.);
#593 = CARTESIAN_POINT('',(8.3,-26.));
#594 = CARTESIAN_POINT('',(0.,-26.));
#595 = ( GEOMETRIC_REPRESENTATION_CONTEXT(2) 
PARAMETRIC_REPRESENTATION_CONTEXT() REPRESENTATION_CONTEXT('2D SPACE',''
  ) );
#596 = PCURVE('',#498,#597);
#597 = DEFINITIONAL_REPRESENTATION('',(#598),#601);
#598 = B_SPLINE_CURVE_WITH_KNOTS('',1,(#599,#600),.UNSPECIFIED.,.F.,.F.,
  (2,2),(-6.225,2.075),.PIECEWISE_BEZIER_KNOTS.);
#599 = CARTESIAN_POINT('',(-4.15,-4.15));
#600 = CARTESIAN_POINT('',(-4.15,4.15));
#601 = ( GEOMETRIC_REPRESENTATION_CONTEXT(2) 
PARAMETRIC_REPRESENTATION_CONTEXT() REPRESENTATION_CONTEXT('2D SPACE',''
  ) );
#602 = ADVANCED_FACE('',(#603),#339,.T.);
#603 = FACE_BOUND('',#604,.T.);
#604 = EDGE_LOOP('',(#605,#606,#607,#608));
#605 = ORIENTED_EDGE('',*,*,#462,.F.);
#606 = ORIENTED_EDGE('',*,*,#324,.F.);
#607 = ORIENTED_EDGE('',*,*,#559,.T.);
#608 = ORIENTED_EDGE('',*,*,#609,.F.);
#609 = EDGE_CURVE('',#463,#560,#610,.T.);
#610 = SURFACE_CURVE('',#611,(#615,#621),.PCURVE_S1.);
#611 = LINE('',#612,#613);
#612 = CARTESIAN_POINT('',(-2.075,190.85,176.5));
#613 = VECTOR('',#614,1.);
#614 = DIRECTION('',(-1.,0.,0.));
#615 = PCURVE('',#339,#616);
#616 = DEFINITIONAL_REPRESENTATION('',(#617),#620);
#617 = B_SPLINE_CURVE_WITH_KNOTS('',1,(#618,#619),.UNSPECIFIED.,.F.,.F.,
  (2,2),(-6.225,2.075),.PIECEWISE_BEZIER_KNOTS.);
#618 = CARTESIAN_POINT('',(8.3,-26.));
#619 = CARTESIAN_POINT('',(0.,-26.));
#620 = ( GEOMETRIC_REPRESENTATION_CONTEXT(2) 
PARAMETRIC_REPRESENTATION_CONTEXT() REPRESENTATION_CONTEXT('2D SPACE',''
  ) );
#621 = PCURVE('',#498,#622);
#622 = DEFINITIONAL_REPRESENTATION('',(#623),#626);
#623 = B_SPLINE_CURVE_WITH_KNOTS('',1,(#624,#625),.UNSPECIFIED.,.F.,.F.,
  (2,2),(-6.225,2.075),.PIECEWISE_BEZIER_KNOTS.);
#624 = CARTESIAN_POINT('',(4.15,-4.15));
#625 = CARTESIAN_POINT('',(-4.15,-4.15));
#626 = ( GEOMETRIC_REPRESENTATION_CONTEXT(2) 
PARAMETRIC_REPRESENTATION_CONTEXT() REPRESENTATION_CONTEXT('2D SPACE',''
  ) );
#627 = ADVANCED_FACE('',(#628),#423,.T.);
#628 = FACE_BOUND('',#629,.F.);
#629 = EDGE_LOOP('',(#630,#653,#680,#681));
#630 = ORIENTED_EDGE('',*,*,#631,.T.);
#631 = EDGE_CURVE('',#407,#632,#634,.T.);
#632 = VERTEX_POINT('',#633);
#633 = CARTESIAN_POINT('',(9.,195.,160.15));
#634 = SEAM_CURVE('',#635,(#639,#646),.PCURVE_S1.);
#635 = LINE('',#636,#637);
#636 = CARTESIAN_POINT('',(9.,195.,156.85));
#637 = VECTOR('',#638,1.);
#638 = DIRECTION('',(0.,0.,1.));
#639 = PCURVE('',#423,#640);
#640 = DEFINITIONAL_REPRESENTATION('',(#641),#645);
#641 = LINE('',#642,#643);
#642 = CARTESIAN_POINT('',(-0.,0.));
#643 = VECTOR('',#644,1.);
#644 = DIRECTION('',(-0.,-1.));
#645 = ( GEOMETRIC_REPRESENTATION_CONTEXT(2) 
PARAMETRIC_REPRESENTATION_CONTEXT() REPRESENTATION_CONTEXT('2D SPACE',''
  ) );
#646 = PCURVE('',#423,#647);
#647 = DEFINITIONAL_REPRESENTATION('',(#648),#652);
#648 = LINE('',#649,#650);
#649 = CARTESIAN_POINT('',(-6.28318530718,0.));
#650 = VECTOR('',#651,1.);
#651 = DIRECTION('',(-0.,-1.));
#652 = ( GEOMETRIC_REPRESENTATION_CONTEXT(2) 
PARAMETRIC_REPRESENTATION_CONTEXT() REPRESENTATION_CONTEXT('2D SPACE',''
  ) );
#653 = ORIENTED_EDGE('',*,*,#654,.T.);
#654 = EDGE_CURVE('',#632,#632,#655,.T.);
#655 = SURFACE_CURVE('',#656,(#661,#668),.PCURVE_S1.);
#656 = CIRCLE('',#657,9.);
#657 = AXIS2_PLACEMENT_3D('',#658,#659,#660);
#658 = CARTESIAN_POINT('',(5.940137270954E-14,195.,160.15));
#659 = DIRECTION('',(0.,0.,1.));
#660 = DIRECTION('',(1.,0.,0.));
#661 = PCURVE('',#423,#662);
#662 = DEFINITIONAL_REPRESENTATION('',(#663),#667);
#663 = LINE('',#664,#665);
#664 = CARTESIAN_POINT('',(-0.,-3.3));
#665 = VECTOR('',#666,1.);
#666 = DIRECTION('',(-1.,0.));
#667 = ( GEOMETRIC_REPRESENTATION_CONTEXT(2) 
PARAMETRIC_REPRESENTATION_CONTEXT() REPRESENTATION_CONTEXT('2D SPACE',''
  ) );
#668 = PCURVE('',#669,#674);
#669 = PLANE('',#670);
#670 = AXIS2_PLACEMENT_3D('',#671,#672,#673);
#671 = CARTESIAN_POINT('',(4.375808424126E-16,195.,160.15));
#672 = DIRECTION('',(0.,0.,1.));
#673 = DIRECTION('',(1.,0.,-0.));
#674 = DEFINITIONAL_REPRESENTATION('',(#675),#679);
#675 = CIRCLE('',#676,9.);
#676 = AXIS2_PLACEMENT_2D('',#677,#678);
#677 = CARTESIAN_POINT('',(5.896379186713E-14,2.84217094304E-14));
#678 = DIRECTION('',(1.,0.));
#679 = ( GEOMETRIC_REPRESENTATION_CONTEXT(2) 
PARAMETRIC_REPRESENTATION_CONTEXT() REPRESENTATION_CONTEXT('2D SPACE',''
  ) );
#680 = ORIENTED_EDGE('',*,*,#631,.F.);
#681 = ORIENTED_EDGE('',*,*,#406,.F.);
#682 = ADVANCED_FACE('',(#683,#714),#498,.T.);
#683 = FACE_BOUND('',#684,.T.);
#684 = EDGE_LOOP('',(#685));
#685 = ORIENTED_EDGE('',*,*,#686,.T.);
#686 = EDGE_CURVE('',#687,#687,#689,.T.);
#687 = VERTEX_POINT('',#688);
#688 = CARTESIAN_POINT('',(11.,195.,176.5));
#689 = SURFACE_CURVE('',#690,(#695,#702),.PCURVE_S1.);
#690 = CIRCLE('',#691,11.);
#691 = AXIS2_PLACEMENT_3D('',#692,#693,#694);
#692 = CARTESIAN_POINT('',(0.,195.,176.5));
#693 = DIRECTION('',(0.,0.,1.));
#694 = DIRECTION('',(1.,0.,0.));
#695 = PCURVE('',#498,#696);
#696 = DEFINITIONAL_REPRESENTATION('',(#697),#701);
#697 = CIRCLE('',#698,11.);
#698 = AXIS2_PLACEMENT_2D('',#699,#700);
#699 = CARTESIAN_POINT('',(-4.972509572871E-16,2.84217094304E-14));
#700 = DIRECTION('',(1.,0.));
#701 = ( GEOMETRIC_REPRESENTATION_CONTEXT(2) 
PARAMETRIC_REPRESENTATION_CONTEXT() REPRESENTATION_CONTEXT('2D SPACE',''
  ) );
#702 = PCURVE('',#703,#708);
#703 = CYLINDRICAL_SURFACE('',#704,11.);
#704 = AXIS2_PLACEMENT_3D('',#705,#706,#707);
#705 = CARTESIAN_POINT('',(0.,195.,154.5));
#706 = DIRECTION('',(-0.,-0.,-1.));
#707 = DIRECTION('',(1.,0.,0.));
#708 = DEFINITIONAL_REPRESENTATION('',(#709),#713);
#709 = LINE('',#710,#711);
#710 = CARTESIAN_POINT('',(-0.,-22.));
#711 = VECTOR('',#712,1.);
#712 = DIRECTION('',(-1.,0.));
#713 = ( GEOMETRIC_REPRESENTATION_CONTEXT(2) 
PARAMETRIC_REPRESENTATION_CONTEXT() REPRESENTATION_CONTEXT('2D SPACE',''
  ) );
#714 = FACE_BOUND('',#715,.T.);
#715 = EDGE_LOOP('',(#716,#717,#718,#719));
#716 = ORIENTED_EDGE('',*,*,#485,.T.);
#717 = ORIENTED_EDGE('',*,*,#609,.T.);
#718 = ORIENTED_EDGE('',*,*,#584,.T.);
#719 = ORIENTED_EDGE('',*,*,#537,.T.);
#720 = ADVANCED_FACE('',(#721,#751),#669,.F.);
#721 = FACE_BOUND('',#722,.F.);
#722 = EDGE_LOOP('',(#723));
#723 = ORIENTED_EDGE('',*,*,#724,.F.);
#724 = EDGE_CURVE('',#725,#725,#727,.T.);
#725 = VERTEX_POINT('',#726);
#726 = CARTESIAN_POINT('',(11.,195.,160.15));
#727 = SURFACE_CURVE('',#728,(#733,#744),.PCURVE_S1.);
#728 = CIRCLE('',#729,11.);
#729 = AXIS2_PLACEMENT_3D('',#730,#731,#732);
#730 = CARTESIAN_POINT('',(0.,195.,160.15));
#731 = DIRECTION('',(0.,0.,-1.));
#732 = DIRECTION('',(1.,0.,0.));
#733 = PCURVE('',#669,#734);
#734 = DEFINITIONAL_REPRESENTATION('',(#735),#743);
#735 = ( BOUNDED_CURVE() B_SPLINE_CURVE(2,(#736,#737,#738,#739,#740,#741
,#742),.UNSPECIFIED.,.T.,.F.) B_SPLINE_CURVE_WITH_KNOTS((1,2,2,2,2,1),(
    -2.094395102393,0.,2.094395102393,4.188790204786,6.28318530718,
8.377580409573),.UNSPECIFIED.) CURVE() GEOMETRIC_REPRESENTATION_ITEM() 
RATIONAL_B_SPLINE_CURVE((1.,0.5,1.,0.5,1.,0.5,1.)) REPRESENTATION_ITEM(
  '') );
#736 = CARTESIAN_POINT('',(11.,2.84217094304E-14));
#737 = CARTESIAN_POINT('',(11.,-19.05255888325));
#738 = CARTESIAN_POINT('',(-5.5,-9.526279441629));
#739 = CARTESIAN_POINT('',(-22.,2.572748647228E-14));
#740 = CARTESIAN_POINT('',(-5.5,9.526279441629));
#741 = CARTESIAN_POINT('',(11.,19.052558883258));
#742 = CARTESIAN_POINT('',(11.,2.84217094304E-14));
#743 = ( GEOMETRIC_REPRESENTATION_CONTEXT(2) 
PARAMETRIC_REPRESENTATION_CONTEXT() REPRESENTATION_CONTEXT('2D SPACE',''
  ) );
#744 = PCURVE('',#703,#745);
#745 = DEFINITIONAL_REPRESENTATION('',(#746),#750);
#746 = LINE('',#747,#748);
#747 = CARTESIAN_POINT('',(-6.28318530718,-5.65));
#748 = VECTOR('',#749,1.);
#749 = DIRECTION('',(1.,-0.));
#750 = ( GEOMETRIC_REPRESENTATION_CONTEXT(2) 
PARAMETRIC_REPRESENTATION_CONTEXT() REPRESENTATION_CONTEXT('2D SPACE',''
  ) );
#751 = FACE_BOUND('',#752,.F.);
#752 = EDGE_LOOP('',(#753));
#753 = ORIENTED_EDGE('',*,*,#654,.F.);
#754 = ADVANCED_FACE('',(#755,#781,#1132),#703,.T.);
#755 = FACE_BOUND('',#756,.F.);
#756 = EDGE_LOOP('',(#757,#758,#779,#780));
#757 = ORIENTED_EDGE('',*,*,#724,.T.);
#758 = ORIENTED_EDGE('',*,*,#759,.T.);
#759 = EDGE_CURVE('',#725,#687,#760,.T.);
#760 = SEAM_CURVE('',#761,(#765,#772),.PCURVE_S1.);
#761 = LINE('',#762,#763);
#762 = CARTESIAN_POINT('',(11.,195.,154.5));
#763 = VECTOR('',#764,1.);
#764 = DIRECTION('',(0.,0.,1.));
#765 = PCURVE('',#703,#766);
#766 = DEFINITIONAL_REPRESENTATION('',(#767),#771);
#767 = LINE('',#768,#769);
#768 = CARTESIAN_POINT('',(-6.28318530718,0.));
#769 = VECTOR('',#770,1.);
#770 = DIRECTION('',(-0.,-1.));
#771 = ( GEOMETRIC_REPRESENTATION_CONTEXT(2) 
PARAMETRIC_REPRESENTATION_CONTEXT() REPRESENTATION_CONTEXT('2D SPACE',''
  ) );
#772 = PCURVE('',#703,#773);
#773 = DEFINITIONAL_REPRESENTATION('',(#774),#778);
#774 = LINE('',#775,#776);
#775 = CARTESIAN_POINT('',(-0.,0.));
#776 = VECTOR('',#777,1.);
#777 = DIRECTION('',(-0.,-1.));
#778 = ( GEOMETRIC_REPRESENTATION_CONTEXT(2) 
PARAMETRIC_REPRESENTATION_CONTEXT() REPRESENTATION_CONTEXT('2D SPACE',''
  ) );
#779 = ORIENTED_EDGE('',*,*,#686,.T.);
#780 = ORIENTED_EDGE('',*,*,#759,.F.);
#781 = FACE_BOUND('',#782,.F.);
#782 = EDGE_LOOP('',(#783));
#783 = ORIENTED_EDGE('',*,*,#784,.F.);
#784 = EDGE_CURVE('',#785,#785,#787,.T.);
#785 = VERTEX_POINT('',#786);
#786 = CARTESIAN_POINT('',(-5.370288632839,204.6,170.));
#787 = SURFACE_CURVE('',#788,(#899,#1013),.PCURVE_S1.);
#788 = B_SPLINE_CURVE_WITH_KNOTS('',7,(#789,#790,#791,#792,#793,#794,
    #795,#796,#797,#798,#799,#800,#801,#802,#803,#804,#805,#806,#807,
    #808,#809,#810,#811,#812,#813,#814,#815,#816,#817,#818,#819,#820,
    #821,#822,#823,#824,#825,#826,#827,#828,#829,#830,#831,#832,#833,
    #834,#835,#836,#837,#838,#839,#840,#841,#842,#843,#844,#845,#846,
    #847,#848,#849,#850,#851,#852,#853,#854,#855,#856,#857,#858,#859,
    #860,#861,#862,#863,#864,#865,#866,#867,#868,#869,#870,#871,#872,
    #873,#874,#875,#876,#877,#878,#879,#880,#881,#882,#883,#884,#885,
    #886,#887,#888,#889,#890,#891,#892,#893,#894,#895,#896,#897,#898),
  .UNSPECIFIED.,.T.,.F.,(8,6,6,6,6,6,6,6,6,6,6,6,6,6,6,6,6,6,8),(0.,
    4.997409477673E-02,9.791654490429E-02,0.165771502042,0.243331264639,
    0.312625183767,0.372300715694,0.409876518624,0.451662911568,
    0.499695129845,0.547923949149,0.589373673035,0.628398671142,
    0.668099081003,0.717687050269,0.834830719881,0.903329544404,
    0.94955302231,1.),.UNSPECIFIED.);
#789 = CARTESIAN_POINT('',(-5.370288632839,204.6,170.));
#790 = CARTESIAN_POINT('',(-5.370288632839,204.6,170.10540992271));
#791 = CARTESIAN_POINT('',(-5.381323127499,204.59382698814,
    170.20986169324));
#792 = CARTESIAN_POINT('',(-5.40303265586,204.58168344585,
    170.31266880221));
#793 = CARTESIAN_POINT('',(-5.434642864823,204.56389452892,
    170.41311801092));
#794 = CARTESIAN_POINT('',(-5.474966518201,204.5409368559,
    170.51044929521));
#795 = CARTESIAN_POINT('',(-5.522415641356,204.51349829141,
    170.60384133112));
#796 = CARTESIAN_POINT('',(-5.625493231699,204.45289656668,
    170.77736335078));
#797 = CARTESIAN_POINT('',(-5.681222887839,204.41971016106,
    170.85874049104));
#798 = CARTESIAN_POINT('',(-5.741267923091,204.38340084107,
    170.93662790705));
#799 = CARTESIAN_POINT('',(-5.804843002878,204.3442847172,
    171.01114220063));
#800 = CARTESIAN_POINT('',(-5.871322302119,204.30260964259,
    171.08241893751));
#801 = CARTESIAN_POINT('',(-5.940235544695,204.25855248356,
    171.15060878268));
#802 = CARTESIAN_POINT('',(-6.111784091037,204.14661155959,
    171.30824525404));
#803 = CARTESIAN_POINT('',(-6.216675975714,204.07634177298,
    171.39488408948));
#804 = CARTESIAN_POINT('',(-6.324751646849,204.00182895765,171.475952444
    ));
#805 = CARTESIAN_POINT('',(-6.4352048251,203.92334590714,171.55162883232
    ));
#806 = CARTESIAN_POINT('',(-6.547523177811,203.84101662102,
    171.62206570572));
#807 = CARTESIAN_POINT('',(-6.661406259003,203.75483208181,
    171.68734595869));
#808 = CARTESIAN_POINT('',(-6.908451776157,203.56161648666,
    171.81612463147));
#809 = CARTESIAN_POINT('',(-7.041887710957,203.4534878394,
    171.87795237557));
#810 = CARTESIAN_POINT('',(-7.176382308603,203.34040298388,
    171.93271759646));
#811 = CARTESIAN_POINT('',(-7.311439556979,203.2224449566,
    171.98008580353));
#812 = CARTESIAN_POINT('',(-7.446612078789,203.09969146286,
    172.01958062735));
#813 = CARTESIAN_POINT('',(-7.581447926951,202.97226397131,
    172.05056695059));
#814 = CARTESIAN_POINT('',(-7.835171484363,202.72258382598,
    172.0915809669));
#815 = CARTESIAN_POINT('',(-7.954404013057,202.60105324318,
    172.10351894155));
#816 = CARTESIAN_POINT('',(-8.072454516371,202.47628444168,
    172.10736717104));
#817 = CARTESIAN_POINT('',(-8.188664453243,202.34883536595,
    172.10246173284));
#818 = CARTESIAN_POINT('',(-8.302409932522,202.2193571296,
    172.08814785093));
#819 = CARTESIAN_POINT('',(-8.413100126231,202.08861090146,
    172.06377855337));
#820 = CARTESIAN_POINT('',(-8.612385889523,201.84456454729,
    171.99851640528));
#821 = CARTESIAN_POINT('',(-8.701888968507,201.73139460432,
    171.96039530343));
#822 = CARTESIAN_POINT('',(-8.787955851968,201.61900227884,
    171.91407146337));
#823 = CARTESIAN_POINT('',(-8.869993048405,201.50842613516,
    171.85944453871));
#824 = CARTESIAN_POINT('',(-8.947532887172,201.40069976828,
    171.79659411727));
#825 = CARTESIAN_POINT('',(-9.020220755192,201.29682482102,
    171.72578191589));
#826 = CARTESIAN_POINT('',(-9.130349095882,201.13534260702,
    171.59813503008));
#827 = CARTESIAN_POINT('',(-9.170837861564,201.07489989857,
    171.54587738546));
#828 = CARTESIAN_POINT('',(-9.209206130941,201.01663484628,
    171.49080283662));
#829 = CARTESIAN_POINT('',(-9.245412047737,200.96076132602,
    171.43305896386));
#830 = CARTESIAN_POINT('',(-9.279428144156,200.90747665299,
    171.37282009089));
#831 = CARTESIAN_POINT('',(-9.311239521866,200.8569582907,171.3102872047
    ));
#832 = CARTESIAN_POINT('',(-9.373761679812,200.75642922302,
    171.17384981133));
#833 = CARTESIAN_POINT('',(-9.403946998554,200.7071140102,
    171.09946203661));
#834 = CARTESIAN_POINT('',(-9.431429505535,200.66156806514,
    171.02276077605));
#835 = CARTESIAN_POINT('',(-9.456244060898,200.61992461098,
    170.94399585342));
#836 = CARTESIAN_POINT('',(-9.478427612656,200.58229492716,
    170.86343036316));
#837 = CARTESIAN_POINT('',(-9.49801794075,200.54876632626,
    170.78134034188));
#838 = CARTESIAN_POINT('',(-9.534633007617,200.48564456091,170.602233789
    ));
#839 = CARTESIAN_POINT('',(-9.550842209639,200.45737911738,
    170.5047934202));
#840 = CARTESIAN_POINT('',(-9.563755064071,200.43466582727,
    170.40602780173));
#841 = CARTESIAN_POINT('',(-9.57342878901,200.41755052945,
    170.30627110758));
#842 = CARTESIAN_POINT('',(-9.579902595448,200.40606270502,
    170.20585727114));
#843 = CARTESIAN_POINT('',(-9.583197518963,200.40021530784,
    170.10512003881));
#844 = CARTESIAN_POINT('',(-9.583435469869,200.39979301953,
    169.90325372193));
#845 = CARTESIAN_POINT('',(-9.58035249183,200.40526428028,
    169.80208456057));
#846 = CARTESIAN_POINT('',(-9.574065660059,200.41642273131,
    169.70122266655));
#847 = CARTESIAN_POINT('',(-9.564554577601,200.43325593688,
    169.60100533448));
#848 = CARTESIAN_POINT('',(-9.551780271722,200.45573483332,
    169.50177008882));
#849 = CARTESIAN_POINT('',(-9.535685357854,200.48381389086,
    169.40385474619));
#850 = CARTESIAN_POINT('',(-9.499442747104,200.54632336404,
    169.22487023572));
#851 = CARTESIAN_POINT('',(-9.480178730207,200.57931304609,
    169.14334857481));
#852 = CARTESIAN_POINT('',(-9.458365675712,200.61634147654,
    169.06331299991));
#853 = CARTESIAN_POINT('',(-9.433966518682,200.65732491358,
    168.9850321129));
#854 = CARTESIAN_POINT('',(-9.406944788477,200.70215661636,
    168.90876230202));
#855 = CARTESIAN_POINT('',(-9.377265790856,200.75070874269,
    168.83474743123));
#856 = CARTESIAN_POINT('',(-9.314423252477,200.8519105129,168.6958739255
    ));
#857 = CARTESIAN_POINT('',(-9.281566279244,200.90415247767,
    168.63073549148));
#858 = CARTESIAN_POINT('',(-9.246330521453,200.95938942204,
    168.56805992181));
#859 = CARTESIAN_POINT('',(-9.208731976455,201.01742354841,
    168.5080730947));
#860 = CARTESIAN_POINT('',(-9.168801170136,201.0780339583,
    168.45096996607));
#861 = CARTESIAN_POINT('',(-9.126585339179,201.14098063033,
    168.39691446341));
#862 = CARTESIAN_POINT('',(-9.036946848714,201.27216161155,
    168.29428379256));
#863 = CARTESIAN_POINT('',(-8.989468926501,201.34043618343,
    168.24584496832));
#864 = CARTESIAN_POINT('',(-8.939798845154,201.41054726888,
    168.20086593352));
#865 = CARTESIAN_POINT('',(-8.888039900845,201.48219510657,
    168.15945001825));
#866 = CARTESIAN_POINT('',(-8.834318794332,201.5550691891,168.12166117)
  );
#867 = CARTESIAN_POINT('',(-8.778787737839,201.62885243348,
    168.08752426758));
#868 = CARTESIAN_POINT('',(-8.650229147067,201.79612116775,
    168.01893073612));
#869 = CARTESIAN_POINT('',(-8.576339162034,201.8898711271,
    167.98653884431));
#870 = CARTESIAN_POINT('',(-8.500183389188,201.98401816523,
    167.95973913397));
#871 = CARTESIAN_POINT('',(-8.422017596257,202.07812396108,
    167.93838321032));
#872 = CARTESIAN_POINT('',(-8.342127416498,202.17177063425,
    167.92228522032));
#873 = CARTESIAN_POINT('',(-8.260829228851,202.26456244237,
    167.91122216338));
#874 = CARTESIAN_POINT('',(-7.983912946067,202.57243527429,
    167.8900798963));
#875 = CARTESIAN_POINT('',(-7.783786859006,202.78150951931,
    167.90189984676));
#876 = CARTESIAN_POINT('',(-7.580239249156,202.98123831784,
    167.93661192157));
#877 = CARTESIAN_POINT('',(-7.37516017233,203.17055716936,
    167.99130114318));
#878 = CARTESIAN_POINT('',(-7.170255322609,203.34890767253,
    168.0637977696));
#879 = CARTESIAN_POINT('',(-6.967279075823,203.51590338105,
    168.15260136772));
#880 = CARTESIAN_POINT('',(-6.652267605532,203.76179650285,
    168.31779405051));
#881 = CARTESIAN_POINT('',(-6.537480313301,203.84847218707,
    168.38401940581));
#882 = CARTESIAN_POINT('',(-6.424309103885,203.93122135644,
    168.45549125047));
#883 = CARTESIAN_POINT('',(-6.313063822006,204.01005288594,
    168.53230269147));
#884 = CARTESIAN_POINT('',(-6.204279251736,204.08483476469,
    168.61461810552));
#885 = CARTESIAN_POINT('',(-6.09880150326,204.15527803404,
    168.70262709943));
#886 = CARTESIAN_POINT('',(-5.929770817367,204.26522632526,
    168.85984596386));
#887 = CARTESIAN_POINT('',(-5.863668823501,204.30738804846,
    168.92592677142));
#888 = CARTESIAN_POINT('',(-5.799871948339,204.34732073012,
    168.99488667915));
#889 = CARTESIAN_POINT('',(-5.738810286858,204.38486207248,
    169.06685997918));
#890 = CARTESIAN_POINT('',(-5.68104846601,204.41978839559,169.1419676925
    ));
#891 = CARTESIAN_POINT('',(-5.627288802865,204.45181686843,
    169.22031445962));
#892 = CARTESIAN_POINT('',(-5.524984095793,204.5120128104,
    169.39111905618));
#893 = CARTESIAN_POINT('',(-5.476781106321,204.53990354911,
    169.48518619788));
#894 = CARTESIAN_POINT('',(-5.435782970984,204.56325284471,
    169.58327790597));
#895 = CARTESIAN_POINT('',(-5.403623242461,204.58135310281,
    169.68455701577));
#896 = CARTESIAN_POINT('',(-5.381525101878,204.59371398864,
    169.78824947268));
#897 = CARTESIAN_POINT('',(-5.370288632839,204.6,169.89362968017));
#898 = CARTESIAN_POINT('',(-5.370288632839,204.6,170.));
#899 = PCURVE('',#703,#900);
#900 = DEFINITIONAL_REPRESENTATION('',(#901),#1012);
#901 = B_SPLINE_CURVE_WITH_KNOTS('',7,(#902,#903,#904,#905,#906,#907,
    #908,#909,#910,#911,#912,#913,#914,#915,#916,#917,#918,#919,#920,
    #921,#922,#923,#924,#925,#926,#927,#928,#929,#930,#931,#932,#933,
    #934,#935,#936,#937,#938,#939,#940,#941,#942,#943,#944,#945,#946,
    #947,#948,#949,#950,#951,#952,#953,#954,#955,#956,#957,#958,#959,
    #960,#961,#962,#963,#964,#965,#966,#967,#968,#969,#970,#971,#972,
    #973,#974,#975,#976,#977,#978,#979,#980,#981,#982,#983,#984,#985,
    #986,#987,#988,#989,#990,#991,#992,#993,#994,#995,#996,#997,#998,
    #999,#1000,#1001,#1002,#1003,#1004,#1005,#1006,#1007,#1008,#1009,
    #1010,#1011),.UNSPECIFIED.,.T.,.F.,(8,6,6,6,6,6,6,6,6,6,6,6,6,6,6,6,
    6,6,8),(0.,4.997409477673E-02,9.791654490429E-02,0.165771502042,
    0.243331264639,0.312625183767,0.372300715694,0.409876518624,
    0.451662911568,0.499695129845,0.547923949149,0.589373673035,
    0.628398671142,0.668099081003,0.717687050269,0.834830719881,
    0.903329544404,0.94955302231,1.),.UNSPECIFIED.);
#902 = CARTESIAN_POINT('',(-2.080831630314,-15.5));
#903 = CARTESIAN_POINT('',(-2.080831630314,-15.60540992271));
#904 = CARTESIAN_POINT('',(-2.081981063124,-15.70986169324));
#905 = CARTESIAN_POINT('',(-2.084242451651,-15.81266880221));
#906 = CARTESIAN_POINT('',(-2.087539861797,-15.91311801092));
#907 = CARTESIAN_POINT('',(-2.091758023808,-16.01044929521));
#908 = CARTESIAN_POINT('',(-2.096740746978,-16.10384133112));
#909 = CARTESIAN_POINT('',(-2.107610965095,-16.27736335078));
#910 = CARTESIAN_POINT('',(-2.113507456122,-16.35874049104));
#911 = CARTESIAN_POINT('',(-2.119886264933,-16.43662790705));
#912 = CARTESIAN_POINT('',(-2.126671780119,-16.51114220063));
#913 = CARTESIAN_POINT('',(-2.133804266301,-16.58241893751));
#914 = CARTESIAN_POINT('',(-2.141239656578,-16.65060878268));
#915 = CARTESIAN_POINT('',(-2.159861529928,-16.80824525404));
#916 = CARTESIAN_POINT('',(-2.17133835441,-16.89488408948));
#917 = CARTESIAN_POINT('',(-2.183270484761,-16.975952444));
#918 = CARTESIAN_POINT('',(-2.195586107736,-17.05162883232));
#919 = CARTESIAN_POINT('',(-2.208243846739,-17.12206570572));
#920 = CARTESIAN_POINT('',(-2.221225707264,-17.18734595869));
#921 = CARTESIAN_POINT('',(-2.249737522091,-17.31612463147));
#922 = CARTESIAN_POINT('',(-2.265348529888,-17.37795237557));
#923 = CARTESIAN_POINT('',(-2.281318683886,-17.43271759646));
#924 = CARTESIAN_POINT('',(-2.297614884521,-17.48008580353));
#925 = CARTESIAN_POINT('',(-2.314209042415,-17.51958062735));
#926 = CARTESIAN_POINT('',(-2.331071245701,-17.55056695059));
#927 = CARTESIAN_POINT('',(-2.363432305169,-17.5915809669));
#928 = CARTESIAN_POINT('',(-2.378907459104,-17.60351894155));
#929 = CARTESIAN_POINT('',(-2.394518316031,-17.60736717104));
#930 = CARTESIAN_POINT('',(-2.410193155217,-17.60246173284));
#931 = CARTESIAN_POINT('',(-2.425856625684,-17.58814785093));
#932 = CARTESIAN_POINT('',(-2.441427752615,-17.56377855337));
#933 = CARTESIAN_POINT('',(-2.470071105071,-17.49851640528));
#934 = CARTESIAN_POINT('',(-2.483186347617,-17.46039530343));
#935 = CARTESIAN_POINT('',(-2.496053049589,-17.41407146337));
#936 = CARTESIAN_POINT('',(-2.508567420742,-17.35944453871));
#937 = CARTESIAN_POINT('',(-2.520632070767,-17.29659411727));
#938 = CARTESIAN_POINT('',(-2.532156821659,-17.22578191589));
#939 = CARTESIAN_POINT('',(-2.549925946348,-17.09813503008));
#940 = CARTESIAN_POINT('',(-2.556539413835,-17.04587738546));
#941 = CARTESIAN_POINT('',(-2.562881246941,-16.99080283662));
#942 = CARTESIAN_POINT('',(-2.568933582965,-16.93305896386));
#943 = CARTESIAN_POINT('',(-2.574680370271,-16.87282009089));
#944 = CARTESIAN_POINT('',(-2.580107543926,-16.8102872047));
#945 = CARTESIAN_POINT('',(-2.590869857145,-16.67384981133));
#946 = CARTESIAN_POINT('',(-2.596126080668,-16.59946203661));
#947 = CARTESIAN_POINT('',(-2.60096185914,-16.52276077605));
#948 = CARTESIAN_POINT('',(-2.605368685556,-16.44399585342));
#949 = CARTESIAN_POINT('',(-2.609339712171,-16.36343036316));
#950 = CARTESIAN_POINT('',(-2.612869904007,-16.28134034188));
#951 = CARTESIAN_POINT('',(-2.619503789212,-16.102233789));
#952 = CARTESIAN_POINT('',(-2.622465877263,-16.0047934202));
#953 = CARTESIAN_POINT('',(-2.624841062716,-15.90602780173));
#954 = CARTESIAN_POINT('',(-2.626628331004,-15.80627110758));
#955 = CARTESIAN_POINT('',(-2.627827097839,-15.70585727114));
#956 = CARTESIAN_POINT('',(-2.628437260275,-15.60512003881));
#957 = CARTESIAN_POINT('',(-2.62848132522,-15.40325372193));
#958 = CARTESIAN_POINT('',(-2.627910411971,-15.30208456057));
#959 = CARTESIAN_POINT('',(-2.626746075997,-15.20122266655));
#960 = CARTESIAN_POINT('',(-2.624988408115,-15.10100533448));
#961 = CARTESIAN_POINT('',(-2.62263797132,-15.00177008882));
#962 = CARTESIAN_POINT('',(-2.619695750145,-14.90385474619));
#963 = CARTESIAN_POINT('',(-2.613127003034,-14.72487023572));
#964 = CARTESIAN_POINT('',(-2.609654076862,-14.64334857481));
#965 = CARTESIAN_POINT('',(-2.605747238879,-14.56331299991));
#966 = CARTESIAN_POINT('',(-2.601411282556,-14.4850321129));
#967 = CARTESIAN_POINT('',(-2.596652732491,-14.40876230202));
#968 = CARTESIAN_POINT('',(-2.591479699452,-14.33474743123));
#969 = CARTESIAN_POINT('',(-2.580650071082,-14.1958739255));
#970 = CARTESIAN_POINT('',(-2.575039660775,-14.13073549148));
#971 = CARTESIAN_POINT('',(-2.569083635736,-14.06805992181));
#972 = CARTESIAN_POINT('',(-2.562797648016,-14.0080730947));
#973 = CARTESIAN_POINT('',(-2.55619965733,-13.95096996607));
#974 = CARTESIAN_POINT('',(-2.549309717901,-13.89691446341));
#975 = CARTESIAN_POINT('',(-2.534865894316,-13.79428379256));
#976 = CARTESIAN_POINT('',(-2.527306152732,-13.74584496832));
#977 = CARTESIAN_POINT('',(-2.519495508225,-13.70086593352));
#978 = CARTESIAN_POINT('',(-2.511460895982,-13.65945001825));
#979 = CARTESIAN_POINT('',(-2.503231073074,-13.62166117));
#980 = CARTESIAN_POINT('',(-2.494836472807,-13.58752426758));
#981 = CARTESIAN_POINT('',(-2.475657855943,-13.51893073612));
#982 = CARTESIAN_POINT('',(-2.464806999281,-13.48653884431));
#983 = CARTESIAN_POINT('',(-2.453800034002,-13.45973913397));
#984 = CARTESIAN_POINT('',(-2.442680401972,-13.43838321032));
#985 = CARTESIAN_POINT('',(-2.431491585287,-13.42228522032));
#986 = CARTESIAN_POINT('',(-2.42027724956,-13.41122216338));
#987 = CARTESIAN_POINT('',(-2.382632947773,-13.3900798963));
#988 = CARTESIAN_POINT('',(-2.356334927547,-13.40189984676));
#989 = CARTESIAN_POINT('',(-2.330430333318,-13.43661192157));
#990 = CARTESIAN_POINT('',(-2.305077388945,-13.49130114318));
#991 = CARTESIAN_POINT('',(-2.280397316939,-13.5637977696));
#992 = CARTESIAN_POINT('',(-2.256510280696,-13.65260136772));
#993 = CARTESIAN_POINT('',(-2.220181245594,-13.81779405051));
#994 = CARTESIAN_POINT('',(-2.207106924696,-13.88401940581));
#995 = CARTESIAN_POINT('',(-2.194364126744,-13.95549125047));
#996 = CARTESIAN_POINT('',(-2.181971488084,-14.03230269147));
#997 = CARTESIAN_POINT('',(-2.169972432934,-14.11461810552));
#998 = CARTESIAN_POINT('',(-2.15844257638,-14.20262709943));
#999 = CARTESIAN_POINT('',(-2.140111372004,-14.35984596386));
#1000 = CARTESIAN_POINT('',(-2.132984078438,-14.42592677142));
#1001 = CARTESIAN_POINT('',(-2.126142286673,-14.49488667915));
#1002 = CARTESIAN_POINT('',(-2.119626355146,-14.56685997918));
#1003 = CARTESIAN_POINT('',(-2.113490193781,-14.6419676925));
#1004 = CARTESIAN_POINT('',(-2.10780142799,-14.72031445962));
#1005 = CARTESIAN_POINT('',(-2.097010475045,-14.89111905618));
#1006 = CARTESIAN_POINT('',(-2.091947851967,-14.98518619788));
#1007 = CARTESIAN_POINT('',(-2.087658795332,-15.08327790597));
#1008 = CARTESIAN_POINT('',(-2.084303970344,-15.18455701577));
#1009 = CARTESIAN_POINT('',(-2.082002102446,-15.28824947268));
#1010 = CARTESIAN_POINT('',(-2.080831630314,-15.39362968017));
#1011 = CARTESIAN_POINT('',(-2.080831630314,-15.5));
#1012 = ( GEOMETRIC_REPRESENTATION_CONTEXT(2) 
PARAMETRIC_REPRESENTATION_CONTEXT() REPRESENTATION_CONTEXT('2D SPACE',''
  ) );
#1013 = PCURVE('',#1014,#1019);
#1014 = CYLINDRICAL_SURFACE('',#1015,2.1);
#1015 = AXIS2_PLACEMENT_3D('',#1016,#1017,#1018);
#1016 = CARTESIAN_POINT('',(-14.,202.5,170.));
#1017 = DIRECTION('',(-1.,-0.,-0.));
#1018 = DIRECTION('',(0.,1.,0.));
#1019 = DEFINITIONAL_REPRESENTATION('',(#1020),#1131);
#1020 = B_SPLINE_CURVE_WITH_KNOTS('',7,(#1021,#1022,#1023,#1024,#1025,
    #1026,#1027,#1028,#1029,#1030,#1031,#1032,#1033,#1034,#1035,#1036,
    #1037,#1038,#1039,#1040,#1041,#1042,#1043,#1044,#1045,#1046,#1047,
    #1048,#1049,#1050,#1051,#1052,#1053,#1054,#1055,#1056,#1057,#1058,
    #1059,#1060,#1061,#1062,#1063,#1064,#1065,#1066,#1067,#1068,#1069,
    #1070,#1071,#1072,#1073,#1074,#1075,#1076,#1077,#1078,#1079,#1080,
    #1081,#1082,#1083,#1084,#1085,#1086,#1087,#1088,#1089,#1090,#1091,
    #1092,#1093,#1094,#1095,#1096,#1097,#1098,#1099,#1100,#1101,#1102,
    #1103,#1104,#1105,#1106,#1107,#1108,#1109,#1110,#1111,#1112,#1113,
    #1114,#1115,#1116,#1117,#1118,#1119,#1120,#1121,#1122,#1123,#1124,
    #1125,#1126,#1127,#1128,#1129,#1130),.UNSPECIFIED.,.F.,.F.,(8,6,6,6,
    6,6,6,6,6,6,6,6,6,6,6,6,6,6,8),(0.,4.997409477673E-02,
    9.791654490429E-02,0.165771502042,0.243331264639,0.312625183767,
    0.372300715694,0.409876518624,0.451662911568,0.499695129845,
    0.547923949149,0.589373673035,0.628398671142,0.668099081003,
    0.717687050269,0.834830719881,0.903329544404,0.94955302231,1.),
  .UNSPECIFIED.);
#1021 = CARTESIAN_POINT('',(0.,-8.629711367161));
#1022 = CARTESIAN_POINT('',(-5.019520129068E-02,-8.629711367161));
#1023 = CARTESIAN_POINT('',(-9.993409427287E-02,-8.618676872501));
#1024 = CARTESIAN_POINT('',(-0.149096606223,-8.59696734414));
#1025 = CARTESIAN_POINT('',(-0.19753204378,-8.565357135177));
#1026 = CARTESIAN_POINT('',(-0.245038742433,-8.525033481799));
#1027 = CARTESIAN_POINT('',(-0.291332271396,-8.477584358644));
#1028 = CARTESIAN_POINT('',(-0.378856107276,-8.374506768301));
#1029 = CARTESIAN_POINT('',(-0.420650723319,-8.318777112161));
#1030 = CARTESIAN_POINT('',(-0.461495216292,-8.258732076909));
#1031 = CARTESIAN_POINT('',(-0.501492728635,-8.195156997122));
#1032 = CARTESIAN_POINT('',(-0.540746832214,-8.128677697881));
#1033 = CARTESIAN_POINT('',(-0.579368865326,-8.059764455305));
#1034 = CARTESIAN_POINT('',(-0.671435128018,-7.888215908963));
#1035 = CARTESIAN_POINT('',(-0.72444713525,-7.783324024286));
#1036 = CARTESIAN_POINT('',(-0.776722483218,-7.675248353151));
#1037 = CARTESIAN_POINT('',(-0.828472174735,-7.5647951749));
#1038 = CARTESIAN_POINT('',(-0.879921129653,-7.452476822189));
#1039 = CARTESIAN_POINT('',(-0.931311690234,-7.338593740997));
#1040 = CARTESIAN_POINT('',(-1.041882475651,-7.091548223843));
#1041 = CARTESIAN_POINT('',(-1.101056491596,-6.958112289043));
#1042 = CARTESIAN_POINT('',(-1.160663913941,-6.823617691397));
#1043 = CARTESIAN_POINT('',(-1.220929602267,-6.688560443021));
#1044 = CARTESIAN_POINT('',(-1.282079671999,-6.553387921211));
#1045 = CARTESIAN_POINT('',(-1.344348819874,-6.418552073049));
#1046 = CARTESIAN_POINT('',(-1.464837549227,-6.164828515637));
#1047 = CARTESIAN_POINT('',(-1.522865430216,-6.045595986943));
#1048 = CARTESIAN_POINT('',(-1.582090465101,-5.927545483629));
#1049 = CARTESIAN_POINT('',(-1.642555675053,-5.811335546757));
#1050 = CARTESIAN_POINT('',(-1.704320746559,-5.697590067478));
#1051 = CARTESIAN_POINT('',(-1.767465306815,-5.586899873769));
#1052 = CARTESIAN_POINT('',(-1.887761399338,-5.387614110477));
#1053 = CARTESIAN_POINT('',(-1.944512075888,-5.298111031493));
#1054 = CARTESIAN_POINT('',(-2.002195925,-5.212044148032));
#1055 = CARTESIAN_POINT('',(-2.060678444001,-5.130006951595));
#1056 = CARTESIAN_POINT('',(-2.119837160386,-5.052467112828));
#1057 = CARTESIAN_POINT('',(-2.179552664996,-4.979779244808));
#1058 = CARTESIAN_POINT('',(-2.277571859858,-4.869650904118));
#1059 = CARTESIAN_POINT('',(-2.315583210016,-4.829162138436));
#1060 = CARTESIAN_POINT('',(-2.353701505913,-4.790793869059));
#1061 = CARTESIAN_POINT('',(-2.391895058187,-4.754587952263));
#1062 = CARTESIAN_POINT('',(-2.430130974202,-4.720571855844));
#1063 = CARTESIAN_POINT('',(-2.468373727084,-4.688760478134));
#1064 = CARTESIAN_POINT('',(-2.549075377674,-4.626238320188));
#1065 = CARTESIAN_POINT('',(-2.591523091319,-4.596053001446));
#1066 = CARTESIAN_POINT('',(-2.633918234755,-4.568570494465));
#1067 = CARTESIAN_POINT('',(-2.676251670292,-4.543755939102));
#1068 = CARTESIAN_POINT('',(-2.71851259513,-4.521572387344));
#1069 = CARTESIAN_POINT('',(-2.760687383013,-4.50198205925));
#1070 = CARTESIAN_POINT('',(-2.851117840809,-4.465366992383));
#1071 = CARTESIAN_POINT('',(-2.899353698256,-4.449157790361));
#1072 = CARTESIAN_POINT('',(-2.947490631325,-4.436244935929));
#1073 = CARTESIAN_POINT('',(-2.99555185269,-4.42657121099));
#1074 = CARTESIAN_POINT('',(-3.043559567416,-4.420097404552));
#1075 = CARTESIAN_POINT('',(-3.091535385773,-4.416802481037));
#1076 = CARTESIAN_POINT('',(-3.187662413664,-4.416564530131));
#1077 = CARTESIAN_POINT('',(-3.235832636968,-4.41964750817));
#1078 = CARTESIAN_POINT('',(-3.284033375034,-4.425934339941));
#1079 = CARTESIAN_POINT('',(-3.332286734405,-4.435445422399));
#1080 = CARTESIAN_POINT('',(-3.38061539622,-4.448219728278));
#1081 = CARTESIAN_POINT('',(-3.429043053339,-4.464314642146));
#1082 = CARTESIAN_POINT('',(-3.519322148464,-4.500557252896));
#1083 = CARTESIAN_POINT('',(-3.561150793177,-4.519821269793));
#1084 = CARTESIAN_POINT('',(-3.60306420975,-4.541634324288));
#1085 = CARTESIAN_POINT('',(-3.645049610512,-4.566033481318));
#1086 = CARTESIAN_POINT('',(-3.687096900066,-4.593055211523));
#1087 = CARTESIAN_POINT('',(-3.729197583394,-4.622734209144));
#1088 = CARTESIAN_POINT('',(-3.811024302701,-4.685576747523));
#1089 = CARTESIAN_POINT('',(-3.850743678216,-4.718433720756));
#1090 = CARTESIAN_POINT('',(-3.890457337576,-4.753669478547));
#1091 = CARTESIAN_POINT('',(-3.930125614872,-4.791268023545));
#1092 = CARTESIAN_POINT('',(-3.969711927103,-4.831198829864));
#1093 = CARTESIAN_POINT('',(-4.00918106007,-4.873414660821));
#1094 = CARTESIAN_POINT('',(-4.088494303446,-4.963053151286));
#1095 = CARTESIAN_POINT('',(-4.128313520784,-5.010531073499));
#1096 = CARTESIAN_POINT('',(-4.167910942055,-5.060201154846));
#1097 = CARTESIAN_POINT('',(-4.207243983429,-5.111960099155));
#1098 = CARTESIAN_POINT('',(-4.246270152292,-5.165681205668));
#1099 = CARTESIAN_POINT('',(-4.284945558073,-5.221212262161));
#1100 = CARTESIAN_POINT('',(-4.371034556504,-5.349770852933));
#1101 = CARTESIAN_POINT('',(-4.418191707723,-5.423660837966));
#1102 = CARTESIAN_POINT('',(-4.464691809786,-5.499816610812));
#1103 = CARTESIAN_POINT('',(-4.51052533378,-5.577982403743));
#1104 = CARTESIAN_POINT('',(-4.555675828284,-5.657872583502));
#1105 = CARTESIAN_POINT('',(-4.600119458816,-5.739170771149));
#1106 = CARTESIAN_POINT('',(-4.747070849185,-6.016087053933));
#1107 = CARTESIAN_POINT('',(-4.846010602493,-6.216213140994));
#1108 = CARTESIAN_POINT('',(-4.941560418375,-6.419760750844));
#1109 = CARTESIAN_POINT('',(-5.034437385168,-6.62483982767));
#1110 = CARTESIAN_POINT('',(-5.125338725506,-6.829744677391));
#1111 = CARTESIAN_POINT('',(-5.214929279689,-7.032720924177));
#1112 = CARTESIAN_POINT('',(-5.355991053355,-7.347732394468));
#1113 = CARTESIAN_POINT('',(-5.407837758926,-7.462519686699));
#1114 = CARTESIAN_POINT('',(-5.459755724393,-7.575690896115));
#1115 = CARTESIAN_POINT('',(-5.511996042057,-7.686936177994));
#1116 = CARTESIAN_POINT('',(-5.564791310959,-7.795720748264));
#1117 = CARTESIAN_POINT('',(-5.618359494007,-7.90119849674));
#1118 = CARTESIAN_POINT('',(-5.709716606552,-8.070229182633));
#1119 = CARTESIAN_POINT('',(-5.747009563597,-8.136331176499));
#1120 = CARTESIAN_POINT('',(-5.784899088601,-8.200128051661));
#1121 = CARTESIAN_POINT('',(-5.823484677318,-8.261189713142));
#1122 = CARTESIAN_POINT('',(-5.862859297661,-8.31895153399));
#1123 = CARTESIAN_POINT('',(-5.903115541809,-8.372711197135));
#1124 = CARTESIAN_POINT('',(-5.989354362289,-8.475015904207));
#1125 = CARTESIAN_POINT('',(-6.036015882476,-8.523218893679));
#1126 = CARTESIAN_POINT('',(-6.083915132527,-8.564217029016));
#1127 = CARTESIAN_POINT('',(-6.1327619602,-8.596376757539));
#1128 = CARTESIAN_POINT('',(-6.182351769253,-8.618474898122));
#1129 = CARTESIAN_POINT('',(-6.232532773929,-8.629711367161));
#1130 = CARTESIAN_POINT('',(-6.28318530718,-8.629711367161));
#1131 = ( GEOMETRIC_REPRESENTATION_CONTEXT(2) 
PARAMETRIC_REPRESENTATION_CONTEXT() REPRESENTATION_CONTEXT('2D SPACE',''
  ) );
#1132 = FACE_BOUND('',#1133,.F.);
#1133 = EDGE_LOOP('',(#1134));
#1134 = ORIENTED_EDGE('',*,*,#1135,.T.);
#1135 = EDGE_CURVE('',#1136,#1136,#1138,.T.);
#1136 = VERTEX_POINT('',#1137);
#1137 = CARTESIAN_POINT('',(5.370288632839,204.6,170.));
#1138 = SURFACE_CURVE('',#1139,(#1250,#1364),.PCURVE_S1.);
#1139 = B_SPLINE_CURVE_WITH_KNOTS('',7,(#1140,#1141,#1142,#1143,#1144,
    #1145,#1146,#1147,#1148,#1149,#1150,#1151,#1152,#1153,#1154,#1155,
    #1156,#1157,#1158,#1159,#1160,#1161,#1162,#1163,#1164,#1165,#1166,
    #1167,#1168,#1169,#1170,#1171,#1172,#1173,#1174,#1175,#1176,#1177,
    #1178,#1179,#1180,#1181,#1182,#1183,#1184,#1185,#1186,#1187,#1188,
    #1189,#1190,#1191,#1192,#1193,#1194,#1195,#1196,#1197,#1198,#1199,
    #1200,#1201,#1202,#1203,#1204,#1205,#1206,#1207,#1208,#1209,#1210,
    #1211,#1212,#1213,#1214,#1215,#1216,#1217,#1218,#1219,#1220,#1221,
    #1222,#1223,#1224,#1225,#1226,#1227,#1228,#1229,#1230,#1231,#1232,
    #1233,#1234,#1235,#1236,#1237,#1238,#1239,#1240,#1241,#1242,#1243,
    #1244,#1245,#1246,#1247,#1248,#1249),.UNSPECIFIED.,.T.,.F.,(8,6,6,6,
    6,6,6,6,6,6,6,6,6,6,6,6,6,6,8),(0.,4.997409477225E-02,
    9.791654489548E-02,0.165771502027,0.243331264617,0.312625183739,
    0.37230071566,0.409876518587,0.451662911527,0.4996951298,
    0.5479239491,0.589373672986,0.628398671097,0.668099080963,
    0.717687050235,0.834830719861,0.903329544392,0.949553022303,1.),
  .UNSPECIFIED.);
#1140 = CARTESIAN_POINT('',(5.370288632839,204.6,170.));
#1141 = CARTESIAN_POINT('',(5.370288632839,204.6,170.10540992271));
#1142 = CARTESIAN_POINT('',(5.381323127499,204.59382698814,
    170.20986169324));
#1143 = CARTESIAN_POINT('',(5.40303265586,204.58168344585,
    170.31266880221));
#1144 = CARTESIAN_POINT('',(5.434642864823,204.56389452892,
    170.41311801092));
#1145 = CARTESIAN_POINT('',(5.474966518201,204.5409368559,
    170.51044929521));
#1146 = CARTESIAN_POINT('',(5.522415641356,204.51349829141,
    170.60384133112));
#1147 = CARTESIAN_POINT('',(5.625493231698,204.45289656668,
    170.77736335078));
#1148 = CARTESIAN_POINT('',(5.681222887839,204.41971016106,
    170.85874049104));
#1149 = CARTESIAN_POINT('',(5.741267923091,204.38340084107,
    170.93662790705));
#1150 = CARTESIAN_POINT('',(5.804843002878,204.3442847172,
    171.01114220063));
#1151 = CARTESIAN_POINT('',(5.871322302119,204.30260964259,
    171.08241893751));
#1152 = CARTESIAN_POINT('',(5.940235544695,204.25855248356,
    171.15060878268));
#1153 = CARTESIAN_POINT('',(6.111784091037,204.14661155959,
    171.30824525404));
#1154 = CARTESIAN_POINT('',(6.216675975714,204.07634177298,
    171.39488408948));
#1155 = CARTESIAN_POINT('',(6.324751646849,204.00182895765,171.475952444
    ));
#1156 = CARTESIAN_POINT('',(6.4352048251,203.92334590714,171.55162883232
    ));
#1157 = CARTESIAN_POINT('',(6.547523177811,203.84101662102,
    171.62206570572));
#1158 = CARTESIAN_POINT('',(6.661406259003,203.75483208181,
    171.68734595869));
#1159 = CARTESIAN_POINT('',(6.908451776157,203.56161648666,
    171.81612463147));
#1160 = CARTESIAN_POINT('',(7.041887710957,203.4534878394,
    171.87795237557));
#1161 = CARTESIAN_POINT('',(7.176382308603,203.34040298388,
    171.93271759646));
#1162 = CARTESIAN_POINT('',(7.311439556979,203.2224449566,
    171.98008580353));
#1163 = CARTESIAN_POINT('',(7.446612078789,203.09969146286,
    172.01958062735));
#1164 = CARTESIAN_POINT('',(7.581447926951,202.97226397131,
    172.05056695059));
#1165 = CARTESIAN_POINT('',(7.835171484363,202.72258382598,
    172.0915809669));
#1166 = CARTESIAN_POINT('',(7.954404013057,202.60105324318,
    172.10351894155));
#1167 = CARTESIAN_POINT('',(8.072454516371,202.47628444168,
    172.10736717104));
#1168 = CARTESIAN_POINT('',(8.188664453243,202.34883536595,
    172.10246173284));
#1169 = CARTESIAN_POINT('',(8.302409932522,202.2193571296,
    172.08814785093));
#1170 = CARTESIAN_POINT('',(8.413100126231,202.08861090146,
    172.06377855337));
#1171 = CARTESIAN_POINT('',(8.612385889523,201.84456454729,
    171.99851640528));
#1172 = CARTESIAN_POINT('',(8.701888968507,201.73139460432,
    171.96039530343));
#1173 = CARTESIAN_POINT('',(8.787955851968,201.61900227884,
    171.91407146337));
#1174 = CARTESIAN_POINT('',(8.869993048405,201.50842613516,
    171.85944453871));
#1175 = CARTESIAN_POINT('',(8.947532887172,201.40069976828,
    171.79659411727));
#1176 = CARTESIAN_POINT('',(9.020220755192,201.29682482102,
    171.72578191589));
#1177 = CARTESIAN_POINT('',(9.130349095882,201.13534260702,
    171.59813503008));
#1178 = CARTESIAN_POINT('',(9.170837861564,201.07489989857,
    171.54587738546));
#1179 = CARTESIAN_POINT('',(9.209206130941,201.01663484628,
    171.49080283662));
#1180 = CARTESIAN_POINT('',(9.245412047737,200.96076132602,
    171.43305896386));
#1181 = CARTESIAN_POINT('',(9.279428144156,200.90747665299,
    171.37282009089));
#1182 = CARTESIAN_POINT('',(9.311239521866,200.8569582907,171.3102872047
    ));
#1183 = CARTESIAN_POINT('',(9.373761679812,200.75642922302,
    171.17384981133));
#1184 = CARTESIAN_POINT('',(9.403946998554,200.7071140102,
    171.09946203661));
#1185 = CARTESIAN_POINT('',(9.431429505535,200.66156806514,
    171.02276077605));
#1186 = CARTESIAN_POINT('',(9.456244060898,200.61992461098,
    170.94399585342));
#1187 = CARTESIAN_POINT('',(9.478427612656,200.58229492716,
    170.86343036316));
#1188 = CARTESIAN_POINT('',(9.49801794075,200.54876632626,
    170.78134034188));
#1189 = CARTESIAN_POINT('',(9.534633007617,200.48564456091,170.602233789
    ));
#1190 = CARTESIAN_POINT('',(9.550842209639,200.45737911738,
    170.5047934202));
#1191 = CARTESIAN_POINT('',(9.563755064071,200.43466582727,
    170.40602780173));
#1192 = CARTESIAN_POINT('',(9.57342878901,200.41755052945,
    170.30627110758));
#1193 = CARTESIAN_POINT('',(9.579902595448,200.40606270502,
    170.20585727114));
#1194 = CARTESIAN_POINT('',(9.583197518963,200.40021530784,
    170.10512003881));
#1195 = CARTESIAN_POINT('',(9.583435469869,200.39979301953,
    169.90325372194));
#1196 = CARTESIAN_POINT('',(9.58035249183,200.40526428028,
    169.80208456057));
#1197 = CARTESIAN_POINT('',(9.574065660059,200.41642273131,
    169.70122266655));
#1198 = CARTESIAN_POINT('',(9.564554577601,200.43325593688,
    169.60100533448));
#1199 = CARTESIAN_POINT('',(9.551780271722,200.45573483332,
    169.50177008882));
#1200 = CARTESIAN_POINT('',(9.535685357854,200.48381389086,
    169.40385474619));
#1201 = CARTESIAN_POINT('',(9.499442747102,200.54632336404,
    169.22487023571));
#1202 = CARTESIAN_POINT('',(9.480178730207,200.5793130461,
    169.14334857481));
#1203 = CARTESIAN_POINT('',(9.458365675713,200.61634147654,
    169.06331299992));
#1204 = CARTESIAN_POINT('',(9.433966518684,200.65732491357,
    168.98503211291));
#1205 = CARTESIAN_POINT('',(9.406944788477,200.70215661636,
    168.90876230202));
#1206 = CARTESIAN_POINT('',(9.377265790852,200.75070874269,
    168.83474743122));
#1207 = CARTESIAN_POINT('',(9.314423252477,200.8519105129,168.6958739255
    ));
#1208 = CARTESIAN_POINT('',(9.281566279244,200.90415247767,
    168.63073549148));
#1209 = CARTESIAN_POINT('',(9.246330521453,200.95938942204,
    168.56805992181));
#1210 = CARTESIAN_POINT('',(9.208731976455,201.01742354841,
    168.5080730947));
#1211 = CARTESIAN_POINT('',(9.168801170136,201.0780339583,
    168.45096996607));
#1212 = CARTESIAN_POINT('',(9.126585339179,201.14098063033,
    168.39691446341));
#1213 = CARTESIAN_POINT('',(9.036946848714,201.27216161155,
    168.29428379256));
#1214 = CARTESIAN_POINT('',(8.9894689265,201.34043618343,168.24584496832
    ));
#1215 = CARTESIAN_POINT('',(8.939798845154,201.41054726888,
    168.20086593352));
#1216 = CARTESIAN_POINT('',(8.888039900845,201.48219510657,
    168.15945001825));
#1217 = CARTESIAN_POINT('',(8.834318794332,201.5550691891,168.12166117)
  );
#1218 = CARTESIAN_POINT('',(8.778787737839,201.62885243348,
    168.08752426758));
#1219 = CARTESIAN_POINT('',(8.650229147067,201.79612116775,
    168.01893073612));
#1220 = CARTESIAN_POINT('',(8.576339162034,201.8898711271,
    167.98653884431));
#1221 = CARTESIAN_POINT('',(8.500183389188,201.98401816523,
    167.95973913397));
#1222 = CARTESIAN_POINT('',(8.422017596257,202.07812396108,
    167.93838321032));
#1223 = CARTESIAN_POINT('',(8.342127416498,202.17177063425,
    167.92228522032));
#1224 = CARTESIAN_POINT('',(8.260829228851,202.26456244237,
    167.91122216338));
#1225 = CARTESIAN_POINT('',(7.983912946067,202.57243527429,
    167.8900798963));
#1226 = CARTESIAN_POINT('',(7.783786859006,202.78150951931,
    167.90189984676));
#1227 = CARTESIAN_POINT('',(7.580239249155,202.98123831784,
    167.93661192157));
#1228 = CARTESIAN_POINT('',(7.375160172331,203.17055716936,
    167.99130114318));
#1229 = CARTESIAN_POINT('',(7.170255322609,203.34890767253,
    168.0637977696));
#1230 = CARTESIAN_POINT('',(6.967279075824,203.51590338105,
    168.15260136772));
#1231 = CARTESIAN_POINT('',(6.652267605532,203.76179650285,
    168.31779405051));
#1232 = CARTESIAN_POINT('',(6.537480313301,203.84847218707,
    168.38401940581));
#1233 = CARTESIAN_POINT('',(6.424309103885,203.93122135644,
    168.45549125047));
#1234 = CARTESIAN_POINT('',(6.313063822006,204.01005288594,
    168.53230269147));
#1235 = CARTESIAN_POINT('',(6.204279251736,204.08483476469,
    168.61461810552));
#1236 = CARTESIAN_POINT('',(6.09880150326,204.15527803404,
    168.70262709943));
#1237 = CARTESIAN_POINT('',(5.929770817367,204.26522632526,
    168.85984596386));
#1238 = CARTESIAN_POINT('',(5.863668823501,204.30738804846,
    168.92592677142));
#1239 = CARTESIAN_POINT('',(5.799871948339,204.34732073012,
    168.99488667915));
#1240 = CARTESIAN_POINT('',(5.738810286858,204.38486207248,
    169.06685997918));
#1241 = CARTESIAN_POINT('',(5.68104846601,204.41978839559,169.1419676925
    ));
#1242 = CARTESIAN_POINT('',(5.627288802865,204.45181686843,
    169.22031445962));
#1243 = CARTESIAN_POINT('',(5.524984095793,204.5120128104,
    169.39111905618));
#1244 = CARTESIAN_POINT('',(5.476781106321,204.53990354911,
    169.48518619788));
#1245 = CARTESIAN_POINT('',(5.435782970984,204.56325284471,
    169.58327790597));
#1246 = CARTESIAN_POINT('',(5.403623242461,204.58135310281,
    169.68455701577));
#1247 = CARTESIAN_POINT('',(5.381525101878,204.59371398864,
    169.78824947268));
#1248 = CARTESIAN_POINT('',(5.370288632839,204.6,169.89362968017));
#1249 = CARTESIAN_POINT('',(5.370288632839,204.6,170.));
#1250 = PCURVE('',#703,#1251);
#1251 = DEFINITIONAL_REPRESENTATION('',(#1252),#1363);
#1252 = B_SPLINE_CURVE_WITH_KNOTS('',7,(#1253,#1254,#1255,#1256,#1257,
    #1258,#1259,#1260,#1261,#1262,#1263,#1264,#1265,#1266,#1267,#1268,
    #1269,#1270,#1271,#1272,#1273,#1274,#1275,#1276,#1277,#1278,#1279,
    #1280,#1281,#1282,#1283,#1284,#1285,#1286,#1287,#1288,#1289,#1290,
    #1291,#1292,#1293,#1294,#1295,#1296,#1297,#1298,#1299,#1300,#1301,
    #1302,#1303,#1304,#1305,#1306,#1307,#1308,#1309,#1310,#1311,#1312,
    #1313,#1314,#1315,#1316,#1317,#1318,#1319,#1320,#1321,#1322,#1323,
    #1324,#1325,#1326,#1327,#1328,#1329,#1330,#1331,#1332,#1333,#1334,
    #1335,#1336,#1337,#1338,#1339,#1340,#1341,#1342,#1343,#1344,#1345,
    #1346,#1347,#1348,#1349,#1350,#1351,#1352,#1353,#1354,#1355,#1356,
    #1357,#1358,#1359,#1360,#1361,#1362),.UNSPECIFIED.,.T.,.F.,(8,6,6,6,
    6,6,6,6,6,6,6,6,6,6,6,6,6,6,8),(0.,4.997409477225E-02,
    9.791654489548E-02,0.165771502027,0.243331264617,0.312625183739,
    0.37230071566,0.409876518587,0.451662911527,0.4996951298,
    0.5479239491,0.589373672986,0.628398671097,0.668099080963,
    0.717687050235,0.834830719861,0.903329544392,0.949553022303,1.),
  .UNSPECIFIED.);
#1253 = CARTESIAN_POINT('',(-1.060761023276,-15.5));
#1254 = CARTESIAN_POINT('',(-1.060761023276,-15.60540992271));
#1255 = CARTESIAN_POINT('',(-1.059611590466,-15.70986169324));
#1256 = CARTESIAN_POINT('',(-1.057350201938,-15.81266880221));
#1257 = CARTESIAN_POINT('',(-1.054052791793,-15.91311801092));
#1258 = CARTESIAN_POINT('',(-1.049834629781,-16.01044929521));
#1259 = CARTESIAN_POINT('',(-1.044851906611,-16.10384133112));
#1260 = CARTESIAN_POINT('',(-1.033981688494,-16.27736335078));
#1261 = CARTESIAN_POINT('',(-1.028085197468,-16.35874049104));
#1262 = CARTESIAN_POINT('',(-1.021706388657,-16.43662790705));
#1263 = CARTESIAN_POINT('',(-1.014920873471,-16.51114220063));
#1264 = CARTESIAN_POINT('',(-1.007788387289,-16.58241893751));
#1265 = CARTESIAN_POINT('',(-1.000352997012,-16.65060878268));
#1266 = CARTESIAN_POINT('',(-0.981731123662,-16.80824525404));
#1267 = CARTESIAN_POINT('',(-0.970254299179,-16.89488408948));
#1268 = CARTESIAN_POINT('',(-0.958322168829,-16.975952444));
#1269 = CARTESIAN_POINT('',(-0.946006545854,-17.05162883232));
#1270 = CARTESIAN_POINT('',(-0.93334880685,-17.12206570572));
#1271 = CARTESIAN_POINT('',(-0.920366946326,-17.18734595869));
#1272 = CARTESIAN_POINT('',(-0.891855131498,-17.31612463147));
#1273 = CARTESIAN_POINT('',(-0.876244123701,-17.37795237557));
#1274 = CARTESIAN_POINT('',(-0.860273969704,-17.43271759646));
#1275 = CARTESIAN_POINT('',(-0.843977769069,-17.48008580353));
#1276 = CARTESIAN_POINT('',(-0.827383611175,-17.51958062735));
#1277 = CARTESIAN_POINT('',(-0.810521407889,-17.55056695059));
#1278 = CARTESIAN_POINT('',(-0.778160348421,-17.5915809669));
#1279 = CARTESIAN_POINT('',(-0.762685194486,-17.60351894155));
#1280 = CARTESIAN_POINT('',(-0.747074337559,-17.60736717104));
#1281 = CARTESIAN_POINT('',(-0.731399498372,-17.60246173284));
#1282 = CARTESIAN_POINT('',(-0.715736027906,-17.58814785093));
#1283 = CARTESIAN_POINT('',(-0.700164900975,-17.56377855337));
#1284 = CARTESIAN_POINT('',(-0.671521548519,-17.49851640528));
#1285 = CARTESIAN_POINT('',(-0.658406305973,-17.46039530343));
#1286 = CARTESIAN_POINT('',(-0.645539604001,-17.41407146337));
#1287 = CARTESIAN_POINT('',(-0.633025232848,-17.35944453871));
#1288 = CARTESIAN_POINT('',(-0.620960582823,-17.29659411727));
#1289 = CARTESIAN_POINT('',(-0.609435831931,-17.22578191589));
#1290 = CARTESIAN_POINT('',(-0.591666707241,-17.09813503008));
#1291 = CARTESIAN_POINT('',(-0.585053239755,-17.04587738546));
#1292 = CARTESIAN_POINT('',(-0.578711406649,-16.99080283662));
#1293 = CARTESIAN_POINT('',(-0.572659070625,-16.93305896386));
#1294 = CARTESIAN_POINT('',(-0.566912283318,-16.87282009089));
#1295 = CARTESIAN_POINT('',(-0.561485109664,-16.8102872047));
#1296 = CARTESIAN_POINT('',(-0.550722796445,-16.67384981133));
#1297 = CARTESIAN_POINT('',(-0.545466572922,-16.59946203661));
#1298 = CARTESIAN_POINT('',(-0.54063079445,-16.52276077605));
#1299 = CARTESIAN_POINT('',(-0.536223968034,-16.44399585342));
#1300 = CARTESIAN_POINT('',(-0.532252941419,-16.36343036316));
#1301 = CARTESIAN_POINT('',(-0.528722749582,-16.28134034188));
#1302 = CARTESIAN_POINT('',(-0.522088864378,-16.102233789));
#1303 = CARTESIAN_POINT('',(-0.519126776327,-16.0047934202));
#1304 = CARTESIAN_POINT('',(-0.516751590873,-15.90602780173));
#1305 = CARTESIAN_POINT('',(-0.514964322586,-15.80627110758));
#1306 = CARTESIAN_POINT('',(-0.51376555575,-15.70585727114));
#1307 = CARTESIAN_POINT('',(-0.513155393315,-15.60512003881));
#1308 = CARTESIAN_POINT('',(-0.51311132837,-15.40325372194));
#1309 = CARTESIAN_POINT('',(-0.513682241619,-15.30208456057));
#1310 = CARTESIAN_POINT('',(-0.514846577593,-15.20122266655));
#1311 = CARTESIAN_POINT('',(-0.516604245475,-15.10100533448));
#1312 = CARTESIAN_POINT('',(-0.51895468227,-15.00177008882));
#1313 = CARTESIAN_POINT('',(-0.521896903445,-14.90385474619));
#1314 = CARTESIAN_POINT('',(-0.528465650556,-14.72487023571));
#1315 = CARTESIAN_POINT('',(-0.531938576728,-14.64334857481));
#1316 = CARTESIAN_POINT('',(-0.53584541471,-14.56331299992));
#1317 = CARTESIAN_POINT('',(-0.540181371033,-14.48503211291));
#1318 = CARTESIAN_POINT('',(-0.544939921098,-14.40876230202));
#1319 = CARTESIAN_POINT('',(-0.550112954139,-14.33474743122));
#1320 = CARTESIAN_POINT('',(-0.560942582508,-14.1958739255));
#1321 = CARTESIAN_POINT('',(-0.566552992814,-14.13073549148));
#1322 = CARTESIAN_POINT('',(-0.572509017854,-14.06805992181));
#1323 = CARTESIAN_POINT('',(-0.578795005573,-14.0080730947));
#1324 = CARTESIAN_POINT('',(-0.58539299626,-13.95096996607));
#1325 = CARTESIAN_POINT('',(-0.592282935689,-13.89691446341));
#1326 = CARTESIAN_POINT('',(-0.606726759273,-13.79428379256));
#1327 = CARTESIAN_POINT('',(-0.614286500857,-13.74584496832));
#1328 = CARTESIAN_POINT('',(-0.622097145365,-13.70086593352));
#1329 = CARTESIAN_POINT('',(-0.630131757608,-13.65945001825));
#1330 = CARTESIAN_POINT('',(-0.638361580516,-13.62166117));
#1331 = CARTESIAN_POINT('',(-0.646756180782,-13.58752426758));
#1332 = CARTESIAN_POINT('',(-0.665934797646,-13.51893073612));
#1333 = CARTESIAN_POINT('',(-0.676785654309,-13.48653884431));
#1334 = CARTESIAN_POINT('',(-0.687792619587,-13.45973913397));
#1335 = CARTESIAN_POINT('',(-0.698912251618,-13.43838321032));
#1336 = CARTESIAN_POINT('',(-0.710101068302,-13.42228522032));
#1337 = CARTESIAN_POINT('',(-0.721315404029,-13.41122216338));
#1338 = CARTESIAN_POINT('',(-0.758959705817,-13.3900798963));
#1339 = CARTESIAN_POINT('',(-0.785257726043,-13.40189984676));
#1340 = CARTESIAN_POINT('',(-0.811162320272,-13.43661192157));
#1341 = CARTESIAN_POINT('',(-0.836515264645,-13.49130114318));
#1342 = CARTESIAN_POINT('',(-0.861195336651,-13.5637977696));
#1343 = CARTESIAN_POINT('',(-0.885082372894,-13.65260136772));
#1344 = CARTESIAN_POINT('',(-0.921411407996,-13.81779405051));
#1345 = CARTESIAN_POINT('',(-0.934485728894,-13.88401940581));
#1346 = CARTESIAN_POINT('',(-0.947228526845,-13.95549125047));
#1347 = CARTESIAN_POINT('',(-0.959621165505,-14.03230269147));
#1348 = CARTESIAN_POINT('',(-0.971620220656,-14.11461810552));
#1349 = CARTESIAN_POINT('',(-0.98315007721,-14.20262709943));
#1350 = CARTESIAN_POINT('',(-1.001481281586,-14.35984596386));
#1351 = CARTESIAN_POINT('',(-1.008608575151,-14.42592677142));
#1352 = CARTESIAN_POINT('',(-1.015450366917,-14.49488667915));
#1353 = CARTESIAN_POINT('',(-1.021966298444,-14.56685997918));
#1354 = CARTESIAN_POINT('',(-1.028102459809,-14.6419676925));
#1355 = CARTESIAN_POINT('',(-1.0337912256,-14.72031445962));
#1356 = CARTESIAN_POINT('',(-1.044582178544,-14.89111905618));
#1357 = CARTESIAN_POINT('',(-1.049644801623,-14.98518619788));
#1358 = CARTESIAN_POINT('',(-1.053933858258,-15.08327790597));
#1359 = CARTESIAN_POINT('',(-1.057288683246,-15.18455701577));
#1360 = CARTESIAN_POINT('',(-1.059590551144,-15.28824947268));
#1361 = CARTESIAN_POINT('',(-1.060761023276,-15.39362968017));
#1362 = CARTESIAN_POINT('',(-1.060761023276,-15.5));
#1363 = ( GEOMETRIC_REPRESENTATION_CONTEXT(2) 
PARAMETRIC_REPRESENTATION_CONTEXT() REPRESENTATION_CONTEXT('2D SPACE',''
  ) );
#1364 = PCURVE('',#1014,#1365);
#1365 = DEFINITIONAL_REPRESENTATION('',(#1366),#1477);
#1366 = B_SPLINE_CURVE_WITH_KNOTS('',7,(#1367,#1368,#1369,#1370,#1371,
    #1372,#1373,#1374,#1375,#1376,#1377,#1378,#1379,#1380,#1381,#1382,
    #1383,#1384,#1385,#1386,#1387,#1388,#1389,#1390,#1391,#1392,#1393,
    #1394,#1395,#1396,#1397,#1398,#1399,#1400,#1401,#1402,#1403,#1404,
    #1405,#1406,#1407,#1408,#1409,#1410,#1411,#1412,#1413,#1414,#1415,
    #1416,#1417,#1418,#1419,#1420,#1421,#1422,#1423,#1424,#1425,#1426,
    #1427,#1428,#1429,#1430,#1431,#1432,#1433,#1434,#1435,#1436,#1437,
    #1438,#1439,#1440,#1441,#1442,#1443,#1444,#1445,#1446,#1447,#1448,
    #1449,#1450,#1451,#1452,#1453,#1454,#1455,#1456,#1457,#1458,#1459,
    #1460,#1461,#1462,#1463,#1464,#1465,#1466,#1467,#1468,#1469,#1470,
    #1471,#1472,#1473,#1474,#1475,#1476),.UNSPECIFIED.,.F.,.F.,(8,6,6,6,
    6,6,6,6,6,6,6,6,6,6,6,6,6,6,8),(0.,4.997409477225E-02,
    9.791654489548E-02,0.165771502027,0.243331264617,0.312625183739,
    0.37230071566,0.409876518587,0.451662911527,0.4996951298,
    0.5479239491,0.589373672986,0.628398671097,0.668099080963,
    0.717687050235,0.834830719861,0.903329544392,0.949553022303,1.),
  .UNSPECIFIED.);
#1367 = CARTESIAN_POINT('',(0.,-19.37028863283));
#1368 = CARTESIAN_POINT('',(-5.019520129068E-02,-19.37028863283));
#1369 = CARTESIAN_POINT('',(-9.993409427287E-02,-19.38132312749));
#1370 = CARTESIAN_POINT('',(-0.149096606223,-19.40303265586));
#1371 = CARTESIAN_POINT('',(-0.19753204378,-19.43464286482));
#1372 = CARTESIAN_POINT('',(-0.245038742433,-19.4749665182));
#1373 = CARTESIAN_POINT('',(-0.291332271396,-19.52241564135));
#1374 = CARTESIAN_POINT('',(-0.378856107276,-19.62549323169));
#1375 = CARTESIAN_POINT('',(-0.42065072332,-19.68122288783));
#1376 = CARTESIAN_POINT('',(-0.461495216292,-19.74126792309));
#1377 = CARTESIAN_POINT('',(-0.501492728635,-19.80484300287));
#1378 = CARTESIAN_POINT('',(-0.540746832214,-19.87132230211));
#1379 = CARTESIAN_POINT('',(-0.579368865326,-19.94023554469));
#1380 = CARTESIAN_POINT('',(-0.671435128018,-20.11178409103));
#1381 = CARTESIAN_POINT('',(-0.72444713525,-20.21667597571));
#1382 = CARTESIAN_POINT('',(-0.776722483218,-20.32475164684));
#1383 = CARTESIAN_POINT('',(-0.828472174735,-20.4352048251));
#1384 = CARTESIAN_POINT('',(-0.879921129653,-20.54752317781));
#1385 = CARTESIAN_POINT('',(-0.931311690234,-20.661406259));
#1386 = CARTESIAN_POINT('',(-1.041882475651,-20.90845177615));
#1387 = CARTESIAN_POINT('',(-1.101056491596,-21.04188771095));
#1388 = CARTESIAN_POINT('',(-1.160663913941,-21.1763823086));
#1389 = CARTESIAN_POINT('',(-1.220929602267,-21.31143955697));
#1390 = CARTESIAN_POINT('',(-1.282079671999,-21.44661207878));
#1391 = CARTESIAN_POINT('',(-1.344348819874,-21.58144792695));
#1392 = CARTESIAN_POINT('',(-1.464837549227,-21.83517148436));
#1393 = CARTESIAN_POINT('',(-1.522865430216,-21.95440401305));
#1394 = CARTESIAN_POINT('',(-1.582090465101,-22.07245451637));
#1395 = CARTESIAN_POINT('',(-1.642555675053,-22.18866445324));
#1396 = CARTESIAN_POINT('',(-1.704320746559,-22.30240993252));
#1397 = CARTESIAN_POINT('',(-1.767465306815,-22.41310012623));
#1398 = CARTESIAN_POINT('',(-1.887761399338,-22.61238588952));
#1399 = CARTESIAN_POINT('',(-1.944512075888,-22.7018889685));
#1400 = CARTESIAN_POINT('',(-2.002195925,-22.78795585196));
#1401 = CARTESIAN_POINT('',(-2.060678444001,-22.8699930484));
#1402 = CARTESIAN_POINT('',(-2.119837160386,-22.94753288717));
#1403 = CARTESIAN_POINT('',(-2.179552664996,-23.02022075519));
#1404 = CARTESIAN_POINT('',(-2.277571859858,-23.13034909588));
#1405 = CARTESIAN_POINT('',(-2.315583210016,-23.17083786156));
#1406 = CARTESIAN_POINT('',(-2.353701505913,-23.20920613094));
#1407 = CARTESIAN_POINT('',(-2.391895058187,-23.24541204773));
#1408 = CARTESIAN_POINT('',(-2.430130974202,-23.27942814415));
#1409 = CARTESIAN_POINT('',(-2.468373727084,-23.31123952186));
#1410 = CARTESIAN_POINT('',(-2.549075377674,-23.37376167981));
#1411 = CARTESIAN_POINT('',(-2.591523091319,-23.40394699855));
#1412 = CARTESIAN_POINT('',(-2.633918234755,-23.43142950553));
#1413 = CARTESIAN_POINT('',(-2.676251670292,-23.45624406089));
#1414 = CARTESIAN_POINT('',(-2.71851259513,-23.47842761265));
#1415 = CARTESIAN_POINT('',(-2.760687383013,-23.49801794075));
#1416 = CARTESIAN_POINT('',(-2.851117840809,-23.53463300761));
#1417 = CARTESIAN_POINT('',(-2.899353698256,-23.55084220963));
#1418 = CARTESIAN_POINT('',(-2.947490631325,-23.56375506407));
#1419 = CARTESIAN_POINT('',(-2.99555185269,-23.57342878901));
#1420 = CARTESIAN_POINT('',(-3.043559567416,-23.57990259544));
#1421 = CARTESIAN_POINT('',(-3.091535385773,-23.58319751896));
#1422 = CARTESIAN_POINT('',(-3.187662413664,-23.58343546986));
#1423 = CARTESIAN_POINT('',(-3.235832636968,-23.58035249183));
#1424 = CARTESIAN_POINT('',(-3.284033375034,-23.57406566005));
#1425 = CARTESIAN_POINT('',(-3.332286734405,-23.5645545776));
#1426 = CARTESIAN_POINT('',(-3.38061539622,-23.55178027172));
#1427 = CARTESIAN_POINT('',(-3.429043053338,-23.53568535785));
#1428 = CARTESIAN_POINT('',(-3.519322148468,-23.4994427471));
#1429 = CARTESIAN_POINT('',(-3.561150793177,-23.4801787302));
#1430 = CARTESIAN_POINT('',(-3.603064209746,-23.45836567571));
#1431 = CARTESIAN_POINT('',(-3.645049610508,-23.43396651868));
#1432 = CARTESIAN_POINT('',(-3.687096900066,-23.40694478847));
#1433 = CARTESIAN_POINT('',(-3.729197583399,-23.37726579085));
#1434 = CARTESIAN_POINT('',(-3.811024302701,-23.31442325247));
#1435 = CARTESIAN_POINT('',(-3.850743678216,-23.28156627924));
#1436 = CARTESIAN_POINT('',(-3.890457337576,-23.24633052145));
#1437 = CARTESIAN_POINT('',(-3.930125614872,-23.20873197645));
#1438 = CARTESIAN_POINT('',(-3.969711927103,-23.16880117013));
#1439 = CARTESIAN_POINT('',(-4.00918106007,-23.12658533917));
#1440 = CARTESIAN_POINT('',(-4.088494303446,-23.03694684871));
#1441 = CARTESIAN_POINT('',(-4.128313520784,-22.9894689265));
#1442 = CARTESIAN_POINT('',(-4.167910942055,-22.93979884515));
#1443 = CARTESIAN_POINT('',(-4.207243983429,-22.88803990084));
#1444 = CARTESIAN_POINT('',(-4.246270152292,-22.83431879433));
#1445 = CARTESIAN_POINT('',(-4.284945558073,-22.77878773783));
#1446 = CARTESIAN_POINT('',(-4.371034556504,-22.65022914706));
#1447 = CARTESIAN_POINT('',(-4.418191707723,-22.57633916203));
#1448 = CARTESIAN_POINT('',(-4.464691809786,-22.50018338918));
#1449 = CARTESIAN_POINT('',(-4.51052533378,-22.42201759625));
#1450 = CARTESIAN_POINT('',(-4.555675828284,-22.34212741649));
#1451 = CARTESIAN_POINT('',(-4.600119458816,-22.26082922885));
#1452 = CARTESIAN_POINT('',(-4.747070849185,-21.98391294606));
#1453 = CARTESIAN_POINT('',(-4.846010602493,-21.783786859));
#1454 = CARTESIAN_POINT('',(-4.941560418377,-21.58023924915));
#1455 = CARTESIAN_POINT('',(-5.034437385167,-21.37516017233));
#1456 = CARTESIAN_POINT('',(-5.125338725506,-21.1702553226));
#1457 = CARTESIAN_POINT('',(-5.214929279689,-20.96727907582));
#1458 = CARTESIAN_POINT('',(-5.355991053355,-20.65226760553));
#1459 = CARTESIAN_POINT('',(-5.407837758926,-20.5374803133));
#1460 = CARTESIAN_POINT('',(-5.459755724393,-20.42430910388));
#1461 = CARTESIAN_POINT('',(-5.511996042057,-20.313063822));
#1462 = CARTESIAN_POINT('',(-5.564791310959,-20.20427925173));
#1463 = CARTESIAN_POINT('',(-5.618359494007,-20.09880150326));
#1464 = CARTESIAN_POINT('',(-5.709716606552,-19.92977081736));
#1465 = CARTESIAN_POINT('',(-5.747009563597,-19.8636688235));
#1466 = CARTESIAN_POINT('',(-5.784899088601,-19.79987194833));
#1467 = CARTESIAN_POINT('',(-5.823484677318,-19.73881028685));
#1468 = CARTESIAN_POINT('',(-5.862859297661,-19.68104846601));
#1469 = CARTESIAN_POINT('',(-5.903115541809,-19.62728880286));
#1470 = CARTESIAN_POINT('',(-5.989354362289,-19.52498409579));
#1471 = CARTESIAN_POINT('',(-6.036015882476,-19.47678110632));
#1472 = CARTESIAN_POINT('',(-6.083915132527,-19.43578297098));
#1473 = CARTESIAN_POINT('',(-6.1327619602,-19.40362324246));
#1474 = CARTESIAN_POINT('',(-6.182351769253,-19.38152510187));
#1475 = CARTESIAN_POINT('',(-6.232532773929,-19.37028863283));
#1476 = CARTESIAN_POINT('',(-6.28318530718,-19.37028863283));
#1477 = ( GEOMETRIC_REPRESENTATION_CONTEXT(2) 
PARAMETRIC_REPRESENTATION_CONTEXT() REPRESENTATION_CONTEXT('2D SPACE',''
  ) );
#1478 = ADVANCED_FACE('',(#1479),#1014,.F.);
#1479 = FACE_BOUND('',#1480,.T.);
#1480 = EDGE_LOOP('',(#1481,#1482,#1503,#1504));
#1481 = ORIENTED_EDGE('',*,*,#784,.F.);
#1482 = ORIENTED_EDGE('',*,*,#1483,.T.);
#1483 = EDGE_CURVE('',#785,#1136,#1484,.T.);
#1484 = SEAM_CURVE('',#1485,(#1489,#1496),.PCURVE_S1.);
#1485 = LINE('',#1486,#1487);
#1486 = CARTESIAN_POINT('',(-14.,204.6,170.));
#1487 = VECTOR('',#1488,1.);
#1488 = DIRECTION('',(1.,0.,0.));
#1489 = PCURVE('',#1014,#1490);
#1490 = DEFINITIONAL_REPRESENTATION('',(#1491),#1495);
#1491 = LINE('',#1492,#1493);
#1492 = CARTESIAN_POINT('',(-6.28318530718,0.));
#1493 = VECTOR('',#1494,1.);
#1494 = DIRECTION('',(-0.,-1.));
#1495 = ( GEOMETRIC_REPRESENTATION_CONTEXT(2) 
PARAMETRIC_REPRESENTATION_CONTEXT() REPRESENTATION_CONTEXT('2D SPACE',''
  ) );
#1496 = PCURVE('',#1014,#1497);
#1497 = DEFINITIONAL_REPRESENTATION('',(#1498),#1502);
#1498 = LINE('',#1499,#1500);
#1499 = CARTESIAN_POINT('',(-0.,0.));
#1500 = VECTOR('',#1501,1.);
#1501 = DIRECTION('',(-0.,-1.));
#1502 = ( GEOMETRIC_REPRESENTATION_CONTEXT(2) 
PARAMETRIC_REPRESENTATION_CONTEXT() REPRESENTATION_CONTEXT('2D SPACE',''
  ) );
#1503 = ORIENTED_EDGE('',*,*,#1135,.T.);
#1504 = ORIENTED_EDGE('',*,*,#1483,.F.);
#1505 = ( GEOMETRIC_REPRESENTATION_CONTEXT(3) 
GLOBAL_UNCERTAINTY_ASSIGNED_CONTEXT((#1509)) 
GLOBAL_UNIT_ASSIGNED_CONTEXT((#1506,#1507,#1508)) REPRESENTATION_CONTEXT
('Context #1','3D Context with UNIT and UNCERTAINTY') );
#1506 = ( LENGTH_UNIT() NAMED_UNIT(*) SI_UNIT(.MILLI.,.METRE.) );
#1507 = ( NAMED_UNIT(*) PLANE_ANGLE_UNIT() SI_UNIT($,.RADIAN.) );
#1508 = ( NAMED_UNIT(*) SI_UNIT($,.STERADIAN.) SOLID_ANGLE_UNIT() );
#1509 = UNCERTAINTY_MEASURE_WITH_UNIT(LENGTH_MEASURE(1.E-07),#1506,
  'distance_accuracy_value','confusion accuracy');
#1510 = PRODUCT_RELATED_PRODUCT_CATEGORY('part',$,(#7));
ENDSEC;
END-ISO-10303-21;
