<?xml version="1.0" encoding="utf-8" standalone="no"?>
<!DOCTYPE svg PUBLIC "-//W3C//DTD SVG 1.1//EN"
  "http://www.w3.org/Graphics/SVG/1.1/DTD/svg11.dtd">
<svg xmlns:xlink="http://www.w3.org/1999/xlink" width="1152pt" height="720pt" viewBox="0 0 1152 720" xmlns="http://www.w3.org/2000/svg" version="1.1">
 <metadata>
  <rdf:RDF xmlns:dc="http://purl.org/dc/elements/1.1/" xmlns:cc="http://creativecommons.org/ns#" xmlns:rdf="http://www.w3.org/1999/02/22-rdf-syntax-ns#">
   <cc:Work>
    <dc:type rdf:resource="http://purl.org/dc/dcmitype/StillImage"/>
    <dc:date>2026-10-09T11:25:04.809855</dc:date>
    <dc:format>image/svg+xml</dc:format>
    <dc:creator>
     <cc:Agent>
      <dc:title>Matplotlib v3.11.1, https://matplotlib.org/</dc:title>
     </cc:Agent>
    </dc:creator>
   </cc:Work>
  </rdf:RDF>
 </metadata>
 <defs>
  <style type="text/css">*{stroke-linejoin: round; stroke-linecap: butt}</style>
 </defs>
 <g id="figure_1">
  <g id="patch_1">
   <path d="M 0 720 
L 1152 720 
L 1152 0 
L 0 0 
z
" style="fill: #ffffff"/>
  </g>
  <g id="axes_1">
   <g id="patch_2">
    <path d="M 317.143541 234.087804 
L 396.656055 234.087804 
L 396.656055 375.453659 
L 317.143541 375.453659 
z
" clip-path="url(#p55fe6e0b9a)" style="fill: #f4dfb6; stroke: #ac873e; stroke-linejoin: miter"/>
   </g>
   <g id="patch_3">
    <path d="M 295.656592 251.477423 
L 284.339828 250.370901 
L 291.995765 172.071129 
L 303.312529 173.177651 
L 295.656592 251.477423 
z
" clip-path="url(#p55fe6e0b9a)" style="fill: none; stroke-dasharray: 3.7,1.6; stroke-dashoffset: 0; stroke: #a4afb4; stroke-linejoin: miter"/>
   </g>
   <g id="patch_4">
    <path d="M 292.058136 173.628404 
L 303.250158 171.620376 
L 317.143541 249.05707 
L 305.951519 251.065098 
L 292.058136 173.628404 
z
" clip-path="url(#p55fe6e0b9a)" style="fill: none; stroke: #18566b; stroke-linejoin: miter"/>
   </g>
   <g id="patch_5">
    <path d="M 418.583408 251.477423 
L 410.927471 173.177651 
L 422.244235 172.071129 
L 429.900172 250.370901 
L 418.583408 251.477423 
z
" clip-path="url(#p55fe6e0b9a)" style="fill: none; stroke-dasharray: 3.7,1.6; stroke-dashoffset: 0; stroke: #a4afb4; stroke-linejoin: miter"/>
   </g>
   <g id="patch_6">
    <path d="M 397.096459 249.05707 
L 410.989842 171.620376 
L 422.181864 173.628404 
L 408.288481 251.065098 
L 397.096459 249.05707 
z
" clip-path="url(#p55fe6e0b9a)" style="fill: none; stroke: #18566b; stroke-linejoin: miter"/>
   </g>
   <g id="patch_7">
    <path d="M 279.219324 209.502438 
Q 301.803368 209.502438 322.710361 209.502438 
" style="fill: none; stroke: #238465; stroke-width: 1.5; stroke-linecap: round"/>
    <path d="M 318.710361 207.502438 
L 322.710361 209.502438 
L 318.710361 211.502438 
" style="fill: none; stroke: #238465; stroke-width: 1.5; stroke-linecap: round"/>
   </g>
   <g id="patch_8">
    <path d="M 435.020676 209.502438 
Q 412.436632 209.502438 391.529639 209.502438 
" style="fill: none; stroke: #238465; stroke-width: 1.5; stroke-linecap: round"/>
    <path d="M 395.529639 211.502438 
L 391.529639 209.502438 
L 395.529639 207.502438 
" style="fill: none; stroke: #238465; stroke-width: 1.5; stroke-linecap: round"/>
   </g>
   <g id="text_1">
    <text style="font-weight: 700; font-size: 12px; font-family: 'DejaVu Sans'; text-anchor: start" x="252.632196" y="123.6" transform="rotate(-0 252.632196 123.6)">Product section / open and gripping finger outlines</text>
   </g>
  </g>
  <g id="axes_2">
   <g id="patch_9">
    <path d="M 400.827596 532.80001 
L 395.747426 512.188607 
L 381.670415 496.299028 
L 361.821736 488.771379 
L 340.748036 491.330169 
L 323.277623 503.389193 
L 313.412404 522.185875 
L 313.412404 543.414135 
L 323.277623 562.210827 
L 340.748036 574.269851 
L 361.821736 576.828621 
L 381.670415 569.300982 
L 395.747426 553.411413 
z
" clip-path="url(#p8ddb42821c)" style="fill: #f4dfb6; stroke: #ac873e; stroke-linejoin: miter"/>
   </g>
   <g id="patch_10">
    <path d="M 298.290498 560.1504 
L 298.290498 505.4496 
L 277.547011 505.4496 
L 277.547011 560.1504 
L 298.290498 560.1504 
z
" clip-path="url(#p8ddb42821c)" style="fill: none; stroke-dasharray: 3.7,1.6; stroke-dashoffset: 0; stroke: #a4afb4; stroke-linejoin: miter"/>
   </g>
   <g id="patch_11">
    <path d="M 313.412404 560.1504 
L 313.412404 505.4496 
L 285.985694 505.4496 
L 285.985694 560.1504 
L 313.412404 560.1504 
z
" clip-path="url(#p8ddb42821c)" style="fill: none; stroke: #18566b; stroke-linejoin: miter"/>
   </g>
   <g id="patch_12">
    <path d="M 415.949502 560.1504 
L 436.692989 560.1504 
L 436.692989 505.4496 
L 415.949502 505.4496 
L 415.949502 560.1504 
z
" clip-path="url(#p8ddb42821c)" style="fill: none; stroke-dasharray: 3.7,1.6; stroke-dashoffset: 0; stroke: #a4afb4; stroke-linejoin: miter"/>
   </g>
   <g id="patch_13">
    <path d="M 428.254306 560.1504 
L 428.254306 505.4496 
L 400.827596 505.4496 
L 400.827596 560.1504 
L 428.254306 560.1504 
z
" clip-path="url(#p8ddb42821c)" style="fill: none; stroke: #18566b; stroke-linejoin: miter"/>
   </g>
   <g id="line2d_1">
    <path d="M 313.412404 593.28 
L 313.412404 610.752 
" clip-path="url(#p8ddb42821c)" style="fill: none; stroke: #18566b; stroke-width: 0.6; stroke-linecap: square"/>
   </g>
   <g id="line2d_2">
    <path d="M 400.827596 593.28 
L 400.827596 610.752 
" clip-path="url(#p8ddb42821c)" style="fill: none; stroke: #18566b; stroke-width: 0.6; stroke-linecap: square"/>
   </g>
   <g id="patch_14">
    <path d="M 397.711455 610.752 
Q 357.120624 610.752 316.529794 610.752 
" style="fill: none; stroke: #18566b; stroke-linecap: round"/>
    <path d="M 393.711455 608.752 
L 397.711455 610.752 
L 393.711455 612.752 
" style="fill: none; stroke: #18566b; stroke-linecap: round"/>
    <path d="M 320.529794 612.752 
L 316.529794 610.752 
L 320.529794 608.752 
" style="fill: none; stroke: #18566b; stroke-linecap: round"/>
   </g>
   <g id="text_2">
    <g id="patch_15">
     <path d="M 341.193516 612.21 
L 373.046484 612.21 
L 373.046484 601.23 
L 341.193516 601.23 
z
" style="fill: #ffffff"/>
    </g>
    <text style="font-size: 9px; font-family: 'DejaVu Sans'; text-anchor: middle" x="357.12" y="609.057891" transform="rotate(-0 357.12 609.057891)">G 65.0</text>
   </g>
   <g id="patch_16">
    <path d="M 271.758281 532.8 
Q 296.639227 532.8 319.843122 532.8 
" style="fill: none; stroke: #238465; stroke-width: 1.5; stroke-linecap: round"/>
    <path d="M 315.843122 530.8 
L 319.843122 532.8 
L 315.843122 534.8 
" style="fill: none; stroke: #238465; stroke-width: 1.5; stroke-linecap: round"/>
   </g>
   <g id="patch_17">
    <path d="M 442.481719 532.8 
Q 417.600773 532.8 394.396878 532.8 
" style="fill: none; stroke: #238465; stroke-width: 1.5; stroke-linecap: round"/>
    <path d="M 398.396878 534.8 
L 394.396878 532.8 
L 398.396878 530.8 
" style="fill: none; stroke: #238465; stroke-width: 1.5; stroke-linecap: round"/>
   </g>
   <g id="text_3">
    <text style="font-weight: 700; font-size: 12px; font-family: 'DejaVu Sans'; text-anchor: start" x="242.88" y="426" transform="rotate(-0 242.88 426)">Tool-end section / fingers face inward</text>
   </g>
  </g>
  <g id="axes_3">
   <g id="patch_18">
    <path d="M 849.399503 278.464865 
L 974.96374 278.464865 
L 974.96374 151.978378 
L 849.399503 151.978378 
z
" clip-path="url(#p5020cc746e)" style="fill: #f4dfb6; stroke: #ac873e; stroke-linejoin: miter"/>
   </g>
   <g id="line2d_3">
    <path d="M 849.399503 278.464865 
L 849.399503 293.643243 
" clip-path="url(#p5020cc746e)" style="fill: none; stroke: #18566b; stroke-width: 0.6; stroke-linecap: square"/>
   </g>
   <g id="line2d_4">
    <path d="M 974.96374 278.464865 
L 974.96374 293.643243 
" clip-path="url(#p5020cc746e)" style="fill: none; stroke: #18566b; stroke-width: 0.6; stroke-linecap: square"/>
   </g>
   <g id="line2d_5">
    <path d="M 974.96374 278.464865 
L 990.142119 278.464865 
" clip-path="url(#p5020cc746e)" style="fill: none; stroke: #18566b; stroke-width: 0.6; stroke-linecap: square"/>
   </g>
   <g id="line2d_6">
    <path d="M 974.96374 151.978378 
L 990.142119 151.978378 
" clip-path="url(#p5020cc746e)" style="fill: none; stroke: #18566b; stroke-width: 0.6; stroke-linecap: square"/>
   </g>
   <g id="patch_19">
    <path d="M 971.849278 293.643243 
Q 912.184605 293.643243 852.519933 293.643243 
" style="fill: none; stroke: #18566b; stroke-linecap: round"/>
    <path d="M 967.849278 291.643243 
L 971.849278 293.643243 
L 967.849278 295.643243 
" style="fill: none; stroke: #18566b; stroke-linecap: round"/>
    <path d="M 856.519933 295.643243 
L 852.519933 293.643243 
L 856.519933 291.643243 
" style="fill: none; stroke: #18566b; stroke-linecap: round"/>
   </g>
   <g id="text_4">
    <g id="patch_20">
     <path d="M 895.292559 293.34163 
L 929.070684 293.34163 
L 929.070684 282.36163 
L 895.292559 282.36163 
z
" style="fill: #ffffff"/>
    </g>
    <text style="font-size: 9px; font-family: 'DejaVu Sans'; text-anchor: middle" x="912.181622" y="290.18952" transform="rotate(-0 912.181622 290.18952)">W 65.0</text>
   </g>
   <g id="patch_21">
    <path d="M 990.142119 155.099784 
Q 990.142119 215.222291 990.142119 275.344798 
" style="fill: none; stroke: #18566b; stroke-linecap: round"/>
    <path d="M 988.142119 159.099784 
L 990.142119 155.099784 
L 992.142119 159.099784 
" style="fill: none; stroke: #18566b; stroke-linecap: round"/>
    <path d="M 992.142119 271.344798 
L 990.142119 275.344798 
L 988.142119 271.344798 
" style="fill: none; stroke: #18566b; stroke-linecap: round"/>
   </g>
   <g id="text_5">
    <g id="patch_22">
     <path d="M 989.840505 231.126309 
L 989.840505 199.316934 
L 978.860505 199.316934 
L 978.860505 231.126309 
z
" style="fill: #ffffff"/>
    </g>
    <text style="font-size: 9px; font-family: 'DejaVu Sans'" transform="translate(986.688396 230.136309) rotate(-90)">D 65.5</text>
   </g>
   <g id="text_6">
    <text style="font-weight: 700; font-size: 12px; font-family: 'DejaVu Sans'; text-anchor: start" x="834.221125" y="130.8" transform="rotate(-0 834.221125 130.8)">Product envelope / top</text>
   </g>
  </g>
  <g id="text_7">
   <text style="font-weight: 700; font-size: 22px; font-family: 'DejaVu Sans'; text-anchor: start; fill: #18566b" x="46.08" y="39.6" transform="rotate(-0 46.08 39.6)">DRINK CAN | DAC-2GN4087[H]/M</text>
  </g>
  <g id="text_8">
   <text style="font-size: 12px; font-family: 'DejaVu Sans'; text-anchor: start" x="46.08" y="70.56" transform="rotate(-0 46.08 70.56)">Product W x D x H: 65.0 x 65.5 x 115.0 mm. Same gripper and mounting for all four products.</text>
  </g>
  <g id="text_9">
   <text style="font-weight: 700; font-size: 14px; font-family: 'DejaVu Sans'; text-anchor: start; fill: #18566b" x="748.8" y="374.4" transform="rotate(-0 748.8 374.4)">HEIGHT H  115.0 mm</text>
  </g>
  <g id="text_10">
   <text style="font-size: 14px; font-family: 'DejaVu Sans'" transform="translate(748.8 438.259531)">Open G: 100.0 mm</text>
   <text style="font-size: 14px; font-family: 'DejaVu Sans'" transform="translate(748.8 463.583125)">Gripping G: 65.0 mm</text>
  </g>
  <g id="text_11">
   <text style="font-size: 11px; font-family: 'DejaVu Sans'" transform="translate(748.8 527.185313)">Catalog neutral G: 87.5 mm.</text>
   <text style="font-size: 11px; font-family: 'DejaVu Sans'" transform="translate(748.8 545.885313)">Catalog workpiece range: 15-100 mm.</text>
   <text style="font-size: 11px; font-family: 'DejaVu Sans'" transform="translate(748.8 564.585312)">G measured at distal inner jaw tips.</text>
   <text style="font-size: 11px; font-family: 'DejaVu Sans'" transform="translate(748.8 583.285313)">Approximate catalog envelope, not OEM CAD.</text>
  </g>
  <g id="text_12">
   <text style="font-size: 10px; font-family: 'DejaVu Sans'" transform="translate(748.8 626.359375)">Dough contact allows local indentation.</text>
   <text style="font-size: 10px; font-family: 'DejaVu Sans'" transform="translate(748.8 642.359375)">Dashed: open / Blue: contact shape.</text>
   <text style="font-size: 10px; font-family: 'DejaVu Sans'" transform="translate(748.8 658.359375)">Gripping force and compliance unvalidated.</text>
  </g>
  <g id="text_13">
   <text style="font-size: 10px; font-family: 'DejaVu Sans'; text-anchor: start; fill: #536871" x="46.08" y="696.24" transform="rotate(-0 46.08 696.24)">SUPPLIER REVIEW | All dimensions in mm | Product envelope schematic at right; actual grasp geometry at left.</text>
  </g>
 </g>
 <defs>
  <clipPath id="p55fe6e0b9a">
   <rect x="252.632196" y="129.6" width="208.975608" height="252"/>
  </clipPath>
  <clipPath id="p8ddb42821c">
   <rect x="242.88" y="432" width="228.48" height="201.6"/>
  </clipPath>
  <clipPath id="p5020cc746e">
   <rect x="834.221125" y="136.8" width="186.277751" height="187.2"/>
  </clipPath>
 </defs>
</svg>
