<?xml version="1.0" encoding="utf-8" standalone="no"?>
<!DOCTYPE svg PUBLIC "-//W3C//DTD SVG 1.1//EN"
  "http://www.w3.org/Graphics/SVG/1.1/DTD/svg11.dtd">
<svg xmlns:xlink="http://www.w3.org/1999/xlink" width="1152pt" height="720pt" viewBox="0 0 1152 720" xmlns="http://www.w3.org/2000/svg" version="1.1">
 <metadata>
  <rdf:RDF xmlns:dc="http://purl.org/dc/elements/1.1/" xmlns:cc="http://creativecommons.org/ns#" xmlns:rdf="http://www.w3.org/1999/02/22-rdf-syntax-ns#">
   <cc:Work>
    <dc:type rdf:resource="http://purl.org/dc/dcmitype/StillImage"/>
    <dc:date>2026-10-09T11:25:05.623814</dc:date>
    <dc:format>image/svg+xml</dc:format>
    <dc:creator>
     <cc:Agent>
      <dc:title>Matplotlib v3.11.1, https://matplotlib.org/</dc:title>
     </cc:Agent>
    </dc:creator>
   </cc:Work>
  </rdf:RDF>
 </metadata>
 <defs>
  <style type="text/css">*{stroke-linejoin: round; stroke-linecap: butt}</style>
 </defs>
 <g id="figure_1">
  <g id="patch_1">
   <path d="M 0 720 
L 1152 720 
L 1152 0 
L 0 0 
z
" style="fill: #ffffff"/>
  </g>
  <g id="axes_1">
   <g id="patch_2">
    <path d="M 289.92 272.4 
L 424.32 272.4 
L 424.32 373.2 
L 289.92 373.2 
z
" clip-path="url(#pa741375301)" style="fill: #f4dfb6; stroke: #ac873e; stroke-linejoin: miter"/>
   </g>
   <g id="patch_3">
    <path d="M 273.120008 296.165813 
L 257.653764 294.653566 
L 268.116878 187.643877 
L 283.583122 189.156123 
L 273.120008 296.165813 
z
" clip-path="url(#pa741375301)" style="fill: none; stroke-dasharray: 3.7,1.6; stroke-dashoffset: 0; stroke: #a4afb4; stroke-linejoin: miter"/>
   </g>
   <g id="patch_4">
    <path d="M 268.093406 188.856242 
L 283.606594 187.943758 
L 289.92 295.278241 
L 274.406813 296.190726 
L 268.093406 188.856242 
z
" clip-path="url(#pa741375301)" style="fill: none; stroke: #18566b; stroke-linejoin: miter"/>
   </g>
   <g id="patch_5">
    <path d="M 441.119992 296.165813 
L 430.656878 189.156123 
L 446.123122 187.643877 
L 456.586236 294.653566 
L 441.119992 296.165813 
z
" clip-path="url(#pa741375301)" style="fill: none; stroke-dasharray: 3.7,1.6; stroke-dashoffset: 0; stroke: #a4afb4; stroke-linejoin: miter"/>
   </g>
   <g id="patch_6">
    <path d="M 424.32 295.278241 
L 430.633406 187.943758 
L 446.146594 188.856242 
L 439.833187 296.190726 
L 424.32 295.278241 
z
" clip-path="url(#pa741375301)" style="fill: none; stroke: #18566b; stroke-linejoin: miter"/>
   </g>
   <g id="patch_7">
    <path d="M 249.917461 238.8 
Q 281.517849 238.8 311.441186 238.8 
" style="fill: none; stroke: #238465; stroke-width: 1.5; stroke-linecap: round"/>
    <path d="M 307.441186 236.8 
L 311.441186 238.8 
L 307.441186 240.8 
" style="fill: none; stroke: #238465; stroke-width: 1.5; stroke-linecap: round"/>
   </g>
   <g id="patch_8">
    <path d="M 464.322539 238.8 
Q 432.722151 238.8 402.798814 238.8 
" style="fill: none; stroke: #238465; stroke-width: 1.5; stroke-linecap: round"/>
    <path d="M 406.798814 240.8 
L 402.798814 238.8 
L 406.798814 236.8 
" style="fill: none; stroke: #238465; stroke-width: 1.5; stroke-linecap: round"/>
   </g>
   <g id="text_1">
    <text style="font-weight: 700; font-size: 12px; font-family: 'DejaVu Sans'; text-anchor: start" x="214.32" y="123.6" transform="rotate(-0 214.32 123.6)">Product section / open and gripping finger outlines</text>
   </g>
  </g>
  <g id="axes_2">
   <g id="patch_9">
    <path d="M 303.36 600 
L 410.88 600 
L 410.88 465.6 
L 303.36 465.6 
z
" clip-path="url(#pd5c795b526)" style="fill: #f4dfb6; stroke: #ac873e; stroke-linejoin: miter"/>
   </g>
   <g id="patch_10">
    <path d="M 298.290498 560.1504 
L 298.290498 505.4496 
L 277.547011 505.4496 
L 277.547011 560.1504 
L 298.290498 560.1504 
z
" clip-path="url(#pd5c795b526)" style="fill: none; stroke-dasharray: 3.7,1.6; stroke-dashoffset: 0; stroke: #a4afb4; stroke-linejoin: miter"/>
   </g>
   <g id="patch_11">
    <path d="M 303.36 560.1504 
L 303.36 505.4496 
L 285.898725 505.4496 
L 285.898725 560.1504 
L 303.36 560.1504 
z
" clip-path="url(#pd5c795b526)" style="fill: none; stroke: #18566b; stroke-linejoin: miter"/>
   </g>
   <g id="patch_12">
    <path d="M 415.949502 560.1504 
L 436.692989 560.1504 
L 436.692989 505.4496 
L 415.949502 505.4496 
L 415.949502 560.1504 
z
" clip-path="url(#pd5c795b526)" style="fill: none; stroke-dasharray: 3.7,1.6; stroke-dashoffset: 0; stroke: #a4afb4; stroke-linejoin: miter"/>
   </g>
   <g id="patch_13">
    <path d="M 428.341275 560.1504 
L 428.341275 505.4496 
L 410.88 505.4496 
L 410.88 560.1504 
L 428.341275 560.1504 
z
" clip-path="url(#pd5c795b526)" style="fill: none; stroke: #18566b; stroke-linejoin: miter"/>
   </g>
   <g id="line2d_1">
    <path d="M 303.36 593.28 
L 303.36 610.752 
" clip-path="url(#pd5c795b526)" style="fill: none; stroke: #18566b; stroke-width: 0.6; stroke-linecap: square"/>
   </g>
   <g id="line2d_2">
    <path d="M 410.88 593.28 
L 410.88 610.752 
" clip-path="url(#pd5c795b526)" style="fill: none; stroke: #18566b; stroke-width: 0.6; stroke-linecap: square"/>
   </g>
   <g id="patch_14">
    <path d="M 407.763685 610.752 
Q 357.120752 610.752 306.47782 610.752 
" style="fill: none; stroke: #18566b; stroke-linecap: round"/>
    <path d="M 403.763685 608.752 
L 407.763685 610.752 
L 403.763685 612.752 
" style="fill: none; stroke: #18566b; stroke-linecap: round"/>
    <path d="M 310.47782 612.752 
L 306.47782 610.752 
L 310.47782 608.752 
" style="fill: none; stroke: #18566b; stroke-linecap: round"/>
   </g>
   <g id="text_2">
    <g id="patch_15">
     <path d="M 341.193516 612.21 
L 373.046484 612.21 
L 373.046484 601.23 
L 341.193516 601.23 
z
" style="fill: #ffffff"/>
    </g>
    <text style="font-size: 9px; font-family: 'DejaVu Sans'; text-anchor: middle" x="357.12" y="609.057891" transform="rotate(-0 357.12 609.057891)">G 80.0</text>
   </g>
   <g id="patch_16">
    <path d="M 271.758281 532.8 
Q 296.639227 532.8 319.843122 532.8 
" style="fill: none; stroke: #238465; stroke-width: 1.5; stroke-linecap: round"/>
    <path d="M 315.843122 530.8 
L 319.843122 532.8 
L 315.843122 534.8 
" style="fill: none; stroke: #238465; stroke-width: 1.5; stroke-linecap: round"/>
   </g>
   <g id="patch_17">
    <path d="M 442.481719 532.8 
Q 417.600773 532.8 394.396878 532.8 
" style="fill: none; stroke: #238465; stroke-width: 1.5; stroke-linecap: round"/>
    <path d="M 398.396878 534.8 
L 394.396878 532.8 
L 398.396878 530.8 
" style="fill: none; stroke: #238465; stroke-width: 1.5; stroke-linecap: round"/>
   </g>
   <g id="text_3">
    <text style="font-weight: 700; font-size: 12px; font-family: 'DejaVu Sans'; text-anchor: start" x="242.88" y="426" transform="rotate(-0 242.88 426)">Tool-end section / fingers face inward</text>
   </g>
  </g>
  <g id="axes_3">
   <g id="patch_18">
    <path d="M 861.587027 278.464865 
L 962.776216 278.464865 
L 962.776216 151.978378 
L 861.587027 151.978378 
z
" clip-path="url(#p904eeb69cc)" style="fill: #f4dfb6; stroke: #ac873e; stroke-linejoin: miter"/>
   </g>
   <g id="line2d_3">
    <path d="M 861.587027 278.464865 
L 861.587027 293.643243 
" clip-path="url(#p904eeb69cc)" style="fill: none; stroke: #18566b; stroke-width: 0.6; stroke-linecap: square"/>
   </g>
   <g id="line2d_4">
    <path d="M 962.776216 278.464865 
L 962.776216 293.643243 
" clip-path="url(#p904eeb69cc)" style="fill: none; stroke: #18566b; stroke-width: 0.6; stroke-linecap: square"/>
   </g>
   <g id="line2d_5">
    <path d="M 962.776216 278.464865 
L 977.954595 278.464865 
" clip-path="url(#p904eeb69cc)" style="fill: none; stroke: #18566b; stroke-width: 0.6; stroke-linecap: square"/>
   </g>
   <g id="line2d_6">
    <path d="M 962.776216 151.978378 
L 977.954595 151.978378 
" clip-path="url(#p904eeb69cc)" style="fill: none; stroke: #18566b; stroke-width: 0.6; stroke-linecap: square"/>
   </g>
   <g id="patch_19">
    <path d="M 959.660215 293.643243 
Q 912.183086 293.643243 864.705958 293.643243 
" style="fill: none; stroke: #18566b; stroke-linecap: round"/>
    <path d="M 955.660215 291.643243 
L 959.660215 293.643243 
L 955.660215 295.643243 
" style="fill: none; stroke: #18566b; stroke-linecap: round"/>
    <path d="M 868.705958 295.643243 
L 864.705958 293.643243 
L 868.705958 291.643243 
" style="fill: none; stroke: #18566b; stroke-linecap: round"/>
   </g>
   <g id="text_4">
    <g id="patch_20">
     <path d="M 895.292559 295.338649 
L 929.070684 295.338649 
L 929.070684 284.358649 
L 895.292559 284.358649 
z
" style="fill: #ffffff"/>
    </g>
    <text style="font-size: 9px; font-family: 'DejaVu Sans'; text-anchor: middle" x="912.181622" y="292.186539" transform="rotate(-0 912.181622 292.186539)">W 80.0</text>
   </g>
   <g id="patch_21">
    <path d="M 977.954595 155.099784 
Q 977.954595 215.222291 977.954595 275.344798 
" style="fill: none; stroke: #18566b; stroke-linecap: round"/>
    <path d="M 975.954595 159.099784 
L 977.954595 155.099784 
L 979.954595 159.099784 
" style="fill: none; stroke: #18566b; stroke-linecap: round"/>
    <path d="M 979.954595 271.344798 
L 977.954595 275.344798 
L 975.954595 271.344798 
" style="fill: none; stroke: #18566b; stroke-linecap: round"/>
   </g>
   <g id="text_5">
    <g id="patch_22">
     <path d="M 979.65 233.989434 
L 979.65 196.453809 
L 968.67 196.453809 
L 968.67 233.989434 
z
" style="fill: #ffffff"/>
    </g>
    <text style="font-size: 9px; font-family: 'DejaVu Sans'" transform="translate(976.497891 232.999434) rotate(-90)">D 100.0</text>
   </g>
   <g id="text_6">
    <text style="font-weight: 700; font-size: 12px; font-family: 'DejaVu Sans'; text-anchor: start" x="846.408649" y="130.8" transform="rotate(-0 846.408649 130.8)">Product envelope / top</text>
   </g>
  </g>
  <g id="text_7">
   <text style="font-weight: 700; font-size: 22px; font-family: 'DejaVu Sans'; text-anchor: start; fill: #18566b" x="46.08" y="39.6" transform="rotate(-0 46.08 39.6)">DESSERT CONTAINER | DAC-2GN4087[H]/M</text>
  </g>
  <g id="text_8">
   <text style="font-size: 12px; font-family: 'DejaVu Sans'; text-anchor: start" x="46.08" y="70.56" transform="rotate(-0 46.08 70.56)">Product W x D x H: 80.0 x 100.0 x 60.0 mm. Same gripper and mounting for all four products.</text>
  </g>
  <g id="text_9">
   <text style="font-weight: 700; font-size: 14px; font-family: 'DejaVu Sans'; text-anchor: start; fill: #18566b" x="748.8" y="374.4" transform="rotate(-0 748.8 374.4)">HEIGHT H  60.0 mm</text>
  </g>
  <g id="text_10">
   <text style="font-size: 14px; font-family: 'DejaVu Sans'" transform="translate(748.8 438.259531)">Open G: 100.0 mm</text>
   <text style="font-size: 14px; font-family: 'DejaVu Sans'" transform="translate(748.8 463.583125)">Gripping G: 80.0 mm</text>
  </g>
  <g id="text_11">
   <text style="font-size: 11px; font-family: 'DejaVu Sans'" transform="translate(748.8 527.185313)">Catalog neutral G: 87.5 mm.</text>
   <text style="font-size: 11px; font-family: 'DejaVu Sans'" transform="translate(748.8 545.885313)">Catalog workpiece range: 15-100 mm.</text>
   <text style="font-size: 11px; font-family: 'DejaVu Sans'" transform="translate(748.8 564.585312)">G measured at distal inner jaw tips.</text>
   <text style="font-size: 11px; font-family: 'DejaVu Sans'" transform="translate(748.8 583.285313)">Approximate catalog envelope, not OEM CAD.</text>
  </g>
  <g id="text_12">
   <text style="font-size: 10px; font-family: 'DejaVu Sans'" transform="translate(748.8 626.359375)">Dough contact allows local indentation.</text>
   <text style="font-size: 10px; font-family: 'DejaVu Sans'" transform="translate(748.8 642.359375)">Dashed: open / Blue: contact shape.</text>
   <text style="font-size: 10px; font-family: 'DejaVu Sans'" transform="translate(748.8 658.359375)">Gripping force and compliance unvalidated.</text>
  </g>
  <g id="text_13">
   <text style="font-size: 10px; font-family: 'DejaVu Sans'; text-anchor: start; fill: #536871" x="46.08" y="696.24" transform="rotate(-0 46.08 696.24)">SUPPLIER REVIEW | All dimensions in mm | Product envelope schematic at right; actual grasp geometry at left.</text>
  </g>
 </g>
 <defs>
  <clipPath id="pa741375301">
   <rect x="214.32" y="129.6" width="285.6" height="252"/>
  </clipPath>
  <clipPath id="pd5c795b526">
   <rect x="242.88" y="432" width="228.48" height="201.6"/>
  </clipPath>
  <clipPath id="p904eeb69cc">
   <rect x="846.408649" y="136.8" width="161.902703" height="187.2"/>
  </clipPath>
 </defs>
</svg>
