ISO-10303-21;
HEADER;
FILE_DESCRIPTION(('Open CASCADE Model'),'2;1');
FILE_NAME('Open CASCADE Shape Model','2026-09-21T16:10:28',('Author'),(
    'Open CASCADE'),'Open CASCADE STEP processor 7.9','Open CASCADE 7.9'
  ,'Unknown');
FILE_SCHEMA(('AUTOMOTIVE_DESIGN { 1 0 10303 214 1 1 1 1 }'));
ENDSEC;
DATA;
#1 = APPLICATION_PROTOCOL_DEFINITION('international standard',
  'automotive_design',2000,#2);
#2 = APPLICATION_CONTEXT(
  'core data for automotive mechanical design processes');
#3 = SHAPE_DEFINITION_REPRESENTATION(#4,#10);
#4 = PRODUCT_DEFINITION_SHAPE('','',#5);
#5 = PRODUCT_DEFINITION('design','',#6,#9);
#6 = PRODUCT_DEFINITION_FORMATION('','',#7);
#7 = PRODUCT('Open CASCADE STEP translator 7.9 37',
  'Open CASCADE STEP translator 7.9 37','',(#8));
#8 = PRODUCT_CONTEXT('',#2,'mechanical');
#9 = PRODUCT_DEFINITION_CONTEXT('part definition',#2,'design');
#10 = ADVANCED_BREP_SHAPE_REPRESENTATION('',(#11,#15),#1227);
#11 = AXIS2_PLACEMENT_3D('',#12,#13,#14);
#12 = CARTESIAN_POINT('',(0.,0.,0.));
#13 = DIRECTION('',(0.,0.,1.));
#14 = DIRECTION('',(1.,0.,-0.));
#15 = MANIFOLD_SOLID_BREP('',#16);
#16 = CLOSED_SHELL('',(#17,#105,#215,#250,#324,#371,#418,#443,#1190,
    #1200));
#17 = ADVANCED_FACE('',(#18),#32,.T.);
#18 = FACE_BOUND('',#19,.F.);
#19 = EDGE_LOOP('',(#20,#50,#77,#78));
#20 = ORIENTED_EDGE('',*,*,#21,.T.);
#21 = EDGE_CURVE('',#22,#24,#26,.T.);
#22 = VERTEX_POINT('',#23);
#23 = CARTESIAN_POINT('',(16.,164.,151.5));
#24 = VERTEX_POINT('',#25);
#25 = CARTESIAN_POINT('',(16.,164.,154.5));
#26 = SEAM_CURVE('',#27,(#31,#43),.PCURVE_S1.);
#27 = LINE('',#28,#29);
#28 = CARTESIAN_POINT('',(16.,164.,151.5));
#29 = VECTOR('',#30,1.);
#30 = DIRECTION('',(0.,0.,1.));
#31 = PCURVE('',#32,#37);
#32 = CYLINDRICAL_SURFACE('',#33,16.);
#33 = AXIS2_PLACEMENT_3D('',#34,#35,#36);
#34 = CARTESIAN_POINT('',(0.,164.,151.5));
#35 = DIRECTION('',(-0.,-0.,-1.));
#36 = DIRECTION('',(1.,0.,0.));
#37 = DEFINITIONAL_REPRESENTATION('',(#38),#42);
#38 = LINE('',#39,#40);
#39 = CARTESIAN_POINT('',(-0.,0.));
#40 = VECTOR('',#41,1.);
#41 = DIRECTION('',(-0.,-1.));
#42 = ( GEOMETRIC_REPRESENTATION_CONTEXT(2) 
PARAMETRIC_REPRESENTATION_CONTEXT() REPRESENTATION_CONTEXT('2D SPACE',''
  ) );
#43 = PCURVE('',#32,#44);
#44 = DEFINITIONAL_REPRESENTATION('',(#45),#49);
#45 = LINE('',#46,#47);
#46 = CARTESIAN_POINT('',(-6.28318530718,0.));
#47 = VECTOR('',#48,1.);
#48 = DIRECTION('',(-0.,-1.));
#49 = ( GEOMETRIC_REPRESENTATION_CONTEXT(2) 
PARAMETRIC_REPRESENTATION_CONTEXT() REPRESENTATION_CONTEXT('2D SPACE',''
  ) );
#50 = ORIENTED_EDGE('',*,*,#51,.T.);
#51 = EDGE_CURVE('',#24,#24,#52,.T.);
#52 = SURFACE_CURVE('',#53,(#58,#65),.PCURVE_S1.);
#53 = CIRCLE('',#54,16.);
#54 = AXIS2_PLACEMENT_3D('',#55,#56,#57);
#55 = CARTESIAN_POINT('',(0.,164.,154.5));
#56 = DIRECTION('',(0.,0.,1.));
#57 = DIRECTION('',(1.,0.,0.));
#58 = PCURVE('',#32,#59);
#59 = DEFINITIONAL_REPRESENTATION('',(#60),#64);
#60 = LINE('',#61,#62);
#61 = CARTESIAN_POINT('',(-0.,-3.));
#62 = VECTOR('',#63,1.);
#63 = DIRECTION('',(-1.,0.));
#64 = ( GEOMETRIC_REPRESENTATION_CONTEXT(2) 
PARAMETRIC_REPRESENTATION_CONTEXT() REPRESENTATION_CONTEXT('2D SPACE',''
  ) );
#65 = PCURVE('',#66,#71);
#66 = PLANE('',#67);
#67 = AXIS2_PLACEMENT_3D('',#68,#69,#70);
#68 = CARTESIAN_POINT('',(-2.393020231944E-15,164.,154.5));
#69 = DIRECTION('',(0.,0.,1.));
#70 = DIRECTION('',(1.,0.,-0.));
#71 = DEFINITIONAL_REPRESENTATION('',(#72),#76);
#72 = CIRCLE('',#73,16.);
#73 = AXIS2_PLACEMENT_2D('',#74,#75);
#74 = CARTESIAN_POINT('',(2.393020231944E-15,0.));
#75 = DIRECTION('',(1.,0.));
#76 = ( GEOMETRIC_REPRESENTATION_CONTEXT(2) 
PARAMETRIC_REPRESENTATION_CONTEXT() REPRESENTATION_CONTEXT('2D SPACE',''
  ) );
#77 = ORIENTED_EDGE('',*,*,#21,.F.);
#78 = ORIENTED_EDGE('',*,*,#79,.F.);
#79 = EDGE_CURVE('',#22,#22,#80,.T.);
#80 = SURFACE_CURVE('',#81,(#86,#93),.PCURVE_S1.);
#81 = CIRCLE('',#82,16.);
#82 = AXIS2_PLACEMENT_3D('',#83,#84,#85);
#83 = CARTESIAN_POINT('',(0.,164.,151.5));
#84 = DIRECTION('',(0.,0.,1.));
#85 = DIRECTION('',(1.,0.,0.));
#86 = PCURVE('',#32,#87);
#87 = DEFINITIONAL_REPRESENTATION('',(#88),#92);
#88 = LINE('',#89,#90);
#89 = CARTESIAN_POINT('',(-0.,0.));
#90 = VECTOR('',#91,1.);
#91 = DIRECTION('',(-1.,0.));
#92 = ( GEOMETRIC_REPRESENTATION_CONTEXT(2) 
PARAMETRIC_REPRESENTATION_CONTEXT() REPRESENTATION_CONTEXT('2D SPACE',''
  ) );
#93 = PCURVE('',#94,#99);
#94 = PLANE('',#95);
#95 = AXIS2_PLACEMENT_3D('',#96,#97,#98);
#96 = CARTESIAN_POINT('',(-2.393020231944E-15,164.,151.5));
#97 = DIRECTION('',(0.,0.,1.));
#98 = DIRECTION('',(1.,0.,-0.));
#99 = DEFINITIONAL_REPRESENTATION('',(#100),#104);
#100 = CIRCLE('',#101,16.);
#101 = AXIS2_PLACEMENT_2D('',#102,#103);
#102 = CARTESIAN_POINT('',(2.393020231944E-15,0.));
#103 = DIRECTION('',(1.,0.));
#104 = ( GEOMETRIC_REPRESENTATION_CONTEXT(2) 
PARAMETRIC_REPRESENTATION_CONTEXT() REPRESENTATION_CONTEXT('2D SPACE',''
  ) );
#105 = ADVANCED_FACE('',(#106,#109),#94,.F.);
#106 = FACE_BOUND('',#107,.F.);
#107 = EDGE_LOOP('',(#108));
#108 = ORIENTED_EDGE('',*,*,#79,.T.);
#109 = FACE_BOUND('',#110,.F.);
#110 = EDGE_LOOP('',(#111,#139,#165,#191));
#111 = ORIENTED_EDGE('',*,*,#112,.T.);
#112 = EDGE_CURVE('',#113,#115,#117,.T.);
#113 = VERTEX_POINT('',#114);
#114 = CARTESIAN_POINT('',(4.15,168.15,151.5));
#115 = VERTEX_POINT('',#116);
#116 = CARTESIAN_POINT('',(4.15,159.85,151.5));
#117 = SURFACE_CURVE('',#118,(#122,#128),.PCURVE_S1.);
#118 = LINE('',#119,#120);
#119 = CARTESIAN_POINT('',(4.15,161.925,151.5));
#120 = VECTOR('',#121,1.);
#121 = DIRECTION('',(0.,-1.,0.));
#122 = PCURVE('',#94,#123);
#123 = DEFINITIONAL_REPRESENTATION('',(#124),#127);
#124 = B_SPLINE_CURVE_WITH_KNOTS('',1,(#125,#126),.UNSPECIFIED.,.F.,.F.,
  (2,2),(-6.225,2.075),.PIECEWISE_BEZIER_KNOTS.);
#125 = CARTESIAN_POINT('',(4.15,4.15));
#126 = CARTESIAN_POINT('',(4.15,-4.15));
#127 = ( GEOMETRIC_REPRESENTATION_CONTEXT(2) 
PARAMETRIC_REPRESENTATION_CONTEXT() REPRESENTATION_CONTEXT('2D SPACE',''
  ) );
#128 = PCURVE('',#129,#134);
#129 = PLANE('',#130);
#130 = AXIS2_PLACEMENT_3D('',#131,#132,#133);
#131 = CARTESIAN_POINT('',(4.15,159.85,150.5));
#132 = DIRECTION('',(-1.,0.,0.));
#133 = DIRECTION('',(0.,1.,0.));
#134 = DEFINITIONAL_REPRESENTATION('',(#135),#138);
#135 = B_SPLINE_CURVE_WITH_KNOTS('',1,(#136,#137),.UNSPECIFIED.,.F.,.F.,
  (2,2),(-6.225,2.075),.PIECEWISE_BEZIER_KNOTS.);
#136 = CARTESIAN_POINT('',(8.3,-1.));
#137 = CARTESIAN_POINT('',(0.,-1.));
#138 = ( GEOMETRIC_REPRESENTATION_CONTEXT(2) 
PARAMETRIC_REPRESENTATION_CONTEXT() REPRESENTATION_CONTEXT('2D SPACE',''
  ) );
#139 = ORIENTED_EDGE('',*,*,#140,.T.);
#140 = EDGE_CURVE('',#115,#141,#143,.T.);
#141 = VERTEX_POINT('',#142);
#142 = CARTESIAN_POINT('',(-4.15,159.85,151.5));
#143 = SURFACE_CURVE('',#144,(#148,#154),.PCURVE_S1.);
#144 = LINE('',#145,#146);
#145 = CARTESIAN_POINT('',(-2.075,159.85,151.5));
#146 = VECTOR('',#147,1.);
#147 = DIRECTION('',(-1.,0.,0.));
#148 = PCURVE('',#94,#149);
#149 = DEFINITIONAL_REPRESENTATION('',(#150),#153);
#150 = B_SPLINE_CURVE_WITH_KNOTS('',1,(#151,#152),.UNSPECIFIED.,.F.,.F.,
  (2,2),(-6.225,2.075),.PIECEWISE_BEZIER_KNOTS.);
#151 = CARTESIAN_POINT('',(4.15,-4.15));
#152 = CARTESIAN_POINT('',(-4.15,-4.15));
#153 = ( GEOMETRIC_REPRESENTATION_CONTEXT(2) 
PARAMETRIC_REPRESENTATION_CONTEXT() REPRESENTATION_CONTEXT('2D SPACE',''
  ) );
#154 = PCURVE('',#155,#160);
#155 = PLANE('',#156);
#156 = AXIS2_PLACEMENT_3D('',#157,#158,#159);
#157 = CARTESIAN_POINT('',(-4.15,159.85,150.5));
#158 = DIRECTION('',(0.,1.,0.));
#159 = DIRECTION('',(1.,0.,0.));
#160 = DEFINITIONAL_REPRESENTATION('',(#161),#164);
#161 = B_SPLINE_CURVE_WITH_KNOTS('',1,(#162,#163),.UNSPECIFIED.,.F.,.F.,
  (2,2),(-6.225,2.075),.PIECEWISE_BEZIER_KNOTS.);
#162 = CARTESIAN_POINT('',(8.3,-1.));
#163 = CARTESIAN_POINT('',(0.,-1.));
#164 = ( GEOMETRIC_REPRESENTATION_CONTEXT(2) 
PARAMETRIC_REPRESENTATION_CONTEXT() REPRESENTATION_CONTEXT('2D SPACE',''
  ) );
#165 = ORIENTED_EDGE('',*,*,#166,.T.);
#166 = EDGE_CURVE('',#141,#167,#169,.T.);
#167 = VERTEX_POINT('',#168);
#168 = CARTESIAN_POINT('',(-4.15,168.15,151.5));
#169 = SURFACE_CURVE('',#170,(#174,#180),.PCURVE_S1.);
#170 = LINE('',#171,#172);
#171 = CARTESIAN_POINT('',(-4.15,166.075,151.5));
#172 = VECTOR('',#173,1.);
#173 = DIRECTION('',(-0.,1.,0.));
#174 = PCURVE('',#94,#175);
#175 = DEFINITIONAL_REPRESENTATION('',(#176),#179);
#176 = B_SPLINE_CURVE_WITH_KNOTS('',1,(#177,#178),.UNSPECIFIED.,.F.,.F.,
  (2,2),(-6.225,2.075),.PIECEWISE_BEZIER_KNOTS.);
#177 = CARTESIAN_POINT('',(-4.15,-4.15));
#178 = CARTESIAN_POINT('',(-4.15,4.15));
#179 = ( GEOMETRIC_REPRESENTATION_CONTEXT(2) 
PARAMETRIC_REPRESENTATION_CONTEXT() REPRESENTATION_CONTEXT('2D SPACE',''
  ) );
#180 = PCURVE('',#181,#186);
#181 = PLANE('',#182);
#182 = AXIS2_PLACEMENT_3D('',#183,#184,#185);
#183 = CARTESIAN_POINT('',(-4.15,168.15,150.5));
#184 = DIRECTION('',(1.,0.,-0.));
#185 = DIRECTION('',(0.,-1.,0.));
#186 = DEFINITIONAL_REPRESENTATION('',(#187),#190);
#187 = B_SPLINE_CURVE_WITH_KNOTS('',1,(#188,#189),.UNSPECIFIED.,.F.,.F.,
  (2,2),(-6.225,2.075),.PIECEWISE_BEZIER_KNOTS.);
#188 = CARTESIAN_POINT('',(8.3,-1.));
#189 = CARTESIAN_POINT('',(0.,-1.));
#190 = ( GEOMETRIC_REPRESENTATION_CONTEXT(2) 
PARAMETRIC_REPRESENTATION_CONTEXT() REPRESENTATION_CONTEXT('2D SPACE',''
  ) );
#191 = ORIENTED_EDGE('',*,*,#192,.T.);
#192 = EDGE_CURVE('',#167,#113,#193,.T.);
#193 = SURFACE_CURVE('',#194,(#198,#204),.PCURVE_S1.);
#194 = LINE('',#195,#196);
#195 = CARTESIAN_POINT('',(2.075,168.15,151.5));
#196 = VECTOR('',#197,1.);
#197 = DIRECTION('',(1.,0.,-0.));
#198 = PCURVE('',#94,#199);
#199 = DEFINITIONAL_REPRESENTATION('',(#200),#203);
#200 = B_SPLINE_CURVE_WITH_KNOTS('',1,(#201,#202),.UNSPECIFIED.,.F.,.F.,
  (2,2),(-6.225,2.075),.PIECEWISE_BEZIER_KNOTS.);
#201 = CARTESIAN_POINT('',(-4.15,4.15));
#202 = CARTESIAN_POINT('',(4.15,4.15));
#203 = ( GEOMETRIC_REPRESENTATION_CONTEXT(2) 
PARAMETRIC_REPRESENTATION_CONTEXT() REPRESENTATION_CONTEXT('2D SPACE',''
  ) );
#204 = PCURVE('',#205,#210);
#205 = PLANE('',#206);
#206 = AXIS2_PLACEMENT_3D('',#207,#208,#209);
#207 = CARTESIAN_POINT('',(4.15,168.15,150.5));
#208 = DIRECTION('',(0.,-1.,0.));
#209 = DIRECTION('',(-1.,0.,0.));
#210 = DEFINITIONAL_REPRESENTATION('',(#211),#214);
#211 = B_SPLINE_CURVE_WITH_KNOTS('',1,(#212,#213),.UNSPECIFIED.,.F.,.F.,
  (2,2),(-6.225,2.075),.PIECEWISE_BEZIER_KNOTS.);
#212 = CARTESIAN_POINT('',(8.3,-1.));
#213 = CARTESIAN_POINT('',(0.,-1.));
#214 = ( GEOMETRIC_REPRESENTATION_CONTEXT(2) 
PARAMETRIC_REPRESENTATION_CONTEXT() REPRESENTATION_CONTEXT('2D SPACE',''
  ) );
#215 = ADVANCED_FACE('',(#216,#219),#66,.T.);
#216 = FACE_BOUND('',#217,.T.);
#217 = EDGE_LOOP('',(#218));
#218 = ORIENTED_EDGE('',*,*,#51,.T.);
#219 = FACE_BOUND('',#220,.T.);
#220 = EDGE_LOOP('',(#221));
#221 = ORIENTED_EDGE('',*,*,#222,.F.);
#222 = EDGE_CURVE('',#223,#223,#225,.T.);
#223 = VERTEX_POINT('',#224);
#224 = CARTESIAN_POINT('',(11.,164.,154.5));
#225 = SURFACE_CURVE('',#226,(#231,#238),.PCURVE_S1.);
#226 = CIRCLE('',#227,11.);
#227 = AXIS2_PLACEMENT_3D('',#228,#229,#230);
#228 = CARTESIAN_POINT('',(0.,164.,154.5));
#229 = DIRECTION('',(0.,0.,1.));
#230 = DIRECTION('',(1.,0.,0.));
#231 = PCURVE('',#66,#232);
#232 = DEFINITIONAL_REPRESENTATION('',(#233),#237);
#233 = CIRCLE('',#234,11.);
#234 = AXIS2_PLACEMENT_2D('',#235,#236);
#235 = CARTESIAN_POINT('',(2.393020231944E-15,0.));
#236 = DIRECTION('',(1.,0.));
#237 = ( GEOMETRIC_REPRESENTATION_CONTEXT(2) 
PARAMETRIC_REPRESENTATION_CONTEXT() REPRESENTATION_CONTEXT('2D SPACE',''
  ) );
#238 = PCURVE('',#239,#244);
#239 = CYLINDRICAL_SURFACE('',#240,11.);
#240 = AXIS2_PLACEMENT_3D('',#241,#242,#243);
#241 = CARTESIAN_POINT('',(0.,164.,154.5));
#242 = DIRECTION('',(-0.,-0.,-1.));
#243 = DIRECTION('',(1.,0.,0.));
#244 = DEFINITIONAL_REPRESENTATION('',(#245),#249);
#245 = LINE('',#246,#247);
#246 = CARTESIAN_POINT('',(-0.,0.));
#247 = VECTOR('',#248,1.);
#248 = DIRECTION('',(-1.,0.));
#249 = ( GEOMETRIC_REPRESENTATION_CONTEXT(2) 
PARAMETRIC_REPRESENTATION_CONTEXT() REPRESENTATION_CONTEXT('2D SPACE',''
  ) );
#250 = ADVANCED_FACE('',(#251),#129,.T.);
#251 = FACE_BOUND('',#252,.T.);
#252 = EDGE_LOOP('',(#253,#254,#277,#303));
#253 = ORIENTED_EDGE('',*,*,#112,.T.);
#254 = ORIENTED_EDGE('',*,*,#255,.T.);
#255 = EDGE_CURVE('',#115,#256,#258,.T.);
#256 = VERTEX_POINT('',#257);
#257 = CARTESIAN_POINT('',(4.15,159.85,176.5));
#258 = SURFACE_CURVE('',#259,(#263,#270),.PCURVE_S1.);
#259 = LINE('',#260,#261);
#260 = CARTESIAN_POINT('',(4.15,159.85,150.5));
#261 = VECTOR('',#262,1.);
#262 = DIRECTION('',(0.,0.,1.));
#263 = PCURVE('',#129,#264);
#264 = DEFINITIONAL_REPRESENTATION('',(#265),#269);
#265 = LINE('',#266,#267);
#266 = CARTESIAN_POINT('',(0.,0.));
#267 = VECTOR('',#268,1.);
#268 = DIRECTION('',(0.,-1.));
#269 = ( GEOMETRIC_REPRESENTATION_CONTEXT(2) 
PARAMETRIC_REPRESENTATION_CONTEXT() REPRESENTATION_CONTEXT('2D SPACE',''
  ) );
#270 = PCURVE('',#155,#271);
#271 = DEFINITIONAL_REPRESENTATION('',(#272),#276);
#272 = LINE('',#273,#274);
#273 = CARTESIAN_POINT('',(8.3,0.));
#274 = VECTOR('',#275,1.);
#275 = DIRECTION('',(0.,-1.));
#276 = ( GEOMETRIC_REPRESENTATION_CONTEXT(2) 
PARAMETRIC_REPRESENTATION_CONTEXT() REPRESENTATION_CONTEXT('2D SPACE',''
  ) );
#277 = ORIENTED_EDGE('',*,*,#278,.F.);
#278 = EDGE_CURVE('',#279,#256,#281,.T.);
#279 = VERTEX_POINT('',#280);
#280 = CARTESIAN_POINT('',(4.15,168.15,176.5));
#281 = SURFACE_CURVE('',#282,(#286,#292),.PCURVE_S1.);
#282 = LINE('',#283,#284);
#283 = CARTESIAN_POINT('',(4.15,161.925,176.5));
#284 = VECTOR('',#285,1.);
#285 = DIRECTION('',(0.,-1.,0.));
#286 = PCURVE('',#129,#287);
#287 = DEFINITIONAL_REPRESENTATION('',(#288),#291);
#288 = B_SPLINE_CURVE_WITH_KNOTS('',1,(#289,#290),.UNSPECIFIED.,.F.,.F.,
  (2,2),(-6.225,2.075),.PIECEWISE_BEZIER_KNOTS.);
#289 = CARTESIAN_POINT('',(8.3,-26.));
#290 = CARTESIAN_POINT('',(0.,-26.));
#291 = ( GEOMETRIC_REPRESENTATION_CONTEXT(2) 
PARAMETRIC_REPRESENTATION_CONTEXT() REPRESENTATION_CONTEXT('2D SPACE',''
  ) );
#292 = PCURVE('',#293,#298);
#293 = PLANE('',#294);
#294 = AXIS2_PLACEMENT_3D('',#295,#296,#297);
#295 = CARTESIAN_POINT('',(4.972509572871E-16,164.,176.5));
#296 = DIRECTION('',(0.,0.,1.));
#297 = DIRECTION('',(1.,0.,-0.));
#298 = DEFINITIONAL_REPRESENTATION('',(#299),#302);
#299 = B_SPLINE_CURVE_WITH_KNOTS('',1,(#300,#301),.UNSPECIFIED.,.F.,.F.,
  (2,2),(-6.225,2.075),.PIECEWISE_BEZIER_KNOTS.);
#300 = CARTESIAN_POINT('',(4.15,4.15));
#301 = CARTESIAN_POINT('',(4.15,-4.15));
#302 = ( GEOMETRIC_REPRESENTATION_CONTEXT(2) 
PARAMETRIC_REPRESENTATION_CONTEXT() REPRESENTATION_CONTEXT('2D SPACE',''
  ) );
#303 = ORIENTED_EDGE('',*,*,#304,.F.);
#304 = EDGE_CURVE('',#113,#279,#305,.T.);
#305 = SURFACE_CURVE('',#306,(#310,#317),.PCURVE_S1.);
#306 = LINE('',#307,#308);
#307 = CARTESIAN_POINT('',(4.15,168.15,150.5));
#308 = VECTOR('',#309,1.);
#309 = DIRECTION('',(0.,0.,1.));
#310 = PCURVE('',#129,#311);
#311 = DEFINITIONAL_REPRESENTATION('',(#312),#316);
#312 = LINE('',#313,#314);
#313 = CARTESIAN_POINT('',(8.3,0.));
#314 = VECTOR('',#315,1.);
#315 = DIRECTION('',(0.,-1.));
#316 = ( GEOMETRIC_REPRESENTATION_CONTEXT(2) 
PARAMETRIC_REPRESENTATION_CONTEXT() REPRESENTATION_CONTEXT('2D SPACE',''
  ) );
#317 = PCURVE('',#205,#318);
#318 = DEFINITIONAL_REPRESENTATION('',(#319),#323);
#319 = LINE('',#320,#321);
#320 = CARTESIAN_POINT('',(0.,-0.));
#321 = VECTOR('',#322,1.);
#322 = DIRECTION('',(0.,-1.));
#323 = ( GEOMETRIC_REPRESENTATION_CONTEXT(2) 
PARAMETRIC_REPRESENTATION_CONTEXT() REPRESENTATION_CONTEXT('2D SPACE',''
  ) );
#324 = ADVANCED_FACE('',(#325),#205,.T.);
#325 = FACE_BOUND('',#326,.T.);
#326 = EDGE_LOOP('',(#327,#328,#329,#350));
#327 = ORIENTED_EDGE('',*,*,#192,.T.);
#328 = ORIENTED_EDGE('',*,*,#304,.T.);
#329 = ORIENTED_EDGE('',*,*,#330,.F.);
#330 = EDGE_CURVE('',#331,#279,#333,.T.);
#331 = VERTEX_POINT('',#332);
#332 = CARTESIAN_POINT('',(-4.15,168.15,176.5));
#333 = SURFACE_CURVE('',#334,(#338,#344),.PCURVE_S1.);
#334 = LINE('',#335,#336);
#335 = CARTESIAN_POINT('',(2.075,168.15,176.5));
#336 = VECTOR('',#337,1.);
#337 = DIRECTION('',(1.,0.,-0.));
#338 = PCURVE('',#205,#339);
#339 = DEFINITIONAL_REPRESENTATION('',(#340),#343);
#340 = B_SPLINE_CURVE_WITH_KNOTS('',1,(#341,#342),.UNSPECIFIED.,.F.,.F.,
  (2,2),(-6.225,2.075),.PIECEWISE_BEZIER_KNOTS.);
#341 = CARTESIAN_POINT('',(8.3,-26.));
#342 = CARTESIAN_POINT('',(0.,-26.));
#343 = ( GEOMETRIC_REPRESENTATION_CONTEXT(2) 
PARAMETRIC_REPRESENTATION_CONTEXT() REPRESENTATION_CONTEXT('2D SPACE',''
  ) );
#344 = PCURVE('',#293,#345);
#345 = DEFINITIONAL_REPRESENTATION('',(#346),#349);
#346 = B_SPLINE_CURVE_WITH_KNOTS('',1,(#347,#348),.UNSPECIFIED.,.F.,.F.,
  (2,2),(-6.225,2.075),.PIECEWISE_BEZIER_KNOTS.);
#347 = CARTESIAN_POINT('',(-4.15,4.15));
#348 = CARTESIAN_POINT('',(4.15,4.15));
#349 = ( GEOMETRIC_REPRESENTATION_CONTEXT(2) 
PARAMETRIC_REPRESENTATION_CONTEXT() REPRESENTATION_CONTEXT('2D SPACE',''
  ) );
#350 = ORIENTED_EDGE('',*,*,#351,.F.);
#351 = EDGE_CURVE('',#167,#331,#352,.T.);
#352 = SURFACE_CURVE('',#353,(#357,#364),.PCURVE_S1.);
#353 = LINE('',#354,#355);
#354 = CARTESIAN_POINT('',(-4.15,168.15,150.5));
#355 = VECTOR('',#356,1.);
#356 = DIRECTION('',(0.,0.,1.));
#357 = PCURVE('',#205,#358);
#358 = DEFINITIONAL_REPRESENTATION('',(#359),#363);
#359 = LINE('',#360,#361);
#360 = CARTESIAN_POINT('',(8.3,0.));
#361 = VECTOR('',#362,1.);
#362 = DIRECTION('',(0.,-1.));
#363 = ( GEOMETRIC_REPRESENTATION_CONTEXT(2) 
PARAMETRIC_REPRESENTATION_CONTEXT() REPRESENTATION_CONTEXT('2D SPACE',''
  ) );
#364 = PCURVE('',#181,#365);
#365 = DEFINITIONAL_REPRESENTATION('',(#366),#370);
#366 = LINE('',#367,#368);
#367 = CARTESIAN_POINT('',(0.,0.));
#368 = VECTOR('',#369,1.);
#369 = DIRECTION('',(0.,-1.));
#370 = ( GEOMETRIC_REPRESENTATION_CONTEXT(2) 
PARAMETRIC_REPRESENTATION_CONTEXT() REPRESENTATION_CONTEXT('2D SPACE',''
  ) );
#371 = ADVANCED_FACE('',(#372),#181,.T.);
#372 = FACE_BOUND('',#373,.T.);
#373 = EDGE_LOOP('',(#374,#375,#376,#397));
#374 = ORIENTED_EDGE('',*,*,#166,.T.);
#375 = ORIENTED_EDGE('',*,*,#351,.T.);
#376 = ORIENTED_EDGE('',*,*,#377,.F.);
#377 = EDGE_CURVE('',#378,#331,#380,.T.);
#378 = VERTEX_POINT('',#379);
#379 = CARTESIAN_POINT('',(-4.15,159.85,176.5));
#380 = SURFACE_CURVE('',#381,(#385,#391),.PCURVE_S1.);
#381 = LINE('',#382,#383);
#382 = CARTESIAN_POINT('',(-4.15,166.075,176.5));
#383 = VECTOR('',#384,1.);
#384 = DIRECTION('',(-0.,1.,0.));
#385 = PCURVE('',#181,#386);
#386 = DEFINITIONAL_REPRESENTATION('',(#387),#390);
#387 = B_SPLINE_CURVE_WITH_KNOTS('',1,(#388,#389),.UNSPECIFIED.,.F.,.F.,
  (2,2),(-6.225,2.075),.PIECEWISE_BEZIER_KNOTS.);
#388 = CARTESIAN_POINT('',(8.3,-26.));
#389 = CARTESIAN_POINT('',(0.,-26.));
#390 = ( GEOMETRIC_REPRESENTATION_CONTEXT(2) 
PARAMETRIC_REPRESENTATION_CONTEXT() REPRESENTATION_CONTEXT('2D SPACE',''
  ) );
#391 = PCURVE('',#293,#392);
#392 = DEFINITIONAL_REPRESENTATION('',(#393),#396);
#393 = B_SPLINE_CURVE_WITH_KNOTS('',1,(#394,#395),.UNSPECIFIED.,.F.,.F.,
  (2,2),(-6.225,2.075),.PIECEWISE_BEZIER_KNOTS.);
#394 = CARTESIAN_POINT('',(-4.15,-4.15));
#395 = CARTESIAN_POINT('',(-4.15,4.15));
#396 = ( GEOMETRIC_REPRESENTATION_CONTEXT(2) 
PARAMETRIC_REPRESENTATION_CONTEXT() REPRESENTATION_CONTEXT('2D SPACE',''
  ) );
#397 = ORIENTED_EDGE('',*,*,#398,.F.);
#398 = EDGE_CURVE('',#141,#378,#399,.T.);
#399 = SURFACE_CURVE('',#400,(#404,#411),.PCURVE_S1.);
#400 = LINE('',#401,#402);
#401 = CARTESIAN_POINT('',(-4.15,159.85,150.5));
#402 = VECTOR('',#403,1.);
#403 = DIRECTION('',(0.,0.,1.));
#404 = PCURVE('',#181,#405);
#405 = DEFINITIONAL_REPRESENTATION('',(#406),#410);
#406 = LINE('',#407,#408);
#407 = CARTESIAN_POINT('',(8.3,0.));
#408 = VECTOR('',#409,1.);
#409 = DIRECTION('',(0.,-1.));
#410 = ( GEOMETRIC_REPRESENTATION_CONTEXT(2) 
PARAMETRIC_REPRESENTATION_CONTEXT() REPRESENTATION_CONTEXT('2D SPACE',''
  ) );
#411 = PCURVE('',#155,#412);
#412 = DEFINITIONAL_REPRESENTATION('',(#413),#417);
#413 = LINE('',#414,#415);
#414 = CARTESIAN_POINT('',(0.,0.));
#415 = VECTOR('',#416,1.);
#416 = DIRECTION('',(0.,-1.));
#417 = ( GEOMETRIC_REPRESENTATION_CONTEXT(2) 
PARAMETRIC_REPRESENTATION_CONTEXT() REPRESENTATION_CONTEXT('2D SPACE',''
  ) );
#418 = ADVANCED_FACE('',(#419),#155,.T.);
#419 = FACE_BOUND('',#420,.T.);
#420 = EDGE_LOOP('',(#421,#422,#423,#442));
#421 = ORIENTED_EDGE('',*,*,#140,.T.);
#422 = ORIENTED_EDGE('',*,*,#398,.T.);
#423 = ORIENTED_EDGE('',*,*,#424,.F.);
#424 = EDGE_CURVE('',#256,#378,#425,.T.);
#425 = SURFACE_CURVE('',#426,(#430,#436),.PCURVE_S1.);
#426 = LINE('',#427,#428);
#427 = CARTESIAN_POINT('',(-2.075,159.85,176.5));
#428 = VECTOR('',#429,1.);
#429 = DIRECTION('',(-1.,0.,0.));
#430 = PCURVE('',#155,#431);
#431 = DEFINITIONAL_REPRESENTATION('',(#432),#435);
#432 = B_SPLINE_CURVE_WITH_KNOTS('',1,(#433,#434),.UNSPECIFIED.,.F.,.F.,
  (2,2),(-6.225,2.075),.PIECEWISE_BEZIER_KNOTS.);
#433 = CARTESIAN_POINT('',(8.3,-26.));
#434 = CARTESIAN_POINT('',(0.,-26.));
#435 = ( GEOMETRIC_REPRESENTATION_CONTEXT(2) 
PARAMETRIC_REPRESENTATION_CONTEXT() REPRESENTATION_CONTEXT('2D SPACE',''
  ) );
#436 = PCURVE('',#293,#437);
#437 = DEFINITIONAL_REPRESENTATION('',(#438),#441);
#438 = B_SPLINE_CURVE_WITH_KNOTS('',1,(#439,#440),.UNSPECIFIED.,.F.,.F.,
  (2,2),(-6.225,2.075),.PIECEWISE_BEZIER_KNOTS.);
#439 = CARTESIAN_POINT('',(4.15,-4.15));
#440 = CARTESIAN_POINT('',(-4.15,-4.15));
#441 = ( GEOMETRIC_REPRESENTATION_CONTEXT(2) 
PARAMETRIC_REPRESENTATION_CONTEXT() REPRESENTATION_CONTEXT('2D SPACE',''
  ) );
#442 = ORIENTED_EDGE('',*,*,#255,.F.);
#443 = ADVANCED_FACE('',(#444,#493,#844),#239,.T.);
#444 = FACE_BOUND('',#445,.F.);
#445 = EDGE_LOOP('',(#446,#447,#470,#492));
#446 = ORIENTED_EDGE('',*,*,#222,.F.);
#447 = ORIENTED_EDGE('',*,*,#448,.T.);
#448 = EDGE_CURVE('',#223,#449,#451,.T.);
#449 = VERTEX_POINT('',#450);
#450 = CARTESIAN_POINT('',(11.,164.,176.5));
#451 = SEAM_CURVE('',#452,(#456,#463),.PCURVE_S1.);
#452 = LINE('',#453,#454);
#453 = CARTESIAN_POINT('',(11.,164.,154.5));
#454 = VECTOR('',#455,1.);
#455 = DIRECTION('',(0.,0.,1.));
#456 = PCURVE('',#239,#457);
#457 = DEFINITIONAL_REPRESENTATION('',(#458),#462);
#458 = LINE('',#459,#460);
#459 = CARTESIAN_POINT('',(-6.28318530718,0.));
#460 = VECTOR('',#461,1.);
#461 = DIRECTION('',(-0.,-1.));
#462 = ( GEOMETRIC_REPRESENTATION_CONTEXT(2) 
PARAMETRIC_REPRESENTATION_CONTEXT() REPRESENTATION_CONTEXT('2D SPACE',''
  ) );
#463 = PCURVE('',#239,#464);
#464 = DEFINITIONAL_REPRESENTATION('',(#465),#469);
#465 = LINE('',#466,#467);
#466 = CARTESIAN_POINT('',(-0.,0.));
#467 = VECTOR('',#468,1.);
#468 = DIRECTION('',(-0.,-1.));
#469 = ( GEOMETRIC_REPRESENTATION_CONTEXT(2) 
PARAMETRIC_REPRESENTATION_CONTEXT() REPRESENTATION_CONTEXT('2D SPACE',''
  ) );
#470 = ORIENTED_EDGE('',*,*,#471,.T.);
#471 = EDGE_CURVE('',#449,#449,#472,.T.);
#472 = SURFACE_CURVE('',#473,(#478,#485),.PCURVE_S1.);
#473 = CIRCLE('',#474,11.);
#474 = AXIS2_PLACEMENT_3D('',#475,#476,#477);
#475 = CARTESIAN_POINT('',(0.,164.,176.5));
#476 = DIRECTION('',(0.,0.,1.));
#477 = DIRECTION('',(1.,0.,0.));
#478 = PCURVE('',#239,#479);
#479 = DEFINITIONAL_REPRESENTATION('',(#480),#484);
#480 = LINE('',#481,#482);
#481 = CARTESIAN_POINT('',(-0.,-22.));
#482 = VECTOR('',#483,1.);
#483 = DIRECTION('',(-1.,0.));
#484 = ( GEOMETRIC_REPRESENTATION_CONTEXT(2) 
PARAMETRIC_REPRESENTATION_CONTEXT() REPRESENTATION_CONTEXT('2D SPACE',''
  ) );
#485 = PCURVE('',#293,#486);
#486 = DEFINITIONAL_REPRESENTATION('',(#487),#491);
#487 = CIRCLE('',#488,11.);
#488 = AXIS2_PLACEMENT_2D('',#489,#490);
#489 = CARTESIAN_POINT('',(-4.972509572871E-16,2.84217094304E-14));
#490 = DIRECTION('',(1.,0.));
#491 = ( GEOMETRIC_REPRESENTATION_CONTEXT(2) 
PARAMETRIC_REPRESENTATION_CONTEXT() REPRESENTATION_CONTEXT('2D SPACE',''
  ) );
#492 = ORIENTED_EDGE('',*,*,#448,.F.);
#493 = FACE_BOUND('',#494,.F.);
#494 = EDGE_LOOP('',(#495));
#495 = ORIENTED_EDGE('',*,*,#496,.F.);
#496 = EDGE_CURVE('',#497,#497,#499,.T.);
#497 = VERTEX_POINT('',#498);
#498 = CARTESIAN_POINT('',(-5.370288632839,173.6,170.));
#499 = SURFACE_CURVE('',#500,(#611,#725),.PCURVE_S1.);
#500 = B_SPLINE_CURVE_WITH_KNOTS('',7,(#501,#502,#503,#504,#505,#506,
    #507,#508,#509,#510,#511,#512,#513,#514,#515,#516,#517,#518,#519,
    #520,#521,#522,#523,#524,#525,#526,#527,#528,#529,#530,#531,#532,
    #533,#534,#535,#536,#537,#538,#539,#540,#541,#542,#543,#544,#545,
    #546,#547,#548,#549,#550,#551,#552,#553,#554,#555,#556,#557,#558,
    #559,#560,#561,#562,#563,#564,#565,#566,#567,#568,#569,#570,#571,
    #572,#573,#574,#575,#576,#577,#578,#579,#580,#581,#582,#583,#584,
    #585,#586,#587,#588,#589,#590,#591,#592,#593,#594,#595,#596,#597,
    #598,#599,#600,#601,#602,#603,#604,#605,#606,#607,#608,#609,#610),
  .UNSPECIFIED.,.T.,.F.,(8,6,6,6,6,6,6,6,6,6,6,6,6,6,6,6,6,6,8),(0.,
    4.997409477673E-02,9.791654490428E-02,0.165771502042,0.243331264639,
    0.312625183767,0.372300715694,0.409876518623,0.451662911568,
    0.499695129845,0.547923949149,0.589373673035,0.628398671142,
    0.668099081003,0.717687050269,0.834830719881,0.903329544404,
    0.94955302231,1.),.UNSPECIFIED.);
#501 = CARTESIAN_POINT('',(-5.370288632839,173.6,170.));
#502 = CARTESIAN_POINT('',(-5.370288632839,173.6,170.10540992271));
#503 = CARTESIAN_POINT('',(-5.381323127499,173.59382698814,
    170.20986169324));
#504 = CARTESIAN_POINT('',(-5.40303265586,173.58168344585,
    170.31266880221));
#505 = CARTESIAN_POINT('',(-5.434642864823,173.56389452892,
    170.41311801092));
#506 = CARTESIAN_POINT('',(-5.474966518201,173.5409368559,
    170.51044929521));
#507 = CARTESIAN_POINT('',(-5.522415641356,173.51349829141,
    170.60384133112));
#508 = CARTESIAN_POINT('',(-5.625493231699,173.45289656668,
    170.77736335078));
#509 = CARTESIAN_POINT('',(-5.681222887839,173.41971016106,
    170.85874049104));
#510 = CARTESIAN_POINT('',(-5.741267923091,173.38340084107,
    170.93662790705));
#511 = CARTESIAN_POINT('',(-5.804843002878,173.3442847172,
    171.01114220063));
#512 = CARTESIAN_POINT('',(-5.871322302119,173.30260964259,
    171.08241893751));
#513 = CARTESIAN_POINT('',(-5.940235544695,173.25855248356,
    171.15060878268));
#514 = CARTESIAN_POINT('',(-6.111784091037,173.14661155959,
    171.30824525404));
#515 = CARTESIAN_POINT('',(-6.216675975714,173.07634177298,
    171.39488408948));
#516 = CARTESIAN_POINT('',(-6.324751646849,173.00182895765,171.475952444
    ));
#517 = CARTESIAN_POINT('',(-6.4352048251,172.92334590714,171.55162883232
    ));
#518 = CARTESIAN_POINT('',(-6.547523177811,172.84101662102,
    171.62206570572));
#519 = CARTESIAN_POINT('',(-6.661406259003,172.75483208181,
    171.68734595869));
#520 = CARTESIAN_POINT('',(-6.908451776157,172.56161648666,
    171.81612463147));
#521 = CARTESIAN_POINT('',(-7.041887710957,172.4534878394,
    171.87795237557));
#522 = CARTESIAN_POINT('',(-7.176382308603,172.34040298388,
    171.93271759646));
#523 = CARTESIAN_POINT('',(-7.311439556979,172.2224449566,
    171.98008580353));
#524 = CARTESIAN_POINT('',(-7.446612078789,172.09969146286,
    172.01958062735));
#525 = CARTESIAN_POINT('',(-7.581447926951,171.97226397131,
    172.05056695059));
#526 = CARTESIAN_POINT('',(-7.835171484363,171.72258382598,
    172.0915809669));
#527 = CARTESIAN_POINT('',(-7.954404013057,171.60105324318,
    172.10351894155));
#528 = CARTESIAN_POINT('',(-8.072454516371,171.47628444168,
    172.10736717104));
#529 = CARTESIAN_POINT('',(-8.188664453243,171.34883536595,
    172.10246173284));
#530 = CARTESIAN_POINT('',(-8.302409932522,171.2193571296,
    172.08814785093));
#531 = CARTESIAN_POINT('',(-8.413100126231,171.08861090146,
    172.06377855337));
#532 = CARTESIAN_POINT('',(-8.612385889523,170.84456454729,
    171.99851640528));
#533 = CARTESIAN_POINT('',(-8.701888968507,170.73139460432,
    171.96039530343));
#534 = CARTESIAN_POINT('',(-8.787955851968,170.61900227884,
    171.91407146337));
#535 = CARTESIAN_POINT('',(-8.869993048405,170.50842613516,
    171.85944453871));
#536 = CARTESIAN_POINT('',(-8.947532887172,170.40069976828,
    171.79659411727));
#537 = CARTESIAN_POINT('',(-9.020220755192,170.29682482102,
    171.72578191589));
#538 = CARTESIAN_POINT('',(-9.130349095882,170.13534260702,
    171.59813503008));
#539 = CARTESIAN_POINT('',(-9.170837861564,170.07489989857,
    171.54587738546));
#540 = CARTESIAN_POINT('',(-9.209206130941,170.01663484628,
    171.49080283662));
#541 = CARTESIAN_POINT('',(-9.245412047737,169.96076132602,
    171.43305896386));
#542 = CARTESIAN_POINT('',(-9.279428144156,169.90747665299,
    171.37282009089));
#543 = CARTESIAN_POINT('',(-9.311239521866,169.8569582907,171.3102872047
    ));
#544 = CARTESIAN_POINT('',(-9.373761679812,169.75642922302,
    171.17384981133));
#545 = CARTESIAN_POINT('',(-9.403946998554,169.7071140102,
    171.09946203661));
#546 = CARTESIAN_POINT('',(-9.431429505535,169.66156806514,
    171.02276077605));
#547 = CARTESIAN_POINT('',(-9.456244060898,169.61992461098,
    170.94399585342));
#548 = CARTESIAN_POINT('',(-9.478427612656,169.58229492716,
    170.86343036316));
#549 = CARTESIAN_POINT('',(-9.49801794075,169.54876632626,
    170.78134034188));
#550 = CARTESIAN_POINT('',(-9.534633007617,169.48564456091,170.602233789
    ));
#551 = CARTESIAN_POINT('',(-9.550842209639,169.45737911738,
    170.5047934202));
#552 = CARTESIAN_POINT('',(-9.563755064071,169.43466582727,
    170.40602780173));
#553 = CARTESIAN_POINT('',(-9.57342878901,169.41755052945,
    170.30627110758));
#554 = CARTESIAN_POINT('',(-9.579902595448,169.40606270502,
    170.20585727114));
#555 = CARTESIAN_POINT('',(-9.583197518963,169.40021530784,
    170.10512003881));
#556 = CARTESIAN_POINT('',(-9.583435469869,169.39979301953,
    169.90325372193));
#557 = CARTESIAN_POINT('',(-9.58035249183,169.40526428028,
    169.80208456057));
#558 = CARTESIAN_POINT('',(-9.574065660059,169.41642273131,
    169.70122266655));
#559 = CARTESIAN_POINT('',(-9.564554577601,169.43325593688,
    169.60100533448));
#560 = CARTESIAN_POINT('',(-9.551780271722,169.45573483332,
    169.50177008882));
#561 = CARTESIAN_POINT('',(-9.535685357854,169.48381389086,
    169.40385474619));
#562 = CARTESIAN_POINT('',(-9.499442747104,169.54632336404,
    169.22487023572));
#563 = CARTESIAN_POINT('',(-9.480178730207,169.57931304609,
    169.14334857481));
#564 = CARTESIAN_POINT('',(-9.458365675712,169.61634147654,
    169.06331299991));
#565 = CARTESIAN_POINT('',(-9.433966518682,169.65732491358,
    168.9850321129));
#566 = CARTESIAN_POINT('',(-9.406944788477,169.70215661636,
    168.90876230202));
#567 = CARTESIAN_POINT('',(-9.377265790856,169.75070874269,
    168.83474743123));
#568 = CARTESIAN_POINT('',(-9.314423252477,169.8519105129,168.6958739255
    ));
#569 = CARTESIAN_POINT('',(-9.281566279244,169.90415247767,
    168.63073549148));
#570 = CARTESIAN_POINT('',(-9.246330521453,169.95938942204,
    168.56805992181));
#571 = CARTESIAN_POINT('',(-9.208731976455,170.01742354841,
    168.5080730947));
#572 = CARTESIAN_POINT('',(-9.168801170136,170.0780339583,
    168.45096996607));
#573 = CARTESIAN_POINT('',(-9.126585339179,170.14098063033,
    168.39691446341));
#574 = CARTESIAN_POINT('',(-9.036946848714,170.27216161155,
    168.29428379256));
#575 = CARTESIAN_POINT('',(-8.989468926501,170.34043618343,
    168.24584496832));
#576 = CARTESIAN_POINT('',(-8.939798845154,170.41054726888,
    168.20086593352));
#577 = CARTESIAN_POINT('',(-8.888039900845,170.48219510657,
    168.15945001825));
#578 = CARTESIAN_POINT('',(-8.834318794332,170.5550691891,168.12166117)
  );
#579 = CARTESIAN_POINT('',(-8.778787737839,170.62885243348,
    168.08752426758));
#580 = CARTESIAN_POINT('',(-8.650229147067,170.79612116775,
    168.01893073612));
#581 = CARTESIAN_POINT('',(-8.576339162034,170.8898711271,
    167.98653884431));
#582 = CARTESIAN_POINT('',(-8.500183389188,170.98401816523,
    167.95973913397));
#583 = CARTESIAN_POINT('',(-8.422017596257,171.07812396108,
    167.93838321032));
#584 = CARTESIAN_POINT('',(-8.342127416498,171.17177063425,
    167.92228522032));
#585 = CARTESIAN_POINT('',(-8.260829228851,171.26456244237,
    167.91122216338));
#586 = CARTESIAN_POINT('',(-7.983912946067,171.57243527429,
    167.8900798963));
#587 = CARTESIAN_POINT('',(-7.783786859006,171.78150951931,
    167.90189984676));
#588 = CARTESIAN_POINT('',(-7.580239249156,171.98123831784,
    167.93661192157));
#589 = CARTESIAN_POINT('',(-7.37516017233,172.17055716936,
    167.99130114318));
#590 = CARTESIAN_POINT('',(-7.170255322609,172.34890767253,
    168.0637977696));
#591 = CARTESIAN_POINT('',(-6.967279075823,172.51590338105,
    168.15260136772));
#592 = CARTESIAN_POINT('',(-6.652267605532,172.76179650285,
    168.31779405051));
#593 = CARTESIAN_POINT('',(-6.537480313301,172.84847218707,
    168.38401940581));
#594 = CARTESIAN_POINT('',(-6.424309103885,172.93122135644,
    168.45549125047));
#595 = CARTESIAN_POINT('',(-6.313063822006,173.01005288594,
    168.53230269147));
#596 = CARTESIAN_POINT('',(-6.204279251736,173.08483476469,
    168.61461810552));
#597 = CARTESIAN_POINT('',(-6.09880150326,173.15527803404,
    168.70262709943));
#598 = CARTESIAN_POINT('',(-5.929770817367,173.26522632526,
    168.85984596386));
#599 = CARTESIAN_POINT('',(-5.863668823501,173.30738804846,
    168.92592677142));
#600 = CARTESIAN_POINT('',(-5.799871948339,173.34732073012,
    168.99488667915));
#601 = CARTESIAN_POINT('',(-5.738810286858,173.38486207248,
    169.06685997918));
#602 = CARTESIAN_POINT('',(-5.68104846601,173.41978839559,169.1419676925
    ));
#603 = CARTESIAN_POINT('',(-5.627288802865,173.45181686843,
    169.22031445962));
#604 = CARTESIAN_POINT('',(-5.524984095793,173.5120128104,
    169.39111905618));
#605 = CARTESIAN_POINT('',(-5.476781106321,173.53990354911,
    169.48518619788));
#606 = CARTESIAN_POINT('',(-5.435782970984,173.56325284471,
    169.58327790597));
#607 = CARTESIAN_POINT('',(-5.403623242461,173.58135310281,
    169.68455701577));
#608 = CARTESIAN_POINT('',(-5.381525101878,173.59371398864,
    169.78824947268));
#609 = CARTESIAN_POINT('',(-5.370288632839,173.6,169.89362968017));
#610 = CARTESIAN_POINT('',(-5.370288632839,173.6,170.));
#611 = PCURVE('',#239,#612);
#612 = DEFINITIONAL_REPRESENTATION('',(#613),#724);
#613 = B_SPLINE_CURVE_WITH_KNOTS('',7,(#614,#615,#616,#617,#618,#619,
    #620,#621,#622,#623,#624,#625,#626,#627,#628,#629,#630,#631,#632,
    #633,#634,#635,#636,#637,#638,#639,#640,#641,#642,#643,#644,#645,
    #646,#647,#648,#649,#650,#651,#652,#653,#654,#655,#656,#657,#658,
    #659,#660,#661,#662,#663,#664,#665,#666,#667,#668,#669,#670,#671,
    #672,#673,#674,#675,#676,#677,#678,#679,#680,#681,#682,#683,#684,
    #685,#686,#687,#688,#689,#690,#691,#692,#693,#694,#695,#696,#697,
    #698,#699,#700,#701,#702,#703,#704,#705,#706,#707,#708,#709,#710,
    #711,#712,#713,#714,#715,#716,#717,#718,#719,#720,#721,#722,#723),
  .UNSPECIFIED.,.T.,.F.,(8,6,6,6,6,6,6,6,6,6,6,6,6,6,6,6,6,6,8),(0.,
    4.997409477673E-02,9.791654490428E-02,0.165771502042,0.243331264639,
    0.312625183767,0.372300715694,0.409876518623,0.451662911568,
    0.499695129845,0.547923949149,0.589373673035,0.628398671142,
    0.668099081003,0.717687050269,0.834830719881,0.903329544404,
    0.94955302231,1.),.UNSPECIFIED.);
#614 = CARTESIAN_POINT('',(-2.080831630314,-15.5));
#615 = CARTESIAN_POINT('',(-2.080831630314,-15.60540992271));
#616 = CARTESIAN_POINT('',(-2.081981063124,-15.70986169324));
#617 = CARTESIAN_POINT('',(-2.084242451651,-15.81266880221));
#618 = CARTESIAN_POINT('',(-2.087539861797,-15.91311801092));
#619 = CARTESIAN_POINT('',(-2.091758023808,-16.01044929521));
#620 = CARTESIAN_POINT('',(-2.096740746978,-16.10384133112));
#621 = CARTESIAN_POINT('',(-2.107610965095,-16.27736335078));
#622 = CARTESIAN_POINT('',(-2.113507456122,-16.35874049104));
#623 = CARTESIAN_POINT('',(-2.119886264933,-16.43662790705));
#624 = CARTESIAN_POINT('',(-2.126671780119,-16.51114220063));
#625 = CARTESIAN_POINT('',(-2.133804266301,-16.58241893751));
#626 = CARTESIAN_POINT('',(-2.141239656578,-16.65060878268));
#627 = CARTESIAN_POINT('',(-2.159861529928,-16.80824525404));
#628 = CARTESIAN_POINT('',(-2.17133835441,-16.89488408948));
#629 = CARTESIAN_POINT('',(-2.183270484761,-16.975952444));
#630 = CARTESIAN_POINT('',(-2.195586107736,-17.05162883232));
#631 = CARTESIAN_POINT('',(-2.208243846739,-17.12206570572));
#632 = CARTESIAN_POINT('',(-2.221225707264,-17.18734595869));
#633 = CARTESIAN_POINT('',(-2.249737522091,-17.31612463147));
#634 = CARTESIAN_POINT('',(-2.265348529888,-17.37795237557));
#635 = CARTESIAN_POINT('',(-2.281318683886,-17.43271759646));
#636 = CARTESIAN_POINT('',(-2.297614884521,-17.48008580353));
#637 = CARTESIAN_POINT('',(-2.314209042415,-17.51958062735));
#638 = CARTESIAN_POINT('',(-2.331071245701,-17.55056695059));
#639 = CARTESIAN_POINT('',(-2.363432305169,-17.5915809669));
#640 = CARTESIAN_POINT('',(-2.378907459104,-17.60351894155));
#641 = CARTESIAN_POINT('',(-2.394518316031,-17.60736717104));
#642 = CARTESIAN_POINT('',(-2.410193155217,-17.60246173284));
#643 = CARTESIAN_POINT('',(-2.425856625684,-17.58814785093));
#644 = CARTESIAN_POINT('',(-2.441427752615,-17.56377855337));
#645 = CARTESIAN_POINT('',(-2.470071105071,-17.49851640528));
#646 = CARTESIAN_POINT('',(-2.483186347617,-17.46039530343));
#647 = CARTESIAN_POINT('',(-2.496053049589,-17.41407146337));
#648 = CARTESIAN_POINT('',(-2.508567420742,-17.35944453871));
#649 = CARTESIAN_POINT('',(-2.520632070767,-17.29659411727));
#650 = CARTESIAN_POINT('',(-2.532156821659,-17.22578191589));
#651 = CARTESIAN_POINT('',(-2.549925946348,-17.09813503008));
#652 = CARTESIAN_POINT('',(-2.556539413835,-17.04587738546));
#653 = CARTESIAN_POINT('',(-2.562881246941,-16.99080283662));
#654 = CARTESIAN_POINT('',(-2.568933582965,-16.93305896386));
#655 = CARTESIAN_POINT('',(-2.574680370271,-16.87282009089));
#656 = CARTESIAN_POINT('',(-2.580107543926,-16.8102872047));
#657 = CARTESIAN_POINT('',(-2.590869857145,-16.67384981133));
#658 = CARTESIAN_POINT('',(-2.596126080668,-16.59946203661));
#659 = CARTESIAN_POINT('',(-2.60096185914,-16.52276077605));
#660 = CARTESIAN_POINT('',(-2.605368685556,-16.44399585342));
#661 = CARTESIAN_POINT('',(-2.609339712171,-16.36343036316));
#662 = CARTESIAN_POINT('',(-2.612869904007,-16.28134034188));
#663 = CARTESIAN_POINT('',(-2.619503789212,-16.102233789));
#664 = CARTESIAN_POINT('',(-2.622465877263,-16.0047934202));
#665 = CARTESIAN_POINT('',(-2.624841062716,-15.90602780173));
#666 = CARTESIAN_POINT('',(-2.626628331004,-15.80627110758));
#667 = CARTESIAN_POINT('',(-2.627827097839,-15.70585727114));
#668 = CARTESIAN_POINT('',(-2.628437260275,-15.60512003881));
#669 = CARTESIAN_POINT('',(-2.62848132522,-15.40325372193));
#670 = CARTESIAN_POINT('',(-2.627910411971,-15.30208456057));
#671 = CARTESIAN_POINT('',(-2.626746075997,-15.20122266655));
#672 = CARTESIAN_POINT('',(-2.624988408115,-15.10100533448));
#673 = CARTESIAN_POINT('',(-2.62263797132,-15.00177008882));
#674 = CARTESIAN_POINT('',(-2.619695750145,-14.90385474619));
#675 = CARTESIAN_POINT('',(-2.613127003034,-14.72487023572));
#676 = CARTESIAN_POINT('',(-2.609654076862,-14.64334857481));
#677 = CARTESIAN_POINT('',(-2.605747238879,-14.56331299991));
#678 = CARTESIAN_POINT('',(-2.601411282556,-14.4850321129));
#679 = CARTESIAN_POINT('',(-2.596652732491,-14.40876230202));
#680 = CARTESIAN_POINT('',(-2.591479699452,-14.33474743123));
#681 = CARTESIAN_POINT('',(-2.580650071082,-14.1958739255));
#682 = CARTESIAN_POINT('',(-2.575039660775,-14.13073549148));
#683 = CARTESIAN_POINT('',(-2.569083635736,-14.06805992181));
#684 = CARTESIAN_POINT('',(-2.562797648016,-14.0080730947));
#685 = CARTESIAN_POINT('',(-2.55619965733,-13.95096996607));
#686 = CARTESIAN_POINT('',(-2.549309717901,-13.89691446341));
#687 = CARTESIAN_POINT('',(-2.534865894316,-13.79428379256));
#688 = CARTESIAN_POINT('',(-2.527306152732,-13.74584496832));
#689 = CARTESIAN_POINT('',(-2.519495508225,-13.70086593352));
#690 = CARTESIAN_POINT('',(-2.511460895982,-13.65945001825));
#691 = CARTESIAN_POINT('',(-2.503231073074,-13.62166117));
#692 = CARTESIAN_POINT('',(-2.494836472807,-13.58752426758));
#693 = CARTESIAN_POINT('',(-2.475657855943,-13.51893073612));
#694 = CARTESIAN_POINT('',(-2.464806999281,-13.48653884431));
#695 = CARTESIAN_POINT('',(-2.453800034002,-13.45973913397));
#696 = CARTESIAN_POINT('',(-2.442680401972,-13.43838321032));
#697 = CARTESIAN_POINT('',(-2.431491585287,-13.42228522032));
#698 = CARTESIAN_POINT('',(-2.42027724956,-13.41122216338));
#699 = CARTESIAN_POINT('',(-2.382632947773,-13.3900798963));
#700 = CARTESIAN_POINT('',(-2.356334927547,-13.40189984676));
#701 = CARTESIAN_POINT('',(-2.330430333318,-13.43661192157));
#702 = CARTESIAN_POINT('',(-2.305077388945,-13.49130114318));
#703 = CARTESIAN_POINT('',(-2.280397316939,-13.5637977696));
#704 = CARTESIAN_POINT('',(-2.256510280696,-13.65260136772));
#705 = CARTESIAN_POINT('',(-2.220181245594,-13.81779405051));
#706 = CARTESIAN_POINT('',(-2.207106924696,-13.88401940581));
#707 = CARTESIAN_POINT('',(-2.194364126744,-13.95549125047));
#708 = CARTESIAN_POINT('',(-2.181971488084,-14.03230269147));
#709 = CARTESIAN_POINT('',(-2.169972432934,-14.11461810552));
#710 = CARTESIAN_POINT('',(-2.15844257638,-14.20262709943));
#711 = CARTESIAN_POINT('',(-2.140111372004,-14.35984596386));
#712 = CARTESIAN_POINT('',(-2.132984078438,-14.42592677142));
#713 = CARTESIAN_POINT('',(-2.126142286673,-14.49488667915));
#714 = CARTESIAN_POINT('',(-2.119626355146,-14.56685997918));
#715 = CARTESIAN_POINT('',(-2.113490193781,-14.6419676925));
#716 = CARTESIAN_POINT('',(-2.10780142799,-14.72031445962));
#717 = CARTESIAN_POINT('',(-2.097010475045,-14.89111905618));
#718 = CARTESIAN_POINT('',(-2.091947851967,-14.98518619788));
#719 = CARTESIAN_POINT('',(-2.087658795332,-15.08327790597));
#720 = CARTESIAN_POINT('',(-2.084303970344,-15.18455701577));
#721 = CARTESIAN_POINT('',(-2.082002102446,-15.28824947268));
#722 = CARTESIAN_POINT('',(-2.080831630314,-15.39362968017));
#723 = CARTESIAN_POINT('',(-2.080831630314,-15.5));
#724 = ( GEOMETRIC_REPRESENTATION_CONTEXT(2) 
PARAMETRIC_REPRESENTATION_CONTEXT() REPRESENTATION_CONTEXT('2D SPACE',''
  ) );
#725 = PCURVE('',#726,#731);
#726 = CYLINDRICAL_SURFACE('',#727,2.1);
#727 = AXIS2_PLACEMENT_3D('',#728,#729,#730);
#728 = CARTESIAN_POINT('',(-14.,171.5,170.));
#729 = DIRECTION('',(-1.,-0.,-0.));
#730 = DIRECTION('',(0.,1.,0.));
#731 = DEFINITIONAL_REPRESENTATION('',(#732),#843);
#732 = B_SPLINE_CURVE_WITH_KNOTS('',7,(#733,#734,#735,#736,#737,#738,
    #739,#740,#741,#742,#743,#744,#745,#746,#747,#748,#749,#750,#751,
    #752,#753,#754,#755,#756,#757,#758,#759,#760,#761,#762,#763,#764,
    #765,#766,#767,#768,#769,#770,#771,#772,#773,#774,#775,#776,#777,
    #778,#779,#780,#781,#782,#783,#784,#785,#786,#787,#788,#789,#790,
    #791,#792,#793,#794,#795,#796,#797,#798,#799,#800,#801,#802,#803,
    #804,#805,#806,#807,#808,#809,#810,#811,#812,#813,#814,#815,#816,
    #817,#818,#819,#820,#821,#822,#823,#824,#825,#826,#827,#828,#829,
    #830,#831,#832,#833,#834,#835,#836,#837,#838,#839,#840,#841,#842),
  .UNSPECIFIED.,.F.,.F.,(8,6,6,6,6,6,6,6,6,6,6,6,6,6,6,6,6,6,8),(0.,
    4.997409477673E-02,9.791654490428E-02,0.165771502042,0.243331264639,
    0.312625183767,0.372300715694,0.409876518623,0.451662911568,
    0.499695129845,0.547923949149,0.589373673035,0.628398671142,
    0.668099081003,0.717687050269,0.834830719881,0.903329544404,
    0.94955302231,1.),.UNSPECIFIED.);
#733 = CARTESIAN_POINT('',(0.,-8.629711367161));
#734 = CARTESIAN_POINT('',(-5.019520129068E-02,-8.629711367161));
#735 = CARTESIAN_POINT('',(-9.993409427287E-02,-8.618676872501));
#736 = CARTESIAN_POINT('',(-0.149096606223,-8.59696734414));
#737 = CARTESIAN_POINT('',(-0.19753204378,-8.565357135177));
#738 = CARTESIAN_POINT('',(-0.245038742433,-8.525033481799));
#739 = CARTESIAN_POINT('',(-0.291332271396,-8.477584358644));
#740 = CARTESIAN_POINT('',(-0.378856107276,-8.374506768301));
#741 = CARTESIAN_POINT('',(-0.420650723319,-8.318777112161));
#742 = CARTESIAN_POINT('',(-0.461495216292,-8.258732076909));
#743 = CARTESIAN_POINT('',(-0.501492728635,-8.195156997122));
#744 = CARTESIAN_POINT('',(-0.540746832214,-8.128677697881));
#745 = CARTESIAN_POINT('',(-0.579368865326,-8.059764455305));
#746 = CARTESIAN_POINT('',(-0.671435128018,-7.888215908963));
#747 = CARTESIAN_POINT('',(-0.72444713525,-7.783324024286));
#748 = CARTESIAN_POINT('',(-0.776722483218,-7.675248353151));
#749 = CARTESIAN_POINT('',(-0.828472174735,-7.5647951749));
#750 = CARTESIAN_POINT('',(-0.879921129653,-7.452476822189));
#751 = CARTESIAN_POINT('',(-0.931311690234,-7.338593740997));
#752 = CARTESIAN_POINT('',(-1.041882475651,-7.091548223843));
#753 = CARTESIAN_POINT('',(-1.101056491596,-6.958112289043));
#754 = CARTESIAN_POINT('',(-1.160663913941,-6.823617691397));
#755 = CARTESIAN_POINT('',(-1.220929602267,-6.688560443021));
#756 = CARTESIAN_POINT('',(-1.282079671999,-6.553387921211));
#757 = CARTESIAN_POINT('',(-1.344348819874,-6.418552073049));
#758 = CARTESIAN_POINT('',(-1.464837549227,-6.164828515637));
#759 = CARTESIAN_POINT('',(-1.522865430216,-6.045595986943));
#760 = CARTESIAN_POINT('',(-1.582090465101,-5.927545483629));
#761 = CARTESIAN_POINT('',(-1.642555675053,-5.811335546757));
#762 = CARTESIAN_POINT('',(-1.704320746559,-5.697590067478));
#763 = CARTESIAN_POINT('',(-1.767465306815,-5.586899873769));
#764 = CARTESIAN_POINT('',(-1.887761399338,-5.387614110477));
#765 = CARTESIAN_POINT('',(-1.944512075888,-5.298111031493));
#766 = CARTESIAN_POINT('',(-2.002195925,-5.212044148032));
#767 = CARTESIAN_POINT('',(-2.060678444001,-5.130006951595));
#768 = CARTESIAN_POINT('',(-2.119837160386,-5.052467112828));
#769 = CARTESIAN_POINT('',(-2.179552664996,-4.979779244808));
#770 = CARTESIAN_POINT('',(-2.277571859858,-4.869650904118));
#771 = CARTESIAN_POINT('',(-2.315583210016,-4.829162138436));
#772 = CARTESIAN_POINT('',(-2.353701505913,-4.790793869059));
#773 = CARTESIAN_POINT('',(-2.391895058187,-4.754587952263));
#774 = CARTESIAN_POINT('',(-2.430130974202,-4.720571855844));
#775 = CARTESIAN_POINT('',(-2.468373727084,-4.688760478134));
#776 = CARTESIAN_POINT('',(-2.549075377674,-4.626238320188));
#777 = CARTESIAN_POINT('',(-2.591523091319,-4.596053001446));
#778 = CARTESIAN_POINT('',(-2.633918234755,-4.568570494465));
#779 = CARTESIAN_POINT('',(-2.676251670292,-4.543755939102));
#780 = CARTESIAN_POINT('',(-2.71851259513,-4.521572387344));
#781 = CARTESIAN_POINT('',(-2.760687383013,-4.50198205925));
#782 = CARTESIAN_POINT('',(-2.851117840809,-4.465366992383));
#783 = CARTESIAN_POINT('',(-2.899353698256,-4.449157790361));
#784 = CARTESIAN_POINT('',(-2.947490631325,-4.436244935929));
#785 = CARTESIAN_POINT('',(-2.99555185269,-4.42657121099));
#786 = CARTESIAN_POINT('',(-3.043559567416,-4.420097404552));
#787 = CARTESIAN_POINT('',(-3.091535385773,-4.416802481037));
#788 = CARTESIAN_POINT('',(-3.187662413664,-4.416564530131));
#789 = CARTESIAN_POINT('',(-3.235832636968,-4.41964750817));
#790 = CARTESIAN_POINT('',(-3.284033375034,-4.425934339941));
#791 = CARTESIAN_POINT('',(-3.332286734405,-4.435445422399));
#792 = CARTESIAN_POINT('',(-3.38061539622,-4.448219728278));
#793 = CARTESIAN_POINT('',(-3.429043053339,-4.464314642146));
#794 = CARTESIAN_POINT('',(-3.519322148464,-4.500557252896));
#795 = CARTESIAN_POINT('',(-3.561150793177,-4.519821269793));
#796 = CARTESIAN_POINT('',(-3.60306420975,-4.541634324288));
#797 = CARTESIAN_POINT('',(-3.645049610512,-4.566033481318));
#798 = CARTESIAN_POINT('',(-3.687096900066,-4.593055211523));
#799 = CARTESIAN_POINT('',(-3.729197583394,-4.622734209144));
#800 = CARTESIAN_POINT('',(-3.811024302701,-4.685576747523));
#801 = CARTESIAN_POINT('',(-3.850743678216,-4.718433720756));
#802 = CARTESIAN_POINT('',(-3.890457337576,-4.753669478547));
#803 = CARTESIAN_POINT('',(-3.930125614872,-4.791268023545));
#804 = CARTESIAN_POINT('',(-3.969711927103,-4.831198829864));
#805 = CARTESIAN_POINT('',(-4.00918106007,-4.873414660821));
#806 = CARTESIAN_POINT('',(-4.088494303446,-4.963053151286));
#807 = CARTESIAN_POINT('',(-4.128313520784,-5.010531073499));
#808 = CARTESIAN_POINT('',(-4.167910942055,-5.060201154846));
#809 = CARTESIAN_POINT('',(-4.207243983429,-5.111960099155));
#810 = CARTESIAN_POINT('',(-4.246270152292,-5.165681205668));
#811 = CARTESIAN_POINT('',(-4.284945558073,-5.221212262161));
#812 = CARTESIAN_POINT('',(-4.371034556504,-5.349770852933));
#813 = CARTESIAN_POINT('',(-4.418191707723,-5.423660837966));
#814 = CARTESIAN_POINT('',(-4.464691809786,-5.499816610812));
#815 = CARTESIAN_POINT('',(-4.51052533378,-5.577982403743));
#816 = CARTESIAN_POINT('',(-4.555675828284,-5.657872583502));
#817 = CARTESIAN_POINT('',(-4.600119458816,-5.739170771149));
#818 = CARTESIAN_POINT('',(-4.747070849185,-6.016087053933));
#819 = CARTESIAN_POINT('',(-4.846010602493,-6.216213140994));
#820 = CARTESIAN_POINT('',(-4.941560418375,-6.419760750844));
#821 = CARTESIAN_POINT('',(-5.034437385168,-6.62483982767));
#822 = CARTESIAN_POINT('',(-5.125338725506,-6.829744677391));
#823 = CARTESIAN_POINT('',(-5.214929279689,-7.032720924177));
#824 = CARTESIAN_POINT('',(-5.355991053355,-7.347732394468));
#825 = CARTESIAN_POINT('',(-5.407837758926,-7.462519686699));
#826 = CARTESIAN_POINT('',(-5.459755724393,-7.575690896115));
#827 = CARTESIAN_POINT('',(-5.511996042057,-7.686936177994));
#828 = CARTESIAN_POINT('',(-5.564791310959,-7.795720748264));
#829 = CARTESIAN_POINT('',(-5.618359494007,-7.90119849674));
#830 = CARTESIAN_POINT('',(-5.709716606552,-8.070229182633));
#831 = CARTESIAN_POINT('',(-5.747009563597,-8.136331176499));
#832 = CARTESIAN_POINT('',(-5.784899088601,-8.200128051661));
#833 = CARTESIAN_POINT('',(-5.823484677318,-8.261189713142));
#834 = CARTESIAN_POINT('',(-5.862859297661,-8.31895153399));
#835 = CARTESIAN_POINT('',(-5.903115541809,-8.372711197135));
#836 = CARTESIAN_POINT('',(-5.989354362289,-8.475015904207));
#837 = CARTESIAN_POINT('',(-6.036015882476,-8.523218893679));
#838 = CARTESIAN_POINT('',(-6.083915132527,-8.564217029016));
#839 = CARTESIAN_POINT('',(-6.1327619602,-8.596376757539));
#840 = CARTESIAN_POINT('',(-6.182351769253,-8.618474898122));
#841 = CARTESIAN_POINT('',(-6.232532773929,-8.629711367161));
#842 = CARTESIAN_POINT('',(-6.28318530718,-8.629711367161));
#843 = ( GEOMETRIC_REPRESENTATION_CONTEXT(2) 
PARAMETRIC_REPRESENTATION_CONTEXT() REPRESENTATION_CONTEXT('2D SPACE',''
  ) );
#844 = FACE_BOUND('',#845,.F.);
#845 = EDGE_LOOP('',(#846));
#846 = ORIENTED_EDGE('',*,*,#847,.T.);
#847 = EDGE_CURVE('',#848,#848,#850,.T.);
#848 = VERTEX_POINT('',#849);
#849 = CARTESIAN_POINT('',(5.370288632839,173.6,170.));
#850 = SURFACE_CURVE('',#851,(#962,#1076),.PCURVE_S1.);
#851 = B_SPLINE_CURVE_WITH_KNOTS('',7,(#852,#853,#854,#855,#856,#857,
    #858,#859,#860,#861,#862,#863,#864,#865,#866,#867,#868,#869,#870,
    #871,#872,#873,#874,#875,#876,#877,#878,#879,#880,#881,#882,#883,
    #884,#885,#886,#887,#888,#889,#890,#891,#892,#893,#894,#895,#896,
    #897,#898,#899,#900,#901,#902,#903,#904,#905,#906,#907,#908,#909,
    #910,#911,#912,#913,#914,#915,#916,#917,#918,#919,#920,#921,#922,
    #923,#924,#925,#926,#927,#928,#929,#930,#931,#932,#933,#934,#935,
    #936,#937,#938,#939,#940,#941,#942,#943,#944,#945,#946,#947,#948,
    #949,#950,#951,#952,#953,#954,#955,#956,#957,#958,#959,#960,#961),
  .UNSPECIFIED.,.T.,.F.,(8,6,6,6,6,6,6,6,6,6,6,6,6,6,6,6,6,6,8),(0.,
    4.997409477225E-02,9.791654489548E-02,0.165771502027,0.243331264617,
    0.312625183739,0.37230071566,0.409876518587,0.451662911527,
    0.4996951298,0.5479239491,0.589373672986,0.628398671097,
    0.668099080963,0.717687050235,0.834830719861,0.903329544392,
    0.949553022303,1.),.UNSPECIFIED.);
#852 = CARTESIAN_POINT('',(5.370288632839,173.6,170.));
#853 = CARTESIAN_POINT('',(5.370288632839,173.6,170.10540992271));
#854 = CARTESIAN_POINT('',(5.381323127499,173.59382698814,
    170.20986169324));
#855 = CARTESIAN_POINT('',(5.40303265586,173.58168344585,170.31266880221
    ));
#856 = CARTESIAN_POINT('',(5.434642864823,173.56389452892,
    170.41311801092));
#857 = CARTESIAN_POINT('',(5.474966518201,173.5409368559,170.51044929521
    ));
#858 = CARTESIAN_POINT('',(5.522415641356,173.51349829141,
    170.60384133112));
#859 = CARTESIAN_POINT('',(5.625493231698,173.45289656668,
    170.77736335078));
#860 = CARTESIAN_POINT('',(5.681222887839,173.41971016106,
    170.85874049104));
#861 = CARTESIAN_POINT('',(5.741267923091,173.38340084107,
    170.93662790705));
#862 = CARTESIAN_POINT('',(5.804843002878,173.3442847172,171.01114220063
    ));
#863 = CARTESIAN_POINT('',(5.871322302119,173.30260964259,
    171.08241893751));
#864 = CARTESIAN_POINT('',(5.940235544695,173.25855248356,
    171.15060878268));
#865 = CARTESIAN_POINT('',(6.111784091037,173.14661155959,
    171.30824525404));
#866 = CARTESIAN_POINT('',(6.216675975714,173.07634177298,
    171.39488408948));
#867 = CARTESIAN_POINT('',(6.324751646849,173.00182895765,171.475952444)
  );
#868 = CARTESIAN_POINT('',(6.4352048251,172.92334590714,171.55162883232)
  );
#869 = CARTESIAN_POINT('',(6.547523177811,172.84101662102,
    171.62206570572));
#870 = CARTESIAN_POINT('',(6.661406259003,172.75483208181,
    171.68734595869));
#871 = CARTESIAN_POINT('',(6.908451776157,172.56161648666,
    171.81612463147));
#872 = CARTESIAN_POINT('',(7.041887710957,172.4534878394,171.87795237557
    ));
#873 = CARTESIAN_POINT('',(7.176382308603,172.34040298388,
    171.93271759646));
#874 = CARTESIAN_POINT('',(7.311439556979,172.2224449566,171.98008580353
    ));
#875 = CARTESIAN_POINT('',(7.446612078789,172.09969146286,
    172.01958062735));
#876 = CARTESIAN_POINT('',(7.581447926951,171.97226397131,
    172.05056695059));
#877 = CARTESIAN_POINT('',(7.835171484363,171.72258382598,172.0915809669
    ));
#878 = CARTESIAN_POINT('',(7.954404013057,171.60105324318,
    172.10351894155));
#879 = CARTESIAN_POINT('',(8.072454516371,171.47628444168,
    172.10736717104));
#880 = CARTESIAN_POINT('',(8.188664453243,171.34883536595,
    172.10246173284));
#881 = CARTESIAN_POINT('',(8.302409932522,171.2193571296,172.08814785093
    ));
#882 = CARTESIAN_POINT('',(8.413100126231,171.08861090146,
    172.06377855337));
#883 = CARTESIAN_POINT('',(8.612385889523,170.84456454729,
    171.99851640528));
#884 = CARTESIAN_POINT('',(8.701888968507,170.73139460432,
    171.96039530343));
#885 = CARTESIAN_POINT('',(8.787955851968,170.61900227884,
    171.91407146337));
#886 = CARTESIAN_POINT('',(8.869993048405,170.50842613516,
    171.85944453871));
#887 = CARTESIAN_POINT('',(8.947532887172,170.40069976828,
    171.79659411727));
#888 = CARTESIAN_POINT('',(9.020220755192,170.29682482102,
    171.72578191589));
#889 = CARTESIAN_POINT('',(9.130349095882,170.13534260702,
    171.59813503008));
#890 = CARTESIAN_POINT('',(9.170837861564,170.07489989857,
    171.54587738546));
#891 = CARTESIAN_POINT('',(9.209206130941,170.01663484628,
    171.49080283662));
#892 = CARTESIAN_POINT('',(9.245412047737,169.96076132602,
    171.43305896386));
#893 = CARTESIAN_POINT('',(9.279428144156,169.90747665299,
    171.37282009089));
#894 = CARTESIAN_POINT('',(9.311239521866,169.8569582907,171.3102872047)
  );
#895 = CARTESIAN_POINT('',(9.373761679812,169.75642922302,
    171.17384981133));
#896 = CARTESIAN_POINT('',(9.403946998554,169.7071140102,171.09946203661
    ));
#897 = CARTESIAN_POINT('',(9.431429505535,169.66156806514,
    171.02276077605));
#898 = CARTESIAN_POINT('',(9.456244060898,169.61992461098,
    170.94399585342));
#899 = CARTESIAN_POINT('',(9.478427612656,169.58229492716,
    170.86343036316));
#900 = CARTESIAN_POINT('',(9.49801794075,169.54876632626,170.78134034188
    ));
#901 = CARTESIAN_POINT('',(9.534633007617,169.48564456091,170.602233789)
  );
#902 = CARTESIAN_POINT('',(9.550842209639,169.45737911738,170.5047934202
    ));
#903 = CARTESIAN_POINT('',(9.563755064071,169.43466582727,
    170.40602780173));
#904 = CARTESIAN_POINT('',(9.57342878901,169.41755052945,170.30627110758
    ));
#905 = CARTESIAN_POINT('',(9.579902595448,169.40606270502,
    170.20585727114));
#906 = CARTESIAN_POINT('',(9.583197518963,169.40021530784,
    170.10512003881));
#907 = CARTESIAN_POINT('',(9.583435469869,169.39979301953,
    169.90325372194));
#908 = CARTESIAN_POINT('',(9.58035249183,169.40526428028,169.80208456057
    ));
#909 = CARTESIAN_POINT('',(9.574065660059,169.41642273131,
    169.70122266655));
#910 = CARTESIAN_POINT('',(9.564554577601,169.43325593688,
    169.60100533448));
#911 = CARTESIAN_POINT('',(9.551780271722,169.45573483332,
    169.50177008882));
#912 = CARTESIAN_POINT('',(9.535685357854,169.48381389086,
    169.40385474619));
#913 = CARTESIAN_POINT('',(9.499442747102,169.54632336404,
    169.22487023571));
#914 = CARTESIAN_POINT('',(9.480178730207,169.5793130461,169.14334857481
    ));
#915 = CARTESIAN_POINT('',(9.458365675713,169.61634147654,
    169.06331299992));
#916 = CARTESIAN_POINT('',(9.433966518684,169.65732491357,
    168.98503211291));
#917 = CARTESIAN_POINT('',(9.406944788477,169.70215661636,
    168.90876230202));
#918 = CARTESIAN_POINT('',(9.377265790852,169.75070874269,
    168.83474743122));
#919 = CARTESIAN_POINT('',(9.314423252477,169.8519105129,168.6958739255)
  );
#920 = CARTESIAN_POINT('',(9.281566279244,169.90415247767,
    168.63073549148));
#921 = CARTESIAN_POINT('',(9.246330521453,169.95938942204,
    168.56805992181));
#922 = CARTESIAN_POINT('',(9.208731976455,170.01742354841,168.5080730947
    ));
#923 = CARTESIAN_POINT('',(9.168801170136,170.0780339583,168.45096996607
    ));
#924 = CARTESIAN_POINT('',(9.126585339179,170.14098063033,
    168.39691446341));
#925 = CARTESIAN_POINT('',(9.036946848714,170.27216161155,
    168.29428379256));
#926 = CARTESIAN_POINT('',(8.9894689265,170.34043618343,168.24584496832)
  );
#927 = CARTESIAN_POINT('',(8.939798845154,170.41054726888,
    168.20086593352));
#928 = CARTESIAN_POINT('',(8.888039900845,170.48219510657,
    168.15945001825));
#929 = CARTESIAN_POINT('',(8.834318794332,170.5550691891,168.12166117));
#930 = CARTESIAN_POINT('',(8.778787737839,170.62885243348,
    168.08752426758));
#931 = CARTESIAN_POINT('',(8.650229147067,170.79612116775,
    168.01893073612));
#932 = CARTESIAN_POINT('',(8.576339162034,170.8898711271,167.98653884431
    ));
#933 = CARTESIAN_POINT('',(8.500183389188,170.98401816523,
    167.95973913397));
#934 = CARTESIAN_POINT('',(8.422017596257,171.07812396108,
    167.93838321032));
#935 = CARTESIAN_POINT('',(8.342127416498,171.17177063425,
    167.92228522032));
#936 = CARTESIAN_POINT('',(8.260829228851,171.26456244237,
    167.91122216338));
#937 = CARTESIAN_POINT('',(7.983912946067,171.57243527429,167.8900798963
    ));
#938 = CARTESIAN_POINT('',(7.783786859006,171.78150951931,
    167.90189984676));
#939 = CARTESIAN_POINT('',(7.580239249155,171.98123831784,
    167.93661192157));
#940 = CARTESIAN_POINT('',(7.375160172331,172.17055716936,
    167.99130114318));
#941 = CARTESIAN_POINT('',(7.170255322609,172.34890767253,168.0637977696
    ));
#942 = CARTESIAN_POINT('',(6.967279075824,172.51590338105,
    168.15260136772));
#943 = CARTESIAN_POINT('',(6.652267605532,172.76179650285,
    168.31779405051));
#944 = CARTESIAN_POINT('',(6.537480313301,172.84847218707,
    168.38401940581));
#945 = CARTESIAN_POINT('',(6.424309103885,172.93122135644,
    168.45549125047));
#946 = CARTESIAN_POINT('',(6.313063822006,173.01005288594,
    168.53230269147));
#947 = CARTESIAN_POINT('',(6.204279251736,173.08483476469,
    168.61461810552));
#948 = CARTESIAN_POINT('',(6.09880150326,173.15527803404,168.70262709943
    ));
#949 = CARTESIAN_POINT('',(5.929770817367,173.26522632526,
    168.85984596386));
#950 = CARTESIAN_POINT('',(5.863668823501,173.30738804846,
    168.92592677142));
#951 = CARTESIAN_POINT('',(5.799871948339,173.34732073012,
    168.99488667915));
#952 = CARTESIAN_POINT('',(5.738810286858,173.38486207248,
    169.06685997918));
#953 = CARTESIAN_POINT('',(5.68104846601,173.41978839559,169.1419676925)
  );
#954 = CARTESIAN_POINT('',(5.627288802865,173.45181686843,
    169.22031445962));
#955 = CARTESIAN_POINT('',(5.524984095793,173.5120128104,169.39111905618
    ));
#956 = CARTESIAN_POINT('',(5.476781106321,173.53990354911,
    169.48518619788));
#957 = CARTESIAN_POINT('',(5.435782970984,173.56325284471,
    169.58327790597));
#958 = CARTESIAN_POINT('',(5.403623242461,173.58135310281,
    169.68455701577));
#959 = CARTESIAN_POINT('',(5.381525101878,173.59371398864,
    169.78824947268));
#960 = CARTESIAN_POINT('',(5.370288632839,173.6,169.89362968017));
#961 = CARTESIAN_POINT('',(5.370288632839,173.6,170.));
#962 = PCURVE('',#239,#963);
#963 = DEFINITIONAL_REPRESENTATION('',(#964),#1075);
#964 = B_SPLINE_CURVE_WITH_KNOTS('',7,(#965,#966,#967,#968,#969,#970,
    #971,#972,#973,#974,#975,#976,#977,#978,#979,#980,#981,#982,#983,
    #984,#985,#986,#987,#988,#989,#990,#991,#992,#993,#994,#995,#996,
    #997,#998,#999,#1000,#1001,#1002,#1003,#1004,#1005,#1006,#1007,#1008
    ,#1009,#1010,#1011,#1012,#1013,#1014,#1015,#1016,#1017,#1018,#1019,
    #1020,#1021,#1022,#1023,#1024,#1025,#1026,#1027,#1028,#1029,#1030,
    #1031,#1032,#1033,#1034,#1035,#1036,#1037,#1038,#1039,#1040,#1041,
    #1042,#1043,#1044,#1045,#1046,#1047,#1048,#1049,#1050,#1051,#1052,
    #1053,#1054,#1055,#1056,#1057,#1058,#1059,#1060,#1061,#1062,#1063,
    #1064,#1065,#1066,#1067,#1068,#1069,#1070,#1071,#1072,#1073,#1074),
  .UNSPECIFIED.,.T.,.F.,(8,6,6,6,6,6,6,6,6,6,6,6,6,6,6,6,6,6,8),(0.,
    4.997409477225E-02,9.791654489548E-02,0.165771502027,0.243331264617,
    0.312625183739,0.37230071566,0.409876518587,0.451662911527,
    0.4996951298,0.5479239491,0.589373672986,0.628398671097,
    0.668099080963,0.717687050235,0.834830719861,0.903329544392,
    0.949553022303,1.),.UNSPECIFIED.);
#965 = CARTESIAN_POINT('',(-1.060761023276,-15.5));
#966 = CARTESIAN_POINT('',(-1.060761023276,-15.60540992271));
#967 = CARTESIAN_POINT('',(-1.059611590466,-15.70986169324));
#968 = CARTESIAN_POINT('',(-1.057350201938,-15.81266880221));
#969 = CARTESIAN_POINT('',(-1.054052791793,-15.91311801092));
#970 = CARTESIAN_POINT('',(-1.049834629781,-16.01044929521));
#971 = CARTESIAN_POINT('',(-1.044851906611,-16.10384133112));
#972 = CARTESIAN_POINT('',(-1.033981688494,-16.27736335078));
#973 = CARTESIAN_POINT('',(-1.028085197468,-16.35874049104));
#974 = CARTESIAN_POINT('',(-1.021706388657,-16.43662790705));
#975 = CARTESIAN_POINT('',(-1.014920873471,-16.51114220063));
#976 = CARTESIAN_POINT('',(-1.007788387289,-16.58241893751));
#977 = CARTESIAN_POINT('',(-1.000352997012,-16.65060878268));
#978 = CARTESIAN_POINT('',(-0.981731123662,-16.80824525404));
#979 = CARTESIAN_POINT('',(-0.970254299179,-16.89488408948));
#980 = CARTESIAN_POINT('',(-0.958322168829,-16.975952444));
#981 = CARTESIAN_POINT('',(-0.946006545854,-17.05162883232));
#982 = CARTESIAN_POINT('',(-0.93334880685,-17.12206570572));
#983 = CARTESIAN_POINT('',(-0.920366946326,-17.18734595869));
#984 = CARTESIAN_POINT('',(-0.891855131498,-17.31612463147));
#985 = CARTESIAN_POINT('',(-0.876244123701,-17.37795237557));
#986 = CARTESIAN_POINT('',(-0.860273969704,-17.43271759646));
#987 = CARTESIAN_POINT('',(-0.843977769069,-17.48008580353));
#988 = CARTESIAN_POINT('',(-0.827383611175,-17.51958062735));
#989 = CARTESIAN_POINT('',(-0.810521407889,-17.55056695059));
#990 = CARTESIAN_POINT('',(-0.778160348421,-17.5915809669));
#991 = CARTESIAN_POINT('',(-0.762685194486,-17.60351894155));
#992 = CARTESIAN_POINT('',(-0.747074337559,-17.60736717104));
#993 = CARTESIAN_POINT('',(-0.731399498372,-17.60246173284));
#994 = CARTESIAN_POINT('',(-0.715736027906,-17.58814785093));
#995 = CARTESIAN_POINT('',(-0.700164900975,-17.56377855337));
#996 = CARTESIAN_POINT('',(-0.671521548519,-17.49851640528));
#997 = CARTESIAN_POINT('',(-0.658406305973,-17.46039530343));
#998 = CARTESIAN_POINT('',(-0.645539604001,-17.41407146337));
#999 = CARTESIAN_POINT('',(-0.633025232848,-17.35944453871));
#1000 = CARTESIAN_POINT('',(-0.620960582823,-17.29659411727));
#1001 = CARTESIAN_POINT('',(-0.609435831931,-17.22578191589));
#1002 = CARTESIAN_POINT('',(-0.591666707241,-17.09813503008));
#1003 = CARTESIAN_POINT('',(-0.585053239755,-17.04587738546));
#1004 = CARTESIAN_POINT('',(-0.578711406649,-16.99080283662));
#1005 = CARTESIAN_POINT('',(-0.572659070625,-16.93305896386));
#1006 = CARTESIAN_POINT('',(-0.566912283318,-16.87282009089));
#1007 = CARTESIAN_POINT('',(-0.561485109664,-16.8102872047));
#1008 = CARTESIAN_POINT('',(-0.550722796445,-16.67384981133));
#1009 = CARTESIAN_POINT('',(-0.545466572922,-16.59946203661));
#1010 = CARTESIAN_POINT('',(-0.54063079445,-16.52276077605));
#1011 = CARTESIAN_POINT('',(-0.536223968034,-16.44399585342));
#1012 = CARTESIAN_POINT('',(-0.532252941419,-16.36343036316));
#1013 = CARTESIAN_POINT('',(-0.528722749582,-16.28134034188));
#1014 = CARTESIAN_POINT('',(-0.522088864378,-16.102233789));
#1015 = CARTESIAN_POINT('',(-0.519126776327,-16.0047934202));
#1016 = CARTESIAN_POINT('',(-0.516751590873,-15.90602780173));
#1017 = CARTESIAN_POINT('',(-0.514964322586,-15.80627110758));
#1018 = CARTESIAN_POINT('',(-0.51376555575,-15.70585727114));
#1019 = CARTESIAN_POINT('',(-0.513155393315,-15.60512003881));
#1020 = CARTESIAN_POINT('',(-0.51311132837,-15.40325372194));
#1021 = CARTESIAN_POINT('',(-0.513682241619,-15.30208456057));
#1022 = CARTESIAN_POINT('',(-0.514846577593,-15.20122266655));
#1023 = CARTESIAN_POINT('',(-0.516604245475,-15.10100533448));
#1024 = CARTESIAN_POINT('',(-0.51895468227,-15.00177008882));
#1025 = CARTESIAN_POINT('',(-0.521896903445,-14.90385474619));
#1026 = CARTESIAN_POINT('',(-0.528465650556,-14.72487023571));
#1027 = CARTESIAN_POINT('',(-0.531938576728,-14.64334857481));
#1028 = CARTESIAN_POINT('',(-0.53584541471,-14.56331299992));
#1029 = CARTESIAN_POINT('',(-0.540181371033,-14.48503211291));
#1030 = CARTESIAN_POINT('',(-0.544939921098,-14.40876230202));
#1031 = CARTESIAN_POINT('',(-0.550112954139,-14.33474743122));
#1032 = CARTESIAN_POINT('',(-0.560942582508,-14.1958739255));
#1033 = CARTESIAN_POINT('',(-0.566552992814,-14.13073549148));
#1034 = CARTESIAN_POINT('',(-0.572509017854,-14.06805992181));
#1035 = CARTESIAN_POINT('',(-0.578795005573,-14.0080730947));
#1036 = CARTESIAN_POINT('',(-0.58539299626,-13.95096996607));
#1037 = CARTESIAN_POINT('',(-0.592282935689,-13.89691446341));
#1038 = CARTESIAN_POINT('',(-0.606726759273,-13.79428379256));
#1039 = CARTESIAN_POINT('',(-0.614286500857,-13.74584496832));
#1040 = CARTESIAN_POINT('',(-0.622097145365,-13.70086593352));
#1041 = CARTESIAN_POINT('',(-0.630131757608,-13.65945001825));
#1042 = CARTESIAN_POINT('',(-0.638361580516,-13.62166117));
#1043 = CARTESIAN_POINT('',(-0.646756180782,-13.58752426758));
#1044 = CARTESIAN_POINT('',(-0.665934797646,-13.51893073612));
#1045 = CARTESIAN_POINT('',(-0.676785654309,-13.48653884431));
#1046 = CARTESIAN_POINT('',(-0.687792619587,-13.45973913397));
#1047 = CARTESIAN_POINT('',(-0.698912251618,-13.43838321032));
#1048 = CARTESIAN_POINT('',(-0.710101068302,-13.42228522032));
#1049 = CARTESIAN_POINT('',(-0.721315404029,-13.41122216338));
#1050 = CARTESIAN_POINT('',(-0.758959705817,-13.3900798963));
#1051 = CARTESIAN_POINT('',(-0.785257726043,-13.40189984676));
#1052 = CARTESIAN_POINT('',(-0.811162320272,-13.43661192157));
#1053 = CARTESIAN_POINT('',(-0.836515264645,-13.49130114318));
#1054 = CARTESIAN_POINT('',(-0.861195336651,-13.5637977696));
#1055 = CARTESIAN_POINT('',(-0.885082372894,-13.65260136772));
#1056 = CARTESIAN_POINT('',(-0.921411407996,-13.81779405051));
#1057 = CARTESIAN_POINT('',(-0.934485728894,-13.88401940581));
#1058 = CARTESIAN_POINT('',(-0.947228526845,-13.95549125047));
#1059 = CARTESIAN_POINT('',(-0.959621165505,-14.03230269147));
#1060 = CARTESIAN_POINT('',(-0.971620220656,-14.11461810552));
#1061 = CARTESIAN_POINT('',(-0.98315007721,-14.20262709943));
#1062 = CARTESIAN_POINT('',(-1.001481281586,-14.35984596386));
#1063 = CARTESIAN_POINT('',(-1.008608575151,-14.42592677142));
#1064 = CARTESIAN_POINT('',(-1.015450366917,-14.49488667915));
#1065 = CARTESIAN_POINT('',(-1.021966298444,-14.56685997918));
#1066 = CARTESIAN_POINT('',(-1.028102459809,-14.6419676925));
#1067 = CARTESIAN_POINT('',(-1.0337912256,-14.72031445962));
#1068 = CARTESIAN_POINT('',(-1.044582178544,-14.89111905618));
#1069 = CARTESIAN_POINT('',(-1.049644801623,-14.98518619788));
#1070 = CARTESIAN_POINT('',(-1.053933858258,-15.08327790597));
#1071 = CARTESIAN_POINT('',(-1.057288683246,-15.18455701577));
#1072 = CARTESIAN_POINT('',(-1.059590551144,-15.28824947268));
#1073 = CARTESIAN_POINT('',(-1.060761023276,-15.39362968017));
#1074 = CARTESIAN_POINT('',(-1.060761023276,-15.5));
#1075 = ( GEOMETRIC_REPRESENTATION_CONTEXT(2) 
PARAMETRIC_REPRESENTATION_CONTEXT() REPRESENTATION_CONTEXT('2D SPACE',''
  ) );
#1076 = PCURVE('',#726,#1077);
#1077 = DEFINITIONAL_REPRESENTATION('',(#1078),#1189);
#1078 = B_SPLINE_CURVE_WITH_KNOTS('',7,(#1079,#1080,#1081,#1082,#1083,
    #1084,#1085,#1086,#1087,#1088,#1089,#1090,#1091,#1092,#1093,#1094,
    #1095,#1096,#1097,#1098,#1099,#1100,#1101,#1102,#1103,#1104,#1105,
    #1106,#1107,#1108,#1109,#1110,#1111,#1112,#1113,#1114,#1115,#1116,
    #1117,#1118,#1119,#1120,#1121,#1122,#1123,#1124,#1125,#1126,#1127,
    #1128,#1129,#1130,#1131,#1132,#1133,#1134,#1135,#1136,#1137,#1138,
    #1139,#1140,#1141,#1142,#1143,#1144,#1145,#1146,#1147,#1148,#1149,
    #1150,#1151,#1152,#1153,#1154,#1155,#1156,#1157,#1158,#1159,#1160,
    #1161,#1162,#1163,#1164,#1165,#1166,#1167,#1168,#1169,#1170,#1171,
    #1172,#1173,#1174,#1175,#1176,#1177,#1178,#1179,#1180,#1181,#1182,
    #1183,#1184,#1185,#1186,#1187,#1188),.UNSPECIFIED.,.F.,.F.,(8,6,6,6,
    6,6,6,6,6,6,6,6,6,6,6,6,6,6,8),(0.,4.997409477225E-02,
    9.791654489548E-02,0.165771502027,0.243331264617,0.312625183739,
    0.37230071566,0.409876518587,0.451662911527,0.4996951298,
    0.5479239491,0.589373672986,0.628398671097,0.668099080963,
    0.717687050235,0.834830719861,0.903329544392,0.949553022303,1.),
  .UNSPECIFIED.);
#1079 = CARTESIAN_POINT('',(0.,-19.37028863283));
#1080 = CARTESIAN_POINT('',(-5.019520129068E-02,-19.37028863283));
#1081 = CARTESIAN_POINT('',(-9.993409427287E-02,-19.38132312749));
#1082 = CARTESIAN_POINT('',(-0.149096606223,-19.40303265586));
#1083 = CARTESIAN_POINT('',(-0.19753204378,-19.43464286482));
#1084 = CARTESIAN_POINT('',(-0.245038742433,-19.4749665182));
#1085 = CARTESIAN_POINT('',(-0.291332271396,-19.52241564135));
#1086 = CARTESIAN_POINT('',(-0.378856107276,-19.62549323169));
#1087 = CARTESIAN_POINT('',(-0.42065072332,-19.68122288783));
#1088 = CARTESIAN_POINT('',(-0.461495216292,-19.74126792309));
#1089 = CARTESIAN_POINT('',(-0.501492728635,-19.80484300287));
#1090 = CARTESIAN_POINT('',(-0.540746832214,-19.87132230211));
#1091 = CARTESIAN_POINT('',(-0.579368865326,-19.94023554469));
#1092 = CARTESIAN_POINT('',(-0.671435128018,-20.11178409103));
#1093 = CARTESIAN_POINT('',(-0.72444713525,-20.21667597571));
#1094 = CARTESIAN_POINT('',(-0.776722483218,-20.32475164684));
#1095 = CARTESIAN_POINT('',(-0.828472174735,-20.4352048251));
#1096 = CARTESIAN_POINT('',(-0.879921129653,-20.54752317781));
#1097 = CARTESIAN_POINT('',(-0.931311690234,-20.661406259));
#1098 = CARTESIAN_POINT('',(-1.041882475651,-20.90845177615));
#1099 = CARTESIAN_POINT('',(-1.101056491596,-21.04188771095));
#1100 = CARTESIAN_POINT('',(-1.160663913941,-21.1763823086));
#1101 = CARTESIAN_POINT('',(-1.220929602267,-21.31143955697));
#1102 = CARTESIAN_POINT('',(-1.282079671999,-21.44661207878));
#1103 = CARTESIAN_POINT('',(-1.344348819874,-21.58144792695));
#1104 = CARTESIAN_POINT('',(-1.464837549227,-21.83517148436));
#1105 = CARTESIAN_POINT('',(-1.522865430216,-21.95440401305));
#1106 = CARTESIAN_POINT('',(-1.582090465101,-22.07245451637));
#1107 = CARTESIAN_POINT('',(-1.642555675053,-22.18866445324));
#1108 = CARTESIAN_POINT('',(-1.704320746559,-22.30240993252));
#1109 = CARTESIAN_POINT('',(-1.767465306815,-22.41310012623));
#1110 = CARTESIAN_POINT('',(-1.887761399338,-22.61238588952));
#1111 = CARTESIAN_POINT('',(-1.944512075888,-22.7018889685));
#1112 = CARTESIAN_POINT('',(-2.002195925,-22.78795585196));
#1113 = CARTESIAN_POINT('',(-2.060678444001,-22.8699930484));
#1114 = CARTESIAN_POINT('',(-2.119837160386,-22.94753288717));
#1115 = CARTESIAN_POINT('',(-2.179552664996,-23.02022075519));
#1116 = CARTESIAN_POINT('',(-2.277571859858,-23.13034909588));
#1117 = CARTESIAN_POINT('',(-2.315583210016,-23.17083786156));
#1118 = CARTESIAN_POINT('',(-2.353701505913,-23.20920613094));
#1119 = CARTESIAN_POINT('',(-2.391895058187,-23.24541204773));
#1120 = CARTESIAN_POINT('',(-2.430130974202,-23.27942814415));
#1121 = CARTESIAN_POINT('',(-2.468373727084,-23.31123952186));
#1122 = CARTESIAN_POINT('',(-2.549075377674,-23.37376167981));
#1123 = CARTESIAN_POINT('',(-2.591523091319,-23.40394699855));
#1124 = CARTESIAN_POINT('',(-2.633918234755,-23.43142950553));
#1125 = CARTESIAN_POINT('',(-2.676251670292,-23.45624406089));
#1126 = CARTESIAN_POINT('',(-2.71851259513,-23.47842761265));
#1127 = CARTESIAN_POINT('',(-2.760687383013,-23.49801794075));
#1128 = CARTESIAN_POINT('',(-2.851117840809,-23.53463300761));
#1129 = CARTESIAN_POINT('',(-2.899353698256,-23.55084220963));
#1130 = CARTESIAN_POINT('',(-2.947490631325,-23.56375506407));
#1131 = CARTESIAN_POINT('',(-2.99555185269,-23.57342878901));
#1132 = CARTESIAN_POINT('',(-3.043559567416,-23.57990259544));
#1133 = CARTESIAN_POINT('',(-3.091535385773,-23.58319751896));
#1134 = CARTESIAN_POINT('',(-3.187662413664,-23.58343546986));
#1135 = CARTESIAN_POINT('',(-3.235832636968,-23.58035249183));
#1136 = CARTESIAN_POINT('',(-3.284033375034,-23.57406566005));
#1137 = CARTESIAN_POINT('',(-3.332286734405,-23.5645545776));
#1138 = CARTESIAN_POINT('',(-3.38061539622,-23.55178027172));
#1139 = CARTESIAN_POINT('',(-3.429043053338,-23.53568535785));
#1140 = CARTESIAN_POINT('',(-3.519322148468,-23.4994427471));
#1141 = CARTESIAN_POINT('',(-3.561150793177,-23.4801787302));
#1142 = CARTESIAN_POINT('',(-3.603064209746,-23.45836567571));
#1143 = CARTESIAN_POINT('',(-3.645049610508,-23.43396651868));
#1144 = CARTESIAN_POINT('',(-3.687096900066,-23.40694478847));
#1145 = CARTESIAN_POINT('',(-3.729197583399,-23.37726579085));
#1146 = CARTESIAN_POINT('',(-3.811024302701,-23.31442325247));
#1147 = CARTESIAN_POINT('',(-3.850743678216,-23.28156627924));
#1148 = CARTESIAN_POINT('',(-3.890457337576,-23.24633052145));
#1149 = CARTESIAN_POINT('',(-3.930125614872,-23.20873197645));
#1150 = CARTESIAN_POINT('',(-3.969711927103,-23.16880117013));
#1151 = CARTESIAN_POINT('',(-4.00918106007,-23.12658533917));
#1152 = CARTESIAN_POINT('',(-4.088494303446,-23.03694684871));
#1153 = CARTESIAN_POINT('',(-4.128313520784,-22.9894689265));
#1154 = CARTESIAN_POINT('',(-4.167910942055,-22.93979884515));
#1155 = CARTESIAN_POINT('',(-4.207243983429,-22.88803990084));
#1156 = CARTESIAN_POINT('',(-4.246270152292,-22.83431879433));
#1157 = CARTESIAN_POINT('',(-4.284945558073,-22.77878773783));
#1158 = CARTESIAN_POINT('',(-4.371034556504,-22.65022914706));
#1159 = CARTESIAN_POINT('',(-4.418191707723,-22.57633916203));
#1160 = CARTESIAN_POINT('',(-4.464691809786,-22.50018338918));
#1161 = CARTESIAN_POINT('',(-4.51052533378,-22.42201759625));
#1162 = CARTESIAN_POINT('',(-4.555675828284,-22.34212741649));
#1163 = CARTESIAN_POINT('',(-4.600119458816,-22.26082922885));
#1164 = CARTESIAN_POINT('',(-4.747070849185,-21.98391294606));
#1165 = CARTESIAN_POINT('',(-4.846010602493,-21.783786859));
#1166 = CARTESIAN_POINT('',(-4.941560418377,-21.58023924915));
#1167 = CARTESIAN_POINT('',(-5.034437385167,-21.37516017233));
#1168 = CARTESIAN_POINT('',(-5.125338725506,-21.1702553226));
#1169 = CARTESIAN_POINT('',(-5.214929279689,-20.96727907582));
#1170 = CARTESIAN_POINT('',(-5.355991053355,-20.65226760553));
#1171 = CARTESIAN_POINT('',(-5.407837758926,-20.5374803133));
#1172 = CARTESIAN_POINT('',(-5.459755724393,-20.42430910388));
#1173 = CARTESIAN_POINT('',(-5.511996042057,-20.313063822));
#1174 = CARTESIAN_POINT('',(-5.564791310959,-20.20427925173));
#1175 = CARTESIAN_POINT('',(-5.618359494007,-20.09880150326));
#1176 = CARTESIAN_POINT('',(-5.709716606552,-19.92977081736));
#1177 = CARTESIAN_POINT('',(-5.747009563597,-19.8636688235));
#1178 = CARTESIAN_POINT('',(-5.784899088601,-19.79987194833));
#1179 = CARTESIAN_POINT('',(-5.823484677318,-19.73881028685));
#1180 = CARTESIAN_POINT('',(-5.862859297661,-19.68104846601));
#1181 = CARTESIAN_POINT('',(-5.903115541809,-19.62728880286));
#1182 = CARTESIAN_POINT('',(-5.989354362289,-19.52498409579));
#1183 = CARTESIAN_POINT('',(-6.036015882476,-19.47678110632));
#1184 = CARTESIAN_POINT('',(-6.083915132527,-19.43578297098));
#1185 = CARTESIAN_POINT('',(-6.1327619602,-19.40362324246));
#1186 = CARTESIAN_POINT('',(-6.182351769253,-19.38152510187));
#1187 = CARTESIAN_POINT('',(-6.232532773929,-19.37028863283));
#1188 = CARTESIAN_POINT('',(-6.28318530718,-19.37028863283));
#1189 = ( GEOMETRIC_REPRESENTATION_CONTEXT(2) 
PARAMETRIC_REPRESENTATION_CONTEXT() REPRESENTATION_CONTEXT('2D SPACE',''
  ) );
#1190 = ADVANCED_FACE('',(#1191,#1194),#293,.T.);
#1191 = FACE_BOUND('',#1192,.T.);
#1192 = EDGE_LOOP('',(#1193));
#1193 = ORIENTED_EDGE('',*,*,#471,.T.);
#1194 = FACE_BOUND('',#1195,.T.);
#1195 = EDGE_LOOP('',(#1196,#1197,#1198,#1199));
#1196 = ORIENTED_EDGE('',*,*,#278,.T.);
#1197 = ORIENTED_EDGE('',*,*,#424,.T.);
#1198 = ORIENTED_EDGE('',*,*,#377,.T.);
#1199 = ORIENTED_EDGE('',*,*,#330,.T.);
#1200 = ADVANCED_FACE('',(#1201),#726,.F.);
#1201 = FACE_BOUND('',#1202,.T.);
#1202 = EDGE_LOOP('',(#1203,#1204,#1225,#1226));
#1203 = ORIENTED_EDGE('',*,*,#496,.F.);
#1204 = ORIENTED_EDGE('',*,*,#1205,.T.);
#1205 = EDGE_CURVE('',#497,#848,#1206,.T.);
#1206 = SEAM_CURVE('',#1207,(#1211,#1218),.PCURVE_S1.);
#1207 = LINE('',#1208,#1209);
#1208 = CARTESIAN_POINT('',(-14.,173.6,170.));
#1209 = VECTOR('',#1210,1.);
#1210 = DIRECTION('',(1.,0.,0.));
#1211 = PCURVE('',#726,#1212);
#1212 = DEFINITIONAL_REPRESENTATION('',(#1213),#1217);
#1213 = LINE('',#1214,#1215);
#1214 = CARTESIAN_POINT('',(-6.28318530718,0.));
#1215 = VECTOR('',#1216,1.);
#1216 = DIRECTION('',(-0.,-1.));
#1217 = ( GEOMETRIC_REPRESENTATION_CONTEXT(2) 
PARAMETRIC_REPRESENTATION_CONTEXT() REPRESENTATION_CONTEXT('2D SPACE',''
  ) );
#1218 = PCURVE('',#726,#1219);
#1219 = DEFINITIONAL_REPRESENTATION('',(#1220),#1224);
#1220 = LINE('',#1221,#1222);
#1221 = CARTESIAN_POINT('',(-0.,0.));
#1222 = VECTOR('',#1223,1.);
#1223 = DIRECTION('',(-0.,-1.));
#1224 = ( GEOMETRIC_REPRESENTATION_CONTEXT(2) 
PARAMETRIC_REPRESENTATION_CONTEXT() REPRESENTATION_CONTEXT('2D SPACE',''
  ) );
#1225 = ORIENTED_EDGE('',*,*,#847,.T.);
#1226 = ORIENTED_EDGE('',*,*,#1205,.F.);
#1227 = ( GEOMETRIC_REPRESENTATION_CONTEXT(3) 
GLOBAL_UNCERTAINTY_ASSIGNED_CONTEXT((#1231)) 
GLOBAL_UNIT_ASSIGNED_CONTEXT((#1228,#1229,#1230)) REPRESENTATION_CONTEXT
('Context #1','3D Context with UNIT and UNCERTAINTY') );
#1228 = ( LENGTH_UNIT() NAMED_UNIT(*) SI_UNIT(.MILLI.,.METRE.) );
#1229 = ( NAMED_UNIT(*) PLANE_ANGLE_UNIT() SI_UNIT($,.RADIAN.) );
#1230 = ( NAMED_UNIT(*) SI_UNIT($,.STERADIAN.) SOLID_ANGLE_UNIT() );
#1231 = UNCERTAINTY_MEASURE_WITH_UNIT(LENGTH_MEASURE(1.E-07),#1228,
  'distance_accuracy_value','confusion accuracy');
#1232 = PRODUCT_RELATED_PRODUCT_CATEGORY('part',$,(#7));
ENDSEC;
END-ISO-10303-21;
