<svg xmlns="http://www.w3.org/2000/svg" viewBox="0 0 1560 1180" width="1560" height="1180"><rect width="1560" height="1180" fill="#ffffff"/><text x="40.0" y="44.0" text-anchor="start" font-size="17" fill="#111" font-family="Arial" font-weight="bold">İSTASYON 3 — TOPPING · DETAY v7 (HAFTALIK tedarik · 3 kaset tabanı × tek yükseklik 25 · soğutma EN ÜSTTE · çıkışlar tabla ekseninde)</text><text x="40.0" y="68.0" text-anchor="start" font-size="10.5" fill="#555" font-family="Arial">Üstten aşağı: TEKNİK BÖLME (soğutma 25 + elektrik 14 — erişim üstten) → KASET KATI 70×42 tam dolu (kaşar 35×42 · sucuk 35×21 · kavurma 17×21 · kuşbaşı 17×21) → çark + motor ×4, HER BİRİNİN KENDİ ÇIKIŞI → DÖNER+KAYAR TABLA → GEÇİŞ RAFI 2 kat (robot takas) · buzluk YOK</text><text x="281.0" y="86.0" text-anchor="middle" font-size="12.5" fill="#111" font-family="Arial" font-weight="bold">ÖN GÖRÜNÜŞ (robot tarafı)</text><rect x="120.0" y="130.0" width="322.0" height="828.0" rx="5" fill="none" stroke="#111" stroke-width="2.2"/><rect x="132.0" y="958.0" width="12.0" height="55.2" rx="0" fill="none" stroke="#111" stroke-width="1.4"/><rect x="418.0" y="958.0" width="12.0" height="55.2" rx="0" fill="none" stroke="#111" stroke-width="1.4"/><line x1="80.0" y1="1013.2" x2="482.0" y2="1013.2" stroke="#111" stroke-width="2"/><text x="281.0" y="147.5" text-anchor="middle" font-size="9.5" fill="#111" font-family="Arial" font-weight="bold">SOĞUTMA GRUBU (ÜSTTE) — 25 cm · 1/8 HP ~150 W · +3 °C tüm kabin · BUZLUK YOK</text><rect x="147.6" y="157.6" width="82.8" height="78.2" rx="3" fill="none" stroke="#111" stroke-width="1.4"/><circle cx="189.0" cy="196.7" r="25.3" fill="none" stroke="#111" stroke-width="1.2"/><text x="189.0" y="199.0" text-anchor="middle" font-size="8" fill="#111" font-family="Arial">kompresör</text><rect x="244.2" y="157.6" width="92.0" height="78.2" rx="3" fill="none" stroke="#111" stroke-width="1.4"/><text x="290.2" y="199.0" text-anchor="middle" font-size="8" fill="#111" font-family="Arial">kondenser</text><rect x="350.0" y="157.6" width="64.4" height="78.2" rx="3" fill="none" stroke="#111" stroke-width="1.4"/><circle cx="382.2" cy="196.7" r="20.7" fill="none" stroke="#111" stroke-width="1.1"/><line x1="382.2" y1="196.7" x2="399.1" y2="203.9" stroke="#111" stroke-width="1.1"/><line x1="382.2" y1="196.7" x2="375.0" y2="213.6" stroke="#111" stroke-width="1.1"/><line x1="382.2" y1="196.7" x2="365.3" y2="189.5" stroke="#111" stroke-width="1.1"/><line x1="382.2" y1="196.7" x2="389.4" y2="179.8" stroke="#111" stroke-width="1.1"/><text x="382.2" y="231.2" text-anchor="middle" font-size="8" fill="#111" font-family="Arial">fan</text><text x="281.0" y="247.3" text-anchor="middle" font-size="8.5" fill="#555" font-family="Arial">sıcak hava üstten atılır · servis üstten, kabin açılmadan (üstten motorlu dolap gibi)</text><line x1="126.9" y1="253.3" x2="435.1" y2="253.3" stroke="#111" stroke-width="1.2" stroke-dasharray="7,5"/><text x="281.0" y="265.7" text-anchor="middle" font-size="9.5" fill="#111" font-family="Arial" font-weight="bold">ELEKTRİK BÖLMESİ (ÜSTTE) — PLC I/O · 4 step sürücü · 24 V güç · tabla sürücüleri</text><rect x="143.0" y="273.5" width="69.0" height="34.5" rx="2" fill="none" stroke="#111" stroke-width="1.3"/><text x="177.5" y="293.8" text-anchor="middle" font-size="8.5" fill="#111" font-family="Arial">PLC I/O</text><rect x="225.8" y="273.5" width="25.3" height="34.5" rx="2" fill="none" stroke="#111" stroke-width="1.2"/><text x="238.2" y="293.8" text-anchor="middle" font-size="8" fill="#111" font-family="Arial">S1</text><rect x="258.0" y="273.5" width="25.3" height="34.5" rx="2" fill="none" stroke="#111" stroke-width="1.2"/><text x="270.4" y="293.8" text-anchor="middle" font-size="8" fill="#111" font-family="Arial">S2</text><rect x="290.2" y="273.5" width="25.3" height="34.5" rx="2" fill="none" stroke="#111" stroke-width="1.2"/><text x="302.6" y="293.8" text-anchor="middle" font-size="8" fill="#111" font-family="Arial">S3</text><rect x="322.4" y="273.5" width="25.3" height="34.5" rx="2" fill="none" stroke="#111" stroke-width="1.2"/><text x="334.8" y="293.8" text-anchor="middle" font-size="8" fill="#111" font-family="Arial">S4</text><rect x="363.8" y="273.5" width="55.2" height="34.5" rx="2" fill="none" stroke="#111" stroke-width="1.3"/><text x="391.4" y="293.8" text-anchor="middle" font-size="8.5" fill="#111" font-family="Arial">24V PSU</text><line x1="126.9" y1="316.3" x2="435.1" y2="316.3" stroke="#111" stroke-width="1.6"/><text x="281.0" y="325.5" text-anchor="middle" font-size="8.5" fill="#888" font-family="Arial">— izoleli tavan: soğuk bölge başlar —</text><rect x="283.3" y="327.8" width="75.9" height="115.0" rx="3" fill="none" stroke="#888" stroke-width="1.6" stroke-dasharray="5,4"/><rect x="350.0" y="360.0" width="7.4" height="36.8" rx="2" fill="none" stroke="#888" stroke-width="1.2" stroke-dasharray="5,4"/><text x="321.2" y="323.8" text-anchor="middle" font-size="7.8" fill="#888" font-family="Arial" font-weight="bold">KAVURMA arka</text><rect x="361.5" y="327.8" width="75.9" height="115.0" rx="3" fill="none" stroke="#888" stroke-width="1.6" stroke-dasharray="5,4"/><rect x="428.2" y="360.0" width="7.4" height="36.8" rx="2" fill="none" stroke="#888" stroke-width="1.2" stroke-dasharray="5,4"/><text x="399.4" y="323.8" text-anchor="middle" font-size="7.8" fill="#888" font-family="Arial" font-weight="bold">KUŞBAŞI arka</text><rect x="124.6" y="332.4" width="154.1" height="115.0" rx="3" fill="none" stroke="#111" stroke-width="1.6"/><rect x="269.5" y="364.6" width="7.4" height="36.8" rx="2" fill="none" stroke="#111" stroke-width="1.2"/><text x="201.6" y="391.9" text-anchor="middle" font-size="9.5" fill="#111" font-family="Arial" font-weight="bold">KAŞAR A · 35×42×25</text><text x="201.6" y="405.9" text-anchor="middle" font-size="8.2" fill="#111" font-family="Arial">15 kg = 2,3 gün · 37 L</text><rect x="283.3" y="332.4" width="154.1" height="115.0" rx="3" fill="none" stroke="#111" stroke-width="1.6"/><rect x="428.2" y="364.6" width="7.4" height="36.8" rx="2" fill="none" stroke="#111" stroke-width="1.2"/><text x="360.4" y="391.9" text-anchor="middle" font-size="9.5" fill="#111" font-family="Arial" font-weight="bold">SUCUK · 35×21×25 (ön)</text><text x="360.4" y="405.9" text-anchor="middle" font-size="8.2" fill="#111" font-family="Arial">10 kg = HAFTALIK · 18 L</text><line x1="126.9" y1="448.3" x2="237.3" y2="470.4" stroke="#111" stroke-width="1.4"/><line x1="276.4" y1="448.3" x2="278.7" y2="470.4" stroke="#111" stroke-width="1.4"/><line x1="285.6" y1="448.3" x2="308.6" y2="470.4" stroke="#111" stroke-width="1.4"/><line x1="435.1" y1="448.3" x2="350.0" y2="470.4" stroke="#111" stroke-width="1.4"/><circle cx="258.0" cy="495.7" r="25.3" fill="none" stroke="#111" stroke-width="1.8"/><line x1="258.0" y1="495.7" x2="283.3" y2="495.7" stroke="#111" stroke-width="1.1"/><line x1="258.0" y1="495.7" x2="270.6" y2="517.6" stroke="#111" stroke-width="1.1"/><line x1="258.0" y1="495.7" x2="245.3" y2="517.6" stroke="#111" stroke-width="1.1"/><line x1="258.0" y1="495.7" x2="232.7" y2="495.7" stroke="#111" stroke-width="1.1"/><line x1="258.0" y1="495.7" x2="245.3" y2="473.8" stroke="#111" stroke-width="1.1"/><line x1="258.0" y1="495.7" x2="270.6" y2="473.8" stroke="#111" stroke-width="1.1"/><rect x="182.1" y="486.5" width="23.0" height="18.4" rx="2" fill="none" stroke="#111" stroke-width="1.4"/><text x="193.6" y="500.7" text-anchor="middle" font-size="10" fill="#111" font-family="Arial" font-weight="bold">M</text><line x1="232.7" y1="495.7" x2="228.1" y2="495.7" stroke="#111" stroke-width="2"/><line x1="249.7" y1="523.3" x2="249.7" y2="550.9" stroke="#111" stroke-width="1.5"/><line x1="266.3" y1="523.3" x2="266.3" y2="550.9" stroke="#111" stroke-width="1.5"/><rect x="256.2" y="527.9" width="3.7" height="3.7" rx="1" fill="none" stroke="#8a6a3a" stroke-width="0.8"/><rect x="256.2" y="538.5" width="3.7" height="3.7" rx="1" fill="none" stroke="#8a6a3a" stroke-width="0.8"/><rect x="256.2" y="548.6" width="3.7" height="3.7" rx="1" fill="none" stroke="#8a6a3a" stroke-width="0.8"/><circle cx="329.3" cy="495.7" r="18.4" fill="none" stroke="#111" stroke-width="1.8"/><line x1="329.3" y1="495.7" x2="347.7" y2="495.7" stroke="#111" stroke-width="1.1"/><line x1="329.3" y1="495.7" x2="338.5" y2="511.6" stroke="#111" stroke-width="1.1"/><line x1="329.3" y1="495.7" x2="320.1" y2="511.6" stroke="#111" stroke-width="1.1"/><line x1="329.3" y1="495.7" x2="310.9" y2="495.7" stroke="#111" stroke-width="1.1"/><line x1="329.3" y1="495.7" x2="320.1" y2="479.8" stroke="#111" stroke-width="1.1"/><line x1="329.3" y1="495.7" x2="338.5" y2="479.8" stroke="#111" stroke-width="1.1"/><rect x="375.3" y="486.5" width="23.0" height="18.4" rx="2" fill="none" stroke="#111" stroke-width="1.4"/><text x="386.8" y="500.7" text-anchor="middle" font-size="10" fill="#111" font-family="Arial" font-weight="bold">M</text><line x1="347.7" y1="495.7" x2="352.3" y2="495.7" stroke="#111" stroke-width="2"/><line x1="321.0" y1="523.3" x2="321.0" y2="550.9" stroke="#111" stroke-width="1.5"/><line x1="337.6" y1="523.3" x2="337.6" y2="550.9" stroke="#111" stroke-width="1.5"/><rect x="327.5" y="527.9" width="3.7" height="3.7" rx="1" fill="none" stroke="#8a6a3a" stroke-width="0.8"/><rect x="327.5" y="538.5" width="3.7" height="3.7" rx="1" fill="none" stroke="#8a6a3a" stroke-width="0.8"/><rect x="327.5" y="548.6" width="3.7" height="3.7" rx="1" fill="none" stroke="#8a6a3a" stroke-width="0.8"/><circle cx="299.4" cy="486.5" r="16.1" fill="none" stroke="#999" stroke-width="1.1" stroke-dasharray="5,4"/><line x1="293.0" y1="502.6" x2="293.0" y2="537.1" stroke="#999" stroke-width="1" stroke-dasharray="4,3"/><line x1="305.8" y1="502.6" x2="305.8" y2="537.1" stroke="#999" stroke-width="1" stroke-dasharray="4,3"/><circle cx="366.1" cy="486.5" r="16.1" fill="none" stroke="#999" stroke-width="1.1" stroke-dasharray="5,4"/><line x1="359.7" y1="502.6" x2="359.7" y2="537.1" stroke="#999" stroke-width="1" stroke-dasharray="4,3"/><line x1="372.5" y1="502.6" x2="372.5" y2="537.1" stroke="#999" stroke-width="1" stroke-dasharray="4,3"/><text x="175.2" y="527.9" text-anchor="middle" font-size="8.5" fill="#b3452b" font-family="Arial" font-weight="bold">kaşar çarkı BÜYÜK</text><text x="175.2" y="535.7" text-anchor="middle" font-size="8" fill="#b3452b" font-family="Arial">(80 g/porsiyon)</text><text x="281.0" y="564.7" text-anchor="middle" font-size="10" fill="#b3452b" font-family="Arial">4 AYRI ÇIKIŞ, hepsi TABLA EKSENİNDE (x 30·39·45,5·53,5) — ortak boru YOK</text><ellipse cx="281.0" cy="590.0" rx="64.4" ry="6.0" fill="none" stroke="#111" stroke-width="1.1"/><text x="350.0" y="592.3" text-anchor="start" font-size="8.5" fill="#111" font-family="Arial">pide Ø28</text><ellipse cx="281.0" cy="602.9" rx="82.8" ry="9.2" fill="none" stroke="#111" stroke-width="1.8"/><text x="370.7" y="604.7" text-anchor="start" font-size="9" fill="#111" font-family="Arial" font-weight="bold">TABLA Ø36</text><rect x="147.6" y="617.6" width="266.8" height="13.8" rx="2" fill="none" stroke="#111" stroke-width="1.4"/><rect x="248.8" y="613.9" width="64.4" height="10.1" rx="2" fill="none" stroke="#111" stroke-width="1.3"/><line x1="317.8" y1="624.5" x2="396.0" y2="624.5" stroke="#1a49b8" stroke-width="1.6"/><line x1="396.0" y1="624.5" x2="403.7" y2="619.9" stroke="#1a49b8" stroke-width="1.6"/><line x1="396.0" y1="624.5" x2="403.7" y2="629.1" stroke="#1a49b8" stroke-width="1.6"/><line x1="244.2" y1="624.5" x2="166.0" y2="624.5" stroke="#1a49b8" stroke-width="1.6"/><line x1="166.0" y1="624.5" x2="158.3" y2="629.1" stroke="#1a49b8" stroke-width="1.6"/><line x1="166.0" y1="624.5" x2="158.3" y2="619.9" stroke="#1a49b8" stroke-width="1.6"/><rect x="207.4" y="638.3" width="147.2" height="27.6" rx="3" fill="none" stroke="#111" stroke-width="1.5"/><text x="281.0" y="650.7" text-anchor="middle" font-size="9.5" fill="#111" font-family="Arial" font-weight="bold">TABLA MOTORLARI</text><text x="281.0" y="659.9" text-anchor="middle" font-size="8.5" fill="#111" font-family="Arial">M dönme + M kayma (merkez 18 → 52 cm)</text><line x1="126.9" y1="679.7" x2="435.1" y2="679.7" stroke="#111" stroke-width="1.2" stroke-dasharray="7,5"/><text x="281.0" y="688.9" text-anchor="middle" font-size="9.5" fill="#1a49b8" font-family="Arial" font-weight="bold">GEÇİŞ RAFI (robot takas) — kat A</text><rect x="124.6" y="695.8" width="154.1" height="115.0" rx="3" fill="none" stroke="#111" stroke-width="1.6"/><rect x="269.5" y="728.0" width="7.4" height="36.8" rx="2" fill="none" stroke="#111" stroke-width="1.2"/><text x="201.6" y="755.3" text-anchor="middle" font-size="9" fill="#111" font-family="Arial" font-weight="bold">KAŞAR B</text><text x="201.6" y="769.3" text-anchor="middle" font-size="8.2" fill="#111" font-family="Arial">dolu, +3 — sıradaki</text><rect x="283.3" y="695.8" width="154.1" height="115.0" rx="3" fill="none" stroke="#111" stroke-width="1.6"/><rect x="428.2" y="728.0" width="7.4" height="36.8" rx="2" fill="none" stroke="#111" stroke-width="1.2"/><text x="360.4" y="755.3" text-anchor="middle" font-size="9" fill="#111" font-family="Arial" font-weight="bold">KAŞAR C</text><text x="360.4" y="769.3" text-anchor="middle" font-size="8.2" fill="#111" font-family="Arial">dolu, +3</text><text x="200.5" y="823.2" text-anchor="middle" font-size="9.5" fill="#1a49b8" font-family="Arial" font-weight="bold">kat B</text><rect x="283.3" y="823.2" width="75.9" height="115.0" rx="3" fill="none" stroke="#1a49b8" stroke-width="1.6" stroke-dasharray="5,4"/><rect x="350.0" y="855.4" width="7.4" height="36.8" rx="2" fill="none" stroke="#1a49b8" stroke-width="1.2" stroke-dasharray="5,4"/><text x="321.2" y="819.2" text-anchor="middle" font-size="7.8" fill="#1a49b8" font-family="Arial" font-weight="bold">ÇÖZÜLME 1 arka</text><rect x="361.5" y="823.2" width="75.9" height="115.0" rx="3" fill="none" stroke="#1a49b8" stroke-width="1.6" stroke-dasharray="5,4"/><rect x="428.2" y="855.4" width="7.4" height="36.8" rx="2" fill="none" stroke="#1a49b8" stroke-width="1.2" stroke-dasharray="5,4"/><text x="399.4" y="819.2" text-anchor="middle" font-size="7.8" fill="#1a49b8" font-family="Arial" font-weight="bold">ÇÖZÜLME 2 arka</text><rect x="124.6" y="829.2" width="154.1" height="115.0" rx="3" fill="none" stroke="#111" stroke-width="1.6"/><rect x="269.5" y="861.4" width="7.4" height="36.8" rx="2" fill="none" stroke="#111" stroke-width="1.2"/><text x="201.6" y="888.7" text-anchor="middle" font-size="9" fill="#111" font-family="Arial" font-weight="bold">KAŞAR D</text><text x="201.6" y="902.7" text-anchor="middle" font-size="8.2" fill="#111" font-family="Arial">dolu, +3</text><rect x="283.3" y="829.2" width="154.1" height="115.0" rx="3" fill="none" stroke="#111" stroke-width="1.6"/><rect x="428.2" y="861.4" width="7.4" height="36.8" rx="2" fill="none" stroke="#111" stroke-width="1.2"/><text x="360.4" y="888.7" text-anchor="middle" font-size="9" fill="#111" font-family="Arial" font-weight="bold">SUCUK yedek (ön)</text><text x="360.4" y="902.7" text-anchor="middle" font-size="8.2" fill="#111" font-family="Arial">eleman gününde dolu takılır</text><text x="281.0" y="954.8" text-anchor="middle" font-size="8.5" fill="#333" font-family="Arial">kat A: 2 büyük · kat B: 1 büyük + 1 orta + 2 küçük (çözülme) · biten BOŞ kaset de buraya iner</text><line x1="120.0" y1="1043.2" x2="442.0" y2="1043.2" stroke="#b3452b" stroke-width="1"/><line x1="120.0" y1="1038.2" x2="120.0" y2="1048.2" stroke="#b3452b" stroke-width="1"/><line x1="442.0" y1="1038.2" x2="442.0" y2="1048.2" stroke="#b3452b" stroke-width="1"/><text x="281.0" y="1037.2" text-anchor="middle" font-size="11" fill="#b3452b" font-family="Arial" font-weight="bold">70</text><line x1="86.0" y1="130.0" x2="86.0" y2="958.0" stroke="#b3452b" stroke-width="1"/><line x1="81.0" y1="130.0" x2="91.0" y2="130.0" stroke="#b3452b" stroke-width="1"/><line x1="81.0" y1="958.0" x2="91.0" y2="958.0" stroke="#b3452b" stroke-width="1"/><text x="77.0" y="544.0" text-anchor="middle" font-size="10.5" font-weight="bold" fill="#b3452b" font-family="Arial" transform="rotate(-90 77.0 544.0)">180</text><line x1="86.0" y1="958.0" x2="86.0" y2="1013.2" stroke="#b3452b" stroke-width="1"/><line x1="81.0" y1="958.0" x2="91.0" y2="958.0" stroke="#b3452b" stroke-width="1"/><line x1="81.0" y1="1013.2" x2="91.0" y2="1013.2" stroke="#b3452b" stroke-width="1"/><text x="77.0" y="985.6" text-anchor="middle" font-size="10.5" font-weight="bold" fill="#b3452b" font-family="Arial" transform="rotate(-90 77.0 985.6)">12</text><line x1="50.0" y1="130.0" x2="50.0" y2="1013.2" stroke="#b3452b" stroke-width="1"/><line x1="45.0" y1="130.0" x2="55.0" y2="130.0" stroke="#b3452b" stroke-width="1"/><line x1="45.0" y1="1013.2" x2="55.0" y2="1013.2" stroke="#b3452b" stroke-width="1"/><text x="41.0" y="571.6" text-anchor="middle" font-size="10.5" font-weight="bold" fill="#b3452b" font-family="Arial" transform="rotate(-90 41.0 571.6)">192</text><line x1="464.0" y1="134.6" x2="464.0" y2="251.9" stroke="#b3452b" stroke-width="1"/><line x1="459.0" y1="134.6" x2="469.0" y2="134.6" stroke="#b3452b" stroke-width="1"/><line x1="459.0" y1="251.9" x2="469.0" y2="251.9" stroke="#b3452b" stroke-width="1"/><text x="473.0" y="193.2" text-anchor="middle" font-size="10.5" font-weight="bold" fill="#b3452b" font-family="Arial" transform="rotate(-90 473.0 193.2)">soğutma 25</text><line x1="464.0" y1="254.2" x2="464.0" y2="316.3" stroke="#b3452b" stroke-width="1"/><line x1="459.0" y1="254.2" x2="469.0" y2="254.2" stroke="#b3452b" stroke-width="1"/><line x1="459.0" y1="316.3" x2="469.0" y2="316.3" stroke="#b3452b" stroke-width="1"/><text x="473.0" y="285.2" text-anchor="middle" font-size="10.5" font-weight="bold" fill="#b3452b" font-family="Arial" transform="rotate(-90 473.0 285.2)">elektrik 14</text><line x1="464.0" y1="332.4" x2="464.0" y2="447.4" stroke="#b3452b" stroke-width="1"/><line x1="459.0" y1="332.4" x2="469.0" y2="332.4" stroke="#b3452b" stroke-width="1"/><line x1="459.0" y1="447.4" x2="469.0" y2="447.4" stroke="#b3452b" stroke-width="1"/><text x="473.0" y="389.9" text-anchor="middle" font-size="10.5" font-weight="bold" fill="#b3452b" font-family="Arial" transform="rotate(-90 473.0 389.9)">kaset 25</text><line x1="464.0" y1="449.7" x2="464.0" y2="553.2" stroke="#b3452b" stroke-width="1"/><line x1="459.0" y1="449.7" x2="469.0" y2="449.7" stroke="#b3452b" stroke-width="1"/><line x1="459.0" y1="553.2" x2="469.0" y2="553.2" stroke="#b3452b" stroke-width="1"/><text x="473.0" y="501.5" text-anchor="middle" font-size="10.5" font-weight="bold" fill="#b3452b" font-family="Arial" transform="rotate(-90 473.0 501.5)">çark+çıkış 22</text><line x1="464.0" y1="585.4" x2="464.0" y2="668.2" stroke="#b3452b" stroke-width="1"/><line x1="459.0" y1="585.4" x2="469.0" y2="585.4" stroke="#b3452b" stroke-width="1"/><line x1="459.0" y1="668.2" x2="469.0" y2="668.2" stroke="#b3452b" stroke-width="1"/><text x="473.0" y="626.8" text-anchor="middle" font-size="10.5" font-weight="bold" fill="#b3452b" font-family="Arial" transform="rotate(-90 473.0 626.8)">tabla+motor 18</text><line x1="464.0" y1="679.7" x2="464.0" y2="960.3" stroke="#b3452b" stroke-width="1"/><line x1="459.0" y1="679.7" x2="469.0" y2="679.7" stroke="#b3452b" stroke-width="1"/><line x1="459.0" y1="960.3" x2="469.0" y2="960.3" stroke="#b3452b" stroke-width="1"/><text x="473.0" y="820.0" text-anchor="middle" font-size="10.5" font-weight="bold" fill="#b3452b" font-family="Arial" transform="rotate(-90 473.0 820.0)">geçiş rafı 61</text><text x="935.0" y="114.0" text-anchor="middle" font-size="12.5" fill="#111" font-family="Arial" font-weight="bold">ÜST GÖRÜNÜM (kaset katı) — 70 × 42 · TAM DOLU · çıkışlar tabla ekseninde</text><rect x="760.0" y="150.0" width="350.0" height="210.0" rx="4" fill="none" stroke="#111" stroke-width="2.2"/><rect x="763.0" y="153.0" width="169.0" height="204.0" rx="3" fill="none" stroke="#111" stroke-width="1.6"/><rect x="921.0" y="240.0" width="10.0" height="30.0" rx="2" fill="none" stroke="#111" stroke-width="1.2"/><text x="841.5" y="253.0" text-anchor="middle" font-size="9.5" fill="#111" font-family="Arial" font-weight="bold">KAŞAR</text><text x="841.5" y="267.0" text-anchor="middle" font-size="8.2" fill="#111" font-family="Arial">35 × 42</text><rect x="938.0" y="153.0" width="79.0" height="99.0" rx="3" fill="none" stroke="#111" stroke-width="1.6"/><rect x="1006.0" y="187.5" width="10.0" height="30.0" rx="2" fill="none" stroke="#111" stroke-width="1.2"/><text x="971.5" y="200.5" text-anchor="middle" font-size="9.5" fill="#111" font-family="Arial" font-weight="bold">KAVURMA</text><text x="971.5" y="214.5" text-anchor="middle" font-size="8.2" fill="#111" font-family="Arial">17 × 21</text><rect x="1023.0" y="153.0" width="79.0" height="99.0" rx="3" fill="none" stroke="#111" stroke-width="1.6"/><rect x="1091.0" y="187.5" width="10.0" height="30.0" rx="2" fill="none" stroke="#111" stroke-width="1.2"/><text x="1056.5" y="200.5" text-anchor="middle" font-size="9.5" fill="#111" font-family="Arial" font-weight="bold">KUŞBAŞI</text><text x="1056.5" y="214.5" text-anchor="middle" font-size="8.2" fill="#111" font-family="Arial">17 × 21</text><rect x="938.0" y="258.0" width="169.0" height="99.0" rx="3" fill="none" stroke="#111" stroke-width="1.6"/><rect x="1096.0" y="292.5" width="10.0" height="30.0" rx="2" fill="none" stroke="#111" stroke-width="1.2"/><text x="1016.5" y="305.5" text-anchor="middle" font-size="9.5" fill="#111" font-family="Arial" font-weight="bold">SUCUK</text><text x="1016.5" y="319.5" text-anchor="middle" font-size="8.2" fill="#111" font-family="Arial">35 × 21</text><line x1="770.0" y1="255.0" x2="1100.0" y2="255.0" stroke="#1a49b8" stroke-width="1.3" stroke-dasharray="6,4"/><circle cx="850.0" cy="255.0" r="90.0" fill="none" stroke="#1a49b8" stroke-width="1.1" stroke-dasharray="3,3"/><circle cx="1020.0" cy="255.0" r="90.0" fill="none" stroke="#1a49b8" stroke-width="1.1" stroke-dasharray="3,3"/><line x1="860.0" y1="347.5" x2="1010.0" y2="347.5" stroke="#1a49b8" stroke-width="1.4"/><line x1="1010.0" y1="347.5" x2="1017.7" y2="342.9" stroke="#1a49b8" stroke-width="1.4"/><line x1="1010.0" y1="347.5" x2="1017.7" y2="352.1" stroke="#1a49b8" stroke-width="1.4"/><line x1="1010.0" y1="347.5" x2="860.0" y2="347.5" stroke="#1a49b8" stroke-width="1.4"/><line x1="860.0" y1="347.5" x2="852.3" y2="352.1" stroke="#1a49b8" stroke-width="1.4"/><line x1="860.0" y1="347.5" x2="852.3" y2="342.9" stroke="#1a49b8" stroke-width="1.4"/><text x="935.0" y="342.5" text-anchor="middle" font-size="8" fill="#1a49b8" font-family="Arial">tabla merkezi 18 → 52</text><circle cx="910.0" cy="255.0" r="9.0" fill="none" stroke="#b3452b" stroke-width="1.4" stroke-dasharray="3,2"/><circle cx="910.0" cy="255.0" r="2.2" fill="#b3452b" stroke="#b3452b" stroke-width="1"/><circle cx="955.0" cy="242.5" r="9.0" fill="none" stroke="#b3452b" stroke-width="1.4" stroke-dasharray="3,2"/><circle cx="955.0" cy="242.5" r="2.2" fill="#b3452b" stroke="#b3452b" stroke-width="1"/><circle cx="987.5" cy="270.0" r="9.0" fill="none" stroke="#b3452b" stroke-width="1.4" stroke-dasharray="3,2"/><circle cx="987.5" cy="270.0" r="2.2" fill="#b3452b" stroke="#b3452b" stroke-width="1"/><circle cx="1027.5" cy="242.5" r="9.0" fill="none" stroke="#b3452b" stroke-width="1.4" stroke-dasharray="3,2"/><circle cx="1027.5" cy="242.5" r="2.2" fill="#b3452b" stroke="#b3452b" stroke-width="1"/><text x="935.0" y="377.5" text-anchor="middle" font-size="9.5" fill="#1a49b8" font-family="Arial">kırmızı: 4 ÇIKIŞ, tabla eksenine ±3 cm (rotor kasetin ALTINDA, koni içeri çeker) · mavi: tabla Ø36 travel</text><text x="935.0" y="389.0" text-anchor="middle" font-size="9.5" fill="#b3452b" font-family="Arial">tabla çıkışın altına kayar + döner → çıkış pide üstünde MERKEZDEN KENARA spiral çizer (r 0-3 → 14 cm)</text><line x1="760.0" y1="136.0" x2="935.0" y2="136.0" stroke="#b3452b" stroke-width="1"/><line x1="760.0" y1="131.0" x2="760.0" y2="141.0" stroke="#b3452b" stroke-width="1"/><line x1="935.0" y1="131.0" x2="935.0" y2="141.0" stroke="#b3452b" stroke-width="1"/><text x="847.5" y="130.0" text-anchor="middle" font-size="11" fill="#b3452b" font-family="Arial" font-weight="bold">35</text><line x1="935.0" y1="136.0" x2="1020.0" y2="136.0" stroke="#b3452b" stroke-width="1"/><line x1="935.0" y1="131.0" x2="935.0" y2="141.0" stroke="#b3452b" stroke-width="1"/><line x1="1020.0" y1="131.0" x2="1020.0" y2="141.0" stroke="#b3452b" stroke-width="1"/><text x="977.5" y="130.0" text-anchor="middle" font-size="11" fill="#b3452b" font-family="Arial" font-weight="bold">17</text><line x1="1020.0" y1="136.0" x2="1110.0" y2="136.0" stroke="#b3452b" stroke-width="1"/><line x1="1020.0" y1="131.0" x2="1020.0" y2="141.0" stroke="#b3452b" stroke-width="1"/><line x1="1110.0" y1="131.0" x2="1110.0" y2="141.0" stroke="#b3452b" stroke-width="1"/><text x="1065.0" y="130.0" text-anchor="middle" font-size="11" fill="#b3452b" font-family="Arial" font-weight="bold">18</text><line x1="744.0" y1="150.0" x2="744.0" y2="255.0" stroke="#b3452b" stroke-width="1"/><line x1="739.0" y1="150.0" x2="749.0" y2="150.0" stroke="#b3452b" stroke-width="1"/><line x1="739.0" y1="255.0" x2="749.0" y2="255.0" stroke="#b3452b" stroke-width="1"/><text x="735.0" y="202.5" text-anchor="middle" font-size="10.5" font-weight="bold" fill="#b3452b" font-family="Arial" transform="rotate(-90 735.0 202.5)">21</text><line x1="744.0" y1="255.0" x2="744.0" y2="360.0" stroke="#b3452b" stroke-width="1"/><line x1="739.0" y1="255.0" x2="749.0" y2="255.0" stroke="#b3452b" stroke-width="1"/><line x1="739.0" y1="360.0" x2="749.0" y2="360.0" stroke="#b3452b" stroke-width="1"/><text x="735.0" y="307.5" text-anchor="middle" font-size="10.5" font-weight="bold" fill="#b3452b" font-family="Arial" transform="rotate(-90 735.0 307.5)">21</text><text x="760.0" y="456.0" text-anchor="start" font-size="12.5" fill="#111" font-family="Arial" font-weight="bold">KASET AİLESİ — 3 taban × tek yükseklik 25 cm (ölçekli)</text><rect x="760.0" y="474.0" width="126.0" height="151.2" rx="3" fill="none" stroke="#111" stroke-width="1.5"/><rect x="878.0" y="539.6" width="6.0" height="20.0" rx="2" fill="none" stroke="#111" stroke-width="1.1"/><text x="760.0" y="641.2" text-anchor="start" font-size="9.5" fill="#111" font-family="Arial" font-weight="bold">BÜYÜK 35×42×25 · 37 L</text><text x="760.0" y="655.2" text-anchor="start" font-size="8.8" fill="#333" font-family="Arial">kaşar 15 kg = 2,3 gün</text><text x="760.0" y="669.2" text-anchor="start" font-size="8.8" fill="#1d7a4f" font-family="Arial">4 kaset (1 çalışan + 3 dolu)</text><rect x="905.0" y="474.0" width="126.0" height="75.6" rx="3" fill="none" stroke="#111" stroke-width="1.5"/><rect x="1023.0" y="501.8" width="6.0" height="20.0" rx="2" fill="none" stroke="#111" stroke-width="1.1"/><text x="905.0" y="641.2" text-anchor="start" font-size="9.5" fill="#111" font-family="Arial" font-weight="bold">ORTA 35×21×25 · 18 L</text><text x="905.0" y="655.2" text-anchor="start" font-size="8.8" fill="#333" font-family="Arial">sucuk 10 kg = HAFTALIK</text><text x="905.0" y="669.2" text-anchor="start" font-size="8.8" fill="#1d7a4f" font-family="Arial">2 kaset (1 çalışan+1 yedek)</text><rect x="1045.0" y="474.0" width="61.2" height="75.6" rx="3" fill="none" stroke="#111" stroke-width="1.5"/><rect x="1098.2" y="501.8" width="6.0" height="20.0" rx="2" fill="none" stroke="#111" stroke-width="1.1"/><text x="1045.0" y="641.2" text-anchor="start" font-size="9.5" fill="#111" font-family="Arial" font-weight="bold">KÜÇÜK 17×21×25 · 9 L</text><text x="1045.0" y="655.2" text-anchor="start" font-size="8.8" fill="#333" font-family="Arial">kavurma/kuşbaşı 3,5 kg</text><text x="1045.0" y="669.2" text-anchor="start" font-size="8.8" fill="#1d7a4f" font-family="Arial">= 2,3 gün · 4+4 kaset</text><text x="1045.0" y="683.2" text-anchor="start" font-size="8.8" fill="#1d7a4f" font-family="Arial">(1 taze+2 donmuş+1 boş)</text><text x="760.0" y="709.2" text-anchor="start" font-size="10" fill="#333" font-family="Arial">Toplam 14 kaset · haftalık dolum: kaşar 3 × 15 · sucuk 1 × 10 ·</text><text x="760.0" y="724.2" text-anchor="start" font-size="10" fill="#333" font-family="Arial">kavurma 3 × 3,5 · kuşbaşı 3 × 3,5 kg</text><text x="760.0" y="743.2" text-anchor="start" font-size="10" fill="#333" font-family="Arial" font-weight="bold">kural 1: kaset sayısı = haftalık parça + 1 (o an çalışan)</text><text x="760.0" y="758.2" text-anchor="start" font-size="10" fill="#333" font-family="Arial" font-weight="bold">kural 2: kaset boyu = +3'te güvenli gün × günlük tüketim</text><text x="1192.0" y="150.0" text-anchor="start" font-size="12.5" fill="#111" font-family="Arial" font-weight="bold">HAFTALIK DÖNGÜ (eleman haftada 1 gelir):</text><text x="1192.0" y="172.0" text-anchor="start" font-size="10.2" fill="#1d7a4f" font-family="Arial">GÜN 0 — eleman: boşları toplar, yıkar,</text><text x="1192.0" y="189.5" text-anchor="start" font-size="10.2" fill="#1d7a4f" font-family="Arial" font-weight="bold">  poşetten kasete doldurur (poşette stok YOK):</text><text x="1192.0" y="207.0" text-anchor="start" font-size="10.2" fill="#1d7a4f" font-family="Arial">  kaşar 3 dolu → geçiş rafı (üste robot takar);</text><text x="1192.0" y="224.5" text-anchor="start" font-size="10.2" fill="#1d7a4f" font-family="Arial">  sucuk yedek → geçiş rafı; kavurma+kuşbaşı</text><text x="1192.0" y="242.0" text-anchor="start" font-size="10.2" fill="#1d7a4f" font-family="Arial">  1 taze → geçiş rafı, 2'şer donmuş → STORE −18</text><text x="1192.0" y="259.5" text-anchor="start" font-size="10.2" fill="#1d7a4f" font-family="Arial">  Eleman ÜST KATA hiç uzanmaz — robot taşır.</text><text x="1192.0" y="277.0" text-anchor="start" font-size="10.2" fill="#1a49b8" font-family="Arial">ROBOT — kaset "boş" sensörü → üstteki boşu</text><text x="1192.0" y="294.5" text-anchor="start" font-size="10.2" fill="#1a49b8" font-family="Arial">  çıkarır, geçiş rafındaki doluyu takar, boşu</text><text x="1192.0" y="312.0" text-anchor="start" font-size="10.2" fill="#1a49b8" font-family="Arial">  boş yuvaya koyar. Saat önemsiz (1 saatte de).</text><text x="1192.0" y="329.5" text-anchor="start" font-size="10.2" fill="#1a49b8" font-family="Arial">  Donmuş kaseti bitişten 1 gün önce STORE'dan</text><text x="1192.0" y="347.0" text-anchor="start" font-size="10.2" fill="#1a49b8" font-family="Arial">  ÇÖZÜLME yuvasına indirir (+3, 24 saat).</text><text x="1192.0" y="364.5" text-anchor="start" font-size="10.2" fill="#b3452b" font-family="Arial" font-weight="bold">SAAT KURALI — her kasetin takılma saati BEYİN'de:</text><text x="1192.0" y="382.0" text-anchor="start" font-size="10.2" fill="#b3452b" font-family="Arial">  kaşar 14 g · sucuk 7 g · kavurma/kuşbaşı 3,5 g</text><text x="1192.0" y="399.5" text-anchor="start" font-size="10.2" fill="#b3452b" font-family="Arial">  Süre dolan kaset dolu olsa da çıkar (≤1 kg fire).</text><text x="1192.0" y="417.0" text-anchor="start" font-size="10.2" fill="#b3452b" font-family="Arial">  Donmuş kasetin saati DURUR → haftaya devreder.</text><text x="1192.0" y="434.5" text-anchor="start" font-size="10.2" fill="#333" font-family="Arial" font-weight="bold">UYGULAMA MESAJI — BEYİN tüketimi ölçer:</text><text x="1192.0" y="452.0" text-anchor="start" font-size="10.2" fill="#666" font-family="Arial">  "bu hafta kaşar 42 · sucuk 9 · kavurma 12 · kuşbaşı 8 kg"</text><text x="1192.0" y="469.5" text-anchor="start" font-size="10.2" fill="#666" font-family="Arial">  Stok biterse kiosk o çeşidi kapatır (hamur gibi).</text><text x="1192.0" y="504.5" text-anchor="start" font-size="10.2" fill="#333" font-family="Arial" font-weight="bold">NASIL ÇALIŞIR (pide başına ~20-30 sn):</text><text x="1192.0" y="522.0" text-anchor="start" font-size="10.2" fill="#333" font-family="Arial">1. Kol basılmış tabanı TABLAYA koyar</text><text x="1192.0" y="539.5" text-anchor="start" font-size="10.2" fill="#333" font-family="Arial">2. BEYİN reçete: kaşar 4 cep; karışık +3+3 cep</text><text x="1192.0" y="557.0" text-anchor="start" font-size="10.2" fill="#333" font-family="Arial" font-weight="bold">3. Tabla ilgili ÇIKIŞIN altına kayar + döner:</text><text x="1192.0" y="574.5" text-anchor="start" font-size="10.2" fill="#666" font-family="Arial">   merkezden kenara spiral, orta da dış da dolar</text><text x="1192.0" y="592.0" text-anchor="start" font-size="10.2" fill="#333" font-family="Arial">4. Kol pideyi fırına götürür</text><text x="1192.0" y="627.0" text-anchor="start" font-size="10.2" fill="#333" font-family="Arial" font-weight="bold">KARARLAR (v7):</text><text x="1192.0" y="644.5" text-anchor="start" font-size="10.2" fill="#b3452b" font-family="Arial">· SOĞUTMA + ELEKTRİK EN ÜSTTE (Kemal): servis</text><text x="1192.0" y="662.0" text-anchor="start" font-size="10.2" fill="#b3452b" font-family="Arial">  üstten, kaset katı 40 cm aşağı iner → robot ve</text><text x="1192.0" y="679.5" text-anchor="start" font-size="10.2" fill="#b3452b" font-family="Arial">  eleman erişimi kolay; sıcak hava yukarı atılır</text><text x="1192.0" y="697.0" text-anchor="start" font-size="10.2" fill="#333" font-family="Arial">· 4 çıkış tabla ekseninde ±3 cm: rotor kasetin</text><text x="1192.0" y="714.5" text-anchor="start" font-size="10.2" fill="#666" font-family="Arial">  altında, koni malzemeyi eksene çeker (boru yok)</text><text x="1192.0" y="732.0" text-anchor="start" font-size="10.2" fill="#333" font-family="Arial">· Kaset boyu = raf ömrü × tüketim → 3 taban,</text><text x="1192.0" y="749.5" text-anchor="start" font-size="10.2" fill="#666" font-family="Arial">  tek yükseklik 25; üst kat 70×42 SIFIR boşluk</text><text x="1192.0" y="767.0" text-anchor="start" font-size="10.2" fill="#333" font-family="Arial">· Kaşar 3 parça × 15 kg: hafif + topaklanma ↓</text><text x="1192.0" y="784.5" text-anchor="start" font-size="10.2" fill="#333" font-family="Arial">· Sucuk tek haftalık kaset (7 gün dayanır)</text><text x="1192.0" y="802.0" text-anchor="start" font-size="10.2" fill="#333" font-family="Arial">· Kavurma/kuşbaşı 2,3 günlük: 1 gün çözülme +</text><text x="1192.0" y="819.5" text-anchor="start" font-size="10.2" fill="#666" font-family="Arial">  2,3 gün çalışma = 3,3 gün ≤ raf ömrü</text><text x="1192.0" y="837.0" text-anchor="start" font-size="10.2" fill="#b3452b" font-family="Arial">· TOPPING'e buzluk YOK — STORE'un −18'i kullanılır</text><text x="1192.0" y="854.5" text-anchor="start" font-size="10.2" fill="#333" font-family="Arial">· Alt bölme "yedek deposu" değil GEÇİŞ RAFI</text><text x="1192.0" y="872.0" text-anchor="start" font-size="10.2" fill="#333" font-family="Arial">· Kaset kulpu = robot tutamağı; kobot ≥12 kg</text><text x="1192.0" y="889.5" text-anchor="start" font-size="10.2" fill="#666" font-family="Arial">  (UR16e / CRX-20 sınıfı) — robot turunda</text><text x="1192.0" y="907.0" text-anchor="start" font-size="10.2" fill="#666" font-family="Arial">· Kabin derinliği 42 iç → ~55 dış (v6: 84)</text><text x="1536.0" y="1166.0" text-anchor="end" font-size="10" fill="#999" font-family="Arial">AUTOKITCH · ist3_topping_detay_v7</text></svg>