<svg xmlns="http://www.w3.org/2000/svg" width="1797" height="970" viewBox="0 0 1797 970">
<rect x="0.0" y="0.0" width="1797.0" height="970.0" rx="0" fill="#fff" stroke="none" stroke-width="0"/>
<text x="60.0" y="40.0" font-size="13" text-anchor="start" font-weight="bold" fill="#111" font-family="Segoe UI, Arial, sans-serif">AUTOKITCH — HAT DIŞ GÖRÜNÜŞ v1 (6 Eyl 2026) — robot koridorundan bakış · kapalı paneller · BEYAZ = robot kolunun girdiği açıklık (klape açık) · TURUNCU = eleman kapısı · GRİ = sabit panel · MAVİ = cam fırın kapağı (motorlu)</text>
<text x="60.0" y="60.0" font-size="9" text-anchor="start" font-weight="normal" fill="#444" font-family="Segoe UI, Arial, sans-serif">Ölçüler cm, zeminden. Kabinler 140/70 × 197 × 84. Klapeler yalnız robot geldiğinde açılır (soğuk kabinler kapalı kalır); çizimde açık gösterildi. Cam yok, iç görünmez. Müşteri cephesi (kiosk + PICKUP) bu çizimde değil.</text>
<line x1="60.0" y1="72.0" x2="1757.0" y2="72.0" stroke="#999" stroke-width="0.8"/>
<line x1="30.0" y1="780.1" x2="1767.0" y2="780.1" stroke="#111" stroke-width="2"/>
<rect x="61.0" y="130.0" width="460.0" height="610.5" rx="4" fill="#d9dcdf" stroke="#111" stroke-width="2"/>
<rect x="65.0" y="740.5" width="4.0" height="39.6" rx="0" fill="none" stroke="#111" stroke-width="1.2"/>
<rect x="513.0" y="740.5" width="4.0" height="39.6" rx="0" fill="none" stroke="#111" stroke-width="1.2"/>
<text x="291.0" y="802.1" font-size="11" text-anchor="middle" font-weight="bold" fill="#111" font-family="Segoe UI, Arial, sans-serif">1 · STORE</text>
<rect x="523.0" y="130.0" width="229.0" height="610.5" rx="4" fill="#d9dcdf" stroke="#111" stroke-width="2"/>
<rect x="527.0" y="740.5" width="4.0" height="39.6" rx="0" fill="none" stroke="#111" stroke-width="1.2"/>
<rect x="744.0" y="740.5" width="4.0" height="39.6" rx="0" fill="none" stroke="#111" stroke-width="1.2"/>
<text x="637.5" y="802.1" font-size="11" text-anchor="middle" font-weight="bold" fill="#111" font-family="Segoe UI, Arial, sans-serif">2 · PRESS</text>
<rect x="754.0" y="130.0" width="229.0" height="610.5" rx="4" fill="#d9dcdf" stroke="#111" stroke-width="2"/>
<rect x="754.0" y="740.5" width="229.0" height="39.6" rx="0" fill="#9e9e9e" stroke="#555" stroke-width="1"/>
<text x="868.5" y="766.9" font-size="6" text-anchor="middle" font-weight="normal" fill="#fff" font-family="Segoe UI, Arial, sans-serif">plint (ızgara)</text>
<text x="868.5" y="802.1" font-size="11" text-anchor="middle" font-weight="bold" fill="#111" font-family="Segoe UI, Arial, sans-serif">3 · TOPPING</text>
<rect x="985.0" y="130.0" width="229.0" height="610.5" rx="4" fill="#d9dcdf" stroke="#111" stroke-width="2"/>
<rect x="985.0" y="740.5" width="229.0" height="39.6" rx="0" fill="#9e9e9e" stroke="#555" stroke-width="1"/>
<text x="1099.5" y="766.9" font-size="6" text-anchor="middle" font-weight="normal" fill="#fff" font-family="Segoe UI, Arial, sans-serif">plint (ızgara)</text>
<text x="1099.5" y="802.1" font-size="11" text-anchor="middle" font-weight="bold" fill="#111" font-family="Segoe UI, Arial, sans-serif">4 · OVEN</text>
<rect x="1216.0" y="130.0" width="229.0" height="610.5" rx="4" fill="#d9dcdf" stroke="#111" stroke-width="2"/>
<rect x="1216.0" y="740.5" width="229.0" height="39.6" rx="0" fill="#9e9e9e" stroke="#555" stroke-width="1"/>
<text x="1330.5" y="766.9" font-size="6" text-anchor="middle" font-weight="normal" fill="#fff" font-family="Segoe UI, Arial, sans-serif">plint (ızgara)</text>
<text x="1330.5" y="802.1" font-size="11" text-anchor="middle" font-weight="bold" fill="#111" font-family="Segoe UI, Arial, sans-serif">5 · PACK</text>
<rect x="66.6" y="136.6" width="448.8" height="92.4" rx="0" fill="#c7cbd0" stroke="#777" stroke-width="0.8"/>
<text x="291.0" y="185.8" font-size="7" text-anchor="middle" font-weight="normal" fill="#333" font-family="Segoe UI, Arial, sans-serif">SOĞUTMA ×2 — üstten servis paneli (eleman)</text>
<rect x="76.5" y="248.8" width="211.2" height="42.9" rx="1" fill="#e9ebee" stroke="#666" stroke-width="0.8"/>
<line x1="172.1" y1="287.7" x2="192.1" y2="287.7" stroke="#555" stroke-width="1.6"/>
<text x="182.1" y="273.2" font-size="6" text-anchor="middle" font-weight="normal" fill="#333" font-family="Segoe UI, Arial, sans-serif">içecek 1</text>
<rect x="76.5" y="291.7" width="211.2" height="42.9" rx="1" fill="#e9ebee" stroke="#666" stroke-width="0.8"/>
<line x1="172.1" y1="330.6" x2="192.1" y2="330.6" stroke="#555" stroke-width="1.6"/>
<text x="182.1" y="316.1" font-size="6" text-anchor="middle" font-weight="normal" fill="#333" font-family="Segoe UI, Arial, sans-serif">içecek 2</text>
<rect x="76.5" y="334.6" width="211.2" height="42.9" rx="1" fill="#e9ebee" stroke="#666" stroke-width="0.8"/>
<line x1="172.1" y1="373.5" x2="192.1" y2="373.5" stroke="#555" stroke-width="1.6"/>
<text x="182.1" y="359.0" font-size="6" text-anchor="middle" font-weight="normal" fill="#333" font-family="Segoe UI, Arial, sans-serif">içecek 3</text>
<rect x="76.5" y="377.5" width="211.2" height="42.9" rx="1" fill="#e9ebee" stroke="#666" stroke-width="0.8"/>
<line x1="172.1" y1="416.4" x2="192.1" y2="416.4" stroke="#555" stroke-width="1.6"/>
<text x="182.1" y="401.9" font-size="6" text-anchor="middle" font-weight="normal" fill="#333" font-family="Segoe UI, Arial, sans-serif">içecek 4</text>
<rect x="76.5" y="420.4" width="211.2" height="105.6" rx="1" fill="#e9ebee" stroke="#666" stroke-width="0.8"/>
<line x1="172.1" y1="522.0" x2="192.1" y2="522.0" stroke="#555" stroke-width="1.6"/>
<text x="182.1" y="476.2" font-size="6" text-anchor="middle" font-weight="normal" fill="#333" font-family="Segoe UI, Arial, sans-serif">1 L çekmece</text>
<rect x="294.3" y="248.8" width="211.2" height="34.6" rx="1" fill="#e9ebee" stroke="#666" stroke-width="0.8"/>
<line x1="389.9" y1="279.4" x2="409.9" y2="279.4" stroke="#555" stroke-width="1.6"/>
<text x="399.9" y="269.1" font-size="5.5" text-anchor="middle" font-weight="normal" fill="#333" font-family="Segoe UI, Arial, sans-serif">taze 1</text>
<rect x="294.3" y="283.4" width="211.2" height="34.6" rx="1" fill="#e9ebee" stroke="#666" stroke-width="0.8"/>
<line x1="389.9" y1="314.1" x2="409.9" y2="314.1" stroke="#555" stroke-width="1.6"/>
<text x="399.9" y="303.8" font-size="5.5" text-anchor="middle" font-weight="normal" fill="#333" font-family="Segoe UI, Arial, sans-serif">taze 2</text>
<rect x="294.3" y="318.1" width="211.2" height="34.6" rx="1" fill="#e9ebee" stroke="#666" stroke-width="0.8"/>
<line x1="389.9" y1="348.8" x2="409.9" y2="348.8" stroke="#555" stroke-width="1.6"/>
<text x="399.9" y="338.4" font-size="5.5" text-anchor="middle" font-weight="normal" fill="#333" font-family="Segoe UI, Arial, sans-serif">taze 3</text>
<rect x="294.3" y="352.8" width="211.2" height="34.6" rx="1" fill="#e9ebee" stroke="#666" stroke-width="0.8"/>
<line x1="389.9" y1="383.4" x2="409.9" y2="383.4" stroke="#555" stroke-width="1.6"/>
<text x="399.9" y="373.1" font-size="5.5" text-anchor="middle" font-weight="normal" fill="#333" font-family="Segoe UI, Arial, sans-serif">taze 4</text>
<rect x="294.3" y="387.4" width="211.2" height="34.6" rx="1" fill="#e9ebee" stroke="#666" stroke-width="0.8"/>
<line x1="389.9" y1="418.1" x2="409.9" y2="418.1" stroke="#555" stroke-width="1.6"/>
<text x="399.9" y="407.7" font-size="5.5" text-anchor="middle" font-weight="normal" fill="#333" font-family="Segoe UI, Arial, sans-serif">taze 5</text>
<rect x="294.3" y="422.1" width="211.2" height="34.6" rx="1" fill="#e9ebee" stroke="#666" stroke-width="0.8"/>
<line x1="389.9" y1="452.7" x2="409.9" y2="452.7" stroke="#555" stroke-width="1.6"/>
<text x="399.9" y="442.4" font-size="5.5" text-anchor="middle" font-weight="normal" fill="#333" font-family="Segoe UI, Arial, sans-serif">taze 6</text>
<rect x="294.3" y="456.7" width="211.2" height="34.6" rx="1" fill="#e9ebee" stroke="#666" stroke-width="0.8"/>
<line x1="389.9" y1="487.3" x2="409.9" y2="487.3" stroke="#555" stroke-width="1.6"/>
<text x="399.9" y="477.0" font-size="5.5" text-anchor="middle" font-weight="normal" fill="#333" font-family="Segoe UI, Arial, sans-serif">taze 7</text>
<rect x="294.3" y="491.3" width="211.2" height="34.6" rx="1" fill="#e9ebee" stroke="#666" stroke-width="0.8"/>
<line x1="389.9" y1="522.0" x2="409.9" y2="522.0" stroke="#555" stroke-width="1.6"/>
<text x="399.9" y="511.7" font-size="5.5" text-anchor="middle" font-weight="normal" fill="#333" font-family="Segoe UI, Arial, sans-serif">taze 8</text>
<rect x="66.6" y="526.0" width="448.8" height="26.4" rx="0" fill="#c7cbd0" stroke="#777" stroke-width="0.8"/>
<rect x="76.5" y="552.4" width="211.2" height="95.7" rx="0" fill="#ffffff" stroke="#111" stroke-width="1.2"/>
<rect x="79.5" y="555.4" width="205.2" height="89.7" rx="0" fill="none" stroke="#888" stroke-width="0.6" stroke-dasharray="4,3"/>
<text x="182.1" y="603.2" font-size="6.5" text-anchor="middle" font-weight="bold" fill="#1a49b8" font-family="Segoe UI, Arial, sans-serif">KASET KATI KLAPESİ — robot ÇATAL (4 donmuş kap)</text>
<rect x="294.3" y="552.4" width="211.2" height="95.7" rx="0" fill="#c7cbd0" stroke="#777" stroke-width="0.8"/>
<text x="399.9" y="603.2" font-size="6" text-anchor="middle" font-weight="normal" fill="#777" font-family="Segoe UI, Arial, sans-serif">boş bant (sabit panel)</text>
<rect x="76.5" y="681.1" width="211.2" height="33.0" rx="1" fill="#e9ebee" stroke="#666" stroke-width="0.8"/>
<line x1="172.1" y1="710.1" x2="192.1" y2="710.1" stroke="#555" stroke-width="1.6"/>
<text x="182.1" y="700.6" font-size="5.5" text-anchor="middle" font-weight="normal" fill="#333" font-family="Segoe UI, Arial, sans-serif">donmuş 1</text>
<rect x="294.3" y="681.1" width="211.2" height="33.0" rx="1" fill="#e9ebee" stroke="#666" stroke-width="0.8"/>
<line x1="389.9" y1="710.1" x2="409.9" y2="710.1" stroke="#555" stroke-width="1.6"/>
<text x="399.9" y="700.6" font-size="5.5" text-anchor="middle" font-weight="normal" fill="#333" font-family="Segoe UI, Arial, sans-serif">donmuş 3</text>
<rect x="76.5" y="648.1" width="211.2" height="33.0" rx="1" fill="#e9ebee" stroke="#666" stroke-width="0.8"/>
<line x1="172.1" y1="677.1" x2="192.1" y2="677.1" stroke="#555" stroke-width="1.6"/>
<text x="182.1" y="667.6" font-size="5.5" text-anchor="middle" font-weight="normal" fill="#333" font-family="Segoe UI, Arial, sans-serif">donmuş 2</text>
<rect x="294.3" y="648.1" width="211.2" height="33.0" rx="1" fill="#e9ebee" stroke="#666" stroke-width="0.8"/>
<line x1="389.9" y1="677.1" x2="409.9" y2="677.1" stroke="#555" stroke-width="1.6"/>
<text x="399.9" y="667.6" font-size="5.5" text-anchor="middle" font-weight="normal" fill="#333" font-family="Segoe UI, Arial, sans-serif">donmuş 4</text>
<text x="291.0" y="733.9" font-size="6" text-anchor="middle" font-weight="normal" fill="#555" font-family="Segoe UI, Arial, sans-serif">çekmeceleri robot pençeyle çeker (70 tam açılır) — ayrı klape yok</text>
<rect x="531.9" y="146.5" width="99.0" height="46.2" rx="0" fill="#ffffff" stroke="#111" stroke-width="1.2"/>
<rect x="534.9" y="149.5" width="93.0" height="40.2" rx="0" fill="none" stroke="#888" stroke-width="0.6" stroke-dasharray="4,3"/>
<text x="581.4" y="172.6" font-size="6" text-anchor="middle" font-weight="bold" fill="#1a49b8" font-family="Segoe UI, Arial, sans-serif">KOL BOŞLUĞU 14</text>
<rect x="531.9" y="192.7" width="99.0" height="145.2" rx="2" fill="#f6c98b" stroke="#9a6b1f" stroke-width="1.1"/>
<rect x="620.9" y="257.3" width="4.0" height="16.0" rx="1" fill="#9a6b1f" stroke="#9a6b1f" stroke-width="1"/>
<text x="581.4" y="268.3" font-size="6" text-anchor="middle" font-weight="bold" fill="#333" font-family="Segoe UI, Arial, sans-serif">KOVA 30 L — eleman her gün</text>
<rect x="644.1" y="136.6" width="99.0" height="201.3" rx="0" fill="#c7cbd0" stroke="#777" stroke-width="0.8"/>
<text x="693.6" y="240.2" font-size="6" text-anchor="middle" font-weight="normal" fill="#777" font-family="Segoe UI, Arial, sans-serif">boş (sabit)</text>
<rect x="531.9" y="337.9" width="211.2" height="293.7" rx="0" fill="#ffffff" stroke="#111" stroke-width="1.2"/>
<rect x="534.9" y="340.9" width="205.2" height="287.7" rx="0" fill="none" stroke="#888" stroke-width="0.6" stroke-dasharray="4,3"/>
<text x="637.5" y="487.8" font-size="6.5" text-anchor="middle" font-weight="bold" fill="#1a49b8" font-family="Segoe UI, Arial, sans-serif">PRES + UÇ YUVALARI + TEPSİ RAFI — robot açıklığı (sabit açık)</text>
<rect x="531.9" y="631.6" width="211.2" height="108.9" rx="0" fill="#c7cbd0" stroke="#777" stroke-width="0.8"/>
<text x="637.5" y="689.0" font-size="6" text-anchor="middle" font-weight="normal" fill="#333" font-family="Segoe UI, Arial, sans-serif">pres alt gövde (Fersah)</text>
<rect x="762.9" y="136.6" width="211.2" height="128.7" rx="0" fill="#ffffff" stroke="#111" stroke-width="1.2"/>
<rect x="765.9" y="139.6" width="205.2" height="122.7" rx="0" fill="none" stroke="#888" stroke-width="0.6" stroke-dasharray="4,3"/>
<text x="868.5" y="203.9" font-size="6.5" text-anchor="middle" font-weight="bold" fill="#1a49b8" font-family="Segoe UI, Arial, sans-serif">KAT 1 KLAPESİ AÇIK — tepsi düzlemi 158</text>
<rect x="762.9" y="265.3" width="211.2" height="135.3" rx="0" fill="#ffffff" stroke="#111" stroke-width="1.2"/>
<rect x="765.9" y="268.3" width="205.2" height="129.3" rx="0" fill="none" stroke="#888" stroke-width="0.6" stroke-dasharray="4,3"/>
<text x="868.5" y="335.9" font-size="6.5" text-anchor="middle" font-weight="bold" fill="#1a49b8" font-family="Segoe UI, Arial, sans-serif">KAT 2 KLAPESİ AÇIK — tepsi düzlemi 117</text>
<rect x="762.9" y="400.6" width="211.2" height="135.3" rx="0" fill="#ffffff" stroke="#111" stroke-width="1.2"/>
<rect x="765.9" y="403.6" width="205.2" height="129.3" rx="0" fill="none" stroke="#888" stroke-width="0.6" stroke-dasharray="4,3"/>
<text x="868.5" y="471.2" font-size="6.5" text-anchor="middle" font-weight="bold" fill="#1a49b8" font-family="Segoe UI, Arial, sans-serif">KAT 3 KLAPESİ AÇIK — tepsi düzlemi 76</text>
<rect x="762.9" y="535.9" width="211.2" height="92.4" rx="2" fill="#f6c98b" stroke="#9a6b1f" stroke-width="1.1"/>
<rect x="964.1" y="574.1" width="4.0" height="16.0" rx="1" fill="#9a6b1f" stroke="#9a6b1f" stroke-width="1"/>
<text x="868.5" y="585.1" font-size="6" text-anchor="middle" font-weight="bold" fill="#333" font-family="Segoe UI, Arial, sans-serif">ALT klape 1 — gece robot (çatal) · eleman haftalık</text>
<rect x="762.9" y="628.3" width="211.2" height="89.1" rx="2" fill="#f6c98b" stroke="#9a6b1f" stroke-width="1.1"/>
<rect x="964.1" y="664.9" width="4.0" height="16.0" rx="1" fill="#9a6b1f" stroke="#9a6b1f" stroke-width="1"/>
<text x="868.5" y="675.9" font-size="6" text-anchor="middle" font-weight="bold" fill="#333" font-family="Segoe UI, Arial, sans-serif">ALT klape 2 — gece robot (çatal) · eleman haftalık</text>
<rect x="762.9" y="717.4" width="211.2" height="23.1" rx="0" fill="#c7cbd0" stroke="#777" stroke-width="0.8"/>
<rect x="993.9" y="136.6" width="211.2" height="89.1" rx="2" fill="#f6c98b" stroke="#9a6b1f" stroke-width="1.1"/>
<rect x="1195.1" y="173.2" width="4.0" height="16.0" rx="1" fill="#9a6b1f" stroke="#9a6b1f" stroke-width="1"/>
<text x="1099.5" y="184.2" font-size="6.5" text-anchor="middle" font-weight="bold" fill="#333" font-family="Segoe UI, Arial, sans-serif">FAN + FİLTRE servis kapağı (eleman aylık)</text>
<rect x="993.9" y="225.7" width="211.2" height="92.4" rx="2" fill="#cfe6f7" stroke="#1a49b8" stroke-width="1.1"/>
<line x1="999.9" y1="313.1" x2="1199.1" y2="313.1" stroke="#1a49b8" stroke-width="1.2"/>
<text x="1099.5" y="274.9" font-size="6.5" text-anchor="middle" font-weight="bold" fill="#1a49b8" font-family="Segoe UI, Arial, sans-serif">FIRIN KAPAK 2 (cam, aşağı açılır, motorlu)</text>
<rect x="993.9" y="318.1" width="211.2" height="92.4" rx="2" fill="#cfe6f7" stroke="#1a49b8" stroke-width="1.1"/>
<line x1="999.9" y1="405.5" x2="1199.1" y2="405.5" stroke="#1a49b8" stroke-width="1.2"/>
<text x="1099.5" y="367.3" font-size="6.5" text-anchor="middle" font-weight="bold" fill="#1a49b8" font-family="Segoe UI, Arial, sans-serif">FIRIN KAPAK 1 (cam, aşağı açılır, motorlu)</text>
<rect x="993.9" y="410.5" width="49.5" height="99.0" rx="2" fill="#f6c98b" stroke="#9a6b1f" stroke-width="1.1"/>
<rect x="1033.4" y="452.0" width="4.0" height="16.0" rx="1" fill="#9a6b1f" stroke="#9a6b1f" stroke-width="1"/>
<text x="1018.6" y="463.0" font-size="5.5" text-anchor="middle" font-weight="bold" fill="#333" font-family="Segoe UI, Arial, sans-serif">YAĞ KABI</text>
<rect x="1043.4" y="410.5" width="161.7" height="99.0" rx="0" fill="#ffffff" stroke="#111" stroke-width="1.2"/>
<rect x="1046.4" y="413.5" width="155.7" height="93.0" rx="0" fill="none" stroke="#888" stroke-width="0.6" stroke-dasharray="4,3"/>
<text x="1124.2" y="463.0" font-size="6.5" text-anchor="middle" font-weight="bold" fill="#1a49b8" font-family="Segoe UI, Arial, sans-serif">SPREY KLAPESİ — tepsi</text>
<rect x="993.9" y="509.5" width="211.2" height="165.0" rx="0" fill="#ffffff" stroke="#111" stroke-width="1.2"/>
<rect x="996.9" y="512.5" width="205.2" height="159.0" rx="0" fill="none" stroke="#888" stroke-width="0.6" stroke-dasharray="4,3"/>
<text x="1099.5" y="595.0" font-size="6.5" text-anchor="middle" font-weight="bold" fill="#1a49b8" font-family="Segoe UI, Arial, sans-serif">KESME PRESİ KLAPESİ — tepsi zemine</text>
<rect x="993.9" y="674.5" width="211.2" height="66.0" rx="2" fill="#f6c98b" stroke="#9a6b1f" stroke-width="1.1"/>
<rect x="1195.1" y="699.5" width="4.0" height="16.0" rx="1" fill="#9a6b1f" stroke="#9a6b1f" stroke-width="1"/>
<text x="1099.5" y="710.5" font-size="6" text-anchor="middle" font-weight="bold" fill="#333" font-family="Segoe UI, Arial, sans-serif">PANO servis kapağı</text>
<rect x="1224.9" y="136.6" width="211.2" height="300.3" rx="2" fill="#f6c98b" stroke="#9a6b1f" stroke-width="1.1"/>
<rect x="1426.1" y="278.8" width="4.0" height="16.0" rx="1" fill="#9a6b1f" stroke="#9a6b1f" stroke-width="1"/>
<text x="1330.5" y="289.8" font-size="6.5" text-anchor="middle" font-weight="bold" fill="#333" font-family="Segoe UI, Arial, sans-serif">ŞARJÖR ÖN KAPISI — eleman haftada 1 kutu demeti sürer</text>
<rect x="1224.9" y="436.9" width="211.2" height="145.2" rx="0" fill="#ffffff" stroke="#111" stroke-width="1.2"/>
<rect x="1227.9" y="439.9" width="205.2" height="139.2" rx="0" fill="none" stroke="#888" stroke-width="0.6" stroke-dasharray="4,3"/>
<text x="1330.5" y="512.5" font-size="6.5" text-anchor="middle" font-weight="bold" fill="#1a49b8" font-family="Segoe UI, Arial, sans-serif">KUTULAMA KLAPESİ — tepsi eğilir · pençe kutuyu alır</text>
<rect x="1224.9" y="582.1" width="211.2" height="158.4" rx="2" fill="#f6c98b" stroke="#9a6b1f" stroke-width="1.1"/>
<rect x="1426.1" y="653.3" width="4.0" height="16.0" rx="1" fill="#9a6b1f" stroke="#9a6b1f" stroke-width="1"/>
<text x="1330.5" y="664.3" font-size="6" text-anchor="middle" font-weight="bold" fill="#333" font-family="Segoe UI, Arial, sans-serif">PANO + MEKANİZMA servis kapağı</text>
<rect x="1506.0" y="130.0" width="231.0" height="610.5" rx="4" fill="#d9dcdf" stroke="#111" stroke-width="2"/>
<rect x="1511.0" y="740.5" width="4.0" height="39.6" rx="0" fill="none" stroke="#111" stroke-width="1.2"/>
<rect x="1728.0" y="740.5" width="4.0" height="39.6" rx="0" fill="none" stroke="#111" stroke-width="1.2"/>
<rect x="1515.9" y="136.6" width="211.2" height="181.5" rx="2" fill="#f6c98b" stroke="#9a6b1f" stroke-width="1.1"/>
<rect x="1717.1" y="219.3" width="4.0" height="16.0" rx="1" fill="#9a6b1f" stroke="#9a6b1f" stroke-width="1"/>
<text x="1621.5" y="230.3" font-size="6.5" text-anchor="middle" font-weight="bold" fill="#333" font-family="Segoe UI, Arial, sans-serif">TEKNİK — UPS · yangın tüpü</text>
<rect x="1515.9" y="318.1" width="211.2" height="237.6" rx="2" fill="#f6c98b" stroke="#9a6b1f" stroke-width="1.1"/>
<rect x="1717.1" y="428.9" width="4.0" height="16.0" rx="1" fill="#9a6b1f" stroke="#9a6b1f" stroke-width="1"/>
<text x="1621.5" y="439.9" font-size="6.5" text-anchor="middle" font-weight="bold" fill="#333" font-family="Segoe UI, Arial, sans-serif">AMBALAJ (yassı kutu, demet)</text>
<rect x="1515.9" y="555.7" width="211.2" height="184.8" rx="2" fill="#f6c98b" stroke="#9a6b1f" stroke-width="1.1"/>
<rect x="1717.1" y="640.1" width="4.0" height="16.0" rx="1" fill="#9a6b1f" stroke="#9a6b1f" stroke-width="1"/>
<text x="1621.5" y="651.1" font-size="6.5" text-anchor="middle" font-weight="bold" fill="#333" font-family="Segoe UI, Arial, sans-serif">TEMİZLİK — kilitli</text>
<text x="1621.5" y="802.1" font-size="11" text-anchor="middle" font-weight="bold" fill="#111" font-family="Segoe UI, Arial, sans-serif">7 · SERVICE</text>
<text x="1621.5" y="818.1" font-size="8" text-anchor="middle" font-weight="normal" fill="#555" font-family="Segoe UI, Arial, sans-serif">(ayrı duvarda)</text>
<line x1="60.0" y1="108.0" x2="522.0" y2="108.0" stroke="#111" stroke-width="0.8"/>
<line x1="60.0" y1="104.0" x2="60.0" y2="112.0" stroke="#111" stroke-width="0.8"/>
<line x1="522.0" y1="104.0" x2="522.0" y2="112.0" stroke="#111" stroke-width="0.8"/>
<text x="291.0" y="103.0" font-size="8" text-anchor="middle" font-weight="bold" fill="#111" font-family="Segoe UI, Arial, sans-serif">140</text>
<line x1="522.0" y1="108.0" x2="753.0" y2="108.0" stroke="#111" stroke-width="0.8"/>
<line x1="522.0" y1="104.0" x2="522.0" y2="112.0" stroke="#111" stroke-width="0.8"/>
<line x1="753.0" y1="104.0" x2="753.0" y2="112.0" stroke="#111" stroke-width="0.8"/>
<text x="637.5" y="103.0" font-size="8" text-anchor="middle" font-weight="bold" fill="#111" font-family="Segoe UI, Arial, sans-serif">70</text>
<line x1="753.0" y1="108.0" x2="984.0" y2="108.0" stroke="#111" stroke-width="0.8"/>
<line x1="753.0" y1="104.0" x2="753.0" y2="112.0" stroke="#111" stroke-width="0.8"/>
<line x1="984.0" y1="104.0" x2="984.0" y2="112.0" stroke="#111" stroke-width="0.8"/>
<text x="868.5" y="103.0" font-size="8" text-anchor="middle" font-weight="bold" fill="#111" font-family="Segoe UI, Arial, sans-serif">70</text>
<line x1="984.0" y1="108.0" x2="1215.0" y2="108.0" stroke="#111" stroke-width="0.8"/>
<line x1="984.0" y1="104.0" x2="984.0" y2="112.0" stroke="#111" stroke-width="0.8"/>
<line x1="1215.0" y1="104.0" x2="1215.0" y2="112.0" stroke="#111" stroke-width="0.8"/>
<text x="1099.5" y="103.0" font-size="8" text-anchor="middle" font-weight="bold" fill="#111" font-family="Segoe UI, Arial, sans-serif">70</text>
<line x1="1215.0" y1="108.0" x2="1446.0" y2="108.0" stroke="#111" stroke-width="0.8"/>
<line x1="1215.0" y1="104.0" x2="1215.0" y2="112.0" stroke="#111" stroke-width="0.8"/>
<line x1="1446.0" y1="104.0" x2="1446.0" y2="112.0" stroke="#111" stroke-width="0.8"/>
<text x="1330.5" y="103.0" font-size="8" text-anchor="middle" font-weight="bold" fill="#111" font-family="Segoe UI, Arial, sans-serif">70</text>
<line x1="60.0" y1="84.0" x2="1446.0" y2="84.0" stroke="#111" stroke-width="0.8"/>
<line x1="60.0" y1="80.0" x2="60.0" y2="88.0" stroke="#111" stroke-width="0.8"/>
<line x1="1446.0" y1="80.0" x2="1446.0" y2="88.0" stroke="#111" stroke-width="0.8"/>
<text x="753.0" y="79.0" font-size="9" text-anchor="middle" font-weight="bold" fill="#111" font-family="Segoe UI, Arial, sans-serif">TOPLAM 420</text>
<line x1="26.0" y1="130.0" x2="26.0" y2="780.1" stroke="#111" stroke-width="0.8"/>
<line x1="22.0" y1="130.0" x2="30.0" y2="130.0" stroke="#111" stroke-width="0.8"/>
<line x1="22.0" y1="780.1" x2="30.0" y2="780.1" stroke="#111" stroke-width="0.8"/>
<text x="20.0" y="458.0" font-size="8" text-anchor="middle" font-weight="bold" fill="#111" font-family="Segoe UI, Arial, sans-serif" transform="rotate(-90 20.0 458.0)">197</text>
<line x1="1452.0" y1="740.5" x2="1462.0" y2="740.5" stroke="#888" stroke-width="0.7"/>
<text x="1465.0" y="743.5" font-size="6" text-anchor="start" font-weight="normal" fill="#888" font-family="Segoe UI, Arial, sans-serif">12</text>
<line x1="1452.0" y1="582.1" x2="1462.0" y2="582.1" stroke="#888" stroke-width="0.7"/>
<text x="1465.0" y="585.1" font-size="6" text-anchor="start" font-weight="normal" fill="#888" font-family="Segoe UI, Arial, sans-serif">60</text>
<line x1="1452.0" y1="436.9" x2="1462.0" y2="436.9" stroke="#888" stroke-width="0.7"/>
<text x="1465.0" y="439.9" font-size="6" text-anchor="start" font-weight="normal" fill="#888" font-family="Segoe UI, Arial, sans-serif">104</text>
<line x1="1452.0" y1="410.5" x2="1462.0" y2="410.5" stroke="#888" stroke-width="0.7"/>
<text x="1465.0" y="413.5" font-size="6" text-anchor="start" font-weight="normal" fill="#888" font-family="Segoe UI, Arial, sans-serif">112</text>
<line x1="1452.0" y1="225.7" x2="1462.0" y2="225.7" stroke="#888" stroke-width="0.7"/>
<text x="1465.0" y="228.7" font-size="6" text-anchor="start" font-weight="normal" fill="#888" font-family="Segoe UI, Arial, sans-serif">168</text>
<rect x="60.0" y="840.1" width="24.0" height="14.0" rx="1" fill="#ffffff" stroke="#333" stroke-width="1"/>
<text x="92.0" y="851.1" font-size="8" text-anchor="start" font-weight="normal" fill="#333" font-family="Segoe UI, Arial, sans-serif">robot açıklığı (klape açık / sabit açık)</text>
<rect x="360.0" y="840.1" width="24.0" height="14.0" rx="1" fill="#f6c98b" stroke="#333" stroke-width="1"/>
<text x="392.0" y="851.1" font-size="8" text-anchor="start" font-weight="normal" fill="#333" font-family="Segoe UI, Arial, sans-serif">eleman kapısı / çekmece</text>
<rect x="660.0" y="840.1" width="24.0" height="14.0" rx="1" fill="#cfe6f7" stroke="#1a49b8" stroke-width="1"/>
<text x="692.0" y="851.1" font-size="8" text-anchor="start" font-weight="normal" fill="#333" font-family="Segoe UI, Arial, sans-serif">cam fırın kapağı — robot için motor açar</text>
<rect x="960.0" y="840.1" width="24.0" height="14.0" rx="1" fill="#e9ebee" stroke="#333" stroke-width="1"/>
<text x="992.0" y="851.1" font-size="8" text-anchor="start" font-weight="normal" fill="#333" font-family="Segoe UI, Arial, sans-serif">çekmece — robot pençeyle çeker</text>
<rect x="1260.0" y="840.1" width="24.0" height="14.0" rx="1" fill="#d9dcdf" stroke="#333" stroke-width="1"/>
<text x="1292.0" y="851.1" font-size="8" text-anchor="start" font-weight="normal" fill="#333" font-family="Segoe UI, Arial, sans-serif">sabit panel</text>
<text x="60.0" y="880.1" font-size="8" text-anchor="start" font-weight="normal" fill="#444" font-family="Segoe UI, Arial, sans-serif">Robot koridoru bu cephenin önünde (90). Açıklıklar: STORE kaset klapesi z 40–69 · PRESS 45–134 + kol boşluğu · TOPPING 3 kat klapesi (74–195) · OVEN kesme 32–82, sprey 82–112, fırın kapakları 112–168 · PACK 60–104. Kalan her yer kapalı panel.</text>
<text x="1767.0" y="960.0" font-size="7" text-anchor="end" font-weight="normal" fill="#777" font-family="Segoe UI, Arial, sans-serif">AUTOKITCH · arastirma/FULL_MAKINE/hat_dis_kapak_gorunus_v1 · 6 Eyl 2026</text>
</svg>