ISO-10303-21;
HEADER;
FILE_DESCRIPTION(('Open CASCADE Model'),'2;1');
FILE_NAME('Open CASCADE Shape Model','2026-09-21T16:09:32',('Author'),(
    'Open CASCADE'),'Open CASCADE STEP processor 7.9','Open CASCADE 7.9'
  ,'Unknown');
FILE_SCHEMA(('AUTOMOTIVE_DESIGN { 1 0 10303 214 1 1 1 1 }'));
ENDSEC;
DATA;
#1 = APPLICATION_PROTOCOL_DEFINITION('international standard',
  'automotive_design',2000,#2);
#2 = APPLICATION_CONTEXT(
  'core data for automotive mechanical design processes');
#3 = SHAPE_DEFINITION_REPRESENTATION(#4,#10);
#4 = PRODUCT_DEFINITION_SHAPE('','',#5);
#5 = PRODUCT_DEFINITION('design','',#6,#9);
#6 = PRODUCT_DEFINITION_FORMATION('','',#7);
#7 = PRODUCT('Open CASCADE STEP translator 7.9 40',
  'Open CASCADE STEP translator 7.9 40','',(#8));
#8 = PRODUCT_CONTEXT('',#2,'mechanical');
#9 = PRODUCT_DEFINITION_CONTEXT('part definition',#2,'design');
#10 = ADVANCED_BREP_SHAPE_REPRESENTATION('',(#11,#15),#566);
#11 = AXIS2_PLACEMENT_3D('',#12,#13,#14);
#12 = CARTESIAN_POINT('',(0.,0.,0.));
#13 = DIRECTION('',(0.,0.,1.));
#14 = DIRECTION('',(1.,0.,-0.));
#15 = MANIFOLD_SOLID_BREP('',#16);
#16 = CLOSED_SHELL('',(#17,#368,#418,#474,#479,#530,#535,#539));
#17 = ADVANCED_FACE('',(#18),#36,.T.);
#18 = FACE_BOUND('',#19,.F.);
#19 = EDGE_LOOP('',(#20,#67,#90,#117,#118,#153,#179,#208,#229,#294,#320,
    #349));
#20 = ORIENTED_EDGE('',*,*,#21,.F.);
#21 = EDGE_CURVE('',#22,#24,#26,.T.);
#22 = VERTEX_POINT('',#23);
#23 = CARTESIAN_POINT('',(-23.2250356126,173.5,170.));
#24 = VERTEX_POINT('',#25);
#25 = CARTESIAN_POINT('',(-23.179002324,173.28605710995,170.9));
#26 = SURFACE_CURVE('',#27,(#35,#51),.PCURVE_S1.);
#27 = B_SPLINE_CURVE_WITH_KNOTS('',6,(#28,#29,#30,#31,#32,#33,#34),
  .UNSPECIFIED.,.F.,.F.,(7,7),(0.,1.),.PIECEWISE_BEZIER_KNOTS.);
#28 = CARTESIAN_POINT('',(-23.2250356126,173.5,170.));
#29 = CARTESIAN_POINT('',(-23.2250356126,173.5,170.15341948749));
#30 = CARTESIAN_POINT('',(-23.22181675068,173.48587738424,
    170.30680783817));
#31 = CARTESIAN_POINT('',(-23.21538173989,173.45764346499,
    170.45921634486));
#32 = CARTESIAN_POINT('',(-23.20587374727,173.41514176516,
    170.60967524847));
#33 = CARTESIAN_POINT('',(-23.19358547279,173.35808053156,
    170.75706907031));
#34 = CARTESIAN_POINT('',(-23.17900226278,173.2860568076,170.9000006));
#35 = PCURVE('',#36,#41);
#36 = CYLINDRICAL_SURFACE('',#37,2.);
#37 = AXIS2_PLACEMENT_3D('',#38,#39,#40);
#38 = CARTESIAN_POINT('',(-24.,171.5,170.));
#39 = DIRECTION('',(-1.,-0.,-0.));
#40 = DIRECTION('',(0.,1.,0.));
#41 = DEFINITIONAL_REPRESENTATION('',(#42),#50);
#42 = B_SPLINE_CURVE_WITH_KNOTS('',6,(#43,#44,#45,#46,#47,#48,#49),
  .UNSPECIFIED.,.F.,.F.,(7,7),(0.,1.),.PIECEWISE_BEZIER_KNOTS.);
#43 = CARTESIAN_POINT('',(0.,-0.774964387392));
#44 = CARTESIAN_POINT('',(-7.670974374748E-02,-0.774964387392));
#45 = CARTESIAN_POINT('',(-0.15340404997,-0.77818324932));
#46 = CARTESIAN_POINT('',(-0.230420193081,-0.784618260109));
#47 = CARTESIAN_POINT('',(-0.308087035153,-0.794126252729));
#48 = CARTESIAN_POINT('',(-0.386739368385,-0.80641452721));
#49 = CARTESIAN_POINT('',(-0.466765674983,-0.820997737218));
#50 = ( GEOMETRIC_REPRESENTATION_CONTEXT(2) 
PARAMETRIC_REPRESENTATION_CONTEXT() REPRESENTATION_CONTEXT('2D SPACE',''
  ) );
#51 = PCURVE('',#52,#57);
#52 = CYLINDRICAL_SURFACE('',#53,9.);
#53 = AXIS2_PLACEMENT_3D('',#54,#55,#56);
#54 = CARTESIAN_POINT('',(-32.,171.5,169.1));
#55 = DIRECTION('',(-0.,-0.,-1.));
#56 = DIRECTION('',(1.,0.,0.));
#57 = DEFINITIONAL_REPRESENTATION('',(#58),#66);
#58 = B_SPLINE_CURVE_WITH_KNOTS('',6,(#59,#60,#61,#62,#63,#64,#65),
  .UNSPECIFIED.,.F.,.F.,(7,7),(0.,1.),.PIECEWISE_BEZIER_KNOTS.);
#59 = CARTESIAN_POINT('',(-0.224093092301,-0.9));
#60 = CARTESIAN_POINT('',(-0.224093092301,-1.053419487495));
#61 = CARTESIAN_POINT('',(-0.222483669157,-1.206807838173));
#62 = CARTESIAN_POINT('',(-0.219266123533,-1.359216344867));
#63 = CARTESIAN_POINT('',(-0.214427012623,-1.509675248472));
#64 = CARTESIAN_POINT('',(-0.207942016545,-1.657069070313));
#65 = CARTESIAN_POINT('',(-0.199776985094,-1.8000006));
#66 = ( GEOMETRIC_REPRESENTATION_CONTEXT(2) 
PARAMETRIC_REPRESENTATION_CONTEXT() REPRESENTATION_CONTEXT('2D SPACE',''
  ) );
#67 = ORIENTED_EDGE('',*,*,#68,.T.);
#68 = EDGE_CURVE('',#22,#69,#71,.T.);
#69 = VERTEX_POINT('',#70);
#70 = CARTESIAN_POINT('',(20.,173.5,170.));
#71 = SEAM_CURVE('',#72,(#76,#83),.PCURVE_S1.);
#72 = LINE('',#73,#74);
#73 = CARTESIAN_POINT('',(-24.,173.5,170.));
#74 = VECTOR('',#75,1.);
#75 = DIRECTION('',(1.,0.,0.));
#76 = PCURVE('',#36,#77);
#77 = DEFINITIONAL_REPRESENTATION('',(#78),#82);
#78 = LINE('',#79,#80);
#79 = CARTESIAN_POINT('',(-6.28318530718,0.));
#80 = VECTOR('',#81,1.);
#81 = DIRECTION('',(-0.,-1.));
#82 = ( GEOMETRIC_REPRESENTATION_CONTEXT(2) 
PARAMETRIC_REPRESENTATION_CONTEXT() REPRESENTATION_CONTEXT('2D SPACE',''
  ) );
#83 = PCURVE('',#36,#84);
#84 = DEFINITIONAL_REPRESENTATION('',(#85),#89);
#85 = LINE('',#86,#87);
#86 = CARTESIAN_POINT('',(-0.,0.));
#87 = VECTOR('',#88,1.);
#88 = DIRECTION('',(-0.,-1.));
#89 = ( GEOMETRIC_REPRESENTATION_CONTEXT(2) 
PARAMETRIC_REPRESENTATION_CONTEXT() REPRESENTATION_CONTEXT('2D SPACE',''
  ) );
#90 = ORIENTED_EDGE('',*,*,#91,.T.);
#91 = EDGE_CURVE('',#69,#69,#92,.T.);
#92 = SURFACE_CURVE('',#93,(#98,#105),.PCURVE_S1.);
#93 = CIRCLE('',#94,2.);
#94 = AXIS2_PLACEMENT_3D('',#95,#96,#97);
#95 = CARTESIAN_POINT('',(20.,171.5,170.));
#96 = DIRECTION('',(1.,0.,0.));
#97 = DIRECTION('',(0.,1.,0.));
#98 = PCURVE('',#36,#99);
#99 = DEFINITIONAL_REPRESENTATION('',(#100),#104);
#100 = LINE('',#101,#102);
#101 = CARTESIAN_POINT('',(-0.,-44.));
#102 = VECTOR('',#103,1.);
#103 = DIRECTION('',(-1.,0.));
#104 = ( GEOMETRIC_REPRESENTATION_CONTEXT(2) 
PARAMETRIC_REPRESENTATION_CONTEXT() REPRESENTATION_CONTEXT('2D SPACE',''
  ) );
#105 = PCURVE('',#106,#111);
#106 = PLANE('',#107);
#107 = AXIS2_PLACEMENT_3D('',#108,#109,#110);
#108 = CARTESIAN_POINT('',(20.,171.5,170.));
#109 = DIRECTION('',(1.,0.,0.));
#110 = DIRECTION('',(-0.,0.,1.));
#111 = DEFINITIONAL_REPRESENTATION('',(#112),#116);
#112 = CIRCLE('',#113,2.);
#113 = AXIS2_PLACEMENT_2D('',#114,#115);
#114 = CARTESIAN_POINT('',(2.84217094304E-14,2.84217094304E-14));
#115 = DIRECTION('',(0.,-1.));
#116 = ( GEOMETRIC_REPRESENTATION_CONTEXT(2) 
PARAMETRIC_REPRESENTATION_CONTEXT() REPRESENTATION_CONTEXT('2D SPACE',''
  ) );
#117 = ORIENTED_EDGE('',*,*,#68,.F.);
#118 = ORIENTED_EDGE('',*,*,#119,.F.);
#119 = EDGE_CURVE('',#120,#22,#122,.T.);
#120 = VERTEX_POINT('',#121);
#121 = CARTESIAN_POINT('',(-23.179002324,173.28605710995,169.1));
#122 = SURFACE_CURVE('',#123,(#131,#142),.PCURVE_S1.);
#123 = B_SPLINE_CURVE_WITH_KNOTS('',6,(#124,#125,#126,#127,#128,#129,
    #130),.UNSPECIFIED.,.F.,.F.,(7,7),(0.,1.),.PIECEWISE_BEZIER_KNOTS.);
#124 = CARTESIAN_POINT('',(-23.17900226278,173.2860568076,169.0999994));
#125 = CARTESIAN_POINT('',(-23.19358539858,173.35808016508,
    169.2429302024));
#126 = CARTESIAN_POINT('',(-23.20587373383,173.41514172884,
    169.39032432013));
#127 = CARTESIAN_POINT('',(-23.21538176365,173.45764356411,
    169.5407838102));
#128 = CARTESIAN_POINT('',(-23.22181675501,173.48587740372,
    169.69319251935));
#129 = CARTESIAN_POINT('',(-23.2250356126,173.5,169.84658059018));
#130 = CARTESIAN_POINT('',(-23.2250356126,173.5,170.));
#131 = PCURVE('',#36,#132);
#132 = DEFINITIONAL_REPRESENTATION('',(#133),#141);
#133 = B_SPLINE_CURVE_WITH_KNOTS('',6,(#134,#135,#136,#137,#138,#139,
    #140),.UNSPECIFIED.,.F.,.F.,(7,7),(0.,1.),.PIECEWISE_BEZIER_KNOTS.);
#134 = CARTESIAN_POINT('',(-5.816419632197,-0.820997737218));
#135 = CARTESIAN_POINT('',(-5.896445531595,-0.806414601414));
#136 = CARTESIAN_POINT('',(-5.975098077059,-0.794126266167));
#137 = CARTESIAN_POINT('',(-6.052765183474,-0.784618236343));
#138 = CARTESIAN_POINT('',(-6.129781440281,-0.778183244984));
#139 = CARTESIAN_POINT('',(-6.206475602271,-0.774964387392));
#140 = CARTESIAN_POINT('',(-6.28318530718,-0.774964387392));
#141 = ( GEOMETRIC_REPRESENTATION_CONTEXT(2) 
PARAMETRIC_REPRESENTATION_CONTEXT() REPRESENTATION_CONTEXT('2D SPACE',''
  ) );
#142 = PCURVE('',#52,#143);
#143 = DEFINITIONAL_REPRESENTATION('',(#144),#152);
#144 = B_SPLINE_CURVE_WITH_KNOTS('',6,(#145,#146,#147,#148,#149,#150,
    #151),.UNSPECIFIED.,.F.,.F.,(7,7),(0.,1.),.PIECEWISE_BEZIER_KNOTS.);
#145 = CARTESIAN_POINT('',(-0.199776985094,6.000000000173E-07));
#146 = CARTESIAN_POINT('',(-0.207941974999,-0.142930202405));
#147 = CARTESIAN_POINT('',(-0.214427008439,-0.290324320139));
#148 = CARTESIAN_POINT('',(-0.219266134754,-0.440783810205));
#149 = CARTESIAN_POINT('',(-0.222483671418,-0.593192519352));
#150 = CARTESIAN_POINT('',(-0.224093092301,-0.746580590182));
#151 = CARTESIAN_POINT('',(-0.224093092301,-0.9));
#152 = ( GEOMETRIC_REPRESENTATION_CONTEXT(2) 
PARAMETRIC_REPRESENTATION_CONTEXT() REPRESENTATION_CONTEXT('2D SPACE',''
  ) );
#153 = ORIENTED_EDGE('',*,*,#154,.T.);
#154 = EDGE_CURVE('',#120,#155,#157,.T.);
#155 = VERTEX_POINT('',#156);
#156 = CARTESIAN_POINT('',(-24.,173.28605710994,169.1));
#157 = SURFACE_CURVE('',#158,(#162,#168),.PCURVE_S1.);
#158 = LINE('',#159,#160);
#159 = CARTESIAN_POINT('',(-24.,173.28605710994,169.1));
#160 = VECTOR('',#161,1.);
#161 = DIRECTION('',(-1.,-0.,-0.));
#162 = PCURVE('',#36,#163);
#163 = DEFINITIONAL_REPRESENTATION('',(#164),#167);
#164 = B_SPLINE_CURVE_WITH_KNOTS('',1,(#165,#166),.UNSPECIFIED.,.F.,.F.,
  (2,2),(-2.8,5.999999999062E-07),.PIECEWISE_BEZIER_KNOTS.);
#165 = CARTESIAN_POINT('',(-5.816419968132,-2.8));
#166 = CARTESIAN_POINT('',(-5.816419968132,5.999999999062E-07));
#167 = ( GEOMETRIC_REPRESENTATION_CONTEXT(2) 
PARAMETRIC_REPRESENTATION_CONTEXT() REPRESENTATION_CONTEXT('2D SPACE',''
  ) );
#168 = PCURVE('',#169,#174);
#169 = PLANE('',#170);
#170 = AXIS2_PLACEMENT_3D('',#171,#172,#173);
#171 = CARTESIAN_POINT('',(-32.,171.5,169.1));
#172 = DIRECTION('',(0.,0.,1.));
#173 = DIRECTION('',(1.,0.,-0.));
#174 = DEFINITIONAL_REPRESENTATION('',(#175),#178);
#175 = B_SPLINE_CURVE_WITH_KNOTS('',1,(#176,#177),.UNSPECIFIED.,.F.,.F.,
  (2,2),(-2.8,5.999999999062E-07),.PIECEWISE_BEZIER_KNOTS.);
#176 = CARTESIAN_POINT('',(10.8,1.786057109949));
#177 = CARTESIAN_POINT('',(7.9999994,1.786057109949));
#178 = ( GEOMETRIC_REPRESENTATION_CONTEXT(2) 
PARAMETRIC_REPRESENTATION_CONTEXT() REPRESENTATION_CONTEXT('2D SPACE',''
  ) );
#179 = ORIENTED_EDGE('',*,*,#180,.F.);
#180 = EDGE_CURVE('',#181,#155,#183,.T.);
#181 = VERTEX_POINT('',#182);
#182 = CARTESIAN_POINT('',(-24.,169.71394289005,169.1));
#183 = SURFACE_CURVE('',#184,(#189,#196),.PCURVE_S1.);
#184 = CIRCLE('',#185,2.);
#185 = AXIS2_PLACEMENT_3D('',#186,#187,#188);
#186 = CARTESIAN_POINT('',(-24.,171.5,170.));
#187 = DIRECTION('',(1.,0.,0.));
#188 = DIRECTION('',(0.,1.,0.));
#189 = PCURVE('',#36,#190);
#190 = DEFINITIONAL_REPRESENTATION('',(#191),#195);
#191 = LINE('',#192,#193);
#192 = CARTESIAN_POINT('',(-0.,0.));
#193 = VECTOR('',#194,1.);
#194 = DIRECTION('',(-1.,0.));
#195 = ( GEOMETRIC_REPRESENTATION_CONTEXT(2) 
PARAMETRIC_REPRESENTATION_CONTEXT() REPRESENTATION_CONTEXT('2D SPACE',''
  ) );
#196 = PCURVE('',#197,#202);
#197 = PLANE('',#198);
#198 = AXIS2_PLACEMENT_3D('',#199,#200,#201);
#199 = CARTESIAN_POINT('',(-24.,171.5,170.));
#200 = DIRECTION('',(1.,0.,0.));
#201 = DIRECTION('',(-0.,0.,1.));
#202 = DEFINITIONAL_REPRESENTATION('',(#203),#207);
#203 = CIRCLE('',#204,2.);
#204 = AXIS2_PLACEMENT_2D('',#205,#206);
#205 = CARTESIAN_POINT('',(2.84217094304E-14,2.84217094304E-14));
#206 = DIRECTION('',(0.,-1.));
#207 = ( GEOMETRIC_REPRESENTATION_CONTEXT(2) 
PARAMETRIC_REPRESENTATION_CONTEXT() REPRESENTATION_CONTEXT('2D SPACE',''
  ) );
#208 = ORIENTED_EDGE('',*,*,#209,.F.);
#209 = EDGE_CURVE('',#210,#181,#212,.T.);
#210 = VERTEX_POINT('',#211);
#211 = CARTESIAN_POINT('',(-23.179002324,169.71394289005,169.1));
#212 = SURFACE_CURVE('',#213,(#217,#223),.PCURVE_S1.);
#213 = LINE('',#214,#215);
#214 = CARTESIAN_POINT('',(-24.,169.71394289005,169.1));
#215 = VECTOR('',#216,1.);
#216 = DIRECTION('',(-1.,-0.,-0.));
#217 = PCURVE('',#36,#218);
#218 = DEFINITIONAL_REPRESENTATION('',(#219),#222);
#219 = B_SPLINE_CURVE_WITH_KNOTS('',1,(#220,#221),.UNSPECIFIED.,.F.,.F.,
  (2,2),(-2.8,5.999999999062E-07),.PIECEWISE_BEZIER_KNOTS.);
#220 = CARTESIAN_POINT('',(-3.608357992637,-2.8));
#221 = CARTESIAN_POINT('',(-3.608357992637,5.999999999062E-07));
#222 = ( GEOMETRIC_REPRESENTATION_CONTEXT(2) 
PARAMETRIC_REPRESENTATION_CONTEXT() REPRESENTATION_CONTEXT('2D SPACE',''
  ) );
#223 = PCURVE('',#169,#224);
#224 = DEFINITIONAL_REPRESENTATION('',(#225),#228);
#225 = B_SPLINE_CURVE_WITH_KNOTS('',1,(#226,#227),.UNSPECIFIED.,.F.,.F.,
  (2,2),(-2.8,5.999999999062E-07),.PIECEWISE_BEZIER_KNOTS.);
#226 = CARTESIAN_POINT('',(10.8,-1.786057109949));
#227 = CARTESIAN_POINT('',(7.9999994,-1.786057109949));
#228 = ( GEOMETRIC_REPRESENTATION_CONTEXT(2) 
PARAMETRIC_REPRESENTATION_CONTEXT() REPRESENTATION_CONTEXT('2D SPACE',''
  ) );
#229 = ORIENTED_EDGE('',*,*,#230,.F.);
#230 = EDGE_CURVE('',#231,#210,#233,.T.);
#231 = VERTEX_POINT('',#232);
#232 = CARTESIAN_POINT('',(-23.179002324,169.71394289005,170.9));
#233 = SURFACE_CURVE('',#234,(#252,#273),.PCURVE_S1.);
#234 = B_SPLINE_CURVE_WITH_KNOTS('',6,(#235,#236,#237,#238,#239,#240,
    #241,#242,#243,#244,#245,#246,#247,#248,#249,#250,#251),
  .UNSPECIFIED.,.F.,.F.,(7,5,5,7),(0.,0.500013692793,0.864199538855,1.),
  .UNSPECIFIED.);
#235 = CARTESIAN_POINT('',(-23.17900226278,169.71394319239,170.9000006)
  );
#236 = CARTESIAN_POINT('',(-23.19358539858,169.64191983492,
    170.75706979761));
#237 = CARTESIAN_POINT('',(-23.20587373383,169.58485827113,
    170.60967567982));
#238 = CARTESIAN_POINT('',(-23.21538176365,169.5423564359,
    170.45921618979));
#239 = CARTESIAN_POINT('',(-23.22181675501,169.51412259627,
    170.30680748068));
#240 = CARTESIAN_POINT('',(-23.2250356126,169.5,170.15341940979));
#241 = CARTESIAN_POINT('',(-23.2250356126,169.5,169.88825670503));
#242 = CARTESIAN_POINT('',(-23.22332795832,169.50749191804,
    169.77651989229));
#243 = CARTESIAN_POINT('',(-23.21991342589,169.52247420726,
    169.66516305139));
#244 = CARTESIAN_POINT('',(-23.21483210671,169.54498867991,
    169.55456417017));
#245 = CARTESIAN_POINT('',(-23.20816721744,169.57511674936,
    169.44513065033));
#246 = CARTESIAN_POINT('',(-23.19702169223,169.62709280252,
    169.29712452093));
#247 = CARTESIAN_POINT('',(-23.19379235223,169.64228511999,
    169.25715039562));
#248 = CARTESIAN_POINT('',(-23.19036758072,169.65855893946,
    169.21742529871));
#249 = CARTESIAN_POINT('',(-23.18675504694,169.67592128482,
    169.17797406215));
#250 = CARTESIAN_POINT('',(-23.18296339879,169.69437988867,
    169.13882289831));
#251 = CARTESIAN_POINT('',(-23.17900226278,169.71394319239,169.0999994)
  );
#252 = PCURVE('',#36,#253);
#253 = DEFINITIONAL_REPRESENTATION('',(#254),#272);
#254 = B_SPLINE_CURVE_WITH_KNOTS('',6,(#255,#256,#257,#258,#259,#260,
    #261,#262,#263,#264,#265,#266,#267,#268,#269,#270,#271),
  .UNSPECIFIED.,.F.,.F.,(7,5,5,7),(0.,0.500013692793,0.864199538855,1.),
  .UNSPECIFIED.);
#255 = CARTESIAN_POINT('',(-2.674826978607,-0.820997737218));
#256 = CARTESIAN_POINT('',(-2.754852877994,-0.806414601416));
#257 = CARTESIAN_POINT('',(-2.833505423488,-0.794126266163));
#258 = CARTESIAN_POINT('',(-2.911172529883,-0.784618236346));
#259 = CARTESIAN_POINT('',(-2.988188786673,-0.778183244983));
#260 = CARTESIAN_POINT('',(-3.064882948692,-0.774964387392));
#261 = CARTESIAN_POINT('',(-3.197464301071,-0.774964387392));
#262 = CARTESIAN_POINT('',(-3.253332657877,-0.776672041678));
#263 = CARTESIAN_POINT('',(-3.309325131904,-0.780086574104));
#264 = CARTESIAN_POINT('',(-3.365566195279,-0.785167893282));
#265 = CARTESIAN_POINT('',(-3.422183478379,-0.791832782552));
#266 = CARTESIAN_POINT('',(-3.50061708795,-0.80297830777));
#267 = CARTESIAN_POINT('',(-3.521992056208,-0.806207647761));
#268 = CARTESIAN_POINT('',(-3.54344604675,-0.809632419278));
#269 = CARTESIAN_POINT('',(-3.564986564052,-0.813244953056));
#270 = CARTESIAN_POINT('',(-3.586621338935,-0.817036601208));
#271 = CARTESIAN_POINT('',(-3.608358328573,-0.820997737218));
#272 = ( GEOMETRIC_REPRESENTATION_CONTEXT(2) 
PARAMETRIC_REPRESENTATION_CONTEXT() REPRESENTATION_CONTEXT('2D SPACE',''
  ) );
#273 = PCURVE('',#52,#274);
#274 = DEFINITIONAL_REPRESENTATION('',(#275),#293);
#275 = B_SPLINE_CURVE_WITH_KNOTS('',6,(#276,#277,#278,#279,#280,#281,
    #282,#283,#284,#285,#286,#287,#288,#289,#290,#291,#292),
  .UNSPECIFIED.,.F.,.F.,(7,5,5,7),(0.,0.500013692793,0.864199538855,1.),
  .UNSPECIFIED.);
#276 = CARTESIAN_POINT('',(-6.083408322085,-1.8000006));
#277 = CARTESIAN_POINT('',(-6.075243332182,-1.657069797616));
#278 = CARTESIAN_POINT('',(-6.068758298738,-1.509675679829));
#279 = CARTESIAN_POINT('',(-6.063919172427,-1.359216189793));
#280 = CARTESIAN_POINT('',(-6.060701635761,-1.206807480684));
#281 = CARTESIAN_POINT('',(-6.059092214878,-1.053419409795));
#282 = CARTESIAN_POINT('',(-6.059092214878,-0.788256705039));
#283 = CARTESIAN_POINT('',(-6.059945994649,-0.676519892293));
#284 = CARTESIAN_POINT('',(-6.061653394587,-0.565163051392));
#285 = CARTESIAN_POINT('',(-6.064217902115,-0.454564170173));
#286 = CARTESIAN_POINT('',(-6.067646331903,-0.34513065033));
#287 = CARTESIAN_POINT('',(-6.073552734407,-0.197124520934));
#288 = CARTESIAN_POINT('',(-6.075278481916,-0.157150395627));
#289 = CARTESIAN_POINT('',(-6.077126284317,-0.117425298711));
#290 = CARTESIAN_POINT('',(-6.079096740253,-7.797406215008E-02));
#291 = CARTESIAN_POINT('',(-6.081190511323,-3.882289831905E-02));
#292 = CARTESIAN_POINT('',(-6.083408322085,5.999999999062E-07));
#293 = ( GEOMETRIC_REPRESENTATION_CONTEXT(2) 
PARAMETRIC_REPRESENTATION_CONTEXT() REPRESENTATION_CONTEXT('2D SPACE',''
  ) );
#294 = ORIENTED_EDGE('',*,*,#295,.T.);
#295 = EDGE_CURVE('',#231,#296,#298,.T.);
#296 = VERTEX_POINT('',#297);
#297 = CARTESIAN_POINT('',(-24.,169.71394289005,170.9));
#298 = SURFACE_CURVE('',#299,(#303,#309),.PCURVE_S1.);
#299 = LINE('',#300,#301);
#300 = CARTESIAN_POINT('',(-24.,169.71394289005,170.9));
#301 = VECTOR('',#302,1.);
#302 = DIRECTION('',(-1.,-0.,-0.));
#303 = PCURVE('',#36,#304);
#304 = DEFINITIONAL_REPRESENTATION('',(#305),#308);
#305 = B_SPLINE_CURVE_WITH_KNOTS('',1,(#306,#307),.UNSPECIFIED.,.F.,.F.,
  (2,2),(-2.8,5.999999999062E-07),.PIECEWISE_BEZIER_KNOTS.);
#306 = CARTESIAN_POINT('',(-2.674827314542,-2.8));
#307 = CARTESIAN_POINT('',(-2.674827314542,5.999999999062E-07));
#308 = ( GEOMETRIC_REPRESENTATION_CONTEXT(2) 
PARAMETRIC_REPRESENTATION_CONTEXT() REPRESENTATION_CONTEXT('2D SPACE',''
  ) );
#309 = PCURVE('',#310,#315);
#310 = PLANE('',#311);
#311 = AXIS2_PLACEMENT_3D('',#312,#313,#314);
#312 = CARTESIAN_POINT('',(-32.,171.5,170.9));
#313 = DIRECTION('',(0.,0.,1.));
#314 = DIRECTION('',(1.,0.,-0.));
#315 = DEFINITIONAL_REPRESENTATION('',(#316),#319);
#316 = B_SPLINE_CURVE_WITH_KNOTS('',1,(#317,#318),.UNSPECIFIED.,.F.,.F.,
  (2,2),(-2.8,5.999999999062E-07),.PIECEWISE_BEZIER_KNOTS.);
#317 = CARTESIAN_POINT('',(10.8,-1.786057109949));
#318 = CARTESIAN_POINT('',(7.9999994,-1.786057109949));
#319 = ( GEOMETRIC_REPRESENTATION_CONTEXT(2) 
PARAMETRIC_REPRESENTATION_CONTEXT() REPRESENTATION_CONTEXT('2D SPACE',''
  ) );
#320 = ORIENTED_EDGE('',*,*,#321,.F.);
#321 = EDGE_CURVE('',#322,#296,#324,.T.);
#322 = VERTEX_POINT('',#323);
#323 = CARTESIAN_POINT('',(-24.,173.28605710994,170.9));
#324 = SURFACE_CURVE('',#325,(#330,#337),.PCURVE_S1.);
#325 = CIRCLE('',#326,2.);
#326 = AXIS2_PLACEMENT_3D('',#327,#328,#329);
#327 = CARTESIAN_POINT('',(-24.,171.5,170.));
#328 = DIRECTION('',(1.,0.,0.));
#329 = DIRECTION('',(0.,1.,0.));
#330 = PCURVE('',#36,#331);
#331 = DEFINITIONAL_REPRESENTATION('',(#332),#336);
#332 = LINE('',#333,#334);
#333 = CARTESIAN_POINT('',(-0.,0.));
#334 = VECTOR('',#335,1.);
#335 = DIRECTION('',(-1.,0.));
#336 = ( GEOMETRIC_REPRESENTATION_CONTEXT(2) 
PARAMETRIC_REPRESENTATION_CONTEXT() REPRESENTATION_CONTEXT('2D SPACE',''
  ) );
#337 = PCURVE('',#338,#343);
#338 = PLANE('',#339);
#339 = AXIS2_PLACEMENT_3D('',#340,#341,#342);
#340 = CARTESIAN_POINT('',(-24.,171.5,170.));
#341 = DIRECTION('',(1.,0.,0.));
#342 = DIRECTION('',(-0.,0.,1.));
#343 = DEFINITIONAL_REPRESENTATION('',(#344),#348);
#344 = CIRCLE('',#345,2.);
#345 = AXIS2_PLACEMENT_2D('',#346,#347);
#346 = CARTESIAN_POINT('',(2.84217094304E-14,2.84217094304E-14));
#347 = DIRECTION('',(0.,-1.));
#348 = ( GEOMETRIC_REPRESENTATION_CONTEXT(2) 
PARAMETRIC_REPRESENTATION_CONTEXT() REPRESENTATION_CONTEXT('2D SPACE',''
  ) );
#349 = ORIENTED_EDGE('',*,*,#350,.F.);
#350 = EDGE_CURVE('',#24,#322,#351,.T.);
#351 = SURFACE_CURVE('',#352,(#356,#362),.PCURVE_S1.);
#352 = LINE('',#353,#354);
#353 = CARTESIAN_POINT('',(-24.,173.28605710994,170.9));
#354 = VECTOR('',#355,1.);
#355 = DIRECTION('',(-1.,-0.,-0.));
#356 = PCURVE('',#36,#357);
#357 = DEFINITIONAL_REPRESENTATION('',(#358),#361);
#358 = B_SPLINE_CURVE_WITH_KNOTS('',1,(#359,#360),.UNSPECIFIED.,.F.,.F.,
  (2,2),(-2.8,5.999999999062E-07),.PIECEWISE_BEZIER_KNOTS.);
#359 = CARTESIAN_POINT('',(-0.466765339047,-2.8));
#360 = CARTESIAN_POINT('',(-0.466765339047,5.999999999062E-07));
#361 = ( GEOMETRIC_REPRESENTATION_CONTEXT(2) 
PARAMETRIC_REPRESENTATION_CONTEXT() REPRESENTATION_CONTEXT('2D SPACE',''
  ) );
#362 = PCURVE('',#310,#363);
#363 = DEFINITIONAL_REPRESENTATION('',(#364),#367);
#364 = B_SPLINE_CURVE_WITH_KNOTS('',1,(#365,#366),.UNSPECIFIED.,.F.,.F.,
  (2,2),(-2.8,5.999999999062E-07),.PIECEWISE_BEZIER_KNOTS.);
#365 = CARTESIAN_POINT('',(10.8,1.786057109949));
#366 = CARTESIAN_POINT('',(7.9999994,1.786057109949));
#367 = ( GEOMETRIC_REPRESENTATION_CONTEXT(2) 
PARAMETRIC_REPRESENTATION_CONTEXT() REPRESENTATION_CONTEXT('2D SPACE',''
  ) );
#368 = ADVANCED_FACE('',(#369),#52,.T.);
#369 = FACE_BOUND('',#370,.F.);
#370 = EDGE_LOOP('',(#371,#393,#394,#395,#417));
#371 = ORIENTED_EDGE('',*,*,#372,.F.);
#372 = EDGE_CURVE('',#120,#210,#373,.T.);
#373 = SURFACE_CURVE('',#374,(#379,#386),.PCURVE_S1.);
#374 = CIRCLE('',#375,9.);
#375 = AXIS2_PLACEMENT_3D('',#376,#377,#378);
#376 = CARTESIAN_POINT('',(-32.,171.5,169.1));
#377 = DIRECTION('',(0.,0.,1.));
#378 = DIRECTION('',(1.,0.,0.));
#379 = PCURVE('',#52,#380);
#380 = DEFINITIONAL_REPRESENTATION('',(#381),#385);
#381 = LINE('',#382,#383);
#382 = CARTESIAN_POINT('',(-0.,0.));
#383 = VECTOR('',#384,1.);
#384 = DIRECTION('',(-1.,0.));
#385 = ( GEOMETRIC_REPRESENTATION_CONTEXT(2) 
PARAMETRIC_REPRESENTATION_CONTEXT() REPRESENTATION_CONTEXT('2D SPACE',''
  ) );
#386 = PCURVE('',#169,#387);
#387 = DEFINITIONAL_REPRESENTATION('',(#388),#392);
#388 = CIRCLE('',#389,9.);
#389 = AXIS2_PLACEMENT_2D('',#390,#391);
#390 = CARTESIAN_POINT('',(0.,0.));
#391 = DIRECTION('',(1.,0.));
#392 = ( GEOMETRIC_REPRESENTATION_CONTEXT(2) 
PARAMETRIC_REPRESENTATION_CONTEXT() REPRESENTATION_CONTEXT('2D SPACE',''
  ) );
#393 = ORIENTED_EDGE('',*,*,#119,.T.);
#394 = ORIENTED_EDGE('',*,*,#21,.T.);
#395 = ORIENTED_EDGE('',*,*,#396,.T.);
#396 = EDGE_CURVE('',#24,#231,#397,.T.);
#397 = SURFACE_CURVE('',#398,(#403,#410),.PCURVE_S1.);
#398 = CIRCLE('',#399,9.);
#399 = AXIS2_PLACEMENT_3D('',#400,#401,#402);
#400 = CARTESIAN_POINT('',(-32.,171.5,170.9));
#401 = DIRECTION('',(0.,0.,1.));
#402 = DIRECTION('',(1.,0.,0.));
#403 = PCURVE('',#52,#404);
#404 = DEFINITIONAL_REPRESENTATION('',(#405),#409);
#405 = LINE('',#406,#407);
#406 = CARTESIAN_POINT('',(-0.,-1.8));
#407 = VECTOR('',#408,1.);
#408 = DIRECTION('',(-1.,0.));
#409 = ( GEOMETRIC_REPRESENTATION_CONTEXT(2) 
PARAMETRIC_REPRESENTATION_CONTEXT() REPRESENTATION_CONTEXT('2D SPACE',''
  ) );
#410 = PCURVE('',#310,#411);
#411 = DEFINITIONAL_REPRESENTATION('',(#412),#416);
#412 = CIRCLE('',#413,9.);
#413 = AXIS2_PLACEMENT_2D('',#414,#415);
#414 = CARTESIAN_POINT('',(0.,0.));
#415 = DIRECTION('',(1.,0.));
#416 = ( GEOMETRIC_REPRESENTATION_CONTEXT(2) 
PARAMETRIC_REPRESENTATION_CONTEXT() REPRESENTATION_CONTEXT('2D SPACE',''
  ) );
#417 = ORIENTED_EDGE('',*,*,#230,.T.);
#418 = ADVANCED_FACE('',(#419,#443),#310,.T.);
#419 = FACE_BOUND('',#420,.T.);
#420 = EDGE_LOOP('',(#421,#422,#423,#424));
#421 = ORIENTED_EDGE('',*,*,#350,.F.);
#422 = ORIENTED_EDGE('',*,*,#396,.T.);
#423 = ORIENTED_EDGE('',*,*,#295,.T.);
#424 = ORIENTED_EDGE('',*,*,#425,.F.);
#425 = EDGE_CURVE('',#322,#296,#426,.T.);
#426 = SURFACE_CURVE('',#427,(#431,#437),.PCURVE_S1.);
#427 = LINE('',#428,#429);
#428 = CARTESIAN_POINT('',(-24.,171.5,170.9));
#429 = VECTOR('',#430,1.);
#430 = DIRECTION('',(0.,-1.,0.));
#431 = PCURVE('',#310,#432);
#432 = DEFINITIONAL_REPRESENTATION('',(#433),#436);
#433 = B_SPLINE_CURVE_WITH_KNOTS('',1,(#434,#435),.UNSPECIFIED.,.F.,.F.,
  (2,2),(-2.,2.),.PIECEWISE_BEZIER_KNOTS.);
#434 = CARTESIAN_POINT('',(8.,2.));
#435 = CARTESIAN_POINT('',(8.,-2.));
#436 = ( GEOMETRIC_REPRESENTATION_CONTEXT(2) 
PARAMETRIC_REPRESENTATION_CONTEXT() REPRESENTATION_CONTEXT('2D SPACE',''
  ) );
#437 = PCURVE('',#338,#438);
#438 = DEFINITIONAL_REPRESENTATION('',(#439),#442);
#439 = B_SPLINE_CURVE_WITH_KNOTS('',1,(#440,#441),.UNSPECIFIED.,.F.,.F.,
  (2,2),(-2.,2.),.PIECEWISE_BEZIER_KNOTS.);
#440 = CARTESIAN_POINT('',(0.9,-2.));
#441 = CARTESIAN_POINT('',(0.9,2.));
#442 = ( GEOMETRIC_REPRESENTATION_CONTEXT(2) 
PARAMETRIC_REPRESENTATION_CONTEXT() REPRESENTATION_CONTEXT('2D SPACE',''
  ) );
#443 = FACE_BOUND('',#444,.T.);
#444 = EDGE_LOOP('',(#445));
#445 = ORIENTED_EDGE('',*,*,#446,.F.);
#446 = EDGE_CURVE('',#447,#447,#449,.T.);
#447 = VERTEX_POINT('',#448);
#448 = CARTESIAN_POINT('',(-24.8,171.5,170.9));
#449 = SURFACE_CURVE('',#450,(#455,#462),.PCURVE_S1.);
#450 = CIRCLE('',#451,7.2);
#451 = AXIS2_PLACEMENT_3D('',#452,#453,#454);
#452 = CARTESIAN_POINT('',(-32.,171.5,170.9));
#453 = DIRECTION('',(0.,0.,1.));
#454 = DIRECTION('',(1.,0.,0.));
#455 = PCURVE('',#310,#456);
#456 = DEFINITIONAL_REPRESENTATION('',(#457),#461);
#457 = CIRCLE('',#458,7.2);
#458 = AXIS2_PLACEMENT_2D('',#459,#460);
#459 = CARTESIAN_POINT('',(4.263256414561E-14,0.));
#460 = DIRECTION('',(1.,0.));
#461 = ( GEOMETRIC_REPRESENTATION_CONTEXT(2) 
PARAMETRIC_REPRESENTATION_CONTEXT() REPRESENTATION_CONTEXT('2D SPACE',''
  ) );
#462 = PCURVE('',#463,#468);
#463 = CYLINDRICAL_SURFACE('',#464,7.2);
#464 = AXIS2_PLACEMENT_3D('',#465,#466,#467);
#465 = CARTESIAN_POINT('',(-32.,171.5,169.1));
#466 = DIRECTION('',(-0.,-0.,-1.));
#467 = DIRECTION('',(1.,0.,0.));
#468 = DEFINITIONAL_REPRESENTATION('',(#469),#473);
#469 = LINE('',#470,#471);
#470 = CARTESIAN_POINT('',(-0.,-1.8));
#471 = VECTOR('',#472,1.);
#472 = DIRECTION('',(-1.,0.));
#473 = ( GEOMETRIC_REPRESENTATION_CONTEXT(2) 
PARAMETRIC_REPRESENTATION_CONTEXT() REPRESENTATION_CONTEXT('2D SPACE',''
  ) );
#474 = ADVANCED_FACE('',(#475),#338,.F.);
#475 = FACE_BOUND('',#476,.F.);
#476 = EDGE_LOOP('',(#477,#478));
#477 = ORIENTED_EDGE('',*,*,#425,.F.);
#478 = ORIENTED_EDGE('',*,*,#321,.T.);
#479 = ADVANCED_FACE('',(#480,#504),#169,.F.);
#480 = FACE_BOUND('',#481,.F.);
#481 = EDGE_LOOP('',(#482,#483,#484,#485));
#482 = ORIENTED_EDGE('',*,*,#154,.F.);
#483 = ORIENTED_EDGE('',*,*,#372,.T.);
#484 = ORIENTED_EDGE('',*,*,#209,.T.);
#485 = ORIENTED_EDGE('',*,*,#486,.F.);
#486 = EDGE_CURVE('',#155,#181,#487,.T.);
#487 = SURFACE_CURVE('',#488,(#492,#498),.PCURVE_S1.);
#488 = LINE('',#489,#490);
#489 = CARTESIAN_POINT('',(-24.,171.5,169.1));
#490 = VECTOR('',#491,1.);
#491 = DIRECTION('',(0.,-1.,0.));
#492 = PCURVE('',#169,#493);
#493 = DEFINITIONAL_REPRESENTATION('',(#494),#497);
#494 = B_SPLINE_CURVE_WITH_KNOTS('',1,(#495,#496),.UNSPECIFIED.,.F.,.F.,
  (2,2),(-2.,2.),.PIECEWISE_BEZIER_KNOTS.);
#495 = CARTESIAN_POINT('',(8.,2.));
#496 = CARTESIAN_POINT('',(8.,-2.));
#497 = ( GEOMETRIC_REPRESENTATION_CONTEXT(2) 
PARAMETRIC_REPRESENTATION_CONTEXT() REPRESENTATION_CONTEXT('2D SPACE',''
  ) );
#498 = PCURVE('',#197,#499);
#499 = DEFINITIONAL_REPRESENTATION('',(#500),#503);
#500 = B_SPLINE_CURVE_WITH_KNOTS('',1,(#501,#502),.UNSPECIFIED.,.F.,.F.,
  (2,2),(-2.,2.),.PIECEWISE_BEZIER_KNOTS.);
#501 = CARTESIAN_POINT('',(-0.9,-2.));
#502 = CARTESIAN_POINT('',(-0.9,2.));
#503 = ( GEOMETRIC_REPRESENTATION_CONTEXT(2) 
PARAMETRIC_REPRESENTATION_CONTEXT() REPRESENTATION_CONTEXT('2D SPACE',''
  ) );
#504 = FACE_BOUND('',#505,.F.);
#505 = EDGE_LOOP('',(#506));
#506 = ORIENTED_EDGE('',*,*,#507,.F.);
#507 = EDGE_CURVE('',#508,#508,#510,.T.);
#508 = VERTEX_POINT('',#509);
#509 = CARTESIAN_POINT('',(-24.8,171.5,169.1));
#510 = SURFACE_CURVE('',#511,(#516,#523),.PCURVE_S1.);
#511 = CIRCLE('',#512,7.2);
#512 = AXIS2_PLACEMENT_3D('',#513,#514,#515);
#513 = CARTESIAN_POINT('',(-32.,171.5,169.1));
#514 = DIRECTION('',(0.,0.,1.));
#515 = DIRECTION('',(1.,0.,0.));
#516 = PCURVE('',#169,#517);
#517 = DEFINITIONAL_REPRESENTATION('',(#518),#522);
#518 = CIRCLE('',#519,7.2);
#519 = AXIS2_PLACEMENT_2D('',#520,#521);
#520 = CARTESIAN_POINT('',(4.263256414561E-14,0.));
#521 = DIRECTION('',(1.,0.));
#522 = ( GEOMETRIC_REPRESENTATION_CONTEXT(2) 
PARAMETRIC_REPRESENTATION_CONTEXT() REPRESENTATION_CONTEXT('2D SPACE',''
  ) );
#523 = PCURVE('',#463,#524);
#524 = DEFINITIONAL_REPRESENTATION('',(#525),#529);
#525 = LINE('',#526,#527);
#526 = CARTESIAN_POINT('',(-0.,0.));
#527 = VECTOR('',#528,1.);
#528 = DIRECTION('',(-1.,0.));
#529 = ( GEOMETRIC_REPRESENTATION_CONTEXT(2) 
PARAMETRIC_REPRESENTATION_CONTEXT() REPRESENTATION_CONTEXT('2D SPACE',''
  ) );
#530 = ADVANCED_FACE('',(#531),#197,.F.);
#531 = FACE_BOUND('',#532,.F.);
#532 = EDGE_LOOP('',(#533,#534));
#533 = ORIENTED_EDGE('',*,*,#180,.T.);
#534 = ORIENTED_EDGE('',*,*,#486,.T.);
#535 = ADVANCED_FACE('',(#536),#106,.T.);
#536 = FACE_BOUND('',#537,.T.);
#537 = EDGE_LOOP('',(#538));
#538 = ORIENTED_EDGE('',*,*,#91,.T.);
#539 = ADVANCED_FACE('',(#540),#463,.F.);
#540 = FACE_BOUND('',#541,.T.);
#541 = EDGE_LOOP('',(#542,#563,#564,#565));
#542 = ORIENTED_EDGE('',*,*,#543,.T.);
#543 = EDGE_CURVE('',#508,#447,#544,.T.);
#544 = SEAM_CURVE('',#545,(#549,#556),.PCURVE_S1.);
#545 = LINE('',#546,#547);
#546 = CARTESIAN_POINT('',(-24.8,171.5,169.1));
#547 = VECTOR('',#548,1.);
#548 = DIRECTION('',(0.,0.,1.));
#549 = PCURVE('',#463,#550);
#550 = DEFINITIONAL_REPRESENTATION('',(#551),#555);
#551 = LINE('',#552,#553);
#552 = CARTESIAN_POINT('',(-0.,0.));
#553 = VECTOR('',#554,1.);
#554 = DIRECTION('',(-0.,-1.));
#555 = ( GEOMETRIC_REPRESENTATION_CONTEXT(2) 
PARAMETRIC_REPRESENTATION_CONTEXT() REPRESENTATION_CONTEXT('2D SPACE',''
  ) );
#556 = PCURVE('',#463,#557);
#557 = DEFINITIONAL_REPRESENTATION('',(#558),#562);
#558 = LINE('',#559,#560);
#559 = CARTESIAN_POINT('',(-6.28318530718,0.));
#560 = VECTOR('',#561,1.);
#561 = DIRECTION('',(-0.,-1.));
#562 = ( GEOMETRIC_REPRESENTATION_CONTEXT(2) 
PARAMETRIC_REPRESENTATION_CONTEXT() REPRESENTATION_CONTEXT('2D SPACE',''
  ) );
#563 = ORIENTED_EDGE('',*,*,#446,.T.);
#564 = ORIENTED_EDGE('',*,*,#543,.F.);
#565 = ORIENTED_EDGE('',*,*,#507,.F.);
#566 = ( GEOMETRIC_REPRESENTATION_CONTEXT(3) 
GLOBAL_UNCERTAINTY_ASSIGNED_CONTEXT((#570)) GLOBAL_UNIT_ASSIGNED_CONTEXT
((#567,#568,#569)) REPRESENTATION_CONTEXT('Context #1',
  '3D Context with UNIT and UNCERTAINTY') );
#567 = ( LENGTH_UNIT() NAMED_UNIT(*) SI_UNIT(.MILLI.,.METRE.) );
#568 = ( NAMED_UNIT(*) PLANE_ANGLE_UNIT() SI_UNIT($,.RADIAN.) );
#569 = ( NAMED_UNIT(*) SI_UNIT($,.STERADIAN.) SOLID_ANGLE_UNIT() );
#570 = UNCERTAINTY_MEASURE_WITH_UNIT(LENGTH_MEASURE(1.E-07),#567,
  'distance_accuracy_value','confusion accuracy');
#571 = PRODUCT_RELATED_PRODUCT_CATEGORY('part',$,(#7));
ENDSEC;
END-ISO-10303-21;
