ISO-10303-21;
HEADER;
FILE_DESCRIPTION(('Open CASCADE Model'),'2;1');
FILE_NAME('Open CASCADE Shape Model','2026-09-21T16:09:31',('Author'),(
    'Open CASCADE'),'Open CASCADE STEP processor 7.9','Open CASCADE 7.9'
  ,'Unknown');
FILE_SCHEMA(('AUTOMOTIVE_DESIGN { 1 0 10303 214 1 1 1 1 }'));
ENDSEC;
DATA;
#1 = APPLICATION_PROTOCOL_DEFINITION('international standard',
  'automotive_design',2000,#2);
#2 = APPLICATION_CONTEXT(
  'core data for automotive mechanical design processes');
#3 = SHAPE_DEFINITION_REPRESENTATION(#4,#10);
#4 = PRODUCT_DEFINITION_SHAPE('','',#5);
#5 = PRODUCT_DEFINITION('design','',#6,#9);
#6 = PRODUCT_DEFINITION_FORMATION('','',#7);
#7 = PRODUCT('Open CASCADE STEP translator 7.9 14',
  'Open CASCADE STEP translator 7.9 14','',(#8));
#8 = PRODUCT_CONTEXT('',#2,'mechanical');
#9 = PRODUCT_DEFINITION_CONTEXT('part definition',#2,'design');
#10 = ADVANCED_BREP_SHAPE_REPRESENTATION('',(#11,#15),#1327);
#11 = AXIS2_PLACEMENT_3D('',#12,#13,#14);
#12 = CARTESIAN_POINT('',(0.,0.,0.));
#13 = DIRECTION('',(0.,0.,1.));
#14 = DIRECTION('',(1.,0.,-0.));
#15 = MANIFOLD_SOLID_BREP('',#16);
#16 = CLOSED_SHELL('',(#17,#588,#627,#1076,#1080,#1135,#1221,#1225,#1264
    ,#1268,#1323));
#17 = ADVANCED_FACE('',(#18),#31,.T.);
#18 = FACE_BOUND('',#19,.F.);
#19 = EDGE_LOOP('',(#20,#54,#77,#192,#302,#325,#352,#353,#587));
#20 = ORIENTED_EDGE('',*,*,#21,.F.);
#21 = EDGE_CURVE('',#22,#22,#24,.T.);
#22 = VERTEX_POINT('',#23);
#23 = CARTESIAN_POINT('',(-42.,340.,162.7));
#24 = SURFACE_CURVE('',#25,(#30,#42),.PCURVE_S1.);
#25 = CIRCLE('',#26,6.);
#26 = AXIS2_PLACEMENT_3D('',#27,#28,#29);
#27 = CARTESIAN_POINT('',(-48.,340.,162.7));
#28 = DIRECTION('',(0.,0.,1.));
#29 = DIRECTION('',(1.,0.,0.));
#30 = PCURVE('',#31,#36);
#31 = CYLINDRICAL_SURFACE('',#32,6.);
#32 = AXIS2_PLACEMENT_3D('',#33,#34,#35);
#33 = CARTESIAN_POINT('',(-48.,340.,162.7));
#34 = DIRECTION('',(-0.,-0.,-1.));
#35 = DIRECTION('',(1.,0.,0.));
#36 = DEFINITIONAL_REPRESENTATION('',(#37),#41);
#37 = LINE('',#38,#39);
#38 = CARTESIAN_POINT('',(-0.,0.));
#39 = VECTOR('',#40,1.);
#40 = DIRECTION('',(-1.,0.));
#41 = ( GEOMETRIC_REPRESENTATION_CONTEXT(2) 
PARAMETRIC_REPRESENTATION_CONTEXT() REPRESENTATION_CONTEXT('2D SPACE',''
  ) );
#42 = PCURVE('',#43,#48);
#43 = PLANE('',#44);
#44 = AXIS2_PLACEMENT_3D('',#45,#46,#47);
#45 = CARTESIAN_POINT('',(-48.,340.,162.7));
#46 = DIRECTION('',(0.,0.,1.));
#47 = DIRECTION('',(1.,0.,-0.));
#48 = DEFINITIONAL_REPRESENTATION('',(#49),#53);
#49 = CIRCLE('',#50,6.);
#50 = AXIS2_PLACEMENT_2D('',#51,#52);
#51 = CARTESIAN_POINT('',(0.,5.684341886081E-14));
#52 = DIRECTION('',(1.,0.));
#53 = ( GEOMETRIC_REPRESENTATION_CONTEXT(2) 
PARAMETRIC_REPRESENTATION_CONTEXT() REPRESENTATION_CONTEXT('2D SPACE',''
  ) );
#54 = ORIENTED_EDGE('',*,*,#55,.T.);
#55 = EDGE_CURVE('',#22,#56,#58,.T.);
#56 = VERTEX_POINT('',#57);
#57 = CARTESIAN_POINT('',(-42.,340.,199.49999999999));
#58 = SEAM_CURVE('',#59,(#63,#70),.PCURVE_S1.);
#59 = LINE('',#60,#61);
#60 = CARTESIAN_POINT('',(-42.,340.,162.7));
#61 = VECTOR('',#62,1.);
#62 = DIRECTION('',(0.,0.,1.));
#63 = PCURVE('',#31,#64);
#64 = DEFINITIONAL_REPRESENTATION('',(#65),#69);
#65 = LINE('',#66,#67);
#66 = CARTESIAN_POINT('',(-6.28318530718,0.));
#67 = VECTOR('',#68,1.);
#68 = DIRECTION('',(-0.,-1.));
#69 = ( GEOMETRIC_REPRESENTATION_CONTEXT(2) 
PARAMETRIC_REPRESENTATION_CONTEXT() REPRESENTATION_CONTEXT('2D SPACE',''
  ) );
#70 = PCURVE('',#31,#71);
#71 = DEFINITIONAL_REPRESENTATION('',(#72),#76);
#72 = LINE('',#73,#74);
#73 = CARTESIAN_POINT('',(-0.,0.));
#74 = VECTOR('',#75,1.);
#75 = DIRECTION('',(-0.,-1.));
#76 = ( GEOMETRIC_REPRESENTATION_CONTEXT(2) 
PARAMETRIC_REPRESENTATION_CONTEXT() REPRESENTATION_CONTEXT('2D SPACE',''
  ) );
#77 = ORIENTED_EDGE('',*,*,#78,.T.);
#78 = EDGE_CURVE('',#56,#79,#81,.T.);
#79 = VERTEX_POINT('',#80);
#80 = CARTESIAN_POINT('',(-44.68337520964,345.,204.5));
#81 = SURFACE_CURVE('',#82,(#115,#151),.PCURVE_S1.);
#82 = B_SPLINE_CURVE_WITH_KNOTS('',7,(#83,#84,#85,#86,#87,#88,#89,#90,
    #91,#92,#93,#94,#95,#96,#97,#98,#99,#100,#101,#102,#103,#104,#105,
    #106,#107,#108,#109,#110,#111,#112,#113,#114),.UNSPECIFIED.,.F.,.F.,
  (8,6,6,6,6,8),(0.,0.198237254232,0.302027396981,0.575145487955,
    0.831189686132,1.),.UNSPECIFIED.);
#83 = CARTESIAN_POINT('',(-42.,340.,199.5));
#84 = CARTESIAN_POINT('',(-42.,340.29271162795,199.5));
#85 = CARTESIAN_POINT('',(-42.01666009745,340.5825863147,199.51999181772
    ));
#86 = CARTESIAN_POINT('',(-42.04939871235,340.86669447821,
    199.55927919334));
#87 = CARTESIAN_POINT('',(-42.09693401018,341.14215515098,
    199.61647404594));
#88 = CARTESIAN_POINT('',(-42.15730573137,341.40625135838,
    199.68950627609));
#89 = CARTESIAN_POINT('',(-42.22792109491,341.65647862332,
    199.77559583571));
#90 = CARTESIAN_POINT('',(-42.34630772593,342.01306598875,
    199.92123531346));
#91 = CARTESIAN_POINT('',(-42.38917480638,342.13189639758,
    199.97418460573));
#92 = CARTESIAN_POINT('',(-42.43397535181,342.24707445861,
    200.02977786836));
#93 = CARTESIAN_POINT('',(-42.48047757019,342.35866548297,
    200.08778177035));
#94 = CARTESIAN_POINT('',(-42.52846840477,342.46674323289,
    200.14798675799));
#95 = CARTESIAN_POINT('',(-42.57775339542,342.57138969688,
    200.21020708969));
#96 = CARTESIAN_POINT('',(-42.76078966171,342.93927388107,
    200.44288752584));
#97 = CARTESIAN_POINT('',(-42.90140746061,343.18320190998,
    200.62463620878));
#98 = CARTESIAN_POINT('',(-43.0469051978,343.40606252605,200.81673106177
    ));
#99 = CARTESIAN_POINT('',(-43.19492123757,343.60955020838,
    201.01737888465));
#100 = CARTESIAN_POINT('',(-43.34363982011,343.79529194211,
    201.22565637215));
#101 = CARTESIAN_POINT('',(-43.49152994025,343.96465760963,
    201.44137265081));
#102 = CARTESIAN_POINT('',(-43.77306646219,344.26291184421,
    201.87466843378));
#103 = CARTESIAN_POINT('',(-43.90669721789,344.39332139506,
    202.09078366199));
#104 = CARTESIAN_POINT('',(-44.03624401702,344.51065420972,
    202.31359483422));
#105 = CARTESIAN_POINT('',(-44.1598079274,344.61514507258,
    202.54341323675));
#106 = CARTESIAN_POINT('',(-44.2748071826,344.70659061601,
    202.78045366276));
#107 = CARTESIAN_POINT('',(-44.37787477668,344.78454600058,
    203.02491987571));
#108 = CARTESIAN_POINT('',(-44.52272479137,344.89015649043,
    203.44367836362));
#109 = CARTESIAN_POINT('',(-44.57369817481,344.9261007,203.61429804002)
  );
#110 = CARTESIAN_POINT('',(-44.61641039354,344.95534656026,
    203.78800412322));
#111 = CARTESIAN_POINT('',(-44.64951084281,344.9775373411,203.9639601337
    ));
#112 = CARTESIAN_POINT('',(-44.67202503191,344.99247095986,
    204.14156369028));
#113 = CARTESIAN_POINT('',(-44.68337520964,345.,204.32036808713));
#114 = CARTESIAN_POINT('',(-44.68337520964,345.,204.5));
#115 = PCURVE('',#31,#116);
#116 = DEFINITIONAL_REPRESENTATION('',(#117),#150);
#117 = B_SPLINE_CURVE_WITH_KNOTS('',7,(#118,#119,#120,#121,#122,#123,
    #124,#125,#126,#127,#128,#129,#130,#131,#132,#133,#134,#135,#136,
    #137,#138,#139,#140,#141,#142,#143,#144,#145,#146,#147,#148,#149),
  .UNSPECIFIED.,.F.,.F.,(8,6,6,6,6,8),(0.,0.198237254232,0.302027396981,
    0.575145487955,0.831189686132,1.),.UNSPECIFIED.);
#118 = CARTESIAN_POINT('',(0.,-36.8));
#119 = CARTESIAN_POINT('',(-4.878527132636E-02,-36.8));
#120 = CARTESIAN_POINT('',(-9.709777903065E-02,-36.81999181772));
#121 = CARTESIAN_POINT('',(-0.144638581067,-36.85927919334));
#122 = CARTESIAN_POINT('',(-0.191101349316,-36.91647404594));
#123 = CARTESIAN_POINT('',(-0.236158898793,-36.98950627609));
#124 = CARTESIAN_POINT('',(-0.279447522126,-37.07559583571));
#125 = CARTESIAN_POINT('',(-0.342068503611,-37.22123531346));
#126 = CARTESIAN_POINT('',(-0.363115906637,-37.27418460573));
#127 = CARTESIAN_POINT('',(-0.383703386024,-37.32977786836));
#128 = CARTESIAN_POINT('',(-0.403842195349,-37.38778177035));
#129 = CARTESIAN_POINT('',(-0.423543205328,-37.44798675799));
#130 = CARTESIAN_POINT('',(-0.442817315036,-37.51020708969));
#131 = CARTESIAN_POINT('',(-0.5113011022,-37.74288752584));
#132 = CARTESIAN_POINT('',(-0.558139212355,-37.92463620878));
#133 = CARTESIAN_POINT('',(-0.602395534091,-38.11673106177));
#134 = CARTESIAN_POINT('',(-0.64424656129,-38.31737888465));
#135 = CARTESIAN_POINT('',(-0.683844243927,-38.52565637215));
#136 = CARTESIAN_POINT('',(-0.721290602153,-38.74137265081));
#137 = CARTESIAN_POINT('',(-0.789647996623,-39.17466843378));
#138 = CARTESIAN_POINT('',(-0.820741571699,-39.39078366199));
#139 = CARTESIAN_POINT('',(-0.849842167131,-39.61359483422));
#140 = CARTESIAN_POINT('',(-0.876788079715,-39.84341323675));
#141 = CARTESIAN_POINT('',(-0.901263816859,-40.08045366276));
#142 = CARTESIAN_POINT('',(-0.922798556192,-40.32491987571));
#143 = CARTESIAN_POINT('',(-0.952675666681,-40.74367836362));
#144 = CARTESIAN_POINT('',(-0.963069666664,-40.91429804002));
#145 = CARTESIAN_POINT('',(-0.971696329802,-41.08800412322));
#146 = CARTESIAN_POINT('',(-0.978337863217,-41.2639601337));
#147 = CARTESIAN_POINT('',(-0.98284076644,-41.44156369028));
#148 = CARTESIAN_POINT('',(-0.985110783338,-41.62036808713));
#149 = CARTESIAN_POINT('',(-0.985110783338,-41.8));
#150 = ( GEOMETRIC_REPRESENTATION_CONTEXT(2) 
PARAMETRIC_REPRESENTATION_CONTEXT() REPRESENTATION_CONTEXT('2D SPACE',''
  ) );
#151 = PCURVE('',#152,#157);
#152 = CYLINDRICAL_SURFACE('',#153,5.);
#153 = AXIS2_PLACEMENT_3D('',#154,#155,#156);
#154 = CARTESIAN_POINT('',(-48.,340.,204.5));
#155 = DIRECTION('',(-1.,-0.,-0.));
#156 = DIRECTION('',(0.,1.,0.));
#157 = DEFINITIONAL_REPRESENTATION('',(#158),#191);
#158 = B_SPLINE_CURVE_WITH_KNOTS('',7,(#159,#160,#161,#162,#163,#164,
    #165,#166,#167,#168,#169,#170,#171,#172,#173,#174,#175,#176,#177,
    #178,#179,#180,#181,#182,#183,#184,#185,#186,#187,#188,#189,#190),
  .UNSPECIFIED.,.F.,.F.,(8,6,6,6,6,8),(0.,0.198237254232,0.302027396981,
    0.575145487955,0.831189686132,1.),.UNSPECIFIED.);
#159 = CARTESIAN_POINT('',(-4.712388980385,-6.));
#160 = CARTESIAN_POINT('',(-4.770931305976,-6.));
#161 = CARTESIAN_POINT('',(-4.828906242799,-5.983339902545));
#162 = CARTESIAN_POINT('',(-4.886055595624,-5.950601287649));
#163 = CARTESIAN_POINT('',(-4.942102207781,-5.903065989812));
#164 = CARTESIAN_POINT('',(-4.996734105167,-5.842694268628));
#165 = CARTESIAN_POINT('',(-5.04957452127,-5.772078905085));
#166 = CARTESIAN_POINT('',(-5.126610981903,-5.653692274067));
#167 = CARTESIAN_POINT('',(-5.152616823031,-5.61082519362));
#168 = CARTESIAN_POINT('',(-5.178176636075,-5.566024648186));
#169 = CARTESIAN_POINT('',(-5.203310414096,-5.519522429805));
#170 = CARTESIAN_POINT('',(-5.228037567536,-5.47153159523));
#171 = CARTESIAN_POINT('',(-5.252377658017,-5.422246604575));
#172 = CARTESIAN_POINT('',(-5.339436019669,-5.239210338286));
#173 = CARTESIAN_POINT('',(-5.400097225934,-5.098592539386));
#174 = CARTESIAN_POINT('',(-5.458713560758,-4.953094802194));
#175 = CARTESIAN_POINT('',(-5.515648164166,-4.805078762425));
#176 = CARTESIAN_POINT('',(-5.571285163839,-4.656360179886));
#177 = CARTESIAN_POINT('',(-5.626029080717,-4.508470059748));
#178 = CARTESIAN_POINT('',(-5.7312338,-4.22693353781));
#179 = CARTESIAN_POINT('',(-5.781625823023,-4.09330278211));
#180 = CARTESIAN_POINT('',(-5.831853641609,-3.963755982974));
#181 = CARTESIAN_POINT('',(-5.88219060285,-3.840192072599));
#182 = CARTESIAN_POINT('',(-5.932862046496,-3.725192817395));
#183 = CARTESIAN_POINT('',(-5.984083518219,-3.622125223318));
#184 = CARTESIAN_POINT('',(-6.070457645539,-3.477275208624));
#185 = CARTESIAN_POINT('',(-6.105303459802,-3.426301825183));
#186 = CARTESIAN_POINT('',(-6.140486447097,-3.383589606459));
#187 = CARTESIAN_POINT('',(-6.175901466761,-3.350489157189));
#188 = CARTESIAN_POINT('',(-6.211498096204,-3.327974968087));
#189 = CARTESIAN_POINT('',(-6.247258924606,-3.316624790355));
#190 = CARTESIAN_POINT('',(-6.28318530718,-3.316624790355));
#191 = ( GEOMETRIC_REPRESENTATION_CONTEXT(2) 
PARAMETRIC_REPRESENTATION_CONTEXT() REPRESENTATION_CONTEXT('2D SPACE',''
  ) );
#192 = ORIENTED_EDGE('',*,*,#193,.T.);
#193 = EDGE_CURVE('',#79,#194,#196,.T.);
#194 = VERTEX_POINT('',#195);
#195 = CARTESIAN_POINT('',(-42.,340.,209.5));
#196 = SURFACE_CURVE('',#197,(#230,#266),.PCURVE_S1.);
#197 = B_SPLINE_CURVE_WITH_KNOTS('',7,(#198,#199,#200,#201,#202,#203,
    #204,#205,#206,#207,#208,#209,#210,#211,#212,#213,#214,#215,#216,
    #217,#218,#219,#220,#221,#222,#223,#224,#225,#226,#227,#228,#229),
  .UNSPECIFIED.,.F.,.F.,(8,6,6,6,6,8),(0.,0.169021157131,0.424401319452,
    0.699734404194,0.799654273857,1.),.UNSPECIFIED.);
#198 = CARTESIAN_POINT('',(-44.68337520964,345.,204.5));
#199 = CARTESIAN_POINT('',(-44.68337520964,345.,204.67987158408));
#200 = CARTESIAN_POINT('',(-44.67199472681,344.99245085609,
    204.85891079124));
#201 = CARTESIAN_POINT('',(-44.64942126573,344.97747792611,
    205.03674412635));
#202 = CARTESIAN_POINT('',(-44.61623552764,344.95522931504,
    205.21292420227));
#203 = CARTESIAN_POINT('',(-44.5734165531,344.92590785173,
    205.38684708204));
#204 = CARTESIAN_POINT('',(-44.52232092756,344.88987172882,
    205.55767352899));
#205 = CARTESIAN_POINT('',(-44.37747788771,344.78424186383,
    205.97594685514));
#206 = CARTESIAN_POINT('',(-44.27464424519,344.70644785901,
    206.21977671083));
#207 = CARTESIAN_POINT('',(-44.15994479496,344.61523211754,
    206.4562175525));
#208 = CARTESIAN_POINT('',(-44.03671991778,344.51103619344,
    206.68547223271));
#209 = CARTESIAN_POINT('',(-43.90753306564,344.39406192419,
    206.90775443562));
#210 = CARTESIAN_POINT('',(-43.77427139965,344.26407756324,
    207.12337314794));
#211 = CARTESIAN_POINT('',(-43.49194267106,343.96521294464,
    207.55810299172));
#212 = CARTESIAN_POINT('',(-43.34283883156,343.7944942893,
    207.77557880454));
#213 = CARTESIAN_POINT('',(-43.19289586379,343.60713547964,
    207.98549830166));
#214 = CARTESIAN_POINT('',(-43.04367734632,343.40172887097,
    208.18766740456));
#215 = CARTESIAN_POINT('',(-42.89704496403,343.17660182868,
    208.38113376427));
#216 = CARTESIAN_POINT('',(-42.75542869451,342.93001484332,
    208.56404353288));
#217 = CARTESIAN_POINT('',(-42.57362045231,342.56248431847,
    208.79500097576));
#218 = CARTESIAN_POINT('',(-42.52626038952,342.46151691749,
    208.8547677863));
#219 = CARTESIAN_POINT('',(-42.48010899533,342.35736563211,
    208.91265783961));
#220 = CARTESIAN_POINT('',(-42.43534020591,342.24995726413,
    208.96850485286));
#221 = CARTESIAN_POINT('',(-42.39214397201,342.13922567736,
    209.02212204157));
#222 = CARTESIAN_POINT('',(-42.35072637497,342.02511198196,
    209.0733021502));
#223 = CARTESIAN_POINT('',(-42.23227687531,341.67187494208,
    209.2190938257));
#224 = CARTESIAN_POINT('',(-42.16039746262,341.41972442177,
    209.30675320451));
#225 = CARTESIAN_POINT('',(-42.09889514561,341.15342463414,
    209.38116596165));
#226 = CARTESIAN_POINT('',(-42.05042844866,340.87549067183,
    209.43948505245));
#227 = CARTESIAN_POINT('',(-42.01701828273,340.58865972062,
    209.47957838929));
#228 = CARTESIAN_POINT('',(-42.,340.29584140463,209.5));
#229 = CARTESIAN_POINT('',(-42.,340.,209.5));
#230 = PCURVE('',#31,#231);
#231 = DEFINITIONAL_REPRESENTATION('',(#232),#265);
#232 = B_SPLINE_CURVE_WITH_KNOTS('',7,(#233,#234,#235,#236,#237,#238,
    #239,#240,#241,#242,#243,#244,#245,#246,#247,#248,#249,#250,#251,
    #252,#253,#254,#255,#256,#257,#258,#259,#260,#261,#262,#263,#264),
  .UNSPECIFIED.,.F.,.F.,(8,6,6,6,6,8),(0.,0.169021157131,0.424401319452,
    0.699734404194,0.799654273857,1.),.UNSPECIFIED.);
#233 = CARTESIAN_POINT('',(-0.985110783338,-41.8));
#234 = CARTESIAN_POINT('',(-0.985110783338,-41.97987158408));
#235 = CARTESIAN_POINT('',(-0.982834705597,-42.15891079124));
#236 = CARTESIAN_POINT('',(-0.978319947362,-42.33674412635));
#237 = CARTESIAN_POINT('',(-0.97166124189,-42.51292420227));
#238 = CARTESIAN_POINT('',(-0.963012785954,-42.68684708204));
#239 = CARTESIAN_POINT('',(-0.95259331693,-42.85767352899));
#240 = CARTESIAN_POINT('',(-0.922715243136,-43.27594685514));
#241 = CARTESIAN_POINT('',(-0.90122781465,-43.51977671083));
#242 = CARTESIAN_POINT('',(-0.876814947392,-43.7562175525));
#243 = CARTESIAN_POINT('',(-0.849943714496,-43.98547223271));
#244 = CARTESIAN_POINT('',(-0.820927437993,-44.20775443562));
#245 = CARTESIAN_POINT('',(-0.789927134305,-44.42337314794));
#246 = CARTESIAN_POINT('',(-0.721405124207,-44.85810299172));
#247 = CARTESIAN_POINT('',(-0.683656490487,-45.07557880454));
#248 = CARTESIAN_POINT('',(-0.643722345335,-45.28549830167));
#249 = CARTESIAN_POINT('',(-0.601497075059,-45.48766740456));
#250 = CARTESIAN_POINT('',(-0.556824001238,-45.68113376427));
#251 = CARTESIAN_POINT('',(-0.509521612176,-45.86404353288));
#252 = CARTESIAN_POINT('',(-0.441181587375,-46.09500097576));
#253 = CARTESIAN_POINT('',(-0.422598431602,-46.1547677863));
#254 = CARTESIAN_POINT('',(-0.4036191052,-46.21265783961));
#255 = CARTESIAN_POINT('',(-0.384233826102,-46.26850485286));
#256 = CARTESIAN_POINT('',(-0.364432833015,-46.32212204157));
#257 = CARTESIAN_POINT('',(-0.344206044525,-46.3733021502));
#258 = CARTESIAN_POINT('',(-0.282111428032,-46.5190938257));
#259 = CARTESIAN_POINT('',(-0.238458010124,-46.60675320451));
#260 = CARTESIAN_POINT('',(-0.193002726741,-46.68116596165));
#261 = CARTESIAN_POINT('',(-0.146110757726,-46.73948505245));
#262 = CARTESIAN_POINT('',(-9.811001545151E-02,-46.77957838929));
#263 = CARTESIAN_POINT('',(-4.930690077234E-02,-46.8));
#264 = CARTESIAN_POINT('',(0.,-46.8));
#265 = ( GEOMETRIC_REPRESENTATION_CONTEXT(2) 
PARAMETRIC_REPRESENTATION_CONTEXT() REPRESENTATION_CONTEXT('2D SPACE',''
  ) );
#266 = PCURVE('',#152,#267);
#267 = DEFINITIONAL_REPRESENTATION('',(#268),#301);
#268 = B_SPLINE_CURVE_WITH_KNOTS('',7,(#269,#270,#271,#272,#273,#274,
    #275,#276,#277,#278,#279,#280,#281,#282,#283,#284,#285,#286,#287,
    #288,#289,#290,#291,#292,#293,#294,#295,#296,#297,#298,#299,#300),
  .UNSPECIFIED.,.F.,.F.,(8,6,6,6,6,8),(0.,0.169021157131,0.424401319452,
    0.699734404194,0.799654273857,1.),.UNSPECIFIED.);
#269 = CARTESIAN_POINT('',(0.,-3.316624790355));
#270 = CARTESIAN_POINT('',(-3.597431681662E-02,-3.316624790355));
#271 = CARTESIAN_POINT('',(-7.178210691363E-02,-3.328005273188));
#272 = CARTESIAN_POINT('',(-0.107424996896,-3.350578734264));
#273 = CARTESIAN_POINT('',(-0.14288571171,-3.383764472351));
#274 = CARTESIAN_POINT('',(-0.178113785851,-3.426583446895));
#275 = CARTESIAN_POINT('',(-0.213003756617,-3.477679072435));
#276 = CARTESIAN_POINT('',(-0.299284749598,-3.622522112286));
#277 = CARTESIAN_POINT('',(-0.350375925228,-3.725355754801));
#278 = CARTESIAN_POINT('',(-0.400920008667,-3.840055205034));
#279 = CARTESIAN_POINT('',(-0.451131074973,-3.963280082214));
#280 = CARTESIAN_POINT('',(-0.501232882139,-4.092466934354));
#281 = CARTESIAN_POINT('',(-0.55149666895,-4.225728600349));
#282 = CARTESIAN_POINT('',(-0.65700687648,-4.508057328937));
#283 = CARTESIAN_POINT('',(-0.71219204671,-4.657161168437));
#284 = CARTESIAN_POINT('',(-0.768285164319,-4.807104136205));
#285 = CARTESIAN_POINT('',(-0.82570115512,-4.956322653677));
#286 = CARTESIAN_POINT('',(-0.884833830116,-5.102955035962));
#287 = CARTESIAN_POINT('',(-0.946055048173,-5.244571305487));
#288 = CARTESIAN_POINT('',(-1.032869799712,-5.426379547688));
#289 = CARTESIAN_POINT('',(-1.05632764403,-5.473739610475));
#290 = CARTESIAN_POINT('',(-1.080145133685,-5.519891004664));
#291 = CARTESIAN_POINT('',(-1.104339793949,-5.564659794084));
#292 = CARTESIAN_POINT('',(-1.128929026064,-5.607856027985));
#293 = CARTESIAN_POINT('',(-1.153930715614,-5.64927362503));
#294 = CARTESIAN_POINT('',(-1.230358882931,-5.767723124685));
#295 = CARTESIAN_POINT('',(-1.283663291143,-5.839602537375));
#296 = CARTESIAN_POINT('',(-1.338789237423,-5.901104854386));
#297 = CARTESIAN_POINT('',(-1.395359845849,-5.949571551334));
#298 = CARTESIAN_POINT('',(-1.45306438398,-5.982981717264));
#299 = CARTESIAN_POINT('',(-1.511628045868,-6.));
#300 = CARTESIAN_POINT('',(-1.570796326795,-6.));
#301 = ( GEOMETRIC_REPRESENTATION_CONTEXT(2) 
PARAMETRIC_REPRESENTATION_CONTEXT() REPRESENTATION_CONTEXT('2D SPACE',''
  ) );
#302 = ORIENTED_EDGE('',*,*,#303,.T.);
#303 = EDGE_CURVE('',#194,#304,#306,.T.);
#304 = VERTEX_POINT('',#305);
#305 = CARTESIAN_POINT('',(-42.,340.,210.5));
#306 = SEAM_CURVE('',#307,(#311,#318),.PCURVE_S1.);
#307 = LINE('',#308,#309);
#308 = CARTESIAN_POINT('',(-42.,340.,162.7));
#309 = VECTOR('',#310,1.);
#310 = DIRECTION('',(0.,0.,1.));
#311 = PCURVE('',#31,#312);
#312 = DEFINITIONAL_REPRESENTATION('',(#313),#317);
#313 = LINE('',#314,#315);
#314 = CARTESIAN_POINT('',(-6.28318530718,0.));
#315 = VECTOR('',#316,1.);
#316 = DIRECTION('',(-0.,-1.));
#317 = ( GEOMETRIC_REPRESENTATION_CONTEXT(2) 
PARAMETRIC_REPRESENTATION_CONTEXT() REPRESENTATION_CONTEXT('2D SPACE',''
  ) );
#318 = PCURVE('',#31,#319);
#319 = DEFINITIONAL_REPRESENTATION('',(#320),#324);
#320 = LINE('',#321,#322);
#321 = CARTESIAN_POINT('',(-0.,0.));
#322 = VECTOR('',#323,1.);
#323 = DIRECTION('',(-0.,-1.));
#324 = ( GEOMETRIC_REPRESENTATION_CONTEXT(2) 
PARAMETRIC_REPRESENTATION_CONTEXT() REPRESENTATION_CONTEXT('2D SPACE',''
  ) );
#325 = ORIENTED_EDGE('',*,*,#326,.T.);
#326 = EDGE_CURVE('',#304,#304,#327,.T.);
#327 = SURFACE_CURVE('',#328,(#333,#340),.PCURVE_S1.);
#328 = CIRCLE('',#329,6.);
#329 = AXIS2_PLACEMENT_3D('',#330,#331,#332);
#330 = CARTESIAN_POINT('',(-48.,340.,210.5));
#331 = DIRECTION('',(0.,0.,1.));
#332 = DIRECTION('',(1.,0.,0.));
#333 = PCURVE('',#31,#334);
#334 = DEFINITIONAL_REPRESENTATION('',(#335),#339);
#335 = LINE('',#336,#337);
#336 = CARTESIAN_POINT('',(-0.,-47.8));
#337 = VECTOR('',#338,1.);
#338 = DIRECTION('',(-1.,0.));
#339 = ( GEOMETRIC_REPRESENTATION_CONTEXT(2) 
PARAMETRIC_REPRESENTATION_CONTEXT() REPRESENTATION_CONTEXT('2D SPACE',''
  ) );
#340 = PCURVE('',#341,#346);
#341 = PLANE('',#342);
#342 = AXIS2_PLACEMENT_3D('',#343,#344,#345);
#343 = CARTESIAN_POINT('',(-48.,340.,210.5));
#344 = DIRECTION('',(0.,0.,1.));
#345 = DIRECTION('',(1.,0.,-0.));
#346 = DEFINITIONAL_REPRESENTATION('',(#347),#351);
#347 = CIRCLE('',#348,6.);
#348 = AXIS2_PLACEMENT_2D('',#349,#350);
#349 = CARTESIAN_POINT('',(0.,5.684341886081E-14));
#350 = DIRECTION('',(1.,0.));
#351 = ( GEOMETRIC_REPRESENTATION_CONTEXT(2) 
PARAMETRIC_REPRESENTATION_CONTEXT() REPRESENTATION_CONTEXT('2D SPACE',''
  ) );
#352 = ORIENTED_EDGE('',*,*,#303,.F.);
#353 = ORIENTED_EDGE('',*,*,#354,.T.);
#354 = EDGE_CURVE('',#194,#56,#355,.T.);
#355 = SURFACE_CURVE('',#356,(#431,#509),.PCURVE_S1.);
#356 = B_SPLINE_CURVE_WITH_KNOTS('',7,(#357,#358,#359,#360,#361,#362,
    #363,#364,#365,#366,#367,#368,#369,#370,#371,#372,#373,#374,#375,
    #376,#377,#378,#379,#380,#381,#382,#383,#384,#385,#386,#387,#388,
    #389,#390,#391,#392,#393,#394,#395,#396,#397,#398,#399,#400,#401,
    #402,#403,#404,#405,#406,#407,#408,#409,#410,#411,#412,#413,#414,
    #415,#416,#417,#418,#419,#420,#421,#422,#423,#424,#425,#426,#427,
    #428,#429,#430),.UNSPECIFIED.,.F.,.F.,(8,6,6,6,6,6,6,6,6,6,6,6,8),(
    0.,9.907411130606E-02,0.150945875897,0.287443590857,0.415408193477,
    0.445619821656,0.499981004261,0.554510872506,0.584666315179,
    0.712308534452,0.849923475473,0.899864683895,1.),.UNSPECIFIED.);
#357 = CARTESIAN_POINT('',(-42.,340.,209.5));
#358 = CARTESIAN_POINT('',(-42.,339.70728837102,209.5));
#359 = CARTESIAN_POINT('',(-42.01666009726,339.41741368753,
    209.4800081825));
#360 = CARTESIAN_POINT('',(-42.04939871261,339.13330552063,
    209.44072080633));
#361 = CARTESIAN_POINT('',(-42.09693401028,338.85784484761,
    209.38352595393));
#362 = CARTESIAN_POINT('',(-42.15730573098,338.59374864354,
    209.31049372438));
#363 = CARTESIAN_POINT('',(-42.22792109513,338.343521376,209.22440416401
    ));
#364 = CARTESIAN_POINT('',(-42.34630772593,337.98693401124,
    209.07876468653));
#365 = CARTESIAN_POINT('',(-42.38917480638,337.86810360241,
    209.02581539426));
#366 = CARTESIAN_POINT('',(-42.43397535181,337.75292554138,
    208.97022213163));
#367 = CARTESIAN_POINT('',(-42.48047757019,337.64133451702,
    208.91221822964));
#368 = CARTESIAN_POINT('',(-42.52846840477,337.5332567671,208.852013242)
  );
#369 = CARTESIAN_POINT('',(-42.57775339542,337.42861030311,
    208.7897929103));
#370 = CARTESIAN_POINT('',(-42.76078966171,337.06072611892,
    208.55711247415));
#371 = CARTESIAN_POINT('',(-42.90140746061,336.81679809001,
    208.37536379121));
#372 = CARTESIAN_POINT('',(-43.0469051978,336.59393747394,
    208.18326893822));
#373 = CARTESIAN_POINT('',(-43.19492123757,336.39044979161,
    207.98262111535));
#374 = CARTESIAN_POINT('',(-43.34363982011,336.20470805788,
    207.77434362784));
#375 = CARTESIAN_POINT('',(-43.49152994025,336.03534239036,
    207.55862734918));
#376 = CARTESIAN_POINT('',(-43.77306646219,335.73708815578,
    207.12533156621));
#377 = CARTESIAN_POINT('',(-43.90669721788,335.60667860493,
    206.90921633801));
#378 = CARTESIAN_POINT('',(-44.03624401702,335.48934579027,
    206.68640516577));
#379 = CARTESIAN_POINT('',(-44.1598079274,335.38485492741,
    206.45658676324));
#380 = CARTESIAN_POINT('',(-44.2748071826,335.29340938398,
    206.21954633723));
#381 = CARTESIAN_POINT('',(-44.37787477668,335.21545399941,
    205.97508012428));
#382 = CARTESIAN_POINT('',(-44.48578053427,335.13677965519,
    205.66312674285));
#383 = CARTESIAN_POINT('',(-44.50550609574,335.12255425687,
    205.60311842603));
#384 = CARTESIAN_POINT('',(-44.52428891022,335.10914654518,
    205.54270380177));
#385 = CARTESIAN_POINT('',(-44.54207251179,335.09657123351,
    205.48189914482));
#386 = CARTESIAN_POINT('',(-44.55880248836,335.0848419117,
    205.42071803233));
#387 = CARTESIAN_POINT('',(-44.57442667079,335.07397151013,
    205.35917134781));
#388 = CARTESIAN_POINT('',(-44.61492943671,335.04598155632,
    205.18588043662));
#389 = CARTESIAN_POINT('',(-44.63724935504,335.03079378244,
    205.07322089073));
#390 = CARTESIAN_POINT('',(-44.65549067137,335.01853614127,
    204.95959200135));
#391 = CARTESIAN_POINT('',(-44.66937264789,335.00928823001,
    204.84524719972));
#392 = CARTESIAN_POINT('',(-44.67870219795,335.00309973366,
    204.73040409997));
#393 = CARTESIAN_POINT('',(-44.68337520964,335.,204.61525874604));
#394 = CARTESIAN_POINT('',(-44.68337520964,335.,204.38438359994));
#395 = CARTESIAN_POINT('',(-44.67867315201,335.00311900076,
    204.2688822651));
#396 = CARTESIAN_POINT('',(-44.66928580451,335.00934583496,
    204.15368613187));
#397 = CARTESIAN_POINT('',(-44.65531854941,335.01865080837,
    204.03899263512));
#398 = CARTESIAN_POINT('',(-44.63696673828,335.03098370128,
    203.92502109025));
#399 = CARTESIAN_POINT('',(-44.61451434192,335.04626402832,
    203.81202713044));
#400 = CARTESIAN_POINT('',(-44.57384969232,335.07437273748,
    203.63854042485));
#401 = CARTESIAN_POINT('',(-44.55821972255,335.0852499184,
    203.57712043391));
#402 = CARTESIAN_POINT('',(-44.54148949509,335.09698243276,
    203.51606512171));
#403 = CARTESIAN_POINT('',(-44.52371091293,335.10955742338,203.455385246
    ));
#404 = CARTESIAN_POINT('',(-44.50493808599,335.12296138409,
    203.39509423094));
#405 = CARTESIAN_POINT('',(-44.4852271441,335.13717970107,
    203.33520817106));
#406 = CARTESIAN_POINT('',(-44.37747788771,335.21575813616,
    203.02405314486));
#407 = CARTESIAN_POINT('',(-44.27464424519,335.29355214098,
    202.78022328916));
#408 = CARTESIAN_POINT('',(-44.15994479496,335.38476788245,
    202.54378244749));
#409 = CARTESIAN_POINT('',(-44.03671991778,335.48896380656,
    202.31452776728));
#410 = CARTESIAN_POINT('',(-43.90753306564,335.6059380758,
    202.09224556438));
#411 = CARTESIAN_POINT('',(-43.77427139965,335.73592243675,
    201.87662685205));
#412 = CARTESIAN_POINT('',(-43.49194267106,336.03478705535,
    201.44189700827));
#413 = CARTESIAN_POINT('',(-43.34283883156,336.20550571069,
    201.22442119545));
#414 = CARTESIAN_POINT('',(-43.19289586379,336.39286452035,
    201.01450169833));
#415 = CARTESIAN_POINT('',(-43.04367734632,336.59827112902,
    200.81233259543));
#416 = CARTESIAN_POINT('',(-42.89704496403,336.82339817131,
    200.61886623572));
#417 = CARTESIAN_POINT('',(-42.75542869451,337.06998515667,
    200.43595646711));
#418 = CARTESIAN_POINT('',(-42.57362045231,337.43751568152,
    200.20499902423));
#419 = CARTESIAN_POINT('',(-42.52626038952,337.5384830825,
    200.14523221369));
#420 = CARTESIAN_POINT('',(-42.48010899533,337.64263436788,
    200.08734216038));
#421 = CARTESIAN_POINT('',(-42.43534020591,337.75004273586,
    200.03149514713));
#422 = CARTESIAN_POINT('',(-42.39214397201,337.86077432263,
    199.97787795842));
#423 = CARTESIAN_POINT('',(-42.35072637497,337.97488801803,
    199.92669784979));
#424 = CARTESIAN_POINT('',(-42.23227687477,338.32812505951,
    199.78090617363));
#425 = CARTESIAN_POINT('',(-42.16039746357,338.58027557371,
    199.69324679664));
#426 = CARTESIAN_POINT('',(-42.09889514536,338.84657536927,
    199.61883403804));
#427 = CARTESIAN_POINT('',(-42.05042844802,339.12450933088,
    199.56051494676));
#428 = CARTESIAN_POINT('',(-42.01701828319,339.41134027398,
    199.52042161127));
#429 = CARTESIAN_POINT('',(-42.,339.70415859783,199.5));
#430 = CARTESIAN_POINT('',(-42.,340.,199.5));
#431 = PCURVE('',#31,#432);
#432 = DEFINITIONAL_REPRESENTATION('',(#433),#508);
#433 = B_SPLINE_CURVE_WITH_KNOTS('',7,(#434,#435,#436,#437,#438,#439,
    #440,#441,#442,#443,#444,#445,#446,#447,#448,#449,#450,#451,#452,
    #453,#454,#455,#456,#457,#458,#459,#460,#461,#462,#463,#464,#465,
    #466,#467,#468,#469,#470,#471,#472,#473,#474,#475,#476,#477,#478,
    #479,#480,#481,#482,#483,#484,#485,#486,#487,#488,#489,#490,#491,
    #492,#493,#494,#495,#496,#497,#498,#499,#500,#501,#502,#503,#504,
    #505,#506,#507),.UNSPECIFIED.,.F.,.F.,(8,6,6,6,6,6,6,6,6,6,6,6,8),(
    0.,9.907411130606E-02,0.150945875897,0.287443590857,0.415408193477,
    0.445619821656,0.499981004261,0.554510872506,0.584666315179,
    0.712308534452,0.849923475473,0.899864683895,1.),.UNSPECIFIED.);
#434 = CARTESIAN_POINT('',(-6.28318530718,-46.8));
#435 = CARTESIAN_POINT('',(-6.234400035684,-46.8));
#436 = CARTESIAN_POINT('',(-6.186087528526,-46.7800081825));
#437 = CARTESIAN_POINT('',(-6.138546725914,-46.74072080633));
#438 = CARTESIAN_POINT('',(-6.092083957627,-46.68352595393));
#439 = CARTESIAN_POINT('',(-6.047026408718,-46.61049372438));
#440 = CARTESIAN_POINT('',(-6.003737784935,-46.52440416401));
#441 = CARTESIAN_POINT('',(-5.941116803569,-46.37876468653));
#442 = CARTESIAN_POINT('',(-5.920069400543,-46.32581539426));
#443 = CARTESIAN_POINT('',(-5.899481921155,-46.27022213163));
#444 = CARTESIAN_POINT('',(-5.879343111831,-46.21221822964));
#445 = CARTESIAN_POINT('',(-5.859642101851,-46.152013242));
#446 = CARTESIAN_POINT('',(-5.840367992143,-46.0897929103));
#447 = CARTESIAN_POINT('',(-5.77188420498,-45.85711247415));
#448 = CARTESIAN_POINT('',(-5.725046094824,-45.67536379121));
#449 = CARTESIAN_POINT('',(-5.680789773088,-45.48326893822));
#450 = CARTESIAN_POINT('',(-5.638938745889,-45.28262111535));
#451 = CARTESIAN_POINT('',(-5.599341063252,-45.07434362784));
#452 = CARTESIAN_POINT('',(-5.561894705026,-44.85862734918));
#453 = CARTESIAN_POINT('',(-5.493537310556,-44.42533156621));
#454 = CARTESIAN_POINT('',(-5.462443735481,-44.20921633801));
#455 = CARTESIAN_POINT('',(-5.433343140048,-43.98640516577));
#456 = CARTESIAN_POINT('',(-5.406397227465,-43.75658676324));
#457 = CARTESIAN_POINT('',(-5.381921490321,-43.51954633723));
#458 = CARTESIAN_POINT('',(-5.360386750988,-43.27508012428));
#459 = CARTESIAN_POINT('',(-5.338129851334,-42.96312674285));
#460 = CARTESIAN_POINT('',(-5.334076582234,-42.90311842603));
#461 = CARTESIAN_POINT('',(-5.330230436966,-42.84270380177));
#462 = CARTESIAN_POINT('',(-5.326600393027,-42.78189914482));
#463 = CARTESIAN_POINT('',(-5.323195086608,-42.72071803233));
#464 = CARTESIAN_POINT('',(-5.320022823387,-42.65917134781));
#465 = CARTESIAN_POINT('',(-5.311817283996,-42.48588043662));
#466 = CARTESIAN_POINT('',(-5.307317874375,-42.37322089073));
#467 = CARTESIAN_POINT('',(-5.303655080074,-42.25959200135));
#468 = CARTESIAN_POINT('',(-5.300875038017,-42.14524719972));
#469 = CARTESIAN_POINT('',(-5.299009125442,-42.03040409997));
#470 = CARTESIAN_POINT('',(-5.298074523842,-41.91525874604));
#471 = CARTESIAN_POINT('',(-5.298074523842,-41.68438359994));
#472 = CARTESIAN_POINT('',(-5.299014934612,-41.5688822651));
#473 = CARTESIAN_POINT('',(-5.300892406735,-41.45368613187));
#474 = CARTESIAN_POINT('',(-5.303689549944,-41.33899263512));
#475 = CARTESIAN_POINT('',(-5.307374623587,-41.22502109025));
#476 = CARTESIAN_POINT('',(-5.311900963425,-41.11202713044));
#477 = CARTESIAN_POINT('',(-5.320139951459,-40.93854042485));
#478 = CARTESIAN_POINT('',(-5.323313651727,-40.87712043391));
#479 = CARTESIAN_POINT('',(-5.326719297822,-40.81606512171));
#480 = CARTESIAN_POINT('',(-5.330348627871,-40.755385246));
#481 = CARTESIAN_POINT('',(-5.334193055239,-40.69509423094));
#482 = CARTESIAN_POINT('',(-5.33824365788,-40.63520817106));
#483 = CARTESIAN_POINT('',(-5.360470064043,-40.32405314486));
#484 = CARTESIAN_POINT('',(-5.381957492529,-40.08022328916));
#485 = CARTESIAN_POINT('',(-5.406370359787,-39.84378244749));
#486 = CARTESIAN_POINT('',(-5.433241592683,-39.61452776728));
#487 = CARTESIAN_POINT('',(-5.462257869187,-39.39224556438));
#488 = CARTESIAN_POINT('',(-5.493258172875,-39.17662685205));
#489 = CARTESIAN_POINT('',(-5.561780182972,-38.74189700827));
#490 = CARTESIAN_POINT('',(-5.599528816693,-38.52442119545));
#491 = CARTESIAN_POINT('',(-5.639462961844,-38.31450169833));
#492 = CARTESIAN_POINT('',(-5.681688232121,-38.11233259543));
#493 = CARTESIAN_POINT('',(-5.726361305941,-37.91886623572));
#494 = CARTESIAN_POINT('',(-5.773663695004,-37.73595646711));
#495 = CARTESIAN_POINT('',(-5.842003719804,-37.50499902423));
#496 = CARTESIAN_POINT('',(-5.860586875577,-37.44523221369));
#497 = CARTESIAN_POINT('',(-5.87956620198,-37.38734216038));
#498 = CARTESIAN_POINT('',(-5.898951481078,-37.33149514713));
#499 = CARTESIAN_POINT('',(-5.918752474165,-37.27787795842));
#500 = CARTESIAN_POINT('',(-5.938979262655,-37.22669784979));
#501 = CARTESIAN_POINT('',(-6.00107387943,-37.08090617363));
#502 = CARTESIAN_POINT('',(-6.044727296281,-36.99324679664));
#503 = CARTESIAN_POINT('',(-6.090182581013,-36.91883403804));
#504 = CARTESIAN_POINT('',(-6.137074549921,-36.86051494676));
#505 = CARTESIAN_POINT('',(-6.185075290819,-36.82042161127));
#506 = CARTESIAN_POINT('',(-6.233878406818,-36.8));
#507 = CARTESIAN_POINT('',(-6.28318530718,-36.8));
#508 = ( GEOMETRIC_REPRESENTATION_CONTEXT(2) 
PARAMETRIC_REPRESENTATION_CONTEXT() REPRESENTATION_CONTEXT('2D SPACE',''
  ) );
#509 = PCURVE('',#152,#510);
#510 = DEFINITIONAL_REPRESENTATION('',(#511),#586);
#511 = B_SPLINE_CURVE_WITH_KNOTS('',7,(#512,#513,#514,#515,#516,#517,
    #518,#519,#520,#521,#522,#523,#524,#525,#526,#527,#528,#529,#530,
    #531,#532,#533,#534,#535,#536,#537,#538,#539,#540,#541,#542,#543,
    #544,#545,#546,#547,#548,#549,#550,#551,#552,#553,#554,#555,#556,
    #557,#558,#559,#560,#561,#562,#563,#564,#565,#566,#567,#568,#569,
    #570,#571,#572,#573,#574,#575,#576,#577,#578,#579,#580,#581,#582,
    #583,#584,#585),.UNSPECIFIED.,.F.,.F.,(8,6,6,6,6,6,6,6,6,6,6,6,8),(
    0.,9.907411130606E-02,0.150945875897,0.287443590857,0.415408193477,
    0.445619821656,0.499981004261,0.554510872506,0.584666315179,
    0.712308534452,0.849923475473,0.899864683895,1.),.UNSPECIFIED.);
#512 = CARTESIAN_POINT('',(-1.570796326795,-6.));
#513 = CARTESIAN_POINT('',(-1.62933865259,-6.));
#514 = CARTESIAN_POINT('',(-1.687313588755,-5.983339902735));
#515 = CARTESIAN_POINT('',(-1.744462942277,-5.950601287384));
#516 = CARTESIAN_POINT('',(-1.800509554476,-5.903065989712));
#517 = CARTESIAN_POINT('',(-1.855141451173,-5.842694269018));
#518 = CARTESIAN_POINT('',(-1.907981867826,-5.772078904862));
#519 = CARTESIAN_POINT('',(-1.985018328313,-5.653692274067));
#520 = CARTESIAN_POINT('',(-2.011024169441,-5.61082519362));
#521 = CARTESIAN_POINT('',(-2.036583982486,-5.566024648186));
#522 = CARTESIAN_POINT('',(-2.061717760506,-5.519522429805));
#523 = CARTESIAN_POINT('',(-2.086444913946,-5.47153159523));
#524 = CARTESIAN_POINT('',(-2.110785004427,-5.422246604575));
#525 = CARTESIAN_POINT('',(-2.197843366079,-5.239210338286));
#526 = CARTESIAN_POINT('',(-2.258504572345,-5.098592539386));
#527 = CARTESIAN_POINT('',(-2.317120907168,-4.953094802193));
#528 = CARTESIAN_POINT('',(-2.374055510576,-4.805078762425));
#529 = CARTESIAN_POINT('',(-2.429692510249,-4.656360179886));
#530 = CARTESIAN_POINT('',(-2.484436427127,-4.508470059748));
#531 = CARTESIAN_POINT('',(-2.58964114641,-4.226933537809));
#532 = CARTESIAN_POINT('',(-2.640033169432,-4.093302782111));
#533 = CARTESIAN_POINT('',(-2.69026098802,-3.963755982973));
#534 = CARTESIAN_POINT('',(-2.740597949259,-3.8401920726));
#535 = CARTESIAN_POINT('',(-2.791269392907,-3.725192817394));
#536 = CARTESIAN_POINT('',(-2.842490864629,-3.622125223318));
#537 = CARTESIAN_POINT('',(-2.906835115226,-3.51421946573));
#538 = CARTESIAN_POINT('',(-2.919168133066,-3.494493904255));
#539 = CARTESIAN_POINT('',(-2.931542987856,-3.47571108978));
#540 = CARTESIAN_POINT('',(-2.943958927509,-3.457927488206));
#541 = CARTESIAN_POINT('',(-2.956415869298,-3.441197511634));
#542 = CARTESIAN_POINT('',(-2.968914379288,-3.42557332921));
#543 = CARTESIAN_POINT('',(-3.004021744563,-3.385070563288));
#544 = CARTESIAN_POINT('',(-3.026749712966,-3.362750644957));
#545 = CARTESIAN_POINT('',(-3.049594411321,-3.34450932863));
#546 = CARTESIAN_POINT('',(-3.072523196899,-3.330627352109));
#547 = CARTESIAN_POINT('',(-3.095511837354,-3.321297802046));
#548 = CARTESIAN_POINT('',(-3.118540904382,-3.316624790355));
#549 = CARTESIAN_POINT('',(-3.164715933601,-3.316624790355));
#550 = CARTESIAN_POINT('',(-3.187816196734,-3.321326847986));
#551 = CARTESIAN_POINT('',(-3.210875630977,-3.330714195484));
#552 = CARTESIAN_POINT('',(-3.233874711955,-3.344681450583));
#553 = CARTESIAN_POINT('',(-3.256789043199,-3.36303326172));
#554 = CARTESIAN_POINT('',(-3.27958570039,-3.385485658078));
#555 = CARTESIAN_POINT('',(-3.314735514926,-3.426150307672));
#556 = CARTESIAN_POINT('',(-3.32720931753,-3.44178027745));
#557 = CARTESIAN_POINT('',(-3.3396416832,-3.458510504905));
#558 = CARTESIAN_POINT('',(-3.352033185624,-3.47628908707));
#559 = CARTESIAN_POINT('',(-3.364383756111,-3.495061914009));
#560 = CARTESIAN_POINT('',(-3.376692663321,-3.514772855896));
#561 = CARTESIAN_POINT('',(-3.440877403188,-3.622522112286));
#562 = CARTESIAN_POINT('',(-3.491968578818,-3.725355754802));
#563 = CARTESIAN_POINT('',(-3.542512662256,-3.840055205033));
#564 = CARTESIAN_POINT('',(-3.592723728563,-3.963280082215));
#565 = CARTESIAN_POINT('',(-3.642825535728,-4.092466934353));
#566 = CARTESIAN_POINT('',(-3.69308932254,-4.225728600349));
#567 = CARTESIAN_POINT('',(-3.79859953007,-4.508057328937));
#568 = CARTESIAN_POINT('',(-3.8537847003,-4.657161168437));
#569 = CARTESIAN_POINT('',(-3.909877817908,-4.807104136205));
#570 = CARTESIAN_POINT('',(-3.96729380871,-4.956322653677));
#571 = CARTESIAN_POINT('',(-4.026426483705,-5.102955035961));
#572 = CARTESIAN_POINT('',(-4.087647701763,-5.244571305487));
#573 = CARTESIAN_POINT('',(-4.174462453302,-5.426379547687));
#574 = CARTESIAN_POINT('',(-4.19792029762,-5.473739610475));
#575 = CARTESIAN_POINT('',(-4.221737787274,-5.519891004664));
#576 = CARTESIAN_POINT('',(-4.245932447539,-5.564659794084));
#577 = CARTESIAN_POINT('',(-4.270521679654,-5.607856027985));
#578 = CARTESIAN_POINT('',(-4.295523369204,-5.64927362503));
#579 = CARTESIAN_POINT('',(-4.371951536869,-5.767723125224));
#580 = CARTESIAN_POINT('',(-4.425255943788,-5.839602536428));
#581 = CARTESIAN_POINT('',(-4.480381891704,-5.901104854631));
#582 = CARTESIAN_POINT('',(-4.53695250001,-5.949571551977));
#583 = CARTESIAN_POINT('',(-4.594657036474,-5.982981716801));
#584 = CARTESIAN_POINT('',(-4.653220699951,-6.));
#585 = CARTESIAN_POINT('',(-4.712388980385,-6.));
#586 = ( GEOMETRIC_REPRESENTATION_CONTEXT(2) 
PARAMETRIC_REPRESENTATION_CONTEXT() REPRESENTATION_CONTEXT('2D SPACE',''
  ) );
#587 = ORIENTED_EDGE('',*,*,#55,.F.);
#588 = ADVANCED_FACE('',(#589,#592),#43,.F.);
#589 = FACE_BOUND('',#590,.F.);
#590 = EDGE_LOOP('',(#591));
#591 = ORIENTED_EDGE('',*,*,#21,.T.);
#592 = FACE_BOUND('',#593,.F.);
#593 = EDGE_LOOP('',(#594));
#594 = ORIENTED_EDGE('',*,*,#595,.T.);
#595 = EDGE_CURVE('',#596,#596,#598,.T.);
#596 = VERTEX_POINT('',#597);
#597 = CARTESIAN_POINT('',(-45.,340.,162.7));
#598 = SURFACE_CURVE('',#599,(#604,#615),.PCURVE_S1.);
#599 = CIRCLE('',#600,3.);
#600 = AXIS2_PLACEMENT_3D('',#601,#602,#603);
#601 = CARTESIAN_POINT('',(-48.,340.,162.7));
#602 = DIRECTION('',(0.,0.,-1.));
#603 = DIRECTION('',(1.,0.,0.));
#604 = PCURVE('',#43,#605);
#605 = DEFINITIONAL_REPRESENTATION('',(#606),#614);
#606 = ( BOUNDED_CURVE() B_SPLINE_CURVE(2,(#607,#608,#609,#610,#611,#612
,#613),.UNSPECIFIED.,.T.,.F.) B_SPLINE_CURVE_WITH_KNOTS((1,2,2,2,2,1),(
    -2.094395102393,0.,2.094395102393,4.188790204786,6.28318530718,
8.377580409573),.UNSPECIFIED.) CURVE() GEOMETRIC_REPRESENTATION_ITEM() 
RATIONAL_B_SPLINE_CURVE((1.,0.5,1.,0.5,1.,0.5,1.)) REPRESENTATION_ITEM(
  '') );
#607 = CARTESIAN_POINT('',(3.,5.684341886081E-14));
#608 = CARTESIAN_POINT('',(3.,-5.196152422707));
#609 = CARTESIAN_POINT('',(-1.5,-2.598076211353));
#610 = CARTESIAN_POINT('',(-6.,5.610863078132E-14));
#611 = CARTESIAN_POINT('',(-1.5,2.598076211353));
#612 = CARTESIAN_POINT('',(3.,5.196152422707));
#613 = CARTESIAN_POINT('',(3.,5.684341886081E-14));
#614 = ( GEOMETRIC_REPRESENTATION_CONTEXT(2) 
PARAMETRIC_REPRESENTATION_CONTEXT() REPRESENTATION_CONTEXT('2D SPACE',''
  ) );
#615 = PCURVE('',#616,#621);
#616 = CYLINDRICAL_SURFACE('',#617,3.);
#617 = AXIS2_PLACEMENT_3D('',#618,#619,#620);
#618 = CARTESIAN_POINT('',(-48.,340.,162.5));
#619 = DIRECTION('',(-0.,-0.,-1.));
#620 = DIRECTION('',(1.,0.,0.));
#621 = DEFINITIONAL_REPRESENTATION('',(#622),#626);
#622 = LINE('',#623,#624);
#623 = CARTESIAN_POINT('',(-6.28318530718,-0.2));
#624 = VECTOR('',#625,1.);
#625 = DIRECTION('',(1.,-0.));
#626 = ( GEOMETRIC_REPRESENTATION_CONTEXT(2) 
PARAMETRIC_REPRESENTATION_CONTEXT() REPRESENTATION_CONTEXT('2D SPACE',''
  ) );
#627 = ADVANCED_FACE('',(#628),#152,.T.);
#628 = FACE_BOUND('',#629,.F.);
#629 = EDGE_LOOP('',(#630,#631,#654,#1073,#1074,#1075));
#630 = ORIENTED_EDGE('',*,*,#193,.F.);
#631 = ORIENTED_EDGE('',*,*,#632,.T.);
#632 = EDGE_CURVE('',#79,#633,#635,.T.);
#633 = VERTEX_POINT('',#634);
#634 = CARTESIAN_POINT('',(44.683375209645,345.,204.5));
#635 = SEAM_CURVE('',#636,(#640,#647),.PCURVE_S1.);
#636 = LINE('',#637,#638);
#637 = CARTESIAN_POINT('',(-48.,345.,204.5));
#638 = VECTOR('',#639,1.);
#639 = DIRECTION('',(1.,0.,0.));
#640 = PCURVE('',#152,#641);
#641 = DEFINITIONAL_REPRESENTATION('',(#642),#646);
#642 = LINE('',#643,#644);
#643 = CARTESIAN_POINT('',(-6.28318530718,0.));
#644 = VECTOR('',#645,1.);
#645 = DIRECTION('',(-0.,-1.));
#646 = ( GEOMETRIC_REPRESENTATION_CONTEXT(2) 
PARAMETRIC_REPRESENTATION_CONTEXT() REPRESENTATION_CONTEXT('2D SPACE',''
  ) );
#647 = PCURVE('',#152,#648);
#648 = DEFINITIONAL_REPRESENTATION('',(#649),#653);
#649 = LINE('',#650,#651);
#650 = CARTESIAN_POINT('',(-0.,0.));
#651 = VECTOR('',#652,1.);
#652 = DIRECTION('',(-0.,-1.));
#653 = ( GEOMETRIC_REPRESENTATION_CONTEXT(2) 
PARAMETRIC_REPRESENTATION_CONTEXT() REPRESENTATION_CONTEXT('2D SPACE',''
  ) );
#654 = ORIENTED_EDGE('',*,*,#655,.T.);
#655 = EDGE_CURVE('',#633,#633,#656,.T.);
#656 = SURFACE_CURVE('',#657,(#792,#930),.PCURVE_S1.);
#657 = B_SPLINE_CURVE_WITH_KNOTS('',7,(#658,#659,#660,#661,#662,#663,
    #664,#665,#666,#667,#668,#669,#670,#671,#672,#673,#674,#675,#676,
    #677,#678,#679,#680,#681,#682,#683,#684,#685,#686,#687,#688,#689,
    #690,#691,#692,#693,#694,#695,#696,#697,#698,#699,#700,#701,#702,
    #703,#704,#705,#706,#707,#708,#709,#710,#711,#712,#713,#714,#715,
    #716,#717,#718,#719,#720,#721,#722,#723,#724,#725,#726,#727,#728,
    #729,#730,#731,#732,#733,#734,#735,#736,#737,#738,#739,#740,#741,
    #742,#743,#744,#745,#746,#747,#748,#749,#750,#751,#752,#753,#754,
    #755,#756,#757,#758,#759,#760,#761,#762,#763,#764,#765,#766,#767,
    #768,#769,#770,#771,#772,#773,#774,#775,#776,#777,#778,#779,#780,
    #781,#782,#783,#784,#785,#786,#787,#788,#789,#790,#791),
  .UNSPECIFIED.,.T.,.F.,(8,6,6,6,6,6,6,6,6,6,6,6,6,6,6,6,6,6,6,6,6,6,8),
  (0.,4.224736465626E-02,0.106080431496,0.17490079343,0.199876076009,
    0.249953114148,0.299500375833,0.325441601772,0.393704520755,
    0.457700004518,0.472808930901,0.499995122297,0.527265673891,
    0.542346501733,0.606180760615,0.675002407726,0.699978156703,
    0.750056130006,0.799604316505,0.825546026451,0.893810219075,
    0.957806896857,1.),.UNSPECIFIED.);
#658 = CARTESIAN_POINT('',(44.683375209645,345.,204.5));
#659 = CARTESIAN_POINT('',(44.683375209645,345.,204.67987158374));
#660 = CARTESIAN_POINT('',(44.671994726857,344.99245085612,
    204.85891079119));
#661 = CARTESIAN_POINT('',(44.649421265719,344.97747792611,
    205.03674412662));
#662 = CARTESIAN_POINT('',(44.616235527563,344.95522931498,
    205.21292420256));
#663 = CARTESIAN_POINT('',(44.573416553075,344.92590785171,
    205.38684708202));
#664 = CARTESIAN_POINT('',(44.522320927687,344.88987172891,
    205.55767352863));
#665 = CARTESIAN_POINT('',(44.377477887714,344.78424186383,
    205.97594685514));
#666 = CARTESIAN_POINT('',(44.274644245199,344.70644785901,
    206.21977671083));
#667 = CARTESIAN_POINT('',(44.159944794966,344.61523211754,
    206.4562175525));
#668 = CARTESIAN_POINT('',(44.036719917786,344.51103619343,
    206.68547223271));
#669 = CARTESIAN_POINT('',(43.907533065646,344.39406192419,
    206.90775443562));
#670 = CARTESIAN_POINT('',(43.774271399651,344.26407756324,
    207.12337314794));
#671 = CARTESIAN_POINT('',(43.491942671063,343.96521294464,
    207.55810299172));
#672 = CARTESIAN_POINT('',(43.342838831563,343.7944942893,
    207.77557880454));
#673 = CARTESIAN_POINT('',(43.192895863796,343.60713547964,
    207.98549830166));
#674 = CARTESIAN_POINT('',(43.043677346322,343.40172887097,
    208.18766740456));
#675 = CARTESIAN_POINT('',(42.897044964038,343.17660182868,
    208.38113376427));
#676 = CARTESIAN_POINT('',(42.755428694513,342.93001484332,
    208.56404353288));
#677 = CARTESIAN_POINT('',(42.573620452312,342.56248431847,
    208.79500097576));
#678 = CARTESIAN_POINT('',(42.526260389525,342.46151691749,
    208.8547677863));
#679 = CARTESIAN_POINT('',(42.480108995335,342.35736563211,
    208.91265783961));
#680 = CARTESIAN_POINT('',(42.435340205915,342.24995726413,
    208.96850485286));
#681 = CARTESIAN_POINT('',(42.392143972014,342.13922567736,
    209.02212204157));
#682 = CARTESIAN_POINT('',(42.35072637497,342.02511198196,209.0733021502
    ));
#683 = CARTESIAN_POINT('',(42.232276875312,341.67187494208,
    209.2190938257));
#684 = CARTESIAN_POINT('',(42.160397462631,341.4197244218,209.3067532045
    ));
#685 = CARTESIAN_POINT('',(42.098895145612,341.15342463411,
    209.38116596166));
#686 = CARTESIAN_POINT('',(42.050428448662,340.87549067181,
    209.43948505245));
#687 = CARTESIAN_POINT('',(42.017018282739,340.58865972066,
    209.47957838929));
#688 = CARTESIAN_POINT('',(42.,340.29584140462,209.5));
#689 = CARTESIAN_POINT('',(42.,339.70728836934,209.5));
#690 = CARTESIAN_POINT('',(42.016660096905,339.41741369159,
    209.48000818294));
#691 = CARTESIAN_POINT('',(42.049398713099,339.13330551843,
    209.44072080573));
#692 = CARTESIAN_POINT('',(42.096934010502,338.85784484495,
    209.38352595367));
#693 = CARTESIAN_POINT('',(42.157305730291,338.59374864703,
    209.31049372522));
#694 = CARTESIAN_POINT('',(42.227921095493,338.34352137494,
    209.22440416357));
#695 = CARTESIAN_POINT('',(42.346307725933,337.98693401124,
    209.07876468653));
#696 = CARTESIAN_POINT('',(42.38917480638,337.86810360241,
    209.02581539426));
#697 = CARTESIAN_POINT('',(42.433975351814,337.75292554138,
    208.97022213163));
#698 = CARTESIAN_POINT('',(42.480477570195,337.64133451702,
    208.91221822964));
#699 = CARTESIAN_POINT('',(42.52846840477,337.5332567671,208.852013242)
  );
#700 = CARTESIAN_POINT('',(42.577753395425,337.42861030311,
    208.7897929103));
#701 = CARTESIAN_POINT('',(42.760789661714,337.06072611892,
    208.55711247415));
#702 = CARTESIAN_POINT('',(42.901407460614,336.81679809001,
    208.37536379121));
#703 = CARTESIAN_POINT('',(43.046905197807,336.59393747394,
    208.18326893822));
#704 = CARTESIAN_POINT('',(43.194921237575,336.39044979161,
    207.98262111535));
#705 = CARTESIAN_POINT('',(43.343639820114,336.20470805788,
    207.77434362784));
#706 = CARTESIAN_POINT('',(43.491529940252,336.03534239036,
    207.55862734918));
#707 = CARTESIAN_POINT('',(43.773066462191,335.73708815578,
    207.12533156621));
#708 = CARTESIAN_POINT('',(43.906697217889,335.60667860493,
    206.90921633801));
#709 = CARTESIAN_POINT('',(44.036244017029,335.48934579027,
    206.68640516577));
#710 = CARTESIAN_POINT('',(44.159807927399,335.38485492741,
    206.45658676325));
#711 = CARTESIAN_POINT('',(44.274807182606,335.29340938398,
    206.21954633723));
#712 = CARTESIAN_POINT('',(44.377874776682,335.21545399941,
    205.97508012428));
#713 = CARTESIAN_POINT('',(44.48578053427,335.13677965519,
    205.66312674285));
#714 = CARTESIAN_POINT('',(44.505506095745,335.12255425687,
    205.60311842603));
#715 = CARTESIAN_POINT('',(44.52428891022,335.10914654518,
    205.54270380176));
#716 = CARTESIAN_POINT('',(44.542072511794,335.09657123351,
    205.48189914482));
#717 = CARTESIAN_POINT('',(44.558802488366,335.0848419117,
    205.42071803233));
#718 = CARTESIAN_POINT('',(44.57442667079,335.07397151013,
    205.35917134781));
#719 = CARTESIAN_POINT('',(44.614929436712,335.04598155632,
    205.18588043662));
#720 = CARTESIAN_POINT('',(44.637249355043,335.03079378244,
    205.07322089073));
#721 = CARTESIAN_POINT('',(44.65549067137,335.01853614127,
    204.95959200135));
#722 = CARTESIAN_POINT('',(44.669372647891,335.00928823001,
    204.84524719972));
#723 = CARTESIAN_POINT('',(44.678702197954,335.00309973366,
    204.73040409997));
#724 = CARTESIAN_POINT('',(44.683375209645,335.,204.61525874604));
#725 = CARTESIAN_POINT('',(44.683375209645,335.,204.38438359993));
#726 = CARTESIAN_POINT('',(44.678673152014,335.00311900076,
    204.2688822651));
#727 = CARTESIAN_POINT('',(44.669285804516,335.00934583496,
    204.15368613187));
#728 = CARTESIAN_POINT('',(44.655318549417,335.01865080837,
    204.03899263513));
#729 = CARTESIAN_POINT('',(44.63696673828,335.03098370128,
    203.92502109025));
#730 = CARTESIAN_POINT('',(44.614514341921,335.04626402832,
    203.81202713044));
#731 = CARTESIAN_POINT('',(44.573849692328,335.07437273748,
    203.63854042485));
#732 = CARTESIAN_POINT('',(44.55821972255,335.0852499184,203.57712043391
    ));
#733 = CARTESIAN_POINT('',(44.541489495095,335.09698243276,
    203.51606512171));
#734 = CARTESIAN_POINT('',(44.52371091293,335.10955742338,203.455385246)
  );
#735 = CARTESIAN_POINT('',(44.504938085991,335.12296138409,
    203.39509423094));
#736 = CARTESIAN_POINT('',(44.485227144104,335.13717970107,
    203.33520817106));
#737 = CARTESIAN_POINT('',(44.377477887714,335.21575813616,
    203.02405314486));
#738 = CARTESIAN_POINT('',(44.274644245199,335.29355214098,
    202.78022328916));
#739 = CARTESIAN_POINT('',(44.159944794965,335.38476788245,
    202.54378244749));
#740 = CARTESIAN_POINT('',(44.036719917787,335.48896380656,
    202.31452776728));
#741 = CARTESIAN_POINT('',(43.907533065646,335.6059380758,
    202.09224556437));
#742 = CARTESIAN_POINT('',(43.774271399651,335.73592243675,
    201.87662685205));
#743 = CARTESIAN_POINT('',(43.491942671063,336.03478705536,
    201.44189700827));
#744 = CARTESIAN_POINT('',(43.342838831563,336.20550571069,
    201.22442119545));
#745 = CARTESIAN_POINT('',(43.192895863795,336.39286452035,
    201.01450169833));
#746 = CARTESIAN_POINT('',(43.043677346322,336.59827112902,
    200.81233259543));
#747 = CARTESIAN_POINT('',(42.897044964039,336.82339817131,
    200.61886623572));
#748 = CARTESIAN_POINT('',(42.755428694513,337.06998515667,
    200.43595646711));
#749 = CARTESIAN_POINT('',(42.57362045231,337.43751568153,
    200.20499902423));
#750 = CARTESIAN_POINT('',(42.526260389525,337.5384830825,
    200.14523221369));
#751 = CARTESIAN_POINT('',(42.480108995337,337.64263436788,
    200.08734216038));
#752 = CARTESIAN_POINT('',(42.435340205917,337.75004273586,
    200.03149514714));
#753 = CARTESIAN_POINT('',(42.392143972014,337.86077432264,
    199.97787795842));
#754 = CARTESIAN_POINT('',(42.350726374968,337.97488801804,
    199.92669784979));
#755 = CARTESIAN_POINT('',(42.232276875311,338.32812505792,
    199.78090617429));
#756 = CARTESIAN_POINT('',(42.160397462633,338.58027557818,
    199.69324679549));
#757 = CARTESIAN_POINT('',(42.098895145611,338.84657536589,
    199.61883403833));
#758 = CARTESIAN_POINT('',(42.05042844866,339.12450932819,
    199.56051494754));
#759 = CARTESIAN_POINT('',(42.017018282741,339.41134027932,
    199.52042161071));
#760 = CARTESIAN_POINT('',(42.,339.70415859538,199.5));
#761 = CARTESIAN_POINT('',(42.,340.29271162796,199.5));
#762 = CARTESIAN_POINT('',(42.016660097455,340.5825863147,
    199.51999181772));
#763 = CARTESIAN_POINT('',(42.049398712351,340.86669447821,
    199.55927919334));
#764 = CARTESIAN_POINT('',(42.096934010188,341.14215515098,
    199.61647404594));
#765 = CARTESIAN_POINT('',(42.157305731372,341.40625135838,
    199.68950627609));
#766 = CARTESIAN_POINT('',(42.227921094915,341.65647862332,
    199.77559583571));
#767 = CARTESIAN_POINT('',(42.346307725933,342.01306598875,
    199.92123531346));
#768 = CARTESIAN_POINT('',(42.38917480638,342.13189639758,
    199.97418460573));
#769 = CARTESIAN_POINT('',(42.433975351814,342.24707445861,
    200.02977786836));
#770 = CARTESIAN_POINT('',(42.480477570195,342.35866548297,
    200.08778177035));
#771 = CARTESIAN_POINT('',(42.52846840477,342.46674323289,
    200.14798675799));
#772 = CARTESIAN_POINT('',(42.577753395425,342.57138969688,
    200.21020708969));
#773 = CARTESIAN_POINT('',(42.760789661714,342.93927388107,
    200.44288752584));
#774 = CARTESIAN_POINT('',(42.901407460614,343.18320190998,
    200.62463620878));
#775 = CARTESIAN_POINT('',(43.046905197807,343.40606252605,
    200.81673106177));
#776 = CARTESIAN_POINT('',(43.194921237575,343.60955020838,
    201.01737888464));
#777 = CARTESIAN_POINT('',(43.343639820115,343.79529194211,
    201.22565637215));
#778 = CARTESIAN_POINT('',(43.491529940251,343.96465760963,
    201.44137265081));
#779 = CARTESIAN_POINT('',(43.77306646219,344.26291184421,
    201.87466843378));
#780 = CARTESIAN_POINT('',(43.90669721789,344.39332139506,
    202.09078366199));
#781 = CARTESIAN_POINT('',(44.036244017029,344.51065420972,
    202.31359483422));
#782 = CARTESIAN_POINT('',(44.159807927399,344.61514507258,
    202.54341323675));
#783 = CARTESIAN_POINT('',(44.274807182606,344.70659061601,
    202.78045366276));
#784 = CARTESIAN_POINT('',(44.377874776683,344.78454600058,
    203.02491987572));
#785 = CARTESIAN_POINT('',(44.522724791376,344.89015649043,
    203.44367836362));
#786 = CARTESIAN_POINT('',(44.573698174817,344.9261007,203.61429804002)
  );
#787 = CARTESIAN_POINT('',(44.616410393541,344.95534656026,
    203.78800412322));
#788 = CARTESIAN_POINT('',(44.649510842811,344.9775373411,203.9639601337
    ));
#789 = CARTESIAN_POINT('',(44.672025031913,344.99247095986,
    204.14156369028));
#790 = CARTESIAN_POINT('',(44.683375209645,345.,204.32036808713));
#791 = CARTESIAN_POINT('',(44.683375209645,345.,204.5));
#792 = PCURVE('',#152,#793);
#793 = DEFINITIONAL_REPRESENTATION('',(#794),#929);
#794 = B_SPLINE_CURVE_WITH_KNOTS('',7,(#795,#796,#797,#798,#799,#800,
    #801,#802,#803,#804,#805,#806,#807,#808,#809,#810,#811,#812,#813,
    #814,#815,#816,#817,#818,#819,#820,#821,#822,#823,#824,#825,#826,
    #827,#828,#829,#830,#831,#832,#833,#834,#835,#836,#837,#838,#839,
    #840,#841,#842,#843,#844,#845,#846,#847,#848,#849,#850,#851,#852,
    #853,#854,#855,#856,#857,#858,#859,#860,#861,#862,#863,#864,#865,
    #866,#867,#868,#869,#870,#871,#872,#873,#874,#875,#876,#877,#878,
    #879,#880,#881,#882,#883,#884,#885,#886,#887,#888,#889,#890,#891,
    #892,#893,#894,#895,#896,#897,#898,#899,#900,#901,#902,#903,#904,
    #905,#906,#907,#908,#909,#910,#911,#912,#913,#914,#915,#916,#917,
    #918,#919,#920,#921,#922,#923,#924,#925,#926,#927,#928),
  .UNSPECIFIED.,.F.,.F.,(8,6,6,6,6,6,6,6,6,6,6,6,6,6,6,6,6,6,6,6,6,6,8),
  (0.,4.224736465626E-02,0.106080431496,0.17490079343,0.199876076009,
    0.249953114148,0.299500375833,0.325441601772,0.393704520755,
    0.457700004518,0.472808930901,0.499995122297,0.527265673891,
    0.542346501733,0.606180760615,0.675002407726,0.699978156703,
    0.750056130006,0.799604316505,0.825546026451,0.893810219075,
    0.957806896857,1.),.UNSPECIFIED.);
#795 = CARTESIAN_POINT('',(0.,-92.68337520964));
#796 = CARTESIAN_POINT('',(-3.597431674817E-02,-92.68337520964));
#797 = CARTESIAN_POINT('',(-7.178210690185E-02,-92.67199472685));
#798 = CARTESIAN_POINT('',(-0.107424996949,-92.64942126571));
#799 = CARTESIAN_POINT('',(-0.142885711769,-92.61623552756));
#800 = CARTESIAN_POINT('',(-0.178113785849,-92.57341655307));
#801 = CARTESIAN_POINT('',(-0.213003756544,-92.52232092768));
#802 = CARTESIAN_POINT('',(-0.299284749598,-92.37747788771));
#803 = CARTESIAN_POINT('',(-0.350375925228,-92.27464424519));
#804 = CARTESIAN_POINT('',(-0.400920008667,-92.15994479496));
#805 = CARTESIAN_POINT('',(-0.451131074973,-92.03671991778));
#806 = CARTESIAN_POINT('',(-0.501232882139,-91.90753306564));
#807 = CARTESIAN_POINT('',(-0.55149666895,-91.77427139965));
#808 = CARTESIAN_POINT('',(-0.65700687648,-91.49194267106));
#809 = CARTESIAN_POINT('',(-0.71219204671,-91.34283883156));
#810 = CARTESIAN_POINT('',(-0.768285164319,-91.19289586379));
#811 = CARTESIAN_POINT('',(-0.82570115512,-91.04367734632));
#812 = CARTESIAN_POINT('',(-0.884833830116,-90.89704496403));
#813 = CARTESIAN_POINT('',(-0.946055048173,-90.75542869451));
#814 = CARTESIAN_POINT('',(-1.032869799712,-90.57362045231));
#815 = CARTESIAN_POINT('',(-1.056327644031,-90.52626038952));
#816 = CARTESIAN_POINT('',(-1.080145133685,-90.48010899533));
#817 = CARTESIAN_POINT('',(-1.104339793949,-90.43534020591));
#818 = CARTESIAN_POINT('',(-1.128929026065,-90.39214397201));
#819 = CARTESIAN_POINT('',(-1.153930715615,-90.35072637497));
#820 = CARTESIAN_POINT('',(-1.230358882933,-90.23227687531));
#821 = CARTESIAN_POINT('',(-1.283663291137,-90.16039746263));
#822 = CARTESIAN_POINT('',(-1.338789237427,-90.09889514561));
#823 = CARTESIAN_POINT('',(-1.395359845853,-90.05042844866));
#824 = CARTESIAN_POINT('',(-1.453064383973,-90.01701828273));
#825 = CARTESIAN_POINT('',(-1.511628045871,-90.));
#826 = CARTESIAN_POINT('',(-1.629338652926,-90.));
#827 = CARTESIAN_POINT('',(-1.68731358793,-90.0166600969));
#828 = CARTESIAN_POINT('',(-1.744462942736,-90.04939871309));
#829 = CARTESIAN_POINT('',(-1.800509555014,-90.0969340105));
#830 = CARTESIAN_POINT('',(-1.855141450445,-90.15730573029));
#831 = CARTESIAN_POINT('',(-1.907981868057,-90.22792109549));
#832 = CARTESIAN_POINT('',(-1.985018328313,-90.34630772593));
#833 = CARTESIAN_POINT('',(-2.011024169441,-90.38917480638));
#834 = CARTESIAN_POINT('',(-2.036583982486,-90.43397535181));
#835 = CARTESIAN_POINT('',(-2.061717760506,-90.48047757019));
#836 = CARTESIAN_POINT('',(-2.086444913946,-90.52846840477));
#837 = CARTESIAN_POINT('',(-2.110785004427,-90.57775339542));
#838 = CARTESIAN_POINT('',(-2.197843366079,-90.76078966171));
#839 = CARTESIAN_POINT('',(-2.258504572344,-90.90140746061));
#840 = CARTESIAN_POINT('',(-2.317120907168,-91.0469051978));
#841 = CARTESIAN_POINT('',(-2.374055510576,-91.19492123757));
#842 = CARTESIAN_POINT('',(-2.42969251025,-91.34363982011));
#843 = CARTESIAN_POINT('',(-2.484436427127,-91.49152994025));
#844 = CARTESIAN_POINT('',(-2.58964114641,-91.77306646219));
#845 = CARTESIAN_POINT('',(-2.640033169433,-91.90669721788));
#846 = CARTESIAN_POINT('',(-2.69026098802,-92.03624401702));
#847 = CARTESIAN_POINT('',(-2.740597949259,-92.15980792739));
#848 = CARTESIAN_POINT('',(-2.791269392907,-92.2748071826));
#849 = CARTESIAN_POINT('',(-2.842490864629,-92.37787477668));
#850 = CARTESIAN_POINT('',(-2.906835115227,-92.48578053427));
#851 = CARTESIAN_POINT('',(-2.919168133066,-92.50550609574));
#852 = CARTESIAN_POINT('',(-2.931542987856,-92.52428891022));
#853 = CARTESIAN_POINT('',(-2.94395892751,-92.54207251179));
#854 = CARTESIAN_POINT('',(-2.956415869298,-92.55880248836));
#855 = CARTESIAN_POINT('',(-2.968914379289,-92.57442667079));
#856 = CARTESIAN_POINT('',(-3.004021744563,-92.61492943671));
#857 = CARTESIAN_POINT('',(-3.026749712966,-92.63724935504));
#858 = CARTESIAN_POINT('',(-3.049594411321,-92.65549067137));
#859 = CARTESIAN_POINT('',(-3.072523196899,-92.66937264789));
#860 = CARTESIAN_POINT('',(-3.095511837354,-92.67870219795));
#861 = CARTESIAN_POINT('',(-3.118540904382,-92.68337520964));
#862 = CARTESIAN_POINT('',(-3.164715933602,-92.68337520964));
#863 = CARTESIAN_POINT('',(-3.187816196734,-92.67867315201));
#864 = CARTESIAN_POINT('',(-3.210875630977,-92.66928580451));
#865 = CARTESIAN_POINT('',(-3.233874711955,-92.65531854941));
#866 = CARTESIAN_POINT('',(-3.256789043199,-92.63696673828));
#867 = CARTESIAN_POINT('',(-3.279585700391,-92.61451434192));
#868 = CARTESIAN_POINT('',(-3.314735514926,-92.57384969232));
#869 = CARTESIAN_POINT('',(-3.32720931753,-92.55821972255));
#870 = CARTESIAN_POINT('',(-3.3396416832,-92.54148949509));
#871 = CARTESIAN_POINT('',(-3.352033185624,-92.52371091293));
#872 = CARTESIAN_POINT('',(-3.364383756111,-92.50493808599));
#873 = CARTESIAN_POINT('',(-3.376692663321,-92.4852271441));
#874 = CARTESIAN_POINT('',(-3.440877403188,-92.37747788771));
#875 = CARTESIAN_POINT('',(-3.491968578818,-92.27464424519));
#876 = CARTESIAN_POINT('',(-3.542512662258,-92.15994479496));
#877 = CARTESIAN_POINT('',(-3.592723728561,-92.03671991778));
#878 = CARTESIAN_POINT('',(-3.642825535729,-91.90753306564));
#879 = CARTESIAN_POINT('',(-3.69308932254,-91.77427139965));
#880 = CARTESIAN_POINT('',(-3.79859953007,-91.49194267106));
#881 = CARTESIAN_POINT('',(-3.853784700299,-91.34283883156));
#882 = CARTESIAN_POINT('',(-3.909877817909,-91.19289586379));
#883 = CARTESIAN_POINT('',(-3.96729380871,-91.04367734632));
#884 = CARTESIAN_POINT('',(-4.026426483705,-90.89704496403));
#885 = CARTESIAN_POINT('',(-4.087647701763,-90.75542869451));
#886 = CARTESIAN_POINT('',(-4.174462453303,-90.57362045231));
#887 = CARTESIAN_POINT('',(-4.197920297621,-90.52626038952));
#888 = CARTESIAN_POINT('',(-4.221737787274,-90.48010899533));
#889 = CARTESIAN_POINT('',(-4.245932447538,-90.43534020591));
#890 = CARTESIAN_POINT('',(-4.270521679655,-90.39214397201));
#891 = CARTESIAN_POINT('',(-4.295523369206,-90.35072637496));
#892 = CARTESIAN_POINT('',(-4.371951536524,-90.23227687531));
#893 = CARTESIAN_POINT('',(-4.425255944725,-90.16039746263));
#894 = CARTESIAN_POINT('',(-4.480381891019,-90.09889514561));
#895 = CARTESIAN_POINT('',(-4.536952499445,-90.05042844866));
#896 = CARTESIAN_POINT('',(-4.594657037561,-90.01701828274));
#897 = CARTESIAN_POINT('',(-4.653220699461,-90.));
#898 = CARTESIAN_POINT('',(-4.770931305977,-90.));
#899 = CARTESIAN_POINT('',(-4.828906242799,-90.01666009745));
#900 = CARTESIAN_POINT('',(-4.886055595624,-90.04939871235));
#901 = CARTESIAN_POINT('',(-4.942102207781,-90.09693401018));
#902 = CARTESIAN_POINT('',(-4.996734105167,-90.15730573137));
#903 = CARTESIAN_POINT('',(-5.049574521271,-90.22792109491));
#904 = CARTESIAN_POINT('',(-5.126610981903,-90.34630772593));
#905 = CARTESIAN_POINT('',(-5.152616823031,-90.38917480638));
#906 = CARTESIAN_POINT('',(-5.178176636075,-90.43397535181));
#907 = CARTESIAN_POINT('',(-5.203310414096,-90.48047757019));
#908 = CARTESIAN_POINT('',(-5.228037567536,-90.52846840477));
#909 = CARTESIAN_POINT('',(-5.252377658017,-90.57775339542));
#910 = CARTESIAN_POINT('',(-5.339436019669,-90.76078966171));
#911 = CARTESIAN_POINT('',(-5.400097225934,-90.90140746061));
#912 = CARTESIAN_POINT('',(-5.458713560759,-91.0469051978));
#913 = CARTESIAN_POINT('',(-5.515648164165,-91.19492123757));
#914 = CARTESIAN_POINT('',(-5.57128516384,-91.34363982011));
#915 = CARTESIAN_POINT('',(-5.626029080716,-91.49152994025));
#916 = CARTESIAN_POINT('',(-5.7312338,-91.77306646219));
#917 = CARTESIAN_POINT('',(-5.781625823023,-91.90669721789));
#918 = CARTESIAN_POINT('',(-5.831853641609,-92.03624401702));
#919 = CARTESIAN_POINT('',(-5.88219060285,-92.1598079274));
#920 = CARTESIAN_POINT('',(-5.932862046496,-92.2748071826));
#921 = CARTESIAN_POINT('',(-5.984083518219,-92.37787477668));
#922 = CARTESIAN_POINT('',(-6.070457645539,-92.52272479137));
#923 = CARTESIAN_POINT('',(-6.105303459802,-92.57369817481));
#924 = CARTESIAN_POINT('',(-6.140486447097,-92.61641039354));
#925 = CARTESIAN_POINT('',(-6.175901466761,-92.64951084281));
#926 = CARTESIAN_POINT('',(-6.211498096204,-92.67202503191));
#927 = CARTESIAN_POINT('',(-6.247258924606,-92.68337520964));
#928 = CARTESIAN_POINT('',(-6.28318530718,-92.68337520964));
#929 = ( GEOMETRIC_REPRESENTATION_CONTEXT(2) 
PARAMETRIC_REPRESENTATION_CONTEXT() REPRESENTATION_CONTEXT('2D SPACE',''
  ) );
#930 = PCURVE('',#931,#936);
#931 = CYLINDRICAL_SURFACE('',#932,6.);
#932 = AXIS2_PLACEMENT_3D('',#933,#934,#935);
#933 = CARTESIAN_POINT('',(48.,340.,162.7));
#934 = DIRECTION('',(-0.,-0.,-1.));
#935 = DIRECTION('',(1.,0.,0.));
#936 = DEFINITIONAL_REPRESENTATION('',(#937),#1072);
#937 = B_SPLINE_CURVE_WITH_KNOTS('',7,(#938,#939,#940,#941,#942,#943,
    #944,#945,#946,#947,#948,#949,#950,#951,#952,#953,#954,#955,#956,
    #957,#958,#959,#960,#961,#962,#963,#964,#965,#966,#967,#968,#969,
    #970,#971,#972,#973,#974,#975,#976,#977,#978,#979,#980,#981,#982,
    #983,#984,#985,#986,#987,#988,#989,#990,#991,#992,#993,#994,#995,
    #996,#997,#998,#999,#1000,#1001,#1002,#1003,#1004,#1005,#1006,#1007,
    #1008,#1009,#1010,#1011,#1012,#1013,#1014,#1015,#1016,#1017,#1018,
    #1019,#1020,#1021,#1022,#1023,#1024,#1025,#1026,#1027,#1028,#1029,
    #1030,#1031,#1032,#1033,#1034,#1035,#1036,#1037,#1038,#1039,#1040,
    #1041,#1042,#1043,#1044,#1045,#1046,#1047,#1048,#1049,#1050,#1051,
    #1052,#1053,#1054,#1055,#1056,#1057,#1058,#1059,#1060,#1061,#1062,
    #1063,#1064,#1065,#1066,#1067,#1068,#1069,#1070,#1071),
  .UNSPECIFIED.,.T.,.F.,(8,6,6,6,6,6,6,6,6,6,6,6,6,6,6,6,6,6,6,6,6,6,8),
  (0.,4.224736465626E-02,0.106080431496,0.17490079343,0.199876076009,
    0.249953114148,0.299500375833,0.325441601772,0.393704520755,
    0.457700004518,0.472808930901,0.499995122297,0.527265673891,
    0.542346501733,0.606180760615,0.675002407726,0.699978156703,
    0.750056130006,0.799604316505,0.825546026451,0.893810219075,
    0.957806896857,1.),.UNSPECIFIED.);
#938 = CARTESIAN_POINT('',(-2.156481870252,-41.8));
#939 = CARTESIAN_POINT('',(-2.156481870252,-41.97987158374));
#940 = CARTESIAN_POINT('',(-2.158757947984,-42.15891079119));
#941 = CARTESIAN_POINT('',(-2.163272706231,-42.33674412662));
#942 = CARTESIAN_POINT('',(-2.169931411717,-42.51292420256));
#943 = CARTESIAN_POINT('',(-2.178579867642,-42.68684708202));
#944 = CARTESIAN_POINT('',(-2.188999336634,-42.85767352863));
#945 = CARTESIAN_POINT('',(-2.218877410454,-43.27594685514));
#946 = CARTESIAN_POINT('',(-2.24036483894,-43.51977671083));
#947 = CARTESIAN_POINT('',(-2.264777706198,-43.7562175525));
#948 = CARTESIAN_POINT('',(-2.291648939093,-43.98547223271));
#949 = CARTESIAN_POINT('',(-2.320665215597,-44.20775443562));
#950 = CARTESIAN_POINT('',(-2.351665519285,-44.42337314794));
#951 = CARTESIAN_POINT('',(-2.420187529383,-44.85810299172));
#952 = CARTESIAN_POINT('',(-2.457936163103,-45.07557880454));
#953 = CARTESIAN_POINT('',(-2.497870308254,-45.28549830166));
#954 = CARTESIAN_POINT('',(-2.540095578531,-45.48766740456));
#955 = CARTESIAN_POINT('',(-2.584768652352,-45.68113376427));
#956 = CARTESIAN_POINT('',(-2.632071041414,-45.86404353288));
#957 = CARTESIAN_POINT('',(-2.700411066215,-46.09500097576));
#958 = CARTESIAN_POINT('',(-2.718994221988,-46.1547677863));
#959 = CARTESIAN_POINT('',(-2.73797354839,-46.21265783961));
#960 = CARTESIAN_POINT('',(-2.757358827488,-46.26850485286));
#961 = CARTESIAN_POINT('',(-2.777159820575,-46.32212204157));
#962 = CARTESIAN_POINT('',(-2.797386609065,-46.3733021502));
#963 = CARTESIAN_POINT('',(-2.85948122556,-46.5190938257));
#964 = CARTESIAN_POINT('',(-2.903134643461,-46.6067532045));
#965 = CARTESIAN_POINT('',(-2.948589926853,-46.68116596166));
#966 = CARTESIAN_POINT('',(-2.995481895867,-46.73948505245));
#967 = CARTESIAN_POINT('',(-3.043482638133,-46.77957838929));
#968 = CARTESIAN_POINT('',(-3.09228575282,-46.8));
#969 = CARTESIAN_POINT('',(-3.190377925366,-46.8));
#970 = CARTESIAN_POINT('',(-3.23869043156,-46.78000818294));
#971 = CARTESIAN_POINT('',(-3.286231235233,-46.74072080573));
#972 = CARTESIAN_POINT('',(-3.332694003589,-46.68352595367));
#973 = CARTESIAN_POINT('',(-3.377751551453,-46.61049372522));
#974 = CARTESIAN_POINT('',(-3.421040176022,-46.52440416357));
#975 = CARTESIAN_POINT('',(-3.4836611572,-46.37876468653));
#976 = CARTESIAN_POINT('',(-3.504708560227,-46.32581539426));
#977 = CARTESIAN_POINT('',(-3.525296039614,-46.27022213163));
#978 = CARTESIAN_POINT('',(-3.545434848938,-46.21221822964));
#979 = CARTESIAN_POINT('',(-3.565135858918,-46.152013242));
#980 = CARTESIAN_POINT('',(-3.584409968626,-46.0897929103));
#981 = CARTESIAN_POINT('',(-3.652893755789,-45.85711247415));
#982 = CARTESIAN_POINT('',(-3.699731865945,-45.67536379121));
#983 = CARTESIAN_POINT('',(-3.743988187681,-45.48326893822));
#984 = CARTESIAN_POINT('',(-3.78583921488,-45.28262111535));
#985 = CARTESIAN_POINT('',(-3.825436897517,-45.07434362784));
#986 = CARTESIAN_POINT('',(-3.862883255743,-44.85862734918));
#987 = CARTESIAN_POINT('',(-3.931240650213,-44.42533156621));
#988 = CARTESIAN_POINT('',(-3.962334225288,-44.20921633801));
#989 = CARTESIAN_POINT('',(-3.991434820722,-43.98640516577));
#990 = CARTESIAN_POINT('',(-4.018380733305,-43.75658676325));
#991 = CARTESIAN_POINT('',(-4.042856470449,-43.51954633723));
#992 = CARTESIAN_POINT('',(-4.064391209782,-43.27508012428));
#993 = CARTESIAN_POINT('',(-4.086648109435,-42.96312674285));
#994 = CARTESIAN_POINT('',(-4.090701378535,-42.90311842603));
#995 = CARTESIAN_POINT('',(-4.094547523803,-42.84270380176));
#996 = CARTESIAN_POINT('',(-4.098177567742,-42.78189914482));
#997 = CARTESIAN_POINT('',(-4.101582874161,-42.72071803233));
#998 = CARTESIAN_POINT('',(-4.104755137383,-42.65917134781));
#999 = CARTESIAN_POINT('',(-4.112960676774,-42.48588043662));
#1000 = CARTESIAN_POINT('',(-4.117460086394,-42.37322089073));
#1001 = CARTESIAN_POINT('',(-4.121122880696,-42.25959200135));
#1002 = CARTESIAN_POINT('',(-4.123902922752,-42.14524719972));
#1003 = CARTESIAN_POINT('',(-4.125768835327,-42.03040409997));
#1004 = CARTESIAN_POINT('',(-4.126703436928,-41.91525874604));
#1005 = CARTESIAN_POINT('',(-4.126703436928,-41.68438359993));
#1006 = CARTESIAN_POINT('',(-4.125763026157,-41.5688822651));
#1007 = CARTESIAN_POINT('',(-4.123885554035,-41.45368613187));
#1008 = CARTESIAN_POINT('',(-4.121088410826,-41.33899263513));
#1009 = CARTESIAN_POINT('',(-4.117403337182,-41.22502109025));
#1010 = CARTESIAN_POINT('',(-4.112876997344,-41.11202713044));
#1011 = CARTESIAN_POINT('',(-4.10463800931,-40.93854042485));
#1012 = CARTESIAN_POINT('',(-4.101464309042,-40.87712043391));
#1013 = CARTESIAN_POINT('',(-4.098058662948,-40.81606512171));
#1014 = CARTESIAN_POINT('',(-4.094429332898,-40.755385246));
#1015 = CARTESIAN_POINT('',(-4.09058490553,-40.69509423094));
#1016 = CARTESIAN_POINT('',(-4.08653430289,-40.63520817106));
#1017 = CARTESIAN_POINT('',(-4.064307896726,-40.32405314486));
#1018 = CARTESIAN_POINT('',(-4.04282046824,-40.08022328916));
#1019 = CARTESIAN_POINT('',(-4.018407600982,-39.84378244749));
#1020 = CARTESIAN_POINT('',(-3.991536368086,-39.61452776728));
#1021 = CARTESIAN_POINT('',(-3.962520091582,-39.39224556437));
#1022 = CARTESIAN_POINT('',(-3.931519787895,-39.17662685205));
#1023 = CARTESIAN_POINT('',(-3.862997777797,-38.74189700827));
#1024 = CARTESIAN_POINT('',(-3.825249144077,-38.52442119545));
#1025 = CARTESIAN_POINT('',(-3.785314998925,-38.31450169833));
#1026 = CARTESIAN_POINT('',(-3.743089728648,-38.11233259543));
#1027 = CARTESIAN_POINT('',(-3.698416654828,-37.91886623572));
#1028 = CARTESIAN_POINT('',(-3.651114265766,-37.73595646711));
#1029 = CARTESIAN_POINT('',(-3.582774240964,-37.50499902423));
#1030 = CARTESIAN_POINT('',(-3.564191085192,-37.44523221369));
#1031 = CARTESIAN_POINT('',(-3.54521175879,-37.38734216038));
#1032 = CARTESIAN_POINT('',(-3.525826479693,-37.33149514714));
#1033 = CARTESIAN_POINT('',(-3.506025486604,-37.27787795842));
#1034 = CARTESIAN_POINT('',(-3.485798698113,-37.22669784979));
#1035 = CARTESIAN_POINT('',(-3.423704081619,-37.08090617429));
#1036 = CARTESIAN_POINT('',(-3.38005066372,-36.99324679549));
#1037 = CARTESIAN_POINT('',(-3.334595380325,-36.91883403833));
#1038 = CARTESIAN_POINT('',(-3.287703411311,-36.86051494754));
#1039 = CARTESIAN_POINT('',(-3.239702669049,-36.82042161071));
#1040 = CARTESIAN_POINT('',(-3.190899554359,-36.8));
#1041 = CARTESIAN_POINT('',(-3.092807382263,-36.8));
#1042 = CARTESIAN_POINT('',(-3.044494874559,-36.81999181772));
#1043 = CARTESIAN_POINT('',(-2.996954072523,-36.85927919334));
#1044 = CARTESIAN_POINT('',(-2.950491304274,-36.91647404594));
#1045 = CARTESIAN_POINT('',(-2.905433754797,-36.98950627609));
#1046 = CARTESIAN_POINT('',(-2.862145131463,-37.07559583571));
#1047 = CARTESIAN_POINT('',(-2.799524149979,-37.22123531346));
#1048 = CARTESIAN_POINT('',(-2.778476746953,-37.27418460573));
#1049 = CARTESIAN_POINT('',(-2.757889267565,-37.32977786836));
#1050 = CARTESIAN_POINT('',(-2.737750458241,-37.38778177035));
#1051 = CARTESIAN_POINT('',(-2.718049448262,-37.44798675799));
#1052 = CARTESIAN_POINT('',(-2.698775338553,-37.51020708969));
#1053 = CARTESIAN_POINT('',(-2.63029155139,-37.74288752584));
#1054 = CARTESIAN_POINT('',(-2.583453441235,-37.92463620878));
#1055 = CARTESIAN_POINT('',(-2.539197119498,-38.11673106177));
#1056 = CARTESIAN_POINT('',(-2.4973460923,-38.31737888465));
#1057 = CARTESIAN_POINT('',(-2.457748409662,-38.52565637215));
#1058 = CARTESIAN_POINT('',(-2.420302051437,-38.74137265081));
#1059 = CARTESIAN_POINT('',(-2.351944656967,-39.17466843378));
#1060 = CARTESIAN_POINT('',(-2.320851081891,-39.39078366199));
#1061 = CARTESIAN_POINT('',(-2.291750486458,-39.61359483422));
#1062 = CARTESIAN_POINT('',(-2.264804573875,-39.84341323675));
#1063 = CARTESIAN_POINT('',(-2.240328836731,-40.08045366276));
#1064 = CARTESIAN_POINT('',(-2.218794097398,-40.32491987572));
#1065 = CARTESIAN_POINT('',(-2.188916986909,-40.74367836362));
#1066 = CARTESIAN_POINT('',(-2.178522986925,-40.91429804002));
#1067 = CARTESIAN_POINT('',(-2.169896323788,-41.08800412322));
#1068 = CARTESIAN_POINT('',(-2.163254790373,-41.2639601337));
#1069 = CARTESIAN_POINT('',(-2.15875188715,-41.44156369028));
#1070 = CARTESIAN_POINT('',(-2.156481870252,-41.62036808713));
#1071 = CARTESIAN_POINT('',(-2.156481870252,-41.8));
#1072 = ( GEOMETRIC_REPRESENTATION_CONTEXT(2) 
PARAMETRIC_REPRESENTATION_CONTEXT() REPRESENTATION_CONTEXT('2D SPACE',''
  ) );
#1073 = ORIENTED_EDGE('',*,*,#632,.F.);
#1074 = ORIENTED_EDGE('',*,*,#78,.F.);
#1075 = ORIENTED_EDGE('',*,*,#354,.F.);
#1076 = ADVANCED_FACE('',(#1077),#341,.T.);
#1077 = FACE_BOUND('',#1078,.T.);
#1078 = EDGE_LOOP('',(#1079));
#1079 = ORIENTED_EDGE('',*,*,#326,.T.);
#1080 = ADVANCED_FACE('',(#1081),#616,.F.);
#1081 = FACE_BOUND('',#1082,.T.);
#1082 = EDGE_LOOP('',(#1083,#1084,#1107,#1134));
#1083 = ORIENTED_EDGE('',*,*,#595,.T.);
#1084 = ORIENTED_EDGE('',*,*,#1085,.T.);
#1085 = EDGE_CURVE('',#596,#1086,#1088,.T.);
#1086 = VERTEX_POINT('',#1087);
#1087 = CARTESIAN_POINT('',(-45.,340.,177.5));
#1088 = SEAM_CURVE('',#1089,(#1093,#1100),.PCURVE_S1.);
#1089 = LINE('',#1090,#1091);
#1090 = CARTESIAN_POINT('',(-45.,340.,162.5));
#1091 = VECTOR('',#1092,1.);
#1092 = DIRECTION('',(0.,0.,1.));
#1093 = PCURVE('',#616,#1094);
#1094 = DEFINITIONAL_REPRESENTATION('',(#1095),#1099);
#1095 = LINE('',#1096,#1097);
#1096 = CARTESIAN_POINT('',(-6.28318530718,0.));
#1097 = VECTOR('',#1098,1.);
#1098 = DIRECTION('',(-0.,-1.));
#1099 = ( GEOMETRIC_REPRESENTATION_CONTEXT(2) 
PARAMETRIC_REPRESENTATION_CONTEXT() REPRESENTATION_CONTEXT('2D SPACE',''
  ) );
#1100 = PCURVE('',#616,#1101);
#1101 = DEFINITIONAL_REPRESENTATION('',(#1102),#1106);
#1102 = LINE('',#1103,#1104);
#1103 = CARTESIAN_POINT('',(-0.,0.));
#1104 = VECTOR('',#1105,1.);
#1105 = DIRECTION('',(-0.,-1.));
#1106 = ( GEOMETRIC_REPRESENTATION_CONTEXT(2) 
PARAMETRIC_REPRESENTATION_CONTEXT() REPRESENTATION_CONTEXT('2D SPACE',''
  ) );
#1107 = ORIENTED_EDGE('',*,*,#1108,.T.);
#1108 = EDGE_CURVE('',#1086,#1086,#1109,.T.);
#1109 = SURFACE_CURVE('',#1110,(#1115,#1122),.PCURVE_S1.);
#1110 = CIRCLE('',#1111,3.);
#1111 = AXIS2_PLACEMENT_3D('',#1112,#1113,#1114);
#1112 = CARTESIAN_POINT('',(-48.,340.,177.5));
#1113 = DIRECTION('',(0.,0.,1.));
#1114 = DIRECTION('',(1.,0.,0.));
#1115 = PCURVE('',#616,#1116);
#1116 = DEFINITIONAL_REPRESENTATION('',(#1117),#1121);
#1117 = LINE('',#1118,#1119);
#1118 = CARTESIAN_POINT('',(-0.,-15.));
#1119 = VECTOR('',#1120,1.);
#1120 = DIRECTION('',(-1.,0.));
#1121 = ( GEOMETRIC_REPRESENTATION_CONTEXT(2) 
PARAMETRIC_REPRESENTATION_CONTEXT() REPRESENTATION_CONTEXT('2D SPACE',''
  ) );
#1122 = PCURVE('',#1123,#1128);
#1123 = PLANE('',#1124);
#1124 = AXIS2_PLACEMENT_3D('',#1125,#1126,#1127);
#1125 = CARTESIAN_POINT('',(-48.,340.,177.5));
#1126 = DIRECTION('',(0.,0.,1.));
#1127 = DIRECTION('',(1.,0.,-0.));
#1128 = DEFINITIONAL_REPRESENTATION('',(#1129),#1133);
#1129 = CIRCLE('',#1130,3.);
#1130 = AXIS2_PLACEMENT_2D('',#1131,#1132);
#1131 = CARTESIAN_POINT('',(0.,5.684341886081E-14));
#1132 = DIRECTION('',(1.,0.));
#1133 = ( GEOMETRIC_REPRESENTATION_CONTEXT(2) 
PARAMETRIC_REPRESENTATION_CONTEXT() REPRESENTATION_CONTEXT('2D SPACE',''
  ) );
#1134 = ORIENTED_EDGE('',*,*,#1085,.F.);
#1135 = ADVANCED_FACE('',(#1136,#1218),#931,.T.);
#1136 = FACE_BOUND('',#1137,.F.);
#1137 = EDGE_LOOP('',(#1138,#1167,#1190,#1217));
#1138 = ORIENTED_EDGE('',*,*,#1139,.F.);
#1139 = EDGE_CURVE('',#1140,#1140,#1142,.T.);
#1140 = VERTEX_POINT('',#1141);
#1141 = CARTESIAN_POINT('',(54.,340.,162.7));
#1142 = SURFACE_CURVE('',#1143,(#1148,#1155),.PCURVE_S1.);
#1143 = CIRCLE('',#1144,6.);
#1144 = AXIS2_PLACEMENT_3D('',#1145,#1146,#1147);
#1145 = CARTESIAN_POINT('',(48.,340.,162.7));
#1146 = DIRECTION('',(0.,0.,1.));
#1147 = DIRECTION('',(1.,0.,0.));
#1148 = PCURVE('',#931,#1149);
#1149 = DEFINITIONAL_REPRESENTATION('',(#1150),#1154);
#1150 = LINE('',#1151,#1152);
#1151 = CARTESIAN_POINT('',(-0.,0.));
#1152 = VECTOR('',#1153,1.);
#1153 = DIRECTION('',(-1.,0.));
#1154 = ( GEOMETRIC_REPRESENTATION_CONTEXT(2) 
PARAMETRIC_REPRESENTATION_CONTEXT() REPRESENTATION_CONTEXT('2D SPACE',''
  ) );
#1155 = PCURVE('',#1156,#1161);
#1156 = PLANE('',#1157);
#1157 = AXIS2_PLACEMENT_3D('',#1158,#1159,#1160);
#1158 = CARTESIAN_POINT('',(48.,340.,162.7));
#1159 = DIRECTION('',(0.,0.,1.));
#1160 = DIRECTION('',(1.,0.,-0.));
#1161 = DEFINITIONAL_REPRESENTATION('',(#1162),#1166);
#1162 = CIRCLE('',#1163,6.);
#1163 = AXIS2_PLACEMENT_2D('',#1164,#1165);
#1164 = CARTESIAN_POINT('',(0.,5.684341886081E-14));
#1165 = DIRECTION('',(1.,0.));
#1166 = ( GEOMETRIC_REPRESENTATION_CONTEXT(2) 
PARAMETRIC_REPRESENTATION_CONTEXT() REPRESENTATION_CONTEXT('2D SPACE',''
  ) );
#1167 = ORIENTED_EDGE('',*,*,#1168,.T.);
#1168 = EDGE_CURVE('',#1140,#1169,#1171,.T.);
#1169 = VERTEX_POINT('',#1170);
#1170 = CARTESIAN_POINT('',(54.,340.,210.5));
#1171 = SEAM_CURVE('',#1172,(#1176,#1183),.PCURVE_S1.);
#1172 = LINE('',#1173,#1174);
#1173 = CARTESIAN_POINT('',(54.,340.,162.7));
#1174 = VECTOR('',#1175,1.);
#1175 = DIRECTION('',(0.,0.,1.));
#1176 = PCURVE('',#931,#1177);
#1177 = DEFINITIONAL_REPRESENTATION('',(#1178),#1182);
#1178 = LINE('',#1179,#1180);
#1179 = CARTESIAN_POINT('',(-6.28318530718,0.));
#1180 = VECTOR('',#1181,1.);
#1181 = DIRECTION('',(-0.,-1.));
#1182 = ( GEOMETRIC_REPRESENTATION_CONTEXT(2) 
PARAMETRIC_REPRESENTATION_CONTEXT() REPRESENTATION_CONTEXT('2D SPACE',''
  ) );
#1183 = PCURVE('',#931,#1184);
#1184 = DEFINITIONAL_REPRESENTATION('',(#1185),#1189);
#1185 = LINE('',#1186,#1187);
#1186 = CARTESIAN_POINT('',(-0.,0.));
#1187 = VECTOR('',#1188,1.);
#1188 = DIRECTION('',(-0.,-1.));
#1189 = ( GEOMETRIC_REPRESENTATION_CONTEXT(2) 
PARAMETRIC_REPRESENTATION_CONTEXT() REPRESENTATION_CONTEXT('2D SPACE',''
  ) );
#1190 = ORIENTED_EDGE('',*,*,#1191,.T.);
#1191 = EDGE_CURVE('',#1169,#1169,#1192,.T.);
#1192 = SURFACE_CURVE('',#1193,(#1198,#1205),.PCURVE_S1.);
#1193 = CIRCLE('',#1194,6.);
#1194 = AXIS2_PLACEMENT_3D('',#1195,#1196,#1197);
#1195 = CARTESIAN_POINT('',(48.,340.,210.5));
#1196 = DIRECTION('',(0.,0.,1.));
#1197 = DIRECTION('',(1.,0.,0.));
#1198 = PCURVE('',#931,#1199);
#1199 = DEFINITIONAL_REPRESENTATION('',(#1200),#1204);
#1200 = LINE('',#1201,#1202);
#1201 = CARTESIAN_POINT('',(-0.,-47.8));
#1202 = VECTOR('',#1203,1.);
#1203 = DIRECTION('',(-1.,0.));
#1204 = ( GEOMETRIC_REPRESENTATION_CONTEXT(2) 
PARAMETRIC_REPRESENTATION_CONTEXT() REPRESENTATION_CONTEXT('2D SPACE',''
  ) );
#1205 = PCURVE('',#1206,#1211);
#1206 = PLANE('',#1207);
#1207 = AXIS2_PLACEMENT_3D('',#1208,#1209,#1210);
#1208 = CARTESIAN_POINT('',(48.,340.,210.5));
#1209 = DIRECTION('',(0.,0.,1.));
#1210 = DIRECTION('',(1.,0.,-0.));
#1211 = DEFINITIONAL_REPRESENTATION('',(#1212),#1216);
#1212 = CIRCLE('',#1213,6.);
#1213 = AXIS2_PLACEMENT_2D('',#1214,#1215);
#1214 = CARTESIAN_POINT('',(0.,5.684341886081E-14));
#1215 = DIRECTION('',(1.,0.));
#1216 = ( GEOMETRIC_REPRESENTATION_CONTEXT(2) 
PARAMETRIC_REPRESENTATION_CONTEXT() REPRESENTATION_CONTEXT('2D SPACE',''
  ) );
#1217 = ORIENTED_EDGE('',*,*,#1168,.F.);
#1218 = FACE_BOUND('',#1219,.F.);
#1219 = EDGE_LOOP('',(#1220));
#1220 = ORIENTED_EDGE('',*,*,#655,.F.);
#1221 = ADVANCED_FACE('',(#1222),#1123,.F.);
#1222 = FACE_BOUND('',#1223,.F.);
#1223 = EDGE_LOOP('',(#1224));
#1224 = ORIENTED_EDGE('',*,*,#1108,.T.);
#1225 = ADVANCED_FACE('',(#1226,#1229),#1156,.F.);
#1226 = FACE_BOUND('',#1227,.F.);
#1227 = EDGE_LOOP('',(#1228));
#1228 = ORIENTED_EDGE('',*,*,#1139,.T.);
#1229 = FACE_BOUND('',#1230,.F.);
#1230 = EDGE_LOOP('',(#1231));
#1231 = ORIENTED_EDGE('',*,*,#1232,.T.);
#1232 = EDGE_CURVE('',#1233,#1233,#1235,.T.);
#1233 = VERTEX_POINT('',#1234);
#1234 = CARTESIAN_POINT('',(51.,340.,162.7));
#1235 = SURFACE_CURVE('',#1236,(#1241,#1252),.PCURVE_S1.);
#1236 = CIRCLE('',#1237,3.);
#1237 = AXIS2_PLACEMENT_3D('',#1238,#1239,#1240);
#1238 = CARTESIAN_POINT('',(48.,340.,162.7));
#1239 = DIRECTION('',(0.,0.,-1.));
#1240 = DIRECTION('',(1.,0.,0.));
#1241 = PCURVE('',#1156,#1242);
#1242 = DEFINITIONAL_REPRESENTATION('',(#1243),#1251);
#1243 = ( BOUNDED_CURVE() B_SPLINE_CURVE(2,(#1244,#1245,#1246,#1247,
#1248,#1249,#1250),.UNSPECIFIED.,.T.,.F.) B_SPLINE_CURVE_WITH_KNOTS((1,2
    ,2,2,2,1),(-2.094395102393,0.,2.094395102393,4.188790204786,
6.28318530718,8.377580409573),.UNSPECIFIED.) CURVE() 
GEOMETRIC_REPRESENTATION_ITEM() RATIONAL_B_SPLINE_CURVE((1.,0.5,1.,0.5,
1.,0.5,1.)) REPRESENTATION_ITEM('') );
#1244 = CARTESIAN_POINT('',(3.,5.684341886081E-14));
#1245 = CARTESIAN_POINT('',(3.,-5.196152422707));
#1246 = CARTESIAN_POINT('',(-1.5,-2.598076211353));
#1247 = CARTESIAN_POINT('',(-6.,5.610863078132E-14));
#1248 = CARTESIAN_POINT('',(-1.5,2.598076211353));
#1249 = CARTESIAN_POINT('',(3.,5.196152422707));
#1250 = CARTESIAN_POINT('',(3.,5.684341886081E-14));
#1251 = ( GEOMETRIC_REPRESENTATION_CONTEXT(2) 
PARAMETRIC_REPRESENTATION_CONTEXT() REPRESENTATION_CONTEXT('2D SPACE',''
  ) );
#1252 = PCURVE('',#1253,#1258);
#1253 = CYLINDRICAL_SURFACE('',#1254,3.);
#1254 = AXIS2_PLACEMENT_3D('',#1255,#1256,#1257);
#1255 = CARTESIAN_POINT('',(48.,340.,162.5));
#1256 = DIRECTION('',(-0.,-0.,-1.));
#1257 = DIRECTION('',(1.,0.,0.));
#1258 = DEFINITIONAL_REPRESENTATION('',(#1259),#1263);
#1259 = LINE('',#1260,#1261);
#1260 = CARTESIAN_POINT('',(-6.28318530718,-0.2));
#1261 = VECTOR('',#1262,1.);
#1262 = DIRECTION('',(1.,-0.));
#1263 = ( GEOMETRIC_REPRESENTATION_CONTEXT(2) 
PARAMETRIC_REPRESENTATION_CONTEXT() REPRESENTATION_CONTEXT('2D SPACE',''
  ) );
#1264 = ADVANCED_FACE('',(#1265),#1206,.T.);
#1265 = FACE_BOUND('',#1266,.T.);
#1266 = EDGE_LOOP('',(#1267));
#1267 = ORIENTED_EDGE('',*,*,#1191,.T.);
#1268 = ADVANCED_FACE('',(#1269),#1253,.F.);
#1269 = FACE_BOUND('',#1270,.T.);
#1270 = EDGE_LOOP('',(#1271,#1272,#1295,#1322));
#1271 = ORIENTED_EDGE('',*,*,#1232,.T.);
#1272 = ORIENTED_EDGE('',*,*,#1273,.T.);
#1273 = EDGE_CURVE('',#1233,#1274,#1276,.T.);
#1274 = VERTEX_POINT('',#1275);
#1275 = CARTESIAN_POINT('',(51.,340.,177.5));
#1276 = SEAM_CURVE('',#1277,(#1281,#1288),.PCURVE_S1.);
#1277 = LINE('',#1278,#1279);
#1278 = CARTESIAN_POINT('',(51.,340.,162.5));
#1279 = VECTOR('',#1280,1.);
#1280 = DIRECTION('',(0.,0.,1.));
#1281 = PCURVE('',#1253,#1282);
#1282 = DEFINITIONAL_REPRESENTATION('',(#1283),#1287);
#1283 = LINE('',#1284,#1285);
#1284 = CARTESIAN_POINT('',(-6.28318530718,0.));
#1285 = VECTOR('',#1286,1.);
#1286 = DIRECTION('',(-0.,-1.));
#1287 = ( GEOMETRIC_REPRESENTATION_CONTEXT(2) 
PARAMETRIC_REPRESENTATION_CONTEXT() REPRESENTATION_CONTEXT('2D SPACE',''
  ) );
#1288 = PCURVE('',#1253,#1289);
#1289 = DEFINITIONAL_REPRESENTATION('',(#1290),#1294);
#1290 = LINE('',#1291,#1292);
#1291 = CARTESIAN_POINT('',(-0.,0.));
#1292 = VECTOR('',#1293,1.);
#1293 = DIRECTION('',(-0.,-1.));
#1294 = ( GEOMETRIC_REPRESENTATION_CONTEXT(2) 
PARAMETRIC_REPRESENTATION_CONTEXT() REPRESENTATION_CONTEXT('2D SPACE',''
  ) );
#1295 = ORIENTED_EDGE('',*,*,#1296,.T.);
#1296 = EDGE_CURVE('',#1274,#1274,#1297,.T.);
#1297 = SURFACE_CURVE('',#1298,(#1303,#1310),.PCURVE_S1.);
#1298 = CIRCLE('',#1299,3.);
#1299 = AXIS2_PLACEMENT_3D('',#1300,#1301,#1302);
#1300 = CARTESIAN_POINT('',(48.,340.,177.5));
#1301 = DIRECTION('',(0.,0.,1.));
#1302 = DIRECTION('',(1.,0.,0.));
#1303 = PCURVE('',#1253,#1304);
#1304 = DEFINITIONAL_REPRESENTATION('',(#1305),#1309);
#1305 = LINE('',#1306,#1307);
#1306 = CARTESIAN_POINT('',(-0.,-15.));
#1307 = VECTOR('',#1308,1.);
#1308 = DIRECTION('',(-1.,0.));
#1309 = ( GEOMETRIC_REPRESENTATION_CONTEXT(2) 
PARAMETRIC_REPRESENTATION_CONTEXT() REPRESENTATION_CONTEXT('2D SPACE',''
  ) );
#1310 = PCURVE('',#1311,#1316);
#1311 = PLANE('',#1312);
#1312 = AXIS2_PLACEMENT_3D('',#1313,#1314,#1315);
#1313 = CARTESIAN_POINT('',(48.,340.,177.5));
#1314 = DIRECTION('',(0.,0.,1.));
#1315 = DIRECTION('',(1.,0.,-0.));
#1316 = DEFINITIONAL_REPRESENTATION('',(#1317),#1321);
#1317 = CIRCLE('',#1318,3.);
#1318 = AXIS2_PLACEMENT_2D('',#1319,#1320);
#1319 = CARTESIAN_POINT('',(0.,5.684341886081E-14));
#1320 = DIRECTION('',(1.,0.));
#1321 = ( GEOMETRIC_REPRESENTATION_CONTEXT(2) 
PARAMETRIC_REPRESENTATION_CONTEXT() REPRESENTATION_CONTEXT('2D SPACE',''
  ) );
#1322 = ORIENTED_EDGE('',*,*,#1273,.F.);
#1323 = ADVANCED_FACE('',(#1324),#1311,.F.);
#1324 = FACE_BOUND('',#1325,.F.);
#1325 = EDGE_LOOP('',(#1326));
#1326 = ORIENTED_EDGE('',*,*,#1296,.T.);
#1327 = ( GEOMETRIC_REPRESENTATION_CONTEXT(3) 
GLOBAL_UNCERTAINTY_ASSIGNED_CONTEXT((#1331)) 
GLOBAL_UNIT_ASSIGNED_CONTEXT((#1328,#1329,#1330)) REPRESENTATION_CONTEXT
('Context #1','3D Context with UNIT and UNCERTAINTY') );
#1328 = ( LENGTH_UNIT() NAMED_UNIT(*) SI_UNIT(.MILLI.,.METRE.) );
#1329 = ( NAMED_UNIT(*) PLANE_ANGLE_UNIT() SI_UNIT($,.RADIAN.) );
#1330 = ( NAMED_UNIT(*) SI_UNIT($,.STERADIAN.) SOLID_ANGLE_UNIT() );
#1331 = UNCERTAINTY_MEASURE_WITH_UNIT(LENGTH_MEASURE(1.E-07),#1328,
  'distance_accuracy_value','confusion accuracy');
#1332 = PRODUCT_RELATED_PRODUCT_CATEGORY('part',$,(#7));
ENDSEC;
END-ISO-10303-21;
