DBRep_DrawableShape

CASCADE Topology V3, (c) Open Cascade
Locations 0
Curve2ds 636
1 0 0 1 0 
1 0 0 1 0 
1 150 0 0 -1 
1 0 0 0 1 
1 0 -5 1 0 
1 0 0 1 0 
1 0 0 0 -1 
1 0 0 0 1 
1 0 0 1 0 
1 0 24 1 0 
1 150 0 0 -1 
1 24 0 0 1 
1 0 -5 1 0 
1 0 24 1 0 
1 0 0 0 -1 
1 24 0 0 1 
1 0 0 0 1 
1 0 0 1 0 
1 150 0 0 1 
1 0 0 1 0 
1 0 0 0 1 
1 0 5 1 0 
1 150 0 0 1 
1 0 5 1 0 
1 0 0 1 0 
1 0 0 1 0 
1 80 0 0 -1 
1 0 0 0 1 
1 0 -5 1 0 
1 0 0 1 0 
1 0 0 0 -1 
1 0 0 0 1 
1 0 0 1 0 
1 0 24 1 0 
1 80 0 0 -1 
1 24 0 0 1 
1 0 -5 1 0 
1 0 24 1 0 
1 0 0 0 -1 
1 24 0 0 1 
1 0 0 0 1 
1 0 0 1 0 
1 80 0 0 1 
1 0 0 1 0 
1 0 0 0 1 
1 0 5 1 0 
1 80 0 0 1 
1 0 5 1 0 
1 0 0 1 0 
1 0 0 1 0 
1 33.5 0 0 -1 
1 0 0 0 1 
1 0 -36 1 0 
1 0 0 1 0 
1 0 0 0 -1 
1 0 0 0 1 
1 0 0 1 0 
1 0 66 1 0 
1 33.5 0 0 -1 
1 66 0 0 1 
1 0 -36 1 0 
1 0 66 1 0 
1 0 0 0 -1 
1 66 0 0 1 
1 0 0 0 1 
1 0 0 1 0 
1 33.5 0 0 1 
1 0 0 1 0 
1 0 0 0 1 
1 0 36 1 0 
1 33.5 0 0 1 
1 0 36 1 0 
1 0 0 1 0 
1 0 0 1 0 
1 58 0 0 -1 
1 0 0 0 1 
1 0 -8 1 0 
1 0 0 1 0 
1 0 0 0 -1 
1 0 0 0 1 
1 0 0 1 0 
1 0 40 1 0 
1 58 0 0 -1 
1 40 0 0 1 
1 0 -8 1 0 
1 0 40 1 0 
1 0 0 0 -1 
1 40 0 0 1 
1 0 0 0 1 
1 0 0 1 0 
1 58 0 0 1 
1 0 0 1 0 
1 0 0 0 1 
1 0 8 1 0 
1 58 0 0 1 
1 0 8 1 0 
1 0 0 1 0 
1 0 0 1 0 
1 121 0 0 -1 
1 0 0 0 1 
1 0 -43 1 0 
1 0 0 1 0 
1 0 0 0 -1 
1 0 0 0 1 
1 0 0 1 0 
1 0 42 1 0 
1 121 0 0 -1 
1 42 0 0 1 
1 0 -43 1 0 
1 0 42 1 0 
1 0 0 0 -1 
1 42 0 0 1 
1 0 0 0 1 
1 0 0 1 0 
1 121 0 0 1 
1 0 0 1 0 
1 0 0 0 1 
1 0 43 1 0 
1 121 0 0 1 
1 0 43 1 0 
1 0 0 1 0 
1 0 0 1 0 
1 121 0 0 -1 
1 0 0 0 1 
1 0 -43 1 0 
1 0 0 1 0 
1 0 0 0 -1 
1 0 0 0 1 
1 0 0 1 0 
1 0 42 1 0 
1 121 0 0 -1 
1 42 0 0 1 
1 0 -43 1 0 
1 0 42 1 0 
1 0 0 0 -1 
1 42 0 0 1 
1 0 0 0 1 
1 0 0 1 0 
1 121 0 0 1 
1 0 0 1 0 
1 0 0 0 1 
1 0 43 1 0 
1 121 0 0 1 
1 0 43 1 0 
1 0 0 1 0 
1 0 0 1 0 
1 121 0 0 -1 
1 0 0 0 1 
1 0 -43 1 0 
1 0 0 1 0 
1 0 0 0 -1 
1 0 0 0 1 
1 0 0 1 0 
1 0 42 1 0 
1 121 0 0 -1 
1 42 0 0 1 
1 0 -43 1 0 
1 0 42 1 0 
1 0 0 0 -1 
1 42 0 0 1 
1 0 0 0 1 
1 0 0 1 0 
1 121 0 0 1 
1 0 0 1 0 
1 0 0 0 1 
1 0 43 1 0 
1 121 0 0 1 
1 0 43 1 0 
1 0 0 1 0 
1 0 0 1 0 
1 121 0 0 -1 
1 0 0 0 1 
1 0 -43 1 0 
1 0 0 1 0 
1 0 0 0 -1 
1 0 0 0 1 
1 0 0 1 0 
1 0 5 1 0 
1 121 0 0 -1 
1 5 0 0 1 
1 0 -43 1 0 
1 0 5 1 0 
1 0 0 0 -1 
1 5 0 0 1 
1 0 0 0 1 
1 0 0 1 0 
1 121 0 0 1 
1 0 0 1 0 
1 0 0 0 1 
1 0 43 1 0 
1 121 0 0 1 
1 0 43 1 0 
1 0 0 1 0 
1 0 0 1 0 
1 203 0 0 -1 
1 0 0 0 1 
1 0 -46 1 0 
1 0 0 1 0 
1 0 0 0 -1 
1 0 0 0 1 
1 0 0 1 0 
1 0 83.5 1 0 
1 203 0 0 -1 
1 83.5 0 0 1 
1 0 -46 1 0 
1 0 83.5 1 0 
1 0 0 0 -1 
1 83.5 0 0 1 
1 0 0 0 1 
1 0 0 1 0 
1 203 0 0 1 
1 0 0 1 0 
1 0 0 0 1 
1 0 46 1 0 
1 203 0 0 1 
1 0 46 1 0 
1 0 0 1 0 
1 0 0 1 0 
1 141 0 0 -1 
1 0 0 0 1 
1 0 -4 1 0 
1 0 0 1 0 
1 0 0 0 -1 
1 0 0 0 1 
1 0 0 1 0 
1 0 31.5 1 0 
1 141 0 0 -1 
1 31.5 0 0 1 
1 0 -4 1 0 
1 0 31.5 1 0 
1 0 0 0 -1 
1 31.5 0 0 1 
1 0 0 0 1 
1 0 0 1 0 
1 141 0 0 1 
1 0 0 1 0 
1 0 0 0 1 
1 0 4 1 0 
1 141 0 0 1 
1 0 4 1 0 
1 0 0 1 0 
1 0 0 1 0 
1 141 0 0 -1 
1 0 0 0 1 
1 0 -6 1 0 
1 0 0 1 0 
1 0 0 0 -1 
1 0 0 0 1 
1 0 0 1 0 
1 0 31.5 1 0 
1 141 0 0 -1 
1 31.5 0 0 1 
1 0 -6 1 0 
1 0 31.5 1 0 
1 0 0 0 -1 
1 31.5 0 0 1 
1 0 0 0 1 
1 0 0 1 0 
1 141 0 0 1 
1 0 0 1 0 
1 0 0 0 1 
1 0 6 1 0 
1 141 0 0 1 
1 0 6 1 0 
1 0 0 1 0 
1 0 0 1 0 
1 141 0 0 -1 
1 0 0 0 1 
1 0 -4 1 0 
1 0 0 1 0 
1 0 0 0 -1 
1 0 0 0 1 
1 0 0 1 0 
1 0 31.5 1 0 
1 141 0 0 -1 
1 31.5 0 0 1 
1 0 -4 1 0 
1 0 31.5 1 0 
1 0 0 0 -1 
1 31.5 0 0 1 
1 0 0 0 1 
1 0 0 1 0 
1 141 0 0 1 
1 0 0 1 0 
1 0 0 0 1 
1 0 4 1 0 
1 141 0 0 1 
1 0 4 1 0 
1 0 0 1 0 
1 0 0 1 0 
1 62 0 0 -1 
1 0 0 0 1 
1 0 -25.5 1 0 
1 0 0 1 0 
1 0 0 0 -1 
1 0 0 0 1 
1 0 0 1 0 
1 0 35 1 0 
1 62 0 0 -1 
1 35 0 0 1 
1 0 -25.5 1 0 
1 0 35 1 0 
1 0 0 0 -1 
1 35 0 0 1 
1 0 0 0 1 
1 0 0 1 0 
1 62 0 0 1 
1 0 0 1 0 
1 0 0 0 1 
1 0 25.5 1 0 
1 62 0 0 1 
1 0 25.5 1 0 
1 0 0 1 0 
1 0 0 1 0 
1 62 0 0 -1 
1 0 0 0 1 
1 0 -25.5 1 0 
1 0 0 1 0 
1 0 0 0 -1 
1 0 0 0 1 
1 0 0 1 0 
1 0 19.5 1 0 
1 62 0 0 -1 
1 19.5 0 0 1 
1 0 -25.5 1 0 
1 0 19.5 1 0 
1 0 0 0 -1 
1 19.5 0 0 1 
1 0 0 0 1 
1 0 0 1 0 
1 62 0 0 1 
1 0 0 1 0 
1 0 0 0 1 
1 0 25.5 1 0 
1 62 0 0 1 
1 0 25.5 1 0 
1 0 0 1 0 
1 0 0 1 0 
1 62 0 0 -1 
1 0 0 0 1 
1 0 -24 1 0 
1 0 0 1 0 
1 0 0 0 -1 
1 0 0 0 1 
1 0 0 1 0 
1 0 34 1 0 
1 62 0 0 -1 
1 34 0 0 1 
1 0 -24 1 0 
1 0 34 1 0 
1 0 0 0 -1 
1 34 0 0 1 
1 0 0 0 1 
1 0 0 1 0 
1 62 0 0 1 
1 0 0 1 0 
1 0 0 0 1 
1 0 24 1 0 
1 62 0 0 1 
1 0 24 1 0 
1 0 0 1 0 
1 0 0 1 0 
1 62 0 0 -1 
1 0 0 0 1 
1 0 -24 1 0 
1 0 0 1 0 
1 0 0 0 -1 
1 0 0 0 1 
1 0 0 1 0 
1 0 34 1 0 
1 62 0 0 -1 
1 34 0 0 1 
1 0 -24 1 0 
1 0 34 1 0 
1 0 0 0 -1 
1 34 0 0 1 
1 0 0 0 1 
1 0 0 1 0 
1 62 0 0 1 
1 0 0 1 0 
1 0 0 0 1 
1 0 24 1 0 
1 62 0 0 1 
1 0 24 1 0 
1 0 0 1 0 
1 0 0 1 0 
1 138 0 0 -1 
1 0 0 0 1 
1 0 -65 1 0 
1 0 0 1 0 
1 0 0 0 -1 
1 0 0 0 1 
1 0 0 1 0 
1 0 50 1 0 
1 138 0 0 -1 
1 50 0 0 1 
1 0 -65 1 0 
1 0 50 1 0 
1 0 0 0 -1 
1 50 0 0 1 
1 0 0 0 1 
1 0 0 1 0 
1 138 0 0 1 
1 0 0 1 0 
1 0 0 0 1 
1 0 65 1 0 
1 138 0 0 1 
1 0 65 1 0 
1 0 0 1 0 
1 0 0 1 0 
1 138 0 0 -1 
1 0 0 0 1 
1 0 -65 1 0 
1 0 0 1 0 
1 0 0 0 -1 
1 0 0 0 1 
1 0 0 1 0 
1 0 50 1 0 
1 138 0 0 -1 
1 50 0 0 1 
1 0 -65 1 0 
1 0 50 1 0 
1 0 0 0 -1 
1 50 0 0 1 
1 0 0 0 1 
1 0 0 1 0 
1 138 0 0 1 
1 0 0 1 0 
1 0 0 0 1 
1 0 65 1 0 
1 138 0 0 1 
1 0 65 1 0 
1 0 0 1 0 
1 0 0 1 0 
1 36 0 0 -1 
1 0 0 0 1 
1 0 -35.799999999999955 1 0 
1 0 0 1 0 
1 0 0 0 -1 
1 0 0 0 1 
1 0 0 1 0 
1 0 66 1 0 
1 36 0 0 -1 
1 66 0 0 1 
1 0 -35.799999999999955 1 0 
1 0 66 1 0 
1 0 0 0 -1 
1 66 0 0 1 
1 0 0 0 1 
1 0 0 1 0 
1 36 0 0 1 
1 0 0 1 0 
1 0 0 0 1 
1 0 35.799999999999955 1 0 
1 36 0 0 1 
1 0 35.799999999999955 1 0 
1 0 0 1 0 
1 0 0 1 0 
1 52 0 0 -1 
1 0 0 0 1 
1 0 -8 1 0 
1 0 0 1 0 
1 0 0 0 -1 
1 0 0 0 1 
1 0 0 1 0 
1 0 90 1 0 
1 52 0 0 -1 
1 90 0 0 1 
1 0 -8 1 0 
1 0 90 1 0 
1 0 0 0 -1 
1 90 0 0 1 
1 0 0 0 1 
1 0 0 1 0 
1 52 0 0 1 
1 0 0 1 0 
1 0 0 0 1 
1 0 8 1 0 
1 52 0 0 1 
1 0 8 1 0 
1 0 0 1 0 
1 0 0 1 0 
1 36 0 0 -1 
1 0 0 0 1 
1 0 -35.799999999999955 1 0 
1 0 0 1 0 
1 0 0 0 -1 
1 0 0 0 1 
1 0 0 1 0 
1 0 66 1 0 
1 36 0 0 -1 
1 66 0 0 1 
1 0 -35.799999999999955 1 0 
1 0 66 1 0 
1 0 0 0 -1 
1 66 0 0 1 
1 0 0 0 1 
1 0 0 1 0 
1 36 0 0 1 
1 0 0 1 0 
1 0 0 0 1 
1 0 35.799999999999955 1 0 
1 36 0 0 1 
1 0 35.799999999999955 1 0 
1 0 0 1 0 
1 0 0 1 0 
1 52 0 0 -1 
1 0 0 0 1 
1 0 -8 1 0 
1 0 0 1 0 
1 0 0 0 -1 
1 0 0 0 1 
1 0 0 1 0 
1 0 90 1 0 
1 52 0 0 -1 
1 90 0 0 1 
1 0 -8 1 0 
1 0 90 1 0 
1 0 0 0 -1 
1 90 0 0 1 
1 0 0 0 1 
1 0 0 1 0 
1 52 0 0 1 
1 0 0 1 0 
1 0 0 0 1 
1 0 8 1 0 
1 52 0 0 1 
1 0 8 1 0 
1 0 0 1 0 
1 0 0 1 0 
1 36 0 0 -1 
1 0 0 0 1 
1 0 -66 1 0 
1 0 0 1 0 
1 0 0 0 -1 
1 0 0 0 1 
1 0 0 1 0 
1 0 33.5 1 0 
1 36 0 0 -1 
1 33.5 0 0 1 
1 0 -66 1 0 
1 0 33.5 1 0 
1 0 0 0 -1 
1 33.5 0 0 1 
1 0 0 0 1 
1 0 0 1 0 
1 36 0 0 1 
1 0 0 1 0 
1 0 0 0 1 
1 0 66 1 0 
1 36 0 0 1 
1 0 66 1 0 
1 0 21.5 1 0 
2 0 0 1 0 -0 1 8.25
1 6.2831853071795862 -0 0 1 
1 0 -0 0 1 
1 0 0 1 0 
2 0 0 1 0 -0 1 8.25
1 0 62.5 1 0 
2 0 0 1 0 -0 1 8.25
1 6.2831853071795862 -0 0 1 
1 0 -0 0 1 
1 0 0 1 0 
2 0 0 1 0 -0 1 8.25
1 0 62.5 1 0 
2 0 0 1 0 -0 1 8.25
1 6.2831853071795862 -0 0 1 
1 0 -0 0 1 
1 0 0 1 0 
2 0 0 1 0 -0 1 8.25
1 0 6 1 0 
2 0 0 1 0 -0 1 4.2999999999999998
1 6.2831853071795862 -0 0 1 
1 0 -0 0 1 
1 0 0 1 0 
2 0 0 1 0 -0 1 4.2999999999999998
1 0 23 1 0 
2 0 0 1 0 -0 1 9.25
1 6.2831853071795862 -0 0 1 
1 0 -0 0 1 
1 0 0 1 0 
2 0 0 1 0 -0 1 9.25
1 0 21.5 1 0 
2 0 0 1 0 -0 1 8.25
1 6.2831853071795862 -0 0 1 
1 0 -0 0 1 
1 0 0 1 0 
2 0 0 1 0 -0 1 8.25
1 0 68 1 0 
2 0 0 1 0 -0 1 8.25
1 6.2831853071795862 -0 0 1 
1 0 -0 0 1 
1 0 0 1 0 
2 0 0 1 0 -0 1 8.25
1 0 51.5 1 0 
2 0 0 1 0 -0 1 8.25
1 6.2831853071795862 -0 0 1 
1 0 -0 0 1 
1 0 0 1 0 
2 0 0 1 0 -0 1 8.25
1 0 51.5 1 0 
2 0 0 1 0 -0 1 8.25
1 6.2831853071795862 -0 0 1 
1 0 -0 0 1 
1 0 0 1 0 
2 0 0 1 0 -0 1 8.25
1 0 38 1 0 
2 0 0 1 0 -0 1 8.25
1 6.2831853071795862 -0 0 1 
1 0 -0 0 1 
1 0 0 1 0 
2 0 0 1 0 -0 1 8.25
1 0 30 1 0 
2 0 0 1 0 -0 1 4.5999999999999996
1 6.2831853071795862 -0 0 1 
1 0 -0 0 1 
1 0 0 1 0 
2 0 0 1 0 -0 1 4.5999999999999996
1 0 21.5 1 0 
2 0 0 1 0 -0 1 15.25
1 6.2831853071795862 -0 0 1 
1 0 -0 0 1 
1 0 0 1 0 
2 0 0 1 0 -0 1 15.25
1 0 21.5 1 0 
2 0 0 1 0 -0 1 9.25
1 6.2831853071795862 -0 0 1 
1 0 -0 0 1 
1 0 0 1 0 
2 0 0 1 0 -0 1 9.25
1 0 21.5 1 0 
2 0 0 1 0 -0 1 8.25
1 6.2831853071795862 -0 0 1 
1 0 -0 0 1 
1 0 0 1 0 
2 0 0 1 0 -0 1 8.25
Curves 318
1 4983 1649 930 0 0 1 
1 4983 1649 1080 -0 1 0 
1 4983 1654 930 0 0 1 
1 4983 1649 930 -0 1 0 
1 5007 1649 930 0 0 1 
1 5007 1649 1080 -0 1 0 
1 5007 1654 930 0 0 1 
1 5007 1649 930 -0 1 0 
1 4983 1649 930 1 0 -0 
1 4983 1649 1080 1 0 -0 
1 4983 1654 930 1 0 -0 
1 4983 1654 1080 1 0 -0 
1 4983 446 1000 0 0 1 
1 4983 446 1080 -0 1 0 
1 4983 451 1000 0 0 1 
1 4983 446 1000 -0 1 0 
1 5007 446 1000 0 0 1 
1 5007 446 1080 -0 1 0 
1 5007 451 1000 0 0 1 
1 5007 446 1000 -0 1 0 
1 4983 446 1000 1 0 -0 
1 4983 446 1080 1 0 -0 
1 4983 451 1000 1 0 -0 
1 4983 451 1080 1 0 -0 
1 4847 282 910.5 0 0 1 
1 4847 282 944 -0 1 0 
1 4847 318 910.5 0 0 1 
1 4847 282 910.5 -0 1 0 
1 4913 282 910.5 0 0 1 
1 4913 282 944 -0 1 0 
1 4913 318 910.5 0 0 1 
1 4913 282 910.5 -0 1 0 
1 4847 282 910.5 1 0 -0 
1 4847 282 944 1 0 -0 
1 4847 318 910.5 1 0 -0 
1 4847 318 944 1 0 -0 
1 4100 120 -700 0 0 1 
1 4100 120 -642 -0 1 0 
1 4100 128 -700 0 0 1 
1 4100 120 -700 -0 1 0 
1 4140 120 -700 0 0 1 
1 4140 120 -642 -0 1 0 
1 4140 128 -700 0 0 1 
1 4140 120 -700 -0 1 0 
1 4100 120 -700 1 0 -0 
1 4100 120 -642 1 0 -0 
1 4100 128 -700 1 0 -0 
1 4100 128 -642 1 0 -0 
1 3990 742.5 -761.5 0 0 1 
1 3990 742.5 -640.5 -0 1 0 
1 3990 785.5 -761.5 0 0 1 
1 3990 742.5 -761.5 -0 1 0 
1 4032 742.5 -761.5 0 0 1 
1 4032 742.5 -640.5 -0 1 0 
1 4032 785.5 -761.5 0 0 1 
1 4032 742.5 -761.5 -0 1 0 
1 3990 742.5 -761.5 1 0 -0 
1 3990 742.5 -640.5 1 0 -0 
1 3990 785.5 -761.5 1 0 -0 
1 3990 785.5 -640.5 1 0 -0 
1 3990 742.5 -761.5 0 0 1 
1 3990 742.5 -640.5 -0 1 0 
1 3990 785.5 -761.5 0 0 1 
1 3990 742.5 -761.5 -0 1 0 
1 4032 742.5 -761.5 0 0 1 
1 4032 742.5 -640.5 -0 1 0 
1 4032 785.5 -761.5 0 0 1 
1 4032 742.5 -761.5 -0 1 0 
1 3990 742.5 -761.5 1 0 -0 
1 3990 742.5 -640.5 1 0 -0 
1 3990 785.5 -761.5 1 0 -0 
1 3990 785.5 -640.5 1 0 -0 
1 3990 742.5 -761.5 0 0 1 
1 3990 742.5 -640.5 -0 1 0 
1 3990 785.5 -761.5 0 0 1 
1 3990 742.5 -761.5 -0 1 0 
1 4032 742.5 -761.5 0 0 1 
1 4032 742.5 -640.5 -0 1 0 
1 4032 785.5 -761.5 0 0 1 
1 4032 742.5 -761.5 -0 1 0 
1 3990 742.5 -761.5 1 0 -0 
1 3990 742.5 -640.5 1 0 -0 
1 3990 785.5 -761.5 1 0 -0 
1 3990 785.5 -640.5 1 0 -0 
1 2498 742.5 -761.5 0 0 1 
1 2498 742.5 -640.5 -0 1 0 
1 2498 785.5 -761.5 0 0 1 
1 2498 742.5 -761.5 -0 1 0 
1 2503 742.5 -761.5 0 0 1 
1 2503 742.5 -640.5 -0 1 0 
1 2503 785.5 -761.5 0 0 1 
1 2503 742.5 -761.5 -0 1 0 
1 2498 742.5 -761.5 1 0 -0 
1 2498 742.5 -640.5 1 0 -0 
1 2498 785.5 -761.5 1 0 -0 
1 2498 785.5 -640.5 1 0 -0 
1 2419.5 742.5 -761.5 0 0 1 
1 2419.5 742.5 -558.5 -0 1 0 
1 2419.5 788.5 -761.5 0 0 1 
1 2419.5 742.5 -761.5 -0 1 0 
1 2503 742.5 -761.5 0 0 1 
1 2503 742.5 -558.5 -0 1 0 
1 2503 788.5 -761.5 0 0 1 
1 2503 742.5 -761.5 -0 1 0 
1 2419.5 742.5 -761.5 1 0 -0 
1 2419.5 742.5 -558.5 1 0 -0 
1 2419.5 788.5 -761.5 1 0 -0 
1 2419.5 788.5 -558.5 1 0 -0 
1 2419.5 785 -699.5 0 0 1 
1 2419.5 785 -558.5 -0 1 0 
1 2419.5 789 -699.5 0 0 1 
1 2419.5 785 -699.5 -0 1 0 
1 2451 785 -699.5 0 0 1 
1 2451 785 -558.5 -0 1 0 
1 2451 789 -699.5 0 0 1 
1 2451 785 -699.5 -0 1 0 
1 2419.5 785 -699.5 1 0 -0 
1 2419.5 785 -558.5 1 0 -0 
1 2419.5 789 -699.5 1 0 -0 
1 2419.5 789 -558.5 1 0 -0 
1 2419.5 887 -699.5 0 0 1 
1 2419.5 887 -558.5 -0 1 0 
1 2419.5 893 -699.5 0 0 1 
1 2419.5 887 -699.5 -0 1 0 
1 2451 887 -699.5 0 0 1 
1 2451 887 -558.5 -0 1 0 
1 2451 893 -699.5 0 0 1 
1 2451 887 -699.5 -0 1 0 
1 2419.5 887 -699.5 1 0 -0 
1 2419.5 887 -558.5 1 0 -0 
1 2419.5 893 -699.5 1 0 -0 
1 2419.5 893 -558.5 1 0 -0 
1 2419.5 891 -699.5 0 0 1 
1 2419.5 891 -558.5 -0 1 0 
1 2419.5 895 -699.5 0 0 1 
1 2419.5 891 -699.5 -0 1 0 
1 2451 891 -699.5 0 0 1 
1 2451 891 -558.5 -0 1 0 
1 2451 895 -699.5 0 0 1 
1 2451 891 -699.5 -0 1 0 
1 2419.5 891 -699.5 1 0 -0 
1 2419.5 891 -558.5 1 0 -0 
1 2419.5 895 -699.5 1 0 -0 
1 2419.5 895 -558.5 1 0 -0 
1 1434 2142 -827 0 0 1 
1 1434 2142 -765 -0 1 0 
1 1434 2167.5 -827 0 0 1 
1 1434 2142 -827 -0 1 0 
1 1469 2142 -827 0 0 1 
1 1469 2142 -765 -0 1 0 
1 1469 2167.5 -827 0 0 1 
1 1469 2142 -827 -0 1 0 
1 1434 2142 -827 1 0 -0 
1 1434 2142 -765 1 0 -0 
1 1434 2167.5 -827 1 0 -0 
1 1434 2167.5 -765 1 0 -0 
1 1418 2142 -827 0 0 1 
1 1418 2142 -765 -0 1 0 
1 1418 2167.5 -827 0 0 1 
1 1418 2142 -827 -0 1 0 
1 1437.5 2142 -827 0 0 1 
1 1437.5 2142 -765 -0 1 0 
1 1437.5 2167.5 -827 0 0 1 
1 1437.5 2142 -827 -0 1 0 
1 1418 2142 -827 1 0 -0 
1 1418 2142 -765 1 0 -0 
1 1418 2167.5 -827 1 0 -0 
1 1418 2167.5 -765 1 0 -0 
1 3983 2142 -827 0 0 1 
1 3983 2142 -765 -0 1 0 
1 3983 2166 -827 0 0 1 
1 3983 2142 -827 -0 1 0 
1 4017 2142 -827 0 0 1 
1 4017 2142 -765 -0 1 0 
1 4017 2166 -827 0 0 1 
1 4017 2142 -827 -0 1 0 
1 3983 2142 -827 1 0 -0 
1 3983 2142 -765 1 0 -0 
1 3983 2166 -827 1 0 -0 
1 3983 2166 -765 1 0 -0 
1 3983 2142 -827 0 0 1 
1 3983 2142 -765 -0 1 0 
1 3983 2166 -827 0 0 1 
1 3983 2142 -827 -0 1 0 
1 4017 2142 -827 0 0 1 
1 4017 2142 -765 -0 1 0 
1 4017 2166 -827 0 0 1 
1 4017 2142 -827 -0 1 0 
1 3983 2142 -827 1 0 -0 
1 3983 2142 -765 1 0 -0 
1 3983 2166 -827 1 0 -0 
1 3983 2166 -765 1 0 -0 
1 2467 2104 -827 0 0 1 
1 2467 2104 -689 -0 1 0 
1 2467 2169 -827 0 0 1 
1 2467 2104 -827 -0 1 0 
1 2517 2104 -827 0 0 1 
1 2517 2104 -689 -0 1 0 
1 2517 2169 -827 0 0 1 
1 2517 2104 -827 -0 1 0 
1 2467 2104 -827 1 0 -0 
1 2467 2104 -689 1 0 -0 
1 2467 2169 -827 1 0 -0 
1 2467 2169 -689 1 0 -0 
1 2467 2104 -827 0 0 1 
1 2467 2104 -689 -0 1 0 
1 2467 2169 -827 0 0 1 
1 2467 2104 -827 -0 1 0 
1 2517 2104 -827 0 0 1 
1 2517 2104 -689 -0 1 0 
1 2517 2169 -827 0 0 1 
1 2517 2104 -827 -0 1 0 
1 2467 2104 -827 1 0 -0 
1 2467 2104 -689 1 0 -0 
1 2467 2169 -827 1 0 -0 
1 2467 2169 -689 1 0 -0 
1 5067 1829.1000000000001 -778 0 0 1 
1 5067 1829.1000000000001 -742 -0 1 0 
1 5067 1864.9000000000001 -778 0 0 1 
1 5067 1829.1000000000001 -778 -0 1 0 
1 5133 1829.1000000000001 -778 0 0 1 
1 5133 1829.1000000000001 -742 -0 1 0 
1 5133 1864.9000000000001 -778 0 0 1 
1 5133 1829.1000000000001 -778 -0 1 0 
1 5067 1829.1000000000001 -778 1 0 -0 
1 5067 1829.1000000000001 -742 1 0 -0 
1 5067 1864.9000000000001 -778 1 0 -0 
1 5067 1864.9000000000001 -742 1 0 -0 
1 5055 1890 -786 0 0 1 
1 5055 1890 -734 -0 1 0 
1 5055 1898 -786 0 0 1 
1 5055 1890 -786 -0 1 0 
1 5145 1890 -786 0 0 1 
1 5145 1890 -734 -0 1 0 
1 5145 1898 -786 0 0 1 
1 5145 1890 -786 -0 1 0 
1 5055 1890 -786 1 0 -0 
1 5055 1890 -734 1 0 -0 
1 5055 1898 -786 1 0 -0 
1 5055 1898 -734 1 0 -0 
1 4267 1829.1000000000001 -778 0 0 1 
1 4267 1829.1000000000001 -742 -0 1 0 
1 4267 1864.9000000000001 -778 0 0 1 
1 4267 1829.1000000000001 -778 -0 1 0 
1 4333 1829.1000000000001 -778 0 0 1 
1 4333 1829.1000000000001 -742 -0 1 0 
1 4333 1864.9000000000001 -778 0 0 1 
1 4333 1829.1000000000001 -778 -0 1 0 
1 4267 1829.1000000000001 -778 1 0 -0 
1 4267 1829.1000000000001 -742 1 0 -0 
1 4267 1864.9000000000001 -778 1 0 -0 
1 4267 1864.9000000000001 -742 1 0 -0 
1 4255 1890 -786 0 0 1 
1 4255 1890 -734 -0 1 0 
1 4255 1898 -786 0 0 1 
1 4255 1890 -786 -0 1 0 
1 4345 1890 -786 0 0 1 
1 4345 1890 -734 -0 1 0 
1 4345 1898 -786 0 0 1 
1 4345 1890 -786 -0 1 0 
1 4255 1890 -786 1 0 -0 
1 4255 1890 -734 1 0 -0 
1 4255 1898 -786 1 0 -0 
1 4255 1898 -734 1 0 -0 
1 1960.5 2007 -814 0 0 1 
1 1960.5 2007 -778 -0 1 0 
1 1960.5 2073 -814 0 0 1 
1 1960.5 2007 -814 -0 1 0 
1 1994 2007 -814 0 0 1 
1 1994 2007 -778 -0 1 0 
1 1994 2073 -814 0 0 1 
1 1994 2007 -814 -0 1 0 
1 1960.5 2007 -814 1 0 -0 
1 1960.5 2007 -778 1 0 -0 
1 1960.5 2073 -814 1 0 -0 
1 1960.5 2073 -778 1 0 -0 
2 1700 1119 -805 0 1 0 0 -0 1 1 0 -0 8.25
1 1700 1097.5 -796.75 0 1 0 
2 1700 1097.5 -805 0 1 0 0 -0 1 1 0 -0 8.25
2 1826 1775 -714 0 1 0 0 -0 1 1 0 -0 8.25
1 1826 1712.5 -705.75 0 1 0 
2 1826 1712.5 -714 0 1 0 0 -0 1 1 0 -0 8.25
2 1975 1775 -714 0 1 0 0 -0 1 1 0 -0 8.25
1 1975 1712.5 -705.75 0 1 0 
2 1975 1712.5 -714 0 1 0 0 -0 1 1 0 -0 8.25
2 2459 986.5 -504 0 0 1 1 0 -0 -0 1 0 4.2999999999999998
1 2463.3000000000002 986.5 -510 0 0 1 
2 2459 986.5 -510 0 0 1 1 0 -0 -0 1 0 4.2999999999999998
2 2459 923.5 -485 -0 -0 -1 -1 0 0 0 1 -0 9.25
1 2449.75 923.5 -462 0 -0 -1 
2 2459 923.5 -462 -0 -0 -1 -1 0 0 0 1 -0 9.25
2 2780 1121.5 -661 -0 -0 -1 -1 0 0 0 1 -0 8.25
1 2771.75 1121.5 -639.5 0 -0 -1 
2 2780 1121.5 -639.5 -0 -0 -1 -1 0 0 0 1 -0 8.25
2 2526.5 1121.5 -800 1 0 0 -0 0 1 0 -1 0 8.25
1 2458.5 1121.5 -791.75 1 0 0 
2 2458.5 1121.5 -800 1 0 0 -0 0 1 0 -1 0 8.25
2 1426 1640 -720 -1 -0 -0 0 0 -1 0 -1 0 8.25
1 1477.5 1640 -728.25 -1 0 -0 
2 1477.5 1640 -720 -1 -0 -0 0 0 -1 0 -1 0 8.25
2 1426 1612 -720 -1 -0 -0 0 0 -1 0 -1 0 8.25
1 1477.5 1612 -728.25 -1 0 -0 
2 1477.5 1612 -720 -1 -0 -0 0 0 -1 0 -1 0 8.25
2 3973.5 1387 -296 -1 -0 -0 0 0 -1 0 -1 0 8.25
1 4011.5 1387 -304.25 -1 0 -0 
2 4011.5 1387 -296 -1 -0 -0 0 0 -1 0 -1 0 8.25
2 4036 314.5 -485 0 0 1 1 0 -0 -0 1 0 4.5999999999999996
1 4040.5999999999999 314.5 -515 0 0 1 
2 4036 314.5 -515 0 0 1 1 0 -0 -0 1 0 4.5999999999999996
2 2990 798 -672 0 1 0 0 -0 1 1 0 -0 15.25
1 2990 776.5 -656.75 0 1 0 
2 2990 776.5 -672 0 1 0 0 -0 1 1 0 -0 15.25
2 2770 920 -838.5 -0 -0 -1 -1 0 0 0 1 -0 9.25
1 2760.75 920 -817 0 -0 -1 
2 2770 920 -817 -0 -0 -1 -1 0 0 0 1 -0 9.25
2 3460 1305 -780 -0 -1 -0 0 0 -1 1 -0 0 8.25
1 3460 1326.5 -788.25 -0 -1 0 
2 3460 1326.5 -780 -0 -1 -0 0 0 -1 1 -0 0 8.25
Polygon3D 0
PolygonOnTriangulations 0
Surfaces 180
1 4983 1649 930 1 0 -0 0 0 1 0 -1 0 
1 4983 1649 930 -0 1 0 0 0 1 1 0 -0 
1 4983 1649 1080 0 0 1 1 0 -0 -0 1 0 
1 4983 1654 930 -0 1 0 0 0 1 1 0 -0 
1 4983 1649 930 0 0 1 1 0 -0 -0 1 0 
1 5007 1649 930 1 0 -0 0 0 1 0 -1 0 
1 4983 446 1000 1 0 -0 0 0 1 0 -1 0 
1 4983 446 1000 -0 1 0 0 0 1 1 0 -0 
1 4983 446 1080 0 0 1 1 0 -0 -0 1 0 
1 4983 451 1000 -0 1 0 0 0 1 1 0 -0 
1 4983 446 1000 0 0 1 1 0 -0 -0 1 0 
1 5007 446 1000 1 0 -0 0 0 1 0 -1 0 
1 4847 282 910.5 1 0 -0 0 0 1 0 -1 0 
1 4847 282 910.5 -0 1 0 0 0 1 1 0 -0 
1 4847 282 944 0 0 1 1 0 -0 -0 1 0 
1 4847 318 910.5 -0 1 0 0 0 1 1 0 -0 
1 4847 282 910.5 0 0 1 1 0 -0 -0 1 0 
1 4913 282 910.5 1 0 -0 0 0 1 0 -1 0 
1 4100 120 -700 1 0 -0 0 0 1 0 -1 0 
1 4100 120 -700 -0 1 0 0 0 1 1 0 -0 
1 4100 120 -642 0 0 1 1 0 -0 -0 1 0 
1 4100 128 -700 -0 1 0 0 0 1 1 0 -0 
1 4100 120 -700 0 0 1 1 0 -0 -0 1 0 
1 4140 120 -700 1 0 -0 0 0 1 0 -1 0 
1 3990 742.5 -761.5 1 0 -0 0 0 1 0 -1 0 
1 3990 742.5 -761.5 -0 1 0 0 0 1 1 0 -0 
1 3990 742.5 -640.5 0 0 1 1 0 -0 -0 1 0 
1 3990 785.5 -761.5 -0 1 0 0 0 1 1 0 -0 
1 3990 742.5 -761.5 0 0 1 1 0 -0 -0 1 0 
1 4032 742.5 -761.5 1 0 -0 0 0 1 0 -1 0 
1 3990 742.5 -761.5 1 0 -0 0 0 1 0 -1 0 
1 3990 742.5 -761.5 -0 1 0 0 0 1 1 0 -0 
1 3990 742.5 -640.5 0 0 1 1 0 -0 -0 1 0 
1 3990 785.5 -761.5 -0 1 0 0 0 1 1 0 -0 
1 3990 742.5 -761.5 0 0 1 1 0 -0 -0 1 0 
1 4032 742.5 -761.5 1 0 -0 0 0 1 0 -1 0 
1 3990 742.5 -761.5 1 0 -0 0 0 1 0 -1 0 
1 3990 742.5 -761.5 -0 1 0 0 0 1 1 0 -0 
1 3990 742.5 -640.5 0 0 1 1 0 -0 -0 1 0 
1 3990 785.5 -761.5 -0 1 0 0 0 1 1 0 -0 
1 3990 742.5 -761.5 0 0 1 1 0 -0 -0 1 0 
1 4032 742.5 -761.5 1 0 -0 0 0 1 0 -1 0 
1 2498 742.5 -761.5 1 0 -0 0 0 1 0 -1 0 
1 2498 742.5 -761.5 -0 1 0 0 0 1 1 0 -0 
1 2498 742.5 -640.5 0 0 1 1 0 -0 -0 1 0 
1 2498 785.5 -761.5 -0 1 0 0 0 1 1 0 -0 
1 2498 742.5 -761.5 0 0 1 1 0 -0 -0 1 0 
1 2503 742.5 -761.5 1 0 -0 0 0 1 0 -1 0 
1 2419.5 742.5 -761.5 1 0 -0 0 0 1 0 -1 0 
1 2419.5 742.5 -761.5 -0 1 0 0 0 1 1 0 -0 
1 2419.5 742.5 -558.5 0 0 1 1 0 -0 -0 1 0 
1 2419.5 788.5 -761.5 -0 1 0 0 0 1 1 0 -0 
1 2419.5 742.5 -761.5 0 0 1 1 0 -0 -0 1 0 
1 2503 742.5 -761.5 1 0 -0 0 0 1 0 -1 0 
1 2419.5 785 -699.5 1 0 -0 0 0 1 0 -1 0 
1 2419.5 785 -699.5 -0 1 0 0 0 1 1 0 -0 
1 2419.5 785 -558.5 0 0 1 1 0 -0 -0 1 0 
1 2419.5 789 -699.5 -0 1 0 0 0 1 1 0 -0 
1 2419.5 785 -699.5 0 0 1 1 0 -0 -0 1 0 
1 2451 785 -699.5 1 0 -0 0 0 1 0 -1 0 
1 2419.5 887 -699.5 1 0 -0 0 0 1 0 -1 0 
1 2419.5 887 -699.5 -0 1 0 0 0 1 1 0 -0 
1 2419.5 887 -558.5 0 0 1 1 0 -0 -0 1 0 
1 2419.5 893 -699.5 -0 1 0 0 0 1 1 0 -0 
1 2419.5 887 -699.5 0 0 1 1 0 -0 -0 1 0 
1 2451 887 -699.5 1 0 -0 0 0 1 0 -1 0 
1 2419.5 891 -699.5 1 0 -0 0 0 1 0 -1 0 
1 2419.5 891 -699.5 -0 1 0 0 0 1 1 0 -0 
1 2419.5 891 -558.5 0 0 1 1 0 -0 -0 1 0 
1 2419.5 895 -699.5 -0 1 0 0 0 1 1 0 -0 
1 2419.5 891 -699.5 0 0 1 1 0 -0 -0 1 0 
1 2451 891 -699.5 1 0 -0 0 0 1 0 -1 0 
1 1434 2142 -827 1 0 -0 0 0 1 0 -1 0 
1 1434 2142 -827 -0 1 0 0 0 1 1 0 -0 
1 1434 2142 -765 0 0 1 1 0 -0 -0 1 0 
1 1434 2167.5 -827 -0 1 0 0 0 1 1 0 -0 
1 1434 2142 -827 0 0 1 1 0 -0 -0 1 0 
1 1469 2142 -827 1 0 -0 0 0 1 0 -1 0 
1 1418 2142 -827 1 0 -0 0 0 1 0 -1 0 
1 1418 2142 -827 -0 1 0 0 0 1 1 0 -0 
1 1418 2142 -765 0 0 1 1 0 -0 -0 1 0 
1 1418 2167.5 -827 -0 1 0 0 0 1 1 0 -0 
1 1418 2142 -827 0 0 1 1 0 -0 -0 1 0 
1 1437.5 2142 -827 1 0 -0 0 0 1 0 -1 0 
1 3983 2142 -827 1 0 -0 0 0 1 0 -1 0 
1 3983 2142 -827 -0 1 0 0 0 1 1 0 -0 
1 3983 2142 -765 0 0 1 1 0 -0 -0 1 0 
1 3983 2166 -827 -0 1 0 0 0 1 1 0 -0 
1 3983 2142 -827 0 0 1 1 0 -0 -0 1 0 
1 4017 2142 -827 1 0 -0 0 0 1 0 -1 0 
1 3983 2142 -827 1 0 -0 0 0 1 0 -1 0 
1 3983 2142 -827 -0 1 0 0 0 1 1 0 -0 
1 3983 2142 -765 0 0 1 1 0 -0 -0 1 0 
1 3983 2166 -827 -0 1 0 0 0 1 1 0 -0 
1 3983 2142 -827 0 0 1 1 0 -0 -0 1 0 
1 4017 2142 -827 1 0 -0 0 0 1 0 -1 0 
1 2467 2104 -827 1 0 -0 0 0 1 0 -1 0 
1 2467 2104 -827 -0 1 0 0 0 1 1 0 -0 
1 2467 2104 -689 0 0 1 1 0 -0 -0 1 0 
1 2467 2169 -827 -0 1 0 0 0 1 1 0 -0 
1 2467 2104 -827 0 0 1 1 0 -0 -0 1 0 
1 2517 2104 -827 1 0 -0 0 0 1 0 -1 0 
1 2467 2104 -827 1 0 -0 0 0 1 0 -1 0 
1 2467 2104 -827 -0 1 0 0 0 1 1 0 -0 
1 2467 2104 -689 0 0 1 1 0 -0 -0 1 0 
1 2467 2169 -827 -0 1 0 0 0 1 1 0 -0 
1 2467 2104 -827 0 0 1 1 0 -0 -0 1 0 
1 2517 2104 -827 1 0 -0 0 0 1 0 -1 0 
1 5067 1829.1000000000001 -778 1 0 -0 0 0 1 0 -1 0 
1 5067 1829.1000000000001 -778 -0 1 0 0 0 1 1 0 -0 
1 5067 1829.1000000000001 -742 0 0 1 1 0 -0 -0 1 0 
1 5067 1864.9000000000001 -778 -0 1 0 0 0 1 1 0 -0 
1 5067 1829.1000000000001 -778 0 0 1 1 0 -0 -0 1 0 
1 5133 1829.1000000000001 -778 1 0 -0 0 0 1 0 -1 0 
1 5055 1890 -786 1 0 -0 0 0 1 0 -1 0 
1 5055 1890 -786 -0 1 0 0 0 1 1 0 -0 
1 5055 1890 -734 0 0 1 1 0 -0 -0 1 0 
1 5055 1898 -786 -0 1 0 0 0 1 1 0 -0 
1 5055 1890 -786 0 0 1 1 0 -0 -0 1 0 
1 5145 1890 -786 1 0 -0 0 0 1 0 -1 0 
1 4267 1829.1000000000001 -778 1 0 -0 0 0 1 0 -1 0 
1 4267 1829.1000000000001 -778 -0 1 0 0 0 1 1 0 -0 
1 4267 1829.1000000000001 -742 0 0 1 1 0 -0 -0 1 0 
1 4267 1864.9000000000001 -778 -0 1 0 0 0 1 1 0 -0 
1 4267 1829.1000000000001 -778 0 0 1 1 0 -0 -0 1 0 
1 4333 1829.1000000000001 -778 1 0 -0 0 0 1 0 -1 0 
1 4255 1890 -786 1 0 -0 0 0 1 0 -1 0 
1 4255 1890 -786 -0 1 0 0 0 1 1 0 -0 
1 4255 1890 -734 0 0 1 1 0 -0 -0 1 0 
1 4255 1898 -786 -0 1 0 0 0 1 1 0 -0 
1 4255 1890 -786 0 0 1 1 0 -0 -0 1 0 
1 4345 1890 -786 1 0 -0 0 0 1 0 -1 0 
1 1960.5 2007 -814 1 0 -0 0 0 1 0 -1 0 
1 1960.5 2007 -814 -0 1 0 0 0 1 1 0 -0 
1 1960.5 2007 -778 0 0 1 1 0 -0 -0 1 0 
1 1960.5 2073 -814 -0 1 0 0 0 1 1 0 -0 
1 1960.5 2007 -814 0 0 1 1 0 -0 -0 1 0 
1 1994 2007 -814 1 0 -0 0 0 1 0 -1 0 
2 1700 1097.5 -805 0 1 0 0 -0 1 1 0 -0 8.25
1 1700 1119 -805 0 1 0 0 -0 1 1 0 -0 
1 1700 1097.5 -805 0 1 0 0 -0 1 1 0 -0 
2 1826 1712.5 -714 0 1 0 0 -0 1 1 0 -0 8.25
1 1826 1775 -714 0 1 0 0 -0 1 1 0 -0 
1 1826 1712.5 -714 0 1 0 0 -0 1 1 0 -0 
2 1975 1712.5 -714 0 1 0 0 -0 1 1 0 -0 8.25
1 1975 1775 -714 0 1 0 0 -0 1 1 0 -0 
1 1975 1712.5 -714 0 1 0 0 -0 1 1 0 -0 
2 2459 986.5 -510 0 0 1 1 0 -0 -0 1 0 4.2999999999999998
1 2459 986.5 -504 0 0 1 1 0 -0 -0 1 0 
1 2459 986.5 -510 0 0 1 1 0 -0 -0 1 0 
2 2459 923.5 -462 -0 -0 -1 -1 0 0 0 1 -0 9.25
1 2459 923.5 -485 -0 -0 -1 -1 0 0 0 1 -0 
1 2459 923.5 -462 -0 -0 -1 -1 0 0 0 1 -0 
2 2780 1121.5 -639.5 -0 -0 -1 -1 0 0 0 1 -0 8.25
1 2780 1121.5 -661 -0 -0 -1 -1 0 0 0 1 -0 
1 2780 1121.5 -639.5 -0 -0 -1 -1 0 0 0 1 -0 
2 2458.5 1121.5 -800 1 0 0 -0 0 1 0 -1 0 8.25
1 2526.5 1121.5 -800 1 0 0 -0 0 1 0 -1 0 
1 2458.5 1121.5 -800 1 0 0 -0 0 1 0 -1 0 
2 1477.5 1640 -720 -1 -0 -0 0 0 -1 0 -1 0 8.25
1 1426 1640 -720 -1 -0 -0 0 0 -1 0 -1 0 
1 1477.5 1640 -720 -1 -0 -0 0 0 -1 0 -1 0 
2 1477.5 1612 -720 -1 -0 -0 0 0 -1 0 -1 0 8.25
1 1426 1612 -720 -1 -0 -0 0 0 -1 0 -1 0 
1 1477.5 1612 -720 -1 -0 -0 0 0 -1 0 -1 0 
2 4011.5 1387 -296 -1 -0 -0 0 0 -1 0 -1 0 8.25
1 3973.5 1387 -296 -1 -0 -0 0 0 -1 0 -1 0 
1 4011.5 1387 -296 -1 -0 -0 0 0 -1 0 -1 0 
2 4036 314.5 -515 0 0 1 1 0 -0 -0 1 0 4.5999999999999996
1 4036 314.5 -485 0 0 1 1 0 -0 -0 1 0 
1 4036 314.5 -515 0 0 1 1 0 -0 -0 1 0 
2 2990 776.5 -672 0 1 0 0 -0 1 1 0 -0 15.25
1 2990 798 -672 0 1 0 0 -0 1 1 0 -0 
1 2990 776.5 -672 0 1 0 0 -0 1 1 0 -0 
2 2770 920 -817 -0 -0 -1 -1 0 0 0 1 -0 9.25
1 2770 920 -838.5 -0 -0 -1 -1 0 0 0 1 -0 
1 2770 920 -817 -0 -0 -1 -1 0 0 0 1 -0 
2 3460 1326.5 -780 -0 -1 -0 0 0 -1 1 -0 0 8.25
1 3460 1305 -780 -0 -1 -0 0 0 -1 1 -0 0 
1 3460 1326.5 -780 -0 -1 -0 0 0 -1 1 -0 0 
Triangulations 0

TShapes 965
Ve
1e-07
4983 1649 1080
0 0

0101101
*
Ve
1e-07
4983 1649 930
0 0

0101101
*
Ed
 1e-07 1 1 0
1  1 0 0 150
2  1 1 0 0 150
2  2 2 0 0 150
0

0101000
-965 0 +964 0 *
Ve
1e-07
4983 1654 1080
0 0

0101101
*
Ed
 1e-07 1 1 0
1  2 0 0 5
2  3 1 0 0 5
2  4 3 0 0 5
0

0101000
-962 0 +965 0 *
Ve
1e-07
4983 1654 930
0 0

0101101
*
Ed
 1e-07 1 1 0
1  3 0 0 150
2  5 1 0 0 150
2  6 4 0 0 150
0

0101000
-962 0 +960 0 *
Ed
 1e-07 1 1 0
1  4 0 0 5
2  7 1 0 0 5
2  8 5 0 0 5
0

0101000
-960 0 +964 0 *
Wi

0101100
-963 0 -961 0 +959 0 +958 0 *
Fa
0  1e-07 1 0

0111000
+957 0 *
Ve
1e-07
5007 1649 1080
0 0

0101101
*
Ve
1e-07
5007 1649 930
0 0

0101101
*
Ed
 1e-07 1 1 0
1  5 0 0 150
2  9 6 0 0 150
2  10 2 0 0 150
0

0101000
-955 0 +954 0 *
Ve
1e-07
5007 1654 1080
0 0

0101101
*
Ed
 1e-07 1 1 0
1  6 0 0 5
2  11 6 0 0 5
2  12 3 0 0 5
0

0101000
-952 0 +955 0 *
Ve
1e-07
5007 1654 930
0 0

0101101
*
Ed
 1e-07 1 1 0
1  7 0 0 150
2  13 6 0 0 150
2  14 4 0 0 150
0

0101000
-952 0 +950 0 *
Ed
 1e-07 1 1 0
1  8 0 0 5
2  15 6 0 0 5
2  16 5 0 0 5
0

0101000
-950 0 +954 0 *
Wi

0101100
-953 0 -951 0 +949 0 +948 0 *
Fa
0  1e-07 6 0

0111000
+947 0 *
Ed
 1e-07 1 1 0
1  9 0 0 24
2  17 2 0 0 24
2  18 5 0 0 24
0

0101000
-954 0 +964 0 *
Ed
 1e-07 1 1 0
1  10 0 0 24
2  19 2 0 0 24
2  20 3 0 0 24
0

0101000
-955 0 +965 0 *
Wi

0101100
-945 0 -953 0 +944 0 +963 0 *
Fa
0  1e-07 2 0

0111000
+943 0 *
Ed
 1e-07 1 1 0
1  11 0 0 24
2  21 4 0 0 24
2  22 5 0 0 24
0

0101000
-950 0 +960 0 *
Ed
 1e-07 1 1 0
1  12 0 0 24
2  23 4 0 0 24
2  24 3 0 0 24
0

0101000
-952 0 +962 0 *
Wi

0101100
-941 0 -949 0 +940 0 +959 0 *
Fa
0  1e-07 4 0

0111000
+939 0 *
Wi

0101100
-958 0 -941 0 +948 0 +945 0 *
Fa
0  1e-07 5 0

0111000
+937 0 *
Wi

0101100
-961 0 -940 0 +951 0 +944 0 *
Fa
0  1e-07 3 0

0111000
+935 0 *
Sh

0101100
-956 0 +946 0 -942 0 +938 0 -936 0 +934 0 *
So

0100000
+933 0 *
Ve
1e-07
4983 446 1080
0 0

0101101
*
Ve
1e-07
4983 446 1000
0 0

0101101
*
Ed
 1e-07 1 1 0
1  13 0 0 80
2  25 7 0 0 80
2  26 8 0 0 80
0

0101000
-931 0 +930 0 *
Ve
1e-07
4983 451 1080
0 0

0101101
*
Ed
 1e-07 1 1 0
1  14 0 0 5
2  27 7 0 0 5
2  28 9 0 0 5
0

0101000
-928 0 +931 0 *
Ve
1e-07
4983 451 1000
0 0

0101101
*
Ed
 1e-07 1 1 0
1  15 0 0 80
2  29 7 0 0 80
2  30 10 0 0 80
0

0101000
-928 0 +926 0 *
Ed
 1e-07 1 1 0
1  16 0 0 5
2  31 7 0 0 5
2  32 11 0 0 5
0

0101000
-926 0 +930 0 *
Wi

0101100
-929 0 -927 0 +925 0 +924 0 *
Fa
0  1e-07 7 0

0111000
+923 0 *
Ve
1e-07
5007 446 1080
0 0

0101101
*
Ve
1e-07
5007 446 1000
0 0

0101101
*
Ed
 1e-07 1 1 0
1  17 0 0 80
2  33 12 0 0 80
2  34 8 0 0 80
0

0101000
-921 0 +920 0 *
Ve
1e-07
5007 451 1080
0 0

0101101
*
Ed
 1e-07 1 1 0
1  18 0 0 5
2  35 12 0 0 5
2  36 9 0 0 5
0

0101000
-918 0 +921 0 *
Ve
1e-07
5007 451 1000
0 0

0101101
*
Ed
 1e-07 1 1 0
1  19 0 0 80
2  37 12 0 0 80
2  38 10 0 0 80
0

0101000
-918 0 +916 0 *
Ed
 1e-07 1 1 0
1  20 0 0 5
2  39 12 0 0 5
2  40 11 0 0 5
0

0101000
-916 0 +920 0 *
Wi

0101100
-919 0 -917 0 +915 0 +914 0 *
Fa
0  1e-07 12 0

0111000
+913 0 *
Ed
 1e-07 1 1 0
1  21 0 0 24
2  41 8 0 0 24
2  42 11 0 0 24
0

0101000
-920 0 +930 0 *
Ed
 1e-07 1 1 0
1  22 0 0 24
2  43 8 0 0 24
2  44 9 0 0 24
0

0101000
-921 0 +931 0 *
Wi

0101100
-911 0 -919 0 +910 0 +929 0 *
Fa
0  1e-07 8 0

0111000
+909 0 *
Ed
 1e-07 1 1 0
1  23 0 0 24
2  45 10 0 0 24
2  46 11 0 0 24
0

0101000
-916 0 +926 0 *
Ed
 1e-07 1 1 0
1  24 0 0 24
2  47 10 0 0 24
2  48 9 0 0 24
0

0101000
-918 0 +928 0 *
Wi

0101100
-907 0 -915 0 +906 0 +925 0 *
Fa
0  1e-07 10 0

0111000
+905 0 *
Wi

0101100
-924 0 -907 0 +914 0 +911 0 *
Fa
0  1e-07 11 0

0111000
+903 0 *
Wi

0101100
-927 0 -906 0 +917 0 +910 0 *
Fa
0  1e-07 9 0

0111000
+901 0 *
Sh

0101100
-922 0 +912 0 -908 0 +904 0 -902 0 +900 0 *
So

0100000
+899 0 *
Ve
1e-07
4847 282 944
0 0

0101101
*
Ve
1e-07
4847 282 910.5
0 0

0101101
*
Ed
 1e-07 1 1 0
1  25 0 0 33.5
2  49 13 0 0 33.5
2  50 14 0 0 33.5
0

0101000
-897 0 +896 0 *
Ve
1e-07
4847 318 944
0 0

0101101
*
Ed
 1e-07 1 1 0
1  26 0 0 36
2  51 13 0 0 36
2  52 15 0 0 36
0

0101000
-894 0 +897 0 *
Ve
1e-07
4847 318 910.5
0 0

0101101
*
Ed
 1e-07 1 1 0
1  27 0 0 33.5
2  53 13 0 0 33.5
2  54 16 0 0 33.5
0

0101000
-894 0 +892 0 *
Ed
 1e-07 1 1 0
1  28 0 0 36
2  55 13 0 0 36
2  56 17 0 0 36
0

0101000
-892 0 +896 0 *
Wi

0101100
-895 0 -893 0 +891 0 +890 0 *
Fa
0  1e-07 13 0

0111000
+889 0 *
Ve
1e-07
4913 282 944
0 0

0101101
*
Ve
1e-07
4913 282 910.5
0 0

0101101
*
Ed
 1e-07 1 1 0
1  29 0 0 33.5
2  57 18 0 0 33.5
2  58 14 0 0 33.5
0

0101000
-887 0 +886 0 *
Ve
1e-07
4913 318 944
0 0

0101101
*
Ed
 1e-07 1 1 0
1  30 0 0 36
2  59 18 0 0 36
2  60 15 0 0 36
0

0101000
-884 0 +887 0 *
Ve
1e-07
4913 318 910.5
0 0

0101101
*
Ed
 1e-07 1 1 0
1  31 0 0 33.5
2  61 18 0 0 33.5
2  62 16 0 0 33.5
0

0101000
-884 0 +882 0 *
Ed
 1e-07 1 1 0
1  32 0 0 36
2  63 18 0 0 36
2  64 17 0 0 36
0

0101000
-882 0 +886 0 *
Wi

0101100
-885 0 -883 0 +881 0 +880 0 *
Fa
0  1e-07 18 0

0111000
+879 0 *
Ed
 1e-07 1 1 0
1  33 0 0 66
2  65 14 0 0 66
2  66 17 0 0 66
0

0101000
-886 0 +896 0 *
Ed
 1e-07 1 1 0
1  34 0 0 66
2  67 14 0 0 66
2  68 15 0 0 66
0

0101000
-887 0 +897 0 *
Wi

0101100
-877 0 -885 0 +876 0 +895 0 *
Fa
0  1e-07 14 0

0111000
+875 0 *
Ed
 1e-07 1 1 0
1  35 0 0 66
2  69 16 0 0 66
2  70 17 0 0 66
0

0101000
-882 0 +892 0 *
Ed
 1e-07 1 1 0
1  36 0 0 66
2  71 16 0 0 66
2  72 15 0 0 66
0

0101000
-884 0 +894 0 *
Wi

0101100
-873 0 -881 0 +872 0 +891 0 *
Fa
0  1e-07 16 0

0111000
+871 0 *
Wi

0101100
-890 0 -873 0 +880 0 +877 0 *
Fa
0  1e-07 17 0

0111000
+869 0 *
Wi

0101100
-893 0 -872 0 +883 0 +876 0 *
Fa
0  1e-07 15 0

0111000
+867 0 *
Sh

0101100
-888 0 +878 0 -874 0 +870 0 -868 0 +866 0 *
So

0100000
+865 0 *
Ve
1e-07
4100 120 -642
0 0

0101101
*
Ve
1e-07
4100 120 -700
0 0

0101101
*
Ed
 1e-07 1 1 0
1  37 0 0 58
2  73 19 0 0 58
2  74 20 0 0 58
0

0101000
-863 0 +862 0 *
Ve
1e-07
4100 128 -642
0 0

0101101
*
Ed
 1e-07 1 1 0
1  38 0 0 8
2  75 19 0 0 8
2  76 21 0 0 8
0

0101000
-860 0 +863 0 *
Ve
1e-07
4100 128 -700
0 0

0101101
*
Ed
 1e-07 1 1 0
1  39 0 0 58
2  77 19 0 0 58
2  78 22 0 0 58
0

0101000
-860 0 +858 0 *
Ed
 1e-07 1 1 0
1  40 0 0 8
2  79 19 0 0 8
2  80 23 0 0 8
0

0101000
-858 0 +862 0 *
Wi

0101100
-861 0 -859 0 +857 0 +856 0 *
Fa
0  1e-07 19 0

0111000
+855 0 *
Ve
1e-07
4140 120 -642
0 0

0101101
*
Ve
1e-07
4140 120 -700
0 0

0101101
*
Ed
 1e-07 1 1 0
1  41 0 0 58
2  81 24 0 0 58
2  82 20 0 0 58
0

0101000
-853 0 +852 0 *
Ve
1e-07
4140 128 -642
0 0

0101101
*
Ed
 1e-07 1 1 0
1  42 0 0 8
2  83 24 0 0 8
2  84 21 0 0 8
0

0101000
-850 0 +853 0 *
Ve
1e-07
4140 128 -700
0 0

0101101
*
Ed
 1e-07 1 1 0
1  43 0 0 58
2  85 24 0 0 58
2  86 22 0 0 58
0

0101000
-850 0 +848 0 *
Ed
 1e-07 1 1 0
1  44 0 0 8
2  87 24 0 0 8
2  88 23 0 0 8
0

0101000
-848 0 +852 0 *
Wi

0101100
-851 0 -849 0 +847 0 +846 0 *
Fa
0  1e-07 24 0

0111000
+845 0 *
Ed
 1e-07 1 1 0
1  45 0 0 40
2  89 20 0 0 40
2  90 23 0 0 40
0

0101000
-852 0 +862 0 *
Ed
 1e-07 1 1 0
1  46 0 0 40
2  91 20 0 0 40
2  92 21 0 0 40
0

0101000
-853 0 +863 0 *
Wi

0101100
-843 0 -851 0 +842 0 +861 0 *
Fa
0  1e-07 20 0

0111000
+841 0 *
Ed
 1e-07 1 1 0
1  47 0 0 40
2  93 22 0 0 40
2  94 23 0 0 40
0

0101000
-848 0 +858 0 *
Ed
 1e-07 1 1 0
1  48 0 0 40
2  95 22 0 0 40
2  96 21 0 0 40
0

0101000
-850 0 +860 0 *
Wi

0101100
-839 0 -847 0 +838 0 +857 0 *
Fa
0  1e-07 22 0

0111000
+837 0 *
Wi

0101100
-856 0 -839 0 +846 0 +843 0 *
Fa
0  1e-07 23 0

0111000
+835 0 *
Wi

0101100
-859 0 -838 0 +849 0 +842 0 *
Fa
0  1e-07 21 0

0111000
+833 0 *
Sh

0101100
-854 0 +844 0 -840 0 +836 0 -834 0 +832 0 *
So

0100000
+831 0 *
Ve
1e-07
3990 742.5 -640.5
0 0

0101101
*
Ve
1e-07
3990 742.5 -761.5
0 0

0101101
*
Ed
 1e-07 1 1 0
1  49 0 0 121
2  97 25 0 0 121
2  98 26 0 0 121
0

0101000
-829 0 +828 0 *
Ve
1e-07
3990 785.5 -640.5
0 0

0101101
*
Ed
 1e-07 1 1 0
1  50 0 0 43
2  99 25 0 0 43
2  100 27 0 0 43
0

0101000
-826 0 +829 0 *
Ve
1e-07
3990 785.5 -761.5
0 0

0101101
*
Ed
 1e-07 1 1 0
1  51 0 0 121
2  101 25 0 0 121
2  102 28 0 0 121
0

0101000
-826 0 +824 0 *
Ed
 1e-07 1 1 0
1  52 0 0 43
2  103 25 0 0 43
2  104 29 0 0 43
0

0101000
-824 0 +828 0 *
Wi

0101100
-827 0 -825 0 +823 0 +822 0 *
Fa
0  1e-07 25 0

0111000
+821 0 *
Ve
1e-07
4032 742.5 -640.5
0 0

0101101
*
Ve
1e-07
4032 742.5 -761.5
0 0

0101101
*
Ed
 1e-07 1 1 0
1  53 0 0 121
2  105 30 0 0 121
2  106 26 0 0 121
0

0101000
-819 0 +818 0 *
Ve
1e-07
4032 785.5 -640.5
0 0

0101101
*
Ed
 1e-07 1 1 0
1  54 0 0 43
2  107 30 0 0 43
2  108 27 0 0 43
0

0101000
-816 0 +819 0 *
Ve
1e-07
4032 785.5 -761.5
0 0

0101101
*
Ed
 1e-07 1 1 0
1  55 0 0 121
2  109 30 0 0 121
2  110 28 0 0 121
0

0101000
-816 0 +814 0 *
Ed
 1e-07 1 1 0
1  56 0 0 43
2  111 30 0 0 43
2  112 29 0 0 43
0

0101000
-814 0 +818 0 *
Wi

0101100
-817 0 -815 0 +813 0 +812 0 *
Fa
0  1e-07 30 0

0111000
+811 0 *
Ed
 1e-07 1 1 0
1  57 0 0 42
2  113 26 0 0 42
2  114 29 0 0 42
0

0101000
-818 0 +828 0 *
Ed
 1e-07 1 1 0
1  58 0 0 42
2  115 26 0 0 42
2  116 27 0 0 42
0

0101000
-819 0 +829 0 *
Wi

0101100
-809 0 -817 0 +808 0 +827 0 *
Fa
0  1e-07 26 0

0111000
+807 0 *
Ed
 1e-07 1 1 0
1  59 0 0 42
2  117 28 0 0 42
2  118 29 0 0 42
0

0101000
-814 0 +824 0 *
Ed
 1e-07 1 1 0
1  60 0 0 42
2  119 28 0 0 42
2  120 27 0 0 42
0

0101000
-816 0 +826 0 *
Wi

0101100
-805 0 -813 0 +804 0 +823 0 *
Fa
0  1e-07 28 0

0111000
+803 0 *
Wi

0101100
-822 0 -805 0 +812 0 +809 0 *
Fa
0  1e-07 29 0

0111000
+801 0 *
Wi

0101100
-825 0 -804 0 +815 0 +808 0 *
Fa
0  1e-07 27 0

0111000
+799 0 *
Sh

0101100
-820 0 +810 0 -806 0 +802 0 -800 0 +798 0 *
So

0100000
+797 0 *
Ve
1e-07
3990 742.5 -640.5
0 0

0101101
*
Ve
1e-07
3990 742.5 -761.5
0 0

0101101
*
Ed
 1e-07 1 1 0
1  61 0 0 121
2  121 31 0 0 121
2  122 32 0 0 121
0

0101000
-795 0 +794 0 *
Ve
1e-07
3990 785.5 -640.5
0 0

0101101
*
Ed
 1e-07 1 1 0
1  62 0 0 43
2  123 31 0 0 43
2  124 33 0 0 43
0

0101000
-792 0 +795 0 *
Ve
1e-07
3990 785.5 -761.5
0 0

0101101
*
Ed
 1e-07 1 1 0
1  63 0 0 121
2  125 31 0 0 121
2  126 34 0 0 121
0

0101000
-792 0 +790 0 *
Ed
 1e-07 1 1 0
1  64 0 0 43
2  127 31 0 0 43
2  128 35 0 0 43
0

0101000
-790 0 +794 0 *
Wi

0101100
-793 0 -791 0 +789 0 +788 0 *
Fa
0  1e-07 31 0

0111000
+787 0 *
Ve
1e-07
4032 742.5 -640.5
0 0

0101101
*
Ve
1e-07
4032 742.5 -761.5
0 0

0101101
*
Ed
 1e-07 1 1 0
1  65 0 0 121
2  129 36 0 0 121
2  130 32 0 0 121
0

0101000
-785 0 +784 0 *
Ve
1e-07
4032 785.5 -640.5
0 0

0101101
*
Ed
 1e-07 1 1 0
1  66 0 0 43
2  131 36 0 0 43
2  132 33 0 0 43
0

0101000
-782 0 +785 0 *
Ve
1e-07
4032 785.5 -761.5
0 0

0101101
*
Ed
 1e-07 1 1 0
1  67 0 0 121
2  133 36 0 0 121
2  134 34 0 0 121
0

0101000
-782 0 +780 0 *
Ed
 1e-07 1 1 0
1  68 0 0 43
2  135 36 0 0 43
2  136 35 0 0 43
0

0101000
-780 0 +784 0 *
Wi

0101100
-783 0 -781 0 +779 0 +778 0 *
Fa
0  1e-07 36 0

0111000
+777 0 *
Ed
 1e-07 1 1 0
1  69 0 0 42
2  137 32 0 0 42
2  138 35 0 0 42
0

0101000
-784 0 +794 0 *
Ed
 1e-07 1 1 0
1  70 0 0 42
2  139 32 0 0 42
2  140 33 0 0 42
0

0101000
-785 0 +795 0 *
Wi

0101100
-775 0 -783 0 +774 0 +793 0 *
Fa
0  1e-07 32 0

0111000
+773 0 *
Ed
 1e-07 1 1 0
1  71 0 0 42
2  141 34 0 0 42
2  142 35 0 0 42
0

0101000
-780 0 +790 0 *
Ed
 1e-07 1 1 0
1  72 0 0 42
2  143 34 0 0 42
2  144 33 0 0 42
0

0101000
-782 0 +792 0 *
Wi

0101100
-771 0 -779 0 +770 0 +789 0 *
Fa
0  1e-07 34 0

0111000
+769 0 *
Wi

0101100
-788 0 -771 0 +778 0 +775 0 *
Fa
0  1e-07 35 0

0111000
+767 0 *
Wi

0101100
-791 0 -770 0 +781 0 +774 0 *
Fa
0  1e-07 33 0

0111000
+765 0 *
Sh

0101100
-786 0 +776 0 -772 0 +768 0 -766 0 +764 0 *
So

0100000
+763 0 *
Ve
1e-07
3990 742.5 -640.5
0 0

0101101
*
Ve
1e-07
3990 742.5 -761.5
0 0

0101101
*
Ed
 1e-07 1 1 0
1  73 0 0 121
2  145 37 0 0 121
2  146 38 0 0 121
0

0101000
-761 0 +760 0 *
Ve
1e-07
3990 785.5 -640.5
0 0

0101101
*
Ed
 1e-07 1 1 0
1  74 0 0 43
2  147 37 0 0 43
2  148 39 0 0 43
0

0101000
-758 0 +761 0 *
Ve
1e-07
3990 785.5 -761.5
0 0

0101101
*
Ed
 1e-07 1 1 0
1  75 0 0 121
2  149 37 0 0 121
2  150 40 0 0 121
0

0101000
-758 0 +756 0 *
Ed
 1e-07 1 1 0
1  76 0 0 43
2  151 37 0 0 43
2  152 41 0 0 43
0

0101000
-756 0 +760 0 *
Wi

0101100
-759 0 -757 0 +755 0 +754 0 *
Fa
0  1e-07 37 0

0111000
+753 0 *
Ve
1e-07
4032 742.5 -640.5
0 0

0101101
*
Ve
1e-07
4032 742.5 -761.5
0 0

0101101
*
Ed
 1e-07 1 1 0
1  77 0 0 121
2  153 42 0 0 121
2  154 38 0 0 121
0

0101000
-751 0 +750 0 *
Ve
1e-07
4032 785.5 -640.5
0 0

0101101
*
Ed
 1e-07 1 1 0
1  78 0 0 43
2  155 42 0 0 43
2  156 39 0 0 43
0

0101000
-748 0 +751 0 *
Ve
1e-07
4032 785.5 -761.5
0 0

0101101
*
Ed
 1e-07 1 1 0
1  79 0 0 121
2  157 42 0 0 121
2  158 40 0 0 121
0

0101000
-748 0 +746 0 *
Ed
 1e-07 1 1 0
1  80 0 0 43
2  159 42 0 0 43
2  160 41 0 0 43
0

0101000
-746 0 +750 0 *
Wi

0101100
-749 0 -747 0 +745 0 +744 0 *
Fa
0  1e-07 42 0

0111000
+743 0 *
Ed
 1e-07 1 1 0
1  81 0 0 42
2  161 38 0 0 42
2  162 41 0 0 42
0

0101000
-750 0 +760 0 *
Ed
 1e-07 1 1 0
1  82 0 0 42
2  163 38 0 0 42
2  164 39 0 0 42
0

0101000
-751 0 +761 0 *
Wi

0101100
-741 0 -749 0 +740 0 +759 0 *
Fa
0  1e-07 38 0

0111000
+739 0 *
Ed
 1e-07 1 1 0
1  83 0 0 42
2  165 40 0 0 42
2  166 41 0 0 42
0

0101000
-746 0 +756 0 *
Ed
 1e-07 1 1 0
1  84 0 0 42
2  167 40 0 0 42
2  168 39 0 0 42
0

0101000
-748 0 +758 0 *
Wi

0101100
-737 0 -745 0 +736 0 +755 0 *
Fa
0  1e-07 40 0

0111000
+735 0 *
Wi

0101100
-754 0 -737 0 +744 0 +741 0 *
Fa
0  1e-07 41 0

0111000
+733 0 *
Wi

0101100
-757 0 -736 0 +747 0 +740 0 *
Fa
0  1e-07 39 0

0111000
+731 0 *
Sh

0101100
-752 0 +742 0 -738 0 +734 0 -732 0 +730 0 *
So

0100000
+729 0 *
Ve
1e-07
2498 742.5 -640.5
0 0

0101101
*
Ve
1e-07
2498 742.5 -761.5
0 0

0101101
*
Ed
 1e-07 1 1 0
1  85 0 0 121
2  169 43 0 0 121
2  170 44 0 0 121
0

0101000
-727 0 +726 0 *
Ve
1e-07
2498 785.5 -640.5
0 0

0101101
*
Ed
 1e-07 1 1 0
1  86 0 0 43
2  171 43 0 0 43
2  172 45 0 0 43
0

0101000
-724 0 +727 0 *
Ve
1e-07
2498 785.5 -761.5
0 0

0101101
*
Ed
 1e-07 1 1 0
1  87 0 0 121
2  173 43 0 0 121
2  174 46 0 0 121
0

0101000
-724 0 +722 0 *
Ed
 1e-07 1 1 0
1  88 0 0 43
2  175 43 0 0 43
2  176 47 0 0 43
0

0101000
-722 0 +726 0 *
Wi

0101100
-725 0 -723 0 +721 0 +720 0 *
Fa
0  1e-07 43 0

0111000
+719 0 *
Ve
1e-07
2503 742.5 -640.5
0 0

0101101
*
Ve
1e-07
2503 742.5 -761.5
0 0

0101101
*
Ed
 1e-07 1 1 0
1  89 0 0 121
2  177 48 0 0 121
2  178 44 0 0 121
0

0101000
-717 0 +716 0 *
Ve
1e-07
2503 785.5 -640.5
0 0

0101101
*
Ed
 1e-07 1 1 0
1  90 0 0 43
2  179 48 0 0 43
2  180 45 0 0 43
0

0101000
-714 0 +717 0 *
Ve
1e-07
2503 785.5 -761.5
0 0

0101101
*
Ed
 1e-07 1 1 0
1  91 0 0 121
2  181 48 0 0 121
2  182 46 0 0 121
0

0101000
-714 0 +712 0 *
Ed
 1e-07 1 1 0
1  92 0 0 43
2  183 48 0 0 43
2  184 47 0 0 43
0

0101000
-712 0 +716 0 *
Wi

0101100
-715 0 -713 0 +711 0 +710 0 *
Fa
0  1e-07 48 0

0111000
+709 0 *
Ed
 1e-07 1 1 0
1  93 0 0 5
2  185 44 0 0 5
2  186 47 0 0 5
0

0101000
-716 0 +726 0 *
Ed
 1e-07 1 1 0
1  94 0 0 5
2  187 44 0 0 5
2  188 45 0 0 5
0

0101000
-717 0 +727 0 *
Wi

0101100
-707 0 -715 0 +706 0 +725 0 *
Fa
0  1e-07 44 0

0111000
+705 0 *
Ed
 1e-07 1 1 0
1  95 0 0 5
2  189 46 0 0 5
2  190 47 0 0 5
0

0101000
-712 0 +722 0 *
Ed
 1e-07 1 1 0
1  96 0 0 5
2  191 46 0 0 5
2  192 45 0 0 5
0

0101000
-714 0 +724 0 *
Wi

0101100
-703 0 -711 0 +702 0 +721 0 *
Fa
0  1e-07 46 0

0111000
+701 0 *
Wi

0101100
-720 0 -703 0 +710 0 +707 0 *
Fa
0  1e-07 47 0

0111000
+699 0 *
Wi

0101100
-723 0 -702 0 +713 0 +706 0 *
Fa
0  1e-07 45 0

0111000
+697 0 *
Sh

0101100
-718 0 +708 0 -704 0 +700 0 -698 0 +696 0 *
So

0100000
+695 0 *
Ve
1e-07
2419.5 742.5 -558.5
0 0

0101101
*
Ve
1e-07
2419.5 742.5 -761.5
0 0

0101101
*
Ed
 1e-07 1 1 0
1  97 0 0 203
2  193 49 0 0 203
2  194 50 0 0 203
0

0101000
-693 0 +692 0 *
Ve
1e-07
2419.5 788.5 -558.5
0 0

0101101
*
Ed
 1e-07 1 1 0
1  98 0 0 46
2  195 49 0 0 46
2  196 51 0 0 46
0

0101000
-690 0 +693 0 *
Ve
1e-07
2419.5 788.5 -761.5
0 0

0101101
*
Ed
 1e-07 1 1 0
1  99 0 0 203
2  197 49 0 0 203
2  198 52 0 0 203
0

0101000
-690 0 +688 0 *
Ed
 1e-07 1 1 0
1  100 0 0 46
2  199 49 0 0 46
2  200 53 0 0 46
0

0101000
-688 0 +692 0 *
Wi

0101100
-691 0 -689 0 +687 0 +686 0 *
Fa
0  1e-07 49 0

0111000
+685 0 *
Ve
1e-07
2503 742.5 -558.5
0 0

0101101
*
Ve
1e-07
2503 742.5 -761.5
0 0

0101101
*
Ed
 1e-07 1 1 0
1  101 0 0 203
2  201 54 0 0 203
2  202 50 0 0 203
0

0101000
-683 0 +682 0 *
Ve
1e-07
2503 788.5 -558.5
0 0

0101101
*
Ed
 1e-07 1 1 0
1  102 0 0 46
2  203 54 0 0 46
2  204 51 0 0 46
0

0101000
-680 0 +683 0 *
Ve
1e-07
2503 788.5 -761.5
0 0

0101101
*
Ed
 1e-07 1 1 0
1  103 0 0 203
2  205 54 0 0 203
2  206 52 0 0 203
0

0101000
-680 0 +678 0 *
Ed
 1e-07 1 1 0
1  104 0 0 46
2  207 54 0 0 46
2  208 53 0 0 46
0

0101000
-678 0 +682 0 *
Wi

0101100
-681 0 -679 0 +677 0 +676 0 *
Fa
0  1e-07 54 0

0111000
+675 0 *
Ed
 1e-07 1 1 0
1  105 0 0 83.5
2  209 50 0 0 83.5
2  210 53 0 0 83.5
0

0101000
-682 0 +692 0 *
Ed
 1e-07 1 1 0
1  106 0 0 83.5
2  211 50 0 0 83.5
2  212 51 0 0 83.5
0

0101000
-683 0 +693 0 *
Wi

0101100
-673 0 -681 0 +672 0 +691 0 *
Fa
0  1e-07 50 0

0111000
+671 0 *
Ed
 1e-07 1 1 0
1  107 0 0 83.5
2  213 52 0 0 83.5
2  214 53 0 0 83.5
0

0101000
-678 0 +688 0 *
Ed
 1e-07 1 1 0
1  108 0 0 83.5
2  215 52 0 0 83.5
2  216 51 0 0 83.5
0

0101000
-680 0 +690 0 *
Wi

0101100
-669 0 -677 0 +668 0 +687 0 *
Fa
0  1e-07 52 0

0111000
+667 0 *
Wi

0101100
-686 0 -669 0 +676 0 +673 0 *
Fa
0  1e-07 53 0

0111000
+665 0 *
Wi

0101100
-689 0 -668 0 +679 0 +672 0 *
Fa
0  1e-07 51 0

0111000
+663 0 *
Sh

0101100
-684 0 +674 0 -670 0 +666 0 -664 0 +662 0 *
So

0100000
+661 0 *
Ve
1e-07
2419.5 785 -558.5
0 0

0101101
*
Ve
1e-07
2419.5 785 -699.5
0 0

0101101
*
Ed
 1e-07 1 1 0
1  109 0 0 141
2  217 55 0 0 141
2  218 56 0 0 141
0

0101000
-659 0 +658 0 *
Ve
1e-07
2419.5 789 -558.5
0 0

0101101
*
Ed
 1e-07 1 1 0
1  110 0 0 4
2  219 55 0 0 4
2  220 57 0 0 4
0

0101000
-656 0 +659 0 *
Ve
1e-07
2419.5 789 -699.5
0 0

0101101
*
Ed
 1e-07 1 1 0
1  111 0 0 141
2  221 55 0 0 141
2  222 58 0 0 141
0

0101000
-656 0 +654 0 *
Ed
 1e-07 1 1 0
1  112 0 0 4
2  223 55 0 0 4
2  224 59 0 0 4
0

0101000
-654 0 +658 0 *
Wi

0101100
-657 0 -655 0 +653 0 +652 0 *
Fa
0  1e-07 55 0

0111000
+651 0 *
Ve
1e-07
2451 785 -558.5
0 0

0101101
*
Ve
1e-07
2451 785 -699.5
0 0

0101101
*
Ed
 1e-07 1 1 0
1  113 0 0 141
2  225 60 0 0 141
2  226 56 0 0 141
0

0101000
-649 0 +648 0 *
Ve
1e-07
2451 789 -558.5
0 0

0101101
*
Ed
 1e-07 1 1 0
1  114 0 0 4
2  227 60 0 0 4
2  228 57 0 0 4
0

0101000
-646 0 +649 0 *
Ve
1e-07
2451 789 -699.5
0 0

0101101
*
Ed
 1e-07 1 1 0
1  115 0 0 141
2  229 60 0 0 141
2  230 58 0 0 141
0

0101000
-646 0 +644 0 *
Ed
 1e-07 1 1 0
1  116 0 0 4
2  231 60 0 0 4
2  232 59 0 0 4
0

0101000
-644 0 +648 0 *
Wi

0101100
-647 0 -645 0 +643 0 +642 0 *
Fa
0  1e-07 60 0

0111000
+641 0 *
Ed
 1e-07 1 1 0
1  117 0 0 31.5
2  233 56 0 0 31.5
2  234 59 0 0 31.5
0

0101000
-648 0 +658 0 *
Ed
 1e-07 1 1 0
1  118 0 0 31.5
2  235 56 0 0 31.5
2  236 57 0 0 31.5
0

0101000
-649 0 +659 0 *
Wi

0101100
-639 0 -647 0 +638 0 +657 0 *
Fa
0  1e-07 56 0

0111000
+637 0 *
Ed
 1e-07 1 1 0
1  119 0 0 31.5
2  237 58 0 0 31.5
2  238 59 0 0 31.5
0

0101000
-644 0 +654 0 *
Ed
 1e-07 1 1 0
1  120 0 0 31.5
2  239 58 0 0 31.5
2  240 57 0 0 31.5
0

0101000
-646 0 +656 0 *
Wi

0101100
-635 0 -643 0 +634 0 +653 0 *
Fa
0  1e-07 58 0

0111000
+633 0 *
Wi

0101100
-652 0 -635 0 +642 0 +639 0 *
Fa
0  1e-07 59 0

0111000
+631 0 *
Wi

0101100
-655 0 -634 0 +645 0 +638 0 *
Fa
0  1e-07 57 0

0111000
+629 0 *
Sh

0101100
-650 0 +640 0 -636 0 +632 0 -630 0 +628 0 *
So

0100000
+627 0 *
Ve
1e-07
2419.5 887 -558.5
0 0

0101101
*
Ve
1e-07
2419.5 887 -699.5
0 0

0101101
*
Ed
 1e-07 1 1 0
1  121 0 0 141
2  241 61 0 0 141
2  242 62 0 0 141
0

0101000
-625 0 +624 0 *
Ve
1e-07
2419.5 893 -558.5
0 0

0101101
*
Ed
 1e-07 1 1 0
1  122 0 0 6
2  243 61 0 0 6
2  244 63 0 0 6
0

0101000
-622 0 +625 0 *
Ve
1e-07
2419.5 893 -699.5
0 0

0101101
*
Ed
 1e-07 1 1 0
1  123 0 0 141
2  245 61 0 0 141
2  246 64 0 0 141
0

0101000
-622 0 +620 0 *
Ed
 1e-07 1 1 0
1  124 0 0 6
2  247 61 0 0 6
2  248 65 0 0 6
0

0101000
-620 0 +624 0 *
Wi

0101100
-623 0 -621 0 +619 0 +618 0 *
Fa
0  1e-07 61 0

0111000
+617 0 *
Ve
1e-07
2451 887 -558.5
0 0

0101101
*
Ve
1e-07
2451 887 -699.5
0 0

0101101
*
Ed
 1e-07 1 1 0
1  125 0 0 141
2  249 66 0 0 141
2  250 62 0 0 141
0

0101000
-615 0 +614 0 *
Ve
1e-07
2451 893 -558.5
0 0

0101101
*
Ed
 1e-07 1 1 0
1  126 0 0 6
2  251 66 0 0 6
2  252 63 0 0 6
0

0101000
-612 0 +615 0 *
Ve
1e-07
2451 893 -699.5
0 0

0101101
*
Ed
 1e-07 1 1 0
1  127 0 0 141
2  253 66 0 0 141
2  254 64 0 0 141
0

0101000
-612 0 +610 0 *
Ed
 1e-07 1 1 0
1  128 0 0 6
2  255 66 0 0 6
2  256 65 0 0 6
0

0101000
-610 0 +614 0 *
Wi

0101100
-613 0 -611 0 +609 0 +608 0 *
Fa
0  1e-07 66 0

0111000
+607 0 *
Ed
 1e-07 1 1 0
1  129 0 0 31.5
2  257 62 0 0 31.5
2  258 65 0 0 31.5
0

0101000
-614 0 +624 0 *
Ed
 1e-07 1 1 0
1  130 0 0 31.5
2  259 62 0 0 31.5
2  260 63 0 0 31.5
0

0101000
-615 0 +625 0 *
Wi

0101100
-605 0 -613 0 +604 0 +623 0 *
Fa
0  1e-07 62 0

0111000
+603 0 *
Ed
 1e-07 1 1 0
1  131 0 0 31.5
2  261 64 0 0 31.5
2  262 65 0 0 31.5
0

0101000
-610 0 +620 0 *
Ed
 1e-07 1 1 0
1  132 0 0 31.5
2  263 64 0 0 31.5
2  264 63 0 0 31.5
0

0101000
-612 0 +622 0 *
Wi

0101100
-601 0 -609 0 +600 0 +619 0 *
Fa
0  1e-07 64 0

0111000
+599 0 *
Wi

0101100
-618 0 -601 0 +608 0 +605 0 *
Fa
0  1e-07 65 0

0111000
+597 0 *
Wi

0101100
-621 0 -600 0 +611 0 +604 0 *
Fa
0  1e-07 63 0

0111000
+595 0 *
Sh

0101100
-616 0 +606 0 -602 0 +598 0 -596 0 +594 0 *
So

0100000
+593 0 *
Ve
1e-07
2419.5 891 -558.5
0 0

0101101
*
Ve
1e-07
2419.5 891 -699.5
0 0

0101101
*
Ed
 1e-07 1 1 0
1  133 0 0 141
2  265 67 0 0 141
2  266 68 0 0 141
0

0101000
-591 0 +590 0 *
Ve
1e-07
2419.5 895 -558.5
0 0

0101101
*
Ed
 1e-07 1 1 0
1  134 0 0 4
2  267 67 0 0 4
2  268 69 0 0 4
0

0101000
-588 0 +591 0 *
Ve
1e-07
2419.5 895 -699.5
0 0

0101101
*
Ed
 1e-07 1 1 0
1  135 0 0 141
2  269 67 0 0 141
2  270 70 0 0 141
0

0101000
-588 0 +586 0 *
Ed
 1e-07 1 1 0
1  136 0 0 4
2  271 67 0 0 4
2  272 71 0 0 4
0

0101000
-586 0 +590 0 *
Wi

0101100
-589 0 -587 0 +585 0 +584 0 *
Fa
0  1e-07 67 0

0111000
+583 0 *
Ve
1e-07
2451 891 -558.5
0 0

0101101
*
Ve
1e-07
2451 891 -699.5
0 0

0101101
*
Ed
 1e-07 1 1 0
1  137 0 0 141
2  273 72 0 0 141
2  274 68 0 0 141
0

0101000
-581 0 +580 0 *
Ve
1e-07
2451 895 -558.5
0 0

0101101
*
Ed
 1e-07 1 1 0
1  138 0 0 4
2  275 72 0 0 4
2  276 69 0 0 4
0

0101000
-578 0 +581 0 *
Ve
1e-07
2451 895 -699.5
0 0

0101101
*
Ed
 1e-07 1 1 0
1  139 0 0 141
2  277 72 0 0 141
2  278 70 0 0 141
0

0101000
-578 0 +576 0 *
Ed
 1e-07 1 1 0
1  140 0 0 4
2  279 72 0 0 4
2  280 71 0 0 4
0

0101000
-576 0 +580 0 *
Wi

0101100
-579 0 -577 0 +575 0 +574 0 *
Fa
0  1e-07 72 0

0111000
+573 0 *
Ed
 1e-07 1 1 0
1  141 0 0 31.5
2  281 68 0 0 31.5
2  282 71 0 0 31.5
0

0101000
-580 0 +590 0 *
Ed
 1e-07 1 1 0
1  142 0 0 31.5
2  283 68 0 0 31.5
2  284 69 0 0 31.5
0

0101000
-581 0 +591 0 *
Wi

0101100
-571 0 -579 0 +570 0 +589 0 *
Fa
0  1e-07 68 0

0111000
+569 0 *
Ed
 1e-07 1 1 0
1  143 0 0 31.5
2  285 70 0 0 31.5
2  286 71 0 0 31.5
0

0101000
-576 0 +586 0 *
Ed
 1e-07 1 1 0
1  144 0 0 31.5
2  287 70 0 0 31.5
2  288 69 0 0 31.5
0

0101000
-578 0 +588 0 *
Wi

0101100
-567 0 -575 0 +566 0 +585 0 *
Fa
0  1e-07 70 0

0111000
+565 0 *
Wi

0101100
-584 0 -567 0 +574 0 +571 0 *
Fa
0  1e-07 71 0

0111000
+563 0 *
Wi

0101100
-587 0 -566 0 +577 0 +570 0 *
Fa
0  1e-07 69 0

0111000
+561 0 *
Sh

0101100
-582 0 +572 0 -568 0 +564 0 -562 0 +560 0 *
So

0100000
+559 0 *
Ve
1e-07
1434 2142 -765
0 0

0101101
*
Ve
1e-07
1434 2142 -827
0 0

0101101
*
Ed
 1e-07 1 1 0
1  145 0 0 62
2  289 73 0 0 62
2  290 74 0 0 62
0

0101000
-557 0 +556 0 *
Ve
1e-07
1434 2167.5 -765
0 0

0101101
*
Ed
 1e-07 1 1 0
1  146 0 0 25.5
2  291 73 0 0 25.5
2  292 75 0 0 25.5
0

0101000
-554 0 +557 0 *
Ve
1e-07
1434 2167.5 -827
0 0

0101101
*
Ed
 1e-07 1 1 0
1  147 0 0 62
2  293 73 0 0 62
2  294 76 0 0 62
0

0101000
-554 0 +552 0 *
Ed
 1e-07 1 1 0
1  148 0 0 25.5
2  295 73 0 0 25.5
2  296 77 0 0 25.5
0

0101000
-552 0 +556 0 *
Wi

0101100
-555 0 -553 0 +551 0 +550 0 *
Fa
0  1e-07 73 0

0111000
+549 0 *
Ve
1e-07
1469 2142 -765
0 0

0101101
*
Ve
1e-07
1469 2142 -827
0 0

0101101
*
Ed
 1e-07 1 1 0
1  149 0 0 62
2  297 78 0 0 62
2  298 74 0 0 62
0

0101000
-547 0 +546 0 *
Ve
1e-07
1469 2167.5 -765
0 0

0101101
*
Ed
 1e-07 1 1 0
1  150 0 0 25.5
2  299 78 0 0 25.5
2  300 75 0 0 25.5
0

0101000
-544 0 +547 0 *
Ve
1e-07
1469 2167.5 -827
0 0

0101101
*
Ed
 1e-07 1 1 0
1  151 0 0 62
2  301 78 0 0 62
2  302 76 0 0 62
0

0101000
-544 0 +542 0 *
Ed
 1e-07 1 1 0
1  152 0 0 25.5
2  303 78 0 0 25.5
2  304 77 0 0 25.5
0

0101000
-542 0 +546 0 *
Wi

0101100
-545 0 -543 0 +541 0 +540 0 *
Fa
0  1e-07 78 0

0111000
+539 0 *
Ed
 1e-07 1 1 0
1  153 0 0 35
2  305 74 0 0 35
2  306 77 0 0 35
0

0101000
-546 0 +556 0 *
Ed
 1e-07 1 1 0
1  154 0 0 35
2  307 74 0 0 35
2  308 75 0 0 35
0

0101000
-547 0 +557 0 *
Wi

0101100
-537 0 -545 0 +536 0 +555 0 *
Fa
0  1e-07 74 0

0111000
+535 0 *
Ed
 1e-07 1 1 0
1  155 0 0 35
2  309 76 0 0 35
2  310 77 0 0 35
0

0101000
-542 0 +552 0 *
Ed
 1e-07 1 1 0
1  156 0 0 35
2  311 76 0 0 35
2  312 75 0 0 35
0

0101000
-544 0 +554 0 *
Wi

0101100
-533 0 -541 0 +532 0 +551 0 *
Fa
0  1e-07 76 0

0111000
+531 0 *
Wi

0101100
-550 0 -533 0 +540 0 +537 0 *
Fa
0  1e-07 77 0

0111000
+529 0 *
Wi

0101100
-553 0 -532 0 +543 0 +536 0 *
Fa
0  1e-07 75 0

0111000
+527 0 *
Sh

0101100
-548 0 +538 0 -534 0 +530 0 -528 0 +526 0 *
So

0100000
+525 0 *
Ve
1e-07
1418 2142 -765
0 0

0101101
*
Ve
1e-07
1418 2142 -827
0 0

0101101
*
Ed
 1e-07 1 1 0
1  157 0 0 62
2  313 79 0 0 62
2  314 80 0 0 62
0

0101000
-523 0 +522 0 *
Ve
1e-07
1418 2167.5 -765
0 0

0101101
*
Ed
 1e-07 1 1 0
1  158 0 0 25.5
2  315 79 0 0 25.5
2  316 81 0 0 25.5
0

0101000
-520 0 +523 0 *
Ve
1e-07
1418 2167.5 -827
0 0

0101101
*
Ed
 1e-07 1 1 0
1  159 0 0 62
2  317 79 0 0 62
2  318 82 0 0 62
0

0101000
-520 0 +518 0 *
Ed
 1e-07 1 1 0
1  160 0 0 25.5
2  319 79 0 0 25.5
2  320 83 0 0 25.5
0

0101000
-518 0 +522 0 *
Wi

0101100
-521 0 -519 0 +517 0 +516 0 *
Fa
0  1e-07 79 0

0111000
+515 0 *
Ve
1e-07
1437.5 2142 -765
0 0

0101101
*
Ve
1e-07
1437.5 2142 -827
0 0

0101101
*
Ed
 1e-07 1 1 0
1  161 0 0 62
2  321 84 0 0 62
2  322 80 0 0 62
0

0101000
-513 0 +512 0 *
Ve
1e-07
1437.5 2167.5 -765
0 0

0101101
*
Ed
 1e-07 1 1 0
1  162 0 0 25.5
2  323 84 0 0 25.5
2  324 81 0 0 25.5
0

0101000
-510 0 +513 0 *
Ve
1e-07
1437.5 2167.5 -827
0 0

0101101
*
Ed
 1e-07 1 1 0
1  163 0 0 62
2  325 84 0 0 62
2  326 82 0 0 62
0

0101000
-510 0 +508 0 *
Ed
 1e-07 1 1 0
1  164 0 0 25.5
2  327 84 0 0 25.5
2  328 83 0 0 25.5
0

0101000
-508 0 +512 0 *
Wi

0101100
-511 0 -509 0 +507 0 +506 0 *
Fa
0  1e-07 84 0

0111000
+505 0 *
Ed
 1e-07 1 1 0
1  165 0 0 19.5
2  329 80 0 0 19.5
2  330 83 0 0 19.5
0

0101000
-512 0 +522 0 *
Ed
 1e-07 1 1 0
1  166 0 0 19.5
2  331 80 0 0 19.5
2  332 81 0 0 19.5
0

0101000
-513 0 +523 0 *
Wi

0101100
-503 0 -511 0 +502 0 +521 0 *
Fa
0  1e-07 80 0

0111000
+501 0 *
Ed
 1e-07 1 1 0
1  167 0 0 19.5
2  333 82 0 0 19.5
2  334 83 0 0 19.5
0

0101000
-508 0 +518 0 *
Ed
 1e-07 1 1 0
1  168 0 0 19.5
2  335 82 0 0 19.5
2  336 81 0 0 19.5
0

0101000
-510 0 +520 0 *
Wi

0101100
-499 0 -507 0 +498 0 +517 0 *
Fa
0  1e-07 82 0

0111000
+497 0 *
Wi

0101100
-516 0 -499 0 +506 0 +503 0 *
Fa
0  1e-07 83 0

0111000
+495 0 *
Wi

0101100
-519 0 -498 0 +509 0 +502 0 *
Fa
0  1e-07 81 0

0111000
+493 0 *
Sh

0101100
-514 0 +504 0 -500 0 +496 0 -494 0 +492 0 *
So

0100000
+491 0 *
Ve
1e-07
3983 2142 -765
0 0

0101101
*
Ve
1e-07
3983 2142 -827
0 0

0101101
*
Ed
 1e-07 1 1 0
1  169 0 0 62
2  337 85 0 0 62
2  338 86 0 0 62
0

0101000
-489 0 +488 0 *
Ve
1e-07
3983 2166 -765
0 0

0101101
*
Ed
 1e-07 1 1 0
1  170 0 0 24
2  339 85 0 0 24
2  340 87 0 0 24
0

0101000
-486 0 +489 0 *
Ve
1e-07
3983 2166 -827
0 0

0101101
*
Ed
 1e-07 1 1 0
1  171 0 0 62
2  341 85 0 0 62
2  342 88 0 0 62
0

0101000
-486 0 +484 0 *
Ed
 1e-07 1 1 0
1  172 0 0 24
2  343 85 0 0 24
2  344 89 0 0 24
0

0101000
-484 0 +488 0 *
Wi

0101100
-487 0 -485 0 +483 0 +482 0 *
Fa
0  1e-07 85 0

0111000
+481 0 *
Ve
1e-07
4017 2142 -765
0 0

0101101
*
Ve
1e-07
4017 2142 -827
0 0

0101101
*
Ed
 1e-07 1 1 0
1  173 0 0 62
2  345 90 0 0 62
2  346 86 0 0 62
0

0101000
-479 0 +478 0 *
Ve
1e-07
4017 2166 -765
0 0

0101101
*
Ed
 1e-07 1 1 0
1  174 0 0 24
2  347 90 0 0 24
2  348 87 0 0 24
0

0101000
-476 0 +479 0 *
Ve
1e-07
4017 2166 -827
0 0

0101101
*
Ed
 1e-07 1 1 0
1  175 0 0 62
2  349 90 0 0 62
2  350 88 0 0 62
0

0101000
-476 0 +474 0 *
Ed
 1e-07 1 1 0
1  176 0 0 24
2  351 90 0 0 24
2  352 89 0 0 24
0

0101000
-474 0 +478 0 *
Wi

0101100
-477 0 -475 0 +473 0 +472 0 *
Fa
0  1e-07 90 0

0111000
+471 0 *
Ed
 1e-07 1 1 0
1  177 0 0 34
2  353 86 0 0 34
2  354 89 0 0 34
0

0101000
-478 0 +488 0 *
Ed
 1e-07 1 1 0
1  178 0 0 34
2  355 86 0 0 34
2  356 87 0 0 34
0

0101000
-479 0 +489 0 *
Wi

0101100
-469 0 -477 0 +468 0 +487 0 *
Fa
0  1e-07 86 0

0111000
+467 0 *
Ed
 1e-07 1 1 0
1  179 0 0 34
2  357 88 0 0 34
2  358 89 0 0 34
0

0101000
-474 0 +484 0 *
Ed
 1e-07 1 1 0
1  180 0 0 34
2  359 88 0 0 34
2  360 87 0 0 34
0

0101000
-476 0 +486 0 *
Wi

0101100
-465 0 -473 0 +464 0 +483 0 *
Fa
0  1e-07 88 0

0111000
+463 0 *
Wi

0101100
-482 0 -465 0 +472 0 +469 0 *
Fa
0  1e-07 89 0

0111000
+461 0 *
Wi

0101100
-485 0 -464 0 +475 0 +468 0 *
Fa
0  1e-07 87 0

0111000
+459 0 *
Sh

0101100
-480 0 +470 0 -466 0 +462 0 -460 0 +458 0 *
So

0100000
+457 0 *
Ve
1e-07
3983 2142 -765
0 0

0101101
*
Ve
1e-07
3983 2142 -827
0 0

0101101
*
Ed
 1e-07 1 1 0
1  181 0 0 62
2  361 91 0 0 62
2  362 92 0 0 62
0

0101000
-455 0 +454 0 *
Ve
1e-07
3983 2166 -765
0 0

0101101
*
Ed
 1e-07 1 1 0
1  182 0 0 24
2  363 91 0 0 24
2  364 93 0 0 24
0

0101000
-452 0 +455 0 *
Ve
1e-07
3983 2166 -827
0 0

0101101
*
Ed
 1e-07 1 1 0
1  183 0 0 62
2  365 91 0 0 62
2  366 94 0 0 62
0

0101000
-452 0 +450 0 *
Ed
 1e-07 1 1 0
1  184 0 0 24
2  367 91 0 0 24
2  368 95 0 0 24
0

0101000
-450 0 +454 0 *
Wi

0101100
-453 0 -451 0 +449 0 +448 0 *
Fa
0  1e-07 91 0

0111000
+447 0 *
Ve
1e-07
4017 2142 -765
0 0

0101101
*
Ve
1e-07
4017 2142 -827
0 0

0101101
*
Ed
 1e-07 1 1 0
1  185 0 0 62
2  369 96 0 0 62
2  370 92 0 0 62
0

0101000
-445 0 +444 0 *
Ve
1e-07
4017 2166 -765
0 0

0101101
*
Ed
 1e-07 1 1 0
1  186 0 0 24
2  371 96 0 0 24
2  372 93 0 0 24
0

0101000
-442 0 +445 0 *
Ve
1e-07
4017 2166 -827
0 0

0101101
*
Ed
 1e-07 1 1 0
1  187 0 0 62
2  373 96 0 0 62
2  374 94 0 0 62
0

0101000
-442 0 +440 0 *
Ed
 1e-07 1 1 0
1  188 0 0 24
2  375 96 0 0 24
2  376 95 0 0 24
0

0101000
-440 0 +444 0 *
Wi

0101100
-443 0 -441 0 +439 0 +438 0 *
Fa
0  1e-07 96 0

0111000
+437 0 *
Ed
 1e-07 1 1 0
1  189 0 0 34
2  377 92 0 0 34
2  378 95 0 0 34
0

0101000
-444 0 +454 0 *
Ed
 1e-07 1 1 0
1  190 0 0 34
2  379 92 0 0 34
2  380 93 0 0 34
0

0101000
-445 0 +455 0 *
Wi

0101100
-435 0 -443 0 +434 0 +453 0 *
Fa
0  1e-07 92 0

0111000
+433 0 *
Ed
 1e-07 1 1 0
1  191 0 0 34
2  381 94 0 0 34
2  382 95 0 0 34
0

0101000
-440 0 +450 0 *
Ed
 1e-07 1 1 0
1  192 0 0 34
2  383 94 0 0 34
2  384 93 0 0 34
0

0101000
-442 0 +452 0 *
Wi

0101100
-431 0 -439 0 +430 0 +449 0 *
Fa
0  1e-07 94 0

0111000
+429 0 *
Wi

0101100
-448 0 -431 0 +438 0 +435 0 *
Fa
0  1e-07 95 0

0111000
+427 0 *
Wi

0101100
-451 0 -430 0 +441 0 +434 0 *
Fa
0  1e-07 93 0

0111000
+425 0 *
Sh

0101100
-446 0 +436 0 -432 0 +428 0 -426 0 +424 0 *
So

0100000
+423 0 *
Ve
1e-07
2467 2104 -689
0 0

0101101
*
Ve
1e-07
2467 2104 -827
0 0

0101101
*
Ed
 1e-07 1 1 0
1  193 0 0 138
2  385 97 0 0 138
2  386 98 0 0 138
0

0101000
-421 0 +420 0 *
Ve
1e-07
2467 2169 -689
0 0

0101101
*
Ed
 1e-07 1 1 0
1  194 0 0 65
2  387 97 0 0 65
2  388 99 0 0 65
0

0101000
-418 0 +421 0 *
Ve
1e-07
2467 2169 -827
0 0

0101101
*
Ed
 1e-07 1 1 0
1  195 0 0 138
2  389 97 0 0 138
2  390 100 0 0 138
0

0101000
-418 0 +416 0 *
Ed
 1e-07 1 1 0
1  196 0 0 65
2  391 97 0 0 65
2  392 101 0 0 65
0

0101000
-416 0 +420 0 *
Wi

0101100
-419 0 -417 0 +415 0 +414 0 *
Fa
0  1e-07 97 0

0111000
+413 0 *
Ve
1e-07
2517 2104 -689
0 0

0101101
*
Ve
1e-07
2517 2104 -827
0 0

0101101
*
Ed
 1e-07 1 1 0
1  197 0 0 138
2  393 102 0 0 138
2  394 98 0 0 138
0

0101000
-411 0 +410 0 *
Ve
1e-07
2517 2169 -689
0 0

0101101
*
Ed
 1e-07 1 1 0
1  198 0 0 65
2  395 102 0 0 65
2  396 99 0 0 65
0

0101000
-408 0 +411 0 *
Ve
1e-07
2517 2169 -827
0 0

0101101
*
Ed
 1e-07 1 1 0
1  199 0 0 138
2  397 102 0 0 138
2  398 100 0 0 138
0

0101000
-408 0 +406 0 *
Ed
 1e-07 1 1 0
1  200 0 0 65
2  399 102 0 0 65
2  400 101 0 0 65
0

0101000
-406 0 +410 0 *
Wi

0101100
-409 0 -407 0 +405 0 +404 0 *
Fa
0  1e-07 102 0

0111000
+403 0 *
Ed
 1e-07 1 1 0
1  201 0 0 50
2  401 98 0 0 50
2  402 101 0 0 50
0

0101000
-410 0 +420 0 *
Ed
 1e-07 1 1 0
1  202 0 0 50
2  403 98 0 0 50
2  404 99 0 0 50
0

0101000
-411 0 +421 0 *
Wi

0101100
-401 0 -409 0 +400 0 +419 0 *
Fa
0  1e-07 98 0

0111000
+399 0 *
Ed
 1e-07 1 1 0
1  203 0 0 50
2  405 100 0 0 50
2  406 101 0 0 50
0

0101000
-406 0 +416 0 *
Ed
 1e-07 1 1 0
1  204 0 0 50
2  407 100 0 0 50
2  408 99 0 0 50
0

0101000
-408 0 +418 0 *
Wi

0101100
-397 0 -405 0 +396 0 +415 0 *
Fa
0  1e-07 100 0

0111000
+395 0 *
Wi

0101100
-414 0 -397 0 +404 0 +401 0 *
Fa
0  1e-07 101 0

0111000
+393 0 *
Wi

0101100
-417 0 -396 0 +407 0 +400 0 *
Fa
0  1e-07 99 0

0111000
+391 0 *
Sh

0101100
-412 0 +402 0 -398 0 +394 0 -392 0 +390 0 *
So

0100000
+389 0 *
Ve
1e-07
2467 2104 -689
0 0

0101101
*
Ve
1e-07
2467 2104 -827
0 0

0101101
*
Ed
 1e-07 1 1 0
1  205 0 0 138
2  409 103 0 0 138
2  410 104 0 0 138
0

0101000
-387 0 +386 0 *
Ve
1e-07
2467 2169 -689
0 0

0101101
*
Ed
 1e-07 1 1 0
1  206 0 0 65
2  411 103 0 0 65
2  412 105 0 0 65
0

0101000
-384 0 +387 0 *
Ve
1e-07
2467 2169 -827
0 0

0101101
*
Ed
 1e-07 1 1 0
1  207 0 0 138
2  413 103 0 0 138
2  414 106 0 0 138
0

0101000
-384 0 +382 0 *
Ed
 1e-07 1 1 0
1  208 0 0 65
2  415 103 0 0 65
2  416 107 0 0 65
0

0101000
-382 0 +386 0 *
Wi

0101100
-385 0 -383 0 +381 0 +380 0 *
Fa
0  1e-07 103 0

0111000
+379 0 *
Ve
1e-07
2517 2104 -689
0 0

0101101
*
Ve
1e-07
2517 2104 -827
0 0

0101101
*
Ed
 1e-07 1 1 0
1  209 0 0 138
2  417 108 0 0 138
2  418 104 0 0 138
0

0101000
-377 0 +376 0 *
Ve
1e-07
2517 2169 -689
0 0

0101101
*
Ed
 1e-07 1 1 0
1  210 0 0 65
2  419 108 0 0 65
2  420 105 0 0 65
0

0101000
-374 0 +377 0 *
Ve
1e-07
2517 2169 -827
0 0

0101101
*
Ed
 1e-07 1 1 0
1  211 0 0 138
2  421 108 0 0 138
2  422 106 0 0 138
0

0101000
-374 0 +372 0 *
Ed
 1e-07 1 1 0
1  212 0 0 65
2  423 108 0 0 65
2  424 107 0 0 65
0

0101000
-372 0 +376 0 *
Wi

0101100
-375 0 -373 0 +371 0 +370 0 *
Fa
0  1e-07 108 0

0111000
+369 0 *
Ed
 1e-07 1 1 0
1  213 0 0 50
2  425 104 0 0 50
2  426 107 0 0 50
0

0101000
-376 0 +386 0 *
Ed
 1e-07 1 1 0
1  214 0 0 50
2  427 104 0 0 50
2  428 105 0 0 50
0

0101000
-377 0 +387 0 *
Wi

0101100
-367 0 -375 0 +366 0 +385 0 *
Fa
0  1e-07 104 0

0111000
+365 0 *
Ed
 1e-07 1 1 0
1  215 0 0 50
2  429 106 0 0 50
2  430 107 0 0 50
0

0101000
-372 0 +382 0 *
Ed
 1e-07 1 1 0
1  216 0 0 50
2  431 106 0 0 50
2  432 105 0 0 50
0

0101000
-374 0 +384 0 *
Wi

0101100
-363 0 -371 0 +362 0 +381 0 *
Fa
0  1e-07 106 0

0111000
+361 0 *
Wi

0101100
-380 0 -363 0 +370 0 +367 0 *
Fa
0  1e-07 107 0

0111000
+359 0 *
Wi

0101100
-383 0 -362 0 +373 0 +366 0 *
Fa
0  1e-07 105 0

0111000
+357 0 *
Sh

0101100
-378 0 +368 0 -364 0 +360 0 -358 0 +356 0 *
So

0100000
+355 0 *
Ve
1e-07
5067 1829.1 -742
0 0

0101101
*
Ve
1e-07
5067 1829.1 -778
0 0

0101101
*
Ed
 1e-07 1 1 0
1  217 0 0 36
2  433 109 0 0 36
2  434 110 0 0 36
0

0101000
-353 0 +352 0 *
Ve
1e-07
5067 1864.9 -742
0 0

0101101
*
Ed
 1e-07 1 1 0
1  218 0 0 35.8
2  435 109 0 0 35.8
2  436 111 0 0 35.8
0

0101000
-350 0 +353 0 *
Ve
1e-07
5067 1864.9 -778
0 0

0101101
*
Ed
 1e-07 1 1 0
1  219 0 0 36
2  437 109 0 0 36
2  438 112 0 0 36
0

0101000
-350 0 +348 0 *
Ed
 1e-07 1 1 0
1  220 0 0 35.8
2  439 109 0 0 35.8
2  440 113 0 0 35.8
0

0101000
-348 0 +352 0 *
Wi

0101100
-351 0 -349 0 +347 0 +346 0 *
Fa
0  1e-07 109 0

0111000
+345 0 *
Ve
1e-07
5133 1829.1 -742
0 0

0101101
*
Ve
1e-07
5133 1829.1 -778
0 0

0101101
*
Ed
 1e-07 1 1 0
1  221 0 0 36
2  441 114 0 0 36
2  442 110 0 0 36
0

0101000
-343 0 +342 0 *
Ve
1e-07
5133 1864.9 -742
0 0

0101101
*
Ed
 1e-07 1 1 0
1  222 0 0 35.8
2  443 114 0 0 35.8
2  444 111 0 0 35.8
0

0101000
-340 0 +343 0 *
Ve
1e-07
5133 1864.9 -778
0 0

0101101
*
Ed
 1e-07 1 1 0
1  223 0 0 36
2  445 114 0 0 36
2  446 112 0 0 36
0

0101000
-340 0 +338 0 *
Ed
 1e-07 1 1 0
1  224 0 0 35.8
2  447 114 0 0 35.8
2  448 113 0 0 35.8
0

0101000
-338 0 +342 0 *
Wi

0101100
-341 0 -339 0 +337 0 +336 0 *
Fa
0  1e-07 114 0

0111000
+335 0 *
Ed
 1e-07 1 1 0
1  225 0 0 66
2  449 110 0 0 66
2  450 113 0 0 66
0

0101000
-342 0 +352 0 *
Ed
 1e-07 1 1 0
1  226 0 0 66
2  451 110 0 0 66
2  452 111 0 0 66
0

0101000
-343 0 +353 0 *
Wi

0101100
-333 0 -341 0 +332 0 +351 0 *
Fa
0  1e-07 110 0

0111000
+331 0 *
Ed
 1e-07 1 1 0
1  227 0 0 66
2  453 112 0 0 66
2  454 113 0 0 66
0

0101000
-338 0 +348 0 *
Ed
 1e-07 1 1 0
1  228 0 0 66
2  455 112 0 0 66
2  456 111 0 0 66
0

0101000
-340 0 +350 0 *
Wi

0101100
-329 0 -337 0 +328 0 +347 0 *
Fa
0  1e-07 112 0

0111000
+327 0 *
Wi

0101100
-346 0 -329 0 +336 0 +333 0 *
Fa
0  1e-07 113 0

0111000
+325 0 *
Wi

0101100
-349 0 -328 0 +339 0 +332 0 *
Fa
0  1e-07 111 0

0111000
+323 0 *
Sh

0101100
-344 0 +334 0 -330 0 +326 0 -324 0 +322 0 *
So

0100000
+321 0 *
Ve
1e-07
5055 1890 -734
0 0

0101101
*
Ve
1e-07
5055 1890 -786
0 0

0101101
*
Ed
 1e-07 1 1 0
1  229 0 0 52
2  457 115 0 0 52
2  458 116 0 0 52
0

0101000
-319 0 +318 0 *
Ve
1e-07
5055 1898 -734
0 0

0101101
*
Ed
 1e-07 1 1 0
1  230 0 0 8
2  459 115 0 0 8
2  460 117 0 0 8
0

0101000
-316 0 +319 0 *
Ve
1e-07
5055 1898 -786
0 0

0101101
*
Ed
 1e-07 1 1 0
1  231 0 0 52
2  461 115 0 0 52
2  462 118 0 0 52
0

0101000
-316 0 +314 0 *
Ed
 1e-07 1 1 0
1  232 0 0 8
2  463 115 0 0 8
2  464 119 0 0 8
0

0101000
-314 0 +318 0 *
Wi

0101100
-317 0 -315 0 +313 0 +312 0 *
Fa
0  1e-07 115 0

0111000
+311 0 *
Ve
1e-07
5145 1890 -734
0 0

0101101
*
Ve
1e-07
5145 1890 -786
0 0

0101101
*
Ed
 1e-07 1 1 0
1  233 0 0 52
2  465 120 0 0 52
2  466 116 0 0 52
0

0101000
-309 0 +308 0 *
Ve
1e-07
5145 1898 -734
0 0

0101101
*
Ed
 1e-07 1 1 0
1  234 0 0 8
2  467 120 0 0 8
2  468 117 0 0 8
0

0101000
-306 0 +309 0 *
Ve
1e-07
5145 1898 -786
0 0

0101101
*
Ed
 1e-07 1 1 0
1  235 0 0 52
2  469 120 0 0 52
2  470 118 0 0 52
0

0101000
-306 0 +304 0 *
Ed
 1e-07 1 1 0
1  236 0 0 8
2  471 120 0 0 8
2  472 119 0 0 8
0

0101000
-304 0 +308 0 *
Wi

0101100
-307 0 -305 0 +303 0 +302 0 *
Fa
0  1e-07 120 0

0111000
+301 0 *
Ed
 1e-07 1 1 0
1  237 0 0 90
2  473 116 0 0 90
2  474 119 0 0 90
0

0101000
-308 0 +318 0 *
Ed
 1e-07 1 1 0
1  238 0 0 90
2  475 116 0 0 90
2  476 117 0 0 90
0

0101000
-309 0 +319 0 *
Wi

0101100
-299 0 -307 0 +298 0 +317 0 *
Fa
0  1e-07 116 0

0111000
+297 0 *
Ed
 1e-07 1 1 0
1  239 0 0 90
2  477 118 0 0 90
2  478 119 0 0 90
0

0101000
-304 0 +314 0 *
Ed
 1e-07 1 1 0
1  240 0 0 90
2  479 118 0 0 90
2  480 117 0 0 90
0

0101000
-306 0 +316 0 *
Wi

0101100
-295 0 -303 0 +294 0 +313 0 *
Fa
0  1e-07 118 0

0111000
+293 0 *
Wi

0101100
-312 0 -295 0 +302 0 +299 0 *
Fa
0  1e-07 119 0

0111000
+291 0 *
Wi

0101100
-315 0 -294 0 +305 0 +298 0 *
Fa
0  1e-07 117 0

0111000
+289 0 *
Sh

0101100
-310 0 +300 0 -296 0 +292 0 -290 0 +288 0 *
So

0100000
+287 0 *
Ve
1e-07
4267 1829.1 -742
0 0

0101101
*
Ve
1e-07
4267 1829.1 -778
0 0

0101101
*
Ed
 1e-07 1 1 0
1  241 0 0 36
2  481 121 0 0 36
2  482 122 0 0 36
0

0101000
-285 0 +284 0 *
Ve
1e-07
4267 1864.9 -742
0 0

0101101
*
Ed
 1e-07 1 1 0
1  242 0 0 35.8
2  483 121 0 0 35.8
2  484 123 0 0 35.8
0

0101000
-282 0 +285 0 *
Ve
1e-07
4267 1864.9 -778
0 0

0101101
*
Ed
 1e-07 1 1 0
1  243 0 0 36
2  485 121 0 0 36
2  486 124 0 0 36
0

0101000
-282 0 +280 0 *
Ed
 1e-07 1 1 0
1  244 0 0 35.8
2  487 121 0 0 35.8
2  488 125 0 0 35.8
0

0101000
-280 0 +284 0 *
Wi

0101100
-283 0 -281 0 +279 0 +278 0 *
Fa
0  1e-07 121 0

0111000
+277 0 *
Ve
1e-07
4333 1829.1 -742
0 0

0101101
*
Ve
1e-07
4333 1829.1 -778
0 0

0101101
*
Ed
 1e-07 1 1 0
1  245 0 0 36
2  489 126 0 0 36
2  490 122 0 0 36
0

0101000
-275 0 +274 0 *
Ve
1e-07
4333 1864.9 -742
0 0

0101101
*
Ed
 1e-07 1 1 0
1  246 0 0 35.8
2  491 126 0 0 35.8
2  492 123 0 0 35.8
0

0101000
-272 0 +275 0 *
Ve
1e-07
4333 1864.9 -778
0 0

0101101
*
Ed
 1e-07 1 1 0
1  247 0 0 36
2  493 126 0 0 36
2  494 124 0 0 36
0

0101000
-272 0 +270 0 *
Ed
 1e-07 1 1 0
1  248 0 0 35.8
2  495 126 0 0 35.8
2  496 125 0 0 35.8
0

0101000
-270 0 +274 0 *
Wi

0101100
-273 0 -271 0 +269 0 +268 0 *
Fa
0  1e-07 126 0

0111000
+267 0 *
Ed
 1e-07 1 1 0
1  249 0 0 66
2  497 122 0 0 66
2  498 125 0 0 66
0

0101000
-274 0 +284 0 *
Ed
 1e-07 1 1 0
1  250 0 0 66
2  499 122 0 0 66
2  500 123 0 0 66
0

0101000
-275 0 +285 0 *
Wi

0101100
-265 0 -273 0 +264 0 +283 0 *
Fa
0  1e-07 122 0

0111000
+263 0 *
Ed
 1e-07 1 1 0
1  251 0 0 66
2  501 124 0 0 66
2  502 125 0 0 66
0

0101000
-270 0 +280 0 *
Ed
 1e-07 1 1 0
1  252 0 0 66
2  503 124 0 0 66
2  504 123 0 0 66
0

0101000
-272 0 +282 0 *
Wi

0101100
-261 0 -269 0 +260 0 +279 0 *
Fa
0  1e-07 124 0

0111000
+259 0 *
Wi

0101100
-278 0 -261 0 +268 0 +265 0 *
Fa
0  1e-07 125 0

0111000
+257 0 *
Wi

0101100
-281 0 -260 0 +271 0 +264 0 *
Fa
0  1e-07 123 0

0111000
+255 0 *
Sh

0101100
-276 0 +266 0 -262 0 +258 0 -256 0 +254 0 *
So

0100000
+253 0 *
Ve
1e-07
4255 1890 -734
0 0

0101101
*
Ve
1e-07
4255 1890 -786
0 0

0101101
*
Ed
 1e-07 1 1 0
1  253 0 0 52
2  505 127 0 0 52
2  506 128 0 0 52
0

0101000
-251 0 +250 0 *
Ve
1e-07
4255 1898 -734
0 0

0101101
*
Ed
 1e-07 1 1 0
1  254 0 0 8
2  507 127 0 0 8
2  508 129 0 0 8
0

0101000
-248 0 +251 0 *
Ve
1e-07
4255 1898 -786
0 0

0101101
*
Ed
 1e-07 1 1 0
1  255 0 0 52
2  509 127 0 0 52
2  510 130 0 0 52
0

0101000
-248 0 +246 0 *
Ed
 1e-07 1 1 0
1  256 0 0 8
2  511 127 0 0 8
2  512 131 0 0 8
0

0101000
-246 0 +250 0 *
Wi

0101100
-249 0 -247 0 +245 0 +244 0 *
Fa
0  1e-07 127 0

0111000
+243 0 *
Ve
1e-07
4345 1890 -734
0 0

0101101
*
Ve
1e-07
4345 1890 -786
0 0

0101101
*
Ed
 1e-07 1 1 0
1  257 0 0 52
2  513 132 0 0 52
2  514 128 0 0 52
0

0101000
-241 0 +240 0 *
Ve
1e-07
4345 1898 -734
0 0

0101101
*
Ed
 1e-07 1 1 0
1  258 0 0 8
2  515 132 0 0 8
2  516 129 0 0 8
0

0101000
-238 0 +241 0 *
Ve
1e-07
4345 1898 -786
0 0

0101101
*
Ed
 1e-07 1 1 0
1  259 0 0 52
2  517 132 0 0 52
2  518 130 0 0 52
0

0101000
-238 0 +236 0 *
Ed
 1e-07 1 1 0
1  260 0 0 8
2  519 132 0 0 8
2  520 131 0 0 8
0

0101000
-236 0 +240 0 *
Wi

0101100
-239 0 -237 0 +235 0 +234 0 *
Fa
0  1e-07 132 0

0111000
+233 0 *
Ed
 1e-07 1 1 0
1  261 0 0 90
2  521 128 0 0 90
2  522 131 0 0 90
0

0101000
-240 0 +250 0 *
Ed
 1e-07 1 1 0
1  262 0 0 90
2  523 128 0 0 90
2  524 129 0 0 90
0

0101000
-241 0 +251 0 *
Wi

0101100
-231 0 -239 0 +230 0 +249 0 *
Fa
0  1e-07 128 0

0111000
+229 0 *
Ed
 1e-07 1 1 0
1  263 0 0 90
2  525 130 0 0 90
2  526 131 0 0 90
0

0101000
-236 0 +246 0 *
Ed
 1e-07 1 1 0
1  264 0 0 90
2  527 130 0 0 90
2  528 129 0 0 90
0

0101000
-238 0 +248 0 *
Wi

0101100
-227 0 -235 0 +226 0 +245 0 *
Fa
0  1e-07 130 0

0111000
+225 0 *
Wi

0101100
-244 0 -227 0 +234 0 +231 0 *
Fa
0  1e-07 131 0

0111000
+223 0 *
Wi

0101100
-247 0 -226 0 +237 0 +230 0 *
Fa
0  1e-07 129 0

0111000
+221 0 *
Sh

0101100
-242 0 +232 0 -228 0 +224 0 -222 0 +220 0 *
So

0100000
+219 0 *
Ve
1e-07
1960.5 2007 -778
0 0

0101101
*
Ve
1e-07
1960.5 2007 -814
0 0

0101101
*
Ed
 1e-07 1 1 0
1  265 0 0 36
2  529 133 0 0 36
2  530 134 0 0 36
0

0101000
-217 0 +216 0 *
Ve
1e-07
1960.5 2073 -778
0 0

0101101
*
Ed
 1e-07 1 1 0
1  266 0 0 66
2  531 133 0 0 66
2  532 135 0 0 66
0

0101000
-214 0 +217 0 *
Ve
1e-07
1960.5 2073 -814
0 0

0101101
*
Ed
 1e-07 1 1 0
1  267 0 0 36
2  533 133 0 0 36
2  534 136 0 0 36
0

0101000
-214 0 +212 0 *
Ed
 1e-07 1 1 0
1  268 0 0 66
2  535 133 0 0 66
2  536 137 0 0 66
0

0101000
-212 0 +216 0 *
Wi

0101100
-215 0 -213 0 +211 0 +210 0 *
Fa
0  1e-07 133 0

0111000
+209 0 *
Ve
1e-07
1994 2007 -778
0 0

0101101
*
Ve
1e-07
1994 2007 -814
0 0

0101101
*
Ed
 1e-07 1 1 0
1  269 0 0 36
2  537 138 0 0 36
2  538 134 0 0 36
0

0101000
-207 0 +206 0 *
Ve
1e-07
1994 2073 -778
0 0

0101101
*
Ed
 1e-07 1 1 0
1  270 0 0 66
2  539 138 0 0 66
2  540 135 0 0 66
0

0101000
-204 0 +207 0 *
Ve
1e-07
1994 2073 -814
0 0

0101101
*
Ed
 1e-07 1 1 0
1  271 0 0 36
2  541 138 0 0 36
2  542 136 0 0 36
0

0101000
-204 0 +202 0 *
Ed
 1e-07 1 1 0
1  272 0 0 66
2  543 138 0 0 66
2  544 137 0 0 66
0

0101000
-202 0 +206 0 *
Wi

0101100
-205 0 -203 0 +201 0 +200 0 *
Fa
0  1e-07 138 0

0111000
+199 0 *
Ed
 1e-07 1 1 0
1  273 0 0 33.5
2  545 134 0 0 33.5
2  546 137 0 0 33.5
0

0101000
-206 0 +216 0 *
Ed
 1e-07 1 1 0
1  274 0 0 33.5
2  547 134 0 0 33.5
2  548 135 0 0 33.5
0

0101000
-207 0 +217 0 *
Wi

0101100
-197 0 -205 0 +196 0 +215 0 *
Fa
0  1e-07 134 0

0111000
+195 0 *
Ed
 1e-07 1 1 0
1  275 0 0 33.5
2  549 136 0 0 33.5
2  550 137 0 0 33.5
0

0101000
-202 0 +212 0 *
Ed
 1e-07 1 1 0
1  276 0 0 33.5
2  551 136 0 0 33.5
2  552 135 0 0 33.5
0

0101000
-204 0 +214 0 *
Wi

0101100
-193 0 -201 0 +192 0 +211 0 *
Fa
0  1e-07 136 0

0111000
+191 0 *
Wi

0101100
-210 0 -193 0 +200 0 +197 0 *
Fa
0  1e-07 137 0

0111000
+189 0 *
Wi

0101100
-213 0 -192 0 +203 0 +196 0 *
Fa
0  1e-07 135 0

0111000
+187 0 *
Sh

0101100
-208 0 +198 0 -194 0 +190 0 -188 0 +186 0 *
So

0100000
+185 0 *
Ve
1e-07
1700 1119 -796.75
0 0

0101101
*
Ed
 1e-07 1 1 0
1  277 0 0 6.28318530717959
2  553 139 0 0 6.28318530717959
2  554 140 0 0 6.28318530717959
0

0101000
+183 0 -183 0 *
Ve
1e-07
1700 1097.5 -796.75
0 0

0101101
*
Ed
 1e-07 1 1 0
1  278 0 0 21.5
3  555 556CN 139 0 0 21.5
0

0101000
-183 0 +181 0 *
Ed
 1e-07 1 1 0
1  279 0 0 6.28318530717959
2  557 139 0 0 6.28318530717959
2  558 141 0 0 6.28318530717959
0

0101000
+181 0 -181 0 *
Wi

0101100
-182 0 +180 0 +179 0 -180 0 *
Fa
0  1e-07 139 0

0111000
+178 0 *
Wi

0101100
+182 0 *
Fa
0  1e-07 140 0

0111000
+176 0 *
Wi

0101100
-179 0 *
Fa
0  1e-07 141 0

0111000
-174 0 *
Sh

0101100
+177 0 +175 0 -173 0 *
So

0100000
+172 0 *
Ve
1e-07
1826 1775 -705.75
0 0

0101101
*
Ed
 1e-07 1 1 0
1  280 0 0 6.28318530717959
2  559 142 0 0 6.28318530717959
2  560 143 0 0 6.28318530717959
0

0101000
+170 0 -170 0 *
Ve
1e-07
1826 1712.5 -705.75
0 0

0101101
*
Ed
 1e-07 1 1 0
1  281 0 0 62.5
3  561 562CN 142 0 0 62.5
0

0101000
-170 0 +168 0 *
Ed
 1e-07 1 1 0
1  282 0 0 6.28318530717959
2  563 142 0 0 6.28318530717959
2  564 144 0 0 6.28318530717959
0

0101000
+168 0 -168 0 *
Wi

0101100
-169 0 +167 0 +166 0 -167 0 *
Fa
0  1e-07 142 0

0111000
+165 0 *
Wi

0101100
+169 0 *
Fa
0  1e-07 143 0

0111000
+163 0 *
Wi

0101100
-166 0 *
Fa
0  1e-07 144 0

0111000
-161 0 *
Sh

0101100
+164 0 +162 0 -160 0 *
So

0100000
+159 0 *
Ve
1e-07
1975 1775 -705.75
0 0

0101101
*
Ed
 1e-07 1 1 0
1  283 0 0 6.28318530717959
2  565 145 0 0 6.28318530717959
2  566 146 0 0 6.28318530717959
0

0101000
+157 0 -157 0 *
Ve
1e-07
1975 1712.5 -705.75
0 0

0101101
*
Ed
 1e-07 1 1 0
1  284 0 0 62.5
3  567 568CN 145 0 0 62.5
0

0101000
-157 0 +155 0 *
Ed
 1e-07 1 1 0
1  285 0 0 6.28318530717959
2  569 145 0 0 6.28318530717959
2  570 147 0 0 6.28318530717959
0

0101000
+155 0 -155 0 *
Wi

0101100
-156 0 +154 0 +153 0 -154 0 *
Fa
0  1e-07 145 0

0111000
+152 0 *
Wi

0101100
+156 0 *
Fa
0  1e-07 146 0

0111000
+150 0 *
Wi

0101100
-153 0 *
Fa
0  1e-07 147 0

0111000
-148 0 *
Sh

0101100
+151 0 +149 0 -147 0 *
So

0100000
+146 0 *
Ve
1e-07
2463.3 986.5 -504
0 0

0101101
*
Ed
 1e-07 1 1 0
1  286 0 0 6.28318530717959
2  571 148 0 0 6.28318530717959
2  572 149 0 0 6.28318530717959
0

0101000
+144 0 -144 0 *
Ve
1e-07
2463.3 986.5 -510
0 0

0101101
*
Ed
 1e-07 1 1 0
1  287 0 0 6
3  573 574CN 148 0 0 6
0

0101000
-144 0 +142 0 *
Ed
 1e-07 1 1 0
1  288 0 0 6.28318530717959
2  575 148 0 0 6.28318530717959
2  576 150 0 0 6.28318530717959
0

0101000
+142 0 -142 0 *
Wi

0101100
-143 0 +141 0 +140 0 -141 0 *
Fa
0  1e-07 148 0

0111000
+139 0 *
Wi

0101100
+143 0 *
Fa
0  1e-07 149 0

0111000
+137 0 *
Wi

0101100
-140 0 *
Fa
0  1e-07 150 0

0111000
-135 0 *
Sh

0101100
+138 0 +136 0 -134 0 *
So

0100000
+133 0 *
Ve
1e-07
2449.75 923.5 -485
0 0

0101101
*
Ed
 1e-07 1 1 0
1  289 0 0 6.28318530717959
2  577 151 0 0 6.28318530717959
2  578 152 0 0 6.28318530717959
0

0101000
+131 0 -131 0 *
Ve
1e-07
2449.75 923.5 -462
0 0

0101101
*
Ed
 1e-07 1 1 0
1  290 0 0 23
3  579 580CN 151 0 0 23
0

0101000
-131 0 +129 0 *
Ed
 1e-07 1 1 0
1  291 0 0 6.28318530717959
2  581 151 0 0 6.28318530717959
2  582 153 0 0 6.28318530717959
0

0101000
+129 0 -129 0 *
Wi

0101100
-130 0 +128 0 +127 0 -128 0 *
Fa
0  1e-07 151 0

0111000
+126 0 *
Wi

0101100
+130 0 *
Fa
0  1e-07 152 0

0111000
+124 0 *
Wi

0101100
-127 0 *
Fa
0  1e-07 153 0

0111000
-122 0 *
Sh

0101100
+125 0 +123 0 -121 0 *
So

0100000
+120 0 *
Ve
1e-07
2771.75 1121.5 -661
0 0

0101101
*
Ed
 1e-07 1 1 0
1  292 0 0 6.28318530717959
2  583 154 0 0 6.28318530717959
2  584 155 0 0 6.28318530717959
0

0101000
+118 0 -118 0 *
Ve
1e-07
2771.75 1121.5 -639.5
0 0

0101101
*
Ed
 1e-07 1 1 0
1  293 0 0 21.5
3  585 586CN 154 0 0 21.5
0

0101000
-118 0 +116 0 *
Ed
 1e-07 1 1 0
1  294 0 0 6.28318530717959
2  587 154 0 0 6.28318530717959
2  588 156 0 0 6.28318530717959
0

0101000
+116 0 -116 0 *
Wi

0101100
-117 0 +115 0 +114 0 -115 0 *
Fa
0  1e-07 154 0

0111000
+113 0 *
Wi

0101100
+117 0 *
Fa
0  1e-07 155 0

0111000
+111 0 *
Wi

0101100
-114 0 *
Fa
0  1e-07 156 0

0111000
-109 0 *
Sh

0101100
+112 0 +110 0 -108 0 *
So

0100000
+107 0 *
Ve
1e-07
2526.5 1121.5 -791.75
0 0

0101101
*
Ed
 1e-07 1 1 0
1  295 0 0 6.28318530717959
2  589 157 0 0 6.28318530717959
2  590 158 0 0 6.28318530717959
0

0101000
+105 0 -105 0 *
Ve
1e-07
2458.5 1121.5 -791.75
0 0

0101101
*
Ed
 1e-07 1 1 0
1  296 0 0 68
3  591 592CN 157 0 0 68
0

0101000
-105 0 +103 0 *
Ed
 1e-07 1 1 0
1  297 0 0 6.28318530717959
2  593 157 0 0 6.28318530717959
2  594 159 0 0 6.28318530717959
0

0101000
+103 0 -103 0 *
Wi

0101100
-104 0 +102 0 +101 0 -102 0 *
Fa
0  1e-07 157 0

0111000
+100 0 *
Wi

0101100
+104 0 *
Fa
0  1e-07 158 0

0111000
+98 0 *
Wi

0101100
-101 0 *
Fa
0  1e-07 159 0

0111000
-96 0 *
Sh

0101100
+99 0 +97 0 -95 0 *
So

0100000
+94 0 *
Ve
1e-07
1426 1640 -728.25
0 0

0101101
*
Ed
 1e-07 1 1 0
1  298 0 0 6.28318530717959
2  595 160 0 0 6.28318530717959
2  596 161 0 0 6.28318530717959
0

0101000
+92 0 -92 0 *
Ve
1e-07
1477.5 1640 -728.25
0 0

0101101
*
Ed
 1e-07 1 1 0
1  299 0 0 51.5
3  597 598CN 160 0 0 51.5
0

0101000
-92 0 +90 0 *
Ed
 1e-07 1 1 0
1  300 0 0 6.28318530717959
2  599 160 0 0 6.28318530717959
2  600 162 0 0 6.28318530717959
0

0101000
+90 0 -90 0 *
Wi

0101100
-91 0 +89 0 +88 0 -89 0 *
Fa
0  1e-07 160 0

0111000
+87 0 *
Wi

0101100
+91 0 *
Fa
0  1e-07 161 0

0111000
+85 0 *
Wi

0101100
-88 0 *
Fa
0  1e-07 162 0

0111000
-83 0 *
Sh

0101100
+86 0 +84 0 -82 0 *
So

0100000
+81 0 *
Ve
1e-07
1426 1612 -728.25
0 0

0101101
*
Ed
 1e-07 1 1 0
1  301 0 0 6.28318530717959
2  601 163 0 0 6.28318530717959
2  602 164 0 0 6.28318530717959
0

0101000
+79 0 -79 0 *
Ve
1e-07
1477.5 1612 -728.25
0 0

0101101
*
Ed
 1e-07 1 1 0
1  302 0 0 51.5
3  603 604CN 163 0 0 51.5
0

0101000
-79 0 +77 0 *
Ed
 1e-07 1 1 0
1  303 0 0 6.28318530717959
2  605 163 0 0 6.28318530717959
2  606 165 0 0 6.28318530717959
0

0101000
+77 0 -77 0 *
Wi

0101100
-78 0 +76 0 +75 0 -76 0 *
Fa
0  1e-07 163 0

0111000
+74 0 *
Wi

0101100
+78 0 *
Fa
0  1e-07 164 0

0111000
+72 0 *
Wi

0101100
-75 0 *
Fa
0  1e-07 165 0

0111000
-70 0 *
Sh

0101100
+73 0 +71 0 -69 0 *
So

0100000
+68 0 *
Ve
1e-07
3973.5 1387 -304.25
0 0

0101101
*
Ed
 1e-07 1 1 0
1  304 0 0 6.28318530717959
2  607 166 0 0 6.28318530717959
2  608 167 0 0 6.28318530717959
0

0101000
+66 0 -66 0 *
Ve
1e-07
4011.5 1387 -304.25
0 0

0101101
*
Ed
 1e-07 1 1 0
1  305 0 0 38
3  609 610CN 166 0 0 38
0

0101000
-66 0 +64 0 *
Ed
 1e-07 1 1 0
1  306 0 0 6.28318530717959
2  611 166 0 0 6.28318530717959
2  612 168 0 0 6.28318530717959
0

0101000
+64 0 -64 0 *
Wi

0101100
-65 0 +63 0 +62 0 -63 0 *
Fa
0  1e-07 166 0

0111000
+61 0 *
Wi

0101100
+65 0 *
Fa
0  1e-07 167 0

0111000
+59 0 *
Wi

0101100
-62 0 *
Fa
0  1e-07 168 0

0111000
-57 0 *
Sh

0101100
+60 0 +58 0 -56 0 *
So

0100000
+55 0 *
Ve
1e-07
4040.6 314.5 -485
0 0

0101101
*
Ed
 1e-07 1 1 0
1  307 0 0 6.28318530717959
2  613 169 0 0 6.28318530717959
2  614 170 0 0 6.28318530717959
0

0101000
+53 0 -53 0 *
Ve
1e-07
4040.6 314.5 -515
0 0

0101101
*
Ed
 1e-07 1 1 0
1  308 0 0 30
3  615 616CN 169 0 0 30
0

0101000
-53 0 +51 0 *
Ed
 1e-07 1 1 0
1  309 0 0 6.28318530717959
2  617 169 0 0 6.28318530717959
2  618 171 0 0 6.28318530717959
0

0101000
+51 0 -51 0 *
Wi

0101100
-52 0 +50 0 +49 0 -50 0 *
Fa
0  1e-07 169 0

0111000
+48 0 *
Wi

0101100
+52 0 *
Fa
0  1e-07 170 0

0111000
+46 0 *
Wi

0101100
-49 0 *
Fa
0  1e-07 171 0

0111000
-44 0 *
Sh

0101100
+47 0 +45 0 -43 0 *
So

0100000
+42 0 *
Ve
1e-07
2990 798 -656.75
0 0

0101101
*
Ed
 1e-07 1 1 0
1  310 0 0 6.28318530717959
2  619 172 0 0 6.28318530717959
2  620 173 0 0 6.28318530717959
0

0101000
+40 0 -40 0 *
Ve
1e-07
2990 776.5 -656.75
0 0

0101101
*
Ed
 1e-07 1 1 0
1  311 0 0 21.5
3  621 622CN 172 0 0 21.5
0

0101000
-40 0 +38 0 *
Ed
 1e-07 1 1 0
1  312 0 0 6.28318530717959
2  623 172 0 0 6.28318530717959
2  624 174 0 0 6.28318530717959
0

0101000
+38 0 -38 0 *
Wi

0101100
-39 0 +37 0 +36 0 -37 0 *
Fa
0  1e-07 172 0

0111000
+35 0 *
Wi

0101100
+39 0 *
Fa
0  1e-07 173 0

0111000
+33 0 *
Wi

0101100
-36 0 *
Fa
0  1e-07 174 0

0111000
-31 0 *
Sh

0101100
+34 0 +32 0 -30 0 *
So

0100000
+29 0 *
Ve
1e-07
2760.75 920 -838.5
0 0

0101101
*
Ed
 1e-07 1 1 0
1  313 0 0 6.28318530717959
2  625 175 0 0 6.28318530717959
2  626 176 0 0 6.28318530717959
0

0101000
+27 0 -27 0 *
Ve
1e-07
2760.75 920 -817
0 0

0101101
*
Ed
 1e-07 1 1 0
1  314 0 0 21.5
3  627 628CN 175 0 0 21.5
0

0101000
-27 0 +25 0 *
Ed
 1e-07 1 1 0
1  315 0 0 6.28318530717959
2  629 175 0 0 6.28318530717959
2  630 177 0 0 6.28318530717959
0

0101000
+25 0 -25 0 *
Wi

0101100
-26 0 +24 0 +23 0 -24 0 *
Fa
0  1e-07 175 0

0111000
+22 0 *
Wi

0101100
+26 0 *
Fa
0  1e-07 176 0

0111000
+20 0 *
Wi

0101100
-23 0 *
Fa
0  1e-07 177 0

0111000
-18 0 *
Sh

0101100
+21 0 +19 0 -17 0 *
So

0100000
+16 0 *
Ve
1e-07
3460 1305 -788.25
0 0

0101101
*
Ed
 1e-07 1 1 0
1  316 0 0 6.28318530717959
2  631 178 0 0 6.28318530717959
2  632 179 0 0 6.28318530717959
0

0101000
+14 0 -14 0 *
Ve
1e-07
3460 1326.5 -788.25
0 0

0101101
*
Ed
 1e-07 1 1 0
1  317 0 0 21.5
3  633 634CN 178 0 0 21.5
0

0101000
-14 0 +12 0 *
Ed
 1e-07 1 1 0
1  318 0 0 6.28318530717959
2  635 178 0 0 6.28318530717959
2  636 180 0 0 6.28318530717959
0

0101000
+12 0 -12 0 *
Wi

0101100
-13 0 +11 0 +10 0 -11 0 *
Fa
0  1e-07 178 0

0111000
+9 0 *
Wi

0101100
+13 0 *
Fa
0  1e-07 179 0

0111000
+7 0 *
Wi

0101100
-10 0 *
Fa
0  1e-07 180 0

0111000
-5 0 *
Sh

0101100
+8 0 +6 0 -4 0 *
So

0100000
+3 0 *
Co

1100000
+932 0 +898 0 +864 0 +830 0 +796 0 +762 0 +728 0 +694 0 +660 0 +626 0 
+592 0 +558 0 +524 0 +490 0 +456 0 +422 0 +388 0 +354 0 +320 0 +320 0 
+286 0 +252 0 +252 0 +218 0 +184 0 +171 0 +158 0 +158 0 +158 0 +145 0 
+145 0 +145 0 +132 0 +119 0 +106 0 +93 0 +93 0 +80 0 +67 0 +54 0 
+54 0 +41 0 +28 0 +15 0 +2 0 *

+1 0 